G04 #@! TF.GenerationSoftware,KiCad,Pcbnew,(5.1.4-0-10_14)*
G04 #@! TF.CreationDate,2020-03-01T16:52:25+01:00*
G04 #@! TF.ProjectId,actuator-board,61637475-6174-46f7-922d-626f6172642e,A.1*
G04 #@! TF.SameCoordinates,Original*
G04 #@! TF.FileFunction,Soldermask,Bot*
G04 #@! TF.FilePolarity,Negative*
%FSLAX46Y46*%
G04 Gerber Fmt 4.6, Leading zero omitted, Abs format (unit mm)*
G04 Created by KiCad (PCBNEW (5.1.4-0-10_14)) date 2020-03-01 16:52:25*
%MOMM*%
%LPD*%
G04 APERTURE LIST*
%ADD10C,0.100000*%
G04 APERTURE END LIST*
D10*
G36*
X69245845Y-98619215D02*
G01*
X69336839Y-98656906D01*
X69377507Y-98684080D01*
X69418733Y-98711626D01*
X69488374Y-98781267D01*
X69488375Y-98781269D01*
X69543094Y-98863161D01*
X69580785Y-98954155D01*
X69600000Y-99050754D01*
X69600000Y-99149246D01*
X69580785Y-99245845D01*
X69543094Y-99336839D01*
X69543093Y-99336840D01*
X69488374Y-99418733D01*
X69418733Y-99488374D01*
X69377507Y-99515920D01*
X69336839Y-99543094D01*
X69245845Y-99580785D01*
X69149246Y-99600000D01*
X69050754Y-99600000D01*
X68954155Y-99580785D01*
X68863161Y-99543094D01*
X68822493Y-99515920D01*
X68781267Y-99488374D01*
X68711626Y-99418733D01*
X68656907Y-99336840D01*
X68656906Y-99336839D01*
X68619215Y-99245845D01*
X68600000Y-99149246D01*
X68600000Y-99050754D01*
X68619215Y-98954155D01*
X68656906Y-98863161D01*
X68711625Y-98781269D01*
X68711626Y-98781267D01*
X68781267Y-98711626D01*
X68822493Y-98684080D01*
X68863161Y-98656906D01*
X68954155Y-98619215D01*
X69050754Y-98600000D01*
X69149246Y-98600000D01*
X69245845Y-98619215D01*
X69245845Y-98619215D01*
G37*
G36*
X61475000Y-98570000D02*
G01*
X60829999Y-98570000D01*
X60798785Y-98573074D01*
X60768770Y-98582179D01*
X60741108Y-98596965D01*
X60716863Y-98616863D01*
X60696965Y-98641108D01*
X60682179Y-98668770D01*
X60673074Y-98698785D01*
X60670000Y-98729999D01*
X60670000Y-99375000D01*
X59870000Y-99375000D01*
X59870000Y-98625000D01*
X60565001Y-98625000D01*
X60596215Y-98621926D01*
X60626230Y-98612821D01*
X60653892Y-98598035D01*
X60678137Y-98578137D01*
X60698035Y-98553892D01*
X60712821Y-98526230D01*
X60721926Y-98496215D01*
X60725000Y-98465001D01*
X60725000Y-97770000D01*
X61475000Y-97770000D01*
X61475000Y-98570000D01*
X61475000Y-98570000D01*
G37*
G36*
X59400000Y-99375000D02*
G01*
X58600000Y-99375000D01*
X58600000Y-98625000D01*
X59400000Y-98625000D01*
X59400000Y-99375000D01*
X59400000Y-99375000D01*
G37*
G36*
X57275000Y-98465001D02*
G01*
X57278074Y-98496215D01*
X57287179Y-98526230D01*
X57301965Y-98553892D01*
X57321863Y-98578137D01*
X57346108Y-98598035D01*
X57373770Y-98612821D01*
X57403785Y-98621926D01*
X57434999Y-98625000D01*
X58130000Y-98625000D01*
X58130000Y-99375000D01*
X57330000Y-99375000D01*
X57330000Y-98729999D01*
X57326926Y-98698785D01*
X57317821Y-98668770D01*
X57303035Y-98641108D01*
X57283137Y-98616863D01*
X57258892Y-98596965D01*
X57231230Y-98582179D01*
X57201215Y-98573074D01*
X57170001Y-98570000D01*
X56525000Y-98570000D01*
X56525000Y-97770000D01*
X57275000Y-97770000D01*
X57275000Y-98465001D01*
X57275000Y-98465001D01*
G37*
G36*
X63693040Y-97203905D02*
G01*
X63723619Y-97213181D01*
X63751791Y-97228239D01*
X63776491Y-97248509D01*
X63796761Y-97273209D01*
X63811819Y-97301381D01*
X63821095Y-97331960D01*
X63825000Y-97371605D01*
X63825000Y-98003395D01*
X63821095Y-98043040D01*
X63811819Y-98073619D01*
X63796761Y-98101791D01*
X63776491Y-98126491D01*
X63751791Y-98146761D01*
X63723619Y-98161819D01*
X63693040Y-98171095D01*
X63653395Y-98175000D01*
X62946605Y-98175000D01*
X62906960Y-98171095D01*
X62876381Y-98161819D01*
X62848209Y-98146761D01*
X62823509Y-98126491D01*
X62803239Y-98101791D01*
X62788181Y-98073619D01*
X62778905Y-98043040D01*
X62775000Y-98003395D01*
X62775000Y-97371605D01*
X62778905Y-97331960D01*
X62788181Y-97301381D01*
X62803239Y-97273209D01*
X62823509Y-97248509D01*
X62848209Y-97228239D01*
X62876381Y-97213181D01*
X62906960Y-97203905D01*
X62946605Y-97200000D01*
X63653395Y-97200000D01*
X63693040Y-97203905D01*
X63693040Y-97203905D01*
G37*
G36*
X55293040Y-97203905D02*
G01*
X55323619Y-97213181D01*
X55351791Y-97228239D01*
X55376491Y-97248509D01*
X55396761Y-97273209D01*
X55411819Y-97301381D01*
X55421095Y-97331960D01*
X55425000Y-97371605D01*
X55425000Y-98003395D01*
X55421095Y-98043040D01*
X55411819Y-98073619D01*
X55396761Y-98101791D01*
X55376491Y-98126491D01*
X55351791Y-98146761D01*
X55323619Y-98161819D01*
X55293040Y-98171095D01*
X55253395Y-98175000D01*
X54546605Y-98175000D01*
X54506960Y-98171095D01*
X54476381Y-98161819D01*
X54448209Y-98146761D01*
X54423509Y-98126491D01*
X54403239Y-98101791D01*
X54388181Y-98073619D01*
X54378905Y-98043040D01*
X54375000Y-98003395D01*
X54375000Y-97371605D01*
X54378905Y-97331960D01*
X54388181Y-97301381D01*
X54403239Y-97273209D01*
X54423509Y-97248509D01*
X54448209Y-97228239D01*
X54476381Y-97213181D01*
X54506960Y-97203905D01*
X54546605Y-97200000D01*
X55253395Y-97200000D01*
X55293040Y-97203905D01*
X55293040Y-97203905D01*
G37*
G36*
X61475000Y-97300000D02*
G01*
X60725000Y-97300000D01*
X60725000Y-96500000D01*
X61475000Y-96500000D01*
X61475000Y-97300000D01*
X61475000Y-97300000D01*
G37*
G36*
X57275000Y-97300000D02*
G01*
X56525000Y-97300000D01*
X56525000Y-96500000D01*
X57275000Y-96500000D01*
X57275000Y-97300000D01*
X57275000Y-97300000D01*
G37*
G36*
X63693040Y-95628905D02*
G01*
X63723619Y-95638181D01*
X63751791Y-95653239D01*
X63776491Y-95673509D01*
X63796761Y-95698209D01*
X63811819Y-95726381D01*
X63821095Y-95756960D01*
X63825000Y-95796605D01*
X63825000Y-96428395D01*
X63821095Y-96468040D01*
X63811819Y-96498619D01*
X63796761Y-96526791D01*
X63776491Y-96551491D01*
X63751791Y-96571761D01*
X63723619Y-96586819D01*
X63693040Y-96596095D01*
X63653395Y-96600000D01*
X62946605Y-96600000D01*
X62906960Y-96596095D01*
X62876381Y-96586819D01*
X62848209Y-96571761D01*
X62823509Y-96551491D01*
X62803239Y-96526791D01*
X62788181Y-96498619D01*
X62778905Y-96468040D01*
X62775000Y-96428395D01*
X62775000Y-95796605D01*
X62778905Y-95756960D01*
X62788181Y-95726381D01*
X62803239Y-95698209D01*
X62823509Y-95673509D01*
X62848209Y-95653239D01*
X62876381Y-95638181D01*
X62906960Y-95628905D01*
X62946605Y-95625000D01*
X63653395Y-95625000D01*
X63693040Y-95628905D01*
X63693040Y-95628905D01*
G37*
G36*
X55293040Y-95628905D02*
G01*
X55323619Y-95638181D01*
X55351791Y-95653239D01*
X55376491Y-95673509D01*
X55396761Y-95698209D01*
X55411819Y-95726381D01*
X55421095Y-95756960D01*
X55425000Y-95796605D01*
X55425000Y-96428395D01*
X55421095Y-96468040D01*
X55411819Y-96498619D01*
X55396761Y-96526791D01*
X55376491Y-96551491D01*
X55351791Y-96571761D01*
X55323619Y-96586819D01*
X55293040Y-96596095D01*
X55253395Y-96600000D01*
X54546605Y-96600000D01*
X54506960Y-96596095D01*
X54476381Y-96586819D01*
X54448209Y-96571761D01*
X54423509Y-96551491D01*
X54403239Y-96526791D01*
X54388181Y-96498619D01*
X54378905Y-96468040D01*
X54375000Y-96428395D01*
X54375000Y-95796605D01*
X54378905Y-95756960D01*
X54388181Y-95726381D01*
X54403239Y-95698209D01*
X54423509Y-95673509D01*
X54448209Y-95653239D01*
X54476381Y-95638181D01*
X54506960Y-95628905D01*
X54546605Y-95625000D01*
X55253395Y-95625000D01*
X55293040Y-95628905D01*
X55293040Y-95628905D01*
G37*
G36*
X50738215Y-95456511D02*
G01*
X50823041Y-95482243D01*
X50823044Y-95482245D01*
X50823045Y-95482245D01*
X50901215Y-95524028D01*
X50969737Y-95580263D01*
X51025972Y-95648785D01*
X51035216Y-95666079D01*
X51067757Y-95726959D01*
X51093489Y-95811785D01*
X51102177Y-95900000D01*
X51093489Y-95988215D01*
X51067757Y-96073041D01*
X51067755Y-96073044D01*
X51067755Y-96073045D01*
X51025972Y-96151215D01*
X50969737Y-96219737D01*
X50901215Y-96275972D01*
X50823045Y-96317755D01*
X50823041Y-96317757D01*
X50738215Y-96343489D01*
X50672105Y-96350000D01*
X50127895Y-96350000D01*
X50061785Y-96343489D01*
X49976959Y-96317757D01*
X49976955Y-96317755D01*
X49898785Y-96275972D01*
X49830263Y-96219737D01*
X49774028Y-96151215D01*
X49732245Y-96073045D01*
X49732245Y-96073044D01*
X49732243Y-96073041D01*
X49706511Y-95988215D01*
X49697823Y-95900000D01*
X49706511Y-95811785D01*
X49732243Y-95726959D01*
X49764784Y-95666079D01*
X49774028Y-95648785D01*
X49830263Y-95580263D01*
X49898785Y-95524028D01*
X49976955Y-95482245D01*
X49976956Y-95482245D01*
X49976959Y-95482243D01*
X50061785Y-95456511D01*
X50127895Y-95450000D01*
X50672105Y-95450000D01*
X50738215Y-95456511D01*
X50738215Y-95456511D01*
G37*
G36*
X60670000Y-95070001D02*
G01*
X60673074Y-95101215D01*
X60682179Y-95131230D01*
X60696965Y-95158892D01*
X60716863Y-95183137D01*
X60741108Y-95203035D01*
X60768770Y-95217821D01*
X60798785Y-95226926D01*
X60829999Y-95230000D01*
X61475000Y-95230000D01*
X61475000Y-96030000D01*
X60725000Y-96030000D01*
X60725000Y-95334999D01*
X60721926Y-95303785D01*
X60712821Y-95273770D01*
X60698035Y-95246108D01*
X60678137Y-95221863D01*
X60653892Y-95201965D01*
X60626230Y-95187179D01*
X60596215Y-95178074D01*
X60565001Y-95175000D01*
X59870000Y-95175000D01*
X59870000Y-94425000D01*
X60670000Y-94425000D01*
X60670000Y-95070001D01*
X60670000Y-95070001D01*
G37*
G36*
X58130000Y-95175000D02*
G01*
X57434999Y-95175000D01*
X57403785Y-95178074D01*
X57373770Y-95187179D01*
X57346108Y-95201965D01*
X57321863Y-95221863D01*
X57301965Y-95246108D01*
X57287179Y-95273770D01*
X57278074Y-95303785D01*
X57275000Y-95334999D01*
X57275000Y-96030000D01*
X56525000Y-96030000D01*
X56525000Y-95230000D01*
X57170001Y-95230000D01*
X57201215Y-95226926D01*
X57231230Y-95217821D01*
X57258892Y-95203035D01*
X57283137Y-95183137D01*
X57303035Y-95158892D01*
X57317821Y-95131230D01*
X57326926Y-95101215D01*
X57330000Y-95070001D01*
X57330000Y-94425000D01*
X58130000Y-94425000D01*
X58130000Y-95175000D01*
X58130000Y-95175000D01*
G37*
G36*
X59400000Y-95175000D02*
G01*
X58600000Y-95175000D01*
X58600000Y-94425000D01*
X59400000Y-94425000D01*
X59400000Y-95175000D01*
X59400000Y-95175000D01*
G37*
G36*
X50738215Y-94206511D02*
G01*
X50823041Y-94232243D01*
X50823044Y-94232245D01*
X50823045Y-94232245D01*
X50901215Y-94274028D01*
X50901217Y-94274029D01*
X50901216Y-94274029D01*
X50969737Y-94330263D01*
X51025971Y-94398784D01*
X51067757Y-94476959D01*
X51093489Y-94561785D01*
X51102177Y-94650000D01*
X51093489Y-94738215D01*
X51067757Y-94823041D01*
X51067755Y-94823044D01*
X51067755Y-94823045D01*
X51025972Y-94901215D01*
X50969737Y-94969737D01*
X50901215Y-95025972D01*
X50823045Y-95067755D01*
X50823041Y-95067757D01*
X50738215Y-95093489D01*
X50672105Y-95100000D01*
X50127895Y-95100000D01*
X50061785Y-95093489D01*
X49976959Y-95067757D01*
X49976955Y-95067755D01*
X49898785Y-95025972D01*
X49830263Y-94969737D01*
X49774028Y-94901215D01*
X49732245Y-94823045D01*
X49732245Y-94823044D01*
X49732243Y-94823041D01*
X49706511Y-94738215D01*
X49697823Y-94650000D01*
X49706511Y-94561785D01*
X49732243Y-94476959D01*
X49774029Y-94398784D01*
X49830263Y-94330263D01*
X49898784Y-94274029D01*
X49898783Y-94274029D01*
X49898785Y-94274028D01*
X49976955Y-94232245D01*
X49976956Y-94232245D01*
X49976959Y-94232243D01*
X50061785Y-94206511D01*
X50127895Y-94200000D01*
X50672105Y-94200000D01*
X50738215Y-94206511D01*
X50738215Y-94206511D01*
G37*
G36*
X50738215Y-92956511D02*
G01*
X50823041Y-92982243D01*
X50823044Y-92982245D01*
X50823045Y-92982245D01*
X50901215Y-93024028D01*
X50901217Y-93024029D01*
X50901216Y-93024029D01*
X50969737Y-93080263D01*
X51025971Y-93148784D01*
X51067757Y-93226959D01*
X51093489Y-93311785D01*
X51102177Y-93400000D01*
X51093489Y-93488215D01*
X51067757Y-93573041D01*
X51067755Y-93573044D01*
X51067755Y-93573045D01*
X51025972Y-93651215D01*
X50969737Y-93719737D01*
X50901215Y-93775972D01*
X50823045Y-93817755D01*
X50823041Y-93817757D01*
X50738215Y-93843489D01*
X50672105Y-93850000D01*
X50127895Y-93850000D01*
X50061785Y-93843489D01*
X49976959Y-93817757D01*
X49976955Y-93817755D01*
X49898785Y-93775972D01*
X49830263Y-93719737D01*
X49774028Y-93651215D01*
X49732245Y-93573045D01*
X49732245Y-93573044D01*
X49732243Y-93573041D01*
X49706511Y-93488215D01*
X49697823Y-93400000D01*
X49706511Y-93311785D01*
X49732243Y-93226959D01*
X49774029Y-93148784D01*
X49830263Y-93080263D01*
X49898784Y-93024029D01*
X49898783Y-93024029D01*
X49898785Y-93024028D01*
X49976955Y-92982245D01*
X49976956Y-92982245D01*
X49976959Y-92982243D01*
X50061785Y-92956511D01*
X50127895Y-92950000D01*
X50672105Y-92950000D01*
X50738215Y-92956511D01*
X50738215Y-92956511D01*
G37*
G36*
X56860429Y-91871136D02*
G01*
X56927178Y-91898785D01*
X56960523Y-91912597D01*
X57050607Y-91972789D01*
X57127211Y-92049393D01*
X57127213Y-92049396D01*
X57187403Y-92139477D01*
X57228864Y-92239571D01*
X57250000Y-92345830D01*
X57250000Y-92454170D01*
X57228864Y-92560429D01*
X57187403Y-92660523D01*
X57127211Y-92750607D01*
X57050607Y-92827211D01*
X57050604Y-92827213D01*
X56960523Y-92887403D01*
X56860429Y-92928864D01*
X56754170Y-92950000D01*
X56645830Y-92950000D01*
X56539571Y-92928864D01*
X56439477Y-92887403D01*
X56349396Y-92827213D01*
X56349393Y-92827211D01*
X56272789Y-92750607D01*
X56212597Y-92660523D01*
X56171136Y-92560429D01*
X56150000Y-92454170D01*
X56150000Y-92345830D01*
X56171136Y-92239571D01*
X56212597Y-92139477D01*
X56272787Y-92049396D01*
X56272789Y-92049393D01*
X56349393Y-91972789D01*
X56439477Y-91912597D01*
X56472822Y-91898785D01*
X56539571Y-91871136D01*
X56645830Y-91850000D01*
X56754170Y-91850000D01*
X56860429Y-91871136D01*
X56860429Y-91871136D01*
G37*
G36*
X55360429Y-91871136D02*
G01*
X55427178Y-91898785D01*
X55460523Y-91912597D01*
X55550607Y-91972789D01*
X55627211Y-92049393D01*
X55627213Y-92049396D01*
X55687403Y-92139477D01*
X55728864Y-92239571D01*
X55750000Y-92345830D01*
X55750000Y-92454170D01*
X55728864Y-92560429D01*
X55687403Y-92660523D01*
X55627211Y-92750607D01*
X55550607Y-92827211D01*
X55550604Y-92827213D01*
X55460523Y-92887403D01*
X55360429Y-92928864D01*
X55254170Y-92950000D01*
X55145830Y-92950000D01*
X55039571Y-92928864D01*
X54939477Y-92887403D01*
X54849396Y-92827213D01*
X54849393Y-92827211D01*
X54772789Y-92750607D01*
X54712597Y-92660523D01*
X54671136Y-92560429D01*
X54650000Y-92454170D01*
X54650000Y-92345830D01*
X54671136Y-92239571D01*
X54712597Y-92139477D01*
X54772787Y-92049396D01*
X54772789Y-92049393D01*
X54849393Y-91972789D01*
X54939477Y-91912597D01*
X54972822Y-91898785D01*
X55039571Y-91871136D01*
X55145830Y-91850000D01*
X55254170Y-91850000D01*
X55360429Y-91871136D01*
X55360429Y-91871136D01*
G37*
G36*
X61360429Y-91871136D02*
G01*
X61427178Y-91898785D01*
X61460523Y-91912597D01*
X61550607Y-91972789D01*
X61627211Y-92049393D01*
X61627213Y-92049396D01*
X61687403Y-92139477D01*
X61728864Y-92239571D01*
X61750000Y-92345830D01*
X61750000Y-92454170D01*
X61728864Y-92560429D01*
X61687403Y-92660523D01*
X61627211Y-92750607D01*
X61550607Y-92827211D01*
X61550604Y-92827213D01*
X61460523Y-92887403D01*
X61360429Y-92928864D01*
X61254170Y-92950000D01*
X61145830Y-92950000D01*
X61039571Y-92928864D01*
X60939477Y-92887403D01*
X60849396Y-92827213D01*
X60849393Y-92827211D01*
X60772789Y-92750607D01*
X60712597Y-92660523D01*
X60671136Y-92560429D01*
X60650000Y-92454170D01*
X60650000Y-92345830D01*
X60671136Y-92239571D01*
X60712597Y-92139477D01*
X60772787Y-92049396D01*
X60772789Y-92049393D01*
X60849393Y-91972789D01*
X60939477Y-91912597D01*
X60972822Y-91898785D01*
X61039571Y-91871136D01*
X61145830Y-91850000D01*
X61254170Y-91850000D01*
X61360429Y-91871136D01*
X61360429Y-91871136D01*
G37*
G36*
X59860429Y-91871136D02*
G01*
X59927178Y-91898785D01*
X59960523Y-91912597D01*
X60050607Y-91972789D01*
X60127211Y-92049393D01*
X60127213Y-92049396D01*
X60187403Y-92139477D01*
X60228864Y-92239571D01*
X60250000Y-92345830D01*
X60250000Y-92454170D01*
X60228864Y-92560429D01*
X60187403Y-92660523D01*
X60127211Y-92750607D01*
X60050607Y-92827211D01*
X60050604Y-92827213D01*
X59960523Y-92887403D01*
X59860429Y-92928864D01*
X59754170Y-92950000D01*
X59645830Y-92950000D01*
X59539571Y-92928864D01*
X59439477Y-92887403D01*
X59349396Y-92827213D01*
X59349393Y-92827211D01*
X59272789Y-92750607D01*
X59212597Y-92660523D01*
X59171136Y-92560429D01*
X59150000Y-92454170D01*
X59150000Y-92345830D01*
X59171136Y-92239571D01*
X59212597Y-92139477D01*
X59272787Y-92049396D01*
X59272789Y-92049393D01*
X59349393Y-91972789D01*
X59439477Y-91912597D01*
X59472822Y-91898785D01*
X59539571Y-91871136D01*
X59645830Y-91850000D01*
X59754170Y-91850000D01*
X59860429Y-91871136D01*
X59860429Y-91871136D01*
G37*
G36*
X58360429Y-91871136D02*
G01*
X58427178Y-91898785D01*
X58460523Y-91912597D01*
X58550607Y-91972789D01*
X58627211Y-92049393D01*
X58627213Y-92049396D01*
X58687403Y-92139477D01*
X58728864Y-92239571D01*
X58750000Y-92345830D01*
X58750000Y-92454170D01*
X58728864Y-92560429D01*
X58687403Y-92660523D01*
X58627211Y-92750607D01*
X58550607Y-92827211D01*
X58550604Y-92827213D01*
X58460523Y-92887403D01*
X58360429Y-92928864D01*
X58254170Y-92950000D01*
X58145830Y-92950000D01*
X58039571Y-92928864D01*
X57939477Y-92887403D01*
X57849396Y-92827213D01*
X57849393Y-92827211D01*
X57772789Y-92750607D01*
X57712597Y-92660523D01*
X57671136Y-92560429D01*
X57650000Y-92454170D01*
X57650000Y-92345830D01*
X57671136Y-92239571D01*
X57712597Y-92139477D01*
X57772787Y-92049396D01*
X57772789Y-92049393D01*
X57849393Y-91972789D01*
X57939477Y-91912597D01*
X57972822Y-91898785D01*
X58039571Y-91871136D01*
X58145830Y-91850000D01*
X58254170Y-91850000D01*
X58360429Y-91871136D01*
X58360429Y-91871136D01*
G37*
G36*
X50738215Y-91706511D02*
G01*
X50823041Y-91732243D01*
X50823044Y-91732245D01*
X50823045Y-91732245D01*
X50901215Y-91774028D01*
X50969737Y-91830263D01*
X51025972Y-91898785D01*
X51065527Y-91972787D01*
X51067757Y-91976959D01*
X51093489Y-92061785D01*
X51102177Y-92150000D01*
X51093489Y-92238215D01*
X51067757Y-92323041D01*
X51067755Y-92323044D01*
X51067755Y-92323045D01*
X51025972Y-92401215D01*
X50969737Y-92469737D01*
X50901215Y-92525972D01*
X50836751Y-92560429D01*
X50823041Y-92567757D01*
X50738215Y-92593489D01*
X50672105Y-92600000D01*
X50127895Y-92600000D01*
X50061785Y-92593489D01*
X49976959Y-92567757D01*
X49963249Y-92560429D01*
X49898785Y-92525972D01*
X49830263Y-92469737D01*
X49774028Y-92401215D01*
X49732245Y-92323045D01*
X49732245Y-92323044D01*
X49732243Y-92323041D01*
X49706511Y-92238215D01*
X49697823Y-92150000D01*
X49706511Y-92061785D01*
X49732243Y-91976959D01*
X49734473Y-91972787D01*
X49774028Y-91898785D01*
X49830263Y-91830263D01*
X49898785Y-91774028D01*
X49976955Y-91732245D01*
X49976956Y-91732245D01*
X49976959Y-91732243D01*
X50061785Y-91706511D01*
X50127895Y-91700000D01*
X50672105Y-91700000D01*
X50738215Y-91706511D01*
X50738215Y-91706511D01*
G37*
G36*
X50738215Y-90456511D02*
G01*
X50823041Y-90482243D01*
X50823044Y-90482245D01*
X50823045Y-90482245D01*
X50901215Y-90524028D01*
X50901217Y-90524029D01*
X50901216Y-90524029D01*
X50969737Y-90580263D01*
X51025971Y-90648784D01*
X51067757Y-90726959D01*
X51093489Y-90811785D01*
X51102177Y-90900000D01*
X51093489Y-90988215D01*
X51067757Y-91073041D01*
X51067755Y-91073044D01*
X51067755Y-91073045D01*
X51025972Y-91151215D01*
X50969737Y-91219737D01*
X50901215Y-91275972D01*
X50823045Y-91317755D01*
X50823041Y-91317757D01*
X50738215Y-91343489D01*
X50672105Y-91350000D01*
X50127895Y-91350000D01*
X50061785Y-91343489D01*
X49976959Y-91317757D01*
X49976955Y-91317755D01*
X49898785Y-91275972D01*
X49830263Y-91219737D01*
X49774028Y-91151215D01*
X49732245Y-91073045D01*
X49732245Y-91073044D01*
X49732243Y-91073041D01*
X49706511Y-90988215D01*
X49697823Y-90900000D01*
X49706511Y-90811785D01*
X49732243Y-90726959D01*
X49774029Y-90648784D01*
X49830263Y-90580263D01*
X49898784Y-90524029D01*
X49898783Y-90524029D01*
X49898785Y-90524028D01*
X49976955Y-90482245D01*
X49976956Y-90482245D01*
X49976959Y-90482243D01*
X50061785Y-90456511D01*
X50127895Y-90450000D01*
X50672105Y-90450000D01*
X50738215Y-90456511D01*
X50738215Y-90456511D01*
G37*
G36*
X50738215Y-89206511D02*
G01*
X50823041Y-89232243D01*
X50823044Y-89232245D01*
X50823045Y-89232245D01*
X50901215Y-89274028D01*
X50901217Y-89274029D01*
X50901216Y-89274029D01*
X50969737Y-89330263D01*
X51025971Y-89398784D01*
X51067757Y-89476959D01*
X51093489Y-89561785D01*
X51102177Y-89650000D01*
X51093489Y-89738215D01*
X51067757Y-89823041D01*
X51067755Y-89823044D01*
X51067755Y-89823045D01*
X51025972Y-89901215D01*
X50969737Y-89969737D01*
X50901215Y-90025972D01*
X50823045Y-90067755D01*
X50823041Y-90067757D01*
X50738215Y-90093489D01*
X50672105Y-90100000D01*
X50127895Y-90100000D01*
X50061785Y-90093489D01*
X49976959Y-90067757D01*
X49976955Y-90067755D01*
X49898785Y-90025972D01*
X49830263Y-89969737D01*
X49774028Y-89901215D01*
X49732245Y-89823045D01*
X49732245Y-89823044D01*
X49732243Y-89823041D01*
X49706511Y-89738215D01*
X49697823Y-89650000D01*
X49706511Y-89561785D01*
X49732243Y-89476959D01*
X49774029Y-89398784D01*
X49830263Y-89330263D01*
X49898784Y-89274029D01*
X49898783Y-89274029D01*
X49898785Y-89274028D01*
X49976955Y-89232245D01*
X49976956Y-89232245D01*
X49976959Y-89232243D01*
X50061785Y-89206511D01*
X50127895Y-89200000D01*
X50672105Y-89200000D01*
X50738215Y-89206511D01*
X50738215Y-89206511D01*
G37*
G36*
X50983138Y-87953545D02*
G01*
X51010194Y-87961753D01*
X51035126Y-87975080D01*
X51056983Y-87993017D01*
X51074920Y-88014874D01*
X51088247Y-88039806D01*
X51096455Y-88066862D01*
X51100000Y-88102862D01*
X51100000Y-88697138D01*
X51096455Y-88733138D01*
X51088247Y-88760194D01*
X51074920Y-88785126D01*
X51056983Y-88806983D01*
X51035126Y-88824920D01*
X51010194Y-88838247D01*
X50983138Y-88846455D01*
X50947138Y-88850000D01*
X49852862Y-88850000D01*
X49816862Y-88846455D01*
X49789806Y-88838247D01*
X49764874Y-88824920D01*
X49743017Y-88806983D01*
X49725080Y-88785126D01*
X49711753Y-88760194D01*
X49703545Y-88733138D01*
X49700000Y-88697138D01*
X49700000Y-88102862D01*
X49703545Y-88066862D01*
X49711753Y-88039806D01*
X49725080Y-88014874D01*
X49743017Y-87993017D01*
X49764874Y-87975080D01*
X49789806Y-87961753D01*
X49816862Y-87953545D01*
X49852862Y-87950000D01*
X50947138Y-87950000D01*
X50983138Y-87953545D01*
X50983138Y-87953545D01*
G37*
G36*
X51837164Y-81828450D02*
G01*
X51863280Y-81836372D01*
X51887348Y-81849237D01*
X51908447Y-81866553D01*
X51925763Y-81887652D01*
X51938628Y-81911720D01*
X51946550Y-81937836D01*
X51950000Y-81972865D01*
X51950000Y-83877135D01*
X51946550Y-83912164D01*
X51938628Y-83938280D01*
X51925763Y-83962348D01*
X51908447Y-83983447D01*
X51887348Y-84000763D01*
X51863280Y-84013628D01*
X51837164Y-84021550D01*
X51802135Y-84025000D01*
X48997865Y-84025000D01*
X48962836Y-84021550D01*
X48936720Y-84013628D01*
X48912652Y-84000763D01*
X48891553Y-83983447D01*
X48874237Y-83962348D01*
X48861372Y-83938280D01*
X48853450Y-83912164D01*
X48850000Y-83877135D01*
X48850000Y-81972865D01*
X48853450Y-81937836D01*
X48861372Y-81911720D01*
X48874237Y-81887652D01*
X48891553Y-81866553D01*
X48912652Y-81849237D01*
X48936720Y-81836372D01*
X48962836Y-81828450D01*
X48997865Y-81825000D01*
X51802135Y-81825000D01*
X51837164Y-81828450D01*
X51837164Y-81828450D01*
G37*
G36*
X69100000Y-82700000D02*
G01*
X67300000Y-82700000D01*
X67300000Y-80900000D01*
X69100000Y-80900000D01*
X69100000Y-82700000D01*
X69100000Y-82700000D01*
G37*
G36*
X65500000Y-82700000D02*
G01*
X63700000Y-82700000D01*
X63700000Y-80900000D01*
X65500000Y-80900000D01*
X65500000Y-82700000D01*
X65500000Y-82700000D01*
G37*
G36*
X54033138Y-79928545D02*
G01*
X54060194Y-79936753D01*
X54085126Y-79950080D01*
X54106983Y-79968017D01*
X54124920Y-79989874D01*
X54138247Y-80014806D01*
X54146455Y-80041862D01*
X54150000Y-80077862D01*
X54150000Y-80672138D01*
X54146455Y-80708138D01*
X54138247Y-80735194D01*
X54124920Y-80760126D01*
X54106983Y-80781983D01*
X54085126Y-80799920D01*
X54060194Y-80813247D01*
X54033138Y-80821455D01*
X53997138Y-80825000D01*
X52602862Y-80825000D01*
X52566862Y-80821455D01*
X52539806Y-80813247D01*
X52514874Y-80799920D01*
X52493017Y-80781983D01*
X52475080Y-80760126D01*
X52461753Y-80735194D01*
X52453545Y-80708138D01*
X52450000Y-80672138D01*
X52450000Y-80077862D01*
X52453545Y-80041862D01*
X52461753Y-80014806D01*
X52475080Y-79989874D01*
X52493017Y-79968017D01*
X52514874Y-79950080D01*
X52539806Y-79936753D01*
X52566862Y-79928545D01*
X52602862Y-79925000D01*
X53997138Y-79925000D01*
X54033138Y-79928545D01*
X54033138Y-79928545D01*
G37*
G36*
X64776431Y-78373023D02*
G01*
X64776433Y-78373024D01*
X64776436Y-78373024D01*
X64946076Y-78424484D01*
X64946078Y-78424485D01*
X64946081Y-78424486D01*
X65102432Y-78508057D01*
X65102433Y-78508058D01*
X65102435Y-78508059D01*
X65239475Y-78620525D01*
X65319485Y-78718017D01*
X65351943Y-78757568D01*
X65435514Y-78913919D01*
X65435515Y-78913922D01*
X65435516Y-78913924D01*
X65486976Y-79083564D01*
X65486976Y-79083567D01*
X65486977Y-79083569D01*
X65504354Y-79260000D01*
X65486977Y-79436431D01*
X65486976Y-79436433D01*
X65486976Y-79436436D01*
X65435516Y-79606076D01*
X65435514Y-79606081D01*
X65351943Y-79762432D01*
X65351941Y-79762435D01*
X65239475Y-79899475D01*
X65102435Y-80011941D01*
X65102433Y-80011942D01*
X65102432Y-80011943D01*
X64946081Y-80095514D01*
X64946078Y-80095515D01*
X64946076Y-80095516D01*
X64776436Y-80146976D01*
X64776433Y-80146976D01*
X64776431Y-80146977D01*
X64644207Y-80160000D01*
X64555793Y-80160000D01*
X64423569Y-80146977D01*
X64423567Y-80146976D01*
X64423564Y-80146976D01*
X64253924Y-80095516D01*
X64253922Y-80095515D01*
X64253919Y-80095514D01*
X64097568Y-80011943D01*
X64097567Y-80011942D01*
X64097565Y-80011941D01*
X63960525Y-79899475D01*
X63848059Y-79762435D01*
X63848057Y-79762432D01*
X63764486Y-79606081D01*
X63764484Y-79606076D01*
X63713024Y-79436436D01*
X63713024Y-79436433D01*
X63713023Y-79436431D01*
X63695646Y-79260000D01*
X63713023Y-79083569D01*
X63713024Y-79083567D01*
X63713024Y-79083564D01*
X63764484Y-78913924D01*
X63764485Y-78913922D01*
X63764486Y-78913919D01*
X63848057Y-78757568D01*
X63880516Y-78718017D01*
X63960525Y-78620525D01*
X64097565Y-78508059D01*
X64097567Y-78508058D01*
X64097568Y-78508057D01*
X64253919Y-78424486D01*
X64253922Y-78424485D01*
X64253924Y-78424484D01*
X64423564Y-78373024D01*
X64423567Y-78373024D01*
X64423569Y-78373023D01*
X64555793Y-78360000D01*
X64644207Y-78360000D01*
X64776431Y-78373023D01*
X64776431Y-78373023D01*
G37*
G36*
X68376431Y-78373023D02*
G01*
X68376433Y-78373024D01*
X68376436Y-78373024D01*
X68546076Y-78424484D01*
X68546078Y-78424485D01*
X68546081Y-78424486D01*
X68702432Y-78508057D01*
X68702433Y-78508058D01*
X68702435Y-78508059D01*
X68839475Y-78620525D01*
X68919485Y-78718017D01*
X68951943Y-78757568D01*
X69035514Y-78913919D01*
X69035515Y-78913922D01*
X69035516Y-78913924D01*
X69086976Y-79083564D01*
X69086976Y-79083567D01*
X69086977Y-79083569D01*
X69104354Y-79260000D01*
X69086977Y-79436431D01*
X69086976Y-79436433D01*
X69086976Y-79436436D01*
X69035516Y-79606076D01*
X69035514Y-79606081D01*
X68951943Y-79762432D01*
X68951941Y-79762435D01*
X68839475Y-79899475D01*
X68702435Y-80011941D01*
X68702433Y-80011942D01*
X68702432Y-80011943D01*
X68546081Y-80095514D01*
X68546078Y-80095515D01*
X68546076Y-80095516D01*
X68376436Y-80146976D01*
X68376433Y-80146976D01*
X68376431Y-80146977D01*
X68244207Y-80160000D01*
X68155793Y-80160000D01*
X68023569Y-80146977D01*
X68023567Y-80146976D01*
X68023564Y-80146976D01*
X67853924Y-80095516D01*
X67853922Y-80095515D01*
X67853919Y-80095514D01*
X67697568Y-80011943D01*
X67697567Y-80011942D01*
X67697565Y-80011941D01*
X67560525Y-79899475D01*
X67448059Y-79762435D01*
X67448057Y-79762432D01*
X67364486Y-79606081D01*
X67364484Y-79606076D01*
X67313024Y-79436436D01*
X67313024Y-79436433D01*
X67313023Y-79436431D01*
X67295646Y-79260000D01*
X67313023Y-79083569D01*
X67313024Y-79083567D01*
X67313024Y-79083564D01*
X67364484Y-78913924D01*
X67364485Y-78913922D01*
X67364486Y-78913919D01*
X67448057Y-78757568D01*
X67480516Y-78718017D01*
X67560525Y-78620525D01*
X67697565Y-78508059D01*
X67697567Y-78508058D01*
X67697568Y-78508057D01*
X67853919Y-78424486D01*
X67853922Y-78424485D01*
X67853924Y-78424484D01*
X68023564Y-78373024D01*
X68023567Y-78373024D01*
X68023569Y-78373023D01*
X68155793Y-78360000D01*
X68244207Y-78360000D01*
X68376431Y-78373023D01*
X68376431Y-78373023D01*
G37*
G36*
X54033138Y-78678545D02*
G01*
X54060194Y-78686753D01*
X54085126Y-78700080D01*
X54106983Y-78718017D01*
X54124920Y-78739874D01*
X54138247Y-78764806D01*
X54146455Y-78791862D01*
X54150000Y-78827862D01*
X54150000Y-79422138D01*
X54146455Y-79458138D01*
X54138247Y-79485194D01*
X54124920Y-79510126D01*
X54106983Y-79531983D01*
X54085126Y-79549920D01*
X54060194Y-79563247D01*
X54033138Y-79571455D01*
X53997138Y-79575000D01*
X52602862Y-79575000D01*
X52566862Y-79571455D01*
X52539806Y-79563247D01*
X52514874Y-79549920D01*
X52493017Y-79531983D01*
X52475080Y-79510126D01*
X52461753Y-79485194D01*
X52453545Y-79458138D01*
X52450000Y-79422138D01*
X52450000Y-78827862D01*
X52453545Y-78791862D01*
X52461753Y-78764806D01*
X52475080Y-78739874D01*
X52493017Y-78718017D01*
X52514874Y-78700080D01*
X52539806Y-78686753D01*
X52566862Y-78678545D01*
X52602862Y-78675000D01*
X53997138Y-78675000D01*
X54033138Y-78678545D01*
X54033138Y-78678545D01*
G37*
G36*
X54033138Y-77428545D02*
G01*
X54060194Y-77436753D01*
X54085126Y-77450080D01*
X54106983Y-77468017D01*
X54124920Y-77489874D01*
X54138247Y-77514806D01*
X54146455Y-77541862D01*
X54150000Y-77577862D01*
X54150000Y-78172138D01*
X54146455Y-78208138D01*
X54138247Y-78235194D01*
X54124920Y-78260126D01*
X54106983Y-78281983D01*
X54085126Y-78299920D01*
X54060194Y-78313247D01*
X54033138Y-78321455D01*
X53997138Y-78325000D01*
X52602862Y-78325000D01*
X52566862Y-78321455D01*
X52539806Y-78313247D01*
X52514874Y-78299920D01*
X52493017Y-78281983D01*
X52475080Y-78260126D01*
X52461753Y-78235194D01*
X52453545Y-78208138D01*
X52450000Y-78172138D01*
X52450000Y-77577862D01*
X52453545Y-77541862D01*
X52461753Y-77514806D01*
X52475080Y-77489874D01*
X52493017Y-77468017D01*
X52514874Y-77450080D01*
X52539806Y-77436753D01*
X52566862Y-77428545D01*
X52602862Y-77425000D01*
X53997138Y-77425000D01*
X54033138Y-77428545D01*
X54033138Y-77428545D01*
G37*
G36*
X64776431Y-75833023D02*
G01*
X64776433Y-75833024D01*
X64776436Y-75833024D01*
X64946076Y-75884484D01*
X64946078Y-75884485D01*
X64946081Y-75884486D01*
X65102432Y-75968057D01*
X65102433Y-75968058D01*
X65102435Y-75968059D01*
X65239475Y-76080525D01*
X65331065Y-76192127D01*
X65351943Y-76217568D01*
X65435514Y-76373919D01*
X65435515Y-76373922D01*
X65435516Y-76373924D01*
X65486976Y-76543564D01*
X65486976Y-76543567D01*
X65486977Y-76543569D01*
X65504354Y-76720000D01*
X65486977Y-76896431D01*
X65486976Y-76896433D01*
X65486976Y-76896436D01*
X65438004Y-77057873D01*
X65435514Y-77066081D01*
X65351943Y-77222432D01*
X65351941Y-77222435D01*
X65239475Y-77359475D01*
X65102435Y-77471941D01*
X65102433Y-77471942D01*
X65102432Y-77471943D01*
X64946081Y-77555514D01*
X64946078Y-77555515D01*
X64946076Y-77555516D01*
X64776436Y-77606976D01*
X64776433Y-77606976D01*
X64776431Y-77606977D01*
X64644207Y-77620000D01*
X64555793Y-77620000D01*
X64423569Y-77606977D01*
X64423567Y-77606976D01*
X64423564Y-77606976D01*
X64253924Y-77555516D01*
X64253922Y-77555515D01*
X64253919Y-77555514D01*
X64097568Y-77471943D01*
X64097567Y-77471942D01*
X64097565Y-77471941D01*
X63960525Y-77359475D01*
X63848059Y-77222435D01*
X63848057Y-77222432D01*
X63764486Y-77066081D01*
X63761996Y-77057873D01*
X63713024Y-76896436D01*
X63713024Y-76896433D01*
X63713023Y-76896431D01*
X63695646Y-76720000D01*
X63713023Y-76543569D01*
X63713024Y-76543567D01*
X63713024Y-76543564D01*
X63764484Y-76373924D01*
X63764485Y-76373922D01*
X63764486Y-76373919D01*
X63848057Y-76217568D01*
X63868936Y-76192127D01*
X63960525Y-76080525D01*
X64097565Y-75968059D01*
X64097567Y-75968058D01*
X64097568Y-75968057D01*
X64253919Y-75884486D01*
X64253922Y-75884485D01*
X64253924Y-75884484D01*
X64423564Y-75833024D01*
X64423567Y-75833024D01*
X64423569Y-75833023D01*
X64555793Y-75820000D01*
X64644207Y-75820000D01*
X64776431Y-75833023D01*
X64776431Y-75833023D01*
G37*
G36*
X54033138Y-76178545D02*
G01*
X54060194Y-76186753D01*
X54085126Y-76200080D01*
X54106983Y-76218017D01*
X54124920Y-76239874D01*
X54138247Y-76264806D01*
X54146455Y-76291862D01*
X54150000Y-76327862D01*
X54150000Y-76922138D01*
X54146455Y-76958138D01*
X54138247Y-76985194D01*
X54124920Y-77010126D01*
X54106983Y-77031983D01*
X54085126Y-77049920D01*
X54060194Y-77063247D01*
X54033138Y-77071455D01*
X53997138Y-77075000D01*
X52602862Y-77075000D01*
X52566862Y-77071455D01*
X52539806Y-77063247D01*
X52514874Y-77049920D01*
X52493017Y-77031983D01*
X52475080Y-77010126D01*
X52461753Y-76985194D01*
X52453545Y-76958138D01*
X52450000Y-76922138D01*
X52450000Y-76327862D01*
X52453545Y-76291862D01*
X52461753Y-76264806D01*
X52475080Y-76239874D01*
X52493017Y-76218017D01*
X52514874Y-76200080D01*
X52539806Y-76186753D01*
X52566862Y-76178545D01*
X52602862Y-76175000D01*
X53997138Y-76175000D01*
X54033138Y-76178545D01*
X54033138Y-76178545D01*
G37*
G36*
X51837164Y-72978450D02*
G01*
X51863280Y-72986372D01*
X51887348Y-72999237D01*
X51908447Y-73016553D01*
X51925763Y-73037652D01*
X51938628Y-73061720D01*
X51946550Y-73087836D01*
X51950000Y-73122865D01*
X51950000Y-75027135D01*
X51946550Y-75062164D01*
X51938628Y-75088280D01*
X51925763Y-75112348D01*
X51908447Y-75133447D01*
X51887348Y-75150763D01*
X51863280Y-75163628D01*
X51837164Y-75171550D01*
X51802135Y-75175000D01*
X48997865Y-75175000D01*
X48962836Y-75171550D01*
X48936720Y-75163628D01*
X48912652Y-75150763D01*
X48891553Y-75133447D01*
X48874237Y-75112348D01*
X48861372Y-75088280D01*
X48853450Y-75062164D01*
X48850000Y-75027135D01*
X48850000Y-73122865D01*
X48853450Y-73087836D01*
X48861372Y-73061720D01*
X48874237Y-73037652D01*
X48891553Y-73016553D01*
X48912652Y-72999237D01*
X48936720Y-72986372D01*
X48962836Y-72978450D01*
X48997865Y-72975000D01*
X51802135Y-72975000D01*
X51837164Y-72978450D01*
X51837164Y-72978450D01*
G37*
G36*
X51837164Y-68103450D02*
G01*
X51863280Y-68111372D01*
X51887348Y-68124237D01*
X51908447Y-68141553D01*
X51925763Y-68162652D01*
X51938628Y-68186720D01*
X51946550Y-68212836D01*
X51950000Y-68247865D01*
X51950000Y-70152135D01*
X51946550Y-70187164D01*
X51938628Y-70213280D01*
X51925763Y-70237348D01*
X51908447Y-70258447D01*
X51887348Y-70275763D01*
X51863280Y-70288628D01*
X51837164Y-70296550D01*
X51802135Y-70300000D01*
X48997865Y-70300000D01*
X48962836Y-70296550D01*
X48936720Y-70288628D01*
X48912652Y-70275763D01*
X48891553Y-70258447D01*
X48874237Y-70237348D01*
X48861372Y-70213280D01*
X48853450Y-70187164D01*
X48850000Y-70152135D01*
X48850000Y-68247865D01*
X48853450Y-68212836D01*
X48861372Y-68186720D01*
X48874237Y-68162652D01*
X48891553Y-68141553D01*
X48912652Y-68124237D01*
X48936720Y-68111372D01*
X48962836Y-68103450D01*
X48997865Y-68100000D01*
X51802135Y-68100000D01*
X51837164Y-68103450D01*
X51837164Y-68103450D01*
G37*
G36*
X69037164Y-68103450D02*
G01*
X69063280Y-68111372D01*
X69087348Y-68124237D01*
X69108447Y-68141553D01*
X69125763Y-68162652D01*
X69138628Y-68186720D01*
X69146550Y-68212836D01*
X69150000Y-68247865D01*
X69150000Y-70152135D01*
X69146550Y-70187164D01*
X69138628Y-70213280D01*
X69125763Y-70237348D01*
X69108447Y-70258447D01*
X69087348Y-70275763D01*
X69063280Y-70288628D01*
X69037164Y-70296550D01*
X69002135Y-70300000D01*
X66197865Y-70300000D01*
X66162836Y-70296550D01*
X66136720Y-70288628D01*
X66112652Y-70275763D01*
X66091553Y-70258447D01*
X66074237Y-70237348D01*
X66061372Y-70213280D01*
X66053450Y-70187164D01*
X66050000Y-70152135D01*
X66050000Y-68247865D01*
X66053450Y-68212836D01*
X66061372Y-68186720D01*
X66074237Y-68162652D01*
X66091553Y-68141553D01*
X66112652Y-68124237D01*
X66136720Y-68111372D01*
X66162836Y-68103450D01*
X66197865Y-68100000D01*
X69002135Y-68100000D01*
X69037164Y-68103450D01*
X69037164Y-68103450D01*
G37*
G36*
X54033138Y-66203545D02*
G01*
X54060194Y-66211753D01*
X54085126Y-66225080D01*
X54106983Y-66243017D01*
X54124920Y-66264874D01*
X54138247Y-66289806D01*
X54146455Y-66316862D01*
X54150000Y-66352862D01*
X54150000Y-66947138D01*
X54146455Y-66983138D01*
X54138247Y-67010194D01*
X54124920Y-67035126D01*
X54106983Y-67056983D01*
X54085126Y-67074920D01*
X54060194Y-67088247D01*
X54033138Y-67096455D01*
X53997138Y-67100000D01*
X52602862Y-67100000D01*
X52566862Y-67096455D01*
X52539806Y-67088247D01*
X52514874Y-67074920D01*
X52493017Y-67056983D01*
X52475080Y-67035126D01*
X52461753Y-67010194D01*
X52453545Y-66983138D01*
X52450000Y-66947138D01*
X52450000Y-66352862D01*
X52453545Y-66316862D01*
X52461753Y-66289806D01*
X52475080Y-66264874D01*
X52493017Y-66243017D01*
X52514874Y-66225080D01*
X52539806Y-66211753D01*
X52566862Y-66203545D01*
X52602862Y-66200000D01*
X53997138Y-66200000D01*
X54033138Y-66203545D01*
X54033138Y-66203545D01*
G37*
G36*
X65433138Y-66203545D02*
G01*
X65460194Y-66211753D01*
X65485126Y-66225080D01*
X65506983Y-66243017D01*
X65524920Y-66264874D01*
X65538247Y-66289806D01*
X65546455Y-66316862D01*
X65550000Y-66352862D01*
X65550000Y-66947138D01*
X65546455Y-66983138D01*
X65538247Y-67010194D01*
X65524920Y-67035126D01*
X65506983Y-67056983D01*
X65485126Y-67074920D01*
X65460194Y-67088247D01*
X65433138Y-67096455D01*
X65397138Y-67100000D01*
X64002862Y-67100000D01*
X63966862Y-67096455D01*
X63939806Y-67088247D01*
X63914874Y-67074920D01*
X63893017Y-67056983D01*
X63875080Y-67035126D01*
X63861753Y-67010194D01*
X63853545Y-66983138D01*
X63850000Y-66947138D01*
X63850000Y-66352862D01*
X63853545Y-66316862D01*
X63861753Y-66289806D01*
X63875080Y-66264874D01*
X63893017Y-66243017D01*
X63914874Y-66225080D01*
X63939806Y-66211753D01*
X63966862Y-66203545D01*
X64002862Y-66200000D01*
X65397138Y-66200000D01*
X65433138Y-66203545D01*
X65433138Y-66203545D01*
G37*
G36*
X54033138Y-64953545D02*
G01*
X54060194Y-64961753D01*
X54085126Y-64975080D01*
X54106983Y-64993017D01*
X54124920Y-65014874D01*
X54138247Y-65039806D01*
X54146455Y-65066862D01*
X54150000Y-65102862D01*
X54150000Y-65697138D01*
X54146455Y-65733138D01*
X54138247Y-65760194D01*
X54124920Y-65785126D01*
X54106983Y-65806983D01*
X54085126Y-65824920D01*
X54060194Y-65838247D01*
X54033138Y-65846455D01*
X53997138Y-65850000D01*
X52602862Y-65850000D01*
X52566862Y-65846455D01*
X52539806Y-65838247D01*
X52514874Y-65824920D01*
X52493017Y-65806983D01*
X52475080Y-65785126D01*
X52461753Y-65760194D01*
X52453545Y-65733138D01*
X52450000Y-65697138D01*
X52450000Y-65102862D01*
X52453545Y-65066862D01*
X52461753Y-65039806D01*
X52475080Y-65014874D01*
X52493017Y-64993017D01*
X52514874Y-64975080D01*
X52539806Y-64961753D01*
X52566862Y-64953545D01*
X52602862Y-64950000D01*
X53997138Y-64950000D01*
X54033138Y-64953545D01*
X54033138Y-64953545D01*
G37*
G36*
X65433138Y-64953545D02*
G01*
X65460194Y-64961753D01*
X65485126Y-64975080D01*
X65506983Y-64993017D01*
X65524920Y-65014874D01*
X65538247Y-65039806D01*
X65546455Y-65066862D01*
X65550000Y-65102862D01*
X65550000Y-65697138D01*
X65546455Y-65733138D01*
X65538247Y-65760194D01*
X65524920Y-65785126D01*
X65506983Y-65806983D01*
X65485126Y-65824920D01*
X65460194Y-65838247D01*
X65433138Y-65846455D01*
X65397138Y-65850000D01*
X64002862Y-65850000D01*
X63966862Y-65846455D01*
X63939806Y-65838247D01*
X63914874Y-65824920D01*
X63893017Y-65806983D01*
X63875080Y-65785126D01*
X63861753Y-65760194D01*
X63853545Y-65733138D01*
X63850000Y-65697138D01*
X63850000Y-65102862D01*
X63853545Y-65066862D01*
X63861753Y-65039806D01*
X63875080Y-65014874D01*
X63893017Y-64993017D01*
X63914874Y-64975080D01*
X63939806Y-64961753D01*
X63966862Y-64953545D01*
X64002862Y-64950000D01*
X65397138Y-64950000D01*
X65433138Y-64953545D01*
X65433138Y-64953545D01*
G37*
G36*
X58800000Y-65400000D02*
G01*
X57600000Y-65400000D01*
X57600000Y-64200000D01*
X58800000Y-64200000D01*
X58800000Y-65400000D01*
X58800000Y-65400000D01*
G37*
G36*
X63200000Y-65400000D02*
G01*
X62000000Y-65400000D01*
X62000000Y-64200000D01*
X63200000Y-64200000D01*
X63200000Y-65400000D01*
X63200000Y-65400000D01*
G37*
G36*
X60400000Y-65400000D02*
G01*
X59200000Y-65400000D01*
X59200000Y-64200000D01*
X60400000Y-64200000D01*
X60400000Y-65400000D01*
X60400000Y-65400000D01*
G37*
G36*
X56000000Y-65400000D02*
G01*
X54800000Y-65400000D01*
X54800000Y-64200000D01*
X56000000Y-64200000D01*
X56000000Y-65400000D01*
X56000000Y-65400000D01*
G37*
G36*
X54033138Y-63703545D02*
G01*
X54060194Y-63711753D01*
X54085126Y-63725080D01*
X54106983Y-63743017D01*
X54124920Y-63764874D01*
X54138247Y-63789806D01*
X54146455Y-63816862D01*
X54150000Y-63852862D01*
X54150000Y-64447138D01*
X54146455Y-64483138D01*
X54138247Y-64510194D01*
X54124920Y-64535126D01*
X54106983Y-64556983D01*
X54085126Y-64574920D01*
X54060194Y-64588247D01*
X54033138Y-64596455D01*
X53997138Y-64600000D01*
X52602862Y-64600000D01*
X52566862Y-64596455D01*
X52539806Y-64588247D01*
X52514874Y-64574920D01*
X52493017Y-64556983D01*
X52475080Y-64535126D01*
X52461753Y-64510194D01*
X52453545Y-64483138D01*
X52450000Y-64447138D01*
X52450000Y-63852862D01*
X52453545Y-63816862D01*
X52461753Y-63789806D01*
X52475080Y-63764874D01*
X52493017Y-63743017D01*
X52514874Y-63725080D01*
X52539806Y-63711753D01*
X52566862Y-63703545D01*
X52602862Y-63700000D01*
X53997138Y-63700000D01*
X54033138Y-63703545D01*
X54033138Y-63703545D01*
G37*
G36*
X65433138Y-63703545D02*
G01*
X65460194Y-63711753D01*
X65485126Y-63725080D01*
X65506983Y-63743017D01*
X65524920Y-63764874D01*
X65538247Y-63789806D01*
X65546455Y-63816862D01*
X65550000Y-63852862D01*
X65550000Y-64447138D01*
X65546455Y-64483138D01*
X65538247Y-64510194D01*
X65524920Y-64535126D01*
X65506983Y-64556983D01*
X65485126Y-64574920D01*
X65460194Y-64588247D01*
X65433138Y-64596455D01*
X65397138Y-64600000D01*
X64002862Y-64600000D01*
X63966862Y-64596455D01*
X63939806Y-64588247D01*
X63914874Y-64574920D01*
X63893017Y-64556983D01*
X63875080Y-64535126D01*
X63861753Y-64510194D01*
X63853545Y-64483138D01*
X63850000Y-64447138D01*
X63850000Y-63852862D01*
X63853545Y-63816862D01*
X63861753Y-63789806D01*
X63875080Y-63764874D01*
X63893017Y-63743017D01*
X63914874Y-63725080D01*
X63939806Y-63711753D01*
X63966862Y-63703545D01*
X64002862Y-63700000D01*
X65397138Y-63700000D01*
X65433138Y-63703545D01*
X65433138Y-63703545D01*
G37*
G36*
X58800000Y-63100000D02*
G01*
X57600000Y-63100000D01*
X57600000Y-61900000D01*
X58800000Y-61900000D01*
X58800000Y-63100000D01*
X58800000Y-63100000D01*
G37*
G36*
X56000000Y-63100000D02*
G01*
X54800000Y-63100000D01*
X54800000Y-61900000D01*
X56000000Y-61900000D01*
X56000000Y-63100000D01*
X56000000Y-63100000D01*
G37*
G36*
X60400000Y-63100000D02*
G01*
X59200000Y-63100000D01*
X59200000Y-61900000D01*
X60400000Y-61900000D01*
X60400000Y-63100000D01*
X60400000Y-63100000D01*
G37*
G36*
X63200000Y-63100000D02*
G01*
X62000000Y-63100000D01*
X62000000Y-61900000D01*
X63200000Y-61900000D01*
X63200000Y-63100000D01*
X63200000Y-63100000D01*
G37*
G36*
X51837164Y-60503450D02*
G01*
X51863280Y-60511372D01*
X51887348Y-60524237D01*
X51908447Y-60541553D01*
X51925763Y-60562652D01*
X51938628Y-60586720D01*
X51946550Y-60612836D01*
X51950000Y-60647865D01*
X51950000Y-62552135D01*
X51946550Y-62587164D01*
X51938628Y-62613280D01*
X51925763Y-62637348D01*
X51908447Y-62658447D01*
X51887348Y-62675763D01*
X51863280Y-62688628D01*
X51837164Y-62696550D01*
X51802135Y-62700000D01*
X48997865Y-62700000D01*
X48962836Y-62696550D01*
X48936720Y-62688628D01*
X48912652Y-62675763D01*
X48891553Y-62658447D01*
X48874237Y-62637348D01*
X48861372Y-62613280D01*
X48853450Y-62587164D01*
X48850000Y-62552135D01*
X48850000Y-60647865D01*
X48853450Y-60612836D01*
X48861372Y-60586720D01*
X48874237Y-60562652D01*
X48891553Y-60541553D01*
X48912652Y-60524237D01*
X48936720Y-60511372D01*
X48962836Y-60503450D01*
X48997865Y-60500000D01*
X51802135Y-60500000D01*
X51837164Y-60503450D01*
X51837164Y-60503450D01*
G37*
G36*
X69037164Y-60503450D02*
G01*
X69063280Y-60511372D01*
X69087348Y-60524237D01*
X69108447Y-60541553D01*
X69125763Y-60562652D01*
X69138628Y-60586720D01*
X69146550Y-60612836D01*
X69150000Y-60647865D01*
X69150000Y-62552135D01*
X69146550Y-62587164D01*
X69138628Y-62613280D01*
X69125763Y-62637348D01*
X69108447Y-62658447D01*
X69087348Y-62675763D01*
X69063280Y-62688628D01*
X69037164Y-62696550D01*
X69002135Y-62700000D01*
X66197865Y-62700000D01*
X66162836Y-62696550D01*
X66136720Y-62688628D01*
X66112652Y-62675763D01*
X66091553Y-62658447D01*
X66074237Y-62637348D01*
X66061372Y-62613280D01*
X66053450Y-62587164D01*
X66050000Y-62552135D01*
X66050000Y-60647865D01*
X66053450Y-60612836D01*
X66061372Y-60586720D01*
X66074237Y-60562652D01*
X66091553Y-60541553D01*
X66112652Y-60524237D01*
X66136720Y-60511372D01*
X66162836Y-60503450D01*
X66197865Y-60500000D01*
X69002135Y-60500000D01*
X69037164Y-60503450D01*
X69037164Y-60503450D01*
G37*
G36*
X53345845Y-60719215D02*
G01*
X53436839Y-60756906D01*
X53436840Y-60756907D01*
X53518733Y-60811626D01*
X53588374Y-60881267D01*
X53588375Y-60881269D01*
X53643094Y-60963161D01*
X53680785Y-61054155D01*
X53700000Y-61150754D01*
X53700000Y-61249246D01*
X53680785Y-61345845D01*
X53643094Y-61436839D01*
X53643093Y-61436840D01*
X53588374Y-61518733D01*
X53518733Y-61588374D01*
X53477507Y-61615920D01*
X53436839Y-61643094D01*
X53345845Y-61680785D01*
X53249246Y-61700000D01*
X53150754Y-61700000D01*
X53054155Y-61680785D01*
X52963161Y-61643094D01*
X52922493Y-61615920D01*
X52881267Y-61588374D01*
X52811626Y-61518733D01*
X52756907Y-61436840D01*
X52756906Y-61436839D01*
X52719215Y-61345845D01*
X52700000Y-61249246D01*
X52700000Y-61150754D01*
X52719215Y-61054155D01*
X52756906Y-60963161D01*
X52811625Y-60881269D01*
X52811626Y-60881267D01*
X52881267Y-60811626D01*
X52963160Y-60756907D01*
X52963161Y-60756906D01*
X53054155Y-60719215D01*
X53150754Y-60700000D01*
X53249246Y-60700000D01*
X53345845Y-60719215D01*
X53345845Y-60719215D01*
G37*
M02*
