G04 #@! TF.GenerationSoftware,KiCad,Pcbnew,(5.1.4-0-10_14)*
G04 #@! TF.CreationDate,2020-03-01T16:52:25+01:00*
G04 #@! TF.ProjectId,actuator-board,61637475-6174-46f7-922d-626f6172642e,A.1*
G04 #@! TF.SameCoordinates,Original*
G04 #@! TF.FileFunction,Soldermask,Top*
G04 #@! TF.FilePolarity,Negative*
%FSLAX46Y46*%
G04 Gerber Fmt 4.6, Leading zero omitted, Abs format (unit mm)*
G04 Created by KiCad (PCBNEW (5.1.4-0-10_14)) date 2020-03-01 16:52:25*
%MOMM*%
%LPD*%
G04 APERTURE LIST*
%ADD10C,0.100000*%
G04 APERTURE END LIST*
D10*
G36*
X53045845Y-98469215D02*
G01*
X53136839Y-98506906D01*
X53136840Y-98506907D01*
X53218733Y-98561626D01*
X53288374Y-98631267D01*
X53296715Y-98643750D01*
X53343094Y-98713161D01*
X53380785Y-98804155D01*
X53400000Y-98900754D01*
X53400000Y-98999246D01*
X53380785Y-99095845D01*
X53343094Y-99186839D01*
X53317910Y-99224529D01*
X53288374Y-99268733D01*
X53218733Y-99338374D01*
X53206181Y-99346761D01*
X53136839Y-99393094D01*
X53045845Y-99430785D01*
X52949246Y-99450000D01*
X52850754Y-99450000D01*
X52754155Y-99430785D01*
X52663161Y-99393094D01*
X52593819Y-99346761D01*
X52581267Y-99338374D01*
X52511626Y-99268733D01*
X52482090Y-99224529D01*
X52456906Y-99186839D01*
X52419215Y-99095845D01*
X52400000Y-98999246D01*
X52400000Y-98900754D01*
X52419215Y-98804155D01*
X52456906Y-98713161D01*
X52503285Y-98643750D01*
X52511626Y-98631267D01*
X52581267Y-98561626D01*
X52663160Y-98506907D01*
X52663161Y-98506906D01*
X52754155Y-98469215D01*
X52850754Y-98450000D01*
X52949246Y-98450000D01*
X53045845Y-98469215D01*
X53045845Y-98469215D01*
G37*
G36*
X67593040Y-98403905D02*
G01*
X67623619Y-98413181D01*
X67651791Y-98428239D01*
X67676491Y-98448509D01*
X67696761Y-98473209D01*
X67711819Y-98501381D01*
X67721095Y-98531960D01*
X67725000Y-98571605D01*
X67725000Y-99203395D01*
X67721095Y-99243040D01*
X67711819Y-99273619D01*
X67696761Y-99301791D01*
X67676491Y-99326491D01*
X67651791Y-99346761D01*
X67623619Y-99361819D01*
X67593040Y-99371095D01*
X67553395Y-99375000D01*
X66846605Y-99375000D01*
X66806960Y-99371095D01*
X66776381Y-99361819D01*
X66748209Y-99346761D01*
X66723509Y-99326491D01*
X66703239Y-99301791D01*
X66688181Y-99273619D01*
X66678905Y-99243040D01*
X66675000Y-99203395D01*
X66675000Y-98571605D01*
X66678905Y-98531960D01*
X66688181Y-98501381D01*
X66703239Y-98473209D01*
X66723509Y-98448509D01*
X66748209Y-98428239D01*
X66776381Y-98413181D01*
X66806960Y-98403905D01*
X66846605Y-98400000D01*
X67553395Y-98400000D01*
X67593040Y-98403905D01*
X67593040Y-98403905D01*
G37*
G36*
X61475000Y-98570000D02*
G01*
X60829999Y-98570000D01*
X60798785Y-98573074D01*
X60768770Y-98582179D01*
X60741108Y-98596965D01*
X60716863Y-98616863D01*
X60696965Y-98641108D01*
X60682179Y-98668770D01*
X60673074Y-98698785D01*
X60670000Y-98729999D01*
X60670000Y-99375000D01*
X59870000Y-99375000D01*
X59870000Y-98625000D01*
X60565001Y-98625000D01*
X60596215Y-98621926D01*
X60626230Y-98612821D01*
X60653892Y-98598035D01*
X60678137Y-98578137D01*
X60698035Y-98553892D01*
X60712821Y-98526230D01*
X60721926Y-98496215D01*
X60725000Y-98465001D01*
X60725000Y-97770000D01*
X61475000Y-97770000D01*
X61475000Y-98570000D01*
X61475000Y-98570000D01*
G37*
G36*
X59400000Y-99375000D02*
G01*
X58600000Y-99375000D01*
X58600000Y-98625000D01*
X59400000Y-98625000D01*
X59400000Y-99375000D01*
X59400000Y-99375000D01*
G37*
G36*
X57275000Y-98465001D02*
G01*
X57278074Y-98496215D01*
X57287179Y-98526230D01*
X57301965Y-98553892D01*
X57321863Y-98578137D01*
X57346108Y-98598035D01*
X57373770Y-98612821D01*
X57403785Y-98621926D01*
X57434999Y-98625000D01*
X58130000Y-98625000D01*
X58130000Y-99375000D01*
X57330000Y-99375000D01*
X57330000Y-98729999D01*
X57326926Y-98698785D01*
X57317821Y-98668770D01*
X57303035Y-98641108D01*
X57283137Y-98616863D01*
X57258892Y-98596965D01*
X57231230Y-98582179D01*
X57201215Y-98573074D01*
X57170001Y-98570000D01*
X56525000Y-98570000D01*
X56525000Y-97770000D01*
X57275000Y-97770000D01*
X57275000Y-98465001D01*
X57275000Y-98465001D01*
G37*
G36*
X69193040Y-98403905D02*
G01*
X69223619Y-98413181D01*
X69251791Y-98428239D01*
X69276491Y-98448509D01*
X69296761Y-98473209D01*
X69311819Y-98501381D01*
X69321095Y-98531960D01*
X69325000Y-98571605D01*
X69325000Y-99203395D01*
X69321095Y-99243040D01*
X69311819Y-99273619D01*
X69296761Y-99301791D01*
X69276491Y-99326491D01*
X69251791Y-99346761D01*
X69223619Y-99361819D01*
X69193040Y-99371095D01*
X69153395Y-99375000D01*
X68446605Y-99375000D01*
X68406960Y-99371095D01*
X68376381Y-99361819D01*
X68348209Y-99346761D01*
X68323509Y-99326491D01*
X68303239Y-99301791D01*
X68288181Y-99273619D01*
X68278905Y-99243040D01*
X68275000Y-99203395D01*
X68275000Y-98571605D01*
X68278905Y-98531960D01*
X68288181Y-98501381D01*
X68303239Y-98473209D01*
X68323509Y-98448509D01*
X68348209Y-98428239D01*
X68376381Y-98413181D01*
X68406960Y-98403905D01*
X68446605Y-98400000D01*
X69153395Y-98400000D01*
X69193040Y-98403905D01*
X69193040Y-98403905D01*
G37*
G36*
X55293040Y-98216405D02*
G01*
X55323619Y-98225681D01*
X55351791Y-98240739D01*
X55376491Y-98261009D01*
X55396761Y-98285709D01*
X55411819Y-98313881D01*
X55421095Y-98344460D01*
X55425000Y-98384105D01*
X55425000Y-99015895D01*
X55421095Y-99055540D01*
X55411819Y-99086119D01*
X55396761Y-99114291D01*
X55376491Y-99138991D01*
X55351791Y-99159261D01*
X55323619Y-99174319D01*
X55293040Y-99183595D01*
X55253395Y-99187500D01*
X54546605Y-99187500D01*
X54506960Y-99183595D01*
X54476381Y-99174319D01*
X54448209Y-99159261D01*
X54423509Y-99138991D01*
X54403239Y-99114291D01*
X54388181Y-99086119D01*
X54378905Y-99055540D01*
X54375000Y-99015895D01*
X54375000Y-98384105D01*
X54378905Y-98344460D01*
X54388181Y-98313881D01*
X54403239Y-98285709D01*
X54423509Y-98261009D01*
X54448209Y-98240739D01*
X54476381Y-98225681D01*
X54506960Y-98216405D01*
X54546605Y-98212500D01*
X55253395Y-98212500D01*
X55293040Y-98216405D01*
X55293040Y-98216405D01*
G37*
G36*
X51837164Y-96778450D02*
G01*
X51863280Y-96786372D01*
X51887348Y-96799237D01*
X51908447Y-96816553D01*
X51925763Y-96837652D01*
X51938628Y-96861720D01*
X51946550Y-96887836D01*
X51950000Y-96922865D01*
X51950000Y-98827135D01*
X51946550Y-98862164D01*
X51938628Y-98888280D01*
X51925763Y-98912348D01*
X51908447Y-98933447D01*
X51887348Y-98950763D01*
X51863280Y-98963628D01*
X51837164Y-98971550D01*
X51802135Y-98975000D01*
X48997865Y-98975000D01*
X48962836Y-98971550D01*
X48936720Y-98963628D01*
X48912652Y-98950763D01*
X48891553Y-98933447D01*
X48874237Y-98912348D01*
X48861372Y-98888280D01*
X48853450Y-98862164D01*
X48850000Y-98827135D01*
X48850000Y-96922865D01*
X48853450Y-96887836D01*
X48861372Y-96861720D01*
X48874237Y-96837652D01*
X48891553Y-96816553D01*
X48912652Y-96799237D01*
X48936720Y-96786372D01*
X48962836Y-96778450D01*
X48997865Y-96775000D01*
X51802135Y-96775000D01*
X51837164Y-96778450D01*
X51837164Y-96778450D01*
G37*
G36*
X63693040Y-97203905D02*
G01*
X63723619Y-97213181D01*
X63751791Y-97228239D01*
X63776491Y-97248509D01*
X63796761Y-97273209D01*
X63811819Y-97301381D01*
X63821095Y-97331960D01*
X63825000Y-97371605D01*
X63825000Y-98003395D01*
X63821095Y-98043040D01*
X63811819Y-98073619D01*
X63796761Y-98101791D01*
X63776491Y-98126491D01*
X63751791Y-98146761D01*
X63723619Y-98161819D01*
X63693040Y-98171095D01*
X63653395Y-98175000D01*
X62946605Y-98175000D01*
X62906960Y-98171095D01*
X62876381Y-98161819D01*
X62848209Y-98146761D01*
X62823509Y-98126491D01*
X62803239Y-98101791D01*
X62788181Y-98073619D01*
X62778905Y-98043040D01*
X62775000Y-98003395D01*
X62775000Y-97371605D01*
X62778905Y-97331960D01*
X62788181Y-97301381D01*
X62803239Y-97273209D01*
X62823509Y-97248509D01*
X62848209Y-97228239D01*
X62876381Y-97213181D01*
X62906960Y-97203905D01*
X62946605Y-97200000D01*
X63653395Y-97200000D01*
X63693040Y-97203905D01*
X63693040Y-97203905D01*
G37*
G36*
X67593040Y-96828905D02*
G01*
X67623619Y-96838181D01*
X67651791Y-96853239D01*
X67676491Y-96873509D01*
X67696761Y-96898209D01*
X67711819Y-96926381D01*
X67721095Y-96956960D01*
X67725000Y-96996605D01*
X67725000Y-97628395D01*
X67721095Y-97668040D01*
X67711819Y-97698619D01*
X67696761Y-97726791D01*
X67676491Y-97751491D01*
X67651791Y-97771761D01*
X67623619Y-97786819D01*
X67593040Y-97796095D01*
X67553395Y-97800000D01*
X66846605Y-97800000D01*
X66806960Y-97796095D01*
X66776381Y-97786819D01*
X66748209Y-97771761D01*
X66723509Y-97751491D01*
X66703239Y-97726791D01*
X66688181Y-97698619D01*
X66678905Y-97668040D01*
X66675000Y-97628395D01*
X66675000Y-96996605D01*
X66678905Y-96956960D01*
X66688181Y-96926381D01*
X66703239Y-96898209D01*
X66723509Y-96873509D01*
X66748209Y-96853239D01*
X66776381Y-96838181D01*
X66806960Y-96828905D01*
X66846605Y-96825000D01*
X67553395Y-96825000D01*
X67593040Y-96828905D01*
X67593040Y-96828905D01*
G37*
G36*
X69193040Y-96828905D02*
G01*
X69223619Y-96838181D01*
X69251791Y-96853239D01*
X69276491Y-96873509D01*
X69296761Y-96898209D01*
X69311819Y-96926381D01*
X69321095Y-96956960D01*
X69325000Y-96996605D01*
X69325000Y-97628395D01*
X69321095Y-97668040D01*
X69311819Y-97698619D01*
X69296761Y-97726791D01*
X69276491Y-97751491D01*
X69251791Y-97771761D01*
X69223619Y-97786819D01*
X69193040Y-97796095D01*
X69153395Y-97800000D01*
X68446605Y-97800000D01*
X68406960Y-97796095D01*
X68376381Y-97786819D01*
X68348209Y-97771761D01*
X68323509Y-97751491D01*
X68303239Y-97726791D01*
X68288181Y-97698619D01*
X68278905Y-97668040D01*
X68275000Y-97628395D01*
X68275000Y-96996605D01*
X68278905Y-96956960D01*
X68288181Y-96926381D01*
X68303239Y-96898209D01*
X68323509Y-96873509D01*
X68348209Y-96853239D01*
X68376381Y-96838181D01*
X68406960Y-96828905D01*
X68446605Y-96825000D01*
X69153395Y-96825000D01*
X69193040Y-96828905D01*
X69193040Y-96828905D01*
G37*
G36*
X55293040Y-96641405D02*
G01*
X55323619Y-96650681D01*
X55351791Y-96665739D01*
X55376491Y-96686009D01*
X55396761Y-96710709D01*
X55411819Y-96738881D01*
X55421095Y-96769460D01*
X55425000Y-96809105D01*
X55425000Y-97440895D01*
X55421095Y-97480540D01*
X55411819Y-97511119D01*
X55396761Y-97539291D01*
X55376491Y-97563991D01*
X55351791Y-97584261D01*
X55323619Y-97599319D01*
X55293040Y-97608595D01*
X55253395Y-97612500D01*
X54546605Y-97612500D01*
X54506960Y-97608595D01*
X54476381Y-97599319D01*
X54448209Y-97584261D01*
X54423509Y-97563991D01*
X54403239Y-97539291D01*
X54388181Y-97511119D01*
X54378905Y-97480540D01*
X54375000Y-97440895D01*
X54375000Y-96809105D01*
X54378905Y-96769460D01*
X54388181Y-96738881D01*
X54403239Y-96710709D01*
X54423509Y-96686009D01*
X54448209Y-96665739D01*
X54476381Y-96650681D01*
X54506960Y-96641405D01*
X54546605Y-96637500D01*
X55253395Y-96637500D01*
X55293040Y-96641405D01*
X55293040Y-96641405D01*
G37*
G36*
X61475000Y-97300000D02*
G01*
X60725000Y-97300000D01*
X60725000Y-96500000D01*
X61475000Y-96500000D01*
X61475000Y-97300000D01*
X61475000Y-97300000D01*
G37*
G36*
X57275000Y-97300000D02*
G01*
X56525000Y-97300000D01*
X56525000Y-96500000D01*
X57275000Y-96500000D01*
X57275000Y-97300000D01*
X57275000Y-97300000D01*
G37*
G36*
X63693040Y-95628905D02*
G01*
X63723619Y-95638181D01*
X63751791Y-95653239D01*
X63776491Y-95673509D01*
X63796761Y-95698209D01*
X63811819Y-95726381D01*
X63821095Y-95756960D01*
X63825000Y-95796605D01*
X63825000Y-96428395D01*
X63821095Y-96468040D01*
X63811819Y-96498619D01*
X63796761Y-96526791D01*
X63776491Y-96551491D01*
X63751791Y-96571761D01*
X63723619Y-96586819D01*
X63693040Y-96596095D01*
X63653395Y-96600000D01*
X62946605Y-96600000D01*
X62906960Y-96596095D01*
X62876381Y-96586819D01*
X62848209Y-96571761D01*
X62823509Y-96551491D01*
X62803239Y-96526791D01*
X62788181Y-96498619D01*
X62778905Y-96468040D01*
X62775000Y-96428395D01*
X62775000Y-95796605D01*
X62778905Y-95756960D01*
X62788181Y-95726381D01*
X62803239Y-95698209D01*
X62823509Y-95673509D01*
X62848209Y-95653239D01*
X62876381Y-95638181D01*
X62906960Y-95628905D01*
X62946605Y-95625000D01*
X63653395Y-95625000D01*
X63693040Y-95628905D01*
X63693040Y-95628905D01*
G37*
G36*
X50738215Y-95456511D02*
G01*
X50823041Y-95482243D01*
X50823044Y-95482245D01*
X50823045Y-95482245D01*
X50901215Y-95524028D01*
X50969737Y-95580263D01*
X51025972Y-95648785D01*
X51067448Y-95726381D01*
X51067757Y-95726959D01*
X51093489Y-95811785D01*
X51102177Y-95900000D01*
X51093489Y-95988215D01*
X51067757Y-96073041D01*
X51067755Y-96073044D01*
X51067755Y-96073045D01*
X51025972Y-96151215D01*
X50969737Y-96219737D01*
X50901215Y-96275972D01*
X50823045Y-96317755D01*
X50823041Y-96317757D01*
X50738215Y-96343489D01*
X50672105Y-96350000D01*
X50127895Y-96350000D01*
X50061785Y-96343489D01*
X49976959Y-96317757D01*
X49976955Y-96317755D01*
X49898785Y-96275972D01*
X49830263Y-96219737D01*
X49774028Y-96151215D01*
X49732245Y-96073045D01*
X49732245Y-96073044D01*
X49732243Y-96073041D01*
X49706511Y-95988215D01*
X49697823Y-95900000D01*
X49706511Y-95811785D01*
X49732243Y-95726959D01*
X49732552Y-95726381D01*
X49774028Y-95648785D01*
X49830263Y-95580263D01*
X49898785Y-95524028D01*
X49976955Y-95482245D01*
X49976956Y-95482245D01*
X49976959Y-95482243D01*
X50061785Y-95456511D01*
X50127895Y-95450000D01*
X50672105Y-95450000D01*
X50738215Y-95456511D01*
X50738215Y-95456511D01*
G37*
G36*
X60670000Y-95070001D02*
G01*
X60673074Y-95101215D01*
X60682179Y-95131230D01*
X60696965Y-95158892D01*
X60716863Y-95183137D01*
X60741108Y-95203035D01*
X60768770Y-95217821D01*
X60798785Y-95226926D01*
X60829999Y-95230000D01*
X61475000Y-95230000D01*
X61475000Y-96030000D01*
X60725000Y-96030000D01*
X60725000Y-95334999D01*
X60721926Y-95303785D01*
X60712821Y-95273770D01*
X60698035Y-95246108D01*
X60678137Y-95221863D01*
X60653892Y-95201965D01*
X60626230Y-95187179D01*
X60596215Y-95178074D01*
X60565001Y-95175000D01*
X59870000Y-95175000D01*
X59870000Y-94425000D01*
X60670000Y-94425000D01*
X60670000Y-95070001D01*
X60670000Y-95070001D01*
G37*
G36*
X58130000Y-95175000D02*
G01*
X57434999Y-95175000D01*
X57403785Y-95178074D01*
X57373770Y-95187179D01*
X57346108Y-95201965D01*
X57321863Y-95221863D01*
X57301965Y-95246108D01*
X57287179Y-95273770D01*
X57278074Y-95303785D01*
X57275000Y-95334999D01*
X57275000Y-96030000D01*
X56525000Y-96030000D01*
X56525000Y-95230000D01*
X57170001Y-95230000D01*
X57201215Y-95226926D01*
X57231230Y-95217821D01*
X57258892Y-95203035D01*
X57283137Y-95183137D01*
X57303035Y-95158892D01*
X57317821Y-95131230D01*
X57326926Y-95101215D01*
X57330000Y-95070001D01*
X57330000Y-94425000D01*
X58130000Y-94425000D01*
X58130000Y-95175000D01*
X58130000Y-95175000D01*
G37*
G36*
X54033138Y-94878545D02*
G01*
X54060194Y-94886753D01*
X54085126Y-94900080D01*
X54106983Y-94918017D01*
X54124920Y-94939874D01*
X54138247Y-94964806D01*
X54146455Y-94991862D01*
X54150000Y-95027862D01*
X54150000Y-95622138D01*
X54146455Y-95658138D01*
X54138247Y-95685194D01*
X54124920Y-95710126D01*
X54106983Y-95731983D01*
X54085126Y-95749920D01*
X54060194Y-95763247D01*
X54033138Y-95771455D01*
X53997138Y-95775000D01*
X52602862Y-95775000D01*
X52566862Y-95771455D01*
X52539806Y-95763247D01*
X52514874Y-95749920D01*
X52493017Y-95731983D01*
X52475080Y-95710126D01*
X52461753Y-95685194D01*
X52453545Y-95658138D01*
X52450000Y-95622138D01*
X52450000Y-95027862D01*
X52453545Y-94991862D01*
X52461753Y-94964806D01*
X52475080Y-94939874D01*
X52493017Y-94918017D01*
X52514874Y-94900080D01*
X52539806Y-94886753D01*
X52566862Y-94878545D01*
X52602862Y-94875000D01*
X53997138Y-94875000D01*
X54033138Y-94878545D01*
X54033138Y-94878545D01*
G37*
G36*
X59400000Y-95175000D02*
G01*
X58600000Y-95175000D01*
X58600000Y-94425000D01*
X59400000Y-94425000D01*
X59400000Y-95175000D01*
X59400000Y-95175000D01*
G37*
G36*
X50738215Y-94206511D02*
G01*
X50823041Y-94232243D01*
X50823044Y-94232245D01*
X50823045Y-94232245D01*
X50901215Y-94274028D01*
X50969737Y-94330263D01*
X51025972Y-94398785D01*
X51066458Y-94474529D01*
X51067757Y-94476959D01*
X51093489Y-94561785D01*
X51102177Y-94650000D01*
X51093489Y-94738215D01*
X51067757Y-94823041D01*
X51067755Y-94823044D01*
X51067755Y-94823045D01*
X51025972Y-94901215D01*
X50969737Y-94969737D01*
X50901215Y-95025972D01*
X50844840Y-95056105D01*
X50823041Y-95067757D01*
X50738215Y-95093489D01*
X50672105Y-95100000D01*
X50127895Y-95100000D01*
X50061785Y-95093489D01*
X49976959Y-95067757D01*
X49955160Y-95056105D01*
X49898785Y-95025972D01*
X49830263Y-94969737D01*
X49774028Y-94901215D01*
X49732245Y-94823045D01*
X49732245Y-94823044D01*
X49732243Y-94823041D01*
X49706511Y-94738215D01*
X49697823Y-94650000D01*
X49706511Y-94561785D01*
X49732243Y-94476959D01*
X49733542Y-94474529D01*
X49774028Y-94398785D01*
X49830263Y-94330263D01*
X49898785Y-94274028D01*
X49976955Y-94232245D01*
X49976956Y-94232245D01*
X49976959Y-94232243D01*
X50061785Y-94206511D01*
X50127895Y-94200000D01*
X50672105Y-94200000D01*
X50738215Y-94206511D01*
X50738215Y-94206511D01*
G37*
G36*
X64168040Y-93578905D02*
G01*
X64198619Y-93588181D01*
X64226791Y-93603239D01*
X64251491Y-93623509D01*
X64271761Y-93648209D01*
X64286819Y-93676381D01*
X64296095Y-93706960D01*
X64300000Y-93746605D01*
X64300000Y-94453395D01*
X64296095Y-94493040D01*
X64286819Y-94523619D01*
X64271761Y-94551791D01*
X64251491Y-94576491D01*
X64226791Y-94596761D01*
X64198619Y-94611819D01*
X64168040Y-94621095D01*
X64128395Y-94625000D01*
X63496605Y-94625000D01*
X63456960Y-94621095D01*
X63426381Y-94611819D01*
X63398209Y-94596761D01*
X63373509Y-94576491D01*
X63353239Y-94551791D01*
X63338181Y-94523619D01*
X63328905Y-94493040D01*
X63325000Y-94453395D01*
X63325000Y-93746605D01*
X63328905Y-93706960D01*
X63338181Y-93676381D01*
X63353239Y-93648209D01*
X63373509Y-93623509D01*
X63398209Y-93603239D01*
X63426381Y-93588181D01*
X63456960Y-93578905D01*
X63496605Y-93575000D01*
X64128395Y-93575000D01*
X64168040Y-93578905D01*
X64168040Y-93578905D01*
G37*
G36*
X65743040Y-93578905D02*
G01*
X65773619Y-93588181D01*
X65801791Y-93603239D01*
X65826491Y-93623509D01*
X65846761Y-93648209D01*
X65861819Y-93676381D01*
X65871095Y-93706960D01*
X65875000Y-93746605D01*
X65875000Y-94453395D01*
X65871095Y-94493040D01*
X65861819Y-94523619D01*
X65846761Y-94551791D01*
X65826491Y-94576491D01*
X65801791Y-94596761D01*
X65773619Y-94611819D01*
X65743040Y-94621095D01*
X65703395Y-94625000D01*
X65071605Y-94625000D01*
X65031960Y-94621095D01*
X65001381Y-94611819D01*
X64973209Y-94596761D01*
X64948509Y-94576491D01*
X64928239Y-94551791D01*
X64913181Y-94523619D01*
X64903905Y-94493040D01*
X64900000Y-94453395D01*
X64900000Y-93746605D01*
X64903905Y-93706960D01*
X64913181Y-93676381D01*
X64928239Y-93648209D01*
X64948509Y-93623509D01*
X64973209Y-93603239D01*
X65001381Y-93588181D01*
X65031960Y-93578905D01*
X65071605Y-93575000D01*
X65703395Y-93575000D01*
X65743040Y-93578905D01*
X65743040Y-93578905D01*
G37*
G36*
X54033138Y-93628545D02*
G01*
X54060194Y-93636753D01*
X54085126Y-93650080D01*
X54106983Y-93668017D01*
X54124920Y-93689874D01*
X54138247Y-93714806D01*
X54146455Y-93741862D01*
X54150000Y-93777862D01*
X54150000Y-94372138D01*
X54146455Y-94408138D01*
X54138247Y-94435194D01*
X54124920Y-94460126D01*
X54106983Y-94481983D01*
X54085126Y-94499920D01*
X54060194Y-94513247D01*
X54033138Y-94521455D01*
X53997138Y-94525000D01*
X52602862Y-94525000D01*
X52566862Y-94521455D01*
X52539806Y-94513247D01*
X52514874Y-94499920D01*
X52493017Y-94481983D01*
X52475080Y-94460126D01*
X52461753Y-94435194D01*
X52453545Y-94408138D01*
X52450000Y-94372138D01*
X52450000Y-93777862D01*
X52453545Y-93741862D01*
X52461753Y-93714806D01*
X52475080Y-93689874D01*
X52493017Y-93668017D01*
X52514874Y-93650080D01*
X52539806Y-93636753D01*
X52566862Y-93628545D01*
X52602862Y-93625000D01*
X53997138Y-93625000D01*
X54033138Y-93628545D01*
X54033138Y-93628545D01*
G37*
G36*
X50738215Y-92956511D02*
G01*
X50823041Y-92982243D01*
X50823044Y-92982245D01*
X50823045Y-92982245D01*
X50901215Y-93024028D01*
X50969737Y-93080263D01*
X51025972Y-93148785D01*
X51064206Y-93220316D01*
X51067757Y-93226959D01*
X51093489Y-93311785D01*
X51102177Y-93400000D01*
X51093489Y-93488215D01*
X51067757Y-93573041D01*
X51067755Y-93573044D01*
X51067755Y-93573045D01*
X51025972Y-93651215D01*
X50969737Y-93719737D01*
X50901215Y-93775972D01*
X50844840Y-93806105D01*
X50823041Y-93817757D01*
X50738215Y-93843489D01*
X50672105Y-93850000D01*
X50127895Y-93850000D01*
X50061785Y-93843489D01*
X49976959Y-93817757D01*
X49955160Y-93806105D01*
X49898785Y-93775972D01*
X49830263Y-93719737D01*
X49774028Y-93651215D01*
X49732245Y-93573045D01*
X49732245Y-93573044D01*
X49732243Y-93573041D01*
X49706511Y-93488215D01*
X49697823Y-93400000D01*
X49706511Y-93311785D01*
X49732243Y-93226959D01*
X49735794Y-93220316D01*
X49774028Y-93148785D01*
X49830263Y-93080263D01*
X49898785Y-93024028D01*
X49976955Y-92982245D01*
X49976956Y-92982245D01*
X49976959Y-92982243D01*
X50061785Y-92956511D01*
X50127895Y-92950000D01*
X50672105Y-92950000D01*
X50738215Y-92956511D01*
X50738215Y-92956511D01*
G37*
G36*
X69118040Y-92678905D02*
G01*
X69148619Y-92688181D01*
X69176791Y-92703239D01*
X69201491Y-92723509D01*
X69221761Y-92748209D01*
X69236819Y-92776381D01*
X69246095Y-92806960D01*
X69250000Y-92846605D01*
X69250000Y-93553395D01*
X69246095Y-93593040D01*
X69236819Y-93623619D01*
X69221761Y-93651791D01*
X69201491Y-93676491D01*
X69176791Y-93696761D01*
X69148619Y-93711819D01*
X69118040Y-93721095D01*
X69078395Y-93725000D01*
X68446605Y-93725000D01*
X68406960Y-93721095D01*
X68376381Y-93711819D01*
X68348209Y-93696761D01*
X68323509Y-93676491D01*
X68303239Y-93651791D01*
X68288181Y-93623619D01*
X68278905Y-93593040D01*
X68275000Y-93553395D01*
X68275000Y-92846605D01*
X68278905Y-92806960D01*
X68288181Y-92776381D01*
X68303239Y-92748209D01*
X68323509Y-92723509D01*
X68348209Y-92703239D01*
X68376381Y-92688181D01*
X68406960Y-92678905D01*
X68446605Y-92675000D01*
X69078395Y-92675000D01*
X69118040Y-92678905D01*
X69118040Y-92678905D01*
G37*
G36*
X67543040Y-92678905D02*
G01*
X67573619Y-92688181D01*
X67601791Y-92703239D01*
X67626491Y-92723509D01*
X67646761Y-92748209D01*
X67661819Y-92776381D01*
X67671095Y-92806960D01*
X67675000Y-92846605D01*
X67675000Y-93553395D01*
X67671095Y-93593040D01*
X67661819Y-93623619D01*
X67646761Y-93651791D01*
X67626491Y-93676491D01*
X67601791Y-93696761D01*
X67573619Y-93711819D01*
X67543040Y-93721095D01*
X67503395Y-93725000D01*
X66871605Y-93725000D01*
X66831960Y-93721095D01*
X66801381Y-93711819D01*
X66773209Y-93696761D01*
X66748509Y-93676491D01*
X66728239Y-93651791D01*
X66713181Y-93623619D01*
X66703905Y-93593040D01*
X66700000Y-93553395D01*
X66700000Y-92846605D01*
X66703905Y-92806960D01*
X66713181Y-92776381D01*
X66728239Y-92748209D01*
X66748509Y-92723509D01*
X66773209Y-92703239D01*
X66801381Y-92688181D01*
X66831960Y-92678905D01*
X66871605Y-92675000D01*
X67503395Y-92675000D01*
X67543040Y-92678905D01*
X67543040Y-92678905D01*
G37*
G36*
X54033138Y-92378545D02*
G01*
X54060194Y-92386753D01*
X54085126Y-92400080D01*
X54106983Y-92418017D01*
X54124920Y-92439874D01*
X54138247Y-92464806D01*
X54146455Y-92491862D01*
X54150000Y-92527862D01*
X54150000Y-93122138D01*
X54146455Y-93158138D01*
X54138247Y-93185194D01*
X54124920Y-93210126D01*
X54106983Y-93231983D01*
X54085126Y-93249920D01*
X54060194Y-93263247D01*
X54033138Y-93271455D01*
X53997138Y-93275000D01*
X52602862Y-93275000D01*
X52566862Y-93271455D01*
X52539806Y-93263247D01*
X52514874Y-93249920D01*
X52493017Y-93231983D01*
X52475080Y-93210126D01*
X52461753Y-93185194D01*
X52453545Y-93158138D01*
X52450000Y-93122138D01*
X52450000Y-92527862D01*
X52453545Y-92491862D01*
X52461753Y-92464806D01*
X52475080Y-92439874D01*
X52493017Y-92418017D01*
X52514874Y-92400080D01*
X52539806Y-92386753D01*
X52566862Y-92378545D01*
X52602862Y-92375000D01*
X53997138Y-92375000D01*
X54033138Y-92378545D01*
X54033138Y-92378545D01*
G37*
G36*
X57243040Y-92178905D02*
G01*
X57273619Y-92188181D01*
X57301791Y-92203239D01*
X57326491Y-92223509D01*
X57346761Y-92248209D01*
X57361819Y-92276381D01*
X57371095Y-92306960D01*
X57375000Y-92346605D01*
X57375000Y-93053395D01*
X57371095Y-93093040D01*
X57361819Y-93123619D01*
X57346761Y-93151791D01*
X57326491Y-93176491D01*
X57301791Y-93196761D01*
X57273619Y-93211819D01*
X57243040Y-93221095D01*
X57203395Y-93225000D01*
X56571605Y-93225000D01*
X56531960Y-93221095D01*
X56501381Y-93211819D01*
X56473209Y-93196761D01*
X56448509Y-93176491D01*
X56428239Y-93151791D01*
X56413181Y-93123619D01*
X56403905Y-93093040D01*
X56400000Y-93053395D01*
X56400000Y-92346605D01*
X56403905Y-92306960D01*
X56413181Y-92276381D01*
X56428239Y-92248209D01*
X56448509Y-92223509D01*
X56473209Y-92203239D01*
X56501381Y-92188181D01*
X56531960Y-92178905D01*
X56571605Y-92175000D01*
X57203395Y-92175000D01*
X57243040Y-92178905D01*
X57243040Y-92178905D01*
G37*
G36*
X55668040Y-92178905D02*
G01*
X55698619Y-92188181D01*
X55726791Y-92203239D01*
X55751491Y-92223509D01*
X55771761Y-92248209D01*
X55786819Y-92276381D01*
X55796095Y-92306960D01*
X55800000Y-92346605D01*
X55800000Y-93053395D01*
X55796095Y-93093040D01*
X55786819Y-93123619D01*
X55771761Y-93151791D01*
X55751491Y-93176491D01*
X55726791Y-93196761D01*
X55698619Y-93211819D01*
X55668040Y-93221095D01*
X55628395Y-93225000D01*
X54996605Y-93225000D01*
X54956960Y-93221095D01*
X54926381Y-93211819D01*
X54898209Y-93196761D01*
X54873509Y-93176491D01*
X54853239Y-93151791D01*
X54838181Y-93123619D01*
X54828905Y-93093040D01*
X54825000Y-93053395D01*
X54825000Y-92346605D01*
X54828905Y-92306960D01*
X54838181Y-92276381D01*
X54853239Y-92248209D01*
X54873509Y-92223509D01*
X54898209Y-92203239D01*
X54926381Y-92188181D01*
X54956960Y-92178905D01*
X54996605Y-92175000D01*
X55628395Y-92175000D01*
X55668040Y-92178905D01*
X55668040Y-92178905D01*
G37*
G36*
X64168040Y-92178905D02*
G01*
X64198619Y-92188181D01*
X64226791Y-92203239D01*
X64251491Y-92223509D01*
X64271761Y-92248209D01*
X64286819Y-92276381D01*
X64296095Y-92306960D01*
X64300000Y-92346605D01*
X64300000Y-93053395D01*
X64296095Y-93093040D01*
X64286819Y-93123619D01*
X64271761Y-93151791D01*
X64251491Y-93176491D01*
X64226791Y-93196761D01*
X64198619Y-93211819D01*
X64168040Y-93221095D01*
X64128395Y-93225000D01*
X63496605Y-93225000D01*
X63456960Y-93221095D01*
X63426381Y-93211819D01*
X63398209Y-93196761D01*
X63373509Y-93176491D01*
X63353239Y-93151791D01*
X63338181Y-93123619D01*
X63328905Y-93093040D01*
X63325000Y-93053395D01*
X63325000Y-92346605D01*
X63328905Y-92306960D01*
X63338181Y-92276381D01*
X63353239Y-92248209D01*
X63373509Y-92223509D01*
X63398209Y-92203239D01*
X63426381Y-92188181D01*
X63456960Y-92178905D01*
X63496605Y-92175000D01*
X64128395Y-92175000D01*
X64168040Y-92178905D01*
X64168040Y-92178905D01*
G37*
G36*
X65743040Y-92178905D02*
G01*
X65773619Y-92188181D01*
X65801791Y-92203239D01*
X65826491Y-92223509D01*
X65846761Y-92248209D01*
X65861819Y-92276381D01*
X65871095Y-92306960D01*
X65875000Y-92346605D01*
X65875000Y-93053395D01*
X65871095Y-93093040D01*
X65861819Y-93123619D01*
X65846761Y-93151791D01*
X65826491Y-93176491D01*
X65801791Y-93196761D01*
X65773619Y-93211819D01*
X65743040Y-93221095D01*
X65703395Y-93225000D01*
X65071605Y-93225000D01*
X65031960Y-93221095D01*
X65001381Y-93211819D01*
X64973209Y-93196761D01*
X64948509Y-93176491D01*
X64928239Y-93151791D01*
X64913181Y-93123619D01*
X64903905Y-93093040D01*
X64900000Y-93053395D01*
X64900000Y-92346605D01*
X64903905Y-92306960D01*
X64913181Y-92276381D01*
X64928239Y-92248209D01*
X64948509Y-92223509D01*
X64973209Y-92203239D01*
X65001381Y-92188181D01*
X65031960Y-92178905D01*
X65071605Y-92175000D01*
X65703395Y-92175000D01*
X65743040Y-92178905D01*
X65743040Y-92178905D01*
G37*
G36*
X50738215Y-91706511D02*
G01*
X50823041Y-91732243D01*
X50823044Y-91732245D01*
X50823045Y-91732245D01*
X50901215Y-91774028D01*
X50969737Y-91830263D01*
X51025972Y-91898785D01*
X51067755Y-91976955D01*
X51067757Y-91976959D01*
X51093489Y-92061785D01*
X51102177Y-92150000D01*
X51093489Y-92238215D01*
X51067757Y-92323041D01*
X51067755Y-92323044D01*
X51067755Y-92323045D01*
X51025972Y-92401215D01*
X50969737Y-92469737D01*
X50901215Y-92525972D01*
X50844840Y-92556105D01*
X50823041Y-92567757D01*
X50738215Y-92593489D01*
X50672105Y-92600000D01*
X50127895Y-92600000D01*
X50061785Y-92593489D01*
X49976959Y-92567757D01*
X49955160Y-92556105D01*
X49898785Y-92525972D01*
X49830263Y-92469737D01*
X49774028Y-92401215D01*
X49732245Y-92323045D01*
X49732245Y-92323044D01*
X49732243Y-92323041D01*
X49706511Y-92238215D01*
X49697823Y-92150000D01*
X49706511Y-92061785D01*
X49732243Y-91976959D01*
X49732245Y-91976955D01*
X49774028Y-91898785D01*
X49830263Y-91830263D01*
X49898785Y-91774028D01*
X49976955Y-91732245D01*
X49976956Y-91732245D01*
X49976959Y-91732243D01*
X50061785Y-91706511D01*
X50127895Y-91700000D01*
X50672105Y-91700000D01*
X50738215Y-91706511D01*
X50738215Y-91706511D01*
G37*
G36*
X67625000Y-92150000D02*
G01*
X66375000Y-92150000D01*
X66375000Y-90650000D01*
X67625000Y-90650000D01*
X67625000Y-92150000D01*
X67625000Y-92150000D01*
G37*
G36*
X69225000Y-92150000D02*
G01*
X67975000Y-92150000D01*
X67975000Y-90650000D01*
X69225000Y-90650000D01*
X69225000Y-92150000D01*
X69225000Y-92150000D01*
G37*
G36*
X54033138Y-91128545D02*
G01*
X54060194Y-91136753D01*
X54085126Y-91150080D01*
X54106983Y-91168017D01*
X54124920Y-91189874D01*
X54138247Y-91214806D01*
X54146455Y-91241862D01*
X54150000Y-91277862D01*
X54150000Y-91872138D01*
X54146455Y-91908138D01*
X54138247Y-91935194D01*
X54124920Y-91960126D01*
X54106983Y-91981983D01*
X54085126Y-91999920D01*
X54060194Y-92013247D01*
X54033138Y-92021455D01*
X53997138Y-92025000D01*
X52602862Y-92025000D01*
X52566862Y-92021455D01*
X52539806Y-92013247D01*
X52514874Y-91999920D01*
X52493017Y-91981983D01*
X52475080Y-91960126D01*
X52461753Y-91935194D01*
X52453545Y-91908138D01*
X52450000Y-91872138D01*
X52450000Y-91277862D01*
X52453545Y-91241862D01*
X52461753Y-91214806D01*
X52475080Y-91189874D01*
X52493017Y-91168017D01*
X52514874Y-91150080D01*
X52539806Y-91136753D01*
X52566862Y-91128545D01*
X52602862Y-91125000D01*
X53997138Y-91125000D01*
X54033138Y-91128545D01*
X54033138Y-91128545D01*
G37*
G36*
X57243040Y-90778905D02*
G01*
X57273619Y-90788181D01*
X57301791Y-90803239D01*
X57326491Y-90823509D01*
X57346761Y-90848209D01*
X57361819Y-90876381D01*
X57371095Y-90906960D01*
X57375000Y-90946605D01*
X57375000Y-91653395D01*
X57371095Y-91693040D01*
X57361819Y-91723619D01*
X57346761Y-91751791D01*
X57326491Y-91776491D01*
X57301791Y-91796761D01*
X57273619Y-91811819D01*
X57243040Y-91821095D01*
X57203395Y-91825000D01*
X56571605Y-91825000D01*
X56531960Y-91821095D01*
X56501381Y-91811819D01*
X56473209Y-91796761D01*
X56448509Y-91776491D01*
X56428239Y-91751791D01*
X56413181Y-91723619D01*
X56403905Y-91693040D01*
X56400000Y-91653395D01*
X56400000Y-90946605D01*
X56403905Y-90906960D01*
X56413181Y-90876381D01*
X56428239Y-90848209D01*
X56448509Y-90823509D01*
X56473209Y-90803239D01*
X56501381Y-90788181D01*
X56531960Y-90778905D01*
X56571605Y-90775000D01*
X57203395Y-90775000D01*
X57243040Y-90778905D01*
X57243040Y-90778905D01*
G37*
G36*
X55668040Y-90778905D02*
G01*
X55698619Y-90788181D01*
X55726791Y-90803239D01*
X55751491Y-90823509D01*
X55771761Y-90848209D01*
X55786819Y-90876381D01*
X55796095Y-90906960D01*
X55800000Y-90946605D01*
X55800000Y-91653395D01*
X55796095Y-91693040D01*
X55786819Y-91723619D01*
X55771761Y-91751791D01*
X55751491Y-91776491D01*
X55726791Y-91796761D01*
X55698619Y-91811819D01*
X55668040Y-91821095D01*
X55628395Y-91825000D01*
X54996605Y-91825000D01*
X54956960Y-91821095D01*
X54926381Y-91811819D01*
X54898209Y-91796761D01*
X54873509Y-91776491D01*
X54853239Y-91751791D01*
X54838181Y-91723619D01*
X54828905Y-91693040D01*
X54825000Y-91653395D01*
X54825000Y-90946605D01*
X54828905Y-90906960D01*
X54838181Y-90876381D01*
X54853239Y-90848209D01*
X54873509Y-90823509D01*
X54898209Y-90803239D01*
X54926381Y-90788181D01*
X54956960Y-90778905D01*
X54996605Y-90775000D01*
X55628395Y-90775000D01*
X55668040Y-90778905D01*
X55668040Y-90778905D01*
G37*
G36*
X61018815Y-85575904D02*
G01*
X61020070Y-85576285D01*
X61024574Y-85578692D01*
X61053552Y-85590696D01*
X61084314Y-85596815D01*
X61115680Y-85596816D01*
X61146442Y-85590697D01*
X61175426Y-85578692D01*
X61179930Y-85576285D01*
X61181185Y-85575904D01*
X61190362Y-85575000D01*
X61509638Y-85575000D01*
X61518815Y-85575904D01*
X61520070Y-85576285D01*
X61524574Y-85578692D01*
X61553552Y-85590696D01*
X61584314Y-85596815D01*
X61615680Y-85596816D01*
X61646442Y-85590697D01*
X61675426Y-85578692D01*
X61679930Y-85576285D01*
X61681185Y-85575904D01*
X61690362Y-85575000D01*
X62009638Y-85575000D01*
X62018815Y-85575904D01*
X62020070Y-85576285D01*
X62024574Y-85578692D01*
X62053552Y-85590696D01*
X62084314Y-85596815D01*
X62115680Y-85596816D01*
X62146442Y-85590697D01*
X62175426Y-85578692D01*
X62179930Y-85576285D01*
X62181185Y-85575904D01*
X62190362Y-85575000D01*
X62509638Y-85575000D01*
X62518815Y-85575904D01*
X62520070Y-85576285D01*
X62524574Y-85578692D01*
X62553552Y-85590696D01*
X62584314Y-85596815D01*
X62615680Y-85596816D01*
X62646442Y-85590697D01*
X62675426Y-85578692D01*
X62679930Y-85576285D01*
X62681185Y-85575904D01*
X62690362Y-85575000D01*
X63009638Y-85575000D01*
X63018815Y-85575904D01*
X63020070Y-85576285D01*
X63024574Y-85578692D01*
X63053552Y-85590696D01*
X63084314Y-85596815D01*
X63115680Y-85596816D01*
X63146442Y-85590697D01*
X63175426Y-85578692D01*
X63179930Y-85576285D01*
X63181185Y-85575904D01*
X63190362Y-85575000D01*
X63509638Y-85575000D01*
X63518815Y-85575904D01*
X63520070Y-85576285D01*
X63524574Y-85578692D01*
X63553552Y-85590696D01*
X63584314Y-85596815D01*
X63615680Y-85596816D01*
X63646442Y-85590697D01*
X63675426Y-85578692D01*
X63679930Y-85576285D01*
X63681185Y-85575904D01*
X63690362Y-85575000D01*
X64009638Y-85575000D01*
X64018815Y-85575904D01*
X64020070Y-85576285D01*
X64024574Y-85578692D01*
X64053552Y-85590696D01*
X64084314Y-85596815D01*
X64115680Y-85596816D01*
X64146442Y-85590697D01*
X64175426Y-85578692D01*
X64179930Y-85576285D01*
X64181185Y-85575904D01*
X64190362Y-85575000D01*
X64509638Y-85575000D01*
X64518815Y-85575904D01*
X64520073Y-85576285D01*
X64521234Y-85576906D01*
X64522256Y-85577744D01*
X64523094Y-85578766D01*
X64523715Y-85579927D01*
X64524096Y-85581185D01*
X64525000Y-85590362D01*
X64525000Y-86415001D01*
X64528074Y-86446215D01*
X64537179Y-86476230D01*
X64551965Y-86503892D01*
X64571863Y-86528137D01*
X64596108Y-86548035D01*
X64623770Y-86562821D01*
X64653785Y-86571926D01*
X64684999Y-86575000D01*
X65509638Y-86575000D01*
X65518815Y-86575904D01*
X65520073Y-86576285D01*
X65521234Y-86576906D01*
X65522256Y-86577744D01*
X65523094Y-86578766D01*
X65523715Y-86579927D01*
X65524096Y-86581185D01*
X65525000Y-86590362D01*
X65525000Y-86909638D01*
X65524096Y-86918815D01*
X65523715Y-86920070D01*
X65521308Y-86924574D01*
X65509304Y-86953552D01*
X65503185Y-86984314D01*
X65503184Y-87015680D01*
X65509303Y-87046442D01*
X65521308Y-87075426D01*
X65523715Y-87079930D01*
X65524096Y-87081185D01*
X65525000Y-87090362D01*
X65525000Y-87409638D01*
X65524096Y-87418815D01*
X65523715Y-87420070D01*
X65521308Y-87424574D01*
X65509304Y-87453552D01*
X65503185Y-87484314D01*
X65503184Y-87515680D01*
X65509303Y-87546442D01*
X65521308Y-87575426D01*
X65523715Y-87579930D01*
X65524096Y-87581185D01*
X65525000Y-87590362D01*
X65525000Y-87909638D01*
X65524096Y-87918815D01*
X65523715Y-87920070D01*
X65521308Y-87924574D01*
X65509304Y-87953552D01*
X65503185Y-87984314D01*
X65503184Y-88015680D01*
X65509303Y-88046442D01*
X65521308Y-88075426D01*
X65523715Y-88079930D01*
X65524096Y-88081185D01*
X65525000Y-88090362D01*
X65525000Y-88409638D01*
X65524096Y-88418815D01*
X65523715Y-88420070D01*
X65521308Y-88424574D01*
X65509304Y-88453552D01*
X65503185Y-88484314D01*
X65503184Y-88515680D01*
X65509303Y-88546442D01*
X65521308Y-88575426D01*
X65523715Y-88579930D01*
X65524096Y-88581185D01*
X65525000Y-88590362D01*
X65525000Y-88909638D01*
X65524096Y-88918815D01*
X65523715Y-88920070D01*
X65521308Y-88924574D01*
X65509304Y-88953552D01*
X65503185Y-88984314D01*
X65503184Y-89015680D01*
X65509303Y-89046442D01*
X65521308Y-89075426D01*
X65523715Y-89079930D01*
X65524096Y-89081185D01*
X65525000Y-89090362D01*
X65525000Y-89409638D01*
X65524096Y-89418815D01*
X65523715Y-89420070D01*
X65521308Y-89424574D01*
X65509304Y-89453552D01*
X65503185Y-89484314D01*
X65503184Y-89515680D01*
X65509303Y-89546442D01*
X65521308Y-89575426D01*
X65523715Y-89579930D01*
X65524096Y-89581185D01*
X65525000Y-89590362D01*
X65525000Y-89909638D01*
X65524096Y-89918815D01*
X65523715Y-89920070D01*
X65521308Y-89924574D01*
X65509304Y-89953552D01*
X65503185Y-89984314D01*
X65503184Y-90015680D01*
X65509303Y-90046442D01*
X65521308Y-90075426D01*
X65523715Y-90079930D01*
X65524096Y-90081185D01*
X65525000Y-90090362D01*
X65525000Y-90409638D01*
X65524096Y-90418815D01*
X65523715Y-90420073D01*
X65523094Y-90421234D01*
X65522256Y-90422256D01*
X65521234Y-90423094D01*
X65520073Y-90423715D01*
X65518815Y-90424096D01*
X65509638Y-90425000D01*
X64684999Y-90425000D01*
X64653785Y-90428074D01*
X64623770Y-90437179D01*
X64596108Y-90451965D01*
X64571863Y-90471863D01*
X64551965Y-90496108D01*
X64537179Y-90523770D01*
X64528074Y-90553785D01*
X64525000Y-90584999D01*
X64525000Y-91409638D01*
X64524096Y-91418815D01*
X64523715Y-91420073D01*
X64523094Y-91421234D01*
X64522256Y-91422256D01*
X64521234Y-91423094D01*
X64520073Y-91423715D01*
X64518815Y-91424096D01*
X64509638Y-91425000D01*
X64190362Y-91425000D01*
X64181185Y-91424096D01*
X64179930Y-91423715D01*
X64175426Y-91421308D01*
X64146448Y-91409304D01*
X64115686Y-91403185D01*
X64084320Y-91403184D01*
X64053558Y-91409303D01*
X64024574Y-91421308D01*
X64020070Y-91423715D01*
X64018815Y-91424096D01*
X64009638Y-91425000D01*
X63690362Y-91425000D01*
X63681185Y-91424096D01*
X63679930Y-91423715D01*
X63675426Y-91421308D01*
X63646448Y-91409304D01*
X63615686Y-91403185D01*
X63584320Y-91403184D01*
X63553558Y-91409303D01*
X63524574Y-91421308D01*
X63520070Y-91423715D01*
X63518815Y-91424096D01*
X63509638Y-91425000D01*
X63190362Y-91425000D01*
X63181185Y-91424096D01*
X63179930Y-91423715D01*
X63175426Y-91421308D01*
X63146448Y-91409304D01*
X63115686Y-91403185D01*
X63084320Y-91403184D01*
X63053558Y-91409303D01*
X63024574Y-91421308D01*
X63020070Y-91423715D01*
X63018815Y-91424096D01*
X63009638Y-91425000D01*
X62690362Y-91425000D01*
X62681185Y-91424096D01*
X62679930Y-91423715D01*
X62675426Y-91421308D01*
X62646448Y-91409304D01*
X62615686Y-91403185D01*
X62584320Y-91403184D01*
X62553558Y-91409303D01*
X62524574Y-91421308D01*
X62520070Y-91423715D01*
X62518815Y-91424096D01*
X62509638Y-91425000D01*
X62190362Y-91425000D01*
X62181185Y-91424096D01*
X62179930Y-91423715D01*
X62175426Y-91421308D01*
X62146448Y-91409304D01*
X62115686Y-91403185D01*
X62084320Y-91403184D01*
X62053558Y-91409303D01*
X62024574Y-91421308D01*
X62020070Y-91423715D01*
X62018815Y-91424096D01*
X62009638Y-91425000D01*
X61690362Y-91425000D01*
X61681185Y-91424096D01*
X61679930Y-91423715D01*
X61675426Y-91421308D01*
X61646448Y-91409304D01*
X61615686Y-91403185D01*
X61584320Y-91403184D01*
X61553558Y-91409303D01*
X61524574Y-91421308D01*
X61520070Y-91423715D01*
X61518815Y-91424096D01*
X61509638Y-91425000D01*
X61190362Y-91425000D01*
X61181185Y-91424096D01*
X61179930Y-91423715D01*
X61175426Y-91421308D01*
X61146448Y-91409304D01*
X61115686Y-91403185D01*
X61084320Y-91403184D01*
X61053558Y-91409303D01*
X61024574Y-91421308D01*
X61020070Y-91423715D01*
X61018815Y-91424096D01*
X61009638Y-91425000D01*
X60690362Y-91425000D01*
X60681185Y-91424096D01*
X60679927Y-91423715D01*
X60678766Y-91423094D01*
X60677744Y-91422256D01*
X60676906Y-91421234D01*
X60676285Y-91420073D01*
X60675904Y-91418815D01*
X60675000Y-91409638D01*
X60675000Y-90584999D01*
X60671926Y-90553785D01*
X60662821Y-90523770D01*
X60648035Y-90496108D01*
X60628137Y-90471863D01*
X60603892Y-90451965D01*
X60576230Y-90437179D01*
X60546215Y-90428074D01*
X60515001Y-90425000D01*
X59690362Y-90425000D01*
X59681185Y-90424096D01*
X59679927Y-90423715D01*
X59678766Y-90423094D01*
X59677744Y-90422256D01*
X59676906Y-90421234D01*
X59676285Y-90420073D01*
X59675904Y-90418815D01*
X59675000Y-90409638D01*
X59675000Y-90090362D01*
X59675904Y-90081185D01*
X59676285Y-90079930D01*
X59678692Y-90075426D01*
X59690696Y-90046448D01*
X59696815Y-90015686D01*
X59696816Y-89984320D01*
X59690697Y-89953558D01*
X59678692Y-89924574D01*
X59676285Y-89920070D01*
X59675904Y-89918815D01*
X59675000Y-89909638D01*
X59675000Y-89590362D01*
X59675904Y-89581185D01*
X59676285Y-89579930D01*
X59678692Y-89575426D01*
X59690696Y-89546448D01*
X59696815Y-89515686D01*
X59696816Y-89484320D01*
X59690697Y-89453558D01*
X59678692Y-89424574D01*
X59676285Y-89420070D01*
X59675904Y-89418815D01*
X59675000Y-89409638D01*
X59675000Y-89090362D01*
X59675904Y-89081185D01*
X59676285Y-89079930D01*
X59678692Y-89075426D01*
X59690696Y-89046448D01*
X59696815Y-89015686D01*
X59696816Y-88984320D01*
X59690697Y-88953558D01*
X59678692Y-88924574D01*
X59676285Y-88920070D01*
X59675904Y-88918815D01*
X59675000Y-88909638D01*
X59675000Y-88590362D01*
X59675904Y-88581185D01*
X59676285Y-88579930D01*
X59678692Y-88575426D01*
X59690696Y-88546448D01*
X59696815Y-88515686D01*
X59696816Y-88484320D01*
X59690697Y-88453558D01*
X59678692Y-88424574D01*
X59676285Y-88420070D01*
X59675904Y-88418815D01*
X59675000Y-88409638D01*
X59675000Y-88090362D01*
X59675904Y-88081185D01*
X59676285Y-88079930D01*
X59678692Y-88075426D01*
X59690696Y-88046448D01*
X59696815Y-88015686D01*
X59696816Y-87984320D01*
X59690697Y-87953558D01*
X59678692Y-87924574D01*
X59676285Y-87920070D01*
X59675904Y-87918815D01*
X59675000Y-87909638D01*
X59675000Y-87590362D01*
X59675904Y-87581185D01*
X59676285Y-87579930D01*
X59678692Y-87575426D01*
X59690696Y-87546448D01*
X59696815Y-87515686D01*
X59696816Y-87484320D01*
X59690697Y-87453558D01*
X59678692Y-87424574D01*
X59676285Y-87420070D01*
X59675904Y-87418815D01*
X59675000Y-87409638D01*
X59675000Y-87090362D01*
X59675904Y-87081185D01*
X59676285Y-87079930D01*
X59678692Y-87075426D01*
X59690696Y-87046448D01*
X59696815Y-87015686D01*
X59696816Y-86984320D01*
X59690697Y-86953558D01*
X59678692Y-86924574D01*
X59676285Y-86920070D01*
X59675904Y-86918815D01*
X59675000Y-86909638D01*
X59675000Y-86590362D01*
X59675904Y-86581185D01*
X59676285Y-86579927D01*
X59676906Y-86578766D01*
X59677744Y-86577744D01*
X59678766Y-86576906D01*
X59679927Y-86576285D01*
X59681185Y-86575904D01*
X59690362Y-86575000D01*
X60515001Y-86575000D01*
X60546215Y-86571926D01*
X60576230Y-86562821D01*
X60603892Y-86548035D01*
X60628137Y-86528137D01*
X60648035Y-86503892D01*
X60662821Y-86476230D01*
X60671926Y-86446215D01*
X60675000Y-86415001D01*
X60675000Y-85590362D01*
X60675904Y-85581185D01*
X60676285Y-85579927D01*
X60676906Y-85578766D01*
X60677744Y-85577744D01*
X60678766Y-85576906D01*
X60679927Y-85576285D01*
X60681185Y-85575904D01*
X60690362Y-85575000D01*
X61009638Y-85575000D01*
X61018815Y-85575904D01*
X61018815Y-85575904D01*
G37*
G36*
X50738215Y-90456511D02*
G01*
X50823041Y-90482243D01*
X50823044Y-90482245D01*
X50823045Y-90482245D01*
X50901215Y-90524028D01*
X50969737Y-90580263D01*
X51025972Y-90648785D01*
X51067755Y-90726955D01*
X51067757Y-90726959D01*
X51093489Y-90811785D01*
X51102177Y-90900000D01*
X51093489Y-90988215D01*
X51067757Y-91073041D01*
X51067755Y-91073044D01*
X51067755Y-91073045D01*
X51025972Y-91151215D01*
X50969737Y-91219737D01*
X50901215Y-91275972D01*
X50844840Y-91306105D01*
X50823041Y-91317757D01*
X50738215Y-91343489D01*
X50672105Y-91350000D01*
X50127895Y-91350000D01*
X50061785Y-91343489D01*
X49976959Y-91317757D01*
X49955160Y-91306105D01*
X49898785Y-91275972D01*
X49830263Y-91219737D01*
X49774028Y-91151215D01*
X49732245Y-91073045D01*
X49732245Y-91073044D01*
X49732243Y-91073041D01*
X49706511Y-90988215D01*
X49697823Y-90900000D01*
X49706511Y-90811785D01*
X49732243Y-90726959D01*
X49732245Y-90726955D01*
X49774028Y-90648785D01*
X49830263Y-90580263D01*
X49898785Y-90524028D01*
X49976955Y-90482245D01*
X49976956Y-90482245D01*
X49976959Y-90482243D01*
X50061785Y-90456511D01*
X50127895Y-90450000D01*
X50672105Y-90450000D01*
X50738215Y-90456511D01*
X50738215Y-90456511D01*
G37*
G36*
X54033138Y-89878545D02*
G01*
X54060194Y-89886753D01*
X54085126Y-89900080D01*
X54106983Y-89918017D01*
X54124920Y-89939874D01*
X54138247Y-89964806D01*
X54146455Y-89991862D01*
X54150000Y-90027862D01*
X54150000Y-90622138D01*
X54146455Y-90658138D01*
X54138247Y-90685194D01*
X54124920Y-90710126D01*
X54106983Y-90731983D01*
X54085126Y-90749920D01*
X54060194Y-90763247D01*
X54033138Y-90771455D01*
X53997138Y-90775000D01*
X52602862Y-90775000D01*
X52566862Y-90771455D01*
X52539806Y-90763247D01*
X52514874Y-90749920D01*
X52493017Y-90731983D01*
X52475080Y-90710126D01*
X52461753Y-90685194D01*
X52453545Y-90658138D01*
X52450000Y-90622138D01*
X52450000Y-90027862D01*
X52453545Y-89991862D01*
X52461753Y-89964806D01*
X52475080Y-89939874D01*
X52493017Y-89918017D01*
X52514874Y-89900080D01*
X52539806Y-89886753D01*
X52566862Y-89878545D01*
X52602862Y-89875000D01*
X53997138Y-89875000D01*
X54033138Y-89878545D01*
X54033138Y-89878545D01*
G37*
G36*
X55668040Y-89378905D02*
G01*
X55698619Y-89388181D01*
X55726791Y-89403239D01*
X55751491Y-89423509D01*
X55771761Y-89448209D01*
X55786819Y-89476381D01*
X55796095Y-89506960D01*
X55800000Y-89546605D01*
X55800000Y-90253395D01*
X55796095Y-90293040D01*
X55786819Y-90323619D01*
X55771761Y-90351791D01*
X55751491Y-90376491D01*
X55726791Y-90396761D01*
X55698619Y-90411819D01*
X55668040Y-90421095D01*
X55628395Y-90425000D01*
X54996605Y-90425000D01*
X54956960Y-90421095D01*
X54926381Y-90411819D01*
X54898209Y-90396761D01*
X54873509Y-90376491D01*
X54853239Y-90351791D01*
X54838181Y-90323619D01*
X54828905Y-90293040D01*
X54825000Y-90253395D01*
X54825000Y-89546605D01*
X54828905Y-89506960D01*
X54838181Y-89476381D01*
X54853239Y-89448209D01*
X54873509Y-89423509D01*
X54898209Y-89403239D01*
X54926381Y-89388181D01*
X54956960Y-89378905D01*
X54996605Y-89375000D01*
X55628395Y-89375000D01*
X55668040Y-89378905D01*
X55668040Y-89378905D01*
G37*
G36*
X57243040Y-89378905D02*
G01*
X57273619Y-89388181D01*
X57301791Y-89403239D01*
X57326491Y-89423509D01*
X57346761Y-89448209D01*
X57361819Y-89476381D01*
X57371095Y-89506960D01*
X57375000Y-89546605D01*
X57375000Y-90253395D01*
X57371095Y-90293040D01*
X57361819Y-90323619D01*
X57346761Y-90351791D01*
X57326491Y-90376491D01*
X57301791Y-90396761D01*
X57273619Y-90411819D01*
X57243040Y-90421095D01*
X57203395Y-90425000D01*
X56571605Y-90425000D01*
X56531960Y-90421095D01*
X56501381Y-90411819D01*
X56473209Y-90396761D01*
X56448509Y-90376491D01*
X56428239Y-90351791D01*
X56413181Y-90323619D01*
X56403905Y-90293040D01*
X56400000Y-90253395D01*
X56400000Y-89546605D01*
X56403905Y-89506960D01*
X56413181Y-89476381D01*
X56428239Y-89448209D01*
X56448509Y-89423509D01*
X56473209Y-89403239D01*
X56501381Y-89388181D01*
X56531960Y-89378905D01*
X56571605Y-89375000D01*
X57203395Y-89375000D01*
X57243040Y-89378905D01*
X57243040Y-89378905D01*
G37*
G36*
X50738215Y-89206511D02*
G01*
X50823041Y-89232243D01*
X50823044Y-89232245D01*
X50823045Y-89232245D01*
X50901215Y-89274028D01*
X50969737Y-89330263D01*
X51025972Y-89398785D01*
X51067448Y-89476381D01*
X51067757Y-89476959D01*
X51093489Y-89561785D01*
X51102177Y-89650000D01*
X51093489Y-89738215D01*
X51067757Y-89823041D01*
X51067755Y-89823044D01*
X51067755Y-89823045D01*
X51025972Y-89901215D01*
X50969737Y-89969737D01*
X50901215Y-90025972D01*
X50862907Y-90046448D01*
X50823041Y-90067757D01*
X50738215Y-90093489D01*
X50672105Y-90100000D01*
X50127895Y-90100000D01*
X50061785Y-90093489D01*
X49976959Y-90067757D01*
X49937093Y-90046448D01*
X49898785Y-90025972D01*
X49830263Y-89969737D01*
X49774028Y-89901215D01*
X49732245Y-89823045D01*
X49732245Y-89823044D01*
X49732243Y-89823041D01*
X49706511Y-89738215D01*
X49697823Y-89650000D01*
X49706511Y-89561785D01*
X49732243Y-89476959D01*
X49732552Y-89476381D01*
X49774028Y-89398785D01*
X49830263Y-89330263D01*
X49898785Y-89274028D01*
X49976955Y-89232245D01*
X49976956Y-89232245D01*
X49976959Y-89232243D01*
X50061785Y-89206511D01*
X50127895Y-89200000D01*
X50672105Y-89200000D01*
X50738215Y-89206511D01*
X50738215Y-89206511D01*
G37*
G36*
X69225000Y-89950000D02*
G01*
X67975000Y-89950000D01*
X67975000Y-88450000D01*
X69225000Y-88450000D01*
X69225000Y-89950000D01*
X69225000Y-89950000D01*
G37*
G36*
X67625000Y-89950000D02*
G01*
X66375000Y-89950000D01*
X66375000Y-88450000D01*
X67625000Y-88450000D01*
X67625000Y-89950000D01*
X67625000Y-89950000D01*
G37*
G36*
X54033138Y-88628545D02*
G01*
X54060194Y-88636753D01*
X54085126Y-88650080D01*
X54106983Y-88668017D01*
X54124920Y-88689874D01*
X54138247Y-88714806D01*
X54146455Y-88741862D01*
X54150000Y-88777862D01*
X54150000Y-89372138D01*
X54146455Y-89408138D01*
X54138247Y-89435194D01*
X54124920Y-89460126D01*
X54106983Y-89481983D01*
X54085126Y-89499920D01*
X54060194Y-89513247D01*
X54033138Y-89521455D01*
X53997138Y-89525000D01*
X52602862Y-89525000D01*
X52566862Y-89521455D01*
X52539806Y-89513247D01*
X52514874Y-89499920D01*
X52493017Y-89481983D01*
X52475080Y-89460126D01*
X52461753Y-89435194D01*
X52453545Y-89408138D01*
X52450000Y-89372138D01*
X52450000Y-88777862D01*
X52453545Y-88741862D01*
X52461753Y-88714806D01*
X52475080Y-88689874D01*
X52493017Y-88668017D01*
X52514874Y-88650080D01*
X52539806Y-88636753D01*
X52566862Y-88628545D01*
X52602862Y-88625000D01*
X53997138Y-88625000D01*
X54033138Y-88628545D01*
X54033138Y-88628545D01*
G37*
G36*
X57243040Y-87978905D02*
G01*
X57273619Y-87988181D01*
X57301791Y-88003239D01*
X57326491Y-88023509D01*
X57346761Y-88048209D01*
X57361819Y-88076381D01*
X57371095Y-88106960D01*
X57375000Y-88146605D01*
X57375000Y-88853395D01*
X57371095Y-88893040D01*
X57361819Y-88923619D01*
X57346761Y-88951791D01*
X57326491Y-88976491D01*
X57301791Y-88996761D01*
X57273619Y-89011819D01*
X57243040Y-89021095D01*
X57203395Y-89025000D01*
X56571605Y-89025000D01*
X56531960Y-89021095D01*
X56501381Y-89011819D01*
X56473209Y-88996761D01*
X56448509Y-88976491D01*
X56428239Y-88951791D01*
X56413181Y-88923619D01*
X56403905Y-88893040D01*
X56400000Y-88853395D01*
X56400000Y-88146605D01*
X56403905Y-88106960D01*
X56413181Y-88076381D01*
X56428239Y-88048209D01*
X56448509Y-88023509D01*
X56473209Y-88003239D01*
X56501381Y-87988181D01*
X56531960Y-87978905D01*
X56571605Y-87975000D01*
X57203395Y-87975000D01*
X57243040Y-87978905D01*
X57243040Y-87978905D01*
G37*
G36*
X55668040Y-87978905D02*
G01*
X55698619Y-87988181D01*
X55726791Y-88003239D01*
X55751491Y-88023509D01*
X55771761Y-88048209D01*
X55786819Y-88076381D01*
X55796095Y-88106960D01*
X55800000Y-88146605D01*
X55800000Y-88853395D01*
X55796095Y-88893040D01*
X55786819Y-88923619D01*
X55771761Y-88951791D01*
X55751491Y-88976491D01*
X55726791Y-88996761D01*
X55698619Y-89011819D01*
X55668040Y-89021095D01*
X55628395Y-89025000D01*
X54996605Y-89025000D01*
X54956960Y-89021095D01*
X54926381Y-89011819D01*
X54898209Y-88996761D01*
X54873509Y-88976491D01*
X54853239Y-88951791D01*
X54838181Y-88923619D01*
X54828905Y-88893040D01*
X54825000Y-88853395D01*
X54825000Y-88146605D01*
X54828905Y-88106960D01*
X54838181Y-88076381D01*
X54853239Y-88048209D01*
X54873509Y-88023509D01*
X54898209Y-88003239D01*
X54926381Y-87988181D01*
X54956960Y-87978905D01*
X54996605Y-87975000D01*
X55628395Y-87975000D01*
X55668040Y-87978905D01*
X55668040Y-87978905D01*
G37*
G36*
X50983138Y-87953545D02*
G01*
X51010194Y-87961753D01*
X51035126Y-87975080D01*
X51056983Y-87993017D01*
X51074920Y-88014874D01*
X51088247Y-88039806D01*
X51096455Y-88066862D01*
X51100000Y-88102862D01*
X51100000Y-88697138D01*
X51096455Y-88733138D01*
X51088247Y-88760194D01*
X51074920Y-88785126D01*
X51056983Y-88806983D01*
X51035126Y-88824920D01*
X51010194Y-88838247D01*
X50983138Y-88846455D01*
X50947138Y-88850000D01*
X49852862Y-88850000D01*
X49816862Y-88846455D01*
X49789806Y-88838247D01*
X49764874Y-88824920D01*
X49743017Y-88806983D01*
X49725080Y-88785126D01*
X49711753Y-88760194D01*
X49703545Y-88733138D01*
X49700000Y-88697138D01*
X49700000Y-88102862D01*
X49703545Y-88066862D01*
X49711753Y-88039806D01*
X49725080Y-88014874D01*
X49743017Y-87993017D01*
X49764874Y-87975080D01*
X49789806Y-87961753D01*
X49816862Y-87953545D01*
X49852862Y-87950000D01*
X50947138Y-87950000D01*
X50983138Y-87953545D01*
X50983138Y-87953545D01*
G37*
G36*
X69118040Y-86878905D02*
G01*
X69148619Y-86888181D01*
X69176791Y-86903239D01*
X69201491Y-86923509D01*
X69221761Y-86948209D01*
X69236819Y-86976381D01*
X69246095Y-87006960D01*
X69250000Y-87046605D01*
X69250000Y-87753395D01*
X69246095Y-87793040D01*
X69236819Y-87823619D01*
X69221761Y-87851791D01*
X69201491Y-87876491D01*
X69176791Y-87896761D01*
X69148619Y-87911819D01*
X69118040Y-87921095D01*
X69078395Y-87925000D01*
X68446605Y-87925000D01*
X68406960Y-87921095D01*
X68376381Y-87911819D01*
X68348209Y-87896761D01*
X68323509Y-87876491D01*
X68303239Y-87851791D01*
X68288181Y-87823619D01*
X68278905Y-87793040D01*
X68275000Y-87753395D01*
X68275000Y-87046605D01*
X68278905Y-87006960D01*
X68288181Y-86976381D01*
X68303239Y-86948209D01*
X68323509Y-86923509D01*
X68348209Y-86903239D01*
X68376381Y-86888181D01*
X68406960Y-86878905D01*
X68446605Y-86875000D01*
X69078395Y-86875000D01*
X69118040Y-86878905D01*
X69118040Y-86878905D01*
G37*
G36*
X67543040Y-86878905D02*
G01*
X67573619Y-86888181D01*
X67601791Y-86903239D01*
X67626491Y-86923509D01*
X67646761Y-86948209D01*
X67661819Y-86976381D01*
X67671095Y-87006960D01*
X67675000Y-87046605D01*
X67675000Y-87753395D01*
X67671095Y-87793040D01*
X67661819Y-87823619D01*
X67646761Y-87851791D01*
X67626491Y-87876491D01*
X67601791Y-87896761D01*
X67573619Y-87911819D01*
X67543040Y-87921095D01*
X67503395Y-87925000D01*
X66871605Y-87925000D01*
X66831960Y-87921095D01*
X66801381Y-87911819D01*
X66773209Y-87896761D01*
X66748509Y-87876491D01*
X66728239Y-87851791D01*
X66713181Y-87823619D01*
X66703905Y-87793040D01*
X66700000Y-87753395D01*
X66700000Y-87046605D01*
X66703905Y-87006960D01*
X66713181Y-86976381D01*
X66728239Y-86948209D01*
X66748509Y-86923509D01*
X66773209Y-86903239D01*
X66801381Y-86888181D01*
X66831960Y-86878905D01*
X66871605Y-86875000D01*
X67503395Y-86875000D01*
X67543040Y-86878905D01*
X67543040Y-86878905D01*
G37*
G36*
X51837164Y-85428450D02*
G01*
X51863280Y-85436372D01*
X51887348Y-85449237D01*
X51908447Y-85466553D01*
X51925763Y-85487652D01*
X51938628Y-85511720D01*
X51946550Y-85537836D01*
X51950000Y-85572865D01*
X51950000Y-87477135D01*
X51946550Y-87512164D01*
X51938628Y-87538280D01*
X51925763Y-87562348D01*
X51908447Y-87583447D01*
X51887348Y-87600763D01*
X51863280Y-87613628D01*
X51837164Y-87621550D01*
X51802135Y-87625000D01*
X48997865Y-87625000D01*
X48962836Y-87621550D01*
X48936720Y-87613628D01*
X48912652Y-87600763D01*
X48891553Y-87583447D01*
X48874237Y-87562348D01*
X48861372Y-87538280D01*
X48853450Y-87512164D01*
X48850000Y-87477135D01*
X48850000Y-85572865D01*
X48853450Y-85537836D01*
X48861372Y-85511720D01*
X48874237Y-85487652D01*
X48891553Y-85466553D01*
X48912652Y-85449237D01*
X48936720Y-85436372D01*
X48962836Y-85428450D01*
X48997865Y-85425000D01*
X51802135Y-85425000D01*
X51837164Y-85428450D01*
X51837164Y-85428450D01*
G37*
G36*
X57243040Y-86578905D02*
G01*
X57273619Y-86588181D01*
X57301791Y-86603239D01*
X57326491Y-86623509D01*
X57346761Y-86648209D01*
X57361819Y-86676381D01*
X57371095Y-86706960D01*
X57375000Y-86746605D01*
X57375000Y-87453395D01*
X57371095Y-87493040D01*
X57361819Y-87523619D01*
X57346761Y-87551791D01*
X57326491Y-87576491D01*
X57301791Y-87596761D01*
X57273619Y-87611819D01*
X57243040Y-87621095D01*
X57203395Y-87625000D01*
X56571605Y-87625000D01*
X56531960Y-87621095D01*
X56501381Y-87611819D01*
X56473209Y-87596761D01*
X56448509Y-87576491D01*
X56428239Y-87551791D01*
X56413181Y-87523619D01*
X56403905Y-87493040D01*
X56400000Y-87453395D01*
X56400000Y-86746605D01*
X56403905Y-86706960D01*
X56413181Y-86676381D01*
X56428239Y-86648209D01*
X56448509Y-86623509D01*
X56473209Y-86603239D01*
X56501381Y-86588181D01*
X56531960Y-86578905D01*
X56571605Y-86575000D01*
X57203395Y-86575000D01*
X57243040Y-86578905D01*
X57243040Y-86578905D01*
G37*
G36*
X55668040Y-86578905D02*
G01*
X55698619Y-86588181D01*
X55726791Y-86603239D01*
X55751491Y-86623509D01*
X55771761Y-86648209D01*
X55786819Y-86676381D01*
X55796095Y-86706960D01*
X55800000Y-86746605D01*
X55800000Y-87453395D01*
X55796095Y-87493040D01*
X55786819Y-87523619D01*
X55771761Y-87551791D01*
X55751491Y-87576491D01*
X55726791Y-87596761D01*
X55698619Y-87611819D01*
X55668040Y-87621095D01*
X55628395Y-87625000D01*
X54996605Y-87625000D01*
X54956960Y-87621095D01*
X54926381Y-87611819D01*
X54898209Y-87596761D01*
X54873509Y-87576491D01*
X54853239Y-87551791D01*
X54838181Y-87523619D01*
X54828905Y-87493040D01*
X54825000Y-87453395D01*
X54825000Y-86746605D01*
X54828905Y-86706960D01*
X54838181Y-86676381D01*
X54853239Y-86648209D01*
X54873509Y-86623509D01*
X54898209Y-86603239D01*
X54926381Y-86588181D01*
X54956960Y-86578905D01*
X54996605Y-86575000D01*
X55628395Y-86575000D01*
X55668040Y-86578905D01*
X55668040Y-86578905D01*
G37*
G36*
X69143040Y-85478905D02*
G01*
X69173619Y-85488181D01*
X69201791Y-85503239D01*
X69226491Y-85523509D01*
X69246761Y-85548209D01*
X69261819Y-85576381D01*
X69271095Y-85606960D01*
X69275000Y-85646605D01*
X69275000Y-86353395D01*
X69271095Y-86393040D01*
X69261819Y-86423619D01*
X69246761Y-86451791D01*
X69226491Y-86476491D01*
X69201791Y-86496761D01*
X69173619Y-86511819D01*
X69143040Y-86521095D01*
X69103395Y-86525000D01*
X68471605Y-86525000D01*
X68431960Y-86521095D01*
X68401381Y-86511819D01*
X68373209Y-86496761D01*
X68348509Y-86476491D01*
X68328239Y-86451791D01*
X68313181Y-86423619D01*
X68303905Y-86393040D01*
X68300000Y-86353395D01*
X68300000Y-85646605D01*
X68303905Y-85606960D01*
X68313181Y-85576381D01*
X68328239Y-85548209D01*
X68348509Y-85523509D01*
X68373209Y-85503239D01*
X68401381Y-85488181D01*
X68431960Y-85478905D01*
X68471605Y-85475000D01*
X69103395Y-85475000D01*
X69143040Y-85478905D01*
X69143040Y-85478905D01*
G37*
G36*
X67568040Y-85478905D02*
G01*
X67598619Y-85488181D01*
X67626791Y-85503239D01*
X67651491Y-85523509D01*
X67671761Y-85548209D01*
X67686819Y-85576381D01*
X67696095Y-85606960D01*
X67700000Y-85646605D01*
X67700000Y-86353395D01*
X67696095Y-86393040D01*
X67686819Y-86423619D01*
X67671761Y-86451791D01*
X67651491Y-86476491D01*
X67626791Y-86496761D01*
X67598619Y-86511819D01*
X67568040Y-86521095D01*
X67528395Y-86525000D01*
X66896605Y-86525000D01*
X66856960Y-86521095D01*
X66826381Y-86511819D01*
X66798209Y-86496761D01*
X66773509Y-86476491D01*
X66753239Y-86451791D01*
X66738181Y-86423619D01*
X66728905Y-86393040D01*
X66725000Y-86353395D01*
X66725000Y-85646605D01*
X66728905Y-85606960D01*
X66738181Y-85576381D01*
X66753239Y-85548209D01*
X66773509Y-85523509D01*
X66798209Y-85503239D01*
X66826381Y-85488181D01*
X66856960Y-85478905D01*
X66896605Y-85475000D01*
X67528395Y-85475000D01*
X67568040Y-85478905D01*
X67568040Y-85478905D01*
G37*
G36*
X57243040Y-85178905D02*
G01*
X57273619Y-85188181D01*
X57301791Y-85203239D01*
X57326491Y-85223509D01*
X57346761Y-85248209D01*
X57361819Y-85276381D01*
X57371095Y-85306960D01*
X57375000Y-85346605D01*
X57375000Y-86053395D01*
X57371095Y-86093040D01*
X57361819Y-86123619D01*
X57346761Y-86151791D01*
X57326491Y-86176491D01*
X57301791Y-86196761D01*
X57273619Y-86211819D01*
X57243040Y-86221095D01*
X57203395Y-86225000D01*
X56571605Y-86225000D01*
X56531960Y-86221095D01*
X56501381Y-86211819D01*
X56473209Y-86196761D01*
X56448509Y-86176491D01*
X56428239Y-86151791D01*
X56413181Y-86123619D01*
X56403905Y-86093040D01*
X56400000Y-86053395D01*
X56400000Y-85346605D01*
X56403905Y-85306960D01*
X56413181Y-85276381D01*
X56428239Y-85248209D01*
X56448509Y-85223509D01*
X56473209Y-85203239D01*
X56501381Y-85188181D01*
X56531960Y-85178905D01*
X56571605Y-85175000D01*
X57203395Y-85175000D01*
X57243040Y-85178905D01*
X57243040Y-85178905D01*
G37*
G36*
X55668040Y-85178905D02*
G01*
X55698619Y-85188181D01*
X55726791Y-85203239D01*
X55751491Y-85223509D01*
X55771761Y-85248209D01*
X55786819Y-85276381D01*
X55796095Y-85306960D01*
X55800000Y-85346605D01*
X55800000Y-86053395D01*
X55796095Y-86093040D01*
X55786819Y-86123619D01*
X55771761Y-86151791D01*
X55751491Y-86176491D01*
X55726791Y-86196761D01*
X55698619Y-86211819D01*
X55668040Y-86221095D01*
X55628395Y-86225000D01*
X54996605Y-86225000D01*
X54956960Y-86221095D01*
X54926381Y-86211819D01*
X54898209Y-86196761D01*
X54873509Y-86176491D01*
X54853239Y-86151791D01*
X54838181Y-86123619D01*
X54828905Y-86093040D01*
X54825000Y-86053395D01*
X54825000Y-85346605D01*
X54828905Y-85306960D01*
X54838181Y-85276381D01*
X54853239Y-85248209D01*
X54873509Y-85223509D01*
X54898209Y-85203239D01*
X54926381Y-85188181D01*
X54956960Y-85178905D01*
X54996605Y-85175000D01*
X55628395Y-85175000D01*
X55668040Y-85178905D01*
X55668040Y-85178905D01*
G37*
G36*
X54293040Y-85103905D02*
G01*
X54323619Y-85113181D01*
X54351791Y-85128239D01*
X54376491Y-85148509D01*
X54396761Y-85173209D01*
X54411819Y-85201381D01*
X54421095Y-85231960D01*
X54425000Y-85271605D01*
X54425000Y-85903395D01*
X54421095Y-85943040D01*
X54411819Y-85973619D01*
X54396761Y-86001791D01*
X54376491Y-86026491D01*
X54351791Y-86046761D01*
X54323619Y-86061819D01*
X54293040Y-86071095D01*
X54253395Y-86075000D01*
X53546605Y-86075000D01*
X53506960Y-86071095D01*
X53476381Y-86061819D01*
X53448209Y-86046761D01*
X53423509Y-86026491D01*
X53403239Y-86001791D01*
X53388181Y-85973619D01*
X53378905Y-85943040D01*
X53375000Y-85903395D01*
X53375000Y-85271605D01*
X53378905Y-85231960D01*
X53388181Y-85201381D01*
X53403239Y-85173209D01*
X53423509Y-85148509D01*
X53448209Y-85128239D01*
X53476381Y-85113181D01*
X53506960Y-85103905D01*
X53546605Y-85100000D01*
X54253395Y-85100000D01*
X54293040Y-85103905D01*
X54293040Y-85103905D01*
G37*
G36*
X69143040Y-84078905D02*
G01*
X69173619Y-84088181D01*
X69201791Y-84103239D01*
X69226491Y-84123509D01*
X69246761Y-84148209D01*
X69261819Y-84176381D01*
X69271095Y-84206960D01*
X69275000Y-84246605D01*
X69275000Y-84953395D01*
X69271095Y-84993040D01*
X69261819Y-85023619D01*
X69246761Y-85051791D01*
X69226491Y-85076491D01*
X69201791Y-85096761D01*
X69173619Y-85111819D01*
X69143040Y-85121095D01*
X69103395Y-85125000D01*
X68471605Y-85125000D01*
X68431960Y-85121095D01*
X68401381Y-85111819D01*
X68373209Y-85096761D01*
X68348509Y-85076491D01*
X68328239Y-85051791D01*
X68313181Y-85023619D01*
X68303905Y-84993040D01*
X68300000Y-84953395D01*
X68300000Y-84246605D01*
X68303905Y-84206960D01*
X68313181Y-84176381D01*
X68328239Y-84148209D01*
X68348509Y-84123509D01*
X68373209Y-84103239D01*
X68401381Y-84088181D01*
X68431960Y-84078905D01*
X68471605Y-84075000D01*
X69103395Y-84075000D01*
X69143040Y-84078905D01*
X69143040Y-84078905D01*
G37*
G36*
X67568040Y-84078905D02*
G01*
X67598619Y-84088181D01*
X67626791Y-84103239D01*
X67651491Y-84123509D01*
X67671761Y-84148209D01*
X67686819Y-84176381D01*
X67696095Y-84206960D01*
X67700000Y-84246605D01*
X67700000Y-84953395D01*
X67696095Y-84993040D01*
X67686819Y-85023619D01*
X67671761Y-85051791D01*
X67651491Y-85076491D01*
X67626791Y-85096761D01*
X67598619Y-85111819D01*
X67568040Y-85121095D01*
X67528395Y-85125000D01*
X66896605Y-85125000D01*
X66856960Y-85121095D01*
X66826381Y-85111819D01*
X66798209Y-85096761D01*
X66773509Y-85076491D01*
X66753239Y-85051791D01*
X66738181Y-85023619D01*
X66728905Y-84993040D01*
X66725000Y-84953395D01*
X66725000Y-84246605D01*
X66728905Y-84206960D01*
X66738181Y-84176381D01*
X66753239Y-84148209D01*
X66773509Y-84123509D01*
X66798209Y-84103239D01*
X66826381Y-84088181D01*
X66856960Y-84078905D01*
X66896605Y-84075000D01*
X67528395Y-84075000D01*
X67568040Y-84078905D01*
X67568040Y-84078905D01*
G37*
G36*
X60068040Y-83803905D02*
G01*
X60098619Y-83813181D01*
X60126791Y-83828239D01*
X60151491Y-83848509D01*
X60171761Y-83873209D01*
X60186819Y-83901381D01*
X60196095Y-83931960D01*
X60200000Y-83971605D01*
X60200000Y-84678395D01*
X60196095Y-84718040D01*
X60186819Y-84748619D01*
X60171761Y-84776791D01*
X60151491Y-84801491D01*
X60126791Y-84821761D01*
X60098619Y-84836819D01*
X60068040Y-84846095D01*
X60028395Y-84850000D01*
X59396605Y-84850000D01*
X59356960Y-84846095D01*
X59326381Y-84836819D01*
X59298209Y-84821761D01*
X59273509Y-84801491D01*
X59253239Y-84776791D01*
X59238181Y-84748619D01*
X59228905Y-84718040D01*
X59225000Y-84678395D01*
X59225000Y-83971605D01*
X59228905Y-83931960D01*
X59238181Y-83901381D01*
X59253239Y-83873209D01*
X59273509Y-83848509D01*
X59298209Y-83828239D01*
X59326381Y-83813181D01*
X59356960Y-83803905D01*
X59396605Y-83800000D01*
X60028395Y-83800000D01*
X60068040Y-83803905D01*
X60068040Y-83803905D01*
G37*
G36*
X61643040Y-83803905D02*
G01*
X61673619Y-83813181D01*
X61701791Y-83828239D01*
X61726491Y-83848509D01*
X61746761Y-83873209D01*
X61761819Y-83901381D01*
X61771095Y-83931960D01*
X61775000Y-83971605D01*
X61775000Y-84678395D01*
X61771095Y-84718040D01*
X61761819Y-84748619D01*
X61746761Y-84776791D01*
X61726491Y-84801491D01*
X61701791Y-84821761D01*
X61673619Y-84836819D01*
X61643040Y-84846095D01*
X61603395Y-84850000D01*
X60971605Y-84850000D01*
X60931960Y-84846095D01*
X60901381Y-84836819D01*
X60873209Y-84821761D01*
X60848509Y-84801491D01*
X60828239Y-84776791D01*
X60813181Y-84748619D01*
X60803905Y-84718040D01*
X60800000Y-84678395D01*
X60800000Y-83971605D01*
X60803905Y-83931960D01*
X60813181Y-83901381D01*
X60828239Y-83873209D01*
X60848509Y-83848509D01*
X60873209Y-83828239D01*
X60901381Y-83813181D01*
X60931960Y-83803905D01*
X60971605Y-83800000D01*
X61603395Y-83800000D01*
X61643040Y-83803905D01*
X61643040Y-83803905D01*
G37*
G36*
X57243040Y-83778905D02*
G01*
X57273619Y-83788181D01*
X57301791Y-83803239D01*
X57326491Y-83823509D01*
X57346761Y-83848209D01*
X57361819Y-83876381D01*
X57371095Y-83906960D01*
X57375000Y-83946605D01*
X57375000Y-84653395D01*
X57371095Y-84693040D01*
X57361819Y-84723619D01*
X57346761Y-84751791D01*
X57326491Y-84776491D01*
X57301791Y-84796761D01*
X57273619Y-84811819D01*
X57243040Y-84821095D01*
X57203395Y-84825000D01*
X56571605Y-84825000D01*
X56531960Y-84821095D01*
X56501381Y-84811819D01*
X56473209Y-84796761D01*
X56448509Y-84776491D01*
X56428239Y-84751791D01*
X56413181Y-84723619D01*
X56403905Y-84693040D01*
X56400000Y-84653395D01*
X56400000Y-83946605D01*
X56403905Y-83906960D01*
X56413181Y-83876381D01*
X56428239Y-83848209D01*
X56448509Y-83823509D01*
X56473209Y-83803239D01*
X56501381Y-83788181D01*
X56531960Y-83778905D01*
X56571605Y-83775000D01*
X57203395Y-83775000D01*
X57243040Y-83778905D01*
X57243040Y-83778905D01*
G37*
G36*
X55668040Y-83778905D02*
G01*
X55698619Y-83788181D01*
X55726791Y-83803239D01*
X55751491Y-83823509D01*
X55771761Y-83848209D01*
X55786819Y-83876381D01*
X55796095Y-83906960D01*
X55800000Y-83946605D01*
X55800000Y-84653395D01*
X55796095Y-84693040D01*
X55786819Y-84723619D01*
X55771761Y-84751791D01*
X55751491Y-84776491D01*
X55726791Y-84796761D01*
X55698619Y-84811819D01*
X55668040Y-84821095D01*
X55628395Y-84825000D01*
X54996605Y-84825000D01*
X54956960Y-84821095D01*
X54926381Y-84811819D01*
X54898209Y-84796761D01*
X54873509Y-84776491D01*
X54853239Y-84751791D01*
X54838181Y-84723619D01*
X54828905Y-84693040D01*
X54825000Y-84653395D01*
X54825000Y-83946605D01*
X54828905Y-83906960D01*
X54838181Y-83876381D01*
X54853239Y-83848209D01*
X54873509Y-83823509D01*
X54898209Y-83803239D01*
X54926381Y-83788181D01*
X54956960Y-83778905D01*
X54996605Y-83775000D01*
X55628395Y-83775000D01*
X55668040Y-83778905D01*
X55668040Y-83778905D01*
G37*
G36*
X54293040Y-83528905D02*
G01*
X54323619Y-83538181D01*
X54351791Y-83553239D01*
X54376491Y-83573509D01*
X54396761Y-83598209D01*
X54411819Y-83626381D01*
X54421095Y-83656960D01*
X54425000Y-83696605D01*
X54425000Y-84328395D01*
X54421095Y-84368040D01*
X54411819Y-84398619D01*
X54396761Y-84426791D01*
X54376491Y-84451491D01*
X54351791Y-84471761D01*
X54323619Y-84486819D01*
X54293040Y-84496095D01*
X54253395Y-84500000D01*
X53546605Y-84500000D01*
X53506960Y-84496095D01*
X53476381Y-84486819D01*
X53448209Y-84471761D01*
X53423509Y-84451491D01*
X53403239Y-84426791D01*
X53388181Y-84398619D01*
X53378905Y-84368040D01*
X53375000Y-84328395D01*
X53375000Y-83696605D01*
X53378905Y-83656960D01*
X53388181Y-83626381D01*
X53403239Y-83598209D01*
X53423509Y-83573509D01*
X53448209Y-83553239D01*
X53476381Y-83538181D01*
X53506960Y-83528905D01*
X53546605Y-83525000D01*
X54253395Y-83525000D01*
X54293040Y-83528905D01*
X54293040Y-83528905D01*
G37*
G36*
X51837164Y-81828450D02*
G01*
X51863280Y-81836372D01*
X51887348Y-81849237D01*
X51908447Y-81866553D01*
X51925763Y-81887652D01*
X51938628Y-81911720D01*
X51946550Y-81937836D01*
X51950000Y-81972865D01*
X51950000Y-83877135D01*
X51946550Y-83912164D01*
X51938628Y-83938280D01*
X51925763Y-83962348D01*
X51908447Y-83983447D01*
X51887348Y-84000763D01*
X51863280Y-84013628D01*
X51837164Y-84021550D01*
X51802135Y-84025000D01*
X48997865Y-84025000D01*
X48962836Y-84021550D01*
X48936720Y-84013628D01*
X48912652Y-84000763D01*
X48891553Y-83983447D01*
X48874237Y-83962348D01*
X48861372Y-83938280D01*
X48853450Y-83912164D01*
X48850000Y-83877135D01*
X48850000Y-81972865D01*
X48853450Y-81937836D01*
X48861372Y-81911720D01*
X48874237Y-81887652D01*
X48891553Y-81866553D01*
X48912652Y-81849237D01*
X48936720Y-81836372D01*
X48962836Y-81828450D01*
X48997865Y-81825000D01*
X51802135Y-81825000D01*
X51837164Y-81828450D01*
X51837164Y-81828450D01*
G37*
G36*
X57243040Y-82328905D02*
G01*
X57273619Y-82338181D01*
X57301791Y-82353239D01*
X57326491Y-82373509D01*
X57346761Y-82398209D01*
X57361819Y-82426381D01*
X57371095Y-82456960D01*
X57375000Y-82496605D01*
X57375000Y-83203395D01*
X57371095Y-83243040D01*
X57361819Y-83273619D01*
X57346761Y-83301791D01*
X57326491Y-83326491D01*
X57301791Y-83346761D01*
X57273619Y-83361819D01*
X57243040Y-83371095D01*
X57203395Y-83375000D01*
X56571605Y-83375000D01*
X56531960Y-83371095D01*
X56501381Y-83361819D01*
X56473209Y-83346761D01*
X56448509Y-83326491D01*
X56428239Y-83301791D01*
X56413181Y-83273619D01*
X56403905Y-83243040D01*
X56400000Y-83203395D01*
X56400000Y-82496605D01*
X56403905Y-82456960D01*
X56413181Y-82426381D01*
X56428239Y-82398209D01*
X56448509Y-82373509D01*
X56473209Y-82353239D01*
X56501381Y-82338181D01*
X56531960Y-82328905D01*
X56571605Y-82325000D01*
X57203395Y-82325000D01*
X57243040Y-82328905D01*
X57243040Y-82328905D01*
G37*
G36*
X55668040Y-82328905D02*
G01*
X55698619Y-82338181D01*
X55726791Y-82353239D01*
X55751491Y-82373509D01*
X55771761Y-82398209D01*
X55786819Y-82426381D01*
X55796095Y-82456960D01*
X55800000Y-82496605D01*
X55800000Y-83203395D01*
X55796095Y-83243040D01*
X55786819Y-83273619D01*
X55771761Y-83301791D01*
X55751491Y-83326491D01*
X55726791Y-83346761D01*
X55698619Y-83361819D01*
X55668040Y-83371095D01*
X55628395Y-83375000D01*
X54996605Y-83375000D01*
X54956960Y-83371095D01*
X54926381Y-83361819D01*
X54898209Y-83346761D01*
X54873509Y-83326491D01*
X54853239Y-83301791D01*
X54838181Y-83273619D01*
X54828905Y-83243040D01*
X54825000Y-83203395D01*
X54825000Y-82496605D01*
X54828905Y-82456960D01*
X54838181Y-82426381D01*
X54853239Y-82398209D01*
X54873509Y-82373509D01*
X54898209Y-82353239D01*
X54926381Y-82338181D01*
X54956960Y-82328905D01*
X54996605Y-82325000D01*
X55628395Y-82325000D01*
X55668040Y-82328905D01*
X55668040Y-82328905D01*
G37*
G36*
X60068040Y-81978905D02*
G01*
X60098619Y-81988181D01*
X60126791Y-82003239D01*
X60151491Y-82023509D01*
X60171761Y-82048209D01*
X60186819Y-82076381D01*
X60196095Y-82106960D01*
X60200000Y-82146605D01*
X60200000Y-82853395D01*
X60196095Y-82893040D01*
X60186819Y-82923619D01*
X60171761Y-82951791D01*
X60151491Y-82976491D01*
X60126791Y-82996761D01*
X60098619Y-83011819D01*
X60068040Y-83021095D01*
X60028395Y-83025000D01*
X59396605Y-83025000D01*
X59356960Y-83021095D01*
X59326381Y-83011819D01*
X59298209Y-82996761D01*
X59273509Y-82976491D01*
X59253239Y-82951791D01*
X59238181Y-82923619D01*
X59228905Y-82893040D01*
X59225000Y-82853395D01*
X59225000Y-82146605D01*
X59228905Y-82106960D01*
X59238181Y-82076381D01*
X59253239Y-82048209D01*
X59273509Y-82023509D01*
X59298209Y-82003239D01*
X59326381Y-81988181D01*
X59356960Y-81978905D01*
X59396605Y-81975000D01*
X60028395Y-81975000D01*
X60068040Y-81978905D01*
X60068040Y-81978905D01*
G37*
G36*
X61643040Y-81978905D02*
G01*
X61673619Y-81988181D01*
X61701791Y-82003239D01*
X61726491Y-82023509D01*
X61746761Y-82048209D01*
X61761819Y-82076381D01*
X61771095Y-82106960D01*
X61775000Y-82146605D01*
X61775000Y-82853395D01*
X61771095Y-82893040D01*
X61761819Y-82923619D01*
X61746761Y-82951791D01*
X61726491Y-82976491D01*
X61701791Y-82996761D01*
X61673619Y-83011819D01*
X61643040Y-83021095D01*
X61603395Y-83025000D01*
X60971605Y-83025000D01*
X60931960Y-83021095D01*
X60901381Y-83011819D01*
X60873209Y-82996761D01*
X60848509Y-82976491D01*
X60828239Y-82951791D01*
X60813181Y-82923619D01*
X60803905Y-82893040D01*
X60800000Y-82853395D01*
X60800000Y-82146605D01*
X60803905Y-82106960D01*
X60813181Y-82076381D01*
X60828239Y-82048209D01*
X60848509Y-82023509D01*
X60873209Y-82003239D01*
X60901381Y-81988181D01*
X60931960Y-81978905D01*
X60971605Y-81975000D01*
X61603395Y-81975000D01*
X61643040Y-81978905D01*
X61643040Y-81978905D01*
G37*
G36*
X69100000Y-82700000D02*
G01*
X67300000Y-82700000D01*
X67300000Y-80900000D01*
X69100000Y-80900000D01*
X69100000Y-82700000D01*
X69100000Y-82700000D01*
G37*
G36*
X65500000Y-82700000D02*
G01*
X63700000Y-82700000D01*
X63700000Y-80900000D01*
X65500000Y-80900000D01*
X65500000Y-82700000D01*
X65500000Y-82700000D01*
G37*
G36*
X61643040Y-80528905D02*
G01*
X61673619Y-80538181D01*
X61701791Y-80553239D01*
X61726491Y-80573509D01*
X61746761Y-80598209D01*
X61761819Y-80626381D01*
X61771095Y-80656960D01*
X61775000Y-80696605D01*
X61775000Y-81403395D01*
X61771095Y-81443040D01*
X61761819Y-81473619D01*
X61746761Y-81501791D01*
X61726491Y-81526491D01*
X61701791Y-81546761D01*
X61673619Y-81561819D01*
X61643040Y-81571095D01*
X61603395Y-81575000D01*
X60971605Y-81575000D01*
X60931960Y-81571095D01*
X60901381Y-81561819D01*
X60873209Y-81546761D01*
X60848509Y-81526491D01*
X60828239Y-81501791D01*
X60813181Y-81473619D01*
X60803905Y-81443040D01*
X60800000Y-81403395D01*
X60800000Y-80696605D01*
X60803905Y-80656960D01*
X60813181Y-80626381D01*
X60828239Y-80598209D01*
X60848509Y-80573509D01*
X60873209Y-80553239D01*
X60901381Y-80538181D01*
X60931960Y-80528905D01*
X60971605Y-80525000D01*
X61603395Y-80525000D01*
X61643040Y-80528905D01*
X61643040Y-80528905D01*
G37*
G36*
X60068040Y-80528905D02*
G01*
X60098619Y-80538181D01*
X60126791Y-80553239D01*
X60151491Y-80573509D01*
X60171761Y-80598209D01*
X60186819Y-80626381D01*
X60196095Y-80656960D01*
X60200000Y-80696605D01*
X60200000Y-81403395D01*
X60196095Y-81443040D01*
X60186819Y-81473619D01*
X60171761Y-81501791D01*
X60151491Y-81526491D01*
X60126791Y-81546761D01*
X60098619Y-81561819D01*
X60068040Y-81571095D01*
X60028395Y-81575000D01*
X59396605Y-81575000D01*
X59356960Y-81571095D01*
X59326381Y-81561819D01*
X59298209Y-81546761D01*
X59273509Y-81526491D01*
X59253239Y-81501791D01*
X59238181Y-81473619D01*
X59228905Y-81443040D01*
X59225000Y-81403395D01*
X59225000Y-80696605D01*
X59228905Y-80656960D01*
X59238181Y-80626381D01*
X59253239Y-80598209D01*
X59273509Y-80573509D01*
X59298209Y-80553239D01*
X59326381Y-80538181D01*
X59356960Y-80528905D01*
X59396605Y-80525000D01*
X60028395Y-80525000D01*
X60068040Y-80528905D01*
X60068040Y-80528905D01*
G37*
G36*
X58330000Y-81530000D02*
G01*
X55870000Y-81530000D01*
X55870000Y-80370000D01*
X58330000Y-80370000D01*
X58330000Y-81530000D01*
X58330000Y-81530000D01*
G37*
G36*
X54033138Y-79928545D02*
G01*
X54060194Y-79936753D01*
X54085126Y-79950080D01*
X54106983Y-79968017D01*
X54124920Y-79989874D01*
X54138247Y-80014806D01*
X54146455Y-80041862D01*
X54150000Y-80077862D01*
X54150000Y-80672138D01*
X54146455Y-80708138D01*
X54138247Y-80735194D01*
X54124920Y-80760126D01*
X54106983Y-80781983D01*
X54085126Y-80799920D01*
X54060194Y-80813247D01*
X54033138Y-80821455D01*
X53997138Y-80825000D01*
X52602862Y-80825000D01*
X52566862Y-80821455D01*
X52539806Y-80813247D01*
X52514874Y-80799920D01*
X52493017Y-80781983D01*
X52475080Y-80760126D01*
X52461753Y-80735194D01*
X52453545Y-80708138D01*
X52450000Y-80672138D01*
X52450000Y-80077862D01*
X52453545Y-80041862D01*
X52461753Y-80014806D01*
X52475080Y-79989874D01*
X52493017Y-79968017D01*
X52514874Y-79950080D01*
X52539806Y-79936753D01*
X52566862Y-79928545D01*
X52602862Y-79925000D01*
X53997138Y-79925000D01*
X54033138Y-79928545D01*
X54033138Y-79928545D01*
G37*
G36*
X68376431Y-78373023D02*
G01*
X68376433Y-78373024D01*
X68376436Y-78373024D01*
X68546076Y-78424484D01*
X68546078Y-78424485D01*
X68546081Y-78424486D01*
X68702432Y-78508057D01*
X68702433Y-78508058D01*
X68702435Y-78508059D01*
X68839475Y-78620525D01*
X68919485Y-78718017D01*
X68951943Y-78757568D01*
X69035514Y-78913919D01*
X69035515Y-78913922D01*
X69035516Y-78913924D01*
X69086976Y-79083564D01*
X69086976Y-79083567D01*
X69086977Y-79083569D01*
X69104354Y-79260000D01*
X69086977Y-79436431D01*
X69086976Y-79436433D01*
X69086976Y-79436436D01*
X69035516Y-79606076D01*
X69035514Y-79606081D01*
X68956660Y-79753607D01*
X68951941Y-79762435D01*
X68839475Y-79899475D01*
X68702435Y-80011941D01*
X68702433Y-80011942D01*
X68702432Y-80011943D01*
X68546081Y-80095514D01*
X68546078Y-80095515D01*
X68546076Y-80095516D01*
X68376436Y-80146976D01*
X68376433Y-80146976D01*
X68376431Y-80146977D01*
X68244207Y-80160000D01*
X68155793Y-80160000D01*
X68023569Y-80146977D01*
X68023567Y-80146976D01*
X68023564Y-80146976D01*
X67853924Y-80095516D01*
X67853922Y-80095515D01*
X67853919Y-80095514D01*
X67697568Y-80011943D01*
X67697567Y-80011942D01*
X67697565Y-80011941D01*
X67560525Y-79899475D01*
X67448059Y-79762435D01*
X67443340Y-79753607D01*
X67364486Y-79606081D01*
X67364484Y-79606076D01*
X67313024Y-79436436D01*
X67313024Y-79436433D01*
X67313023Y-79436431D01*
X67295646Y-79260000D01*
X67313023Y-79083569D01*
X67313024Y-79083567D01*
X67313024Y-79083564D01*
X67364484Y-78913924D01*
X67364485Y-78913922D01*
X67364486Y-78913919D01*
X67448057Y-78757568D01*
X67480516Y-78718017D01*
X67560525Y-78620525D01*
X67697565Y-78508059D01*
X67697567Y-78508058D01*
X67697568Y-78508057D01*
X67853919Y-78424486D01*
X67853922Y-78424485D01*
X67853924Y-78424484D01*
X68023564Y-78373024D01*
X68023567Y-78373024D01*
X68023569Y-78373023D01*
X68155793Y-78360000D01*
X68244207Y-78360000D01*
X68376431Y-78373023D01*
X68376431Y-78373023D01*
G37*
G36*
X64776431Y-78373023D02*
G01*
X64776433Y-78373024D01*
X64776436Y-78373024D01*
X64946076Y-78424484D01*
X64946078Y-78424485D01*
X64946081Y-78424486D01*
X65102432Y-78508057D01*
X65102433Y-78508058D01*
X65102435Y-78508059D01*
X65239475Y-78620525D01*
X65319485Y-78718017D01*
X65351943Y-78757568D01*
X65435514Y-78913919D01*
X65435515Y-78913922D01*
X65435516Y-78913924D01*
X65486976Y-79083564D01*
X65486976Y-79083567D01*
X65486977Y-79083569D01*
X65504354Y-79260000D01*
X65486977Y-79436431D01*
X65486976Y-79436433D01*
X65486976Y-79436436D01*
X65435516Y-79606076D01*
X65435514Y-79606081D01*
X65356660Y-79753607D01*
X65351941Y-79762435D01*
X65239475Y-79899475D01*
X65102435Y-80011941D01*
X65102433Y-80011942D01*
X65102432Y-80011943D01*
X64946081Y-80095514D01*
X64946078Y-80095515D01*
X64946076Y-80095516D01*
X64776436Y-80146976D01*
X64776433Y-80146976D01*
X64776431Y-80146977D01*
X64644207Y-80160000D01*
X64555793Y-80160000D01*
X64423569Y-80146977D01*
X64423567Y-80146976D01*
X64423564Y-80146976D01*
X64253924Y-80095516D01*
X64253922Y-80095515D01*
X64253919Y-80095514D01*
X64097568Y-80011943D01*
X64097567Y-80011942D01*
X64097565Y-80011941D01*
X63960525Y-79899475D01*
X63848059Y-79762435D01*
X63843340Y-79753607D01*
X63764486Y-79606081D01*
X63764484Y-79606076D01*
X63713024Y-79436436D01*
X63713024Y-79436433D01*
X63713023Y-79436431D01*
X63695646Y-79260000D01*
X63713023Y-79083569D01*
X63713024Y-79083567D01*
X63713024Y-79083564D01*
X63764484Y-78913924D01*
X63764485Y-78913922D01*
X63764486Y-78913919D01*
X63848057Y-78757568D01*
X63880516Y-78718017D01*
X63960525Y-78620525D01*
X64097565Y-78508059D01*
X64097567Y-78508058D01*
X64097568Y-78508057D01*
X64253919Y-78424486D01*
X64253922Y-78424485D01*
X64253924Y-78424484D01*
X64423564Y-78373024D01*
X64423567Y-78373024D01*
X64423569Y-78373023D01*
X64555793Y-78360000D01*
X64644207Y-78360000D01*
X64776431Y-78373023D01*
X64776431Y-78373023D01*
G37*
G36*
X60068040Y-78778905D02*
G01*
X60098619Y-78788181D01*
X60126791Y-78803239D01*
X60151491Y-78823509D01*
X60171761Y-78848209D01*
X60186819Y-78876381D01*
X60196095Y-78906960D01*
X60200000Y-78946605D01*
X60200000Y-79653395D01*
X60196095Y-79693040D01*
X60186819Y-79723619D01*
X60171761Y-79751791D01*
X60151491Y-79776491D01*
X60126791Y-79796761D01*
X60098619Y-79811819D01*
X60068040Y-79821095D01*
X60028395Y-79825000D01*
X59396605Y-79825000D01*
X59356960Y-79821095D01*
X59326381Y-79811819D01*
X59298209Y-79796761D01*
X59273509Y-79776491D01*
X59253239Y-79751791D01*
X59238181Y-79723619D01*
X59228905Y-79693040D01*
X59225000Y-79653395D01*
X59225000Y-78946605D01*
X59228905Y-78906960D01*
X59238181Y-78876381D01*
X59253239Y-78848209D01*
X59273509Y-78823509D01*
X59298209Y-78803239D01*
X59326381Y-78788181D01*
X59356960Y-78778905D01*
X59396605Y-78775000D01*
X60028395Y-78775000D01*
X60068040Y-78778905D01*
X60068040Y-78778905D01*
G37*
G36*
X61643040Y-78778905D02*
G01*
X61673619Y-78788181D01*
X61701791Y-78803239D01*
X61726491Y-78823509D01*
X61746761Y-78848209D01*
X61761819Y-78876381D01*
X61771095Y-78906960D01*
X61775000Y-78946605D01*
X61775000Y-79653395D01*
X61771095Y-79693040D01*
X61761819Y-79723619D01*
X61746761Y-79751791D01*
X61726491Y-79776491D01*
X61701791Y-79796761D01*
X61673619Y-79811819D01*
X61643040Y-79821095D01*
X61603395Y-79825000D01*
X60971605Y-79825000D01*
X60931960Y-79821095D01*
X60901381Y-79811819D01*
X60873209Y-79796761D01*
X60848509Y-79776491D01*
X60828239Y-79751791D01*
X60813181Y-79723619D01*
X60803905Y-79693040D01*
X60800000Y-79653395D01*
X60800000Y-78946605D01*
X60803905Y-78906960D01*
X60813181Y-78876381D01*
X60828239Y-78848209D01*
X60848509Y-78823509D01*
X60873209Y-78803239D01*
X60901381Y-78788181D01*
X60931960Y-78778905D01*
X60971605Y-78775000D01*
X61603395Y-78775000D01*
X61643040Y-78778905D01*
X61643040Y-78778905D01*
G37*
G36*
X54033138Y-78678545D02*
G01*
X54060194Y-78686753D01*
X54085126Y-78700080D01*
X54106983Y-78718017D01*
X54124920Y-78739874D01*
X54138247Y-78764806D01*
X54146455Y-78791862D01*
X54150000Y-78827862D01*
X54150000Y-79422138D01*
X54146455Y-79458138D01*
X54138247Y-79485194D01*
X54124920Y-79510126D01*
X54106983Y-79531983D01*
X54085126Y-79549920D01*
X54060194Y-79563247D01*
X54033138Y-79571455D01*
X53997138Y-79575000D01*
X52602862Y-79575000D01*
X52566862Y-79571455D01*
X52539806Y-79563247D01*
X52514874Y-79549920D01*
X52493017Y-79531983D01*
X52475080Y-79510126D01*
X52461753Y-79485194D01*
X52453545Y-79458138D01*
X52450000Y-79422138D01*
X52450000Y-78827862D01*
X52453545Y-78791862D01*
X52461753Y-78764806D01*
X52475080Y-78739874D01*
X52493017Y-78718017D01*
X52514874Y-78700080D01*
X52539806Y-78686753D01*
X52566862Y-78678545D01*
X52602862Y-78675000D01*
X53997138Y-78675000D01*
X54033138Y-78678545D01*
X54033138Y-78678545D01*
G37*
G36*
X58330000Y-79330000D02*
G01*
X55870000Y-79330000D01*
X55870000Y-78170000D01*
X58330000Y-78170000D01*
X58330000Y-79330000D01*
X58330000Y-79330000D01*
G37*
G36*
X54033138Y-77428545D02*
G01*
X54060194Y-77436753D01*
X54085126Y-77450080D01*
X54106983Y-77468017D01*
X54124920Y-77489874D01*
X54138247Y-77514806D01*
X54146455Y-77541862D01*
X54150000Y-77577862D01*
X54150000Y-78172138D01*
X54146455Y-78208138D01*
X54138247Y-78235194D01*
X54124920Y-78260126D01*
X54106983Y-78281983D01*
X54085126Y-78299920D01*
X54060194Y-78313247D01*
X54033138Y-78321455D01*
X53997138Y-78325000D01*
X52602862Y-78325000D01*
X52566862Y-78321455D01*
X52539806Y-78313247D01*
X52514874Y-78299920D01*
X52493017Y-78281983D01*
X52475080Y-78260126D01*
X52461753Y-78235194D01*
X52453545Y-78208138D01*
X52450000Y-78172138D01*
X52450000Y-77577862D01*
X52453545Y-77541862D01*
X52461753Y-77514806D01*
X52475080Y-77489874D01*
X52493017Y-77468017D01*
X52514874Y-77450080D01*
X52539806Y-77436753D01*
X52566862Y-77428545D01*
X52602862Y-77425000D01*
X53997138Y-77425000D01*
X54033138Y-77428545D01*
X54033138Y-77428545D01*
G37*
G36*
X60150000Y-78000000D02*
G01*
X59250000Y-78000000D01*
X59250000Y-77000000D01*
X60150000Y-77000000D01*
X60150000Y-78000000D01*
X60150000Y-78000000D01*
G37*
G36*
X62050000Y-78000000D02*
G01*
X61150000Y-78000000D01*
X61150000Y-77000000D01*
X62050000Y-77000000D01*
X62050000Y-78000000D01*
X62050000Y-78000000D01*
G37*
G36*
X64776431Y-75833023D02*
G01*
X64776433Y-75833024D01*
X64776436Y-75833024D01*
X64946076Y-75884484D01*
X64946078Y-75884485D01*
X64946081Y-75884486D01*
X65102432Y-75968057D01*
X65102433Y-75968058D01*
X65102435Y-75968059D01*
X65239475Y-76080525D01*
X65331065Y-76192127D01*
X65351943Y-76217568D01*
X65435514Y-76373919D01*
X65435515Y-76373922D01*
X65435516Y-76373924D01*
X65486976Y-76543564D01*
X65486976Y-76543567D01*
X65486977Y-76543569D01*
X65504354Y-76720000D01*
X65486977Y-76896431D01*
X65486976Y-76896433D01*
X65486976Y-76896436D01*
X65438004Y-77057873D01*
X65435514Y-77066081D01*
X65373955Y-77181250D01*
X65351941Y-77222435D01*
X65239475Y-77359475D01*
X65102435Y-77471941D01*
X65102433Y-77471942D01*
X65102432Y-77471943D01*
X64946081Y-77555514D01*
X64946078Y-77555515D01*
X64946076Y-77555516D01*
X64776436Y-77606976D01*
X64776433Y-77606976D01*
X64776431Y-77606977D01*
X64644207Y-77620000D01*
X64555793Y-77620000D01*
X64423569Y-77606977D01*
X64423567Y-77606976D01*
X64423564Y-77606976D01*
X64253924Y-77555516D01*
X64253922Y-77555515D01*
X64253919Y-77555514D01*
X64097568Y-77471943D01*
X64097567Y-77471942D01*
X64097565Y-77471941D01*
X63960525Y-77359475D01*
X63848059Y-77222435D01*
X63826045Y-77181250D01*
X63764486Y-77066081D01*
X63761996Y-77057873D01*
X63713024Y-76896436D01*
X63713024Y-76896433D01*
X63713023Y-76896431D01*
X63695646Y-76720000D01*
X63713023Y-76543569D01*
X63713024Y-76543567D01*
X63713024Y-76543564D01*
X63764484Y-76373924D01*
X63764485Y-76373922D01*
X63764486Y-76373919D01*
X63848057Y-76217568D01*
X63868936Y-76192127D01*
X63960525Y-76080525D01*
X64097565Y-75968059D01*
X64097567Y-75968058D01*
X64097568Y-75968057D01*
X64253919Y-75884486D01*
X64253922Y-75884485D01*
X64253924Y-75884484D01*
X64423564Y-75833024D01*
X64423567Y-75833024D01*
X64423569Y-75833023D01*
X64555793Y-75820000D01*
X64644207Y-75820000D01*
X64776431Y-75833023D01*
X64776431Y-75833023D01*
G37*
G36*
X58243040Y-76453905D02*
G01*
X58273619Y-76463181D01*
X58301791Y-76478239D01*
X58326491Y-76498509D01*
X58346761Y-76523209D01*
X58361819Y-76551381D01*
X58371095Y-76581960D01*
X58375000Y-76621605D01*
X58375000Y-77253395D01*
X58371095Y-77293040D01*
X58361819Y-77323619D01*
X58346761Y-77351791D01*
X58326491Y-77376491D01*
X58301791Y-77396761D01*
X58273619Y-77411819D01*
X58243040Y-77421095D01*
X58203395Y-77425000D01*
X57496605Y-77425000D01*
X57456960Y-77421095D01*
X57426381Y-77411819D01*
X57398209Y-77396761D01*
X57373509Y-77376491D01*
X57353239Y-77351791D01*
X57338181Y-77323619D01*
X57328905Y-77293040D01*
X57325000Y-77253395D01*
X57325000Y-76621605D01*
X57328905Y-76581960D01*
X57338181Y-76551381D01*
X57353239Y-76523209D01*
X57373509Y-76498509D01*
X57398209Y-76478239D01*
X57426381Y-76463181D01*
X57456960Y-76453905D01*
X57496605Y-76450000D01*
X58203395Y-76450000D01*
X58243040Y-76453905D01*
X58243040Y-76453905D01*
G37*
G36*
X54033138Y-76178545D02*
G01*
X54060194Y-76186753D01*
X54085126Y-76200080D01*
X54106983Y-76218017D01*
X54124920Y-76239874D01*
X54138247Y-76264806D01*
X54146455Y-76291862D01*
X54150000Y-76327862D01*
X54150000Y-76922138D01*
X54146455Y-76958138D01*
X54138247Y-76985194D01*
X54124920Y-77010126D01*
X54106983Y-77031983D01*
X54085126Y-77049920D01*
X54060194Y-77063247D01*
X54033138Y-77071455D01*
X53997138Y-77075000D01*
X52602862Y-77075000D01*
X52566862Y-77071455D01*
X52539806Y-77063247D01*
X52514874Y-77049920D01*
X52493017Y-77031983D01*
X52475080Y-77010126D01*
X52461753Y-76985194D01*
X52453545Y-76958138D01*
X52450000Y-76922138D01*
X52450000Y-76327862D01*
X52453545Y-76291862D01*
X52461753Y-76264806D01*
X52475080Y-76239874D01*
X52493017Y-76218017D01*
X52514874Y-76200080D01*
X52539806Y-76186753D01*
X52566862Y-76178545D01*
X52602862Y-76175000D01*
X53997138Y-76175000D01*
X54033138Y-76178545D01*
X54033138Y-76178545D01*
G37*
G36*
X61100000Y-76000000D02*
G01*
X60200000Y-76000000D01*
X60200000Y-75000000D01*
X61100000Y-75000000D01*
X61100000Y-76000000D01*
X61100000Y-76000000D01*
G37*
G36*
X56400000Y-75900000D02*
G01*
X55300000Y-75900000D01*
X55300000Y-74800000D01*
X56400000Y-74800000D01*
X56400000Y-75900000D01*
X56400000Y-75900000D01*
G37*
G36*
X58243040Y-74878905D02*
G01*
X58273619Y-74888181D01*
X58301791Y-74903239D01*
X58326491Y-74923509D01*
X58346761Y-74948209D01*
X58361819Y-74976381D01*
X58371095Y-75006960D01*
X58375000Y-75046605D01*
X58375000Y-75678395D01*
X58371095Y-75718040D01*
X58361819Y-75748619D01*
X58346761Y-75776791D01*
X58326491Y-75801491D01*
X58301791Y-75821761D01*
X58273619Y-75836819D01*
X58243040Y-75846095D01*
X58203395Y-75850000D01*
X57496605Y-75850000D01*
X57456960Y-75846095D01*
X57426381Y-75836819D01*
X57398209Y-75821761D01*
X57373509Y-75801491D01*
X57353239Y-75776791D01*
X57338181Y-75748619D01*
X57328905Y-75718040D01*
X57325000Y-75678395D01*
X57325000Y-75046605D01*
X57328905Y-75006960D01*
X57338181Y-74976381D01*
X57353239Y-74948209D01*
X57373509Y-74923509D01*
X57398209Y-74903239D01*
X57426381Y-74888181D01*
X57456960Y-74878905D01*
X57496605Y-74875000D01*
X58203395Y-74875000D01*
X58243040Y-74878905D01*
X58243040Y-74878905D01*
G37*
G36*
X51837164Y-72978450D02*
G01*
X51863280Y-72986372D01*
X51887348Y-72999237D01*
X51908447Y-73016553D01*
X51925763Y-73037652D01*
X51938628Y-73061720D01*
X51946550Y-73087836D01*
X51950000Y-73122865D01*
X51950000Y-75027135D01*
X51946550Y-75062164D01*
X51938628Y-75088280D01*
X51925763Y-75112348D01*
X51908447Y-75133447D01*
X51887348Y-75150763D01*
X51863280Y-75163628D01*
X51837164Y-75171550D01*
X51802135Y-75175000D01*
X48997865Y-75175000D01*
X48962836Y-75171550D01*
X48936720Y-75163628D01*
X48912652Y-75150763D01*
X48891553Y-75133447D01*
X48874237Y-75112348D01*
X48861372Y-75088280D01*
X48853450Y-75062164D01*
X48850000Y-75027135D01*
X48850000Y-73122865D01*
X48853450Y-73087836D01*
X48861372Y-73061720D01*
X48874237Y-73037652D01*
X48891553Y-73016553D01*
X48912652Y-72999237D01*
X48936720Y-72986372D01*
X48962836Y-72978450D01*
X48997865Y-72975000D01*
X51802135Y-72975000D01*
X51837164Y-72978450D01*
X51837164Y-72978450D01*
G37*
G36*
X67634792Y-72279102D02*
G01*
X67667294Y-72288961D01*
X67697238Y-72304967D01*
X67723489Y-72326511D01*
X67745033Y-72352762D01*
X67761039Y-72382706D01*
X67770898Y-72415208D01*
X67775000Y-72456855D01*
X67775000Y-73943145D01*
X67770898Y-73984792D01*
X67761039Y-74017294D01*
X67745033Y-74047238D01*
X67723489Y-74073489D01*
X67697238Y-74095033D01*
X67667294Y-74111039D01*
X67634792Y-74120898D01*
X67593145Y-74125000D01*
X66606855Y-74125000D01*
X66565208Y-74120898D01*
X66532706Y-74111039D01*
X66502762Y-74095033D01*
X66476511Y-74073489D01*
X66454967Y-74047238D01*
X66438961Y-74017294D01*
X66429102Y-73984792D01*
X66425000Y-73943145D01*
X66425000Y-72456855D01*
X66429102Y-72415208D01*
X66438961Y-72382706D01*
X66454967Y-72352762D01*
X66476511Y-72326511D01*
X66502762Y-72304967D01*
X66532706Y-72288961D01*
X66565208Y-72279102D01*
X66606855Y-72275000D01*
X67593145Y-72275000D01*
X67634792Y-72279102D01*
X67634792Y-72279102D01*
G37*
G36*
X64834792Y-72279102D02*
G01*
X64867294Y-72288961D01*
X64897238Y-72304967D01*
X64923489Y-72326511D01*
X64945033Y-72352762D01*
X64961039Y-72382706D01*
X64970898Y-72415208D01*
X64975000Y-72456855D01*
X64975000Y-73943145D01*
X64970898Y-73984792D01*
X64961039Y-74017294D01*
X64945033Y-74047238D01*
X64923489Y-74073489D01*
X64897238Y-74095033D01*
X64867294Y-74111039D01*
X64834792Y-74120898D01*
X64793145Y-74125000D01*
X63806855Y-74125000D01*
X63765208Y-74120898D01*
X63732706Y-74111039D01*
X63702762Y-74095033D01*
X63676511Y-74073489D01*
X63654967Y-74047238D01*
X63638961Y-74017294D01*
X63629102Y-73984792D01*
X63625000Y-73943145D01*
X63625000Y-72456855D01*
X63629102Y-72415208D01*
X63638961Y-72382706D01*
X63654967Y-72352762D01*
X63676511Y-72326511D01*
X63702762Y-72304967D01*
X63732706Y-72288961D01*
X63765208Y-72279102D01*
X63806855Y-72275000D01*
X64793145Y-72275000D01*
X64834792Y-72279102D01*
X64834792Y-72279102D01*
G37*
G36*
X61334792Y-72279102D02*
G01*
X61367294Y-72288961D01*
X61397238Y-72304967D01*
X61423489Y-72326511D01*
X61445033Y-72352762D01*
X61461039Y-72382706D01*
X61470898Y-72415208D01*
X61475000Y-72456855D01*
X61475000Y-73943145D01*
X61470898Y-73984792D01*
X61461039Y-74017294D01*
X61445033Y-74047238D01*
X61423489Y-74073489D01*
X61397238Y-74095033D01*
X61367294Y-74111039D01*
X61334792Y-74120898D01*
X61293145Y-74125000D01*
X60306855Y-74125000D01*
X60265208Y-74120898D01*
X60232706Y-74111039D01*
X60202762Y-74095033D01*
X60176511Y-74073489D01*
X60154967Y-74047238D01*
X60138961Y-74017294D01*
X60129102Y-73984792D01*
X60125000Y-73943145D01*
X60125000Y-72456855D01*
X60129102Y-72415208D01*
X60138961Y-72382706D01*
X60154967Y-72352762D01*
X60176511Y-72326511D01*
X60202762Y-72304967D01*
X60232706Y-72288961D01*
X60265208Y-72279102D01*
X60306855Y-72275000D01*
X61293145Y-72275000D01*
X61334792Y-72279102D01*
X61334792Y-72279102D01*
G37*
G36*
X58534792Y-72279102D02*
G01*
X58567294Y-72288961D01*
X58597238Y-72304967D01*
X58623489Y-72326511D01*
X58645033Y-72352762D01*
X58661039Y-72382706D01*
X58670898Y-72415208D01*
X58675000Y-72456855D01*
X58675000Y-73943145D01*
X58670898Y-73984792D01*
X58661039Y-74017294D01*
X58645033Y-74047238D01*
X58623489Y-74073489D01*
X58597238Y-74095033D01*
X58567294Y-74111039D01*
X58534792Y-74120898D01*
X58493145Y-74125000D01*
X57506855Y-74125000D01*
X57465208Y-74120898D01*
X57432706Y-74111039D01*
X57402762Y-74095033D01*
X57376511Y-74073489D01*
X57354967Y-74047238D01*
X57338961Y-74017294D01*
X57329102Y-73984792D01*
X57325000Y-73943145D01*
X57325000Y-72456855D01*
X57329102Y-72415208D01*
X57338961Y-72382706D01*
X57354967Y-72352762D01*
X57376511Y-72326511D01*
X57402762Y-72304967D01*
X57432706Y-72288961D01*
X57465208Y-72279102D01*
X57506855Y-72275000D01*
X58493145Y-72275000D01*
X58534792Y-72279102D01*
X58534792Y-72279102D01*
G37*
G36*
X56400000Y-73400000D02*
G01*
X55300000Y-73400000D01*
X55300000Y-72300000D01*
X56400000Y-72300000D01*
X56400000Y-73400000D01*
X56400000Y-73400000D01*
G37*
G36*
X60143040Y-70778905D02*
G01*
X60173619Y-70788181D01*
X60201791Y-70803239D01*
X60226491Y-70823509D01*
X60246761Y-70848209D01*
X60261819Y-70876381D01*
X60271095Y-70906960D01*
X60275000Y-70946605D01*
X60275000Y-71653395D01*
X60271095Y-71693040D01*
X60261819Y-71723619D01*
X60246761Y-71751791D01*
X60226491Y-71776491D01*
X60201791Y-71796761D01*
X60173619Y-71811819D01*
X60143040Y-71821095D01*
X60103395Y-71825000D01*
X59471605Y-71825000D01*
X59431960Y-71821095D01*
X59401381Y-71811819D01*
X59373209Y-71796761D01*
X59348509Y-71776491D01*
X59328239Y-71751791D01*
X59313181Y-71723619D01*
X59303905Y-71693040D01*
X59300000Y-71653395D01*
X59300000Y-70946605D01*
X59303905Y-70906960D01*
X59313181Y-70876381D01*
X59328239Y-70848209D01*
X59348509Y-70823509D01*
X59373209Y-70803239D01*
X59401381Y-70788181D01*
X59431960Y-70778905D01*
X59471605Y-70775000D01*
X60103395Y-70775000D01*
X60143040Y-70778905D01*
X60143040Y-70778905D01*
G37*
G36*
X63368040Y-70778905D02*
G01*
X63398619Y-70788181D01*
X63426791Y-70803239D01*
X63451491Y-70823509D01*
X63471761Y-70848209D01*
X63486819Y-70876381D01*
X63496095Y-70906960D01*
X63500000Y-70946605D01*
X63500000Y-71653395D01*
X63496095Y-71693040D01*
X63486819Y-71723619D01*
X63471761Y-71751791D01*
X63451491Y-71776491D01*
X63426791Y-71796761D01*
X63398619Y-71811819D01*
X63368040Y-71821095D01*
X63328395Y-71825000D01*
X62696605Y-71825000D01*
X62656960Y-71821095D01*
X62626381Y-71811819D01*
X62598209Y-71796761D01*
X62573509Y-71776491D01*
X62553239Y-71751791D01*
X62538181Y-71723619D01*
X62528905Y-71693040D01*
X62525000Y-71653395D01*
X62525000Y-70946605D01*
X62528905Y-70906960D01*
X62538181Y-70876381D01*
X62553239Y-70848209D01*
X62573509Y-70823509D01*
X62598209Y-70803239D01*
X62626381Y-70788181D01*
X62656960Y-70778905D01*
X62696605Y-70775000D01*
X63328395Y-70775000D01*
X63368040Y-70778905D01*
X63368040Y-70778905D01*
G37*
G36*
X64943040Y-70778905D02*
G01*
X64973619Y-70788181D01*
X65001791Y-70803239D01*
X65026491Y-70823509D01*
X65046761Y-70848209D01*
X65061819Y-70876381D01*
X65071095Y-70906960D01*
X65075000Y-70946605D01*
X65075000Y-71653395D01*
X65071095Y-71693040D01*
X65061819Y-71723619D01*
X65046761Y-71751791D01*
X65026491Y-71776491D01*
X65001791Y-71796761D01*
X64973619Y-71811819D01*
X64943040Y-71821095D01*
X64903395Y-71825000D01*
X64271605Y-71825000D01*
X64231960Y-71821095D01*
X64201381Y-71811819D01*
X64173209Y-71796761D01*
X64148509Y-71776491D01*
X64128239Y-71751791D01*
X64113181Y-71723619D01*
X64103905Y-71693040D01*
X64100000Y-71653395D01*
X64100000Y-70946605D01*
X64103905Y-70906960D01*
X64113181Y-70876381D01*
X64128239Y-70848209D01*
X64148509Y-70823509D01*
X64173209Y-70803239D01*
X64201381Y-70788181D01*
X64231960Y-70778905D01*
X64271605Y-70775000D01*
X64903395Y-70775000D01*
X64943040Y-70778905D01*
X64943040Y-70778905D01*
G37*
G36*
X58568040Y-70778905D02*
G01*
X58598619Y-70788181D01*
X58626791Y-70803239D01*
X58651491Y-70823509D01*
X58671761Y-70848209D01*
X58686819Y-70876381D01*
X58696095Y-70906960D01*
X58700000Y-70946605D01*
X58700000Y-71653395D01*
X58696095Y-71693040D01*
X58686819Y-71723619D01*
X58671761Y-71751791D01*
X58651491Y-71776491D01*
X58626791Y-71796761D01*
X58598619Y-71811819D01*
X58568040Y-71821095D01*
X58528395Y-71825000D01*
X57896605Y-71825000D01*
X57856960Y-71821095D01*
X57826381Y-71811819D01*
X57798209Y-71796761D01*
X57773509Y-71776491D01*
X57753239Y-71751791D01*
X57738181Y-71723619D01*
X57728905Y-71693040D01*
X57725000Y-71653395D01*
X57725000Y-70946605D01*
X57728905Y-70906960D01*
X57738181Y-70876381D01*
X57753239Y-70848209D01*
X57773509Y-70823509D01*
X57798209Y-70803239D01*
X57826381Y-70788181D01*
X57856960Y-70778905D01*
X57896605Y-70775000D01*
X58528395Y-70775000D01*
X58568040Y-70778905D01*
X58568040Y-70778905D01*
G37*
G36*
X69037164Y-69328450D02*
G01*
X69063280Y-69336372D01*
X69087348Y-69349237D01*
X69108447Y-69366553D01*
X69125763Y-69387652D01*
X69138628Y-69411720D01*
X69146550Y-69437836D01*
X69150000Y-69472865D01*
X69150000Y-71377135D01*
X69146550Y-71412164D01*
X69138628Y-71438280D01*
X69125763Y-71462348D01*
X69108447Y-71483447D01*
X69087348Y-71500763D01*
X69063280Y-71513628D01*
X69037164Y-71521550D01*
X69002135Y-71525000D01*
X66197865Y-71525000D01*
X66162836Y-71521550D01*
X66136720Y-71513628D01*
X66112652Y-71500763D01*
X66091553Y-71483447D01*
X66074237Y-71462348D01*
X66061372Y-71438280D01*
X66053450Y-71412164D01*
X66050000Y-71377135D01*
X66050000Y-69472865D01*
X66053450Y-69437836D01*
X66061372Y-69411720D01*
X66074237Y-69387652D01*
X66091553Y-69366553D01*
X66112652Y-69349237D01*
X66136720Y-69336372D01*
X66162836Y-69328450D01*
X66197865Y-69325000D01*
X69002135Y-69325000D01*
X69037164Y-69328450D01*
X69037164Y-69328450D01*
G37*
G36*
X51837164Y-69328450D02*
G01*
X51863280Y-69336372D01*
X51887348Y-69349237D01*
X51908447Y-69366553D01*
X51925763Y-69387652D01*
X51938628Y-69411720D01*
X51946550Y-69437836D01*
X51950000Y-69472865D01*
X51950000Y-71377135D01*
X51946550Y-71412164D01*
X51938628Y-71438280D01*
X51925763Y-71462348D01*
X51908447Y-71483447D01*
X51887348Y-71500763D01*
X51863280Y-71513628D01*
X51837164Y-71521550D01*
X51802135Y-71525000D01*
X48997865Y-71525000D01*
X48962836Y-71521550D01*
X48936720Y-71513628D01*
X48912652Y-71500763D01*
X48891553Y-71483447D01*
X48874237Y-71462348D01*
X48861372Y-71438280D01*
X48853450Y-71412164D01*
X48850000Y-71377135D01*
X48850000Y-69472865D01*
X48853450Y-69437836D01*
X48861372Y-69411720D01*
X48874237Y-69387652D01*
X48891553Y-69366553D01*
X48912652Y-69349237D01*
X48936720Y-69336372D01*
X48962836Y-69328450D01*
X48997865Y-69325000D01*
X51802135Y-69325000D01*
X51837164Y-69328450D01*
X51837164Y-69328450D01*
G37*
G36*
X61550000Y-69850000D02*
G01*
X56450000Y-69850000D01*
X56450000Y-68700000D01*
X61550000Y-68700000D01*
X61550000Y-69850000D01*
X61550000Y-69850000D01*
G37*
G36*
X65433138Y-67428545D02*
G01*
X65460194Y-67436753D01*
X65485126Y-67450080D01*
X65506983Y-67468017D01*
X65524920Y-67489874D01*
X65538247Y-67514806D01*
X65546455Y-67541862D01*
X65550000Y-67577862D01*
X65550000Y-68172138D01*
X65546455Y-68208138D01*
X65538247Y-68235194D01*
X65524920Y-68260126D01*
X65506983Y-68281983D01*
X65485126Y-68299920D01*
X65460194Y-68313247D01*
X65433138Y-68321455D01*
X65397138Y-68325000D01*
X64002862Y-68325000D01*
X63966862Y-68321455D01*
X63939806Y-68313247D01*
X63914874Y-68299920D01*
X63893017Y-68281983D01*
X63875080Y-68260126D01*
X63861753Y-68235194D01*
X63853545Y-68208138D01*
X63850000Y-68172138D01*
X63850000Y-67577862D01*
X63853545Y-67541862D01*
X63861753Y-67514806D01*
X63875080Y-67489874D01*
X63893017Y-67468017D01*
X63914874Y-67450080D01*
X63939806Y-67436753D01*
X63966862Y-67428545D01*
X64002862Y-67425000D01*
X65397138Y-67425000D01*
X65433138Y-67428545D01*
X65433138Y-67428545D01*
G37*
G36*
X54033138Y-67428545D02*
G01*
X54060194Y-67436753D01*
X54085126Y-67450080D01*
X54106983Y-67468017D01*
X54124920Y-67489874D01*
X54138247Y-67514806D01*
X54146455Y-67541862D01*
X54150000Y-67577862D01*
X54150000Y-68172138D01*
X54146455Y-68208138D01*
X54138247Y-68235194D01*
X54124920Y-68260126D01*
X54106983Y-68281983D01*
X54085126Y-68299920D01*
X54060194Y-68313247D01*
X54033138Y-68321455D01*
X53997138Y-68325000D01*
X52602862Y-68325000D01*
X52566862Y-68321455D01*
X52539806Y-68313247D01*
X52514874Y-68299920D01*
X52493017Y-68281983D01*
X52475080Y-68260126D01*
X52461753Y-68235194D01*
X52453545Y-68208138D01*
X52450000Y-68172138D01*
X52450000Y-67577862D01*
X52453545Y-67541862D01*
X52461753Y-67514806D01*
X52475080Y-67489874D01*
X52493017Y-67468017D01*
X52514874Y-67450080D01*
X52539806Y-67436753D01*
X52566862Y-67428545D01*
X52602862Y-67425000D01*
X53997138Y-67425000D01*
X54033138Y-67428545D01*
X54033138Y-67428545D01*
G37*
G36*
X60840000Y-68020000D02*
G01*
X57160000Y-68020000D01*
X57160000Y-64980000D01*
X60840000Y-64980000D01*
X60840000Y-68020000D01*
X60840000Y-68020000D01*
G37*
G36*
X65433138Y-66178545D02*
G01*
X65460194Y-66186753D01*
X65485126Y-66200080D01*
X65506983Y-66218017D01*
X65524920Y-66239874D01*
X65538247Y-66264806D01*
X65546455Y-66291862D01*
X65550000Y-66327862D01*
X65550000Y-66922138D01*
X65546455Y-66958138D01*
X65538247Y-66985194D01*
X65524920Y-67010126D01*
X65506983Y-67031983D01*
X65485126Y-67049920D01*
X65460194Y-67063247D01*
X65433138Y-67071455D01*
X65397138Y-67075000D01*
X64002862Y-67075000D01*
X63966862Y-67071455D01*
X63939806Y-67063247D01*
X63914874Y-67049920D01*
X63893017Y-67031983D01*
X63875080Y-67010126D01*
X63861753Y-66985194D01*
X63853545Y-66958138D01*
X63850000Y-66922138D01*
X63850000Y-66327862D01*
X63853545Y-66291862D01*
X63861753Y-66264806D01*
X63875080Y-66239874D01*
X63893017Y-66218017D01*
X63914874Y-66200080D01*
X63939806Y-66186753D01*
X63966862Y-66178545D01*
X64002862Y-66175000D01*
X65397138Y-66175000D01*
X65433138Y-66178545D01*
X65433138Y-66178545D01*
G37*
G36*
X54033138Y-66178545D02*
G01*
X54060194Y-66186753D01*
X54085126Y-66200080D01*
X54106983Y-66218017D01*
X54124920Y-66239874D01*
X54138247Y-66264806D01*
X54146455Y-66291862D01*
X54150000Y-66327862D01*
X54150000Y-66922138D01*
X54146455Y-66958138D01*
X54138247Y-66985194D01*
X54124920Y-67010126D01*
X54106983Y-67031983D01*
X54085126Y-67049920D01*
X54060194Y-67063247D01*
X54033138Y-67071455D01*
X53997138Y-67075000D01*
X52602862Y-67075000D01*
X52566862Y-67071455D01*
X52539806Y-67063247D01*
X52514874Y-67049920D01*
X52493017Y-67031983D01*
X52475080Y-67010126D01*
X52461753Y-66985194D01*
X52453545Y-66958138D01*
X52450000Y-66922138D01*
X52450000Y-66327862D01*
X52453545Y-66291862D01*
X52461753Y-66264806D01*
X52475080Y-66239874D01*
X52493017Y-66218017D01*
X52514874Y-66200080D01*
X52539806Y-66186753D01*
X52566862Y-66178545D01*
X52602862Y-66175000D01*
X53997138Y-66175000D01*
X54033138Y-66178545D01*
X54033138Y-66178545D01*
G37*
G36*
X54033138Y-64928545D02*
G01*
X54060194Y-64936753D01*
X54085126Y-64950080D01*
X54106983Y-64968017D01*
X54124920Y-64989874D01*
X54138247Y-65014806D01*
X54146455Y-65041862D01*
X54150000Y-65077862D01*
X54150000Y-65672138D01*
X54146455Y-65708138D01*
X54138247Y-65735194D01*
X54124920Y-65760126D01*
X54106983Y-65781983D01*
X54085126Y-65799920D01*
X54060194Y-65813247D01*
X54033138Y-65821455D01*
X53997138Y-65825000D01*
X52602862Y-65825000D01*
X52566862Y-65821455D01*
X52539806Y-65813247D01*
X52514874Y-65799920D01*
X52493017Y-65781983D01*
X52475080Y-65760126D01*
X52461753Y-65735194D01*
X52453545Y-65708138D01*
X52450000Y-65672138D01*
X52450000Y-65077862D01*
X52453545Y-65041862D01*
X52461753Y-65014806D01*
X52475080Y-64989874D01*
X52493017Y-64968017D01*
X52514874Y-64950080D01*
X52539806Y-64936753D01*
X52566862Y-64928545D01*
X52602862Y-64925000D01*
X53997138Y-64925000D01*
X54033138Y-64928545D01*
X54033138Y-64928545D01*
G37*
G36*
X65433138Y-64928545D02*
G01*
X65460194Y-64936753D01*
X65485126Y-64950080D01*
X65506983Y-64968017D01*
X65524920Y-64989874D01*
X65538247Y-65014806D01*
X65546455Y-65041862D01*
X65550000Y-65077862D01*
X65550000Y-65672138D01*
X65546455Y-65708138D01*
X65538247Y-65735194D01*
X65524920Y-65760126D01*
X65506983Y-65781983D01*
X65485126Y-65799920D01*
X65460194Y-65813247D01*
X65433138Y-65821455D01*
X65397138Y-65825000D01*
X64002862Y-65825000D01*
X63966862Y-65821455D01*
X63939806Y-65813247D01*
X63914874Y-65799920D01*
X63893017Y-65781983D01*
X63875080Y-65760126D01*
X63861753Y-65735194D01*
X63853545Y-65708138D01*
X63850000Y-65672138D01*
X63850000Y-65077862D01*
X63853545Y-65041862D01*
X63861753Y-65014806D01*
X63875080Y-64989874D01*
X63893017Y-64968017D01*
X63914874Y-64950080D01*
X63939806Y-64936753D01*
X63966862Y-64928545D01*
X64002862Y-64925000D01*
X65397138Y-64925000D01*
X65433138Y-64928545D01*
X65433138Y-64928545D01*
G37*
G36*
X65433138Y-63678545D02*
G01*
X65460194Y-63686753D01*
X65485126Y-63700080D01*
X65506983Y-63718017D01*
X65524920Y-63739874D01*
X65538247Y-63764806D01*
X65546455Y-63791862D01*
X65550000Y-63827862D01*
X65550000Y-64422138D01*
X65546455Y-64458138D01*
X65538247Y-64485194D01*
X65524920Y-64510126D01*
X65506983Y-64531983D01*
X65485126Y-64549920D01*
X65460194Y-64563247D01*
X65433138Y-64571455D01*
X65397138Y-64575000D01*
X64002862Y-64575000D01*
X63966862Y-64571455D01*
X63939806Y-64563247D01*
X63914874Y-64549920D01*
X63893017Y-64531983D01*
X63875080Y-64510126D01*
X63861753Y-64485194D01*
X63853545Y-64458138D01*
X63850000Y-64422138D01*
X63850000Y-63827862D01*
X63853545Y-63791862D01*
X63861753Y-63764806D01*
X63875080Y-63739874D01*
X63893017Y-63718017D01*
X63914874Y-63700080D01*
X63939806Y-63686753D01*
X63966862Y-63678545D01*
X64002862Y-63675000D01*
X65397138Y-63675000D01*
X65433138Y-63678545D01*
X65433138Y-63678545D01*
G37*
G36*
X54033138Y-63678545D02*
G01*
X54060194Y-63686753D01*
X54085126Y-63700080D01*
X54106983Y-63718017D01*
X54124920Y-63739874D01*
X54138247Y-63764806D01*
X54146455Y-63791862D01*
X54150000Y-63827862D01*
X54150000Y-64422138D01*
X54146455Y-64458138D01*
X54138247Y-64485194D01*
X54124920Y-64510126D01*
X54106983Y-64531983D01*
X54085126Y-64549920D01*
X54060194Y-64563247D01*
X54033138Y-64571455D01*
X53997138Y-64575000D01*
X52602862Y-64575000D01*
X52566862Y-64571455D01*
X52539806Y-64563247D01*
X52514874Y-64549920D01*
X52493017Y-64531983D01*
X52475080Y-64510126D01*
X52461753Y-64485194D01*
X52453545Y-64458138D01*
X52450000Y-64422138D01*
X52450000Y-63827862D01*
X52453545Y-63791862D01*
X52461753Y-63764806D01*
X52475080Y-63739874D01*
X52493017Y-63718017D01*
X52514874Y-63700080D01*
X52539806Y-63686753D01*
X52566862Y-63678545D01*
X52602862Y-63675000D01*
X53997138Y-63675000D01*
X54033138Y-63678545D01*
X54033138Y-63678545D01*
G37*
G36*
X61550000Y-64300000D02*
G01*
X56450000Y-64300000D01*
X56450000Y-63150000D01*
X61550000Y-63150000D01*
X61550000Y-64300000D01*
X61550000Y-64300000D01*
G37*
G36*
X64545845Y-61819215D02*
G01*
X64636839Y-61856906D01*
X64636840Y-61856907D01*
X64718733Y-61911626D01*
X64788374Y-61981267D01*
X64788375Y-61981269D01*
X64843094Y-62063161D01*
X64880785Y-62154155D01*
X64900000Y-62250754D01*
X64900000Y-62349246D01*
X64880785Y-62445845D01*
X64843094Y-62536839D01*
X64843093Y-62536840D01*
X64788374Y-62618733D01*
X64718733Y-62688374D01*
X64677507Y-62715920D01*
X64636839Y-62743094D01*
X64545845Y-62780785D01*
X64449246Y-62800000D01*
X64350754Y-62800000D01*
X64254155Y-62780785D01*
X64163161Y-62743094D01*
X64122493Y-62715920D01*
X64081267Y-62688374D01*
X64011626Y-62618733D01*
X63956907Y-62536840D01*
X63956906Y-62536839D01*
X63919215Y-62445845D01*
X63900000Y-62349246D01*
X63900000Y-62250754D01*
X63919215Y-62154155D01*
X63956906Y-62063161D01*
X64011625Y-61981269D01*
X64011626Y-61981267D01*
X64081267Y-61911626D01*
X64163160Y-61856907D01*
X64163161Y-61856906D01*
X64254155Y-61819215D01*
X64350754Y-61800000D01*
X64449246Y-61800000D01*
X64545845Y-61819215D01*
X64545845Y-61819215D01*
G37*
G36*
X69037164Y-60478450D02*
G01*
X69063280Y-60486372D01*
X69087348Y-60499237D01*
X69108447Y-60516553D01*
X69125763Y-60537652D01*
X69138628Y-60561720D01*
X69146550Y-60587836D01*
X69150000Y-60622865D01*
X69150000Y-62527135D01*
X69146550Y-62562164D01*
X69138628Y-62588280D01*
X69125763Y-62612348D01*
X69108447Y-62633447D01*
X69087348Y-62650763D01*
X69063280Y-62663628D01*
X69037164Y-62671550D01*
X69002135Y-62675000D01*
X66197865Y-62675000D01*
X66162836Y-62671550D01*
X66136720Y-62663628D01*
X66112652Y-62650763D01*
X66091553Y-62633447D01*
X66074237Y-62612348D01*
X66061372Y-62588280D01*
X66053450Y-62562164D01*
X66050000Y-62527135D01*
X66050000Y-60622865D01*
X66053450Y-60587836D01*
X66061372Y-60561720D01*
X66074237Y-60537652D01*
X66091553Y-60516553D01*
X66112652Y-60499237D01*
X66136720Y-60486372D01*
X66162836Y-60478450D01*
X66197865Y-60475000D01*
X69002135Y-60475000D01*
X69037164Y-60478450D01*
X69037164Y-60478450D01*
G37*
G36*
X51837164Y-60478450D02*
G01*
X51863280Y-60486372D01*
X51887348Y-60499237D01*
X51908447Y-60516553D01*
X51925763Y-60537652D01*
X51938628Y-60561720D01*
X51946550Y-60587836D01*
X51950000Y-60622865D01*
X51950000Y-62527135D01*
X51946550Y-62562164D01*
X51938628Y-62588280D01*
X51925763Y-62612348D01*
X51908447Y-62633447D01*
X51887348Y-62650763D01*
X51863280Y-62663628D01*
X51837164Y-62671550D01*
X51802135Y-62675000D01*
X48997865Y-62675000D01*
X48962836Y-62671550D01*
X48936720Y-62663628D01*
X48912652Y-62650763D01*
X48891553Y-62633447D01*
X48874237Y-62612348D01*
X48861372Y-62588280D01*
X48853450Y-62562164D01*
X48850000Y-62527135D01*
X48850000Y-60622865D01*
X48853450Y-60587836D01*
X48861372Y-60561720D01*
X48874237Y-60537652D01*
X48891553Y-60516553D01*
X48912652Y-60499237D01*
X48936720Y-60486372D01*
X48962836Y-60478450D01*
X48997865Y-60475000D01*
X51802135Y-60475000D01*
X51837164Y-60478450D01*
X51837164Y-60478450D01*
G37*
M02*
