G04 #@! TF.GenerationSoftware,KiCad,Pcbnew,(5.1.4-0-10_14)*
G04 #@! TF.CreationDate,2020-03-01T16:52:25+01:00*
G04 #@! TF.ProjectId,actuator-board,61637475-6174-46f7-922d-626f6172642e,A.1*
G04 #@! TF.SameCoordinates,Original*
G04 #@! TF.FileFunction,Legend,Bot*
G04 #@! TF.FilePolarity,Positive*
%FSLAX46Y46*%
G04 Gerber Fmt 4.6, Leading zero omitted, Abs format (unit mm)*
G04 Created by KiCad (PCBNEW (5.1.4-0-10_14)) date 2020-03-01 16:52:25*
%MOMM*%
%LPD*%
G04 APERTURE LIST*
%ADD10C,0.110000*%
%ADD11C,0.300000*%
%ADD12C,0.180000*%
%ADD13C,0.010000*%
%ADD14C,0.120000*%
G04 APERTURE END LIST*
D10*
X55995166Y-99383333D02*
X55895166Y-99416666D01*
X55728500Y-99416666D01*
X55661833Y-99383333D01*
X55628500Y-99350000D01*
X55595166Y-99283333D01*
X55595166Y-99216666D01*
X55628500Y-99150000D01*
X55661833Y-99116666D01*
X55728500Y-99083333D01*
X55861833Y-99050000D01*
X55928500Y-99016666D01*
X55961833Y-98983333D01*
X55995166Y-98916666D01*
X55995166Y-98850000D01*
X55961833Y-98783333D01*
X55928500Y-98750000D01*
X55861833Y-98716666D01*
X55695166Y-98716666D01*
X55595166Y-98750000D01*
X55295166Y-99050000D02*
X55061833Y-99050000D01*
X54961833Y-99416666D02*
X55295166Y-99416666D01*
X55295166Y-98716666D01*
X54961833Y-98716666D01*
X54661833Y-99416666D02*
X54661833Y-98716666D01*
X54261833Y-99416666D01*
X54261833Y-98716666D01*
X53961833Y-99383333D02*
X53861833Y-99416666D01*
X53695166Y-99416666D01*
X53628500Y-99383333D01*
X53595166Y-99350000D01*
X53561833Y-99283333D01*
X53561833Y-99216666D01*
X53595166Y-99150000D01*
X53628500Y-99116666D01*
X53695166Y-99083333D01*
X53828500Y-99050000D01*
X53895166Y-99016666D01*
X53928500Y-98983333D01*
X53961833Y-98916666D01*
X53961833Y-98850000D01*
X53928500Y-98783333D01*
X53895166Y-98750000D01*
X53828500Y-98716666D01*
X53661833Y-98716666D01*
X53561833Y-98750000D01*
X53128500Y-98716666D02*
X52995166Y-98716666D01*
X52928500Y-98750000D01*
X52861833Y-98816666D01*
X52828500Y-98950000D01*
X52828500Y-99183333D01*
X52861833Y-99316666D01*
X52928500Y-99383333D01*
X52995166Y-99416666D01*
X53128500Y-99416666D01*
X53195166Y-99383333D01*
X53261833Y-99316666D01*
X53295166Y-99183333D01*
X53295166Y-98950000D01*
X53261833Y-98816666D01*
X53195166Y-98750000D01*
X53128500Y-98716666D01*
X52128500Y-99416666D02*
X52361833Y-99083333D01*
X52528500Y-99416666D02*
X52528500Y-98716666D01*
X52261833Y-98716666D01*
X52195166Y-98750000D01*
X52161833Y-98783333D01*
X52128500Y-98850000D01*
X52128500Y-98950000D01*
X52161833Y-99016666D01*
X52195166Y-99050000D01*
X52261833Y-99083333D01*
X52528500Y-99083333D01*
X51461833Y-99416666D02*
X51861833Y-99416666D01*
X51661833Y-99416666D02*
X51661833Y-98716666D01*
X51728500Y-98816666D01*
X51795166Y-98883333D01*
X51861833Y-98916666D01*
X69295166Y-71483333D02*
X69195166Y-71516666D01*
X69028500Y-71516666D01*
X68961833Y-71483333D01*
X68928500Y-71450000D01*
X68895166Y-71383333D01*
X68895166Y-71316666D01*
X68928500Y-71250000D01*
X68961833Y-71216666D01*
X69028500Y-71183333D01*
X69161833Y-71150000D01*
X69228500Y-71116666D01*
X69261833Y-71083333D01*
X69295166Y-71016666D01*
X69295166Y-70950000D01*
X69261833Y-70883333D01*
X69228500Y-70850000D01*
X69161833Y-70816666D01*
X68995166Y-70816666D01*
X68895166Y-70850000D01*
X68595166Y-71150000D02*
X68361833Y-71150000D01*
X68261833Y-71516666D02*
X68595166Y-71516666D01*
X68595166Y-70816666D01*
X68261833Y-70816666D01*
X67561833Y-71516666D02*
X67795166Y-71183333D01*
X67961833Y-71516666D02*
X67961833Y-70816666D01*
X67695166Y-70816666D01*
X67628500Y-70850000D01*
X67595166Y-70883333D01*
X67561833Y-70950000D01*
X67561833Y-71050000D01*
X67595166Y-71116666D01*
X67628500Y-71150000D01*
X67695166Y-71183333D01*
X67961833Y-71183333D01*
X67361833Y-70816666D02*
X67128500Y-71516666D01*
X66895166Y-70816666D01*
X66528500Y-70816666D02*
X66395166Y-70816666D01*
X66328500Y-70850000D01*
X66261833Y-70916666D01*
X66228500Y-71050000D01*
X66228500Y-71283333D01*
X66261833Y-71416666D01*
X66328500Y-71483333D01*
X66395166Y-71516666D01*
X66528500Y-71516666D01*
X66595166Y-71483333D01*
X66661833Y-71416666D01*
X66695166Y-71283333D01*
X66695166Y-71050000D01*
X66661833Y-70916666D01*
X66595166Y-70850000D01*
X66528500Y-70816666D01*
X65561833Y-71516666D02*
X65961833Y-71516666D01*
X65761833Y-71516666D02*
X65761833Y-70816666D01*
X65828500Y-70916666D01*
X65895166Y-70983333D01*
X65961833Y-71016666D01*
X52195166Y-71483333D02*
X52095166Y-71516666D01*
X51928500Y-71516666D01*
X51861833Y-71483333D01*
X51828500Y-71450000D01*
X51795166Y-71383333D01*
X51795166Y-71316666D01*
X51828500Y-71250000D01*
X51861833Y-71216666D01*
X51928500Y-71183333D01*
X52061833Y-71150000D01*
X52128500Y-71116666D01*
X52161833Y-71083333D01*
X52195166Y-71016666D01*
X52195166Y-70950000D01*
X52161833Y-70883333D01*
X52128500Y-70850000D01*
X52061833Y-70816666D01*
X51895166Y-70816666D01*
X51795166Y-70850000D01*
X51495166Y-71150000D02*
X51261833Y-71150000D01*
X51161833Y-71516666D02*
X51495166Y-71516666D01*
X51495166Y-70816666D01*
X51161833Y-70816666D01*
X50461833Y-71516666D02*
X50695166Y-71183333D01*
X50861833Y-71516666D02*
X50861833Y-70816666D01*
X50595166Y-70816666D01*
X50528500Y-70850000D01*
X50495166Y-70883333D01*
X50461833Y-70950000D01*
X50461833Y-71050000D01*
X50495166Y-71116666D01*
X50528500Y-71150000D01*
X50595166Y-71183333D01*
X50861833Y-71183333D01*
X50261833Y-70816666D02*
X50028500Y-71516666D01*
X49795166Y-70816666D01*
X49428500Y-70816666D02*
X49295166Y-70816666D01*
X49228500Y-70850000D01*
X49161833Y-70916666D01*
X49128500Y-71050000D01*
X49128500Y-71283333D01*
X49161833Y-71416666D01*
X49228500Y-71483333D01*
X49295166Y-71516666D01*
X49428500Y-71516666D01*
X49495166Y-71483333D01*
X49561833Y-71416666D01*
X49595166Y-71283333D01*
X49595166Y-71050000D01*
X49561833Y-70916666D01*
X49495166Y-70850000D01*
X49428500Y-70816666D01*
X48861833Y-70883333D02*
X48828500Y-70850000D01*
X48761833Y-70816666D01*
X48595166Y-70816666D01*
X48528500Y-70850000D01*
X48495166Y-70883333D01*
X48461833Y-70950000D01*
X48461833Y-71016666D01*
X48495166Y-71116666D01*
X48895166Y-71516666D01*
X48461833Y-71516666D01*
X50761833Y-85150000D02*
X50795166Y-85183333D01*
X50895166Y-85216666D01*
X50961833Y-85216666D01*
X51061833Y-85183333D01*
X51128500Y-85116666D01*
X51161833Y-85050000D01*
X51195166Y-84916666D01*
X51195166Y-84816666D01*
X51161833Y-84683333D01*
X51128500Y-84616666D01*
X51061833Y-84550000D01*
X50961833Y-84516666D01*
X50895166Y-84516666D01*
X50795166Y-84550000D01*
X50761833Y-84583333D01*
X50495166Y-85016666D02*
X50161833Y-85016666D01*
X50561833Y-85216666D02*
X50328500Y-84516666D01*
X50095166Y-85216666D01*
X49861833Y-85216666D02*
X49861833Y-84516666D01*
X49461833Y-85216666D01*
X49461833Y-84516666D01*
X68695166Y-77250000D02*
X68761833Y-77216666D01*
X68861833Y-77216666D01*
X68961833Y-77250000D01*
X69028500Y-77316666D01*
X69061833Y-77383333D01*
X69095166Y-77516666D01*
X69095166Y-77616666D01*
X69061833Y-77750000D01*
X69028500Y-77816666D01*
X68961833Y-77883333D01*
X68861833Y-77916666D01*
X68795166Y-77916666D01*
X68695166Y-77883333D01*
X68661833Y-77850000D01*
X68661833Y-77616666D01*
X68795166Y-77616666D01*
X68361833Y-77916666D02*
X68361833Y-77216666D01*
X67961833Y-77916666D01*
X67961833Y-77216666D01*
X67628500Y-77916666D02*
X67628500Y-77216666D01*
X67461833Y-77216666D01*
X67361833Y-77250000D01*
X67295166Y-77316666D01*
X67261833Y-77383333D01*
X67228500Y-77516666D01*
X67228500Y-77616666D01*
X67261833Y-77750000D01*
X67295166Y-77816666D01*
X67361833Y-77883333D01*
X67461833Y-77916666D01*
X67628500Y-77916666D01*
X69261833Y-83116666D02*
X69028500Y-83816666D01*
X68795166Y-83116666D01*
X68328500Y-83450000D02*
X68228500Y-83483333D01*
X68195166Y-83516666D01*
X68161833Y-83583333D01*
X68161833Y-83683333D01*
X68195166Y-83750000D01*
X68228500Y-83783333D01*
X68295166Y-83816666D01*
X68561833Y-83816666D01*
X68561833Y-83116666D01*
X68328500Y-83116666D01*
X68261833Y-83150000D01*
X68228500Y-83183333D01*
X68195166Y-83250000D01*
X68195166Y-83316666D01*
X68228500Y-83383333D01*
X68261833Y-83416666D01*
X68328500Y-83450000D01*
X68561833Y-83450000D01*
X67895166Y-83616666D02*
X67561833Y-83616666D01*
X67961833Y-83816666D02*
X67728500Y-83116666D01*
X67495166Y-83816666D01*
X67361833Y-83116666D02*
X66961833Y-83116666D01*
X67161833Y-83816666D02*
X67161833Y-83116666D01*
X63361833Y-81416666D02*
X63128500Y-82116666D01*
X62895166Y-81416666D01*
X62428500Y-81750000D02*
X62328500Y-81783333D01*
X62295166Y-81816666D01*
X62261833Y-81883333D01*
X62261833Y-81983333D01*
X62295166Y-82050000D01*
X62328500Y-82083333D01*
X62395166Y-82116666D01*
X62661833Y-82116666D01*
X62661833Y-81416666D01*
X62428500Y-81416666D01*
X62361833Y-81450000D01*
X62328500Y-81483333D01*
X62295166Y-81550000D01*
X62295166Y-81616666D01*
X62328500Y-81683333D01*
X62361833Y-81716666D01*
X62428500Y-81750000D01*
X62661833Y-81750000D01*
X61995166Y-81916666D02*
X61661833Y-81916666D01*
X62061833Y-82116666D02*
X61828500Y-81416666D01*
X61595166Y-82116666D01*
X61461833Y-81416666D02*
X61061833Y-81416666D01*
X61261833Y-82116666D02*
X61261833Y-81416666D01*
X62895166Y-78950000D02*
X62961833Y-78916666D01*
X63061833Y-78916666D01*
X63161833Y-78950000D01*
X63228500Y-79016666D01*
X63261833Y-79083333D01*
X63295166Y-79216666D01*
X63295166Y-79316666D01*
X63261833Y-79450000D01*
X63228500Y-79516666D01*
X63161833Y-79583333D01*
X63061833Y-79616666D01*
X62995166Y-79616666D01*
X62895166Y-79583333D01*
X62861833Y-79550000D01*
X62861833Y-79316666D01*
X62995166Y-79316666D01*
X62561833Y-79616666D02*
X62561833Y-78916666D01*
X62161833Y-79616666D01*
X62161833Y-78916666D01*
X61828500Y-79616666D02*
X61828500Y-78916666D01*
X61661833Y-78916666D01*
X61561833Y-78950000D01*
X61495166Y-79016666D01*
X61461833Y-79083333D01*
X61428500Y-79216666D01*
X61428500Y-79316666D01*
X61461833Y-79450000D01*
X61495166Y-79516666D01*
X61561833Y-79583333D01*
X61661833Y-79616666D01*
X61828500Y-79616666D01*
X62928500Y-75736666D02*
X63261833Y-75736666D01*
X63295166Y-76070000D01*
X63261833Y-76036666D01*
X63195166Y-76003333D01*
X63028500Y-76003333D01*
X62961833Y-76036666D01*
X62928500Y-76070000D01*
X62895166Y-76136666D01*
X62895166Y-76303333D01*
X62928500Y-76370000D01*
X62961833Y-76403333D01*
X63028500Y-76436666D01*
X63195166Y-76436666D01*
X63261833Y-76403333D01*
X63295166Y-76370000D01*
X62695166Y-75736666D02*
X62461833Y-76436666D01*
X62228500Y-75736666D01*
X63295166Y-77563333D02*
X63195166Y-77596666D01*
X63028500Y-77596666D01*
X62961833Y-77563333D01*
X62928500Y-77530000D01*
X62895166Y-77463333D01*
X62895166Y-77396666D01*
X62928500Y-77330000D01*
X62961833Y-77296666D01*
X63028500Y-77263333D01*
X63161833Y-77230000D01*
X63228500Y-77196666D01*
X63261833Y-77163333D01*
X63295166Y-77096666D01*
X63295166Y-77030000D01*
X63261833Y-76963333D01*
X63228500Y-76930000D01*
X63161833Y-76896666D01*
X62995166Y-76896666D01*
X62895166Y-76930000D01*
X62328500Y-77563333D02*
X62395166Y-77596666D01*
X62528500Y-77596666D01*
X62595166Y-77563333D01*
X62628500Y-77496666D01*
X62628500Y-77230000D01*
X62595166Y-77163333D01*
X62528500Y-77130000D01*
X62395166Y-77130000D01*
X62328500Y-77163333D01*
X62295166Y-77230000D01*
X62295166Y-77296666D01*
X62628500Y-77363333D01*
X61995166Y-77596666D02*
X61995166Y-77130000D01*
X61995166Y-77263333D02*
X61961833Y-77196666D01*
X61928500Y-77163333D01*
X61861833Y-77130000D01*
X61795166Y-77130000D01*
X61628500Y-77130000D02*
X61461833Y-77596666D01*
X61295166Y-77130000D01*
X60928500Y-77596666D02*
X60995166Y-77563333D01*
X61028500Y-77530000D01*
X61061833Y-77463333D01*
X61061833Y-77263333D01*
X61028500Y-77196666D01*
X60995166Y-77163333D01*
X60928500Y-77130000D01*
X60828500Y-77130000D01*
X60761833Y-77163333D01*
X60728500Y-77196666D01*
X60695166Y-77263333D01*
X60695166Y-77463333D01*
X60728500Y-77530000D01*
X60761833Y-77563333D01*
X60828500Y-77596666D01*
X60928500Y-77596666D01*
X60950000Y-90761833D02*
X60916666Y-90795166D01*
X60883333Y-90895166D01*
X60883333Y-90961833D01*
X60916666Y-91061833D01*
X60983333Y-91128500D01*
X61050000Y-91161833D01*
X61183333Y-91195166D01*
X61283333Y-91195166D01*
X61416666Y-91161833D01*
X61483333Y-91128500D01*
X61550000Y-91061833D01*
X61583333Y-90961833D01*
X61583333Y-90895166D01*
X61550000Y-90795166D01*
X61516666Y-90761833D01*
X60916666Y-90495166D02*
X60883333Y-90395166D01*
X60883333Y-90228500D01*
X60916666Y-90161833D01*
X60950000Y-90128500D01*
X61016666Y-90095166D01*
X61083333Y-90095166D01*
X61150000Y-90128500D01*
X61183333Y-90161833D01*
X61216666Y-90228500D01*
X61250000Y-90361833D01*
X61283333Y-90428500D01*
X61316666Y-90461833D01*
X61383333Y-90495166D01*
X61450000Y-90495166D01*
X61516666Y-90461833D01*
X61550000Y-90428500D01*
X61583333Y-90361833D01*
X61583333Y-90195166D01*
X61550000Y-90095166D01*
X61516666Y-89828500D02*
X61550000Y-89795166D01*
X61583333Y-89728500D01*
X61583333Y-89561833D01*
X61550000Y-89495166D01*
X61516666Y-89461833D01*
X61450000Y-89428500D01*
X61383333Y-89428500D01*
X61283333Y-89461833D01*
X60883333Y-89861833D01*
X60883333Y-89428500D01*
X59450000Y-90761833D02*
X59416666Y-90795166D01*
X59383333Y-90895166D01*
X59383333Y-90961833D01*
X59416666Y-91061833D01*
X59483333Y-91128500D01*
X59550000Y-91161833D01*
X59683333Y-91195166D01*
X59783333Y-91195166D01*
X59916666Y-91161833D01*
X59983333Y-91128500D01*
X60050000Y-91061833D01*
X60083333Y-90961833D01*
X60083333Y-90895166D01*
X60050000Y-90795166D01*
X60016666Y-90761833D01*
X59416666Y-90495166D02*
X59383333Y-90395166D01*
X59383333Y-90228500D01*
X59416666Y-90161833D01*
X59450000Y-90128500D01*
X59516666Y-90095166D01*
X59583333Y-90095166D01*
X59650000Y-90128500D01*
X59683333Y-90161833D01*
X59716666Y-90228500D01*
X59750000Y-90361833D01*
X59783333Y-90428500D01*
X59816666Y-90461833D01*
X59883333Y-90495166D01*
X59950000Y-90495166D01*
X60016666Y-90461833D01*
X60050000Y-90428500D01*
X60083333Y-90361833D01*
X60083333Y-90195166D01*
X60050000Y-90095166D01*
X59383333Y-89428500D02*
X59383333Y-89828500D01*
X59383333Y-89628500D02*
X60083333Y-89628500D01*
X59983333Y-89695166D01*
X59916666Y-89761833D01*
X59883333Y-89828500D01*
X57883333Y-91161833D02*
X58583333Y-91161833D01*
X58083333Y-90928500D01*
X58583333Y-90695166D01*
X57883333Y-90695166D01*
X57883333Y-90361833D02*
X58583333Y-90361833D01*
X57916666Y-90061833D02*
X57883333Y-89961833D01*
X57883333Y-89795166D01*
X57916666Y-89728500D01*
X57950000Y-89695166D01*
X58016666Y-89661833D01*
X58083333Y-89661833D01*
X58150000Y-89695166D01*
X58183333Y-89728500D01*
X58216666Y-89795166D01*
X58250000Y-89928500D01*
X58283333Y-89995166D01*
X58316666Y-90028500D01*
X58383333Y-90061833D01*
X58450000Y-90061833D01*
X58516666Y-90028500D01*
X58550000Y-89995166D01*
X58583333Y-89928500D01*
X58583333Y-89761833D01*
X58550000Y-89661833D01*
X58583333Y-89228500D02*
X58583333Y-89095166D01*
X58550000Y-89028500D01*
X58483333Y-88961833D01*
X58350000Y-88928500D01*
X58116666Y-88928500D01*
X57983333Y-88961833D01*
X57916666Y-89028500D01*
X57883333Y-89095166D01*
X57883333Y-89228500D01*
X57916666Y-89295166D01*
X57983333Y-89361833D01*
X58116666Y-89395166D01*
X58350000Y-89395166D01*
X58483333Y-89361833D01*
X58550000Y-89295166D01*
X58583333Y-89228500D01*
X56383333Y-91161833D02*
X57083333Y-91161833D01*
X56583333Y-90928500D01*
X57083333Y-90695166D01*
X56383333Y-90695166D01*
X57083333Y-90228500D02*
X57083333Y-90095166D01*
X57050000Y-90028500D01*
X56983333Y-89961833D01*
X56850000Y-89928500D01*
X56616666Y-89928500D01*
X56483333Y-89961833D01*
X56416666Y-90028500D01*
X56383333Y-90095166D01*
X56383333Y-90228500D01*
X56416666Y-90295166D01*
X56483333Y-90361833D01*
X56616666Y-90395166D01*
X56850000Y-90395166D01*
X56983333Y-90361833D01*
X57050000Y-90295166D01*
X57083333Y-90228500D01*
X56416666Y-89661833D02*
X56383333Y-89561833D01*
X56383333Y-89395166D01*
X56416666Y-89328500D01*
X56450000Y-89295166D01*
X56516666Y-89261833D01*
X56583333Y-89261833D01*
X56650000Y-89295166D01*
X56683333Y-89328500D01*
X56716666Y-89395166D01*
X56750000Y-89528500D01*
X56783333Y-89595166D01*
X56816666Y-89628500D01*
X56883333Y-89661833D01*
X56950000Y-89661833D01*
X57016666Y-89628500D01*
X57050000Y-89595166D01*
X57083333Y-89528500D01*
X57083333Y-89361833D01*
X57050000Y-89261833D01*
X56383333Y-88961833D02*
X57083333Y-88961833D01*
X54916666Y-91195166D02*
X54883333Y-91095166D01*
X54883333Y-90928500D01*
X54916666Y-90861833D01*
X54950000Y-90828500D01*
X55016666Y-90795166D01*
X55083333Y-90795166D01*
X55150000Y-90828500D01*
X55183333Y-90861833D01*
X55216666Y-90928500D01*
X55250000Y-91061833D01*
X55283333Y-91128500D01*
X55316666Y-91161833D01*
X55383333Y-91195166D01*
X55450000Y-91195166D01*
X55516666Y-91161833D01*
X55550000Y-91128500D01*
X55583333Y-91061833D01*
X55583333Y-90895166D01*
X55550000Y-90795166D01*
X54950000Y-90095166D02*
X54916666Y-90128500D01*
X54883333Y-90228500D01*
X54883333Y-90295166D01*
X54916666Y-90395166D01*
X54983333Y-90461833D01*
X55050000Y-90495166D01*
X55183333Y-90528500D01*
X55283333Y-90528500D01*
X55416666Y-90495166D01*
X55483333Y-90461833D01*
X55550000Y-90395166D01*
X55583333Y-90295166D01*
X55583333Y-90228500D01*
X55550000Y-90128500D01*
X55516666Y-90095166D01*
X54883333Y-89795166D02*
X55583333Y-89795166D01*
X54883333Y-89395166D02*
X55283333Y-89695166D01*
X55583333Y-89395166D02*
X55183333Y-89795166D01*
X52571500Y-96216666D02*
X52804833Y-95883333D01*
X52971500Y-96216666D02*
X52971500Y-95516666D01*
X52704833Y-95516666D01*
X52638166Y-95550000D01*
X52604833Y-95583333D01*
X52571500Y-95650000D01*
X52571500Y-95750000D01*
X52604833Y-95816666D01*
X52638166Y-95850000D01*
X52704833Y-95883333D01*
X52971500Y-95883333D01*
X52338166Y-95516666D02*
X51871500Y-96216666D01*
X51871500Y-95516666D02*
X52338166Y-96216666D01*
X52904833Y-94216666D02*
X52504833Y-94216666D01*
X52704833Y-94916666D02*
X52704833Y-94216666D01*
X52338166Y-94216666D02*
X51871500Y-94916666D01*
X51871500Y-94216666D02*
X52338166Y-94916666D01*
X54504833Y-93683333D02*
X54404833Y-93716666D01*
X54238166Y-93716666D01*
X54171500Y-93683333D01*
X54138166Y-93650000D01*
X54104833Y-93583333D01*
X54104833Y-93516666D01*
X54138166Y-93450000D01*
X54171500Y-93416666D01*
X54238166Y-93383333D01*
X54371500Y-93350000D01*
X54438166Y-93316666D01*
X54471500Y-93283333D01*
X54504833Y-93216666D01*
X54504833Y-93150000D01*
X54471500Y-93083333D01*
X54438166Y-93050000D01*
X54371500Y-93016666D01*
X54204833Y-93016666D01*
X54104833Y-93050000D01*
X53871500Y-93016666D02*
X53704833Y-93716666D01*
X53571500Y-93216666D01*
X53438166Y-93716666D01*
X53271500Y-93016666D01*
X52604833Y-93650000D02*
X52638166Y-93683333D01*
X52738166Y-93716666D01*
X52804833Y-93716666D01*
X52904833Y-93683333D01*
X52971500Y-93616666D01*
X53004833Y-93550000D01*
X53038166Y-93416666D01*
X53038166Y-93316666D01*
X53004833Y-93183333D01*
X52971500Y-93116666D01*
X52904833Y-93050000D01*
X52804833Y-93016666D01*
X52738166Y-93016666D01*
X52638166Y-93050000D01*
X52604833Y-93083333D01*
X52304833Y-93716666D02*
X52304833Y-93016666D01*
X51904833Y-93716666D02*
X52204833Y-93316666D01*
X51904833Y-93016666D02*
X52304833Y-93416666D01*
X54171500Y-92383333D02*
X54071500Y-92416666D01*
X53904833Y-92416666D01*
X53838166Y-92383333D01*
X53804833Y-92350000D01*
X53771500Y-92283333D01*
X53771500Y-92216666D01*
X53804833Y-92150000D01*
X53838166Y-92116666D01*
X53904833Y-92083333D01*
X54038166Y-92050000D01*
X54104833Y-92016666D01*
X54138166Y-91983333D01*
X54171500Y-91916666D01*
X54171500Y-91850000D01*
X54138166Y-91783333D01*
X54104833Y-91750000D01*
X54038166Y-91716666D01*
X53871500Y-91716666D01*
X53771500Y-91750000D01*
X53538166Y-91716666D02*
X53371500Y-92416666D01*
X53238166Y-91916666D01*
X53104833Y-92416666D01*
X52938166Y-91716666D01*
X52671500Y-92416666D02*
X52671500Y-91716666D01*
X52204833Y-91716666D02*
X52071500Y-91716666D01*
X52004833Y-91750000D01*
X51938166Y-91816666D01*
X51904833Y-91950000D01*
X51904833Y-92183333D01*
X51938166Y-92316666D01*
X52004833Y-92383333D01*
X52071500Y-92416666D01*
X52204833Y-92416666D01*
X52271500Y-92383333D01*
X52338166Y-92316666D01*
X52371500Y-92183333D01*
X52371500Y-91950000D01*
X52338166Y-91816666D01*
X52271500Y-91750000D01*
X52204833Y-91716666D01*
X53104833Y-91216666D02*
X53338166Y-90883333D01*
X53504833Y-91216666D02*
X53504833Y-90516666D01*
X53238166Y-90516666D01*
X53171500Y-90550000D01*
X53138166Y-90583333D01*
X53104833Y-90650000D01*
X53104833Y-90750000D01*
X53138166Y-90816666D01*
X53171500Y-90850000D01*
X53238166Y-90883333D01*
X53504833Y-90883333D01*
X52838166Y-91183333D02*
X52738166Y-91216666D01*
X52571500Y-91216666D01*
X52504833Y-91183333D01*
X52471500Y-91150000D01*
X52438166Y-91083333D01*
X52438166Y-91016666D01*
X52471500Y-90950000D01*
X52504833Y-90916666D01*
X52571500Y-90883333D01*
X52704833Y-90850000D01*
X52771500Y-90816666D01*
X52804833Y-90783333D01*
X52838166Y-90716666D01*
X52838166Y-90650000D01*
X52804833Y-90583333D01*
X52771500Y-90550000D01*
X52704833Y-90516666D01*
X52538166Y-90516666D01*
X52438166Y-90550000D01*
X52238166Y-90516666D02*
X51838166Y-90516666D01*
X52038166Y-91216666D02*
X52038166Y-90516666D01*
X53371500Y-89250000D02*
X53438166Y-89216666D01*
X53538166Y-89216666D01*
X53638166Y-89250000D01*
X53704833Y-89316666D01*
X53738166Y-89383333D01*
X53771500Y-89516666D01*
X53771500Y-89616666D01*
X53738166Y-89750000D01*
X53704833Y-89816666D01*
X53638166Y-89883333D01*
X53538166Y-89916666D01*
X53471500Y-89916666D01*
X53371500Y-89883333D01*
X53338166Y-89850000D01*
X53338166Y-89616666D01*
X53471500Y-89616666D01*
X53038166Y-89916666D02*
X53038166Y-89216666D01*
X52638166Y-89916666D01*
X52638166Y-89216666D01*
X52304833Y-89916666D02*
X52304833Y-89216666D01*
X52138166Y-89216666D01*
X52038166Y-89250000D01*
X51971500Y-89316666D01*
X51938166Y-89383333D01*
X51904833Y-89516666D01*
X51904833Y-89616666D01*
X51938166Y-89750000D01*
X51971500Y-89816666D01*
X52038166Y-89883333D01*
X52138166Y-89916666D01*
X52304833Y-89916666D01*
X53804833Y-88016666D02*
X53571500Y-88716666D01*
X53338166Y-88016666D01*
X52704833Y-88650000D02*
X52738166Y-88683333D01*
X52838166Y-88716666D01*
X52904833Y-88716666D01*
X53004833Y-88683333D01*
X53071500Y-88616666D01*
X53104833Y-88550000D01*
X53138166Y-88416666D01*
X53138166Y-88316666D01*
X53104833Y-88183333D01*
X53071500Y-88116666D01*
X53004833Y-88050000D01*
X52904833Y-88016666D01*
X52838166Y-88016666D01*
X52738166Y-88050000D01*
X52704833Y-88083333D01*
X52004833Y-88650000D02*
X52038166Y-88683333D01*
X52138166Y-88716666D01*
X52204833Y-88716666D01*
X52304833Y-88683333D01*
X52371500Y-88616666D01*
X52404833Y-88550000D01*
X52438166Y-88416666D01*
X52438166Y-88316666D01*
X52404833Y-88183333D01*
X52371500Y-88116666D01*
X52304833Y-88050000D01*
X52204833Y-88016666D01*
X52138166Y-88016666D01*
X52038166Y-88050000D01*
X52004833Y-88083333D01*
D11*
X57014285Y-73504761D02*
X57109523Y-73409523D01*
X57204761Y-73123809D01*
X57204761Y-72933333D01*
X57109523Y-72647619D01*
X56919047Y-72457142D01*
X56728571Y-72361904D01*
X56347619Y-72266666D01*
X56061904Y-72266666D01*
X55680952Y-72361904D01*
X55490476Y-72457142D01*
X55300000Y-72647619D01*
X55204761Y-72933333D01*
X55204761Y-73123809D01*
X55300000Y-73409523D01*
X55395238Y-73504761D01*
X55204761Y-74076190D02*
X57204761Y-74742857D01*
X55204761Y-75409523D01*
X57204761Y-77219047D02*
X56252380Y-76552380D01*
X57204761Y-76076190D02*
X55204761Y-76076190D01*
X55204761Y-76838095D01*
X55300000Y-77028571D01*
X55395238Y-77123809D01*
X55585714Y-77219047D01*
X55871428Y-77219047D01*
X56061904Y-77123809D01*
X56157142Y-77028571D01*
X56252380Y-76838095D01*
X56252380Y-76076190D01*
X56633333Y-77980952D02*
X56633333Y-78933333D01*
X57204761Y-77790476D02*
X55204761Y-78457142D01*
X57204761Y-79123809D01*
D10*
X61176666Y-68504833D02*
X61176666Y-68838166D01*
X61376666Y-68438166D02*
X60676666Y-68671500D01*
X61376666Y-68904833D01*
X60910000Y-69438166D02*
X61376666Y-69438166D01*
X60910000Y-69138166D02*
X61276666Y-69138166D01*
X61343333Y-69171500D01*
X61376666Y-69238166D01*
X61376666Y-69338166D01*
X61343333Y-69404833D01*
X61310000Y-69438166D01*
X60910000Y-69671500D02*
X60910000Y-69938166D01*
X60676666Y-69771500D02*
X61276666Y-69771500D01*
X61343333Y-69804833D01*
X61376666Y-69871500D01*
X61376666Y-69938166D01*
X61376666Y-70171500D02*
X60676666Y-70171500D01*
X61376666Y-70471500D02*
X61010000Y-70471500D01*
X60943333Y-70438166D01*
X60910000Y-70371500D01*
X60910000Y-70271500D01*
X60943333Y-70204833D01*
X60976666Y-70171500D01*
X61376666Y-70904833D02*
X61343333Y-70838166D01*
X61310000Y-70804833D01*
X61243333Y-70771500D01*
X61043333Y-70771500D01*
X60976666Y-70804833D01*
X60943333Y-70838166D01*
X60910000Y-70904833D01*
X60910000Y-71004833D01*
X60943333Y-71071500D01*
X60976666Y-71104833D01*
X61043333Y-71138166D01*
X61243333Y-71138166D01*
X61310000Y-71104833D01*
X61343333Y-71071500D01*
X61376666Y-71004833D01*
X61376666Y-70904833D01*
X61376666Y-71438166D02*
X60910000Y-71438166D01*
X61043333Y-71438166D02*
X60976666Y-71471500D01*
X60943333Y-71504833D01*
X60910000Y-71571500D01*
X60910000Y-71638166D01*
X61343333Y-71838166D02*
X61376666Y-71904833D01*
X61376666Y-72038166D01*
X61343333Y-72104833D01*
X61276666Y-72138166D01*
X61243333Y-72138166D01*
X61176666Y-72104833D01*
X61143333Y-72038166D01*
X61143333Y-71938166D01*
X61110000Y-71871500D01*
X61043333Y-71838166D01*
X61010000Y-71838166D01*
X60943333Y-71871500D01*
X60910000Y-71938166D01*
X60910000Y-72038166D01*
X60943333Y-72104833D01*
X61310000Y-72438166D02*
X61343333Y-72471500D01*
X61376666Y-72438166D01*
X61343333Y-72404833D01*
X61310000Y-72438166D01*
X61376666Y-72438166D01*
X60943333Y-72438166D02*
X60976666Y-72471500D01*
X61010000Y-72438166D01*
X60976666Y-72404833D01*
X60943333Y-72438166D01*
X61010000Y-72438166D01*
X62536666Y-69071500D02*
X61836666Y-69071500D01*
X62336666Y-69304833D01*
X61836666Y-69538166D01*
X62536666Y-69538166D01*
X62470000Y-69871500D02*
X62503333Y-69904833D01*
X62536666Y-69871500D01*
X62503333Y-69838166D01*
X62470000Y-69871500D01*
X62536666Y-69871500D01*
X62503333Y-70704833D02*
X62536666Y-70804833D01*
X62536666Y-70971500D01*
X62503333Y-71038166D01*
X62470000Y-71071500D01*
X62403333Y-71104833D01*
X62336666Y-71104833D01*
X62270000Y-71071500D01*
X62236666Y-71038166D01*
X62203333Y-70971500D01*
X62170000Y-70838166D01*
X62136666Y-70771500D01*
X62103333Y-70738166D01*
X62036666Y-70704833D01*
X61970000Y-70704833D01*
X61903333Y-70738166D01*
X61870000Y-70771500D01*
X61836666Y-70838166D01*
X61836666Y-71004833D01*
X61870000Y-71104833D01*
X62070000Y-71404833D02*
X62770000Y-71404833D01*
X62103333Y-71404833D02*
X62070000Y-71471500D01*
X62070000Y-71604833D01*
X62103333Y-71671500D01*
X62136666Y-71704833D01*
X62203333Y-71738166D01*
X62403333Y-71738166D01*
X62470000Y-71704833D01*
X62503333Y-71671500D01*
X62536666Y-71604833D01*
X62536666Y-71471500D01*
X62503333Y-71404833D01*
X62536666Y-72038166D02*
X62070000Y-72038166D01*
X61836666Y-72038166D02*
X61870000Y-72004833D01*
X61903333Y-72038166D01*
X61870000Y-72071500D01*
X61836666Y-72038166D01*
X61903333Y-72038166D01*
X62503333Y-72638166D02*
X62536666Y-72571500D01*
X62536666Y-72438166D01*
X62503333Y-72371500D01*
X62436666Y-72338166D01*
X62170000Y-72338166D01*
X62103333Y-72371500D01*
X62070000Y-72438166D01*
X62070000Y-72571500D01*
X62103333Y-72638166D01*
X62170000Y-72671500D01*
X62236666Y-72671500D01*
X62303333Y-72338166D01*
X62536666Y-73071500D02*
X62503333Y-73004833D01*
X62436666Y-72971500D01*
X61836666Y-72971500D01*
X62503333Y-73604833D02*
X62536666Y-73538166D01*
X62536666Y-73404833D01*
X62503333Y-73338166D01*
X62436666Y-73304833D01*
X62170000Y-73304833D01*
X62103333Y-73338166D01*
X62070000Y-73404833D01*
X62070000Y-73538166D01*
X62103333Y-73604833D01*
X62170000Y-73638166D01*
X62236666Y-73638166D01*
X62303333Y-73304833D01*
X62536666Y-73938166D02*
X62070000Y-73938166D01*
X62203333Y-73938166D02*
X62136666Y-73971500D01*
X62103333Y-74004833D01*
X62070000Y-74071500D01*
X62070000Y-74138166D01*
X63663333Y-69038166D02*
X63696666Y-69138166D01*
X63696666Y-69304833D01*
X63663333Y-69371500D01*
X63630000Y-69404833D01*
X63563333Y-69438166D01*
X63496666Y-69438166D01*
X63430000Y-69404833D01*
X63396666Y-69371500D01*
X63363333Y-69304833D01*
X63330000Y-69171500D01*
X63296666Y-69104833D01*
X63263333Y-69071500D01*
X63196666Y-69038166D01*
X63130000Y-69038166D01*
X63063333Y-69071500D01*
X63030000Y-69104833D01*
X62996666Y-69171500D01*
X62996666Y-69338166D01*
X63030000Y-69438166D01*
X63630000Y-69738166D02*
X63663333Y-69771500D01*
X63696666Y-69738166D01*
X63663333Y-69704833D01*
X63630000Y-69738166D01*
X63696666Y-69738166D01*
X63696666Y-70604833D02*
X62996666Y-70604833D01*
X63496666Y-70838166D01*
X62996666Y-71071500D01*
X63696666Y-71071500D01*
X63696666Y-71404833D02*
X63230000Y-71404833D01*
X62996666Y-71404833D02*
X63030000Y-71371500D01*
X63063333Y-71404833D01*
X63030000Y-71438166D01*
X62996666Y-71404833D01*
X63063333Y-71404833D01*
X63663333Y-71704833D02*
X63696666Y-71771500D01*
X63696666Y-71904833D01*
X63663333Y-71971500D01*
X63596666Y-72004833D01*
X63563333Y-72004833D01*
X63496666Y-71971500D01*
X63463333Y-71904833D01*
X63463333Y-71804833D01*
X63430000Y-71738166D01*
X63363333Y-71704833D01*
X63330000Y-71704833D01*
X63263333Y-71738166D01*
X63230000Y-71804833D01*
X63230000Y-71904833D01*
X63263333Y-71971500D01*
X63663333Y-72271500D02*
X63696666Y-72338166D01*
X63696666Y-72471500D01*
X63663333Y-72538166D01*
X63596666Y-72571500D01*
X63563333Y-72571500D01*
X63496666Y-72538166D01*
X63463333Y-72471500D01*
X63463333Y-72371500D01*
X63430000Y-72304833D01*
X63363333Y-72271500D01*
X63330000Y-72271500D01*
X63263333Y-72304833D01*
X63230000Y-72371500D01*
X63230000Y-72471500D01*
X63263333Y-72538166D01*
X63696666Y-72871500D02*
X63230000Y-72871500D01*
X63363333Y-72871500D02*
X63296666Y-72904833D01*
X63263333Y-72938166D01*
X63230000Y-73004833D01*
X63230000Y-73071500D01*
X63696666Y-73304833D02*
X63230000Y-73304833D01*
X62996666Y-73304833D02*
X63030000Y-73271500D01*
X63063333Y-73304833D01*
X63030000Y-73338166D01*
X62996666Y-73304833D01*
X63063333Y-73304833D01*
X64656666Y-69038166D02*
X64656666Y-69371500D01*
X64856666Y-68971500D02*
X64156666Y-69204833D01*
X64856666Y-69438166D01*
X64790000Y-69671500D02*
X64823333Y-69704833D01*
X64856666Y-69671500D01*
X64823333Y-69638166D01*
X64790000Y-69671500D01*
X64856666Y-69671500D01*
X64656666Y-70504833D02*
X64656666Y-70838166D01*
X64856666Y-70438166D02*
X64156666Y-70671500D01*
X64856666Y-70904833D01*
X64856666Y-71238166D02*
X64823333Y-71171500D01*
X64756666Y-71138166D01*
X64156666Y-71138166D01*
X64856666Y-71504833D02*
X64156666Y-71504833D01*
X64423333Y-71504833D02*
X64390000Y-71571500D01*
X64390000Y-71704833D01*
X64423333Y-71771500D01*
X64456666Y-71804833D01*
X64523333Y-71838166D01*
X64723333Y-71838166D01*
X64790000Y-71804833D01*
X64823333Y-71771500D01*
X64856666Y-71704833D01*
X64856666Y-71571500D01*
X64823333Y-71504833D01*
X64823333Y-72404833D02*
X64856666Y-72338166D01*
X64856666Y-72204833D01*
X64823333Y-72138166D01*
X64756666Y-72104833D01*
X64490000Y-72104833D01*
X64423333Y-72138166D01*
X64390000Y-72204833D01*
X64390000Y-72338166D01*
X64423333Y-72404833D01*
X64490000Y-72438166D01*
X64556666Y-72438166D01*
X64623333Y-72104833D01*
X64856666Y-72738166D02*
X64390000Y-72738166D01*
X64523333Y-72738166D02*
X64456666Y-72771500D01*
X64423333Y-72804833D01*
X64390000Y-72871500D01*
X64390000Y-72938166D01*
X64390000Y-73071500D02*
X64390000Y-73338166D01*
X64156666Y-73171500D02*
X64756666Y-73171500D01*
X64823333Y-73204833D01*
X64856666Y-73271500D01*
X64856666Y-73338166D01*
X64823333Y-73838166D02*
X64856666Y-73771500D01*
X64856666Y-73638166D01*
X64823333Y-73571500D01*
X64756666Y-73538166D01*
X64490000Y-73538166D01*
X64423333Y-73571500D01*
X64390000Y-73638166D01*
X64390000Y-73771500D01*
X64423333Y-73838166D01*
X64490000Y-73871500D01*
X64556666Y-73871500D01*
X64623333Y-73538166D01*
X64856666Y-74271500D02*
X64823333Y-74204833D01*
X64756666Y-74171500D01*
X64156666Y-74171500D01*
X64856666Y-74638166D02*
X64823333Y-74571500D01*
X64756666Y-74538166D01*
X64156666Y-74538166D01*
X64856666Y-74904833D02*
X64390000Y-74904833D01*
X64156666Y-74904833D02*
X64190000Y-74871500D01*
X64223333Y-74904833D01*
X64190000Y-74938166D01*
X64156666Y-74904833D01*
X64223333Y-74904833D01*
D12*
X59200000Y-68445571D02*
X59200000Y-69017000D01*
X59542857Y-68331285D02*
X58342857Y-68731285D01*
X59542857Y-69131285D01*
X59485714Y-70045571D02*
X59542857Y-69931285D01*
X59542857Y-69702714D01*
X59485714Y-69588428D01*
X59428571Y-69531285D01*
X59314285Y-69474142D01*
X58971428Y-69474142D01*
X58857142Y-69531285D01*
X58800000Y-69588428D01*
X58742857Y-69702714D01*
X58742857Y-69931285D01*
X58800000Y-70045571D01*
X58742857Y-70388428D02*
X58742857Y-70845571D01*
X58342857Y-70559857D02*
X59371428Y-70559857D01*
X59485714Y-70617000D01*
X59542857Y-70731285D01*
X59542857Y-70845571D01*
X58742857Y-71759857D02*
X59542857Y-71759857D01*
X58742857Y-71245571D02*
X59371428Y-71245571D01*
X59485714Y-71302714D01*
X59542857Y-71417000D01*
X59542857Y-71588428D01*
X59485714Y-71702714D01*
X59428571Y-71759857D01*
X59542857Y-72845571D02*
X58914285Y-72845571D01*
X58800000Y-72788428D01*
X58742857Y-72674142D01*
X58742857Y-72445571D01*
X58800000Y-72331285D01*
X59485714Y-72845571D02*
X59542857Y-72731285D01*
X59542857Y-72445571D01*
X59485714Y-72331285D01*
X59371428Y-72274142D01*
X59257142Y-72274142D01*
X59142857Y-72331285D01*
X59085714Y-72445571D01*
X59085714Y-72731285D01*
X59028571Y-72845571D01*
X58742857Y-73245571D02*
X58742857Y-73702714D01*
X58342857Y-73417000D02*
X59371428Y-73417000D01*
X59485714Y-73474142D01*
X59542857Y-73588428D01*
X59542857Y-73702714D01*
X59542857Y-74274142D02*
X59485714Y-74159857D01*
X59428571Y-74102714D01*
X59314285Y-74045571D01*
X58971428Y-74045571D01*
X58857142Y-74102714D01*
X58800000Y-74159857D01*
X58742857Y-74274142D01*
X58742857Y-74445571D01*
X58800000Y-74559857D01*
X58857142Y-74617000D01*
X58971428Y-74674142D01*
X59314285Y-74674142D01*
X59428571Y-74617000D01*
X59485714Y-74559857D01*
X59542857Y-74445571D01*
X59542857Y-74274142D01*
X59542857Y-75188428D02*
X58742857Y-75188428D01*
X58971428Y-75188428D02*
X58857142Y-75245571D01*
X58800000Y-75302714D01*
X58742857Y-75417000D01*
X58742857Y-75531285D01*
X59542857Y-76845571D02*
X58342857Y-76845571D01*
X58800000Y-76845571D02*
X58742857Y-76959857D01*
X58742857Y-77188428D01*
X58800000Y-77302714D01*
X58857142Y-77359857D01*
X58971428Y-77417000D01*
X59314285Y-77417000D01*
X59428571Y-77359857D01*
X59485714Y-77302714D01*
X59542857Y-77188428D01*
X59542857Y-76959857D01*
X59485714Y-76845571D01*
X59542857Y-78102714D02*
X59485714Y-77988428D01*
X59428571Y-77931285D01*
X59314285Y-77874142D01*
X58971428Y-77874142D01*
X58857142Y-77931285D01*
X58800000Y-77988428D01*
X58742857Y-78102714D01*
X58742857Y-78274142D01*
X58800000Y-78388428D01*
X58857142Y-78445571D01*
X58971428Y-78502714D01*
X59314285Y-78502714D01*
X59428571Y-78445571D01*
X59485714Y-78388428D01*
X59542857Y-78274142D01*
X59542857Y-78102714D01*
X59542857Y-79531285D02*
X58914285Y-79531285D01*
X58800000Y-79474142D01*
X58742857Y-79359857D01*
X58742857Y-79131285D01*
X58800000Y-79017000D01*
X59485714Y-79531285D02*
X59542857Y-79417000D01*
X59542857Y-79131285D01*
X59485714Y-79017000D01*
X59371428Y-78959857D01*
X59257142Y-78959857D01*
X59142857Y-79017000D01*
X59085714Y-79131285D01*
X59085714Y-79417000D01*
X59028571Y-79531285D01*
X59542857Y-80102714D02*
X58742857Y-80102714D01*
X58971428Y-80102714D02*
X58857142Y-80159857D01*
X58800000Y-80217000D01*
X58742857Y-80331285D01*
X58742857Y-80445571D01*
X59542857Y-81359857D02*
X58342857Y-81359857D01*
X59485714Y-81359857D02*
X59542857Y-81245571D01*
X59542857Y-81017000D01*
X59485714Y-80902714D01*
X59428571Y-80845571D01*
X59314285Y-80788428D01*
X58971428Y-80788428D01*
X58857142Y-80845571D01*
X58800000Y-80902714D01*
X58742857Y-81017000D01*
X58742857Y-81245571D01*
X58800000Y-81359857D01*
X59542857Y-83531285D02*
X58971428Y-83131285D01*
X59542857Y-82845571D02*
X58342857Y-82845571D01*
X58342857Y-83302714D01*
X58400000Y-83417000D01*
X58457142Y-83474142D01*
X58571428Y-83531285D01*
X58742857Y-83531285D01*
X58857142Y-83474142D01*
X58914285Y-83417000D01*
X58971428Y-83302714D01*
X58971428Y-82845571D01*
X59485714Y-84502714D02*
X59542857Y-84388428D01*
X59542857Y-84159857D01*
X59485714Y-84045571D01*
X59371428Y-83988428D01*
X58914285Y-83988428D01*
X58800000Y-84045571D01*
X58742857Y-84159857D01*
X58742857Y-84388428D01*
X58800000Y-84502714D01*
X58914285Y-84559857D01*
X59028571Y-84559857D01*
X59142857Y-83988428D01*
X58742857Y-84959857D02*
X59542857Y-85245571D01*
X58742857Y-85531285D01*
X59200000Y-85931285D02*
X59200000Y-86502714D01*
X59542857Y-85817000D02*
X58342857Y-86217000D01*
X59542857Y-86617000D01*
D13*
G36*
X54627319Y-69995991D02*
G01*
X54627330Y-70081778D01*
X54627354Y-70159857D01*
X54627393Y-70230607D01*
X54627452Y-70294408D01*
X54627535Y-70351639D01*
X54627644Y-70402679D01*
X54627785Y-70447908D01*
X54627961Y-70487704D01*
X54628174Y-70522448D01*
X54628431Y-70552519D01*
X54628733Y-70578295D01*
X54629085Y-70600157D01*
X54629490Y-70618483D01*
X54629953Y-70633653D01*
X54630477Y-70646046D01*
X54631066Y-70656042D01*
X54631723Y-70664019D01*
X54632453Y-70670358D01*
X54633258Y-70675437D01*
X54634144Y-70679636D01*
X54635066Y-70683167D01*
X54650491Y-70730245D01*
X54668771Y-70770926D01*
X54690921Y-70807081D01*
X54717955Y-70840575D01*
X54724116Y-70847202D01*
X54735096Y-70858522D01*
X54745706Y-70868767D01*
X54756762Y-70878488D01*
X54769078Y-70888233D01*
X54783472Y-70898553D01*
X54800757Y-70909997D01*
X54821751Y-70923115D01*
X54847268Y-70938456D01*
X54878124Y-70956569D01*
X54915134Y-70978006D01*
X54936350Y-70990226D01*
X54972921Y-71011272D01*
X55012627Y-71034129D01*
X55053492Y-71057659D01*
X55093542Y-71080725D01*
X55130802Y-71102190D01*
X55163299Y-71120918D01*
X55171944Y-71125903D01*
X55276306Y-71186072D01*
X55465790Y-70857361D01*
X55493739Y-70808872D01*
X55520482Y-70762471D01*
X55545715Y-70718685D01*
X55569135Y-70678038D01*
X55590440Y-70641055D01*
X55609328Y-70608262D01*
X55625497Y-70580184D01*
X55638643Y-70557347D01*
X55648464Y-70540274D01*
X55654657Y-70529493D01*
X55656918Y-70525531D01*
X55654765Y-70521469D01*
X55647618Y-70513195D01*
X55636783Y-70502158D01*
X55630506Y-70496167D01*
X55582697Y-70446507D01*
X55537888Y-70390188D01*
X55497111Y-70328784D01*
X55461397Y-70263870D01*
X55431780Y-70197021D01*
X55427964Y-70187025D01*
X55403404Y-70109344D01*
X55386860Y-70029765D01*
X55378298Y-69949010D01*
X55377682Y-69867800D01*
X55384979Y-69786858D01*
X55400153Y-69706904D01*
X55423169Y-69628662D01*
X55453994Y-69552851D01*
X55459022Y-69542284D01*
X55494612Y-69476165D01*
X55534952Y-69415433D01*
X55581388Y-69358217D01*
X55621717Y-69315800D01*
X55635740Y-69301753D01*
X55647222Y-69289909D01*
X55654999Y-69281492D01*
X55657910Y-69277727D01*
X55657910Y-69277700D01*
X55655810Y-69273805D01*
X55649771Y-69263106D01*
X55640094Y-69246128D01*
X55627082Y-69223396D01*
X55611034Y-69195435D01*
X55592253Y-69162769D01*
X55571041Y-69125922D01*
X55547699Y-69085419D01*
X55522529Y-69041785D01*
X55495832Y-68995544D01*
X55469295Y-68949617D01*
X55441370Y-68901332D01*
X55414620Y-68855132D01*
X55389354Y-68811545D01*
X55365879Y-68771099D01*
X55344502Y-68734322D01*
X55325530Y-68701741D01*
X55309271Y-68673884D01*
X55296032Y-68651279D01*
X55286121Y-68634454D01*
X55279845Y-68623937D01*
X55277532Y-68620273D01*
X55273296Y-68621644D01*
X55262496Y-68626928D01*
X55245846Y-68635712D01*
X55224060Y-68647584D01*
X55197852Y-68662130D01*
X55167936Y-68678937D01*
X55135027Y-68697591D01*
X55099837Y-68717680D01*
X55063081Y-68738791D01*
X55025472Y-68760509D01*
X54987726Y-68782423D01*
X54950555Y-68804119D01*
X54914674Y-68825184D01*
X54880796Y-68845204D01*
X54849636Y-68863767D01*
X54821907Y-68880460D01*
X54798323Y-68894868D01*
X54779599Y-68906580D01*
X54766448Y-68915181D01*
X54760506Y-68919475D01*
X54722360Y-68955527D01*
X54689352Y-68997543D01*
X54662341Y-69044180D01*
X54642189Y-69094096D01*
X54636781Y-69112600D01*
X54627316Y-69148583D01*
X54627316Y-69902117D01*
X54627319Y-69995991D01*
X54627319Y-69995991D01*
G37*
X54627319Y-69995991D02*
X54627330Y-70081778D01*
X54627354Y-70159857D01*
X54627393Y-70230607D01*
X54627452Y-70294408D01*
X54627535Y-70351639D01*
X54627644Y-70402679D01*
X54627785Y-70447908D01*
X54627961Y-70487704D01*
X54628174Y-70522448D01*
X54628431Y-70552519D01*
X54628733Y-70578295D01*
X54629085Y-70600157D01*
X54629490Y-70618483D01*
X54629953Y-70633653D01*
X54630477Y-70646046D01*
X54631066Y-70656042D01*
X54631723Y-70664019D01*
X54632453Y-70670358D01*
X54633258Y-70675437D01*
X54634144Y-70679636D01*
X54635066Y-70683167D01*
X54650491Y-70730245D01*
X54668771Y-70770926D01*
X54690921Y-70807081D01*
X54717955Y-70840575D01*
X54724116Y-70847202D01*
X54735096Y-70858522D01*
X54745706Y-70868767D01*
X54756762Y-70878488D01*
X54769078Y-70888233D01*
X54783472Y-70898553D01*
X54800757Y-70909997D01*
X54821751Y-70923115D01*
X54847268Y-70938456D01*
X54878124Y-70956569D01*
X54915134Y-70978006D01*
X54936350Y-70990226D01*
X54972921Y-71011272D01*
X55012627Y-71034129D01*
X55053492Y-71057659D01*
X55093542Y-71080725D01*
X55130802Y-71102190D01*
X55163299Y-71120918D01*
X55171944Y-71125903D01*
X55276306Y-71186072D01*
X55465790Y-70857361D01*
X55493739Y-70808872D01*
X55520482Y-70762471D01*
X55545715Y-70718685D01*
X55569135Y-70678038D01*
X55590440Y-70641055D01*
X55609328Y-70608262D01*
X55625497Y-70580184D01*
X55638643Y-70557347D01*
X55648464Y-70540274D01*
X55654657Y-70529493D01*
X55656918Y-70525531D01*
X55654765Y-70521469D01*
X55647618Y-70513195D01*
X55636783Y-70502158D01*
X55630506Y-70496167D01*
X55582697Y-70446507D01*
X55537888Y-70390188D01*
X55497111Y-70328784D01*
X55461397Y-70263870D01*
X55431780Y-70197021D01*
X55427964Y-70187025D01*
X55403404Y-70109344D01*
X55386860Y-70029765D01*
X55378298Y-69949010D01*
X55377682Y-69867800D01*
X55384979Y-69786858D01*
X55400153Y-69706904D01*
X55423169Y-69628662D01*
X55453994Y-69552851D01*
X55459022Y-69542284D01*
X55494612Y-69476165D01*
X55534952Y-69415433D01*
X55581388Y-69358217D01*
X55621717Y-69315800D01*
X55635740Y-69301753D01*
X55647222Y-69289909D01*
X55654999Y-69281492D01*
X55657910Y-69277727D01*
X55657910Y-69277700D01*
X55655810Y-69273805D01*
X55649771Y-69263106D01*
X55640094Y-69246128D01*
X55627082Y-69223396D01*
X55611034Y-69195435D01*
X55592253Y-69162769D01*
X55571041Y-69125922D01*
X55547699Y-69085419D01*
X55522529Y-69041785D01*
X55495832Y-68995544D01*
X55469295Y-68949617D01*
X55441370Y-68901332D01*
X55414620Y-68855132D01*
X55389354Y-68811545D01*
X55365879Y-68771099D01*
X55344502Y-68734322D01*
X55325530Y-68701741D01*
X55309271Y-68673884D01*
X55296032Y-68651279D01*
X55286121Y-68634454D01*
X55279845Y-68623937D01*
X55277532Y-68620273D01*
X55273296Y-68621644D01*
X55262496Y-68626928D01*
X55245846Y-68635712D01*
X55224060Y-68647584D01*
X55197852Y-68662130D01*
X55167936Y-68678937D01*
X55135027Y-68697591D01*
X55099837Y-68717680D01*
X55063081Y-68738791D01*
X55025472Y-68760509D01*
X54987726Y-68782423D01*
X54950555Y-68804119D01*
X54914674Y-68825184D01*
X54880796Y-68845204D01*
X54849636Y-68863767D01*
X54821907Y-68880460D01*
X54798323Y-68894868D01*
X54779599Y-68906580D01*
X54766448Y-68915181D01*
X54760506Y-68919475D01*
X54722360Y-68955527D01*
X54689352Y-68997543D01*
X54662341Y-69044180D01*
X54642189Y-69094096D01*
X54636781Y-69112600D01*
X54627316Y-69148583D01*
X54627316Y-69902117D01*
X54627319Y-69995991D01*
G36*
X55655164Y-69965156D02*
G01*
X55660968Y-70005125D01*
X55661753Y-70008939D01*
X55679995Y-70075259D01*
X55705490Y-70137774D01*
X55737811Y-70196007D01*
X55776528Y-70249484D01*
X55821214Y-70297726D01*
X55871441Y-70340259D01*
X55926779Y-70376606D01*
X55986803Y-70406290D01*
X56034900Y-70423978D01*
X56067724Y-70433581D01*
X56097715Y-70440396D01*
X56127571Y-70444803D01*
X56159988Y-70447183D01*
X56197666Y-70447918D01*
X56204233Y-70447909D01*
X56244043Y-70446975D01*
X56278387Y-70444183D01*
X56310152Y-70439076D01*
X56342221Y-70431198D01*
X56375385Y-70420801D01*
X56437702Y-70395374D01*
X56495755Y-70362920D01*
X56549060Y-70323987D01*
X56597135Y-70279122D01*
X56639499Y-70228874D01*
X56675668Y-70173790D01*
X56705161Y-70114419D01*
X56727494Y-70051307D01*
X56737818Y-70009160D01*
X56743351Y-69974508D01*
X56746964Y-69935925D01*
X56748510Y-69896623D01*
X56747842Y-69859809D01*
X56745807Y-69835845D01*
X56733490Y-69769717D01*
X56713519Y-69706363D01*
X56686362Y-69646360D01*
X56652486Y-69590288D01*
X56612358Y-69538726D01*
X56566445Y-69492253D01*
X56515214Y-69451448D01*
X56459133Y-69416891D01*
X56398668Y-69389159D01*
X56379916Y-69382316D01*
X56330415Y-69367556D01*
X56282105Y-69358153D01*
X56231619Y-69353556D01*
X56200000Y-69352876D01*
X56135152Y-69356554D01*
X56071594Y-69367355D01*
X56010862Y-69384927D01*
X55954495Y-69408919D01*
X55954446Y-69408944D01*
X55918855Y-69429197D01*
X55881643Y-69454398D01*
X55845775Y-69482378D01*
X55814219Y-69510970D01*
X55812650Y-69512535D01*
X55766922Y-69564228D01*
X55728429Y-69620225D01*
X55697339Y-69680219D01*
X55673817Y-69743901D01*
X55662007Y-69790215D01*
X55655795Y-69830125D01*
X55652581Y-69874614D01*
X55652370Y-69920638D01*
X55655164Y-69965156D01*
X55655164Y-69965156D01*
G37*
X55655164Y-69965156D02*
X55660968Y-70005125D01*
X55661753Y-70008939D01*
X55679995Y-70075259D01*
X55705490Y-70137774D01*
X55737811Y-70196007D01*
X55776528Y-70249484D01*
X55821214Y-70297726D01*
X55871441Y-70340259D01*
X55926779Y-70376606D01*
X55986803Y-70406290D01*
X56034900Y-70423978D01*
X56067724Y-70433581D01*
X56097715Y-70440396D01*
X56127571Y-70444803D01*
X56159988Y-70447183D01*
X56197666Y-70447918D01*
X56204233Y-70447909D01*
X56244043Y-70446975D01*
X56278387Y-70444183D01*
X56310152Y-70439076D01*
X56342221Y-70431198D01*
X56375385Y-70420801D01*
X56437702Y-70395374D01*
X56495755Y-70362920D01*
X56549060Y-70323987D01*
X56597135Y-70279122D01*
X56639499Y-70228874D01*
X56675668Y-70173790D01*
X56705161Y-70114419D01*
X56727494Y-70051307D01*
X56737818Y-70009160D01*
X56743351Y-69974508D01*
X56746964Y-69935925D01*
X56748510Y-69896623D01*
X56747842Y-69859809D01*
X56745807Y-69835845D01*
X56733490Y-69769717D01*
X56713519Y-69706363D01*
X56686362Y-69646360D01*
X56652486Y-69590288D01*
X56612358Y-69538726D01*
X56566445Y-69492253D01*
X56515214Y-69451448D01*
X56459133Y-69416891D01*
X56398668Y-69389159D01*
X56379916Y-69382316D01*
X56330415Y-69367556D01*
X56282105Y-69358153D01*
X56231619Y-69353556D01*
X56200000Y-69352876D01*
X56135152Y-69356554D01*
X56071594Y-69367355D01*
X56010862Y-69384927D01*
X55954495Y-69408919D01*
X55954446Y-69408944D01*
X55918855Y-69429197D01*
X55881643Y-69454398D01*
X55845775Y-69482378D01*
X55814219Y-69510970D01*
X55812650Y-69512535D01*
X55766922Y-69564228D01*
X55728429Y-69620225D01*
X55697339Y-69680219D01*
X55673817Y-69743901D01*
X55662007Y-69790215D01*
X55655795Y-69830125D01*
X55652581Y-69874614D01*
X55652370Y-69920638D01*
X55655164Y-69965156D01*
G36*
X55555916Y-71344873D02*
G01*
X55566144Y-71351466D01*
X55582298Y-71361384D01*
X55603654Y-71374208D01*
X55629488Y-71389523D01*
X55659075Y-71406912D01*
X55691691Y-71425957D01*
X55726611Y-71446242D01*
X55763110Y-71467351D01*
X55800465Y-71488865D01*
X55837951Y-71510370D01*
X55874843Y-71531447D01*
X55910417Y-71551680D01*
X55943949Y-71570652D01*
X55974713Y-71587947D01*
X56001986Y-71603147D01*
X56025042Y-71615836D01*
X56043158Y-71625597D01*
X56055610Y-71632013D01*
X56059815Y-71633979D01*
X56107429Y-71650003D01*
X56158141Y-71659074D01*
X56210231Y-71661193D01*
X56261976Y-71656359D01*
X56311657Y-71644572D01*
X56340083Y-71634023D01*
X56347091Y-71630476D01*
X56360949Y-71622951D01*
X56381186Y-71611720D01*
X56407330Y-71597056D01*
X56438908Y-71579229D01*
X56475448Y-71558513D01*
X56516478Y-71535179D01*
X56561526Y-71509498D01*
X56610119Y-71481744D01*
X56661786Y-71452187D01*
X56716054Y-71421099D01*
X56772451Y-71388753D01*
X56830505Y-71355420D01*
X56889744Y-71321373D01*
X56949695Y-71286882D01*
X57009886Y-71252221D01*
X57069846Y-71217660D01*
X57129101Y-71183473D01*
X57187180Y-71149930D01*
X57243611Y-71117304D01*
X57297922Y-71085866D01*
X57349639Y-71055889D01*
X57398292Y-71027644D01*
X57443407Y-71001403D01*
X57484513Y-70977438D01*
X57521138Y-70956022D01*
X57552809Y-70937425D01*
X57579054Y-70921920D01*
X57599401Y-70909779D01*
X57613378Y-70901273D01*
X57620301Y-70896825D01*
X57652214Y-70870740D01*
X57682909Y-70838865D01*
X57710592Y-70803445D01*
X57733471Y-70766724D01*
X57746998Y-70738200D01*
X57751737Y-70726496D01*
X57755847Y-70716243D01*
X57759375Y-70706775D01*
X57762369Y-70697423D01*
X57764875Y-70687520D01*
X57766941Y-70676398D01*
X57768615Y-70663391D01*
X57769943Y-70647829D01*
X57770973Y-70629047D01*
X57771753Y-70606375D01*
X57772329Y-70579148D01*
X57772749Y-70546696D01*
X57773059Y-70508353D01*
X57773309Y-70463451D01*
X57773544Y-70411323D01*
X57773770Y-70360375D01*
X57775166Y-70056633D01*
X57009757Y-70056633D01*
X56998710Y-70100917D01*
X56974745Y-70179815D01*
X56943276Y-70255228D01*
X56904704Y-70326708D01*
X56859428Y-70393805D01*
X56807850Y-70456072D01*
X56750367Y-70513057D01*
X56687382Y-70564314D01*
X56619294Y-70609392D01*
X56546503Y-70647844D01*
X56489983Y-70671715D01*
X56430917Y-70691820D01*
X56372934Y-70706561D01*
X56313738Y-70716343D01*
X56251030Y-70721569D01*
X56200000Y-70722744D01*
X56157770Y-70722278D01*
X56121356Y-70720572D01*
X56088158Y-70717300D01*
X56055572Y-70712134D01*
X56020999Y-70704747D01*
X55985370Y-70695753D01*
X55966283Y-70690774D01*
X55950131Y-70686726D01*
X55938708Y-70684046D01*
X55933916Y-70683167D01*
X55929840Y-70686567D01*
X55923350Y-70695395D01*
X55917226Y-70705392D01*
X55910343Y-70717419D01*
X55900432Y-70734647D01*
X55888716Y-70754957D01*
X55876416Y-70776227D01*
X55873922Y-70780534D01*
X55860747Y-70803294D01*
X55844207Y-70831899D01*
X55824883Y-70865342D01*
X55803355Y-70902615D01*
X55780206Y-70942711D01*
X55756014Y-70984624D01*
X55731363Y-71027345D01*
X55706832Y-71069869D01*
X55683003Y-71111188D01*
X55660457Y-71150294D01*
X55639775Y-71186182D01*
X55621538Y-71217843D01*
X55606326Y-71244271D01*
X55594722Y-71264459D01*
X55593940Y-71265820D01*
X55581162Y-71288261D01*
X55569975Y-71308253D01*
X55561021Y-71324621D01*
X55554942Y-71336188D01*
X55552381Y-71341778D01*
X55552340Y-71342020D01*
X55555916Y-71344873D01*
X55555916Y-71344873D01*
G37*
X55555916Y-71344873D02*
X55566144Y-71351466D01*
X55582298Y-71361384D01*
X55603654Y-71374208D01*
X55629488Y-71389523D01*
X55659075Y-71406912D01*
X55691691Y-71425957D01*
X55726611Y-71446242D01*
X55763110Y-71467351D01*
X55800465Y-71488865D01*
X55837951Y-71510370D01*
X55874843Y-71531447D01*
X55910417Y-71551680D01*
X55943949Y-71570652D01*
X55974713Y-71587947D01*
X56001986Y-71603147D01*
X56025042Y-71615836D01*
X56043158Y-71625597D01*
X56055610Y-71632013D01*
X56059815Y-71633979D01*
X56107429Y-71650003D01*
X56158141Y-71659074D01*
X56210231Y-71661193D01*
X56261976Y-71656359D01*
X56311657Y-71644572D01*
X56340083Y-71634023D01*
X56347091Y-71630476D01*
X56360949Y-71622951D01*
X56381186Y-71611720D01*
X56407330Y-71597056D01*
X56438908Y-71579229D01*
X56475448Y-71558513D01*
X56516478Y-71535179D01*
X56561526Y-71509498D01*
X56610119Y-71481744D01*
X56661786Y-71452187D01*
X56716054Y-71421099D01*
X56772451Y-71388753D01*
X56830505Y-71355420D01*
X56889744Y-71321373D01*
X56949695Y-71286882D01*
X57009886Y-71252221D01*
X57069846Y-71217660D01*
X57129101Y-71183473D01*
X57187180Y-71149930D01*
X57243611Y-71117304D01*
X57297922Y-71085866D01*
X57349639Y-71055889D01*
X57398292Y-71027644D01*
X57443407Y-71001403D01*
X57484513Y-70977438D01*
X57521138Y-70956022D01*
X57552809Y-70937425D01*
X57579054Y-70921920D01*
X57599401Y-70909779D01*
X57613378Y-70901273D01*
X57620301Y-70896825D01*
X57652214Y-70870740D01*
X57682909Y-70838865D01*
X57710592Y-70803445D01*
X57733471Y-70766724D01*
X57746998Y-70738200D01*
X57751737Y-70726496D01*
X57755847Y-70716243D01*
X57759375Y-70706775D01*
X57762369Y-70697423D01*
X57764875Y-70687520D01*
X57766941Y-70676398D01*
X57768615Y-70663391D01*
X57769943Y-70647829D01*
X57770973Y-70629047D01*
X57771753Y-70606375D01*
X57772329Y-70579148D01*
X57772749Y-70546696D01*
X57773059Y-70508353D01*
X57773309Y-70463451D01*
X57773544Y-70411323D01*
X57773770Y-70360375D01*
X57775166Y-70056633D01*
X57009757Y-70056633D01*
X56998710Y-70100917D01*
X56974745Y-70179815D01*
X56943276Y-70255228D01*
X56904704Y-70326708D01*
X56859428Y-70393805D01*
X56807850Y-70456072D01*
X56750367Y-70513057D01*
X56687382Y-70564314D01*
X56619294Y-70609392D01*
X56546503Y-70647844D01*
X56489983Y-70671715D01*
X56430917Y-70691820D01*
X56372934Y-70706561D01*
X56313738Y-70716343D01*
X56251030Y-70721569D01*
X56200000Y-70722744D01*
X56157770Y-70722278D01*
X56121356Y-70720572D01*
X56088158Y-70717300D01*
X56055572Y-70712134D01*
X56020999Y-70704747D01*
X55985370Y-70695753D01*
X55966283Y-70690774D01*
X55950131Y-70686726D01*
X55938708Y-70684046D01*
X55933916Y-70683167D01*
X55929840Y-70686567D01*
X55923350Y-70695395D01*
X55917226Y-70705392D01*
X55910343Y-70717419D01*
X55900432Y-70734647D01*
X55888716Y-70754957D01*
X55876416Y-70776227D01*
X55873922Y-70780534D01*
X55860747Y-70803294D01*
X55844207Y-70831899D01*
X55824883Y-70865342D01*
X55803355Y-70902615D01*
X55780206Y-70942711D01*
X55756014Y-70984624D01*
X55731363Y-71027345D01*
X55706832Y-71069869D01*
X55683003Y-71111188D01*
X55660457Y-71150294D01*
X55639775Y-71186182D01*
X55621538Y-71217843D01*
X55606326Y-71244271D01*
X55594722Y-71264459D01*
X55593940Y-71265820D01*
X55581162Y-71288261D01*
X55569975Y-71308253D01*
X55561021Y-71324621D01*
X55554942Y-71336188D01*
X55552381Y-71341778D01*
X55552340Y-71342020D01*
X55555916Y-71344873D01*
G36*
X55551435Y-68461616D02*
G01*
X55557207Y-68471924D01*
X55566436Y-68488186D01*
X55578728Y-68509713D01*
X55593690Y-68535820D01*
X55610928Y-68565820D01*
X55630050Y-68599025D01*
X55650663Y-68634749D01*
X55657702Y-68646933D01*
X55682524Y-68689896D01*
X55709125Y-68735951D01*
X55736593Y-68783518D01*
X55764017Y-68831020D01*
X55790486Y-68876878D01*
X55815088Y-68919513D01*
X55836911Y-68957347D01*
X55848320Y-68977133D01*
X55866492Y-69008637D01*
X55883314Y-69037772D01*
X55898325Y-69063739D01*
X55911061Y-69085738D01*
X55921061Y-69102972D01*
X55927861Y-69114640D01*
X55930999Y-69119944D01*
X55931151Y-69120176D01*
X55935387Y-69119566D01*
X55946030Y-69116966D01*
X55961376Y-69112816D01*
X55976154Y-69108597D01*
X56011333Y-69099051D01*
X56044214Y-69091825D01*
X56077166Y-69086581D01*
X56112556Y-69082980D01*
X56152753Y-69080682D01*
X56176812Y-69079877D01*
X56236599Y-69079688D01*
X56290963Y-69082800D01*
X56342415Y-69089552D01*
X56393464Y-69100281D01*
X56446620Y-69115327D01*
X56451883Y-69116997D01*
X56527611Y-69145564D01*
X56599748Y-69181399D01*
X56667820Y-69223990D01*
X56731352Y-69272821D01*
X56789871Y-69327380D01*
X56842902Y-69387153D01*
X56889970Y-69451625D01*
X56930603Y-69520285D01*
X56964326Y-69592617D01*
X56990664Y-69668109D01*
X57002432Y-69713414D01*
X57009245Y-69743367D01*
X57774800Y-69743367D01*
X57774463Y-69452325D01*
X57774361Y-69392475D01*
X57774197Y-69340518D01*
X57773959Y-69295878D01*
X57773636Y-69257983D01*
X57773216Y-69226257D01*
X57772689Y-69200128D01*
X57772044Y-69179020D01*
X57771269Y-69162359D01*
X57770352Y-69149572D01*
X57769283Y-69140083D01*
X57768261Y-69134245D01*
X57752157Y-69078297D01*
X57729235Y-69027227D01*
X57699616Y-68981219D01*
X57663420Y-68940454D01*
X57620767Y-68905116D01*
X57613368Y-68899989D01*
X57605936Y-68895336D01*
X57591680Y-68886777D01*
X57571076Y-68874589D01*
X57544600Y-68859044D01*
X57512728Y-68840417D01*
X57475937Y-68818982D01*
X57434701Y-68795014D01*
X57389498Y-68768785D01*
X57340804Y-68740571D01*
X57289093Y-68710645D01*
X57234843Y-68679282D01*
X57178529Y-68646756D01*
X57120628Y-68613341D01*
X57061615Y-68579311D01*
X57001967Y-68544940D01*
X56942159Y-68510502D01*
X56882668Y-68476272D01*
X56823969Y-68442523D01*
X56766539Y-68409531D01*
X56710854Y-68377568D01*
X56657389Y-68346908D01*
X56606621Y-68317827D01*
X56559026Y-68290599D01*
X56515080Y-68265496D01*
X56475258Y-68242794D01*
X56440038Y-68222767D01*
X56409894Y-68205689D01*
X56385304Y-68191833D01*
X56366742Y-68181474D01*
X56354686Y-68174887D01*
X56350283Y-68172625D01*
X56319120Y-68159463D01*
X56289980Y-68150319D01*
X56260170Y-68144650D01*
X56226998Y-68141913D01*
X56195766Y-68141474D01*
X56170257Y-68141901D01*
X56150644Y-68142961D01*
X56134364Y-68144969D01*
X56118852Y-68148245D01*
X56101543Y-68153104D01*
X56101377Y-68153154D01*
X56080733Y-68160014D01*
X56059515Y-68168070D01*
X56041658Y-68175808D01*
X56038493Y-68177357D01*
X56032130Y-68180816D01*
X56019398Y-68187951D01*
X56001041Y-68198335D01*
X55977805Y-68211539D01*
X55950433Y-68227137D01*
X55919673Y-68244701D01*
X55886268Y-68263802D01*
X55850964Y-68284015D01*
X55814507Y-68304910D01*
X55777640Y-68326061D01*
X55741110Y-68347039D01*
X55705662Y-68367418D01*
X55672040Y-68386769D01*
X55640990Y-68404665D01*
X55613257Y-68420679D01*
X55589586Y-68434383D01*
X55570722Y-68445349D01*
X55557411Y-68453149D01*
X55550398Y-68457357D01*
X55549512Y-68457948D01*
X55551435Y-68461616D01*
X55551435Y-68461616D01*
G37*
X55551435Y-68461616D02*
X55557207Y-68471924D01*
X55566436Y-68488186D01*
X55578728Y-68509713D01*
X55593690Y-68535820D01*
X55610928Y-68565820D01*
X55630050Y-68599025D01*
X55650663Y-68634749D01*
X55657702Y-68646933D01*
X55682524Y-68689896D01*
X55709125Y-68735951D01*
X55736593Y-68783518D01*
X55764017Y-68831020D01*
X55790486Y-68876878D01*
X55815088Y-68919513D01*
X55836911Y-68957347D01*
X55848320Y-68977133D01*
X55866492Y-69008637D01*
X55883314Y-69037772D01*
X55898325Y-69063739D01*
X55911061Y-69085738D01*
X55921061Y-69102972D01*
X55927861Y-69114640D01*
X55930999Y-69119944D01*
X55931151Y-69120176D01*
X55935387Y-69119566D01*
X55946030Y-69116966D01*
X55961376Y-69112816D01*
X55976154Y-69108597D01*
X56011333Y-69099051D01*
X56044214Y-69091825D01*
X56077166Y-69086581D01*
X56112556Y-69082980D01*
X56152753Y-69080682D01*
X56176812Y-69079877D01*
X56236599Y-69079688D01*
X56290963Y-69082800D01*
X56342415Y-69089552D01*
X56393464Y-69100281D01*
X56446620Y-69115327D01*
X56451883Y-69116997D01*
X56527611Y-69145564D01*
X56599748Y-69181399D01*
X56667820Y-69223990D01*
X56731352Y-69272821D01*
X56789871Y-69327380D01*
X56842902Y-69387153D01*
X56889970Y-69451625D01*
X56930603Y-69520285D01*
X56964326Y-69592617D01*
X56990664Y-69668109D01*
X57002432Y-69713414D01*
X57009245Y-69743367D01*
X57774800Y-69743367D01*
X57774463Y-69452325D01*
X57774361Y-69392475D01*
X57774197Y-69340518D01*
X57773959Y-69295878D01*
X57773636Y-69257983D01*
X57773216Y-69226257D01*
X57772689Y-69200128D01*
X57772044Y-69179020D01*
X57771269Y-69162359D01*
X57770352Y-69149572D01*
X57769283Y-69140083D01*
X57768261Y-69134245D01*
X57752157Y-69078297D01*
X57729235Y-69027227D01*
X57699616Y-68981219D01*
X57663420Y-68940454D01*
X57620767Y-68905116D01*
X57613368Y-68899989D01*
X57605936Y-68895336D01*
X57591680Y-68886777D01*
X57571076Y-68874589D01*
X57544600Y-68859044D01*
X57512728Y-68840417D01*
X57475937Y-68818982D01*
X57434701Y-68795014D01*
X57389498Y-68768785D01*
X57340804Y-68740571D01*
X57289093Y-68710645D01*
X57234843Y-68679282D01*
X57178529Y-68646756D01*
X57120628Y-68613341D01*
X57061615Y-68579311D01*
X57001967Y-68544940D01*
X56942159Y-68510502D01*
X56882668Y-68476272D01*
X56823969Y-68442523D01*
X56766539Y-68409531D01*
X56710854Y-68377568D01*
X56657389Y-68346908D01*
X56606621Y-68317827D01*
X56559026Y-68290599D01*
X56515080Y-68265496D01*
X56475258Y-68242794D01*
X56440038Y-68222767D01*
X56409894Y-68205689D01*
X56385304Y-68191833D01*
X56366742Y-68181474D01*
X56354686Y-68174887D01*
X56350283Y-68172625D01*
X56319120Y-68159463D01*
X56289980Y-68150319D01*
X56260170Y-68144650D01*
X56226998Y-68141913D01*
X56195766Y-68141474D01*
X56170257Y-68141901D01*
X56150644Y-68142961D01*
X56134364Y-68144969D01*
X56118852Y-68148245D01*
X56101543Y-68153104D01*
X56101377Y-68153154D01*
X56080733Y-68160014D01*
X56059515Y-68168070D01*
X56041658Y-68175808D01*
X56038493Y-68177357D01*
X56032130Y-68180816D01*
X56019398Y-68187951D01*
X56001041Y-68198335D01*
X55977805Y-68211539D01*
X55950433Y-68227137D01*
X55919673Y-68244701D01*
X55886268Y-68263802D01*
X55850964Y-68284015D01*
X55814507Y-68304910D01*
X55777640Y-68326061D01*
X55741110Y-68347039D01*
X55705662Y-68367418D01*
X55672040Y-68386769D01*
X55640990Y-68404665D01*
X55613257Y-68420679D01*
X55589586Y-68434383D01*
X55570722Y-68445349D01*
X55557411Y-68453149D01*
X55550398Y-68457357D01*
X55549512Y-68457948D01*
X55551435Y-68461616D01*
D14*
X55410000Y-96737221D02*
X55410000Y-97062779D01*
X54390000Y-96737221D02*
X54390000Y-97062779D01*
X62790000Y-97062779D02*
X62790000Y-96737221D01*
X63810000Y-97062779D02*
X63810000Y-96737221D01*
X63400000Y-63800000D02*
X59550000Y-63800000D01*
X63400000Y-65800000D02*
X59550000Y-65800000D01*
X63400000Y-63800000D02*
X63400000Y-65800000D01*
X63400000Y-61500000D02*
X63400000Y-63500000D01*
X63400000Y-63500000D02*
X59550000Y-63500000D01*
X63400000Y-61500000D02*
X59550000Y-61500000D01*
X54600000Y-63500000D02*
X54600000Y-61500000D01*
X54600000Y-61500000D02*
X58450000Y-61500000D01*
X54600000Y-63500000D02*
X58450000Y-63500000D01*
X54600000Y-65800000D02*
X58450000Y-65800000D01*
X54600000Y-63800000D02*
X58450000Y-63800000D01*
X54600000Y-65800000D02*
X54600000Y-63800000D01*
X57400000Y-92400000D02*
G75*
G03X57400000Y-92400000I-700000J0D01*
G01*
X58900000Y-92400000D02*
G75*
G03X58900000Y-92400000I-700000J0D01*
G01*
X55900000Y-92400000D02*
G75*
G03X55900000Y-92400000I-700000J0D01*
G01*
X60400000Y-92400000D02*
G75*
G03X60400000Y-92400000I-700000J0D01*
G01*
X61900000Y-92400000D02*
G75*
G03X61900000Y-92400000I-700000J0D01*
G01*
X52160000Y-81985000D02*
X52610000Y-81985000D01*
X52610000Y-81985000D02*
X52610000Y-81035000D01*
X52610000Y-81035000D02*
X54100000Y-81035000D01*
X52160000Y-75015000D02*
X52610000Y-75015000D01*
X52610000Y-75015000D02*
X52610000Y-75965000D01*
X48640000Y-81985000D02*
X48190000Y-81985000D01*
X48190000Y-81985000D02*
X48190000Y-75015000D01*
X48190000Y-75015000D02*
X48640000Y-75015000D01*
X56400000Y-99500000D02*
X56400000Y-94300000D01*
X60300000Y-94300000D02*
X56400000Y-94300000D01*
X61600000Y-99500000D02*
X61600000Y-94300000D01*
X56400000Y-99500000D02*
X61600000Y-99500000D01*
X48240000Y-86790000D02*
X51660000Y-86790000D01*
X51660000Y-86790000D02*
X51660000Y-97510000D01*
X51660000Y-97510000D02*
X48240000Y-97510000D01*
X48240000Y-97510000D02*
X48240000Y-86790000D01*
X51150000Y-92150000D02*
X51150000Y-87300000D01*
X51150000Y-87300000D02*
X50400000Y-87300000D01*
X50400000Y-87300000D02*
X50400000Y-87100000D01*
X50400000Y-87100000D02*
X49600000Y-87100000D01*
X49600000Y-87100000D02*
X49600000Y-87300000D01*
X49600000Y-87300000D02*
X48750000Y-87300000D01*
X48750000Y-87300000D02*
X48750000Y-92150000D01*
X51150000Y-92150000D02*
X51150000Y-97000000D01*
X51150000Y-97000000D02*
X50400000Y-97000000D01*
X50400000Y-97000000D02*
X50400000Y-97200000D01*
X50400000Y-97200000D02*
X49600000Y-97200000D01*
X49600000Y-97200000D02*
X49600000Y-97000000D01*
X49600000Y-97000000D02*
X48750000Y-97000000D01*
X48750000Y-97000000D02*
X48750000Y-92150000D01*
X51950000Y-86500000D02*
X50950000Y-86500000D01*
X51950000Y-86500000D02*
X51950000Y-87500000D01*
X52160000Y-68260000D02*
X52610000Y-68260000D01*
X52610000Y-68260000D02*
X52610000Y-67310000D01*
X52610000Y-67310000D02*
X54100000Y-67310000D01*
X52160000Y-62540000D02*
X52610000Y-62540000D01*
X52610000Y-62540000D02*
X52610000Y-63490000D01*
X48640000Y-68260000D02*
X48190000Y-68260000D01*
X48190000Y-68260000D02*
X48190000Y-62540000D01*
X48190000Y-62540000D02*
X48640000Y-62540000D01*
X69810000Y-68260000D02*
X69360000Y-68260000D01*
X69810000Y-62540000D02*
X69810000Y-68260000D01*
X69360000Y-62540000D02*
X69810000Y-62540000D01*
X65390000Y-68260000D02*
X65390000Y-67310000D01*
X65840000Y-68260000D02*
X65390000Y-68260000D01*
X65390000Y-63490000D02*
X63900000Y-63490000D01*
X65390000Y-62540000D02*
X65390000Y-63490000D01*
X65840000Y-62540000D02*
X65390000Y-62540000D01*
D10*
X54050000Y-96450000D02*
X54083333Y-96416666D01*
X54116666Y-96316666D01*
X54116666Y-96250000D01*
X54083333Y-96150000D01*
X54016666Y-96083333D01*
X53950000Y-96050000D01*
X53816666Y-96016666D01*
X53716666Y-96016666D01*
X53583333Y-96050000D01*
X53516666Y-96083333D01*
X53450000Y-96150000D01*
X53416666Y-96250000D01*
X53416666Y-96316666D01*
X53450000Y-96416666D01*
X53483333Y-96450000D01*
X54116666Y-97116666D02*
X54116666Y-96716666D01*
X54116666Y-96916666D02*
X53416666Y-96916666D01*
X53516666Y-96850000D01*
X53583333Y-96783333D01*
X53616666Y-96716666D01*
X53416666Y-97350000D02*
X53416666Y-97783333D01*
X53683333Y-97550000D01*
X53683333Y-97650000D01*
X53716666Y-97716666D01*
X53750000Y-97750000D01*
X53816666Y-97783333D01*
X53983333Y-97783333D01*
X54050000Y-97750000D01*
X54083333Y-97716666D01*
X54116666Y-97650000D01*
X54116666Y-97450000D01*
X54083333Y-97383333D01*
X54050000Y-97350000D01*
X64750000Y-96450000D02*
X64783333Y-96416666D01*
X64816666Y-96316666D01*
X64816666Y-96250000D01*
X64783333Y-96150000D01*
X64716666Y-96083333D01*
X64650000Y-96050000D01*
X64516666Y-96016666D01*
X64416666Y-96016666D01*
X64283333Y-96050000D01*
X64216666Y-96083333D01*
X64150000Y-96150000D01*
X64116666Y-96250000D01*
X64116666Y-96316666D01*
X64150000Y-96416666D01*
X64183333Y-96450000D01*
X64816666Y-97116666D02*
X64816666Y-96716666D01*
X64816666Y-96916666D02*
X64116666Y-96916666D01*
X64216666Y-96850000D01*
X64283333Y-96783333D01*
X64316666Y-96716666D01*
X64350000Y-97716666D02*
X64816666Y-97716666D01*
X64083333Y-97550000D02*
X64583333Y-97383333D01*
X64583333Y-97816666D01*
X61716666Y-66816666D02*
X61716666Y-66116666D01*
X61550000Y-66116666D01*
X61450000Y-66150000D01*
X61383333Y-66216666D01*
X61350000Y-66283333D01*
X61316666Y-66416666D01*
X61316666Y-66516666D01*
X61350000Y-66650000D01*
X61383333Y-66716666D01*
X61450000Y-66783333D01*
X61550000Y-66816666D01*
X61716666Y-66816666D01*
X61083333Y-66116666D02*
X60650000Y-66116666D01*
X60883333Y-66383333D01*
X60783333Y-66383333D01*
X60716666Y-66416666D01*
X60683333Y-66450000D01*
X60650000Y-66516666D01*
X60650000Y-66683333D01*
X60683333Y-66750000D01*
X60716666Y-66783333D01*
X60783333Y-66816666D01*
X60983333Y-66816666D01*
X61050000Y-66783333D01*
X61083333Y-66750000D01*
X61716666Y-61216666D02*
X61716666Y-60516666D01*
X61550000Y-60516666D01*
X61450000Y-60550000D01*
X61383333Y-60616666D01*
X61350000Y-60683333D01*
X61316666Y-60816666D01*
X61316666Y-60916666D01*
X61350000Y-61050000D01*
X61383333Y-61116666D01*
X61450000Y-61183333D01*
X61550000Y-61216666D01*
X61716666Y-61216666D01*
X60716666Y-60750000D02*
X60716666Y-61216666D01*
X60883333Y-60483333D02*
X61050000Y-60983333D01*
X60616666Y-60983333D01*
X57316666Y-61216666D02*
X57316666Y-60516666D01*
X57150000Y-60516666D01*
X57050000Y-60550000D01*
X56983333Y-60616666D01*
X56950000Y-60683333D01*
X56916666Y-60816666D01*
X56916666Y-60916666D01*
X56950000Y-61050000D01*
X56983333Y-61116666D01*
X57050000Y-61183333D01*
X57150000Y-61216666D01*
X57316666Y-61216666D01*
X56283333Y-60516666D02*
X56616666Y-60516666D01*
X56650000Y-60850000D01*
X56616666Y-60816666D01*
X56550000Y-60783333D01*
X56383333Y-60783333D01*
X56316666Y-60816666D01*
X56283333Y-60850000D01*
X56250000Y-60916666D01*
X56250000Y-61083333D01*
X56283333Y-61150000D01*
X56316666Y-61183333D01*
X56383333Y-61216666D01*
X56550000Y-61216666D01*
X56616666Y-61183333D01*
X56650000Y-61150000D01*
X57316666Y-66816666D02*
X57316666Y-66116666D01*
X57150000Y-66116666D01*
X57050000Y-66150000D01*
X56983333Y-66216666D01*
X56950000Y-66283333D01*
X56916666Y-66416666D01*
X56916666Y-66516666D01*
X56950000Y-66650000D01*
X56983333Y-66716666D01*
X57050000Y-66783333D01*
X57150000Y-66816666D01*
X57316666Y-66816666D01*
X56316666Y-66116666D02*
X56450000Y-66116666D01*
X56516666Y-66150000D01*
X56550000Y-66183333D01*
X56616666Y-66283333D01*
X56650000Y-66416666D01*
X56650000Y-66683333D01*
X56616666Y-66750000D01*
X56583333Y-66783333D01*
X56516666Y-66816666D01*
X56383333Y-66816666D01*
X56316666Y-66783333D01*
X56283333Y-66750000D01*
X56250000Y-66683333D01*
X56250000Y-66516666D01*
X56283333Y-66450000D01*
X56316666Y-66416666D01*
X56383333Y-66383333D01*
X56516666Y-66383333D01*
X56583333Y-66416666D01*
X56616666Y-66450000D01*
X56650000Y-66516666D01*
X53116666Y-81766666D02*
X53616666Y-81766666D01*
X53716666Y-81733333D01*
X53783333Y-81666666D01*
X53816666Y-81566666D01*
X53816666Y-81500000D01*
X53416666Y-82200000D02*
X53383333Y-82133333D01*
X53350000Y-82100000D01*
X53283333Y-82066666D01*
X53250000Y-82066666D01*
X53183333Y-82100000D01*
X53150000Y-82133333D01*
X53116666Y-82200000D01*
X53116666Y-82333333D01*
X53150000Y-82400000D01*
X53183333Y-82433333D01*
X53250000Y-82466666D01*
X53283333Y-82466666D01*
X53350000Y-82433333D01*
X53383333Y-82400000D01*
X53416666Y-82333333D01*
X53416666Y-82200000D01*
X53450000Y-82133333D01*
X53483333Y-82100000D01*
X53550000Y-82066666D01*
X53683333Y-82066666D01*
X53750000Y-82100000D01*
X53783333Y-82133333D01*
X53816666Y-82200000D01*
X53816666Y-82333333D01*
X53783333Y-82400000D01*
X53750000Y-82433333D01*
X53683333Y-82466666D01*
X53550000Y-82466666D01*
X53483333Y-82433333D01*
X53450000Y-82400000D01*
X53416666Y-82333333D01*
X57533333Y-93316666D02*
X57533333Y-93883333D01*
X57500000Y-93950000D01*
X57466666Y-93983333D01*
X57400000Y-94016666D01*
X57266666Y-94016666D01*
X57200000Y-93983333D01*
X57166666Y-93950000D01*
X57133333Y-93883333D01*
X57133333Y-93316666D01*
X56500000Y-93550000D02*
X56500000Y-94016666D01*
X56666666Y-93283333D02*
X56833333Y-93783333D01*
X56400000Y-93783333D01*
X52316666Y-86466666D02*
X52816666Y-86466666D01*
X52916666Y-86433333D01*
X52983333Y-86366666D01*
X53016666Y-86266666D01*
X53016666Y-86200000D01*
X52316666Y-87133333D02*
X52316666Y-86800000D01*
X52650000Y-86766666D01*
X52616666Y-86800000D01*
X52583333Y-86866666D01*
X52583333Y-87033333D01*
X52616666Y-87100000D01*
X52650000Y-87133333D01*
X52716666Y-87166666D01*
X52883333Y-87166666D01*
X52950000Y-87133333D01*
X52983333Y-87100000D01*
X53016666Y-87033333D01*
X53016666Y-86866666D01*
X52983333Y-86800000D01*
X52950000Y-86766666D01*
X53016666Y-68066666D02*
X53516666Y-68066666D01*
X53616666Y-68033333D01*
X53683333Y-67966666D01*
X53716666Y-67866666D01*
X53716666Y-67800000D01*
X53716666Y-68433333D02*
X53716666Y-68566666D01*
X53683333Y-68633333D01*
X53650000Y-68666666D01*
X53550000Y-68733333D01*
X53416666Y-68766666D01*
X53150000Y-68766666D01*
X53083333Y-68733333D01*
X53050000Y-68700000D01*
X53016666Y-68633333D01*
X53016666Y-68500000D01*
X53050000Y-68433333D01*
X53083333Y-68400000D01*
X53150000Y-68366666D01*
X53316666Y-68366666D01*
X53383333Y-68400000D01*
X53416666Y-68433333D01*
X53450000Y-68500000D01*
X53450000Y-68633333D01*
X53416666Y-68700000D01*
X53383333Y-68733333D01*
X53316666Y-68766666D01*
X64216666Y-61733333D02*
X64716666Y-61733333D01*
X64816666Y-61700000D01*
X64883333Y-61633333D01*
X64916666Y-61533333D01*
X64916666Y-61466666D01*
X64916666Y-62433333D02*
X64916666Y-62033333D01*
X64916666Y-62233333D02*
X64216666Y-62233333D01*
X64316666Y-62166666D01*
X64383333Y-62100000D01*
X64416666Y-62033333D01*
X64216666Y-62866666D02*
X64216666Y-62933333D01*
X64250000Y-63000000D01*
X64283333Y-63033333D01*
X64350000Y-63066666D01*
X64483333Y-63100000D01*
X64650000Y-63100000D01*
X64783333Y-63066666D01*
X64850000Y-63033333D01*
X64883333Y-63000000D01*
X64916666Y-62933333D01*
X64916666Y-62866666D01*
X64883333Y-62800000D01*
X64850000Y-62766666D01*
X64783333Y-62733333D01*
X64650000Y-62700000D01*
X64483333Y-62700000D01*
X64350000Y-62733333D01*
X64283333Y-62766666D01*
X64250000Y-62800000D01*
X64216666Y-62866666D01*
M02*
