G04 #@! TF.GenerationSoftware,KiCad,Pcbnew,(5.1.4-0-10_14)*
G04 #@! TF.CreationDate,2020-03-01T16:52:25+01:00*
G04 #@! TF.ProjectId,actuator-board,61637475-6174-46f7-922d-626f6172642e,A.1*
G04 #@! TF.SameCoordinates,Original*
G04 #@! TF.FileFunction,Legend,Top*
G04 #@! TF.FilePolarity,Positive*
%FSLAX46Y46*%
G04 Gerber Fmt 4.6, Leading zero omitted, Abs format (unit mm)*
G04 Created by KiCad (PCBNEW (5.1.4-0-10_14)) date 2020-03-01 16:52:25*
%MOMM*%
%LPD*%
G04 APERTURE LIST*
%ADD10C,0.110000*%
%ADD11C,0.150000*%
%ADD12C,0.120000*%
G04 APERTURE END LIST*
D10*
X62004833Y-99383333D02*
X62104833Y-99416666D01*
X62271500Y-99416666D01*
X62338166Y-99383333D01*
X62371500Y-99350000D01*
X62404833Y-99283333D01*
X62404833Y-99216666D01*
X62371500Y-99150000D01*
X62338166Y-99116666D01*
X62271500Y-99083333D01*
X62138166Y-99050000D01*
X62071500Y-99016666D01*
X62038166Y-98983333D01*
X62004833Y-98916666D01*
X62004833Y-98850000D01*
X62038166Y-98783333D01*
X62071500Y-98750000D01*
X62138166Y-98716666D01*
X62304833Y-98716666D01*
X62404833Y-98750000D01*
X62704833Y-99050000D02*
X62938166Y-99050000D01*
X63038166Y-99416666D02*
X62704833Y-99416666D01*
X62704833Y-98716666D01*
X63038166Y-98716666D01*
X63338166Y-99416666D02*
X63338166Y-98716666D01*
X63738166Y-99416666D01*
X63738166Y-98716666D01*
X64038166Y-99383333D02*
X64138166Y-99416666D01*
X64304833Y-99416666D01*
X64371500Y-99383333D01*
X64404833Y-99350000D01*
X64438166Y-99283333D01*
X64438166Y-99216666D01*
X64404833Y-99150000D01*
X64371500Y-99116666D01*
X64304833Y-99083333D01*
X64171500Y-99050000D01*
X64104833Y-99016666D01*
X64071500Y-98983333D01*
X64038166Y-98916666D01*
X64038166Y-98850000D01*
X64071500Y-98783333D01*
X64104833Y-98750000D01*
X64171500Y-98716666D01*
X64338166Y-98716666D01*
X64438166Y-98750000D01*
X64871500Y-98716666D02*
X65004833Y-98716666D01*
X65071500Y-98750000D01*
X65138166Y-98816666D01*
X65171500Y-98950000D01*
X65171500Y-99183333D01*
X65138166Y-99316666D01*
X65071500Y-99383333D01*
X65004833Y-99416666D01*
X64871500Y-99416666D01*
X64804833Y-99383333D01*
X64738166Y-99316666D01*
X64704833Y-99183333D01*
X64704833Y-98950000D01*
X64738166Y-98816666D01*
X64804833Y-98750000D01*
X64871500Y-98716666D01*
X65871500Y-99416666D02*
X65638166Y-99083333D01*
X65471500Y-99416666D02*
X65471500Y-98716666D01*
X65738166Y-98716666D01*
X65804833Y-98750000D01*
X65838166Y-98783333D01*
X65871500Y-98850000D01*
X65871500Y-98950000D01*
X65838166Y-99016666D01*
X65804833Y-99050000D01*
X65738166Y-99083333D01*
X65471500Y-99083333D01*
X66138166Y-98783333D02*
X66171500Y-98750000D01*
X66238166Y-98716666D01*
X66404833Y-98716666D01*
X66471500Y-98750000D01*
X66504833Y-98783333D01*
X66538166Y-98850000D01*
X66538166Y-98916666D01*
X66504833Y-99016666D01*
X66104833Y-99416666D01*
X66538166Y-99416666D01*
X62138166Y-61416666D02*
X62138166Y-60716666D01*
X62404833Y-60716666D01*
X62471500Y-60750000D01*
X62504833Y-60783333D01*
X62538166Y-60850000D01*
X62538166Y-60950000D01*
X62504833Y-61016666D01*
X62471500Y-61050000D01*
X62404833Y-61083333D01*
X62138166Y-61083333D01*
X62838166Y-60716666D02*
X62838166Y-61283333D01*
X62871500Y-61350000D01*
X62904833Y-61383333D01*
X62971500Y-61416666D01*
X63104833Y-61416666D01*
X63171500Y-61383333D01*
X63204833Y-61350000D01*
X63238166Y-61283333D01*
X63238166Y-60716666D01*
X63571500Y-61416666D02*
X63571500Y-60716666D01*
X63804833Y-61216666D01*
X64038166Y-60716666D01*
X64038166Y-61416666D01*
X64371500Y-61416666D02*
X64371500Y-60716666D01*
X64638166Y-60716666D01*
X64704833Y-60750000D01*
X64738166Y-60783333D01*
X64771500Y-60850000D01*
X64771500Y-60950000D01*
X64738166Y-61016666D01*
X64704833Y-61050000D01*
X64638166Y-61083333D01*
X64371500Y-61083333D01*
X65438166Y-61416666D02*
X65038166Y-61416666D01*
X65238166Y-61416666D02*
X65238166Y-60716666D01*
X65171500Y-60816666D01*
X65104833Y-60883333D01*
X65038166Y-60916666D01*
X52838166Y-61416666D02*
X52838166Y-60716666D01*
X53104833Y-60716666D01*
X53171500Y-60750000D01*
X53204833Y-60783333D01*
X53238166Y-60850000D01*
X53238166Y-60950000D01*
X53204833Y-61016666D01*
X53171500Y-61050000D01*
X53104833Y-61083333D01*
X52838166Y-61083333D01*
X53538166Y-60716666D02*
X53538166Y-61283333D01*
X53571500Y-61350000D01*
X53604833Y-61383333D01*
X53671500Y-61416666D01*
X53804833Y-61416666D01*
X53871500Y-61383333D01*
X53904833Y-61350000D01*
X53938166Y-61283333D01*
X53938166Y-60716666D01*
X54271500Y-61416666D02*
X54271500Y-60716666D01*
X54504833Y-61216666D01*
X54738166Y-60716666D01*
X54738166Y-61416666D01*
X55071500Y-61416666D02*
X55071500Y-60716666D01*
X55338166Y-60716666D01*
X55404833Y-60750000D01*
X55438166Y-60783333D01*
X55471500Y-60850000D01*
X55471500Y-60950000D01*
X55438166Y-61016666D01*
X55404833Y-61050000D01*
X55338166Y-61083333D01*
X55071500Y-61083333D01*
X55738166Y-60783333D02*
X55771500Y-60750000D01*
X55838166Y-60716666D01*
X56004833Y-60716666D01*
X56071500Y-60750000D01*
X56104833Y-60783333D01*
X56138166Y-60850000D01*
X56138166Y-60916666D01*
X56104833Y-61016666D01*
X55704833Y-61416666D01*
X56138166Y-61416666D01*
X53150000Y-73461833D02*
X53183333Y-73495166D01*
X53216666Y-73595166D01*
X53216666Y-73661833D01*
X53183333Y-73761833D01*
X53116666Y-73828500D01*
X53050000Y-73861833D01*
X52916666Y-73895166D01*
X52816666Y-73895166D01*
X52683333Y-73861833D01*
X52616666Y-73828500D01*
X52550000Y-73761833D01*
X52516666Y-73661833D01*
X52516666Y-73595166D01*
X52550000Y-73495166D01*
X52583333Y-73461833D01*
X53016666Y-73195166D02*
X53016666Y-72861833D01*
X53216666Y-73261833D02*
X52516666Y-73028500D01*
X53216666Y-72795166D01*
X53216666Y-72561833D02*
X52516666Y-72561833D01*
X53216666Y-72161833D01*
X52516666Y-72161833D01*
D11*
X66450000Y-79435833D02*
X66450000Y-78902500D01*
X66450000Y-82035833D02*
X66450000Y-81502500D01*
X66716666Y-81769166D02*
X66183333Y-81769166D01*
D12*
X52160000Y-87465000D02*
X52610000Y-87465000D01*
X52610000Y-87465000D02*
X52610000Y-88415000D01*
X52610000Y-88415000D02*
X54100000Y-88415000D01*
X52160000Y-96935000D02*
X52610000Y-96935000D01*
X52610000Y-96935000D02*
X52610000Y-95985000D01*
X48640000Y-87465000D02*
X48190000Y-87465000D01*
X48190000Y-87465000D02*
X48190000Y-96935000D01*
X48190000Y-96935000D02*
X48640000Y-96935000D01*
X64762779Y-94610000D02*
X64437221Y-94610000D01*
X64762779Y-93590000D02*
X64437221Y-93590000D01*
X58360000Y-75987221D02*
X58360000Y-76312779D01*
X57340000Y-75987221D02*
X57340000Y-76312779D01*
X60662779Y-79810000D02*
X60337221Y-79810000D01*
X60662779Y-78790000D02*
X60337221Y-78790000D01*
X56262779Y-83790000D02*
X55937221Y-83790000D01*
X56262779Y-84810000D02*
X55937221Y-84810000D01*
X56262779Y-89010000D02*
X55937221Y-89010000D01*
X56262779Y-87990000D02*
X55937221Y-87990000D01*
X62790000Y-96737221D02*
X62790000Y-97062779D01*
X63810000Y-96737221D02*
X63810000Y-97062779D01*
X54390000Y-98075279D02*
X54390000Y-97749721D01*
X55410000Y-98075279D02*
X55410000Y-97749721D01*
X65097936Y-72290000D02*
X66302064Y-72290000D01*
X65097936Y-74110000D02*
X66302064Y-74110000D01*
X58837221Y-71810000D02*
X59162779Y-71810000D01*
X58837221Y-70790000D02*
X59162779Y-70790000D01*
X69530000Y-77930000D02*
X66870000Y-77930000D01*
X69530000Y-80530000D02*
X69530000Y-77930000D01*
X66870000Y-80530000D02*
X66870000Y-77930000D01*
X69530000Y-80530000D02*
X66870000Y-80530000D01*
X69530000Y-81800000D02*
X69530000Y-83130000D01*
X69530000Y-83130000D02*
X68200000Y-83130000D01*
X69535000Y-98900000D02*
X69535000Y-96615000D01*
X69535000Y-96615000D02*
X68065000Y-96615000D01*
X68065000Y-96615000D02*
X68065000Y-98900000D01*
X55000000Y-76000000D02*
X56700000Y-76000000D01*
X56700000Y-76000000D02*
X56700000Y-72850000D01*
X55000000Y-76000000D02*
X55000000Y-72850000D01*
X66690000Y-97937221D02*
X66690000Y-98262779D01*
X67710000Y-97937221D02*
X67710000Y-98262779D01*
X63637221Y-70790000D02*
X63962779Y-70790000D01*
X63637221Y-71810000D02*
X63962779Y-71810000D01*
X60662779Y-83010000D02*
X60337221Y-83010000D01*
X60662779Y-81990000D02*
X60337221Y-81990000D01*
X60662779Y-80540000D02*
X60337221Y-80540000D01*
X60662779Y-81560000D02*
X60337221Y-81560000D01*
X55937221Y-92190000D02*
X56262779Y-92190000D01*
X55937221Y-93210000D02*
X56262779Y-93210000D01*
X55937221Y-86590000D02*
X56262779Y-86590000D01*
X55937221Y-87610000D02*
X56262779Y-87610000D01*
X56262779Y-85190000D02*
X55937221Y-85190000D01*
X56262779Y-86210000D02*
X55937221Y-86210000D01*
X55937221Y-90790000D02*
X56262779Y-90790000D01*
X55937221Y-91810000D02*
X56262779Y-91810000D01*
X56262779Y-89390000D02*
X55937221Y-89390000D01*
X56262779Y-90410000D02*
X55937221Y-90410000D01*
X60465000Y-91110000D02*
X59990000Y-91110000D01*
X59990000Y-91110000D02*
X59990000Y-90635000D01*
X64735000Y-85890000D02*
X65210000Y-85890000D01*
X65210000Y-85890000D02*
X65210000Y-86365000D01*
X60465000Y-85890000D02*
X59990000Y-85890000D01*
X59990000Y-85890000D02*
X59990000Y-86365000D01*
X64735000Y-91110000D02*
X65210000Y-91110000D01*
X69375000Y-88300000D02*
X66225000Y-88300000D01*
X66225000Y-88300000D02*
X66225000Y-92300000D01*
X64762779Y-93210000D02*
X64437221Y-93210000D01*
X64762779Y-92190000D02*
X64437221Y-92190000D01*
X67837221Y-86510000D02*
X68162779Y-86510000D01*
X67837221Y-85490000D02*
X68162779Y-85490000D01*
X54410000Y-84962779D02*
X54410000Y-84637221D01*
X53390000Y-84962779D02*
X53390000Y-84637221D01*
X60337221Y-83815000D02*
X60662779Y-83815000D01*
X60337221Y-84835000D02*
X60662779Y-84835000D01*
X67812221Y-86890000D02*
X68137779Y-86890000D01*
X67812221Y-87910000D02*
X68137779Y-87910000D01*
X68137779Y-92690000D02*
X67812221Y-92690000D01*
X68137779Y-93710000D02*
X67812221Y-93710000D01*
X56262779Y-83360000D02*
X55937221Y-83360000D01*
X56262779Y-82340000D02*
X55937221Y-82340000D01*
X65840000Y-69485000D02*
X65390000Y-69485000D01*
X65390000Y-69485000D02*
X65390000Y-68535000D01*
X65390000Y-68535000D02*
X63900000Y-68535000D01*
X65840000Y-62515000D02*
X65390000Y-62515000D01*
X65390000Y-62515000D02*
X65390000Y-63465000D01*
X69360000Y-69485000D02*
X69810000Y-69485000D01*
X69810000Y-69485000D02*
X69810000Y-62515000D01*
X69810000Y-62515000D02*
X69360000Y-62515000D01*
X48190000Y-69485000D02*
X48640000Y-69485000D01*
X48190000Y-62515000D02*
X48190000Y-69485000D01*
X48640000Y-62515000D02*
X48190000Y-62515000D01*
X52610000Y-69485000D02*
X52610000Y-68535000D01*
X52160000Y-69485000D02*
X52610000Y-69485000D01*
X52610000Y-63465000D02*
X54100000Y-63465000D01*
X52610000Y-62515000D02*
X52610000Y-63465000D01*
X52160000Y-62515000D02*
X52610000Y-62515000D01*
X65930000Y-75390000D02*
X63270000Y-75390000D01*
X65930000Y-80530000D02*
X65930000Y-75390000D01*
X63270000Y-80530000D02*
X63270000Y-75390000D01*
X65930000Y-80530000D02*
X63270000Y-80530000D01*
X65930000Y-81800000D02*
X65930000Y-83130000D01*
X65930000Y-83130000D02*
X64600000Y-83130000D01*
X58797936Y-72290000D02*
X60002064Y-72290000D01*
X58797936Y-74110000D02*
X60002064Y-74110000D01*
X48190000Y-81985000D02*
X48640000Y-81985000D01*
X48190000Y-75015000D02*
X48190000Y-81985000D01*
X48640000Y-75015000D02*
X48190000Y-75015000D01*
X52610000Y-81985000D02*
X52610000Y-81035000D01*
X52160000Y-81985000D02*
X52610000Y-81985000D01*
X52610000Y-75965000D02*
X54100000Y-75965000D01*
X52610000Y-75015000D02*
X52610000Y-75965000D01*
X52160000Y-75015000D02*
X52610000Y-75015000D01*
X61600000Y-99500000D02*
X56400000Y-99500000D01*
X56400000Y-99500000D02*
X56400000Y-94300000D01*
X57700000Y-94300000D02*
X61600000Y-94300000D01*
X61600000Y-99500000D02*
X61600000Y-94300000D01*
X58710000Y-80750000D02*
X58710000Y-78950000D01*
X55490000Y-78950000D02*
X55490000Y-81400000D01*
X62230000Y-75740000D02*
X61300000Y-75740000D01*
X59070000Y-75740000D02*
X60000000Y-75740000D01*
X59070000Y-75740000D02*
X59070000Y-77900000D01*
X62230000Y-75740000D02*
X62230000Y-77200000D01*
X67837221Y-84090000D02*
X68162779Y-84090000D01*
X67837221Y-85110000D02*
X68162779Y-85110000D01*
D11*
X56275000Y-64250000D02*
X56275000Y-68750000D01*
X61825000Y-63125000D02*
X61825000Y-68750000D01*
D10*
X53116666Y-87733333D02*
X53616666Y-87733333D01*
X53716666Y-87766666D01*
X53783333Y-87833333D01*
X53816666Y-87933333D01*
X53816666Y-88000000D01*
X53183333Y-87433333D02*
X53150000Y-87400000D01*
X53116666Y-87333333D01*
X53116666Y-87166666D01*
X53150000Y-87100000D01*
X53183333Y-87066666D01*
X53250000Y-87033333D01*
X53316666Y-87033333D01*
X53416666Y-87066666D01*
X53816666Y-87466666D01*
X53816666Y-87033333D01*
X62483333Y-94350000D02*
X62450000Y-94383333D01*
X62350000Y-94416666D01*
X62283333Y-94416666D01*
X62183333Y-94383333D01*
X62116666Y-94316666D01*
X62083333Y-94250000D01*
X62050000Y-94116666D01*
X62050000Y-94016666D01*
X62083333Y-93883333D01*
X62116666Y-93816666D01*
X62183333Y-93750000D01*
X62283333Y-93716666D01*
X62350000Y-93716666D01*
X62450000Y-93750000D01*
X62483333Y-93783333D01*
X63150000Y-94416666D02*
X62750000Y-94416666D01*
X62950000Y-94416666D02*
X62950000Y-93716666D01*
X62883333Y-93816666D01*
X62816666Y-93883333D01*
X62750000Y-93916666D01*
X58983333Y-75250000D02*
X58950000Y-75283333D01*
X58850000Y-75316666D01*
X58783333Y-75316666D01*
X58683333Y-75283333D01*
X58616666Y-75216666D01*
X58583333Y-75150000D01*
X58550000Y-75016666D01*
X58550000Y-74916666D01*
X58583333Y-74783333D01*
X58616666Y-74716666D01*
X58683333Y-74650000D01*
X58783333Y-74616666D01*
X58850000Y-74616666D01*
X58950000Y-74650000D01*
X58983333Y-74683333D01*
X59316666Y-75316666D02*
X59450000Y-75316666D01*
X59516666Y-75283333D01*
X59550000Y-75250000D01*
X59616666Y-75150000D01*
X59650000Y-75016666D01*
X59650000Y-74750000D01*
X59616666Y-74683333D01*
X59583333Y-74650000D01*
X59516666Y-74616666D01*
X59383333Y-74616666D01*
X59316666Y-74650000D01*
X59283333Y-74683333D01*
X59250000Y-74750000D01*
X59250000Y-74916666D01*
X59283333Y-74983333D01*
X59316666Y-75016666D01*
X59383333Y-75050000D01*
X59516666Y-75050000D01*
X59583333Y-75016666D01*
X59616666Y-74983333D01*
X59650000Y-74916666D01*
X62700000Y-79650000D02*
X62733333Y-79683333D01*
X62766666Y-79783333D01*
X62766666Y-79850000D01*
X62733333Y-79950000D01*
X62666666Y-80016666D01*
X62600000Y-80050000D01*
X62466666Y-80083333D01*
X62366666Y-80083333D01*
X62233333Y-80050000D01*
X62166666Y-80016666D01*
X62100000Y-79950000D01*
X62066666Y-79850000D01*
X62066666Y-79783333D01*
X62100000Y-79683333D01*
X62133333Y-79650000D01*
X62766666Y-78983333D02*
X62766666Y-79383333D01*
X62766666Y-79183333D02*
X62066666Y-79183333D01*
X62166666Y-79250000D01*
X62233333Y-79316666D01*
X62266666Y-79383333D01*
X62066666Y-78550000D02*
X62066666Y-78483333D01*
X62100000Y-78416666D01*
X62133333Y-78383333D01*
X62200000Y-78350000D01*
X62333333Y-78316666D01*
X62500000Y-78316666D01*
X62633333Y-78350000D01*
X62700000Y-78383333D01*
X62733333Y-78416666D01*
X62766666Y-78483333D01*
X62766666Y-78550000D01*
X62733333Y-78616666D01*
X62700000Y-78650000D01*
X62633333Y-78683333D01*
X62500000Y-78716666D01*
X62333333Y-78716666D01*
X62200000Y-78683333D01*
X62133333Y-78650000D01*
X62100000Y-78616666D01*
X62066666Y-78550000D01*
X57850000Y-84550000D02*
X57816666Y-84583333D01*
X57716666Y-84616666D01*
X57650000Y-84616666D01*
X57550000Y-84583333D01*
X57483333Y-84516666D01*
X57450000Y-84450000D01*
X57416666Y-84316666D01*
X57416666Y-84216666D01*
X57450000Y-84083333D01*
X57483333Y-84016666D01*
X57550000Y-83950000D01*
X57650000Y-83916666D01*
X57716666Y-83916666D01*
X57816666Y-83950000D01*
X57850000Y-83983333D01*
X58516666Y-84616666D02*
X58116666Y-84616666D01*
X58316666Y-84616666D02*
X58316666Y-83916666D01*
X58250000Y-84016666D01*
X58183333Y-84083333D01*
X58116666Y-84116666D01*
X59183333Y-84616666D02*
X58783333Y-84616666D01*
X58983333Y-84616666D02*
X58983333Y-83916666D01*
X58916666Y-84016666D01*
X58850000Y-84083333D01*
X58783333Y-84116666D01*
X57950000Y-88750000D02*
X57916666Y-88783333D01*
X57816666Y-88816666D01*
X57750000Y-88816666D01*
X57650000Y-88783333D01*
X57583333Y-88716666D01*
X57550000Y-88650000D01*
X57516666Y-88516666D01*
X57516666Y-88416666D01*
X57550000Y-88283333D01*
X57583333Y-88216666D01*
X57650000Y-88150000D01*
X57750000Y-88116666D01*
X57816666Y-88116666D01*
X57916666Y-88150000D01*
X57950000Y-88183333D01*
X58616666Y-88816666D02*
X58216666Y-88816666D01*
X58416666Y-88816666D02*
X58416666Y-88116666D01*
X58350000Y-88216666D01*
X58283333Y-88283333D01*
X58216666Y-88316666D01*
X58883333Y-88183333D02*
X58916666Y-88150000D01*
X58983333Y-88116666D01*
X59150000Y-88116666D01*
X59216666Y-88150000D01*
X59250000Y-88183333D01*
X59283333Y-88250000D01*
X59283333Y-88316666D01*
X59250000Y-88416666D01*
X58850000Y-88816666D01*
X59283333Y-88816666D01*
X64750000Y-97350000D02*
X64783333Y-97383333D01*
X64816666Y-97483333D01*
X64816666Y-97550000D01*
X64783333Y-97650000D01*
X64716666Y-97716666D01*
X64650000Y-97750000D01*
X64516666Y-97783333D01*
X64416666Y-97783333D01*
X64283333Y-97750000D01*
X64216666Y-97716666D01*
X64150000Y-97650000D01*
X64116666Y-97550000D01*
X64116666Y-97483333D01*
X64150000Y-97383333D01*
X64183333Y-97350000D01*
X64816666Y-96683333D02*
X64816666Y-97083333D01*
X64816666Y-96883333D02*
X64116666Y-96883333D01*
X64216666Y-96950000D01*
X64283333Y-97016666D01*
X64316666Y-97083333D01*
X64116666Y-96050000D02*
X64116666Y-96383333D01*
X64450000Y-96416666D01*
X64416666Y-96383333D01*
X64383333Y-96316666D01*
X64383333Y-96150000D01*
X64416666Y-96083333D01*
X64450000Y-96050000D01*
X64516666Y-96016666D01*
X64683333Y-96016666D01*
X64750000Y-96050000D01*
X64783333Y-96083333D01*
X64816666Y-96150000D01*
X64816666Y-96316666D01*
X64783333Y-96383333D01*
X64750000Y-96416666D01*
X54050000Y-98362500D02*
X54083333Y-98395833D01*
X54116666Y-98495833D01*
X54116666Y-98562500D01*
X54083333Y-98662500D01*
X54016666Y-98729166D01*
X53950000Y-98762500D01*
X53816666Y-98795833D01*
X53716666Y-98795833D01*
X53583333Y-98762500D01*
X53516666Y-98729166D01*
X53450000Y-98662500D01*
X53416666Y-98562500D01*
X53416666Y-98495833D01*
X53450000Y-98395833D01*
X53483333Y-98362500D01*
X54116666Y-97695833D02*
X54116666Y-98095833D01*
X54116666Y-97895833D02*
X53416666Y-97895833D01*
X53516666Y-97962500D01*
X53583333Y-98029166D01*
X53616666Y-98095833D01*
X53416666Y-97095833D02*
X53416666Y-97229166D01*
X53450000Y-97295833D01*
X53483333Y-97329166D01*
X53583333Y-97395833D01*
X53716666Y-97429166D01*
X53983333Y-97429166D01*
X54050000Y-97395833D01*
X54083333Y-97362500D01*
X54116666Y-97295833D01*
X54116666Y-97162500D01*
X54083333Y-97095833D01*
X54050000Y-97062500D01*
X53983333Y-97029166D01*
X53816666Y-97029166D01*
X53750000Y-97062500D01*
X53716666Y-97095833D01*
X53683333Y-97162500D01*
X53683333Y-97295833D01*
X53716666Y-97362500D01*
X53750000Y-97395833D01*
X53816666Y-97429166D01*
X68350000Y-73450000D02*
X68316666Y-73483333D01*
X68216666Y-73516666D01*
X68150000Y-73516666D01*
X68050000Y-73483333D01*
X67983333Y-73416666D01*
X67950000Y-73350000D01*
X67916666Y-73216666D01*
X67916666Y-73116666D01*
X67950000Y-72983333D01*
X67983333Y-72916666D01*
X68050000Y-72850000D01*
X68150000Y-72816666D01*
X68216666Y-72816666D01*
X68316666Y-72850000D01*
X68350000Y-72883333D01*
X69016666Y-73516666D02*
X68616666Y-73516666D01*
X68816666Y-73516666D02*
X68816666Y-72816666D01*
X68750000Y-72916666D01*
X68683333Y-72983333D01*
X68616666Y-73016666D01*
X69250000Y-72816666D02*
X69716666Y-72816666D01*
X69416666Y-73516666D01*
X60850000Y-71550000D02*
X60816666Y-71583333D01*
X60716666Y-71616666D01*
X60650000Y-71616666D01*
X60550000Y-71583333D01*
X60483333Y-71516666D01*
X60450000Y-71450000D01*
X60416666Y-71316666D01*
X60416666Y-71216666D01*
X60450000Y-71083333D01*
X60483333Y-71016666D01*
X60550000Y-70950000D01*
X60650000Y-70916666D01*
X60716666Y-70916666D01*
X60816666Y-70950000D01*
X60850000Y-70983333D01*
X61516666Y-71616666D02*
X61116666Y-71616666D01*
X61316666Y-71616666D02*
X61316666Y-70916666D01*
X61250000Y-71016666D01*
X61183333Y-71083333D01*
X61116666Y-71116666D01*
X61916666Y-71216666D02*
X61850000Y-71183333D01*
X61816666Y-71150000D01*
X61783333Y-71083333D01*
X61783333Y-71050000D01*
X61816666Y-70983333D01*
X61850000Y-70950000D01*
X61916666Y-70916666D01*
X62050000Y-70916666D01*
X62116666Y-70950000D01*
X62150000Y-70983333D01*
X62183333Y-71050000D01*
X62183333Y-71083333D01*
X62150000Y-71150000D01*
X62116666Y-71183333D01*
X62050000Y-71216666D01*
X61916666Y-71216666D01*
X61850000Y-71250000D01*
X61816666Y-71283333D01*
X61783333Y-71350000D01*
X61783333Y-71483333D01*
X61816666Y-71550000D01*
X61850000Y-71583333D01*
X61916666Y-71616666D01*
X62050000Y-71616666D01*
X62116666Y-71583333D01*
X62150000Y-71550000D01*
X62183333Y-71483333D01*
X62183333Y-71350000D01*
X62150000Y-71283333D01*
X62116666Y-71250000D01*
X62050000Y-71216666D01*
X68766666Y-77016666D02*
X68766666Y-77516666D01*
X68733333Y-77616666D01*
X68666666Y-77683333D01*
X68566666Y-77716666D01*
X68500000Y-77716666D01*
X69400000Y-77016666D02*
X69266666Y-77016666D01*
X69200000Y-77050000D01*
X69166666Y-77083333D01*
X69100000Y-77183333D01*
X69066666Y-77316666D01*
X69066666Y-77583333D01*
X69100000Y-77650000D01*
X69133333Y-77683333D01*
X69200000Y-77716666D01*
X69333333Y-77716666D01*
X69400000Y-77683333D01*
X69433333Y-77650000D01*
X69466666Y-77583333D01*
X69466666Y-77416666D01*
X69433333Y-77350000D01*
X69400000Y-77316666D01*
X69333333Y-77283333D01*
X69200000Y-77283333D01*
X69133333Y-77316666D01*
X69100000Y-77350000D01*
X69066666Y-77416666D01*
X69116666Y-96316666D02*
X68416666Y-96316666D01*
X68416666Y-96150000D01*
X68450000Y-96050000D01*
X68516666Y-95983333D01*
X68583333Y-95950000D01*
X68716666Y-95916666D01*
X68816666Y-95916666D01*
X68950000Y-95950000D01*
X69016666Y-95983333D01*
X69083333Y-96050000D01*
X69116666Y-96150000D01*
X69116666Y-96316666D01*
X69116666Y-95250000D02*
X69116666Y-95650000D01*
X69116666Y-95450000D02*
X68416666Y-95450000D01*
X68516666Y-95516666D01*
X68583333Y-95583333D01*
X68616666Y-95650000D01*
X55358333Y-76991666D02*
X55358333Y-76291666D01*
X55525000Y-76291666D01*
X55625000Y-76325000D01*
X55691666Y-76391666D01*
X55725000Y-76458333D01*
X55758333Y-76591666D01*
X55758333Y-76691666D01*
X55725000Y-76825000D01*
X55691666Y-76891666D01*
X55625000Y-76958333D01*
X55525000Y-76991666D01*
X55358333Y-76991666D01*
X56025000Y-76358333D02*
X56058333Y-76325000D01*
X56125000Y-76291666D01*
X56291666Y-76291666D01*
X56358333Y-76325000D01*
X56391666Y-76358333D01*
X56425000Y-76425000D01*
X56425000Y-76491666D01*
X56391666Y-76591666D01*
X55991666Y-76991666D01*
X56425000Y-76991666D01*
X67516666Y-95916666D02*
X67183333Y-96150000D01*
X67516666Y-96316666D02*
X66816666Y-96316666D01*
X66816666Y-96050000D01*
X66850000Y-95983333D01*
X66883333Y-95950000D01*
X66950000Y-95916666D01*
X67050000Y-95916666D01*
X67116666Y-95950000D01*
X67150000Y-95983333D01*
X67183333Y-96050000D01*
X67183333Y-96316666D01*
X67516666Y-95250000D02*
X67516666Y-95650000D01*
X67516666Y-95450000D02*
X66816666Y-95450000D01*
X66916666Y-95516666D01*
X66983333Y-95583333D01*
X67016666Y-95650000D01*
X62983333Y-70516666D02*
X62750000Y-70183333D01*
X62583333Y-70516666D02*
X62583333Y-69816666D01*
X62850000Y-69816666D01*
X62916666Y-69850000D01*
X62950000Y-69883333D01*
X62983333Y-69950000D01*
X62983333Y-70050000D01*
X62950000Y-70116666D01*
X62916666Y-70150000D01*
X62850000Y-70183333D01*
X62583333Y-70183333D01*
X63250000Y-69883333D02*
X63283333Y-69850000D01*
X63350000Y-69816666D01*
X63516666Y-69816666D01*
X63583333Y-69850000D01*
X63616666Y-69883333D01*
X63650000Y-69950000D01*
X63650000Y-70016666D01*
X63616666Y-70116666D01*
X63216666Y-70516666D01*
X63650000Y-70516666D01*
X62383333Y-82916666D02*
X62150000Y-82583333D01*
X61983333Y-82916666D02*
X61983333Y-82216666D01*
X62250000Y-82216666D01*
X62316666Y-82250000D01*
X62350000Y-82283333D01*
X62383333Y-82350000D01*
X62383333Y-82450000D01*
X62350000Y-82516666D01*
X62316666Y-82550000D01*
X62250000Y-82583333D01*
X61983333Y-82583333D01*
X62983333Y-82450000D02*
X62983333Y-82916666D01*
X62816666Y-82183333D02*
X62650000Y-82683333D01*
X63083333Y-82683333D01*
X62383333Y-81366666D02*
X62150000Y-81033333D01*
X61983333Y-81366666D02*
X61983333Y-80666666D01*
X62250000Y-80666666D01*
X62316666Y-80700000D01*
X62350000Y-80733333D01*
X62383333Y-80800000D01*
X62383333Y-80900000D01*
X62350000Y-80966666D01*
X62316666Y-81000000D01*
X62250000Y-81033333D01*
X61983333Y-81033333D01*
X63016666Y-80666666D02*
X62683333Y-80666666D01*
X62650000Y-81000000D01*
X62683333Y-80966666D01*
X62750000Y-80933333D01*
X62916666Y-80933333D01*
X62983333Y-80966666D01*
X63016666Y-81000000D01*
X63050000Y-81066666D01*
X63050000Y-81233333D01*
X63016666Y-81300000D01*
X62983333Y-81333333D01*
X62916666Y-81366666D01*
X62750000Y-81366666D01*
X62683333Y-81333333D01*
X62650000Y-81300000D01*
X57983333Y-93016666D02*
X57750000Y-92683333D01*
X57583333Y-93016666D02*
X57583333Y-92316666D01*
X57850000Y-92316666D01*
X57916666Y-92350000D01*
X57950000Y-92383333D01*
X57983333Y-92450000D01*
X57983333Y-92550000D01*
X57950000Y-92616666D01*
X57916666Y-92650000D01*
X57850000Y-92683333D01*
X57583333Y-92683333D01*
X58583333Y-92316666D02*
X58450000Y-92316666D01*
X58383333Y-92350000D01*
X58350000Y-92383333D01*
X58283333Y-92483333D01*
X58250000Y-92616666D01*
X58250000Y-92883333D01*
X58283333Y-92950000D01*
X58316666Y-92983333D01*
X58383333Y-93016666D01*
X58516666Y-93016666D01*
X58583333Y-92983333D01*
X58616666Y-92950000D01*
X58650000Y-92883333D01*
X58650000Y-92716666D01*
X58616666Y-92650000D01*
X58583333Y-92616666D01*
X58516666Y-92583333D01*
X58383333Y-92583333D01*
X58316666Y-92616666D01*
X58283333Y-92650000D01*
X58250000Y-92716666D01*
X57983333Y-87416666D02*
X57750000Y-87083333D01*
X57583333Y-87416666D02*
X57583333Y-86716666D01*
X57850000Y-86716666D01*
X57916666Y-86750000D01*
X57950000Y-86783333D01*
X57983333Y-86850000D01*
X57983333Y-86950000D01*
X57950000Y-87016666D01*
X57916666Y-87050000D01*
X57850000Y-87083333D01*
X57583333Y-87083333D01*
X58216666Y-86716666D02*
X58683333Y-86716666D01*
X58383333Y-87416666D01*
X57983333Y-86016666D02*
X57750000Y-85683333D01*
X57583333Y-86016666D02*
X57583333Y-85316666D01*
X57850000Y-85316666D01*
X57916666Y-85350000D01*
X57950000Y-85383333D01*
X57983333Y-85450000D01*
X57983333Y-85550000D01*
X57950000Y-85616666D01*
X57916666Y-85650000D01*
X57850000Y-85683333D01*
X57583333Y-85683333D01*
X58383333Y-85616666D02*
X58316666Y-85583333D01*
X58283333Y-85550000D01*
X58250000Y-85483333D01*
X58250000Y-85450000D01*
X58283333Y-85383333D01*
X58316666Y-85350000D01*
X58383333Y-85316666D01*
X58516666Y-85316666D01*
X58583333Y-85350000D01*
X58616666Y-85383333D01*
X58650000Y-85450000D01*
X58650000Y-85483333D01*
X58616666Y-85550000D01*
X58583333Y-85583333D01*
X58516666Y-85616666D01*
X58383333Y-85616666D01*
X58316666Y-85650000D01*
X58283333Y-85683333D01*
X58250000Y-85750000D01*
X58250000Y-85883333D01*
X58283333Y-85950000D01*
X58316666Y-85983333D01*
X58383333Y-86016666D01*
X58516666Y-86016666D01*
X58583333Y-85983333D01*
X58616666Y-85950000D01*
X58650000Y-85883333D01*
X58650000Y-85750000D01*
X58616666Y-85683333D01*
X58583333Y-85650000D01*
X58516666Y-85616666D01*
X57983333Y-91616666D02*
X57750000Y-91283333D01*
X57583333Y-91616666D02*
X57583333Y-90916666D01*
X57850000Y-90916666D01*
X57916666Y-90950000D01*
X57950000Y-90983333D01*
X57983333Y-91050000D01*
X57983333Y-91150000D01*
X57950000Y-91216666D01*
X57916666Y-91250000D01*
X57850000Y-91283333D01*
X57583333Y-91283333D01*
X58316666Y-91616666D02*
X58450000Y-91616666D01*
X58516666Y-91583333D01*
X58550000Y-91550000D01*
X58616666Y-91450000D01*
X58650000Y-91316666D01*
X58650000Y-91050000D01*
X58616666Y-90983333D01*
X58583333Y-90950000D01*
X58516666Y-90916666D01*
X58383333Y-90916666D01*
X58316666Y-90950000D01*
X58283333Y-90983333D01*
X58250000Y-91050000D01*
X58250000Y-91216666D01*
X58283333Y-91283333D01*
X58316666Y-91316666D01*
X58383333Y-91350000D01*
X58516666Y-91350000D01*
X58583333Y-91316666D01*
X58616666Y-91283333D01*
X58650000Y-91216666D01*
X57950000Y-90216666D02*
X57716666Y-89883333D01*
X57550000Y-90216666D02*
X57550000Y-89516666D01*
X57816666Y-89516666D01*
X57883333Y-89550000D01*
X57916666Y-89583333D01*
X57950000Y-89650000D01*
X57950000Y-89750000D01*
X57916666Y-89816666D01*
X57883333Y-89850000D01*
X57816666Y-89883333D01*
X57550000Y-89883333D01*
X58616666Y-90216666D02*
X58216666Y-90216666D01*
X58416666Y-90216666D02*
X58416666Y-89516666D01*
X58350000Y-89616666D01*
X58283333Y-89683333D01*
X58216666Y-89716666D01*
X59050000Y-89516666D02*
X59116666Y-89516666D01*
X59183333Y-89550000D01*
X59216666Y-89583333D01*
X59250000Y-89650000D01*
X59283333Y-89783333D01*
X59283333Y-89950000D01*
X59250000Y-90083333D01*
X59216666Y-90150000D01*
X59183333Y-90183333D01*
X59116666Y-90216666D01*
X59050000Y-90216666D01*
X58983333Y-90183333D01*
X58950000Y-90150000D01*
X58916666Y-90083333D01*
X58883333Y-89950000D01*
X58883333Y-89783333D01*
X58916666Y-89650000D01*
X58950000Y-89583333D01*
X58983333Y-89550000D01*
X59050000Y-89516666D01*
X59966666Y-91616666D02*
X59966666Y-92183333D01*
X60000000Y-92250000D01*
X60033333Y-92283333D01*
X60100000Y-92316666D01*
X60233333Y-92316666D01*
X60300000Y-92283333D01*
X60333333Y-92250000D01*
X60366666Y-92183333D01*
X60366666Y-91616666D01*
X61066666Y-92316666D02*
X60666666Y-92316666D01*
X60866666Y-92316666D02*
X60866666Y-91616666D01*
X60800000Y-91716666D01*
X60733333Y-91783333D01*
X60666666Y-91816666D01*
X65516666Y-91866666D02*
X66216666Y-91400000D01*
X65516666Y-91400000D02*
X66216666Y-91866666D01*
X66216666Y-90766666D02*
X66216666Y-91166666D01*
X66216666Y-90966666D02*
X65516666Y-90966666D01*
X65616666Y-91033333D01*
X65683333Y-91100000D01*
X65716666Y-91166666D01*
X62458333Y-92950000D02*
X62425000Y-92983333D01*
X62325000Y-93016666D01*
X62258333Y-93016666D01*
X62158333Y-92983333D01*
X62091666Y-92916666D01*
X62058333Y-92850000D01*
X62025000Y-92716666D01*
X62025000Y-92616666D01*
X62058333Y-92483333D01*
X62091666Y-92416666D01*
X62158333Y-92350000D01*
X62258333Y-92316666D01*
X62325000Y-92316666D01*
X62425000Y-92350000D01*
X62458333Y-92383333D01*
X62725000Y-92383333D02*
X62758333Y-92350000D01*
X62825000Y-92316666D01*
X62991666Y-92316666D01*
X63058333Y-92350000D01*
X63091666Y-92383333D01*
X63125000Y-92450000D01*
X63125000Y-92516666D01*
X63091666Y-92616666D01*
X62691666Y-93016666D01*
X63125000Y-93016666D01*
X65883333Y-86250000D02*
X65850000Y-86283333D01*
X65750000Y-86316666D01*
X65683333Y-86316666D01*
X65583333Y-86283333D01*
X65516666Y-86216666D01*
X65483333Y-86150000D01*
X65450000Y-86016666D01*
X65450000Y-85916666D01*
X65483333Y-85783333D01*
X65516666Y-85716666D01*
X65583333Y-85650000D01*
X65683333Y-85616666D01*
X65750000Y-85616666D01*
X65850000Y-85650000D01*
X65883333Y-85683333D01*
X66116666Y-85616666D02*
X66550000Y-85616666D01*
X66316666Y-85883333D01*
X66416666Y-85883333D01*
X66483333Y-85916666D01*
X66516666Y-85950000D01*
X66550000Y-86016666D01*
X66550000Y-86183333D01*
X66516666Y-86250000D01*
X66483333Y-86283333D01*
X66416666Y-86316666D01*
X66216666Y-86316666D01*
X66150000Y-86283333D01*
X66116666Y-86250000D01*
X52950000Y-84916666D02*
X52983333Y-84950000D01*
X53016666Y-85050000D01*
X53016666Y-85116666D01*
X52983333Y-85216666D01*
X52916666Y-85283333D01*
X52850000Y-85316666D01*
X52716666Y-85350000D01*
X52616666Y-85350000D01*
X52483333Y-85316666D01*
X52416666Y-85283333D01*
X52350000Y-85216666D01*
X52316666Y-85116666D01*
X52316666Y-85050000D01*
X52350000Y-84950000D01*
X52383333Y-84916666D01*
X52550000Y-84316666D02*
X53016666Y-84316666D01*
X52283333Y-84483333D02*
X52783333Y-84650000D01*
X52783333Y-84216666D01*
X62408333Y-84550000D02*
X62375000Y-84583333D01*
X62275000Y-84616666D01*
X62208333Y-84616666D01*
X62108333Y-84583333D01*
X62041666Y-84516666D01*
X62008333Y-84450000D01*
X61975000Y-84316666D01*
X61975000Y-84216666D01*
X62008333Y-84083333D01*
X62041666Y-84016666D01*
X62108333Y-83950000D01*
X62208333Y-83916666D01*
X62275000Y-83916666D01*
X62375000Y-83950000D01*
X62408333Y-83983333D01*
X63041666Y-83916666D02*
X62708333Y-83916666D01*
X62675000Y-84250000D01*
X62708333Y-84216666D01*
X62775000Y-84183333D01*
X62941666Y-84183333D01*
X63008333Y-84216666D01*
X63041666Y-84250000D01*
X63075000Y-84316666D01*
X63075000Y-84483333D01*
X63041666Y-84550000D01*
X63008333Y-84583333D01*
X62941666Y-84616666D01*
X62775000Y-84616666D01*
X62708333Y-84583333D01*
X62675000Y-84550000D01*
X66450000Y-87616666D02*
X66483333Y-87650000D01*
X66516666Y-87750000D01*
X66516666Y-87816666D01*
X66483333Y-87916666D01*
X66416666Y-87983333D01*
X66350000Y-88016666D01*
X66216666Y-88050000D01*
X66116666Y-88050000D01*
X65983333Y-88016666D01*
X65916666Y-87983333D01*
X65850000Y-87916666D01*
X65816666Y-87816666D01*
X65816666Y-87750000D01*
X65850000Y-87650000D01*
X65883333Y-87616666D01*
X65816666Y-87016666D02*
X65816666Y-87150000D01*
X65850000Y-87216666D01*
X65883333Y-87250000D01*
X65983333Y-87316666D01*
X66116666Y-87350000D01*
X66383333Y-87350000D01*
X66450000Y-87316666D01*
X66483333Y-87283333D01*
X66516666Y-87216666D01*
X66516666Y-87083333D01*
X66483333Y-87016666D01*
X66450000Y-86983333D01*
X66383333Y-86950000D01*
X66216666Y-86950000D01*
X66150000Y-86983333D01*
X66116666Y-87016666D01*
X66083333Y-87083333D01*
X66083333Y-87216666D01*
X66116666Y-87283333D01*
X66150000Y-87316666D01*
X66216666Y-87350000D01*
X67883333Y-94650000D02*
X67850000Y-94683333D01*
X67750000Y-94716666D01*
X67683333Y-94716666D01*
X67583333Y-94683333D01*
X67516666Y-94616666D01*
X67483333Y-94550000D01*
X67450000Y-94416666D01*
X67450000Y-94316666D01*
X67483333Y-94183333D01*
X67516666Y-94116666D01*
X67583333Y-94050000D01*
X67683333Y-94016666D01*
X67750000Y-94016666D01*
X67850000Y-94050000D01*
X67883333Y-94083333D01*
X68116666Y-94016666D02*
X68583333Y-94016666D01*
X68283333Y-94716666D01*
X57983333Y-83150000D02*
X57950000Y-83183333D01*
X57850000Y-83216666D01*
X57783333Y-83216666D01*
X57683333Y-83183333D01*
X57616666Y-83116666D01*
X57583333Y-83050000D01*
X57550000Y-82916666D01*
X57550000Y-82816666D01*
X57583333Y-82683333D01*
X57616666Y-82616666D01*
X57683333Y-82550000D01*
X57783333Y-82516666D01*
X57850000Y-82516666D01*
X57950000Y-82550000D01*
X57983333Y-82583333D01*
X58383333Y-82816666D02*
X58316666Y-82783333D01*
X58283333Y-82750000D01*
X58250000Y-82683333D01*
X58250000Y-82650000D01*
X58283333Y-82583333D01*
X58316666Y-82550000D01*
X58383333Y-82516666D01*
X58516666Y-82516666D01*
X58583333Y-82550000D01*
X58616666Y-82583333D01*
X58650000Y-82650000D01*
X58650000Y-82683333D01*
X58616666Y-82750000D01*
X58583333Y-82783333D01*
X58516666Y-82816666D01*
X58383333Y-82816666D01*
X58316666Y-82850000D01*
X58283333Y-82883333D01*
X58250000Y-82950000D01*
X58250000Y-83083333D01*
X58283333Y-83150000D01*
X58316666Y-83183333D01*
X58383333Y-83216666D01*
X58516666Y-83216666D01*
X58583333Y-83183333D01*
X58616666Y-83150000D01*
X58650000Y-83083333D01*
X58650000Y-82950000D01*
X58616666Y-82883333D01*
X58583333Y-82850000D01*
X58516666Y-82816666D01*
X64216666Y-69733333D02*
X64716666Y-69733333D01*
X64816666Y-69766666D01*
X64883333Y-69833333D01*
X64916666Y-69933333D01*
X64916666Y-70000000D01*
X64216666Y-69466666D02*
X64216666Y-69033333D01*
X64483333Y-69266666D01*
X64483333Y-69166666D01*
X64516666Y-69100000D01*
X64550000Y-69066666D01*
X64616666Y-69033333D01*
X64783333Y-69033333D01*
X64850000Y-69066666D01*
X64883333Y-69100000D01*
X64916666Y-69166666D01*
X64916666Y-69366666D01*
X64883333Y-69433333D01*
X64850000Y-69466666D01*
X53016666Y-62833333D02*
X53516666Y-62833333D01*
X53616666Y-62866666D01*
X53683333Y-62933333D01*
X53716666Y-63033333D01*
X53716666Y-63100000D01*
X53250000Y-62200000D02*
X53716666Y-62200000D01*
X52983333Y-62366666D02*
X53483333Y-62533333D01*
X53483333Y-62100000D01*
X65366666Y-74516666D02*
X65366666Y-75016666D01*
X65333333Y-75116666D01*
X65266666Y-75183333D01*
X65166666Y-75216666D01*
X65100000Y-75216666D01*
X66066666Y-75216666D02*
X65666666Y-75216666D01*
X65866666Y-75216666D02*
X65866666Y-74516666D01*
X65800000Y-74616666D01*
X65733333Y-74683333D01*
X65666666Y-74716666D01*
X62050000Y-73450000D02*
X62016666Y-73483333D01*
X61916666Y-73516666D01*
X61850000Y-73516666D01*
X61750000Y-73483333D01*
X61683333Y-73416666D01*
X61650000Y-73350000D01*
X61616666Y-73216666D01*
X61616666Y-73116666D01*
X61650000Y-72983333D01*
X61683333Y-72916666D01*
X61750000Y-72850000D01*
X61850000Y-72816666D01*
X61916666Y-72816666D01*
X62016666Y-72850000D01*
X62050000Y-72883333D01*
X62716666Y-73516666D02*
X62316666Y-73516666D01*
X62516666Y-73516666D02*
X62516666Y-72816666D01*
X62450000Y-72916666D01*
X62383333Y-72983333D01*
X62316666Y-73016666D01*
X63050000Y-73516666D02*
X63183333Y-73516666D01*
X63250000Y-73483333D01*
X63283333Y-73450000D01*
X63350000Y-73350000D01*
X63383333Y-73216666D01*
X63383333Y-72950000D01*
X63350000Y-72883333D01*
X63316666Y-72850000D01*
X63250000Y-72816666D01*
X63116666Y-72816666D01*
X63050000Y-72850000D01*
X63016666Y-72883333D01*
X62983333Y-72950000D01*
X62983333Y-73116666D01*
X63016666Y-73183333D01*
X63050000Y-73216666D01*
X63116666Y-73250000D01*
X63250000Y-73250000D01*
X63316666Y-73216666D01*
X63350000Y-73183333D01*
X63383333Y-73116666D01*
X53116666Y-75333333D02*
X53616666Y-75333333D01*
X53716666Y-75366666D01*
X53783333Y-75433333D01*
X53816666Y-75533333D01*
X53816666Y-75600000D01*
X53116666Y-75066666D02*
X53116666Y-74600000D01*
X53816666Y-74900000D01*
X60466666Y-93316666D02*
X60466666Y-93883333D01*
X60500000Y-93950000D01*
X60533333Y-93983333D01*
X60600000Y-94016666D01*
X60733333Y-94016666D01*
X60800000Y-93983333D01*
X60833333Y-93950000D01*
X60866666Y-93883333D01*
X60866666Y-93316666D01*
X61533333Y-93316666D02*
X61200000Y-93316666D01*
X61166666Y-93650000D01*
X61200000Y-93616666D01*
X61266666Y-93583333D01*
X61433333Y-93583333D01*
X61500000Y-93616666D01*
X61533333Y-93650000D01*
X61566666Y-93716666D01*
X61566666Y-93883333D01*
X61533333Y-93950000D01*
X61500000Y-93983333D01*
X61433333Y-94016666D01*
X61266666Y-94016666D01*
X61200000Y-93983333D01*
X61166666Y-93950000D01*
X54166666Y-81016666D02*
X54166666Y-81583333D01*
X54200000Y-81650000D01*
X54233333Y-81683333D01*
X54300000Y-81716666D01*
X54433333Y-81716666D01*
X54500000Y-81683333D01*
X54533333Y-81650000D01*
X54566666Y-81583333D01*
X54566666Y-81016666D01*
X54833333Y-81016666D02*
X55266666Y-81016666D01*
X55033333Y-81283333D01*
X55133333Y-81283333D01*
X55200000Y-81316666D01*
X55233333Y-81350000D01*
X55266666Y-81416666D01*
X55266666Y-81583333D01*
X55233333Y-81650000D01*
X55200000Y-81683333D01*
X55133333Y-81716666D01*
X54933333Y-81716666D01*
X54866666Y-81683333D01*
X54833333Y-81650000D01*
X61766666Y-74616666D02*
X61766666Y-75183333D01*
X61800000Y-75250000D01*
X61833333Y-75283333D01*
X61900000Y-75316666D01*
X62033333Y-75316666D01*
X62100000Y-75283333D01*
X62133333Y-75250000D01*
X62166666Y-75183333D01*
X62166666Y-74616666D01*
X62466666Y-74683333D02*
X62500000Y-74650000D01*
X62566666Y-74616666D01*
X62733333Y-74616666D01*
X62800000Y-74650000D01*
X62833333Y-74683333D01*
X62866666Y-74750000D01*
X62866666Y-74816666D01*
X62833333Y-74916666D01*
X62433333Y-75316666D01*
X62866666Y-75316666D01*
X65250000Y-84850000D02*
X65216666Y-84883333D01*
X65116666Y-84916666D01*
X65050000Y-84916666D01*
X64950000Y-84883333D01*
X64883333Y-84816666D01*
X64850000Y-84750000D01*
X64816666Y-84616666D01*
X64816666Y-84516666D01*
X64850000Y-84383333D01*
X64883333Y-84316666D01*
X64950000Y-84250000D01*
X65050000Y-84216666D01*
X65116666Y-84216666D01*
X65216666Y-84250000D01*
X65250000Y-84283333D01*
X65516666Y-84283333D02*
X65550000Y-84250000D01*
X65616666Y-84216666D01*
X65783333Y-84216666D01*
X65850000Y-84250000D01*
X65883333Y-84283333D01*
X65916666Y-84350000D01*
X65916666Y-84416666D01*
X65883333Y-84516666D01*
X65483333Y-84916666D01*
X65916666Y-84916666D01*
X66350000Y-84216666D02*
X66416666Y-84216666D01*
X66483333Y-84250000D01*
X66516666Y-84283333D01*
X66550000Y-84350000D01*
X66583333Y-84483333D01*
X66583333Y-84650000D01*
X66550000Y-84783333D01*
X66516666Y-84850000D01*
X66483333Y-84883333D01*
X66416666Y-84916666D01*
X66350000Y-84916666D01*
X66283333Y-84883333D01*
X66250000Y-84850000D01*
X66216666Y-84783333D01*
X66183333Y-84650000D01*
X66183333Y-84483333D01*
X66216666Y-84350000D01*
X66250000Y-84283333D01*
X66283333Y-84250000D01*
X66350000Y-84216666D01*
X62166666Y-67033333D02*
X62733333Y-67033333D01*
X62800000Y-67000000D01*
X62833333Y-66966666D01*
X62866666Y-66900000D01*
X62866666Y-66766666D01*
X62833333Y-66700000D01*
X62800000Y-66666666D01*
X62733333Y-66633333D01*
X62166666Y-66633333D01*
X62166666Y-66000000D02*
X62166666Y-66133333D01*
X62200000Y-66200000D01*
X62233333Y-66233333D01*
X62333333Y-66300000D01*
X62466666Y-66333333D01*
X62733333Y-66333333D01*
X62800000Y-66300000D01*
X62833333Y-66266666D01*
X62866666Y-66200000D01*
X62866666Y-66066666D01*
X62833333Y-66000000D01*
X62800000Y-65966666D01*
X62733333Y-65933333D01*
X62566666Y-65933333D01*
X62500000Y-65966666D01*
X62466666Y-66000000D01*
X62433333Y-66066666D01*
X62433333Y-66200000D01*
X62466666Y-66266666D01*
X62500000Y-66300000D01*
X62566666Y-66333333D01*
M02*
