G04 #@! TF.GenerationSoftware,KiCad,Pcbnew,(5.1.4-0-10_14)*
G04 #@! TF.CreationDate,2020-03-01T16:52:25+01:00*
G04 #@! TF.ProjectId,actuator-board,61637475-6174-46f7-922d-626f6172642e,A.1*
G04 #@! TF.SameCoordinates,Original*
G04 #@! TF.FileFunction,Copper,L2,Inr*
G04 #@! TF.FilePolarity,Positive*
%FSLAX46Y46*%
G04 Gerber Fmt 4.6, Leading zero omitted, Abs format (unit mm)*
G04 Created by KiCad (PCBNEW (5.1.4-0-10_14)) date 2020-03-01 16:52:25*
%MOMM*%
%LPD*%
G04 APERTURE LIST*
%ADD10R,1.700000X1.700000*%
%ADD11O,1.700000X1.700000*%
%ADD12C,0.100000*%
%ADD13C,0.800000*%
%ADD14O,1.300000X0.800000*%
%ADD15C,0.600000*%
%ADD16C,0.500000*%
%ADD17C,0.250000*%
G04 APERTURE END LIST*
D10*
X68200000Y-81800000D03*
D11*
X68200000Y-79260000D03*
D10*
X64600000Y-81800000D03*
D11*
X64600000Y-79260000D03*
X64600000Y-76720000D03*
D12*
G36*
X50869603Y-88000963D02*
G01*
X50889018Y-88003843D01*
X50908057Y-88008612D01*
X50926537Y-88015224D01*
X50944279Y-88023616D01*
X50961114Y-88033706D01*
X50976879Y-88045398D01*
X50991421Y-88058579D01*
X51004602Y-88073121D01*
X51016294Y-88088886D01*
X51026384Y-88105721D01*
X51034776Y-88123463D01*
X51041388Y-88141943D01*
X51046157Y-88160982D01*
X51049037Y-88180397D01*
X51050000Y-88200000D01*
X51050000Y-88600000D01*
X51049037Y-88619603D01*
X51046157Y-88639018D01*
X51041388Y-88658057D01*
X51034776Y-88676537D01*
X51026384Y-88694279D01*
X51016294Y-88711114D01*
X51004602Y-88726879D01*
X50991421Y-88741421D01*
X50976879Y-88754602D01*
X50961114Y-88766294D01*
X50944279Y-88776384D01*
X50926537Y-88784776D01*
X50908057Y-88791388D01*
X50889018Y-88796157D01*
X50869603Y-88799037D01*
X50850000Y-88800000D01*
X49950000Y-88800000D01*
X49930397Y-88799037D01*
X49910982Y-88796157D01*
X49891943Y-88791388D01*
X49873463Y-88784776D01*
X49855721Y-88776384D01*
X49838886Y-88766294D01*
X49823121Y-88754602D01*
X49808579Y-88741421D01*
X49795398Y-88726879D01*
X49783706Y-88711114D01*
X49773616Y-88694279D01*
X49765224Y-88676537D01*
X49758612Y-88658057D01*
X49753843Y-88639018D01*
X49750963Y-88619603D01*
X49750000Y-88600000D01*
X49750000Y-88200000D01*
X49750963Y-88180397D01*
X49753843Y-88160982D01*
X49758612Y-88141943D01*
X49765224Y-88123463D01*
X49773616Y-88105721D01*
X49783706Y-88088886D01*
X49795398Y-88073121D01*
X49808579Y-88058579D01*
X49823121Y-88045398D01*
X49838886Y-88033706D01*
X49855721Y-88023616D01*
X49873463Y-88015224D01*
X49891943Y-88008612D01*
X49910982Y-88003843D01*
X49930397Y-88000963D01*
X49950000Y-88000000D01*
X50850000Y-88000000D01*
X50869603Y-88000963D01*
X50869603Y-88000963D01*
G37*
D13*
X50400000Y-88400000D03*
D14*
X50400000Y-89650000D03*
X50400000Y-90900000D03*
X50400000Y-92150000D03*
X50400000Y-93400000D03*
X50400000Y-94650000D03*
X50400000Y-95900000D03*
D15*
X56800000Y-82200000D03*
X67200000Y-83800000D03*
X59700000Y-83500000D03*
X65100000Y-95000000D03*
X61300000Y-80100000D03*
D16*
X54100000Y-96950000D03*
X62600000Y-88500000D03*
X61700000Y-87600000D03*
X63500000Y-89400000D03*
X61700000Y-89400000D03*
X63500000Y-87600000D03*
X57657500Y-67235000D03*
X60342500Y-67235000D03*
X50000000Y-65700000D03*
X67800000Y-65500000D03*
X59000000Y-61600000D03*
X51900000Y-78500000D03*
X68800000Y-96600000D03*
X59600000Y-97500000D03*
X52900000Y-97500000D03*
X65650000Y-96150000D03*
X68000000Y-86700000D03*
X68600000Y-72300000D03*
X57657500Y-65765000D03*
X60342500Y-65765000D03*
X53900000Y-82900000D03*
X54500000Y-88500000D03*
X61811578Y-72588422D03*
X63000000Y-94700000D03*
X65750000Y-88750000D03*
X53900000Y-86500000D03*
X65700000Y-87300000D03*
X56200000Y-86400000D03*
X65700000Y-86647597D03*
X56200000Y-87900000D03*
D15*
X52000000Y-65400000D03*
X66000000Y-65400000D03*
X65200000Y-73200000D03*
X58900000Y-73800000D03*
X59500000Y-73800000D03*
D16*
X58500000Y-89800000D03*
X58500000Y-90600000D03*
X62832400Y-91800000D03*
X62600000Y-92500000D03*
X59100000Y-91700000D03*
D15*
X50725000Y-78700000D03*
X62200000Y-63800000D03*
X63000000Y-63500000D03*
X56300000Y-62400000D03*
X54700000Y-66600000D03*
D16*
X60600000Y-81050000D03*
X60597600Y-82500000D03*
X61310172Y-85238918D03*
X67200000Y-96600000D03*
X59200000Y-94200000D03*
X59687599Y-96557401D03*
X59800000Y-93700000D03*
X58400000Y-95600000D03*
X59511231Y-87267600D03*
X60300000Y-90872789D03*
X60700000Y-70700000D03*
X64500000Y-83800000D03*
X57400000Y-70700000D03*
X63800000Y-83800000D03*
X59000000Y-98272598D03*
X63340944Y-85345035D03*
X62300000Y-83800000D03*
X56700000Y-70700000D03*
D15*
X54600000Y-80475000D03*
X54600000Y-79100000D03*
D17*
G36*
X69525000Y-99525000D02*
G01*
X48475000Y-99525000D01*
X48475000Y-98206116D01*
X58325000Y-98206116D01*
X58325000Y-98339080D01*
X58350940Y-98469488D01*
X58401823Y-98592330D01*
X58475693Y-98702885D01*
X58569713Y-98796905D01*
X58680268Y-98870775D01*
X58803110Y-98921658D01*
X58933518Y-98947598D01*
X59066482Y-98947598D01*
X59196890Y-98921658D01*
X59319732Y-98870775D01*
X59430287Y-98796905D01*
X59524307Y-98702885D01*
X59598177Y-98592330D01*
X59649060Y-98469488D01*
X59675000Y-98339080D01*
X59675000Y-98206116D01*
X59649060Y-98075708D01*
X59598177Y-97952866D01*
X59524307Y-97842311D01*
X59430287Y-97748291D01*
X59319732Y-97674421D01*
X59196890Y-97623538D01*
X59066482Y-97597598D01*
X58933518Y-97597598D01*
X58803110Y-97623538D01*
X58680268Y-97674421D01*
X58569713Y-97748291D01*
X58475693Y-97842311D01*
X58401823Y-97952866D01*
X58350940Y-98075708D01*
X58325000Y-98206116D01*
X48475000Y-98206116D01*
X48475000Y-96883518D01*
X53425000Y-96883518D01*
X53425000Y-97016482D01*
X53450940Y-97146890D01*
X53501823Y-97269732D01*
X53575693Y-97380287D01*
X53669713Y-97474307D01*
X53780268Y-97548177D01*
X53903110Y-97599060D01*
X54033518Y-97625000D01*
X54166482Y-97625000D01*
X54296890Y-97599060D01*
X54419732Y-97548177D01*
X54530287Y-97474307D01*
X54624307Y-97380287D01*
X54698177Y-97269732D01*
X54749060Y-97146890D01*
X54775000Y-97016482D01*
X54775000Y-96883518D01*
X54749060Y-96753110D01*
X54698177Y-96630268D01*
X54624307Y-96519713D01*
X54595513Y-96490919D01*
X59012599Y-96490919D01*
X59012599Y-96623883D01*
X59038539Y-96754291D01*
X59089422Y-96877133D01*
X59163292Y-96987688D01*
X59257312Y-97081708D01*
X59367867Y-97155578D01*
X59490709Y-97206461D01*
X59621117Y-97232401D01*
X59754081Y-97232401D01*
X59884489Y-97206461D01*
X60007331Y-97155578D01*
X60117886Y-97081708D01*
X60211906Y-96987688D01*
X60285776Y-96877133D01*
X60336659Y-96754291D01*
X60362599Y-96623883D01*
X60362599Y-96533518D01*
X66525000Y-96533518D01*
X66525000Y-96666482D01*
X66550940Y-96796890D01*
X66601823Y-96919732D01*
X66675693Y-97030287D01*
X66769713Y-97124307D01*
X66880268Y-97198177D01*
X67003110Y-97249060D01*
X67133518Y-97275000D01*
X67266482Y-97275000D01*
X67396890Y-97249060D01*
X67519732Y-97198177D01*
X67630287Y-97124307D01*
X67724307Y-97030287D01*
X67798177Y-96919732D01*
X67849060Y-96796890D01*
X67875000Y-96666482D01*
X67875000Y-96533518D01*
X67849060Y-96403110D01*
X67798177Y-96280268D01*
X67724307Y-96169713D01*
X67630287Y-96075693D01*
X67519732Y-96001823D01*
X67396890Y-95950940D01*
X67266482Y-95925000D01*
X67133518Y-95925000D01*
X67003110Y-95950940D01*
X66880268Y-96001823D01*
X66769713Y-96075693D01*
X66675693Y-96169713D01*
X66601823Y-96280268D01*
X66550940Y-96403110D01*
X66525000Y-96533518D01*
X60362599Y-96533518D01*
X60362599Y-96490919D01*
X60336659Y-96360511D01*
X60285776Y-96237669D01*
X60211906Y-96127114D01*
X60117886Y-96033094D01*
X60007331Y-95959224D01*
X59884489Y-95908341D01*
X59754081Y-95882401D01*
X59621117Y-95882401D01*
X59490709Y-95908341D01*
X59367867Y-95959224D01*
X59257312Y-96033094D01*
X59163292Y-96127114D01*
X59089422Y-96237669D01*
X59038539Y-96360511D01*
X59012599Y-96490919D01*
X54595513Y-96490919D01*
X54530287Y-96425693D01*
X54419732Y-96351823D01*
X54296890Y-96300940D01*
X54166482Y-96275000D01*
X54033518Y-96275000D01*
X53903110Y-96300940D01*
X53780268Y-96351823D01*
X53669713Y-96425693D01*
X53575693Y-96519713D01*
X53501823Y-96630268D01*
X53450940Y-96753110D01*
X53425000Y-96883518D01*
X48475000Y-96883518D01*
X48475000Y-90900000D01*
X49321009Y-90900000D01*
X49336938Y-91061728D01*
X49384112Y-91217241D01*
X49460719Y-91360563D01*
X49563815Y-91486185D01*
X49611111Y-91525000D01*
X49563815Y-91563815D01*
X49460719Y-91689437D01*
X49384112Y-91832759D01*
X49336938Y-91988272D01*
X49321009Y-92150000D01*
X49336938Y-92311728D01*
X49384112Y-92467241D01*
X49460719Y-92610563D01*
X49563815Y-92736185D01*
X49611111Y-92775000D01*
X49563815Y-92813815D01*
X49460719Y-92939437D01*
X49384112Y-93082759D01*
X49336938Y-93238272D01*
X49321009Y-93400000D01*
X49336938Y-93561728D01*
X49384112Y-93717241D01*
X49460719Y-93860563D01*
X49563815Y-93986185D01*
X49611111Y-94025000D01*
X49563815Y-94063815D01*
X49460719Y-94189437D01*
X49384112Y-94332759D01*
X49336938Y-94488272D01*
X49321009Y-94650000D01*
X49336938Y-94811728D01*
X49384112Y-94967241D01*
X49460719Y-95110563D01*
X49563815Y-95236185D01*
X49611111Y-95275000D01*
X49563815Y-95313815D01*
X49460719Y-95439437D01*
X49384112Y-95582759D01*
X49336938Y-95738272D01*
X49321009Y-95900000D01*
X49336938Y-96061728D01*
X49384112Y-96217241D01*
X49460719Y-96360563D01*
X49563815Y-96486185D01*
X49689437Y-96589281D01*
X49832759Y-96665888D01*
X49988272Y-96713062D01*
X50109479Y-96725000D01*
X50690521Y-96725000D01*
X50811728Y-96713062D01*
X50967241Y-96665888D01*
X51110563Y-96589281D01*
X51236185Y-96486185D01*
X51339281Y-96360563D01*
X51415888Y-96217241D01*
X51463062Y-96061728D01*
X51478991Y-95900000D01*
X51463062Y-95738272D01*
X51415888Y-95582759D01*
X51389569Y-95533518D01*
X57725000Y-95533518D01*
X57725000Y-95666482D01*
X57750940Y-95796890D01*
X57801823Y-95919732D01*
X57875693Y-96030287D01*
X57969713Y-96124307D01*
X58080268Y-96198177D01*
X58203110Y-96249060D01*
X58333518Y-96275000D01*
X58466482Y-96275000D01*
X58596890Y-96249060D01*
X58719732Y-96198177D01*
X58830287Y-96124307D01*
X58924307Y-96030287D01*
X58998177Y-95919732D01*
X59049060Y-95796890D01*
X59075000Y-95666482D01*
X59075000Y-95533518D01*
X59049060Y-95403110D01*
X58998177Y-95280268D01*
X58924307Y-95169713D01*
X58830287Y-95075693D01*
X58719732Y-95001823D01*
X58596890Y-94950940D01*
X58484551Y-94928594D01*
X64375000Y-94928594D01*
X64375000Y-95071406D01*
X64402861Y-95211475D01*
X64457513Y-95343416D01*
X64536856Y-95462161D01*
X64637839Y-95563144D01*
X64756584Y-95642487D01*
X64888525Y-95697139D01*
X65028594Y-95725000D01*
X65171406Y-95725000D01*
X65311475Y-95697139D01*
X65443416Y-95642487D01*
X65562161Y-95563144D01*
X65663144Y-95462161D01*
X65742487Y-95343416D01*
X65797139Y-95211475D01*
X65825000Y-95071406D01*
X65825000Y-94928594D01*
X65797139Y-94788525D01*
X65742487Y-94656584D01*
X65663144Y-94537839D01*
X65562161Y-94436856D01*
X65443416Y-94357513D01*
X65311475Y-94302861D01*
X65171406Y-94275000D01*
X65028594Y-94275000D01*
X64888525Y-94302861D01*
X64756584Y-94357513D01*
X64637839Y-94436856D01*
X64536856Y-94537839D01*
X64457513Y-94656584D01*
X64402861Y-94788525D01*
X64375000Y-94928594D01*
X58484551Y-94928594D01*
X58466482Y-94925000D01*
X58333518Y-94925000D01*
X58203110Y-94950940D01*
X58080268Y-95001823D01*
X57969713Y-95075693D01*
X57875693Y-95169713D01*
X57801823Y-95280268D01*
X57750940Y-95403110D01*
X57725000Y-95533518D01*
X51389569Y-95533518D01*
X51339281Y-95439437D01*
X51236185Y-95313815D01*
X51188889Y-95275000D01*
X51236185Y-95236185D01*
X51339281Y-95110563D01*
X51415888Y-94967241D01*
X51463062Y-94811728D01*
X51478991Y-94650000D01*
X51463062Y-94488272D01*
X51415888Y-94332759D01*
X51339281Y-94189437D01*
X51293390Y-94133518D01*
X58525000Y-94133518D01*
X58525000Y-94266482D01*
X58550940Y-94396890D01*
X58601823Y-94519732D01*
X58675693Y-94630287D01*
X58769713Y-94724307D01*
X58880268Y-94798177D01*
X59003110Y-94849060D01*
X59133518Y-94875000D01*
X59266482Y-94875000D01*
X59396890Y-94849060D01*
X59519732Y-94798177D01*
X59630287Y-94724307D01*
X59724307Y-94630287D01*
X59798177Y-94519732D01*
X59849060Y-94396890D01*
X59853414Y-94375000D01*
X59866482Y-94375000D01*
X59996890Y-94349060D01*
X60119732Y-94298177D01*
X60230287Y-94224307D01*
X60324307Y-94130287D01*
X60398177Y-94019732D01*
X60449060Y-93896890D01*
X60475000Y-93766482D01*
X60475000Y-93633518D01*
X60449060Y-93503110D01*
X60398177Y-93380268D01*
X60324307Y-93269713D01*
X60230287Y-93175693D01*
X60119732Y-93101823D01*
X59996890Y-93050940D01*
X59866482Y-93025000D01*
X59733518Y-93025000D01*
X59603110Y-93050940D01*
X59480268Y-93101823D01*
X59369713Y-93175693D01*
X59275693Y-93269713D01*
X59201823Y-93380268D01*
X59150940Y-93503110D01*
X59146586Y-93525000D01*
X59133518Y-93525000D01*
X59003110Y-93550940D01*
X58880268Y-93601823D01*
X58769713Y-93675693D01*
X58675693Y-93769713D01*
X58601823Y-93880268D01*
X58550940Y-94003110D01*
X58525000Y-94133518D01*
X51293390Y-94133518D01*
X51236185Y-94063815D01*
X51188889Y-94025000D01*
X51236185Y-93986185D01*
X51339281Y-93860563D01*
X51415888Y-93717241D01*
X51463062Y-93561728D01*
X51478991Y-93400000D01*
X51463062Y-93238272D01*
X51415888Y-93082759D01*
X51339281Y-92939437D01*
X51236185Y-92813815D01*
X51188889Y-92775000D01*
X51236185Y-92736185D01*
X51339281Y-92610563D01*
X51415888Y-92467241D01*
X51426117Y-92433518D01*
X61925000Y-92433518D01*
X61925000Y-92566482D01*
X61950940Y-92696890D01*
X62001823Y-92819732D01*
X62075693Y-92930287D01*
X62169713Y-93024307D01*
X62280268Y-93098177D01*
X62403110Y-93149060D01*
X62533518Y-93175000D01*
X62666482Y-93175000D01*
X62796890Y-93149060D01*
X62919732Y-93098177D01*
X63030287Y-93024307D01*
X63124307Y-92930287D01*
X63198177Y-92819732D01*
X63249060Y-92696890D01*
X63275000Y-92566482D01*
X63275000Y-92433518D01*
X63254380Y-92329857D01*
X63262687Y-92324307D01*
X63356707Y-92230287D01*
X63430577Y-92119732D01*
X63481460Y-91996890D01*
X63507400Y-91866482D01*
X63507400Y-91733518D01*
X63481460Y-91603110D01*
X63430577Y-91480268D01*
X63356707Y-91369713D01*
X63262687Y-91275693D01*
X63152132Y-91201823D01*
X63029290Y-91150940D01*
X62898882Y-91125000D01*
X62765918Y-91125000D01*
X62635510Y-91150940D01*
X62512668Y-91201823D01*
X62402113Y-91275693D01*
X62308093Y-91369713D01*
X62234223Y-91480268D01*
X62183340Y-91603110D01*
X62157400Y-91733518D01*
X62157400Y-91866482D01*
X62178020Y-91970143D01*
X62169713Y-91975693D01*
X62075693Y-92069713D01*
X62001823Y-92180268D01*
X61950940Y-92303110D01*
X61925000Y-92433518D01*
X51426117Y-92433518D01*
X51463062Y-92311728D01*
X51478991Y-92150000D01*
X51463062Y-91988272D01*
X51415888Y-91832759D01*
X51339281Y-91689437D01*
X51236185Y-91563815D01*
X51188889Y-91525000D01*
X51236185Y-91486185D01*
X51339281Y-91360563D01*
X51415888Y-91217241D01*
X51463062Y-91061728D01*
X51478991Y-90900000D01*
X51463062Y-90738272D01*
X51415888Y-90582759D01*
X51339281Y-90439437D01*
X51236185Y-90313815D01*
X51146932Y-90240567D01*
X51215686Y-90180329D01*
X51308279Y-90059779D01*
X51375574Y-89923481D01*
X51411150Y-89795866D01*
X51369698Y-89733518D01*
X57825000Y-89733518D01*
X57825000Y-89866482D01*
X57850940Y-89996890D01*
X57901823Y-90119732D01*
X57955456Y-90200000D01*
X57901823Y-90280268D01*
X57850940Y-90403110D01*
X57825000Y-90533518D01*
X57825000Y-90666482D01*
X57850940Y-90796890D01*
X57901823Y-90919732D01*
X57975693Y-91030287D01*
X58069713Y-91124307D01*
X58180268Y-91198177D01*
X58303110Y-91249060D01*
X58433518Y-91275000D01*
X58566482Y-91275000D01*
X58573031Y-91273697D01*
X58501823Y-91380268D01*
X58450940Y-91503110D01*
X58425000Y-91633518D01*
X58425000Y-91766482D01*
X58450940Y-91896890D01*
X58501823Y-92019732D01*
X58575693Y-92130287D01*
X58669713Y-92224307D01*
X58780268Y-92298177D01*
X58903110Y-92349060D01*
X59033518Y-92375000D01*
X59166482Y-92375000D01*
X59296890Y-92349060D01*
X59419732Y-92298177D01*
X59530287Y-92224307D01*
X59624307Y-92130287D01*
X59698177Y-92019732D01*
X59749060Y-91896890D01*
X59775000Y-91766482D01*
X59775000Y-91633518D01*
X59749060Y-91503110D01*
X59698177Y-91380268D01*
X59624307Y-91269713D01*
X59530287Y-91175693D01*
X59419732Y-91101823D01*
X59296890Y-91050940D01*
X59166482Y-91025000D01*
X59033518Y-91025000D01*
X59026969Y-91026303D01*
X59098177Y-90919732D01*
X59145159Y-90806307D01*
X59625000Y-90806307D01*
X59625000Y-90939271D01*
X59650940Y-91069679D01*
X59701823Y-91192521D01*
X59775693Y-91303076D01*
X59869713Y-91397096D01*
X59980268Y-91470966D01*
X60103110Y-91521849D01*
X60233518Y-91547789D01*
X60366482Y-91547789D01*
X60496890Y-91521849D01*
X60619732Y-91470966D01*
X60730287Y-91397096D01*
X60824307Y-91303076D01*
X60898177Y-91192521D01*
X60949060Y-91069679D01*
X60975000Y-90939271D01*
X60975000Y-90806307D01*
X60949060Y-90675899D01*
X60898177Y-90553057D01*
X60824307Y-90442502D01*
X60730287Y-90348482D01*
X60619732Y-90274612D01*
X60496890Y-90223729D01*
X60366482Y-90197789D01*
X60233518Y-90197789D01*
X60103110Y-90223729D01*
X59980268Y-90274612D01*
X59869713Y-90348482D01*
X59775693Y-90442502D01*
X59701823Y-90553057D01*
X59650940Y-90675899D01*
X59625000Y-90806307D01*
X59145159Y-90806307D01*
X59149060Y-90796890D01*
X59175000Y-90666482D01*
X59175000Y-90533518D01*
X59149060Y-90403110D01*
X59098177Y-90280268D01*
X59044544Y-90200000D01*
X59098177Y-90119732D01*
X59149060Y-89996890D01*
X59175000Y-89866482D01*
X59175000Y-89733518D01*
X59149060Y-89603110D01*
X59098177Y-89480268D01*
X59024307Y-89369713D01*
X58930287Y-89275693D01*
X58819732Y-89201823D01*
X58696890Y-89150940D01*
X58566482Y-89125000D01*
X58433518Y-89125000D01*
X58303110Y-89150940D01*
X58180268Y-89201823D01*
X58069713Y-89275693D01*
X57975693Y-89369713D01*
X57901823Y-89480268D01*
X57850940Y-89603110D01*
X57825000Y-89733518D01*
X51369698Y-89733518D01*
X51330791Y-89675000D01*
X50425000Y-89675000D01*
X50425000Y-89695000D01*
X50375000Y-89695000D01*
X50375000Y-89675000D01*
X49469209Y-89675000D01*
X49388850Y-89795866D01*
X49424426Y-89923481D01*
X49491721Y-90059779D01*
X49584314Y-90180329D01*
X49653068Y-90240567D01*
X49563815Y-90313815D01*
X49460719Y-90439437D01*
X49384112Y-90582759D01*
X49336938Y-90738272D01*
X49321009Y-90900000D01*
X48475000Y-90900000D01*
X48475000Y-88200000D01*
X49322944Y-88200000D01*
X49322944Y-88600000D01*
X49334993Y-88722333D01*
X49370676Y-88839964D01*
X49428622Y-88948374D01*
X49506604Y-89043396D01*
X49591681Y-89113216D01*
X49584314Y-89119671D01*
X49491721Y-89240221D01*
X49424426Y-89376519D01*
X49388850Y-89504134D01*
X49469209Y-89625000D01*
X50375000Y-89625000D01*
X50375000Y-89605000D01*
X50425000Y-89605000D01*
X50425000Y-89625000D01*
X51330791Y-89625000D01*
X51411150Y-89504134D01*
X51375574Y-89376519D01*
X51308279Y-89240221D01*
X51215686Y-89119671D01*
X51208319Y-89113216D01*
X51293396Y-89043396D01*
X51371378Y-88948374D01*
X51429324Y-88839964D01*
X51465007Y-88722333D01*
X51468830Y-88683518D01*
X65075000Y-88683518D01*
X65075000Y-88816482D01*
X65100940Y-88946890D01*
X65151823Y-89069732D01*
X65225693Y-89180287D01*
X65319713Y-89274307D01*
X65430268Y-89348177D01*
X65553110Y-89399060D01*
X65683518Y-89425000D01*
X65816482Y-89425000D01*
X65946890Y-89399060D01*
X66069732Y-89348177D01*
X66180287Y-89274307D01*
X66274307Y-89180287D01*
X66348177Y-89069732D01*
X66399060Y-88946890D01*
X66425000Y-88816482D01*
X66425000Y-88683518D01*
X66399060Y-88553110D01*
X66348177Y-88430268D01*
X66274307Y-88319713D01*
X66180287Y-88225693D01*
X66069732Y-88151823D01*
X65946890Y-88100940D01*
X65816482Y-88075000D01*
X65683518Y-88075000D01*
X65553110Y-88100940D01*
X65430268Y-88151823D01*
X65319713Y-88225693D01*
X65225693Y-88319713D01*
X65151823Y-88430268D01*
X65100940Y-88553110D01*
X65075000Y-88683518D01*
X51468830Y-88683518D01*
X51477056Y-88600000D01*
X51477056Y-88200000D01*
X51465007Y-88077667D01*
X51429324Y-87960036D01*
X51371378Y-87851626D01*
X51356518Y-87833518D01*
X55525000Y-87833518D01*
X55525000Y-87966482D01*
X55550940Y-88096890D01*
X55601823Y-88219732D01*
X55675693Y-88330287D01*
X55769713Y-88424307D01*
X55880268Y-88498177D01*
X56003110Y-88549060D01*
X56133518Y-88575000D01*
X56266482Y-88575000D01*
X56396890Y-88549060D01*
X56519732Y-88498177D01*
X56630287Y-88424307D01*
X56724307Y-88330287D01*
X56798177Y-88219732D01*
X56849060Y-88096890D01*
X56875000Y-87966482D01*
X56875000Y-87833518D01*
X56849060Y-87703110D01*
X56798177Y-87580268D01*
X56724307Y-87469713D01*
X56630287Y-87375693D01*
X56519732Y-87301823D01*
X56396890Y-87250940D01*
X56266482Y-87225000D01*
X56133518Y-87225000D01*
X56003110Y-87250940D01*
X55880268Y-87301823D01*
X55769713Y-87375693D01*
X55675693Y-87469713D01*
X55601823Y-87580268D01*
X55550940Y-87703110D01*
X55525000Y-87833518D01*
X51356518Y-87833518D01*
X51293396Y-87756604D01*
X51198374Y-87678622D01*
X51089964Y-87620676D01*
X50972333Y-87584993D01*
X50850000Y-87572944D01*
X49950000Y-87572944D01*
X49827667Y-87584993D01*
X49710036Y-87620676D01*
X49601626Y-87678622D01*
X49506604Y-87756604D01*
X49428622Y-87851626D01*
X49370676Y-87960036D01*
X49334993Y-88077667D01*
X49322944Y-88200000D01*
X48475000Y-88200000D01*
X48475000Y-87201118D01*
X58836231Y-87201118D01*
X58836231Y-87334082D01*
X58862171Y-87464490D01*
X58913054Y-87587332D01*
X58986924Y-87697887D01*
X59080944Y-87791907D01*
X59191499Y-87865777D01*
X59314341Y-87916660D01*
X59444749Y-87942600D01*
X59577713Y-87942600D01*
X59708121Y-87916660D01*
X59830963Y-87865777D01*
X59941518Y-87791907D01*
X60035538Y-87697887D01*
X60109408Y-87587332D01*
X60160291Y-87464490D01*
X60186231Y-87334082D01*
X60186231Y-87201118D01*
X60160291Y-87070710D01*
X60109408Y-86947868D01*
X60035538Y-86837313D01*
X59941518Y-86743293D01*
X59830963Y-86669423D01*
X59708121Y-86618540D01*
X59577713Y-86592600D01*
X59444749Y-86592600D01*
X59314341Y-86618540D01*
X59191499Y-86669423D01*
X59080944Y-86743293D01*
X58986924Y-86837313D01*
X58913054Y-86947868D01*
X58862171Y-87070710D01*
X58836231Y-87201118D01*
X48475000Y-87201118D01*
X48475000Y-86433518D01*
X53225000Y-86433518D01*
X53225000Y-86566482D01*
X53250940Y-86696890D01*
X53301823Y-86819732D01*
X53375693Y-86930287D01*
X53469713Y-87024307D01*
X53580268Y-87098177D01*
X53703110Y-87149060D01*
X53833518Y-87175000D01*
X53966482Y-87175000D01*
X54096890Y-87149060D01*
X54219732Y-87098177D01*
X54330287Y-87024307D01*
X54424307Y-86930287D01*
X54498177Y-86819732D01*
X54549060Y-86696890D01*
X54575000Y-86566482D01*
X54575000Y-86433518D01*
X54555109Y-86333518D01*
X55525000Y-86333518D01*
X55525000Y-86466482D01*
X55550940Y-86596890D01*
X55601823Y-86719732D01*
X55675693Y-86830287D01*
X55769713Y-86924307D01*
X55880268Y-86998177D01*
X56003110Y-87049060D01*
X56133518Y-87075000D01*
X56266482Y-87075000D01*
X56396890Y-87049060D01*
X56519732Y-86998177D01*
X56630287Y-86924307D01*
X56724307Y-86830287D01*
X56798177Y-86719732D01*
X56849060Y-86596890D01*
X56852197Y-86581115D01*
X65025000Y-86581115D01*
X65025000Y-86714079D01*
X65050940Y-86844487D01*
X65101823Y-86967329D01*
X65106146Y-86973799D01*
X65101823Y-86980268D01*
X65050940Y-87103110D01*
X65025000Y-87233518D01*
X65025000Y-87366482D01*
X65050940Y-87496890D01*
X65101823Y-87619732D01*
X65175693Y-87730287D01*
X65269713Y-87824307D01*
X65380268Y-87898177D01*
X65503110Y-87949060D01*
X65633518Y-87975000D01*
X65766482Y-87975000D01*
X65896890Y-87949060D01*
X66019732Y-87898177D01*
X66130287Y-87824307D01*
X66224307Y-87730287D01*
X66298177Y-87619732D01*
X66349060Y-87496890D01*
X66375000Y-87366482D01*
X66375000Y-87233518D01*
X66349060Y-87103110D01*
X66298177Y-86980268D01*
X66293854Y-86973799D01*
X66298177Y-86967329D01*
X66349060Y-86844487D01*
X66375000Y-86714079D01*
X66375000Y-86581115D01*
X66349060Y-86450707D01*
X66298177Y-86327865D01*
X66224307Y-86217310D01*
X66130287Y-86123290D01*
X66019732Y-86049420D01*
X65896890Y-85998537D01*
X65766482Y-85972597D01*
X65633518Y-85972597D01*
X65503110Y-85998537D01*
X65380268Y-86049420D01*
X65269713Y-86123290D01*
X65175693Y-86217310D01*
X65101823Y-86327865D01*
X65050940Y-86450707D01*
X65025000Y-86581115D01*
X56852197Y-86581115D01*
X56875000Y-86466482D01*
X56875000Y-86333518D01*
X56849060Y-86203110D01*
X56798177Y-86080268D01*
X56724307Y-85969713D01*
X56630287Y-85875693D01*
X56519732Y-85801823D01*
X56396890Y-85750940D01*
X56266482Y-85725000D01*
X56133518Y-85725000D01*
X56003110Y-85750940D01*
X55880268Y-85801823D01*
X55769713Y-85875693D01*
X55675693Y-85969713D01*
X55601823Y-86080268D01*
X55550940Y-86203110D01*
X55525000Y-86333518D01*
X54555109Y-86333518D01*
X54549060Y-86303110D01*
X54498177Y-86180268D01*
X54424307Y-86069713D01*
X54330287Y-85975693D01*
X54219732Y-85901823D01*
X54096890Y-85850940D01*
X53966482Y-85825000D01*
X53833518Y-85825000D01*
X53703110Y-85850940D01*
X53580268Y-85901823D01*
X53469713Y-85975693D01*
X53375693Y-86069713D01*
X53301823Y-86180268D01*
X53250940Y-86303110D01*
X53225000Y-86433518D01*
X48475000Y-86433518D01*
X48475000Y-85172436D01*
X60635172Y-85172436D01*
X60635172Y-85305400D01*
X60661112Y-85435808D01*
X60711995Y-85558650D01*
X60785865Y-85669205D01*
X60879885Y-85763225D01*
X60990440Y-85837095D01*
X61113282Y-85887978D01*
X61243690Y-85913918D01*
X61376654Y-85913918D01*
X61507062Y-85887978D01*
X61629904Y-85837095D01*
X61740459Y-85763225D01*
X61834479Y-85669205D01*
X61908349Y-85558650D01*
X61959232Y-85435808D01*
X61985172Y-85305400D01*
X61985172Y-85278553D01*
X62665944Y-85278553D01*
X62665944Y-85411517D01*
X62691884Y-85541925D01*
X62742767Y-85664767D01*
X62816637Y-85775322D01*
X62910657Y-85869342D01*
X63021212Y-85943212D01*
X63144054Y-85994095D01*
X63274462Y-86020035D01*
X63407426Y-86020035D01*
X63537834Y-85994095D01*
X63660676Y-85943212D01*
X63771231Y-85869342D01*
X63865251Y-85775322D01*
X63939121Y-85664767D01*
X63990004Y-85541925D01*
X64015944Y-85411517D01*
X64015944Y-85278553D01*
X63990004Y-85148145D01*
X63939121Y-85025303D01*
X63865251Y-84914748D01*
X63771231Y-84820728D01*
X63660676Y-84746858D01*
X63537834Y-84695975D01*
X63407426Y-84670035D01*
X63274462Y-84670035D01*
X63144054Y-84695975D01*
X63021212Y-84746858D01*
X62910657Y-84820728D01*
X62816637Y-84914748D01*
X62742767Y-85025303D01*
X62691884Y-85148145D01*
X62665944Y-85278553D01*
X61985172Y-85278553D01*
X61985172Y-85172436D01*
X61959232Y-85042028D01*
X61908349Y-84919186D01*
X61834479Y-84808631D01*
X61740459Y-84714611D01*
X61629904Y-84640741D01*
X61507062Y-84589858D01*
X61376654Y-84563918D01*
X61243690Y-84563918D01*
X61113282Y-84589858D01*
X60990440Y-84640741D01*
X60879885Y-84714611D01*
X60785865Y-84808631D01*
X60711995Y-84919186D01*
X60661112Y-85042028D01*
X60635172Y-85172436D01*
X48475000Y-85172436D01*
X48475000Y-83428594D01*
X58975000Y-83428594D01*
X58975000Y-83571406D01*
X59002861Y-83711475D01*
X59057513Y-83843416D01*
X59136856Y-83962161D01*
X59237839Y-84063144D01*
X59356584Y-84142487D01*
X59488525Y-84197139D01*
X59628594Y-84225000D01*
X59771406Y-84225000D01*
X59911475Y-84197139D01*
X60043416Y-84142487D01*
X60162161Y-84063144D01*
X60263144Y-83962161D01*
X60342487Y-83843416D01*
X60388008Y-83733518D01*
X61625000Y-83733518D01*
X61625000Y-83866482D01*
X61650940Y-83996890D01*
X61701823Y-84119732D01*
X61775693Y-84230287D01*
X61869713Y-84324307D01*
X61980268Y-84398177D01*
X62103110Y-84449060D01*
X62233518Y-84475000D01*
X62366482Y-84475000D01*
X62496890Y-84449060D01*
X62619732Y-84398177D01*
X62730287Y-84324307D01*
X62824307Y-84230287D01*
X62898177Y-84119732D01*
X62949060Y-83996890D01*
X62975000Y-83866482D01*
X62975000Y-83733518D01*
X63125000Y-83733518D01*
X63125000Y-83866482D01*
X63150940Y-83996890D01*
X63201823Y-84119732D01*
X63275693Y-84230287D01*
X63369713Y-84324307D01*
X63480268Y-84398177D01*
X63603110Y-84449060D01*
X63733518Y-84475000D01*
X63866482Y-84475000D01*
X63996890Y-84449060D01*
X64119732Y-84398177D01*
X64150000Y-84377953D01*
X64180268Y-84398177D01*
X64303110Y-84449060D01*
X64433518Y-84475000D01*
X64566482Y-84475000D01*
X64696890Y-84449060D01*
X64819732Y-84398177D01*
X64930287Y-84324307D01*
X65024307Y-84230287D01*
X65098177Y-84119732D01*
X65149060Y-83996890D01*
X65175000Y-83866482D01*
X65175000Y-83733518D01*
X65174021Y-83728594D01*
X66475000Y-83728594D01*
X66475000Y-83871406D01*
X66502861Y-84011475D01*
X66557513Y-84143416D01*
X66636856Y-84262161D01*
X66737839Y-84363144D01*
X66856584Y-84442487D01*
X66988525Y-84497139D01*
X67128594Y-84525000D01*
X67271406Y-84525000D01*
X67411475Y-84497139D01*
X67543416Y-84442487D01*
X67662161Y-84363144D01*
X67763144Y-84262161D01*
X67842487Y-84143416D01*
X67897139Y-84011475D01*
X67925000Y-83871406D01*
X67925000Y-83728594D01*
X67897139Y-83588525D01*
X67842487Y-83456584D01*
X67763144Y-83337839D01*
X67662161Y-83236856D01*
X67543416Y-83157513D01*
X67411475Y-83102861D01*
X67271406Y-83075000D01*
X67128594Y-83075000D01*
X66988525Y-83102861D01*
X66856584Y-83157513D01*
X66737839Y-83236856D01*
X66636856Y-83337839D01*
X66557513Y-83456584D01*
X66502861Y-83588525D01*
X66475000Y-83728594D01*
X65174021Y-83728594D01*
X65149060Y-83603110D01*
X65098177Y-83480268D01*
X65024307Y-83369713D01*
X64930287Y-83275693D01*
X64819732Y-83201823D01*
X64696890Y-83150940D01*
X64566482Y-83125000D01*
X64433518Y-83125000D01*
X64303110Y-83150940D01*
X64180268Y-83201823D01*
X64150000Y-83222047D01*
X64119732Y-83201823D01*
X63996890Y-83150940D01*
X63866482Y-83125000D01*
X63733518Y-83125000D01*
X63603110Y-83150940D01*
X63480268Y-83201823D01*
X63369713Y-83275693D01*
X63275693Y-83369713D01*
X63201823Y-83480268D01*
X63150940Y-83603110D01*
X63125000Y-83733518D01*
X62975000Y-83733518D01*
X62949060Y-83603110D01*
X62898177Y-83480268D01*
X62824307Y-83369713D01*
X62730287Y-83275693D01*
X62619732Y-83201823D01*
X62496890Y-83150940D01*
X62366482Y-83125000D01*
X62233518Y-83125000D01*
X62103110Y-83150940D01*
X61980268Y-83201823D01*
X61869713Y-83275693D01*
X61775693Y-83369713D01*
X61701823Y-83480268D01*
X61650940Y-83603110D01*
X61625000Y-83733518D01*
X60388008Y-83733518D01*
X60397139Y-83711475D01*
X60425000Y-83571406D01*
X60425000Y-83428594D01*
X60397139Y-83288525D01*
X60342487Y-83156584D01*
X60313255Y-83112835D01*
X60400710Y-83149060D01*
X60531118Y-83175000D01*
X60664082Y-83175000D01*
X60794490Y-83149060D01*
X60917332Y-83098177D01*
X61027887Y-83024307D01*
X61121907Y-82930287D01*
X61195777Y-82819732D01*
X61246660Y-82696890D01*
X61272600Y-82566482D01*
X61272600Y-82433518D01*
X61246660Y-82303110D01*
X61195777Y-82180268D01*
X61121907Y-82069713D01*
X61027887Y-81975693D01*
X60917332Y-81901823D01*
X60794490Y-81850940D01*
X60664082Y-81825000D01*
X60531118Y-81825000D01*
X60400710Y-81850940D01*
X60277868Y-81901823D01*
X60167313Y-81975693D01*
X60073293Y-82069713D01*
X59999423Y-82180268D01*
X59948540Y-82303110D01*
X59922600Y-82433518D01*
X59922600Y-82566482D01*
X59948540Y-82696890D01*
X59999423Y-82819732D01*
X60017492Y-82846775D01*
X59911475Y-82802861D01*
X59771406Y-82775000D01*
X59628594Y-82775000D01*
X59488525Y-82802861D01*
X59356584Y-82857513D01*
X59237839Y-82936856D01*
X59136856Y-83037839D01*
X59057513Y-83156584D01*
X59002861Y-83288525D01*
X58975000Y-83428594D01*
X48475000Y-83428594D01*
X48475000Y-82128594D01*
X56075000Y-82128594D01*
X56075000Y-82271406D01*
X56102861Y-82411475D01*
X56157513Y-82543416D01*
X56236856Y-82662161D01*
X56337839Y-82763144D01*
X56456584Y-82842487D01*
X56588525Y-82897139D01*
X56728594Y-82925000D01*
X56871406Y-82925000D01*
X57011475Y-82897139D01*
X57143416Y-82842487D01*
X57262161Y-82763144D01*
X57363144Y-82662161D01*
X57442487Y-82543416D01*
X57497139Y-82411475D01*
X57525000Y-82271406D01*
X57525000Y-82128594D01*
X57497139Y-81988525D01*
X57442487Y-81856584D01*
X57363144Y-81737839D01*
X57262161Y-81636856D01*
X57143416Y-81557513D01*
X57011475Y-81502861D01*
X56871406Y-81475000D01*
X56728594Y-81475000D01*
X56588525Y-81502861D01*
X56456584Y-81557513D01*
X56337839Y-81636856D01*
X56236856Y-81737839D01*
X56157513Y-81856584D01*
X56102861Y-81988525D01*
X56075000Y-82128594D01*
X48475000Y-82128594D01*
X48475000Y-78628594D01*
X50000000Y-78628594D01*
X50000000Y-78771406D01*
X50027861Y-78911475D01*
X50082513Y-79043416D01*
X50161856Y-79162161D01*
X50262839Y-79263144D01*
X50381584Y-79342487D01*
X50513525Y-79397139D01*
X50653594Y-79425000D01*
X50796406Y-79425000D01*
X50936475Y-79397139D01*
X51068416Y-79342487D01*
X51187161Y-79263144D01*
X51288144Y-79162161D01*
X51367487Y-79043416D01*
X51373626Y-79028594D01*
X53875000Y-79028594D01*
X53875000Y-79171406D01*
X53902861Y-79311475D01*
X53957513Y-79443416D01*
X54036856Y-79562161D01*
X54137839Y-79663144D01*
X54256584Y-79742487D01*
X54365255Y-79787500D01*
X54256584Y-79832513D01*
X54137839Y-79911856D01*
X54036856Y-80012839D01*
X53957513Y-80131584D01*
X53902861Y-80263525D01*
X53875000Y-80403594D01*
X53875000Y-80546406D01*
X53902861Y-80686475D01*
X53957513Y-80818416D01*
X54036856Y-80937161D01*
X54137839Y-81038144D01*
X54256584Y-81117487D01*
X54388525Y-81172139D01*
X54528594Y-81200000D01*
X54671406Y-81200000D01*
X54811475Y-81172139D01*
X54943416Y-81117487D01*
X55062161Y-81038144D01*
X55116787Y-80983518D01*
X59925000Y-80983518D01*
X59925000Y-81116482D01*
X59950940Y-81246890D01*
X60001823Y-81369732D01*
X60075693Y-81480287D01*
X60169713Y-81574307D01*
X60280268Y-81648177D01*
X60403110Y-81699060D01*
X60533518Y-81725000D01*
X60666482Y-81725000D01*
X60796890Y-81699060D01*
X60919732Y-81648177D01*
X61030287Y-81574307D01*
X61124307Y-81480287D01*
X61198177Y-81369732D01*
X61249060Y-81246890D01*
X61275000Y-81116482D01*
X61275000Y-80983518D01*
X61268333Y-80950000D01*
X63322944Y-80950000D01*
X63322944Y-82650000D01*
X63331150Y-82733314D01*
X63355452Y-82813427D01*
X63394916Y-82887260D01*
X63448026Y-82951974D01*
X63512740Y-83005084D01*
X63586573Y-83044548D01*
X63666686Y-83068850D01*
X63750000Y-83077056D01*
X65450000Y-83077056D01*
X65533314Y-83068850D01*
X65613427Y-83044548D01*
X65687260Y-83005084D01*
X65751974Y-82951974D01*
X65805084Y-82887260D01*
X65844548Y-82813427D01*
X65868850Y-82733314D01*
X65877056Y-82650000D01*
X65877056Y-80950000D01*
X66922944Y-80950000D01*
X66922944Y-82650000D01*
X66931150Y-82733314D01*
X66955452Y-82813427D01*
X66994916Y-82887260D01*
X67048026Y-82951974D01*
X67112740Y-83005084D01*
X67186573Y-83044548D01*
X67266686Y-83068850D01*
X67350000Y-83077056D01*
X69050000Y-83077056D01*
X69133314Y-83068850D01*
X69213427Y-83044548D01*
X69287260Y-83005084D01*
X69351974Y-82951974D01*
X69405084Y-82887260D01*
X69444548Y-82813427D01*
X69468850Y-82733314D01*
X69477056Y-82650000D01*
X69477056Y-80950000D01*
X69468850Y-80866686D01*
X69444548Y-80786573D01*
X69405084Y-80712740D01*
X69351974Y-80648026D01*
X69287260Y-80594916D01*
X69213427Y-80555452D01*
X69133314Y-80531150D01*
X69050000Y-80522944D01*
X67350000Y-80522944D01*
X67266686Y-80531150D01*
X67186573Y-80555452D01*
X67112740Y-80594916D01*
X67048026Y-80648026D01*
X66994916Y-80712740D01*
X66955452Y-80786573D01*
X66931150Y-80866686D01*
X66922944Y-80950000D01*
X65877056Y-80950000D01*
X65868850Y-80866686D01*
X65844548Y-80786573D01*
X65805084Y-80712740D01*
X65751974Y-80648026D01*
X65687260Y-80594916D01*
X65613427Y-80555452D01*
X65533314Y-80531150D01*
X65450000Y-80522944D01*
X63750000Y-80522944D01*
X63666686Y-80531150D01*
X63586573Y-80555452D01*
X63512740Y-80594916D01*
X63448026Y-80648026D01*
X63394916Y-80712740D01*
X63355452Y-80786573D01*
X63331150Y-80866686D01*
X63322944Y-80950000D01*
X61268333Y-80950000D01*
X61249060Y-80853110D01*
X61237416Y-80825000D01*
X61371406Y-80825000D01*
X61511475Y-80797139D01*
X61643416Y-80742487D01*
X61762161Y-80663144D01*
X61863144Y-80562161D01*
X61942487Y-80443416D01*
X61997139Y-80311475D01*
X62025000Y-80171406D01*
X62025000Y-80028594D01*
X61997139Y-79888525D01*
X61942487Y-79756584D01*
X61863144Y-79637839D01*
X61762161Y-79536856D01*
X61671511Y-79476285D01*
X63394245Y-79476285D01*
X63403259Y-79521602D01*
X63477290Y-79750048D01*
X63594466Y-79959662D01*
X63750284Y-80142388D01*
X63938756Y-80291205D01*
X64152640Y-80400393D01*
X64383715Y-80465756D01*
X64575000Y-80390996D01*
X64575000Y-79285000D01*
X64625000Y-79285000D01*
X64625000Y-80390996D01*
X64816285Y-80465756D01*
X65047360Y-80400393D01*
X65261244Y-80291205D01*
X65449716Y-80142388D01*
X65605534Y-79959662D01*
X65722710Y-79750048D01*
X65796741Y-79521602D01*
X65805755Y-79476285D01*
X66994245Y-79476285D01*
X67003259Y-79521602D01*
X67077290Y-79750048D01*
X67194466Y-79959662D01*
X67350284Y-80142388D01*
X67538756Y-80291205D01*
X67752640Y-80400393D01*
X67983715Y-80465756D01*
X68175000Y-80390996D01*
X68175000Y-79285000D01*
X68225000Y-79285000D01*
X68225000Y-80390996D01*
X68416285Y-80465756D01*
X68647360Y-80400393D01*
X68861244Y-80291205D01*
X69049716Y-80142388D01*
X69205534Y-79959662D01*
X69322710Y-79750048D01*
X69396741Y-79521602D01*
X69405755Y-79476285D01*
X69330974Y-79285000D01*
X68225000Y-79285000D01*
X68175000Y-79285000D01*
X67069026Y-79285000D01*
X66994245Y-79476285D01*
X65805755Y-79476285D01*
X65730974Y-79285000D01*
X64625000Y-79285000D01*
X64575000Y-79285000D01*
X63469026Y-79285000D01*
X63394245Y-79476285D01*
X61671511Y-79476285D01*
X61643416Y-79457513D01*
X61511475Y-79402861D01*
X61371406Y-79375000D01*
X61228594Y-79375000D01*
X61088525Y-79402861D01*
X60956584Y-79457513D01*
X60837839Y-79536856D01*
X60736856Y-79637839D01*
X60657513Y-79756584D01*
X60602861Y-79888525D01*
X60575000Y-80028594D01*
X60575000Y-80171406D01*
X60602861Y-80311475D01*
X60629174Y-80375000D01*
X60533518Y-80375000D01*
X60403110Y-80400940D01*
X60280268Y-80451823D01*
X60169713Y-80525693D01*
X60075693Y-80619713D01*
X60001823Y-80730268D01*
X59950940Y-80853110D01*
X59925000Y-80983518D01*
X55116787Y-80983518D01*
X55163144Y-80937161D01*
X55242487Y-80818416D01*
X55297139Y-80686475D01*
X55325000Y-80546406D01*
X55325000Y-80403594D01*
X55297139Y-80263525D01*
X55242487Y-80131584D01*
X55163144Y-80012839D01*
X55062161Y-79911856D01*
X54943416Y-79832513D01*
X54834745Y-79787500D01*
X54943416Y-79742487D01*
X55062161Y-79663144D01*
X55163144Y-79562161D01*
X55242487Y-79443416D01*
X55297139Y-79311475D01*
X55325000Y-79171406D01*
X55325000Y-79043715D01*
X63394245Y-79043715D01*
X63469026Y-79235000D01*
X64575000Y-79235000D01*
X64575000Y-78129004D01*
X64625000Y-78129004D01*
X64625000Y-79235000D01*
X65730974Y-79235000D01*
X65805755Y-79043715D01*
X66994245Y-79043715D01*
X67069026Y-79235000D01*
X68175000Y-79235000D01*
X68175000Y-78129004D01*
X68225000Y-78129004D01*
X68225000Y-79235000D01*
X69330974Y-79235000D01*
X69405755Y-79043715D01*
X69396741Y-78998398D01*
X69322710Y-78769952D01*
X69205534Y-78560338D01*
X69049716Y-78377612D01*
X68861244Y-78228795D01*
X68647360Y-78119607D01*
X68416285Y-78054244D01*
X68225000Y-78129004D01*
X68175000Y-78129004D01*
X67983715Y-78054244D01*
X67752640Y-78119607D01*
X67538756Y-78228795D01*
X67350284Y-78377612D01*
X67194466Y-78560338D01*
X67077290Y-78769952D01*
X67003259Y-78998398D01*
X66994245Y-79043715D01*
X65805755Y-79043715D01*
X65796741Y-78998398D01*
X65722710Y-78769952D01*
X65605534Y-78560338D01*
X65449716Y-78377612D01*
X65261244Y-78228795D01*
X65047360Y-78119607D01*
X64816285Y-78054244D01*
X64625000Y-78129004D01*
X64575000Y-78129004D01*
X64383715Y-78054244D01*
X64152640Y-78119607D01*
X63938756Y-78228795D01*
X63750284Y-78377612D01*
X63594466Y-78560338D01*
X63477290Y-78769952D01*
X63403259Y-78998398D01*
X63394245Y-79043715D01*
X55325000Y-79043715D01*
X55325000Y-79028594D01*
X55297139Y-78888525D01*
X55242487Y-78756584D01*
X55163144Y-78637839D01*
X55062161Y-78536856D01*
X54943416Y-78457513D01*
X54811475Y-78402861D01*
X54671406Y-78375000D01*
X54528594Y-78375000D01*
X54388525Y-78402861D01*
X54256584Y-78457513D01*
X54137839Y-78536856D01*
X54036856Y-78637839D01*
X53957513Y-78756584D01*
X53902861Y-78888525D01*
X53875000Y-79028594D01*
X51373626Y-79028594D01*
X51422139Y-78911475D01*
X51450000Y-78771406D01*
X51450000Y-78628594D01*
X51422139Y-78488525D01*
X51367487Y-78356584D01*
X51288144Y-78237839D01*
X51187161Y-78136856D01*
X51068416Y-78057513D01*
X50936475Y-78002861D01*
X50796406Y-77975000D01*
X50653594Y-77975000D01*
X50513525Y-78002861D01*
X50381584Y-78057513D01*
X50262839Y-78136856D01*
X50161856Y-78237839D01*
X50082513Y-78356584D01*
X50027861Y-78488525D01*
X50000000Y-78628594D01*
X48475000Y-78628594D01*
X48475000Y-76720000D01*
X63318831Y-76720000D01*
X63343448Y-76969944D01*
X63416354Y-77210282D01*
X63534747Y-77431779D01*
X63694077Y-77625923D01*
X63888221Y-77785253D01*
X64109718Y-77903646D01*
X64350056Y-77976552D01*
X64537364Y-77995000D01*
X64662636Y-77995000D01*
X64849944Y-77976552D01*
X65090282Y-77903646D01*
X65311779Y-77785253D01*
X65505923Y-77625923D01*
X65665253Y-77431779D01*
X65783646Y-77210282D01*
X65856552Y-76969944D01*
X65881169Y-76720000D01*
X65856552Y-76470056D01*
X65783646Y-76229718D01*
X65665253Y-76008221D01*
X65505923Y-75814077D01*
X65311779Y-75654747D01*
X65090282Y-75536354D01*
X64849944Y-75463448D01*
X64662636Y-75445000D01*
X64537364Y-75445000D01*
X64350056Y-75463448D01*
X64109718Y-75536354D01*
X63888221Y-75654747D01*
X63694077Y-75814077D01*
X63534747Y-76008221D01*
X63416354Y-76229718D01*
X63343448Y-76470056D01*
X63318831Y-76720000D01*
X48475000Y-76720000D01*
X48475000Y-73728594D01*
X58175000Y-73728594D01*
X58175000Y-73871406D01*
X58202861Y-74011475D01*
X58257513Y-74143416D01*
X58336856Y-74262161D01*
X58437839Y-74363144D01*
X58556584Y-74442487D01*
X58688525Y-74497139D01*
X58828594Y-74525000D01*
X58971406Y-74525000D01*
X59111475Y-74497139D01*
X59200000Y-74460471D01*
X59288525Y-74497139D01*
X59428594Y-74525000D01*
X59571406Y-74525000D01*
X59711475Y-74497139D01*
X59843416Y-74442487D01*
X59962161Y-74363144D01*
X60063144Y-74262161D01*
X60142487Y-74143416D01*
X60197139Y-74011475D01*
X60225000Y-73871406D01*
X60225000Y-73728594D01*
X60197139Y-73588525D01*
X60142487Y-73456584D01*
X60063144Y-73337839D01*
X59962161Y-73236856D01*
X59843416Y-73157513D01*
X59773600Y-73128594D01*
X64475000Y-73128594D01*
X64475000Y-73271406D01*
X64502861Y-73411475D01*
X64557513Y-73543416D01*
X64636856Y-73662161D01*
X64737839Y-73763144D01*
X64856584Y-73842487D01*
X64988525Y-73897139D01*
X65128594Y-73925000D01*
X65271406Y-73925000D01*
X65411475Y-73897139D01*
X65543416Y-73842487D01*
X65662161Y-73763144D01*
X65763144Y-73662161D01*
X65842487Y-73543416D01*
X65897139Y-73411475D01*
X65925000Y-73271406D01*
X65925000Y-73128594D01*
X65897139Y-72988525D01*
X65842487Y-72856584D01*
X65763144Y-72737839D01*
X65662161Y-72636856D01*
X65543416Y-72557513D01*
X65411475Y-72502861D01*
X65271406Y-72475000D01*
X65128594Y-72475000D01*
X64988525Y-72502861D01*
X64856584Y-72557513D01*
X64737839Y-72636856D01*
X64636856Y-72737839D01*
X64557513Y-72856584D01*
X64502861Y-72988525D01*
X64475000Y-73128594D01*
X59773600Y-73128594D01*
X59711475Y-73102861D01*
X59571406Y-73075000D01*
X59428594Y-73075000D01*
X59288525Y-73102861D01*
X59200000Y-73139529D01*
X59111475Y-73102861D01*
X58971406Y-73075000D01*
X58828594Y-73075000D01*
X58688525Y-73102861D01*
X58556584Y-73157513D01*
X58437839Y-73236856D01*
X58336856Y-73337839D01*
X58257513Y-73456584D01*
X58202861Y-73588525D01*
X58175000Y-73728594D01*
X48475000Y-73728594D01*
X48475000Y-70633518D01*
X56025000Y-70633518D01*
X56025000Y-70766482D01*
X56050940Y-70896890D01*
X56101823Y-71019732D01*
X56175693Y-71130287D01*
X56269713Y-71224307D01*
X56380268Y-71298177D01*
X56503110Y-71349060D01*
X56633518Y-71375000D01*
X56766482Y-71375000D01*
X56896890Y-71349060D01*
X57019732Y-71298177D01*
X57050000Y-71277953D01*
X57080268Y-71298177D01*
X57203110Y-71349060D01*
X57333518Y-71375000D01*
X57466482Y-71375000D01*
X57596890Y-71349060D01*
X57719732Y-71298177D01*
X57830287Y-71224307D01*
X57924307Y-71130287D01*
X57998177Y-71019732D01*
X58049060Y-70896890D01*
X58075000Y-70766482D01*
X58075000Y-70633518D01*
X60025000Y-70633518D01*
X60025000Y-70766482D01*
X60050940Y-70896890D01*
X60101823Y-71019732D01*
X60175693Y-71130287D01*
X60269713Y-71224307D01*
X60380268Y-71298177D01*
X60503110Y-71349060D01*
X60633518Y-71375000D01*
X60766482Y-71375000D01*
X60896890Y-71349060D01*
X61019732Y-71298177D01*
X61130287Y-71224307D01*
X61224307Y-71130287D01*
X61298177Y-71019732D01*
X61349060Y-70896890D01*
X61375000Y-70766482D01*
X61375000Y-70633518D01*
X61349060Y-70503110D01*
X61298177Y-70380268D01*
X61224307Y-70269713D01*
X61130287Y-70175693D01*
X61019732Y-70101823D01*
X60896890Y-70050940D01*
X60766482Y-70025000D01*
X60633518Y-70025000D01*
X60503110Y-70050940D01*
X60380268Y-70101823D01*
X60269713Y-70175693D01*
X60175693Y-70269713D01*
X60101823Y-70380268D01*
X60050940Y-70503110D01*
X60025000Y-70633518D01*
X58075000Y-70633518D01*
X58049060Y-70503110D01*
X57998177Y-70380268D01*
X57924307Y-70269713D01*
X57830287Y-70175693D01*
X57719732Y-70101823D01*
X57596890Y-70050940D01*
X57466482Y-70025000D01*
X57333518Y-70025000D01*
X57203110Y-70050940D01*
X57080268Y-70101823D01*
X57050000Y-70122047D01*
X57019732Y-70101823D01*
X56896890Y-70050940D01*
X56766482Y-70025000D01*
X56633518Y-70025000D01*
X56503110Y-70050940D01*
X56380268Y-70101823D01*
X56269713Y-70175693D01*
X56175693Y-70269713D01*
X56101823Y-70380268D01*
X56050940Y-70503110D01*
X56025000Y-70633518D01*
X48475000Y-70633518D01*
X48475000Y-66528594D01*
X53975000Y-66528594D01*
X53975000Y-66671406D01*
X54002861Y-66811475D01*
X54057513Y-66943416D01*
X54136856Y-67062161D01*
X54237839Y-67163144D01*
X54356584Y-67242487D01*
X54488525Y-67297139D01*
X54628594Y-67325000D01*
X54771406Y-67325000D01*
X54911475Y-67297139D01*
X55043416Y-67242487D01*
X55162161Y-67163144D01*
X55263144Y-67062161D01*
X55342487Y-66943416D01*
X55397139Y-66811475D01*
X55425000Y-66671406D01*
X55425000Y-66528594D01*
X55397139Y-66388525D01*
X55342487Y-66256584D01*
X55263144Y-66137839D01*
X55162161Y-66036856D01*
X55043416Y-65957513D01*
X54911475Y-65902861D01*
X54771406Y-65875000D01*
X54628594Y-65875000D01*
X54488525Y-65902861D01*
X54356584Y-65957513D01*
X54237839Y-66036856D01*
X54136856Y-66137839D01*
X54057513Y-66256584D01*
X54002861Y-66388525D01*
X53975000Y-66528594D01*
X48475000Y-66528594D01*
X48475000Y-65328594D01*
X51275000Y-65328594D01*
X51275000Y-65471406D01*
X51302861Y-65611475D01*
X51357513Y-65743416D01*
X51436856Y-65862161D01*
X51537839Y-65963144D01*
X51656584Y-66042487D01*
X51788525Y-66097139D01*
X51928594Y-66125000D01*
X52071406Y-66125000D01*
X52211475Y-66097139D01*
X52343416Y-66042487D01*
X52462161Y-65963144D01*
X52563144Y-65862161D01*
X52642487Y-65743416D01*
X52697139Y-65611475D01*
X52725000Y-65471406D01*
X52725000Y-65328594D01*
X65275000Y-65328594D01*
X65275000Y-65471406D01*
X65302861Y-65611475D01*
X65357513Y-65743416D01*
X65436856Y-65862161D01*
X65537839Y-65963144D01*
X65656584Y-66042487D01*
X65788525Y-66097139D01*
X65928594Y-66125000D01*
X66071406Y-66125000D01*
X66211475Y-66097139D01*
X66343416Y-66042487D01*
X66462161Y-65963144D01*
X66563144Y-65862161D01*
X66642487Y-65743416D01*
X66697139Y-65611475D01*
X66725000Y-65471406D01*
X66725000Y-65328594D01*
X66697139Y-65188525D01*
X66642487Y-65056584D01*
X66563144Y-64937839D01*
X66462161Y-64836856D01*
X66343416Y-64757513D01*
X66211475Y-64702861D01*
X66071406Y-64675000D01*
X65928594Y-64675000D01*
X65788525Y-64702861D01*
X65656584Y-64757513D01*
X65537839Y-64836856D01*
X65436856Y-64937839D01*
X65357513Y-65056584D01*
X65302861Y-65188525D01*
X65275000Y-65328594D01*
X52725000Y-65328594D01*
X52697139Y-65188525D01*
X52642487Y-65056584D01*
X52563144Y-64937839D01*
X52462161Y-64836856D01*
X52343416Y-64757513D01*
X52211475Y-64702861D01*
X52071406Y-64675000D01*
X51928594Y-64675000D01*
X51788525Y-64702861D01*
X51656584Y-64757513D01*
X51537839Y-64836856D01*
X51436856Y-64937839D01*
X51357513Y-65056584D01*
X51302861Y-65188525D01*
X51275000Y-65328594D01*
X48475000Y-65328594D01*
X48475000Y-63728594D01*
X61475000Y-63728594D01*
X61475000Y-63871406D01*
X61502861Y-64011475D01*
X61557513Y-64143416D01*
X61636856Y-64262161D01*
X61737839Y-64363144D01*
X61856584Y-64442487D01*
X61988525Y-64497139D01*
X62128594Y-64525000D01*
X62271406Y-64525000D01*
X62411475Y-64497139D01*
X62543416Y-64442487D01*
X62662161Y-64363144D01*
X62763144Y-64262161D01*
X62804471Y-64200311D01*
X62928594Y-64225000D01*
X63071406Y-64225000D01*
X63211475Y-64197139D01*
X63343416Y-64142487D01*
X63462161Y-64063144D01*
X63563144Y-63962161D01*
X63642487Y-63843416D01*
X63697139Y-63711475D01*
X63725000Y-63571406D01*
X63725000Y-63428594D01*
X63697139Y-63288525D01*
X63642487Y-63156584D01*
X63563144Y-63037839D01*
X63462161Y-62936856D01*
X63343416Y-62857513D01*
X63211475Y-62802861D01*
X63071406Y-62775000D01*
X62928594Y-62775000D01*
X62788525Y-62802861D01*
X62656584Y-62857513D01*
X62537839Y-62936856D01*
X62436856Y-63037839D01*
X62395529Y-63099689D01*
X62271406Y-63075000D01*
X62128594Y-63075000D01*
X61988525Y-63102861D01*
X61856584Y-63157513D01*
X61737839Y-63236856D01*
X61636856Y-63337839D01*
X61557513Y-63456584D01*
X61502861Y-63588525D01*
X61475000Y-63728594D01*
X48475000Y-63728594D01*
X48475000Y-62328594D01*
X55575000Y-62328594D01*
X55575000Y-62471406D01*
X55602861Y-62611475D01*
X55657513Y-62743416D01*
X55736856Y-62862161D01*
X55837839Y-62963144D01*
X55956584Y-63042487D01*
X56088525Y-63097139D01*
X56228594Y-63125000D01*
X56371406Y-63125000D01*
X56511475Y-63097139D01*
X56643416Y-63042487D01*
X56762161Y-62963144D01*
X56863144Y-62862161D01*
X56942487Y-62743416D01*
X56997139Y-62611475D01*
X57025000Y-62471406D01*
X57025000Y-62328594D01*
X56997139Y-62188525D01*
X56942487Y-62056584D01*
X56863144Y-61937839D01*
X56762161Y-61836856D01*
X56643416Y-61757513D01*
X56511475Y-61702861D01*
X56371406Y-61675000D01*
X56228594Y-61675000D01*
X56088525Y-61702861D01*
X55956584Y-61757513D01*
X55837839Y-61836856D01*
X55736856Y-61937839D01*
X55657513Y-62056584D01*
X55602861Y-62188525D01*
X55575000Y-62328594D01*
X48475000Y-62328594D01*
X48475000Y-60475000D01*
X69525001Y-60475000D01*
X69525000Y-99525000D01*
X69525000Y-99525000D01*
G37*
X69525000Y-99525000D02*
X48475000Y-99525000D01*
X48475000Y-98206116D01*
X58325000Y-98206116D01*
X58325000Y-98339080D01*
X58350940Y-98469488D01*
X58401823Y-98592330D01*
X58475693Y-98702885D01*
X58569713Y-98796905D01*
X58680268Y-98870775D01*
X58803110Y-98921658D01*
X58933518Y-98947598D01*
X59066482Y-98947598D01*
X59196890Y-98921658D01*
X59319732Y-98870775D01*
X59430287Y-98796905D01*
X59524307Y-98702885D01*
X59598177Y-98592330D01*
X59649060Y-98469488D01*
X59675000Y-98339080D01*
X59675000Y-98206116D01*
X59649060Y-98075708D01*
X59598177Y-97952866D01*
X59524307Y-97842311D01*
X59430287Y-97748291D01*
X59319732Y-97674421D01*
X59196890Y-97623538D01*
X59066482Y-97597598D01*
X58933518Y-97597598D01*
X58803110Y-97623538D01*
X58680268Y-97674421D01*
X58569713Y-97748291D01*
X58475693Y-97842311D01*
X58401823Y-97952866D01*
X58350940Y-98075708D01*
X58325000Y-98206116D01*
X48475000Y-98206116D01*
X48475000Y-96883518D01*
X53425000Y-96883518D01*
X53425000Y-97016482D01*
X53450940Y-97146890D01*
X53501823Y-97269732D01*
X53575693Y-97380287D01*
X53669713Y-97474307D01*
X53780268Y-97548177D01*
X53903110Y-97599060D01*
X54033518Y-97625000D01*
X54166482Y-97625000D01*
X54296890Y-97599060D01*
X54419732Y-97548177D01*
X54530287Y-97474307D01*
X54624307Y-97380287D01*
X54698177Y-97269732D01*
X54749060Y-97146890D01*
X54775000Y-97016482D01*
X54775000Y-96883518D01*
X54749060Y-96753110D01*
X54698177Y-96630268D01*
X54624307Y-96519713D01*
X54595513Y-96490919D01*
X59012599Y-96490919D01*
X59012599Y-96623883D01*
X59038539Y-96754291D01*
X59089422Y-96877133D01*
X59163292Y-96987688D01*
X59257312Y-97081708D01*
X59367867Y-97155578D01*
X59490709Y-97206461D01*
X59621117Y-97232401D01*
X59754081Y-97232401D01*
X59884489Y-97206461D01*
X60007331Y-97155578D01*
X60117886Y-97081708D01*
X60211906Y-96987688D01*
X60285776Y-96877133D01*
X60336659Y-96754291D01*
X60362599Y-96623883D01*
X60362599Y-96533518D01*
X66525000Y-96533518D01*
X66525000Y-96666482D01*
X66550940Y-96796890D01*
X66601823Y-96919732D01*
X66675693Y-97030287D01*
X66769713Y-97124307D01*
X66880268Y-97198177D01*
X67003110Y-97249060D01*
X67133518Y-97275000D01*
X67266482Y-97275000D01*
X67396890Y-97249060D01*
X67519732Y-97198177D01*
X67630287Y-97124307D01*
X67724307Y-97030287D01*
X67798177Y-96919732D01*
X67849060Y-96796890D01*
X67875000Y-96666482D01*
X67875000Y-96533518D01*
X67849060Y-96403110D01*
X67798177Y-96280268D01*
X67724307Y-96169713D01*
X67630287Y-96075693D01*
X67519732Y-96001823D01*
X67396890Y-95950940D01*
X67266482Y-95925000D01*
X67133518Y-95925000D01*
X67003110Y-95950940D01*
X66880268Y-96001823D01*
X66769713Y-96075693D01*
X66675693Y-96169713D01*
X66601823Y-96280268D01*
X66550940Y-96403110D01*
X66525000Y-96533518D01*
X60362599Y-96533518D01*
X60362599Y-96490919D01*
X60336659Y-96360511D01*
X60285776Y-96237669D01*
X60211906Y-96127114D01*
X60117886Y-96033094D01*
X60007331Y-95959224D01*
X59884489Y-95908341D01*
X59754081Y-95882401D01*
X59621117Y-95882401D01*
X59490709Y-95908341D01*
X59367867Y-95959224D01*
X59257312Y-96033094D01*
X59163292Y-96127114D01*
X59089422Y-96237669D01*
X59038539Y-96360511D01*
X59012599Y-96490919D01*
X54595513Y-96490919D01*
X54530287Y-96425693D01*
X54419732Y-96351823D01*
X54296890Y-96300940D01*
X54166482Y-96275000D01*
X54033518Y-96275000D01*
X53903110Y-96300940D01*
X53780268Y-96351823D01*
X53669713Y-96425693D01*
X53575693Y-96519713D01*
X53501823Y-96630268D01*
X53450940Y-96753110D01*
X53425000Y-96883518D01*
X48475000Y-96883518D01*
X48475000Y-90900000D01*
X49321009Y-90900000D01*
X49336938Y-91061728D01*
X49384112Y-91217241D01*
X49460719Y-91360563D01*
X49563815Y-91486185D01*
X49611111Y-91525000D01*
X49563815Y-91563815D01*
X49460719Y-91689437D01*
X49384112Y-91832759D01*
X49336938Y-91988272D01*
X49321009Y-92150000D01*
X49336938Y-92311728D01*
X49384112Y-92467241D01*
X49460719Y-92610563D01*
X49563815Y-92736185D01*
X49611111Y-92775000D01*
X49563815Y-92813815D01*
X49460719Y-92939437D01*
X49384112Y-93082759D01*
X49336938Y-93238272D01*
X49321009Y-93400000D01*
X49336938Y-93561728D01*
X49384112Y-93717241D01*
X49460719Y-93860563D01*
X49563815Y-93986185D01*
X49611111Y-94025000D01*
X49563815Y-94063815D01*
X49460719Y-94189437D01*
X49384112Y-94332759D01*
X49336938Y-94488272D01*
X49321009Y-94650000D01*
X49336938Y-94811728D01*
X49384112Y-94967241D01*
X49460719Y-95110563D01*
X49563815Y-95236185D01*
X49611111Y-95275000D01*
X49563815Y-95313815D01*
X49460719Y-95439437D01*
X49384112Y-95582759D01*
X49336938Y-95738272D01*
X49321009Y-95900000D01*
X49336938Y-96061728D01*
X49384112Y-96217241D01*
X49460719Y-96360563D01*
X49563815Y-96486185D01*
X49689437Y-96589281D01*
X49832759Y-96665888D01*
X49988272Y-96713062D01*
X50109479Y-96725000D01*
X50690521Y-96725000D01*
X50811728Y-96713062D01*
X50967241Y-96665888D01*
X51110563Y-96589281D01*
X51236185Y-96486185D01*
X51339281Y-96360563D01*
X51415888Y-96217241D01*
X51463062Y-96061728D01*
X51478991Y-95900000D01*
X51463062Y-95738272D01*
X51415888Y-95582759D01*
X51389569Y-95533518D01*
X57725000Y-95533518D01*
X57725000Y-95666482D01*
X57750940Y-95796890D01*
X57801823Y-95919732D01*
X57875693Y-96030287D01*
X57969713Y-96124307D01*
X58080268Y-96198177D01*
X58203110Y-96249060D01*
X58333518Y-96275000D01*
X58466482Y-96275000D01*
X58596890Y-96249060D01*
X58719732Y-96198177D01*
X58830287Y-96124307D01*
X58924307Y-96030287D01*
X58998177Y-95919732D01*
X59049060Y-95796890D01*
X59075000Y-95666482D01*
X59075000Y-95533518D01*
X59049060Y-95403110D01*
X58998177Y-95280268D01*
X58924307Y-95169713D01*
X58830287Y-95075693D01*
X58719732Y-95001823D01*
X58596890Y-94950940D01*
X58484551Y-94928594D01*
X64375000Y-94928594D01*
X64375000Y-95071406D01*
X64402861Y-95211475D01*
X64457513Y-95343416D01*
X64536856Y-95462161D01*
X64637839Y-95563144D01*
X64756584Y-95642487D01*
X64888525Y-95697139D01*
X65028594Y-95725000D01*
X65171406Y-95725000D01*
X65311475Y-95697139D01*
X65443416Y-95642487D01*
X65562161Y-95563144D01*
X65663144Y-95462161D01*
X65742487Y-95343416D01*
X65797139Y-95211475D01*
X65825000Y-95071406D01*
X65825000Y-94928594D01*
X65797139Y-94788525D01*
X65742487Y-94656584D01*
X65663144Y-94537839D01*
X65562161Y-94436856D01*
X65443416Y-94357513D01*
X65311475Y-94302861D01*
X65171406Y-94275000D01*
X65028594Y-94275000D01*
X64888525Y-94302861D01*
X64756584Y-94357513D01*
X64637839Y-94436856D01*
X64536856Y-94537839D01*
X64457513Y-94656584D01*
X64402861Y-94788525D01*
X64375000Y-94928594D01*
X58484551Y-94928594D01*
X58466482Y-94925000D01*
X58333518Y-94925000D01*
X58203110Y-94950940D01*
X58080268Y-95001823D01*
X57969713Y-95075693D01*
X57875693Y-95169713D01*
X57801823Y-95280268D01*
X57750940Y-95403110D01*
X57725000Y-95533518D01*
X51389569Y-95533518D01*
X51339281Y-95439437D01*
X51236185Y-95313815D01*
X51188889Y-95275000D01*
X51236185Y-95236185D01*
X51339281Y-95110563D01*
X51415888Y-94967241D01*
X51463062Y-94811728D01*
X51478991Y-94650000D01*
X51463062Y-94488272D01*
X51415888Y-94332759D01*
X51339281Y-94189437D01*
X51293390Y-94133518D01*
X58525000Y-94133518D01*
X58525000Y-94266482D01*
X58550940Y-94396890D01*
X58601823Y-94519732D01*
X58675693Y-94630287D01*
X58769713Y-94724307D01*
X58880268Y-94798177D01*
X59003110Y-94849060D01*
X59133518Y-94875000D01*
X59266482Y-94875000D01*
X59396890Y-94849060D01*
X59519732Y-94798177D01*
X59630287Y-94724307D01*
X59724307Y-94630287D01*
X59798177Y-94519732D01*
X59849060Y-94396890D01*
X59853414Y-94375000D01*
X59866482Y-94375000D01*
X59996890Y-94349060D01*
X60119732Y-94298177D01*
X60230287Y-94224307D01*
X60324307Y-94130287D01*
X60398177Y-94019732D01*
X60449060Y-93896890D01*
X60475000Y-93766482D01*
X60475000Y-93633518D01*
X60449060Y-93503110D01*
X60398177Y-93380268D01*
X60324307Y-93269713D01*
X60230287Y-93175693D01*
X60119732Y-93101823D01*
X59996890Y-93050940D01*
X59866482Y-93025000D01*
X59733518Y-93025000D01*
X59603110Y-93050940D01*
X59480268Y-93101823D01*
X59369713Y-93175693D01*
X59275693Y-93269713D01*
X59201823Y-93380268D01*
X59150940Y-93503110D01*
X59146586Y-93525000D01*
X59133518Y-93525000D01*
X59003110Y-93550940D01*
X58880268Y-93601823D01*
X58769713Y-93675693D01*
X58675693Y-93769713D01*
X58601823Y-93880268D01*
X58550940Y-94003110D01*
X58525000Y-94133518D01*
X51293390Y-94133518D01*
X51236185Y-94063815D01*
X51188889Y-94025000D01*
X51236185Y-93986185D01*
X51339281Y-93860563D01*
X51415888Y-93717241D01*
X51463062Y-93561728D01*
X51478991Y-93400000D01*
X51463062Y-93238272D01*
X51415888Y-93082759D01*
X51339281Y-92939437D01*
X51236185Y-92813815D01*
X51188889Y-92775000D01*
X51236185Y-92736185D01*
X51339281Y-92610563D01*
X51415888Y-92467241D01*
X51426117Y-92433518D01*
X61925000Y-92433518D01*
X61925000Y-92566482D01*
X61950940Y-92696890D01*
X62001823Y-92819732D01*
X62075693Y-92930287D01*
X62169713Y-93024307D01*
X62280268Y-93098177D01*
X62403110Y-93149060D01*
X62533518Y-93175000D01*
X62666482Y-93175000D01*
X62796890Y-93149060D01*
X62919732Y-93098177D01*
X63030287Y-93024307D01*
X63124307Y-92930287D01*
X63198177Y-92819732D01*
X63249060Y-92696890D01*
X63275000Y-92566482D01*
X63275000Y-92433518D01*
X63254380Y-92329857D01*
X63262687Y-92324307D01*
X63356707Y-92230287D01*
X63430577Y-92119732D01*
X63481460Y-91996890D01*
X63507400Y-91866482D01*
X63507400Y-91733518D01*
X63481460Y-91603110D01*
X63430577Y-91480268D01*
X63356707Y-91369713D01*
X63262687Y-91275693D01*
X63152132Y-91201823D01*
X63029290Y-91150940D01*
X62898882Y-91125000D01*
X62765918Y-91125000D01*
X62635510Y-91150940D01*
X62512668Y-91201823D01*
X62402113Y-91275693D01*
X62308093Y-91369713D01*
X62234223Y-91480268D01*
X62183340Y-91603110D01*
X62157400Y-91733518D01*
X62157400Y-91866482D01*
X62178020Y-91970143D01*
X62169713Y-91975693D01*
X62075693Y-92069713D01*
X62001823Y-92180268D01*
X61950940Y-92303110D01*
X61925000Y-92433518D01*
X51426117Y-92433518D01*
X51463062Y-92311728D01*
X51478991Y-92150000D01*
X51463062Y-91988272D01*
X51415888Y-91832759D01*
X51339281Y-91689437D01*
X51236185Y-91563815D01*
X51188889Y-91525000D01*
X51236185Y-91486185D01*
X51339281Y-91360563D01*
X51415888Y-91217241D01*
X51463062Y-91061728D01*
X51478991Y-90900000D01*
X51463062Y-90738272D01*
X51415888Y-90582759D01*
X51339281Y-90439437D01*
X51236185Y-90313815D01*
X51146932Y-90240567D01*
X51215686Y-90180329D01*
X51308279Y-90059779D01*
X51375574Y-89923481D01*
X51411150Y-89795866D01*
X51369698Y-89733518D01*
X57825000Y-89733518D01*
X57825000Y-89866482D01*
X57850940Y-89996890D01*
X57901823Y-90119732D01*
X57955456Y-90200000D01*
X57901823Y-90280268D01*
X57850940Y-90403110D01*
X57825000Y-90533518D01*
X57825000Y-90666482D01*
X57850940Y-90796890D01*
X57901823Y-90919732D01*
X57975693Y-91030287D01*
X58069713Y-91124307D01*
X58180268Y-91198177D01*
X58303110Y-91249060D01*
X58433518Y-91275000D01*
X58566482Y-91275000D01*
X58573031Y-91273697D01*
X58501823Y-91380268D01*
X58450940Y-91503110D01*
X58425000Y-91633518D01*
X58425000Y-91766482D01*
X58450940Y-91896890D01*
X58501823Y-92019732D01*
X58575693Y-92130287D01*
X58669713Y-92224307D01*
X58780268Y-92298177D01*
X58903110Y-92349060D01*
X59033518Y-92375000D01*
X59166482Y-92375000D01*
X59296890Y-92349060D01*
X59419732Y-92298177D01*
X59530287Y-92224307D01*
X59624307Y-92130287D01*
X59698177Y-92019732D01*
X59749060Y-91896890D01*
X59775000Y-91766482D01*
X59775000Y-91633518D01*
X59749060Y-91503110D01*
X59698177Y-91380268D01*
X59624307Y-91269713D01*
X59530287Y-91175693D01*
X59419732Y-91101823D01*
X59296890Y-91050940D01*
X59166482Y-91025000D01*
X59033518Y-91025000D01*
X59026969Y-91026303D01*
X59098177Y-90919732D01*
X59145159Y-90806307D01*
X59625000Y-90806307D01*
X59625000Y-90939271D01*
X59650940Y-91069679D01*
X59701823Y-91192521D01*
X59775693Y-91303076D01*
X59869713Y-91397096D01*
X59980268Y-91470966D01*
X60103110Y-91521849D01*
X60233518Y-91547789D01*
X60366482Y-91547789D01*
X60496890Y-91521849D01*
X60619732Y-91470966D01*
X60730287Y-91397096D01*
X60824307Y-91303076D01*
X60898177Y-91192521D01*
X60949060Y-91069679D01*
X60975000Y-90939271D01*
X60975000Y-90806307D01*
X60949060Y-90675899D01*
X60898177Y-90553057D01*
X60824307Y-90442502D01*
X60730287Y-90348482D01*
X60619732Y-90274612D01*
X60496890Y-90223729D01*
X60366482Y-90197789D01*
X60233518Y-90197789D01*
X60103110Y-90223729D01*
X59980268Y-90274612D01*
X59869713Y-90348482D01*
X59775693Y-90442502D01*
X59701823Y-90553057D01*
X59650940Y-90675899D01*
X59625000Y-90806307D01*
X59145159Y-90806307D01*
X59149060Y-90796890D01*
X59175000Y-90666482D01*
X59175000Y-90533518D01*
X59149060Y-90403110D01*
X59098177Y-90280268D01*
X59044544Y-90200000D01*
X59098177Y-90119732D01*
X59149060Y-89996890D01*
X59175000Y-89866482D01*
X59175000Y-89733518D01*
X59149060Y-89603110D01*
X59098177Y-89480268D01*
X59024307Y-89369713D01*
X58930287Y-89275693D01*
X58819732Y-89201823D01*
X58696890Y-89150940D01*
X58566482Y-89125000D01*
X58433518Y-89125000D01*
X58303110Y-89150940D01*
X58180268Y-89201823D01*
X58069713Y-89275693D01*
X57975693Y-89369713D01*
X57901823Y-89480268D01*
X57850940Y-89603110D01*
X57825000Y-89733518D01*
X51369698Y-89733518D01*
X51330791Y-89675000D01*
X50425000Y-89675000D01*
X50425000Y-89695000D01*
X50375000Y-89695000D01*
X50375000Y-89675000D01*
X49469209Y-89675000D01*
X49388850Y-89795866D01*
X49424426Y-89923481D01*
X49491721Y-90059779D01*
X49584314Y-90180329D01*
X49653068Y-90240567D01*
X49563815Y-90313815D01*
X49460719Y-90439437D01*
X49384112Y-90582759D01*
X49336938Y-90738272D01*
X49321009Y-90900000D01*
X48475000Y-90900000D01*
X48475000Y-88200000D01*
X49322944Y-88200000D01*
X49322944Y-88600000D01*
X49334993Y-88722333D01*
X49370676Y-88839964D01*
X49428622Y-88948374D01*
X49506604Y-89043396D01*
X49591681Y-89113216D01*
X49584314Y-89119671D01*
X49491721Y-89240221D01*
X49424426Y-89376519D01*
X49388850Y-89504134D01*
X49469209Y-89625000D01*
X50375000Y-89625000D01*
X50375000Y-89605000D01*
X50425000Y-89605000D01*
X50425000Y-89625000D01*
X51330791Y-89625000D01*
X51411150Y-89504134D01*
X51375574Y-89376519D01*
X51308279Y-89240221D01*
X51215686Y-89119671D01*
X51208319Y-89113216D01*
X51293396Y-89043396D01*
X51371378Y-88948374D01*
X51429324Y-88839964D01*
X51465007Y-88722333D01*
X51468830Y-88683518D01*
X65075000Y-88683518D01*
X65075000Y-88816482D01*
X65100940Y-88946890D01*
X65151823Y-89069732D01*
X65225693Y-89180287D01*
X65319713Y-89274307D01*
X65430268Y-89348177D01*
X65553110Y-89399060D01*
X65683518Y-89425000D01*
X65816482Y-89425000D01*
X65946890Y-89399060D01*
X66069732Y-89348177D01*
X66180287Y-89274307D01*
X66274307Y-89180287D01*
X66348177Y-89069732D01*
X66399060Y-88946890D01*
X66425000Y-88816482D01*
X66425000Y-88683518D01*
X66399060Y-88553110D01*
X66348177Y-88430268D01*
X66274307Y-88319713D01*
X66180287Y-88225693D01*
X66069732Y-88151823D01*
X65946890Y-88100940D01*
X65816482Y-88075000D01*
X65683518Y-88075000D01*
X65553110Y-88100940D01*
X65430268Y-88151823D01*
X65319713Y-88225693D01*
X65225693Y-88319713D01*
X65151823Y-88430268D01*
X65100940Y-88553110D01*
X65075000Y-88683518D01*
X51468830Y-88683518D01*
X51477056Y-88600000D01*
X51477056Y-88200000D01*
X51465007Y-88077667D01*
X51429324Y-87960036D01*
X51371378Y-87851626D01*
X51356518Y-87833518D01*
X55525000Y-87833518D01*
X55525000Y-87966482D01*
X55550940Y-88096890D01*
X55601823Y-88219732D01*
X55675693Y-88330287D01*
X55769713Y-88424307D01*
X55880268Y-88498177D01*
X56003110Y-88549060D01*
X56133518Y-88575000D01*
X56266482Y-88575000D01*
X56396890Y-88549060D01*
X56519732Y-88498177D01*
X56630287Y-88424307D01*
X56724307Y-88330287D01*
X56798177Y-88219732D01*
X56849060Y-88096890D01*
X56875000Y-87966482D01*
X56875000Y-87833518D01*
X56849060Y-87703110D01*
X56798177Y-87580268D01*
X56724307Y-87469713D01*
X56630287Y-87375693D01*
X56519732Y-87301823D01*
X56396890Y-87250940D01*
X56266482Y-87225000D01*
X56133518Y-87225000D01*
X56003110Y-87250940D01*
X55880268Y-87301823D01*
X55769713Y-87375693D01*
X55675693Y-87469713D01*
X55601823Y-87580268D01*
X55550940Y-87703110D01*
X55525000Y-87833518D01*
X51356518Y-87833518D01*
X51293396Y-87756604D01*
X51198374Y-87678622D01*
X51089964Y-87620676D01*
X50972333Y-87584993D01*
X50850000Y-87572944D01*
X49950000Y-87572944D01*
X49827667Y-87584993D01*
X49710036Y-87620676D01*
X49601626Y-87678622D01*
X49506604Y-87756604D01*
X49428622Y-87851626D01*
X49370676Y-87960036D01*
X49334993Y-88077667D01*
X49322944Y-88200000D01*
X48475000Y-88200000D01*
X48475000Y-87201118D01*
X58836231Y-87201118D01*
X58836231Y-87334082D01*
X58862171Y-87464490D01*
X58913054Y-87587332D01*
X58986924Y-87697887D01*
X59080944Y-87791907D01*
X59191499Y-87865777D01*
X59314341Y-87916660D01*
X59444749Y-87942600D01*
X59577713Y-87942600D01*
X59708121Y-87916660D01*
X59830963Y-87865777D01*
X59941518Y-87791907D01*
X60035538Y-87697887D01*
X60109408Y-87587332D01*
X60160291Y-87464490D01*
X60186231Y-87334082D01*
X60186231Y-87201118D01*
X60160291Y-87070710D01*
X60109408Y-86947868D01*
X60035538Y-86837313D01*
X59941518Y-86743293D01*
X59830963Y-86669423D01*
X59708121Y-86618540D01*
X59577713Y-86592600D01*
X59444749Y-86592600D01*
X59314341Y-86618540D01*
X59191499Y-86669423D01*
X59080944Y-86743293D01*
X58986924Y-86837313D01*
X58913054Y-86947868D01*
X58862171Y-87070710D01*
X58836231Y-87201118D01*
X48475000Y-87201118D01*
X48475000Y-86433518D01*
X53225000Y-86433518D01*
X53225000Y-86566482D01*
X53250940Y-86696890D01*
X53301823Y-86819732D01*
X53375693Y-86930287D01*
X53469713Y-87024307D01*
X53580268Y-87098177D01*
X53703110Y-87149060D01*
X53833518Y-87175000D01*
X53966482Y-87175000D01*
X54096890Y-87149060D01*
X54219732Y-87098177D01*
X54330287Y-87024307D01*
X54424307Y-86930287D01*
X54498177Y-86819732D01*
X54549060Y-86696890D01*
X54575000Y-86566482D01*
X54575000Y-86433518D01*
X54555109Y-86333518D01*
X55525000Y-86333518D01*
X55525000Y-86466482D01*
X55550940Y-86596890D01*
X55601823Y-86719732D01*
X55675693Y-86830287D01*
X55769713Y-86924307D01*
X55880268Y-86998177D01*
X56003110Y-87049060D01*
X56133518Y-87075000D01*
X56266482Y-87075000D01*
X56396890Y-87049060D01*
X56519732Y-86998177D01*
X56630287Y-86924307D01*
X56724307Y-86830287D01*
X56798177Y-86719732D01*
X56849060Y-86596890D01*
X56852197Y-86581115D01*
X65025000Y-86581115D01*
X65025000Y-86714079D01*
X65050940Y-86844487D01*
X65101823Y-86967329D01*
X65106146Y-86973799D01*
X65101823Y-86980268D01*
X65050940Y-87103110D01*
X65025000Y-87233518D01*
X65025000Y-87366482D01*
X65050940Y-87496890D01*
X65101823Y-87619732D01*
X65175693Y-87730287D01*
X65269713Y-87824307D01*
X65380268Y-87898177D01*
X65503110Y-87949060D01*
X65633518Y-87975000D01*
X65766482Y-87975000D01*
X65896890Y-87949060D01*
X66019732Y-87898177D01*
X66130287Y-87824307D01*
X66224307Y-87730287D01*
X66298177Y-87619732D01*
X66349060Y-87496890D01*
X66375000Y-87366482D01*
X66375000Y-87233518D01*
X66349060Y-87103110D01*
X66298177Y-86980268D01*
X66293854Y-86973799D01*
X66298177Y-86967329D01*
X66349060Y-86844487D01*
X66375000Y-86714079D01*
X66375000Y-86581115D01*
X66349060Y-86450707D01*
X66298177Y-86327865D01*
X66224307Y-86217310D01*
X66130287Y-86123290D01*
X66019732Y-86049420D01*
X65896890Y-85998537D01*
X65766482Y-85972597D01*
X65633518Y-85972597D01*
X65503110Y-85998537D01*
X65380268Y-86049420D01*
X65269713Y-86123290D01*
X65175693Y-86217310D01*
X65101823Y-86327865D01*
X65050940Y-86450707D01*
X65025000Y-86581115D01*
X56852197Y-86581115D01*
X56875000Y-86466482D01*
X56875000Y-86333518D01*
X56849060Y-86203110D01*
X56798177Y-86080268D01*
X56724307Y-85969713D01*
X56630287Y-85875693D01*
X56519732Y-85801823D01*
X56396890Y-85750940D01*
X56266482Y-85725000D01*
X56133518Y-85725000D01*
X56003110Y-85750940D01*
X55880268Y-85801823D01*
X55769713Y-85875693D01*
X55675693Y-85969713D01*
X55601823Y-86080268D01*
X55550940Y-86203110D01*
X55525000Y-86333518D01*
X54555109Y-86333518D01*
X54549060Y-86303110D01*
X54498177Y-86180268D01*
X54424307Y-86069713D01*
X54330287Y-85975693D01*
X54219732Y-85901823D01*
X54096890Y-85850940D01*
X53966482Y-85825000D01*
X53833518Y-85825000D01*
X53703110Y-85850940D01*
X53580268Y-85901823D01*
X53469713Y-85975693D01*
X53375693Y-86069713D01*
X53301823Y-86180268D01*
X53250940Y-86303110D01*
X53225000Y-86433518D01*
X48475000Y-86433518D01*
X48475000Y-85172436D01*
X60635172Y-85172436D01*
X60635172Y-85305400D01*
X60661112Y-85435808D01*
X60711995Y-85558650D01*
X60785865Y-85669205D01*
X60879885Y-85763225D01*
X60990440Y-85837095D01*
X61113282Y-85887978D01*
X61243690Y-85913918D01*
X61376654Y-85913918D01*
X61507062Y-85887978D01*
X61629904Y-85837095D01*
X61740459Y-85763225D01*
X61834479Y-85669205D01*
X61908349Y-85558650D01*
X61959232Y-85435808D01*
X61985172Y-85305400D01*
X61985172Y-85278553D01*
X62665944Y-85278553D01*
X62665944Y-85411517D01*
X62691884Y-85541925D01*
X62742767Y-85664767D01*
X62816637Y-85775322D01*
X62910657Y-85869342D01*
X63021212Y-85943212D01*
X63144054Y-85994095D01*
X63274462Y-86020035D01*
X63407426Y-86020035D01*
X63537834Y-85994095D01*
X63660676Y-85943212D01*
X63771231Y-85869342D01*
X63865251Y-85775322D01*
X63939121Y-85664767D01*
X63990004Y-85541925D01*
X64015944Y-85411517D01*
X64015944Y-85278553D01*
X63990004Y-85148145D01*
X63939121Y-85025303D01*
X63865251Y-84914748D01*
X63771231Y-84820728D01*
X63660676Y-84746858D01*
X63537834Y-84695975D01*
X63407426Y-84670035D01*
X63274462Y-84670035D01*
X63144054Y-84695975D01*
X63021212Y-84746858D01*
X62910657Y-84820728D01*
X62816637Y-84914748D01*
X62742767Y-85025303D01*
X62691884Y-85148145D01*
X62665944Y-85278553D01*
X61985172Y-85278553D01*
X61985172Y-85172436D01*
X61959232Y-85042028D01*
X61908349Y-84919186D01*
X61834479Y-84808631D01*
X61740459Y-84714611D01*
X61629904Y-84640741D01*
X61507062Y-84589858D01*
X61376654Y-84563918D01*
X61243690Y-84563918D01*
X61113282Y-84589858D01*
X60990440Y-84640741D01*
X60879885Y-84714611D01*
X60785865Y-84808631D01*
X60711995Y-84919186D01*
X60661112Y-85042028D01*
X60635172Y-85172436D01*
X48475000Y-85172436D01*
X48475000Y-83428594D01*
X58975000Y-83428594D01*
X58975000Y-83571406D01*
X59002861Y-83711475D01*
X59057513Y-83843416D01*
X59136856Y-83962161D01*
X59237839Y-84063144D01*
X59356584Y-84142487D01*
X59488525Y-84197139D01*
X59628594Y-84225000D01*
X59771406Y-84225000D01*
X59911475Y-84197139D01*
X60043416Y-84142487D01*
X60162161Y-84063144D01*
X60263144Y-83962161D01*
X60342487Y-83843416D01*
X60388008Y-83733518D01*
X61625000Y-83733518D01*
X61625000Y-83866482D01*
X61650940Y-83996890D01*
X61701823Y-84119732D01*
X61775693Y-84230287D01*
X61869713Y-84324307D01*
X61980268Y-84398177D01*
X62103110Y-84449060D01*
X62233518Y-84475000D01*
X62366482Y-84475000D01*
X62496890Y-84449060D01*
X62619732Y-84398177D01*
X62730287Y-84324307D01*
X62824307Y-84230287D01*
X62898177Y-84119732D01*
X62949060Y-83996890D01*
X62975000Y-83866482D01*
X62975000Y-83733518D01*
X63125000Y-83733518D01*
X63125000Y-83866482D01*
X63150940Y-83996890D01*
X63201823Y-84119732D01*
X63275693Y-84230287D01*
X63369713Y-84324307D01*
X63480268Y-84398177D01*
X63603110Y-84449060D01*
X63733518Y-84475000D01*
X63866482Y-84475000D01*
X63996890Y-84449060D01*
X64119732Y-84398177D01*
X64150000Y-84377953D01*
X64180268Y-84398177D01*
X64303110Y-84449060D01*
X64433518Y-84475000D01*
X64566482Y-84475000D01*
X64696890Y-84449060D01*
X64819732Y-84398177D01*
X64930287Y-84324307D01*
X65024307Y-84230287D01*
X65098177Y-84119732D01*
X65149060Y-83996890D01*
X65175000Y-83866482D01*
X65175000Y-83733518D01*
X65174021Y-83728594D01*
X66475000Y-83728594D01*
X66475000Y-83871406D01*
X66502861Y-84011475D01*
X66557513Y-84143416D01*
X66636856Y-84262161D01*
X66737839Y-84363144D01*
X66856584Y-84442487D01*
X66988525Y-84497139D01*
X67128594Y-84525000D01*
X67271406Y-84525000D01*
X67411475Y-84497139D01*
X67543416Y-84442487D01*
X67662161Y-84363144D01*
X67763144Y-84262161D01*
X67842487Y-84143416D01*
X67897139Y-84011475D01*
X67925000Y-83871406D01*
X67925000Y-83728594D01*
X67897139Y-83588525D01*
X67842487Y-83456584D01*
X67763144Y-83337839D01*
X67662161Y-83236856D01*
X67543416Y-83157513D01*
X67411475Y-83102861D01*
X67271406Y-83075000D01*
X67128594Y-83075000D01*
X66988525Y-83102861D01*
X66856584Y-83157513D01*
X66737839Y-83236856D01*
X66636856Y-83337839D01*
X66557513Y-83456584D01*
X66502861Y-83588525D01*
X66475000Y-83728594D01*
X65174021Y-83728594D01*
X65149060Y-83603110D01*
X65098177Y-83480268D01*
X65024307Y-83369713D01*
X64930287Y-83275693D01*
X64819732Y-83201823D01*
X64696890Y-83150940D01*
X64566482Y-83125000D01*
X64433518Y-83125000D01*
X64303110Y-83150940D01*
X64180268Y-83201823D01*
X64150000Y-83222047D01*
X64119732Y-83201823D01*
X63996890Y-83150940D01*
X63866482Y-83125000D01*
X63733518Y-83125000D01*
X63603110Y-83150940D01*
X63480268Y-83201823D01*
X63369713Y-83275693D01*
X63275693Y-83369713D01*
X63201823Y-83480268D01*
X63150940Y-83603110D01*
X63125000Y-83733518D01*
X62975000Y-83733518D01*
X62949060Y-83603110D01*
X62898177Y-83480268D01*
X62824307Y-83369713D01*
X62730287Y-83275693D01*
X62619732Y-83201823D01*
X62496890Y-83150940D01*
X62366482Y-83125000D01*
X62233518Y-83125000D01*
X62103110Y-83150940D01*
X61980268Y-83201823D01*
X61869713Y-83275693D01*
X61775693Y-83369713D01*
X61701823Y-83480268D01*
X61650940Y-83603110D01*
X61625000Y-83733518D01*
X60388008Y-83733518D01*
X60397139Y-83711475D01*
X60425000Y-83571406D01*
X60425000Y-83428594D01*
X60397139Y-83288525D01*
X60342487Y-83156584D01*
X60313255Y-83112835D01*
X60400710Y-83149060D01*
X60531118Y-83175000D01*
X60664082Y-83175000D01*
X60794490Y-83149060D01*
X60917332Y-83098177D01*
X61027887Y-83024307D01*
X61121907Y-82930287D01*
X61195777Y-82819732D01*
X61246660Y-82696890D01*
X61272600Y-82566482D01*
X61272600Y-82433518D01*
X61246660Y-82303110D01*
X61195777Y-82180268D01*
X61121907Y-82069713D01*
X61027887Y-81975693D01*
X60917332Y-81901823D01*
X60794490Y-81850940D01*
X60664082Y-81825000D01*
X60531118Y-81825000D01*
X60400710Y-81850940D01*
X60277868Y-81901823D01*
X60167313Y-81975693D01*
X60073293Y-82069713D01*
X59999423Y-82180268D01*
X59948540Y-82303110D01*
X59922600Y-82433518D01*
X59922600Y-82566482D01*
X59948540Y-82696890D01*
X59999423Y-82819732D01*
X60017492Y-82846775D01*
X59911475Y-82802861D01*
X59771406Y-82775000D01*
X59628594Y-82775000D01*
X59488525Y-82802861D01*
X59356584Y-82857513D01*
X59237839Y-82936856D01*
X59136856Y-83037839D01*
X59057513Y-83156584D01*
X59002861Y-83288525D01*
X58975000Y-83428594D01*
X48475000Y-83428594D01*
X48475000Y-82128594D01*
X56075000Y-82128594D01*
X56075000Y-82271406D01*
X56102861Y-82411475D01*
X56157513Y-82543416D01*
X56236856Y-82662161D01*
X56337839Y-82763144D01*
X56456584Y-82842487D01*
X56588525Y-82897139D01*
X56728594Y-82925000D01*
X56871406Y-82925000D01*
X57011475Y-82897139D01*
X57143416Y-82842487D01*
X57262161Y-82763144D01*
X57363144Y-82662161D01*
X57442487Y-82543416D01*
X57497139Y-82411475D01*
X57525000Y-82271406D01*
X57525000Y-82128594D01*
X57497139Y-81988525D01*
X57442487Y-81856584D01*
X57363144Y-81737839D01*
X57262161Y-81636856D01*
X57143416Y-81557513D01*
X57011475Y-81502861D01*
X56871406Y-81475000D01*
X56728594Y-81475000D01*
X56588525Y-81502861D01*
X56456584Y-81557513D01*
X56337839Y-81636856D01*
X56236856Y-81737839D01*
X56157513Y-81856584D01*
X56102861Y-81988525D01*
X56075000Y-82128594D01*
X48475000Y-82128594D01*
X48475000Y-78628594D01*
X50000000Y-78628594D01*
X50000000Y-78771406D01*
X50027861Y-78911475D01*
X50082513Y-79043416D01*
X50161856Y-79162161D01*
X50262839Y-79263144D01*
X50381584Y-79342487D01*
X50513525Y-79397139D01*
X50653594Y-79425000D01*
X50796406Y-79425000D01*
X50936475Y-79397139D01*
X51068416Y-79342487D01*
X51187161Y-79263144D01*
X51288144Y-79162161D01*
X51367487Y-79043416D01*
X51373626Y-79028594D01*
X53875000Y-79028594D01*
X53875000Y-79171406D01*
X53902861Y-79311475D01*
X53957513Y-79443416D01*
X54036856Y-79562161D01*
X54137839Y-79663144D01*
X54256584Y-79742487D01*
X54365255Y-79787500D01*
X54256584Y-79832513D01*
X54137839Y-79911856D01*
X54036856Y-80012839D01*
X53957513Y-80131584D01*
X53902861Y-80263525D01*
X53875000Y-80403594D01*
X53875000Y-80546406D01*
X53902861Y-80686475D01*
X53957513Y-80818416D01*
X54036856Y-80937161D01*
X54137839Y-81038144D01*
X54256584Y-81117487D01*
X54388525Y-81172139D01*
X54528594Y-81200000D01*
X54671406Y-81200000D01*
X54811475Y-81172139D01*
X54943416Y-81117487D01*
X55062161Y-81038144D01*
X55116787Y-80983518D01*
X59925000Y-80983518D01*
X59925000Y-81116482D01*
X59950940Y-81246890D01*
X60001823Y-81369732D01*
X60075693Y-81480287D01*
X60169713Y-81574307D01*
X60280268Y-81648177D01*
X60403110Y-81699060D01*
X60533518Y-81725000D01*
X60666482Y-81725000D01*
X60796890Y-81699060D01*
X60919732Y-81648177D01*
X61030287Y-81574307D01*
X61124307Y-81480287D01*
X61198177Y-81369732D01*
X61249060Y-81246890D01*
X61275000Y-81116482D01*
X61275000Y-80983518D01*
X61268333Y-80950000D01*
X63322944Y-80950000D01*
X63322944Y-82650000D01*
X63331150Y-82733314D01*
X63355452Y-82813427D01*
X63394916Y-82887260D01*
X63448026Y-82951974D01*
X63512740Y-83005084D01*
X63586573Y-83044548D01*
X63666686Y-83068850D01*
X63750000Y-83077056D01*
X65450000Y-83077056D01*
X65533314Y-83068850D01*
X65613427Y-83044548D01*
X65687260Y-83005084D01*
X65751974Y-82951974D01*
X65805084Y-82887260D01*
X65844548Y-82813427D01*
X65868850Y-82733314D01*
X65877056Y-82650000D01*
X65877056Y-80950000D01*
X66922944Y-80950000D01*
X66922944Y-82650000D01*
X66931150Y-82733314D01*
X66955452Y-82813427D01*
X66994916Y-82887260D01*
X67048026Y-82951974D01*
X67112740Y-83005084D01*
X67186573Y-83044548D01*
X67266686Y-83068850D01*
X67350000Y-83077056D01*
X69050000Y-83077056D01*
X69133314Y-83068850D01*
X69213427Y-83044548D01*
X69287260Y-83005084D01*
X69351974Y-82951974D01*
X69405084Y-82887260D01*
X69444548Y-82813427D01*
X69468850Y-82733314D01*
X69477056Y-82650000D01*
X69477056Y-80950000D01*
X69468850Y-80866686D01*
X69444548Y-80786573D01*
X69405084Y-80712740D01*
X69351974Y-80648026D01*
X69287260Y-80594916D01*
X69213427Y-80555452D01*
X69133314Y-80531150D01*
X69050000Y-80522944D01*
X67350000Y-80522944D01*
X67266686Y-80531150D01*
X67186573Y-80555452D01*
X67112740Y-80594916D01*
X67048026Y-80648026D01*
X66994916Y-80712740D01*
X66955452Y-80786573D01*
X66931150Y-80866686D01*
X66922944Y-80950000D01*
X65877056Y-80950000D01*
X65868850Y-80866686D01*
X65844548Y-80786573D01*
X65805084Y-80712740D01*
X65751974Y-80648026D01*
X65687260Y-80594916D01*
X65613427Y-80555452D01*
X65533314Y-80531150D01*
X65450000Y-80522944D01*
X63750000Y-80522944D01*
X63666686Y-80531150D01*
X63586573Y-80555452D01*
X63512740Y-80594916D01*
X63448026Y-80648026D01*
X63394916Y-80712740D01*
X63355452Y-80786573D01*
X63331150Y-80866686D01*
X63322944Y-80950000D01*
X61268333Y-80950000D01*
X61249060Y-80853110D01*
X61237416Y-80825000D01*
X61371406Y-80825000D01*
X61511475Y-80797139D01*
X61643416Y-80742487D01*
X61762161Y-80663144D01*
X61863144Y-80562161D01*
X61942487Y-80443416D01*
X61997139Y-80311475D01*
X62025000Y-80171406D01*
X62025000Y-80028594D01*
X61997139Y-79888525D01*
X61942487Y-79756584D01*
X61863144Y-79637839D01*
X61762161Y-79536856D01*
X61671511Y-79476285D01*
X63394245Y-79476285D01*
X63403259Y-79521602D01*
X63477290Y-79750048D01*
X63594466Y-79959662D01*
X63750284Y-80142388D01*
X63938756Y-80291205D01*
X64152640Y-80400393D01*
X64383715Y-80465756D01*
X64575000Y-80390996D01*
X64575000Y-79285000D01*
X64625000Y-79285000D01*
X64625000Y-80390996D01*
X64816285Y-80465756D01*
X65047360Y-80400393D01*
X65261244Y-80291205D01*
X65449716Y-80142388D01*
X65605534Y-79959662D01*
X65722710Y-79750048D01*
X65796741Y-79521602D01*
X65805755Y-79476285D01*
X66994245Y-79476285D01*
X67003259Y-79521602D01*
X67077290Y-79750048D01*
X67194466Y-79959662D01*
X67350284Y-80142388D01*
X67538756Y-80291205D01*
X67752640Y-80400393D01*
X67983715Y-80465756D01*
X68175000Y-80390996D01*
X68175000Y-79285000D01*
X68225000Y-79285000D01*
X68225000Y-80390996D01*
X68416285Y-80465756D01*
X68647360Y-80400393D01*
X68861244Y-80291205D01*
X69049716Y-80142388D01*
X69205534Y-79959662D01*
X69322710Y-79750048D01*
X69396741Y-79521602D01*
X69405755Y-79476285D01*
X69330974Y-79285000D01*
X68225000Y-79285000D01*
X68175000Y-79285000D01*
X67069026Y-79285000D01*
X66994245Y-79476285D01*
X65805755Y-79476285D01*
X65730974Y-79285000D01*
X64625000Y-79285000D01*
X64575000Y-79285000D01*
X63469026Y-79285000D01*
X63394245Y-79476285D01*
X61671511Y-79476285D01*
X61643416Y-79457513D01*
X61511475Y-79402861D01*
X61371406Y-79375000D01*
X61228594Y-79375000D01*
X61088525Y-79402861D01*
X60956584Y-79457513D01*
X60837839Y-79536856D01*
X60736856Y-79637839D01*
X60657513Y-79756584D01*
X60602861Y-79888525D01*
X60575000Y-80028594D01*
X60575000Y-80171406D01*
X60602861Y-80311475D01*
X60629174Y-80375000D01*
X60533518Y-80375000D01*
X60403110Y-80400940D01*
X60280268Y-80451823D01*
X60169713Y-80525693D01*
X60075693Y-80619713D01*
X60001823Y-80730268D01*
X59950940Y-80853110D01*
X59925000Y-80983518D01*
X55116787Y-80983518D01*
X55163144Y-80937161D01*
X55242487Y-80818416D01*
X55297139Y-80686475D01*
X55325000Y-80546406D01*
X55325000Y-80403594D01*
X55297139Y-80263525D01*
X55242487Y-80131584D01*
X55163144Y-80012839D01*
X55062161Y-79911856D01*
X54943416Y-79832513D01*
X54834745Y-79787500D01*
X54943416Y-79742487D01*
X55062161Y-79663144D01*
X55163144Y-79562161D01*
X55242487Y-79443416D01*
X55297139Y-79311475D01*
X55325000Y-79171406D01*
X55325000Y-79043715D01*
X63394245Y-79043715D01*
X63469026Y-79235000D01*
X64575000Y-79235000D01*
X64575000Y-78129004D01*
X64625000Y-78129004D01*
X64625000Y-79235000D01*
X65730974Y-79235000D01*
X65805755Y-79043715D01*
X66994245Y-79043715D01*
X67069026Y-79235000D01*
X68175000Y-79235000D01*
X68175000Y-78129004D01*
X68225000Y-78129004D01*
X68225000Y-79235000D01*
X69330974Y-79235000D01*
X69405755Y-79043715D01*
X69396741Y-78998398D01*
X69322710Y-78769952D01*
X69205534Y-78560338D01*
X69049716Y-78377612D01*
X68861244Y-78228795D01*
X68647360Y-78119607D01*
X68416285Y-78054244D01*
X68225000Y-78129004D01*
X68175000Y-78129004D01*
X67983715Y-78054244D01*
X67752640Y-78119607D01*
X67538756Y-78228795D01*
X67350284Y-78377612D01*
X67194466Y-78560338D01*
X67077290Y-78769952D01*
X67003259Y-78998398D01*
X66994245Y-79043715D01*
X65805755Y-79043715D01*
X65796741Y-78998398D01*
X65722710Y-78769952D01*
X65605534Y-78560338D01*
X65449716Y-78377612D01*
X65261244Y-78228795D01*
X65047360Y-78119607D01*
X64816285Y-78054244D01*
X64625000Y-78129004D01*
X64575000Y-78129004D01*
X64383715Y-78054244D01*
X64152640Y-78119607D01*
X63938756Y-78228795D01*
X63750284Y-78377612D01*
X63594466Y-78560338D01*
X63477290Y-78769952D01*
X63403259Y-78998398D01*
X63394245Y-79043715D01*
X55325000Y-79043715D01*
X55325000Y-79028594D01*
X55297139Y-78888525D01*
X55242487Y-78756584D01*
X55163144Y-78637839D01*
X55062161Y-78536856D01*
X54943416Y-78457513D01*
X54811475Y-78402861D01*
X54671406Y-78375000D01*
X54528594Y-78375000D01*
X54388525Y-78402861D01*
X54256584Y-78457513D01*
X54137839Y-78536856D01*
X54036856Y-78637839D01*
X53957513Y-78756584D01*
X53902861Y-78888525D01*
X53875000Y-79028594D01*
X51373626Y-79028594D01*
X51422139Y-78911475D01*
X51450000Y-78771406D01*
X51450000Y-78628594D01*
X51422139Y-78488525D01*
X51367487Y-78356584D01*
X51288144Y-78237839D01*
X51187161Y-78136856D01*
X51068416Y-78057513D01*
X50936475Y-78002861D01*
X50796406Y-77975000D01*
X50653594Y-77975000D01*
X50513525Y-78002861D01*
X50381584Y-78057513D01*
X50262839Y-78136856D01*
X50161856Y-78237839D01*
X50082513Y-78356584D01*
X50027861Y-78488525D01*
X50000000Y-78628594D01*
X48475000Y-78628594D01*
X48475000Y-76720000D01*
X63318831Y-76720000D01*
X63343448Y-76969944D01*
X63416354Y-77210282D01*
X63534747Y-77431779D01*
X63694077Y-77625923D01*
X63888221Y-77785253D01*
X64109718Y-77903646D01*
X64350056Y-77976552D01*
X64537364Y-77995000D01*
X64662636Y-77995000D01*
X64849944Y-77976552D01*
X65090282Y-77903646D01*
X65311779Y-77785253D01*
X65505923Y-77625923D01*
X65665253Y-77431779D01*
X65783646Y-77210282D01*
X65856552Y-76969944D01*
X65881169Y-76720000D01*
X65856552Y-76470056D01*
X65783646Y-76229718D01*
X65665253Y-76008221D01*
X65505923Y-75814077D01*
X65311779Y-75654747D01*
X65090282Y-75536354D01*
X64849944Y-75463448D01*
X64662636Y-75445000D01*
X64537364Y-75445000D01*
X64350056Y-75463448D01*
X64109718Y-75536354D01*
X63888221Y-75654747D01*
X63694077Y-75814077D01*
X63534747Y-76008221D01*
X63416354Y-76229718D01*
X63343448Y-76470056D01*
X63318831Y-76720000D01*
X48475000Y-76720000D01*
X48475000Y-73728594D01*
X58175000Y-73728594D01*
X58175000Y-73871406D01*
X58202861Y-74011475D01*
X58257513Y-74143416D01*
X58336856Y-74262161D01*
X58437839Y-74363144D01*
X58556584Y-74442487D01*
X58688525Y-74497139D01*
X58828594Y-74525000D01*
X58971406Y-74525000D01*
X59111475Y-74497139D01*
X59200000Y-74460471D01*
X59288525Y-74497139D01*
X59428594Y-74525000D01*
X59571406Y-74525000D01*
X59711475Y-74497139D01*
X59843416Y-74442487D01*
X59962161Y-74363144D01*
X60063144Y-74262161D01*
X60142487Y-74143416D01*
X60197139Y-74011475D01*
X60225000Y-73871406D01*
X60225000Y-73728594D01*
X60197139Y-73588525D01*
X60142487Y-73456584D01*
X60063144Y-73337839D01*
X59962161Y-73236856D01*
X59843416Y-73157513D01*
X59773600Y-73128594D01*
X64475000Y-73128594D01*
X64475000Y-73271406D01*
X64502861Y-73411475D01*
X64557513Y-73543416D01*
X64636856Y-73662161D01*
X64737839Y-73763144D01*
X64856584Y-73842487D01*
X64988525Y-73897139D01*
X65128594Y-73925000D01*
X65271406Y-73925000D01*
X65411475Y-73897139D01*
X65543416Y-73842487D01*
X65662161Y-73763144D01*
X65763144Y-73662161D01*
X65842487Y-73543416D01*
X65897139Y-73411475D01*
X65925000Y-73271406D01*
X65925000Y-73128594D01*
X65897139Y-72988525D01*
X65842487Y-72856584D01*
X65763144Y-72737839D01*
X65662161Y-72636856D01*
X65543416Y-72557513D01*
X65411475Y-72502861D01*
X65271406Y-72475000D01*
X65128594Y-72475000D01*
X64988525Y-72502861D01*
X64856584Y-72557513D01*
X64737839Y-72636856D01*
X64636856Y-72737839D01*
X64557513Y-72856584D01*
X64502861Y-72988525D01*
X64475000Y-73128594D01*
X59773600Y-73128594D01*
X59711475Y-73102861D01*
X59571406Y-73075000D01*
X59428594Y-73075000D01*
X59288525Y-73102861D01*
X59200000Y-73139529D01*
X59111475Y-73102861D01*
X58971406Y-73075000D01*
X58828594Y-73075000D01*
X58688525Y-73102861D01*
X58556584Y-73157513D01*
X58437839Y-73236856D01*
X58336856Y-73337839D01*
X58257513Y-73456584D01*
X58202861Y-73588525D01*
X58175000Y-73728594D01*
X48475000Y-73728594D01*
X48475000Y-70633518D01*
X56025000Y-70633518D01*
X56025000Y-70766482D01*
X56050940Y-70896890D01*
X56101823Y-71019732D01*
X56175693Y-71130287D01*
X56269713Y-71224307D01*
X56380268Y-71298177D01*
X56503110Y-71349060D01*
X56633518Y-71375000D01*
X56766482Y-71375000D01*
X56896890Y-71349060D01*
X57019732Y-71298177D01*
X57050000Y-71277953D01*
X57080268Y-71298177D01*
X57203110Y-71349060D01*
X57333518Y-71375000D01*
X57466482Y-71375000D01*
X57596890Y-71349060D01*
X57719732Y-71298177D01*
X57830287Y-71224307D01*
X57924307Y-71130287D01*
X57998177Y-71019732D01*
X58049060Y-70896890D01*
X58075000Y-70766482D01*
X58075000Y-70633518D01*
X60025000Y-70633518D01*
X60025000Y-70766482D01*
X60050940Y-70896890D01*
X60101823Y-71019732D01*
X60175693Y-71130287D01*
X60269713Y-71224307D01*
X60380268Y-71298177D01*
X60503110Y-71349060D01*
X60633518Y-71375000D01*
X60766482Y-71375000D01*
X60896890Y-71349060D01*
X61019732Y-71298177D01*
X61130287Y-71224307D01*
X61224307Y-71130287D01*
X61298177Y-71019732D01*
X61349060Y-70896890D01*
X61375000Y-70766482D01*
X61375000Y-70633518D01*
X61349060Y-70503110D01*
X61298177Y-70380268D01*
X61224307Y-70269713D01*
X61130287Y-70175693D01*
X61019732Y-70101823D01*
X60896890Y-70050940D01*
X60766482Y-70025000D01*
X60633518Y-70025000D01*
X60503110Y-70050940D01*
X60380268Y-70101823D01*
X60269713Y-70175693D01*
X60175693Y-70269713D01*
X60101823Y-70380268D01*
X60050940Y-70503110D01*
X60025000Y-70633518D01*
X58075000Y-70633518D01*
X58049060Y-70503110D01*
X57998177Y-70380268D01*
X57924307Y-70269713D01*
X57830287Y-70175693D01*
X57719732Y-70101823D01*
X57596890Y-70050940D01*
X57466482Y-70025000D01*
X57333518Y-70025000D01*
X57203110Y-70050940D01*
X57080268Y-70101823D01*
X57050000Y-70122047D01*
X57019732Y-70101823D01*
X56896890Y-70050940D01*
X56766482Y-70025000D01*
X56633518Y-70025000D01*
X56503110Y-70050940D01*
X56380268Y-70101823D01*
X56269713Y-70175693D01*
X56175693Y-70269713D01*
X56101823Y-70380268D01*
X56050940Y-70503110D01*
X56025000Y-70633518D01*
X48475000Y-70633518D01*
X48475000Y-66528594D01*
X53975000Y-66528594D01*
X53975000Y-66671406D01*
X54002861Y-66811475D01*
X54057513Y-66943416D01*
X54136856Y-67062161D01*
X54237839Y-67163144D01*
X54356584Y-67242487D01*
X54488525Y-67297139D01*
X54628594Y-67325000D01*
X54771406Y-67325000D01*
X54911475Y-67297139D01*
X55043416Y-67242487D01*
X55162161Y-67163144D01*
X55263144Y-67062161D01*
X55342487Y-66943416D01*
X55397139Y-66811475D01*
X55425000Y-66671406D01*
X55425000Y-66528594D01*
X55397139Y-66388525D01*
X55342487Y-66256584D01*
X55263144Y-66137839D01*
X55162161Y-66036856D01*
X55043416Y-65957513D01*
X54911475Y-65902861D01*
X54771406Y-65875000D01*
X54628594Y-65875000D01*
X54488525Y-65902861D01*
X54356584Y-65957513D01*
X54237839Y-66036856D01*
X54136856Y-66137839D01*
X54057513Y-66256584D01*
X54002861Y-66388525D01*
X53975000Y-66528594D01*
X48475000Y-66528594D01*
X48475000Y-65328594D01*
X51275000Y-65328594D01*
X51275000Y-65471406D01*
X51302861Y-65611475D01*
X51357513Y-65743416D01*
X51436856Y-65862161D01*
X51537839Y-65963144D01*
X51656584Y-66042487D01*
X51788525Y-66097139D01*
X51928594Y-66125000D01*
X52071406Y-66125000D01*
X52211475Y-66097139D01*
X52343416Y-66042487D01*
X52462161Y-65963144D01*
X52563144Y-65862161D01*
X52642487Y-65743416D01*
X52697139Y-65611475D01*
X52725000Y-65471406D01*
X52725000Y-65328594D01*
X65275000Y-65328594D01*
X65275000Y-65471406D01*
X65302861Y-65611475D01*
X65357513Y-65743416D01*
X65436856Y-65862161D01*
X65537839Y-65963144D01*
X65656584Y-66042487D01*
X65788525Y-66097139D01*
X65928594Y-66125000D01*
X66071406Y-66125000D01*
X66211475Y-66097139D01*
X66343416Y-66042487D01*
X66462161Y-65963144D01*
X66563144Y-65862161D01*
X66642487Y-65743416D01*
X66697139Y-65611475D01*
X66725000Y-65471406D01*
X66725000Y-65328594D01*
X66697139Y-65188525D01*
X66642487Y-65056584D01*
X66563144Y-64937839D01*
X66462161Y-64836856D01*
X66343416Y-64757513D01*
X66211475Y-64702861D01*
X66071406Y-64675000D01*
X65928594Y-64675000D01*
X65788525Y-64702861D01*
X65656584Y-64757513D01*
X65537839Y-64836856D01*
X65436856Y-64937839D01*
X65357513Y-65056584D01*
X65302861Y-65188525D01*
X65275000Y-65328594D01*
X52725000Y-65328594D01*
X52697139Y-65188525D01*
X52642487Y-65056584D01*
X52563144Y-64937839D01*
X52462161Y-64836856D01*
X52343416Y-64757513D01*
X52211475Y-64702861D01*
X52071406Y-64675000D01*
X51928594Y-64675000D01*
X51788525Y-64702861D01*
X51656584Y-64757513D01*
X51537839Y-64836856D01*
X51436856Y-64937839D01*
X51357513Y-65056584D01*
X51302861Y-65188525D01*
X51275000Y-65328594D01*
X48475000Y-65328594D01*
X48475000Y-63728594D01*
X61475000Y-63728594D01*
X61475000Y-63871406D01*
X61502861Y-64011475D01*
X61557513Y-64143416D01*
X61636856Y-64262161D01*
X61737839Y-64363144D01*
X61856584Y-64442487D01*
X61988525Y-64497139D01*
X62128594Y-64525000D01*
X62271406Y-64525000D01*
X62411475Y-64497139D01*
X62543416Y-64442487D01*
X62662161Y-64363144D01*
X62763144Y-64262161D01*
X62804471Y-64200311D01*
X62928594Y-64225000D01*
X63071406Y-64225000D01*
X63211475Y-64197139D01*
X63343416Y-64142487D01*
X63462161Y-64063144D01*
X63563144Y-63962161D01*
X63642487Y-63843416D01*
X63697139Y-63711475D01*
X63725000Y-63571406D01*
X63725000Y-63428594D01*
X63697139Y-63288525D01*
X63642487Y-63156584D01*
X63563144Y-63037839D01*
X63462161Y-62936856D01*
X63343416Y-62857513D01*
X63211475Y-62802861D01*
X63071406Y-62775000D01*
X62928594Y-62775000D01*
X62788525Y-62802861D01*
X62656584Y-62857513D01*
X62537839Y-62936856D01*
X62436856Y-63037839D01*
X62395529Y-63099689D01*
X62271406Y-63075000D01*
X62128594Y-63075000D01*
X61988525Y-63102861D01*
X61856584Y-63157513D01*
X61737839Y-63236856D01*
X61636856Y-63337839D01*
X61557513Y-63456584D01*
X61502861Y-63588525D01*
X61475000Y-63728594D01*
X48475000Y-63728594D01*
X48475000Y-62328594D01*
X55575000Y-62328594D01*
X55575000Y-62471406D01*
X55602861Y-62611475D01*
X55657513Y-62743416D01*
X55736856Y-62862161D01*
X55837839Y-62963144D01*
X55956584Y-63042487D01*
X56088525Y-63097139D01*
X56228594Y-63125000D01*
X56371406Y-63125000D01*
X56511475Y-63097139D01*
X56643416Y-63042487D01*
X56762161Y-62963144D01*
X56863144Y-62862161D01*
X56942487Y-62743416D01*
X56997139Y-62611475D01*
X57025000Y-62471406D01*
X57025000Y-62328594D01*
X56997139Y-62188525D01*
X56942487Y-62056584D01*
X56863144Y-61937839D01*
X56762161Y-61836856D01*
X56643416Y-61757513D01*
X56511475Y-61702861D01*
X56371406Y-61675000D01*
X56228594Y-61675000D01*
X56088525Y-61702861D01*
X55956584Y-61757513D01*
X55837839Y-61836856D01*
X55736856Y-61937839D01*
X55657513Y-62056584D01*
X55602861Y-62188525D01*
X55575000Y-62328594D01*
X48475000Y-62328594D01*
X48475000Y-60475000D01*
X69525001Y-60475000D01*
X69525000Y-99525000D01*
M02*
