G04 #@! TF.GenerationSoftware,KiCad,Pcbnew,(5.1.4-0-10_14)*
G04 #@! TF.CreationDate,2020-03-01T16:52:25+01:00*
G04 #@! TF.ProjectId,actuator-board,61637475-6174-46f7-922d-626f6172642e,A.1*
G04 #@! TF.SameCoordinates,Original*
G04 #@! TF.FileFunction,Paste,Bot*
G04 #@! TF.FilePolarity,Positive*
%FSLAX46Y46*%
G04 Gerber Fmt 4.6, Leading zero omitted, Abs format (unit mm)*
G04 Created by KiCad (PCBNEW (5.1.4-0-10_14)) date 2020-03-01 16:52:25*
%MOMM*%
%LPD*%
G04 APERTURE LIST*
%ADD10C,0.100000*%
%ADD11C,0.787500*%
%ADD12R,0.990000X0.990000*%
%ADD13C,0.720000*%
%ADD14C,1.890000*%
%ADD15R,0.585000X0.630000*%
%ADD16R,0.630000X0.585000*%
G04 APERTURE END LIST*
D10*
G36*
X55149922Y-97294698D02*
G01*
X55169033Y-97297533D01*
X55187775Y-97302227D01*
X55205966Y-97308736D01*
X55223431Y-97316997D01*
X55240003Y-97326929D01*
X55255521Y-97338439D01*
X55269837Y-97351413D01*
X55282811Y-97365729D01*
X55294321Y-97381247D01*
X55304253Y-97397819D01*
X55312514Y-97415284D01*
X55319023Y-97433475D01*
X55323717Y-97452217D01*
X55326552Y-97471328D01*
X55327500Y-97490625D01*
X55327500Y-97884375D01*
X55326552Y-97903672D01*
X55323717Y-97922783D01*
X55319023Y-97941525D01*
X55312514Y-97959716D01*
X55304253Y-97977181D01*
X55294321Y-97993753D01*
X55282811Y-98009271D01*
X55269837Y-98023587D01*
X55255521Y-98036561D01*
X55240003Y-98048071D01*
X55223431Y-98058003D01*
X55205966Y-98066264D01*
X55187775Y-98072773D01*
X55169033Y-98077467D01*
X55149922Y-98080302D01*
X55130625Y-98081250D01*
X54669375Y-98081250D01*
X54650078Y-98080302D01*
X54630967Y-98077467D01*
X54612225Y-98072773D01*
X54594034Y-98066264D01*
X54576569Y-98058003D01*
X54559997Y-98048071D01*
X54544479Y-98036561D01*
X54530163Y-98023587D01*
X54517189Y-98009271D01*
X54505679Y-97993753D01*
X54495747Y-97977181D01*
X54487486Y-97959716D01*
X54480977Y-97941525D01*
X54476283Y-97922783D01*
X54473448Y-97903672D01*
X54472500Y-97884375D01*
X54472500Y-97490625D01*
X54473448Y-97471328D01*
X54476283Y-97452217D01*
X54480977Y-97433475D01*
X54487486Y-97415284D01*
X54495747Y-97397819D01*
X54505679Y-97381247D01*
X54517189Y-97365729D01*
X54530163Y-97351413D01*
X54544479Y-97338439D01*
X54559997Y-97326929D01*
X54576569Y-97316997D01*
X54594034Y-97308736D01*
X54612225Y-97302227D01*
X54630967Y-97297533D01*
X54650078Y-97294698D01*
X54669375Y-97293750D01*
X55130625Y-97293750D01*
X55149922Y-97294698D01*
X55149922Y-97294698D01*
G37*
D11*
X54900000Y-97687500D03*
D10*
G36*
X55149922Y-95719698D02*
G01*
X55169033Y-95722533D01*
X55187775Y-95727227D01*
X55205966Y-95733736D01*
X55223431Y-95741997D01*
X55240003Y-95751929D01*
X55255521Y-95763439D01*
X55269837Y-95776413D01*
X55282811Y-95790729D01*
X55294321Y-95806247D01*
X55304253Y-95822819D01*
X55312514Y-95840284D01*
X55319023Y-95858475D01*
X55323717Y-95877217D01*
X55326552Y-95896328D01*
X55327500Y-95915625D01*
X55327500Y-96309375D01*
X55326552Y-96328672D01*
X55323717Y-96347783D01*
X55319023Y-96366525D01*
X55312514Y-96384716D01*
X55304253Y-96402181D01*
X55294321Y-96418753D01*
X55282811Y-96434271D01*
X55269837Y-96448587D01*
X55255521Y-96461561D01*
X55240003Y-96473071D01*
X55223431Y-96483003D01*
X55205966Y-96491264D01*
X55187775Y-96497773D01*
X55169033Y-96502467D01*
X55149922Y-96505302D01*
X55130625Y-96506250D01*
X54669375Y-96506250D01*
X54650078Y-96505302D01*
X54630967Y-96502467D01*
X54612225Y-96497773D01*
X54594034Y-96491264D01*
X54576569Y-96483003D01*
X54559997Y-96473071D01*
X54544479Y-96461561D01*
X54530163Y-96448587D01*
X54517189Y-96434271D01*
X54505679Y-96418753D01*
X54495747Y-96402181D01*
X54487486Y-96384716D01*
X54480977Y-96366525D01*
X54476283Y-96347783D01*
X54473448Y-96328672D01*
X54472500Y-96309375D01*
X54472500Y-95915625D01*
X54473448Y-95896328D01*
X54476283Y-95877217D01*
X54480977Y-95858475D01*
X54487486Y-95840284D01*
X54495747Y-95822819D01*
X54505679Y-95806247D01*
X54517189Y-95790729D01*
X54530163Y-95776413D01*
X54544479Y-95763439D01*
X54559997Y-95751929D01*
X54576569Y-95741997D01*
X54594034Y-95733736D01*
X54612225Y-95727227D01*
X54630967Y-95722533D01*
X54650078Y-95719698D01*
X54669375Y-95718750D01*
X55130625Y-95718750D01*
X55149922Y-95719698D01*
X55149922Y-95719698D01*
G37*
D11*
X54900000Y-96112500D03*
D10*
G36*
X63549922Y-95719698D02*
G01*
X63569033Y-95722533D01*
X63587775Y-95727227D01*
X63605966Y-95733736D01*
X63623431Y-95741997D01*
X63640003Y-95751929D01*
X63655521Y-95763439D01*
X63669837Y-95776413D01*
X63682811Y-95790729D01*
X63694321Y-95806247D01*
X63704253Y-95822819D01*
X63712514Y-95840284D01*
X63719023Y-95858475D01*
X63723717Y-95877217D01*
X63726552Y-95896328D01*
X63727500Y-95915625D01*
X63727500Y-96309375D01*
X63726552Y-96328672D01*
X63723717Y-96347783D01*
X63719023Y-96366525D01*
X63712514Y-96384716D01*
X63704253Y-96402181D01*
X63694321Y-96418753D01*
X63682811Y-96434271D01*
X63669837Y-96448587D01*
X63655521Y-96461561D01*
X63640003Y-96473071D01*
X63623431Y-96483003D01*
X63605966Y-96491264D01*
X63587775Y-96497773D01*
X63569033Y-96502467D01*
X63549922Y-96505302D01*
X63530625Y-96506250D01*
X63069375Y-96506250D01*
X63050078Y-96505302D01*
X63030967Y-96502467D01*
X63012225Y-96497773D01*
X62994034Y-96491264D01*
X62976569Y-96483003D01*
X62959997Y-96473071D01*
X62944479Y-96461561D01*
X62930163Y-96448587D01*
X62917189Y-96434271D01*
X62905679Y-96418753D01*
X62895747Y-96402181D01*
X62887486Y-96384716D01*
X62880977Y-96366525D01*
X62876283Y-96347783D01*
X62873448Y-96328672D01*
X62872500Y-96309375D01*
X62872500Y-95915625D01*
X62873448Y-95896328D01*
X62876283Y-95877217D01*
X62880977Y-95858475D01*
X62887486Y-95840284D01*
X62895747Y-95822819D01*
X62905679Y-95806247D01*
X62917189Y-95790729D01*
X62930163Y-95776413D01*
X62944479Y-95763439D01*
X62959997Y-95751929D01*
X62976569Y-95741997D01*
X62994034Y-95733736D01*
X63012225Y-95727227D01*
X63030967Y-95722533D01*
X63050078Y-95719698D01*
X63069375Y-95718750D01*
X63530625Y-95718750D01*
X63549922Y-95719698D01*
X63549922Y-95719698D01*
G37*
D11*
X63300000Y-96112500D03*
D10*
G36*
X63549922Y-97294698D02*
G01*
X63569033Y-97297533D01*
X63587775Y-97302227D01*
X63605966Y-97308736D01*
X63623431Y-97316997D01*
X63640003Y-97326929D01*
X63655521Y-97338439D01*
X63669837Y-97351413D01*
X63682811Y-97365729D01*
X63694321Y-97381247D01*
X63704253Y-97397819D01*
X63712514Y-97415284D01*
X63719023Y-97433475D01*
X63723717Y-97452217D01*
X63726552Y-97471328D01*
X63727500Y-97490625D01*
X63727500Y-97884375D01*
X63726552Y-97903672D01*
X63723717Y-97922783D01*
X63719023Y-97941525D01*
X63712514Y-97959716D01*
X63704253Y-97977181D01*
X63694321Y-97993753D01*
X63682811Y-98009271D01*
X63669837Y-98023587D01*
X63655521Y-98036561D01*
X63640003Y-98048071D01*
X63623431Y-98058003D01*
X63605966Y-98066264D01*
X63587775Y-98072773D01*
X63569033Y-98077467D01*
X63549922Y-98080302D01*
X63530625Y-98081250D01*
X63069375Y-98081250D01*
X63050078Y-98080302D01*
X63030967Y-98077467D01*
X63012225Y-98072773D01*
X62994034Y-98066264D01*
X62976569Y-98058003D01*
X62959997Y-98048071D01*
X62944479Y-98036561D01*
X62930163Y-98023587D01*
X62917189Y-98009271D01*
X62905679Y-97993753D01*
X62895747Y-97977181D01*
X62887486Y-97959716D01*
X62880977Y-97941525D01*
X62876283Y-97922783D01*
X62873448Y-97903672D01*
X62872500Y-97884375D01*
X62872500Y-97490625D01*
X62873448Y-97471328D01*
X62876283Y-97452217D01*
X62880977Y-97433475D01*
X62887486Y-97415284D01*
X62895747Y-97397819D01*
X62905679Y-97381247D01*
X62917189Y-97365729D01*
X62930163Y-97351413D01*
X62944479Y-97338439D01*
X62959997Y-97326929D01*
X62976569Y-97316997D01*
X62994034Y-97308736D01*
X63012225Y-97302227D01*
X63030967Y-97297533D01*
X63050078Y-97294698D01*
X63069375Y-97293750D01*
X63530625Y-97293750D01*
X63549922Y-97294698D01*
X63549922Y-97294698D01*
G37*
D11*
X63300000Y-97687500D03*
D12*
X59800000Y-64800000D03*
X62600000Y-64800000D03*
X62600000Y-62500000D03*
X59800000Y-62500000D03*
X55400000Y-62500000D03*
X58200000Y-62500000D03*
X58200000Y-64800000D03*
X55400000Y-64800000D03*
D10*
G36*
X53857643Y-80015867D02*
G01*
X53875116Y-80018459D01*
X53892251Y-80022751D01*
X53908883Y-80028702D01*
X53924851Y-80036254D01*
X53940003Y-80045335D01*
X53954191Y-80055858D01*
X53967279Y-80067721D01*
X53979142Y-80080809D01*
X53989665Y-80094997D01*
X53998746Y-80110149D01*
X54006298Y-80126117D01*
X54012249Y-80142749D01*
X54016541Y-80159884D01*
X54019133Y-80177357D01*
X54020000Y-80195000D01*
X54020000Y-80555000D01*
X54019133Y-80572643D01*
X54016541Y-80590116D01*
X54012249Y-80607251D01*
X54006298Y-80623883D01*
X53998746Y-80639851D01*
X53989665Y-80655003D01*
X53979142Y-80669191D01*
X53967279Y-80682279D01*
X53954191Y-80694142D01*
X53940003Y-80704665D01*
X53924851Y-80713746D01*
X53908883Y-80721298D01*
X53892251Y-80727249D01*
X53875116Y-80731541D01*
X53857643Y-80734133D01*
X53840000Y-80735000D01*
X52760000Y-80735000D01*
X52742357Y-80734133D01*
X52724884Y-80731541D01*
X52707749Y-80727249D01*
X52691117Y-80721298D01*
X52675149Y-80713746D01*
X52659997Y-80704665D01*
X52645809Y-80694142D01*
X52632721Y-80682279D01*
X52620858Y-80669191D01*
X52610335Y-80655003D01*
X52601254Y-80639851D01*
X52593702Y-80623883D01*
X52587751Y-80607251D01*
X52583459Y-80590116D01*
X52580867Y-80572643D01*
X52580000Y-80555000D01*
X52580000Y-80195000D01*
X52580867Y-80177357D01*
X52583459Y-80159884D01*
X52587751Y-80142749D01*
X52593702Y-80126117D01*
X52601254Y-80110149D01*
X52610335Y-80094997D01*
X52620858Y-80080809D01*
X52632721Y-80067721D01*
X52645809Y-80055858D01*
X52659997Y-80045335D01*
X52675149Y-80036254D01*
X52691117Y-80028702D01*
X52707749Y-80022751D01*
X52724884Y-80018459D01*
X52742357Y-80015867D01*
X52760000Y-80015000D01*
X53840000Y-80015000D01*
X53857643Y-80015867D01*
X53857643Y-80015867D01*
G37*
D13*
X53300000Y-80375000D03*
D10*
G36*
X53857643Y-78765867D02*
G01*
X53875116Y-78768459D01*
X53892251Y-78772751D01*
X53908883Y-78778702D01*
X53924851Y-78786254D01*
X53940003Y-78795335D01*
X53954191Y-78805858D01*
X53967279Y-78817721D01*
X53979142Y-78830809D01*
X53989665Y-78844997D01*
X53998746Y-78860149D01*
X54006298Y-78876117D01*
X54012249Y-78892749D01*
X54016541Y-78909884D01*
X54019133Y-78927357D01*
X54020000Y-78945000D01*
X54020000Y-79305000D01*
X54019133Y-79322643D01*
X54016541Y-79340116D01*
X54012249Y-79357251D01*
X54006298Y-79373883D01*
X53998746Y-79389851D01*
X53989665Y-79405003D01*
X53979142Y-79419191D01*
X53967279Y-79432279D01*
X53954191Y-79444142D01*
X53940003Y-79454665D01*
X53924851Y-79463746D01*
X53908883Y-79471298D01*
X53892251Y-79477249D01*
X53875116Y-79481541D01*
X53857643Y-79484133D01*
X53840000Y-79485000D01*
X52760000Y-79485000D01*
X52742357Y-79484133D01*
X52724884Y-79481541D01*
X52707749Y-79477249D01*
X52691117Y-79471298D01*
X52675149Y-79463746D01*
X52659997Y-79454665D01*
X52645809Y-79444142D01*
X52632721Y-79432279D01*
X52620858Y-79419191D01*
X52610335Y-79405003D01*
X52601254Y-79389851D01*
X52593702Y-79373883D01*
X52587751Y-79357251D01*
X52583459Y-79340116D01*
X52580867Y-79322643D01*
X52580000Y-79305000D01*
X52580000Y-78945000D01*
X52580867Y-78927357D01*
X52583459Y-78909884D01*
X52587751Y-78892749D01*
X52593702Y-78876117D01*
X52601254Y-78860149D01*
X52610335Y-78844997D01*
X52620858Y-78830809D01*
X52632721Y-78817721D01*
X52645809Y-78805858D01*
X52659997Y-78795335D01*
X52675149Y-78786254D01*
X52691117Y-78778702D01*
X52707749Y-78772751D01*
X52724884Y-78768459D01*
X52742357Y-78765867D01*
X52760000Y-78765000D01*
X53840000Y-78765000D01*
X53857643Y-78765867D01*
X53857643Y-78765867D01*
G37*
D13*
X53300000Y-79125000D03*
D10*
G36*
X53857643Y-77515867D02*
G01*
X53875116Y-77518459D01*
X53892251Y-77522751D01*
X53908883Y-77528702D01*
X53924851Y-77536254D01*
X53940003Y-77545335D01*
X53954191Y-77555858D01*
X53967279Y-77567721D01*
X53979142Y-77580809D01*
X53989665Y-77594997D01*
X53998746Y-77610149D01*
X54006298Y-77626117D01*
X54012249Y-77642749D01*
X54016541Y-77659884D01*
X54019133Y-77677357D01*
X54020000Y-77695000D01*
X54020000Y-78055000D01*
X54019133Y-78072643D01*
X54016541Y-78090116D01*
X54012249Y-78107251D01*
X54006298Y-78123883D01*
X53998746Y-78139851D01*
X53989665Y-78155003D01*
X53979142Y-78169191D01*
X53967279Y-78182279D01*
X53954191Y-78194142D01*
X53940003Y-78204665D01*
X53924851Y-78213746D01*
X53908883Y-78221298D01*
X53892251Y-78227249D01*
X53875116Y-78231541D01*
X53857643Y-78234133D01*
X53840000Y-78235000D01*
X52760000Y-78235000D01*
X52742357Y-78234133D01*
X52724884Y-78231541D01*
X52707749Y-78227249D01*
X52691117Y-78221298D01*
X52675149Y-78213746D01*
X52659997Y-78204665D01*
X52645809Y-78194142D01*
X52632721Y-78182279D01*
X52620858Y-78169191D01*
X52610335Y-78155003D01*
X52601254Y-78139851D01*
X52593702Y-78123883D01*
X52587751Y-78107251D01*
X52583459Y-78090116D01*
X52580867Y-78072643D01*
X52580000Y-78055000D01*
X52580000Y-77695000D01*
X52580867Y-77677357D01*
X52583459Y-77659884D01*
X52587751Y-77642749D01*
X52593702Y-77626117D01*
X52601254Y-77610149D01*
X52610335Y-77594997D01*
X52620858Y-77580809D01*
X52632721Y-77567721D01*
X52645809Y-77555858D01*
X52659997Y-77545335D01*
X52675149Y-77536254D01*
X52691117Y-77528702D01*
X52707749Y-77522751D01*
X52724884Y-77518459D01*
X52742357Y-77515867D01*
X52760000Y-77515000D01*
X53840000Y-77515000D01*
X53857643Y-77515867D01*
X53857643Y-77515867D01*
G37*
D13*
X53300000Y-77875000D03*
D10*
G36*
X53857643Y-76265867D02*
G01*
X53875116Y-76268459D01*
X53892251Y-76272751D01*
X53908883Y-76278702D01*
X53924851Y-76286254D01*
X53940003Y-76295335D01*
X53954191Y-76305858D01*
X53967279Y-76317721D01*
X53979142Y-76330809D01*
X53989665Y-76344997D01*
X53998746Y-76360149D01*
X54006298Y-76376117D01*
X54012249Y-76392749D01*
X54016541Y-76409884D01*
X54019133Y-76427357D01*
X54020000Y-76445000D01*
X54020000Y-76805000D01*
X54019133Y-76822643D01*
X54016541Y-76840116D01*
X54012249Y-76857251D01*
X54006298Y-76873883D01*
X53998746Y-76889851D01*
X53989665Y-76905003D01*
X53979142Y-76919191D01*
X53967279Y-76932279D01*
X53954191Y-76944142D01*
X53940003Y-76954665D01*
X53924851Y-76963746D01*
X53908883Y-76971298D01*
X53892251Y-76977249D01*
X53875116Y-76981541D01*
X53857643Y-76984133D01*
X53840000Y-76985000D01*
X52760000Y-76985000D01*
X52742357Y-76984133D01*
X52724884Y-76981541D01*
X52707749Y-76977249D01*
X52691117Y-76971298D01*
X52675149Y-76963746D01*
X52659997Y-76954665D01*
X52645809Y-76944142D01*
X52632721Y-76932279D01*
X52620858Y-76919191D01*
X52610335Y-76905003D01*
X52601254Y-76889851D01*
X52593702Y-76873883D01*
X52587751Y-76857251D01*
X52583459Y-76840116D01*
X52580867Y-76822643D01*
X52580000Y-76805000D01*
X52580000Y-76445000D01*
X52580867Y-76427357D01*
X52583459Y-76409884D01*
X52587751Y-76392749D01*
X52593702Y-76376117D01*
X52601254Y-76360149D01*
X52610335Y-76344997D01*
X52620858Y-76330809D01*
X52632721Y-76317721D01*
X52645809Y-76305858D01*
X52659997Y-76295335D01*
X52675149Y-76286254D01*
X52691117Y-76278702D01*
X52707749Y-76272751D01*
X52724884Y-76268459D01*
X52742357Y-76265867D01*
X52760000Y-76265000D01*
X53840000Y-76265000D01*
X53857643Y-76265867D01*
X53857643Y-76265867D01*
G37*
D13*
X53300000Y-76625000D03*
D10*
G36*
X51547054Y-81981083D02*
G01*
X51568895Y-81984323D01*
X51590314Y-81989688D01*
X51611104Y-81997127D01*
X51631064Y-82006568D01*
X51650003Y-82017919D01*
X51667738Y-82031073D01*
X51684099Y-82045901D01*
X51698927Y-82062262D01*
X51712081Y-82079997D01*
X51723432Y-82098936D01*
X51732873Y-82118896D01*
X51740312Y-82139686D01*
X51745677Y-82161105D01*
X51748917Y-82182946D01*
X51750000Y-82205000D01*
X51750000Y-83645000D01*
X51748917Y-83667054D01*
X51745677Y-83688895D01*
X51740312Y-83710314D01*
X51732873Y-83731104D01*
X51723432Y-83751064D01*
X51712081Y-83770003D01*
X51698927Y-83787738D01*
X51684099Y-83804099D01*
X51667738Y-83818927D01*
X51650003Y-83832081D01*
X51631064Y-83843432D01*
X51611104Y-83852873D01*
X51590314Y-83860312D01*
X51568895Y-83865677D01*
X51547054Y-83868917D01*
X51525000Y-83870000D01*
X49275000Y-83870000D01*
X49252946Y-83868917D01*
X49231105Y-83865677D01*
X49209686Y-83860312D01*
X49188896Y-83852873D01*
X49168936Y-83843432D01*
X49149997Y-83832081D01*
X49132262Y-83818927D01*
X49115901Y-83804099D01*
X49101073Y-83787738D01*
X49087919Y-83770003D01*
X49076568Y-83751064D01*
X49067127Y-83731104D01*
X49059688Y-83710314D01*
X49054323Y-83688895D01*
X49051083Y-83667054D01*
X49050000Y-83645000D01*
X49050000Y-82205000D01*
X49051083Y-82182946D01*
X49054323Y-82161105D01*
X49059688Y-82139686D01*
X49067127Y-82118896D01*
X49076568Y-82098936D01*
X49087919Y-82079997D01*
X49101073Y-82062262D01*
X49115901Y-82045901D01*
X49132262Y-82031073D01*
X49149997Y-82017919D01*
X49168936Y-82006568D01*
X49188896Y-81997127D01*
X49209686Y-81989688D01*
X49231105Y-81984323D01*
X49252946Y-81981083D01*
X49275000Y-81980000D01*
X51525000Y-81980000D01*
X51547054Y-81981083D01*
X51547054Y-81981083D01*
G37*
D14*
X50400000Y-82925000D03*
D10*
G36*
X51547054Y-73131083D02*
G01*
X51568895Y-73134323D01*
X51590314Y-73139688D01*
X51611104Y-73147127D01*
X51631064Y-73156568D01*
X51650003Y-73167919D01*
X51667738Y-73181073D01*
X51684099Y-73195901D01*
X51698927Y-73212262D01*
X51712081Y-73229997D01*
X51723432Y-73248936D01*
X51732873Y-73268896D01*
X51740312Y-73289686D01*
X51745677Y-73311105D01*
X51748917Y-73332946D01*
X51750000Y-73355000D01*
X51750000Y-74795000D01*
X51748917Y-74817054D01*
X51745677Y-74838895D01*
X51740312Y-74860314D01*
X51732873Y-74881104D01*
X51723432Y-74901064D01*
X51712081Y-74920003D01*
X51698927Y-74937738D01*
X51684099Y-74954099D01*
X51667738Y-74968927D01*
X51650003Y-74982081D01*
X51631064Y-74993432D01*
X51611104Y-75002873D01*
X51590314Y-75010312D01*
X51568895Y-75015677D01*
X51547054Y-75018917D01*
X51525000Y-75020000D01*
X49275000Y-75020000D01*
X49252946Y-75018917D01*
X49231105Y-75015677D01*
X49209686Y-75010312D01*
X49188896Y-75002873D01*
X49168936Y-74993432D01*
X49149997Y-74982081D01*
X49132262Y-74968927D01*
X49115901Y-74954099D01*
X49101073Y-74937738D01*
X49087919Y-74920003D01*
X49076568Y-74901064D01*
X49067127Y-74881104D01*
X49059688Y-74860314D01*
X49054323Y-74838895D01*
X49051083Y-74817054D01*
X49050000Y-74795000D01*
X49050000Y-73355000D01*
X49051083Y-73332946D01*
X49054323Y-73311105D01*
X49059688Y-73289686D01*
X49067127Y-73268896D01*
X49076568Y-73248936D01*
X49087919Y-73229997D01*
X49101073Y-73212262D01*
X49115901Y-73195901D01*
X49132262Y-73181073D01*
X49149997Y-73167919D01*
X49168936Y-73156568D01*
X49188896Y-73147127D01*
X49209686Y-73139688D01*
X49231105Y-73134323D01*
X49252946Y-73131083D01*
X49275000Y-73130000D01*
X51525000Y-73130000D01*
X51547054Y-73131083D01*
X51547054Y-73131083D01*
G37*
D14*
X50400000Y-74075000D03*
D15*
X61100000Y-95630000D03*
X61100000Y-96900000D03*
X61100000Y-98170000D03*
X56900000Y-98170000D03*
X56900000Y-96900000D03*
X56900000Y-95630000D03*
D16*
X60270000Y-99000000D03*
X59000000Y-99000000D03*
X57730000Y-99000000D03*
X57730000Y-94800000D03*
X59000000Y-94800000D03*
X60270000Y-94800000D03*
D10*
G36*
X53857643Y-66290867D02*
G01*
X53875116Y-66293459D01*
X53892251Y-66297751D01*
X53908883Y-66303702D01*
X53924851Y-66311254D01*
X53940003Y-66320335D01*
X53954191Y-66330858D01*
X53967279Y-66342721D01*
X53979142Y-66355809D01*
X53989665Y-66369997D01*
X53998746Y-66385149D01*
X54006298Y-66401117D01*
X54012249Y-66417749D01*
X54016541Y-66434884D01*
X54019133Y-66452357D01*
X54020000Y-66470000D01*
X54020000Y-66830000D01*
X54019133Y-66847643D01*
X54016541Y-66865116D01*
X54012249Y-66882251D01*
X54006298Y-66898883D01*
X53998746Y-66914851D01*
X53989665Y-66930003D01*
X53979142Y-66944191D01*
X53967279Y-66957279D01*
X53954191Y-66969142D01*
X53940003Y-66979665D01*
X53924851Y-66988746D01*
X53908883Y-66996298D01*
X53892251Y-67002249D01*
X53875116Y-67006541D01*
X53857643Y-67009133D01*
X53840000Y-67010000D01*
X52760000Y-67010000D01*
X52742357Y-67009133D01*
X52724884Y-67006541D01*
X52707749Y-67002249D01*
X52691117Y-66996298D01*
X52675149Y-66988746D01*
X52659997Y-66979665D01*
X52645809Y-66969142D01*
X52632721Y-66957279D01*
X52620858Y-66944191D01*
X52610335Y-66930003D01*
X52601254Y-66914851D01*
X52593702Y-66898883D01*
X52587751Y-66882251D01*
X52583459Y-66865116D01*
X52580867Y-66847643D01*
X52580000Y-66830000D01*
X52580000Y-66470000D01*
X52580867Y-66452357D01*
X52583459Y-66434884D01*
X52587751Y-66417749D01*
X52593702Y-66401117D01*
X52601254Y-66385149D01*
X52610335Y-66369997D01*
X52620858Y-66355809D01*
X52632721Y-66342721D01*
X52645809Y-66330858D01*
X52659997Y-66320335D01*
X52675149Y-66311254D01*
X52691117Y-66303702D01*
X52707749Y-66297751D01*
X52724884Y-66293459D01*
X52742357Y-66290867D01*
X52760000Y-66290000D01*
X53840000Y-66290000D01*
X53857643Y-66290867D01*
X53857643Y-66290867D01*
G37*
D13*
X53300000Y-66650000D03*
D10*
G36*
X53857643Y-65040867D02*
G01*
X53875116Y-65043459D01*
X53892251Y-65047751D01*
X53908883Y-65053702D01*
X53924851Y-65061254D01*
X53940003Y-65070335D01*
X53954191Y-65080858D01*
X53967279Y-65092721D01*
X53979142Y-65105809D01*
X53989665Y-65119997D01*
X53998746Y-65135149D01*
X54006298Y-65151117D01*
X54012249Y-65167749D01*
X54016541Y-65184884D01*
X54019133Y-65202357D01*
X54020000Y-65220000D01*
X54020000Y-65580000D01*
X54019133Y-65597643D01*
X54016541Y-65615116D01*
X54012249Y-65632251D01*
X54006298Y-65648883D01*
X53998746Y-65664851D01*
X53989665Y-65680003D01*
X53979142Y-65694191D01*
X53967279Y-65707279D01*
X53954191Y-65719142D01*
X53940003Y-65729665D01*
X53924851Y-65738746D01*
X53908883Y-65746298D01*
X53892251Y-65752249D01*
X53875116Y-65756541D01*
X53857643Y-65759133D01*
X53840000Y-65760000D01*
X52760000Y-65760000D01*
X52742357Y-65759133D01*
X52724884Y-65756541D01*
X52707749Y-65752249D01*
X52691117Y-65746298D01*
X52675149Y-65738746D01*
X52659997Y-65729665D01*
X52645809Y-65719142D01*
X52632721Y-65707279D01*
X52620858Y-65694191D01*
X52610335Y-65680003D01*
X52601254Y-65664851D01*
X52593702Y-65648883D01*
X52587751Y-65632251D01*
X52583459Y-65615116D01*
X52580867Y-65597643D01*
X52580000Y-65580000D01*
X52580000Y-65220000D01*
X52580867Y-65202357D01*
X52583459Y-65184884D01*
X52587751Y-65167749D01*
X52593702Y-65151117D01*
X52601254Y-65135149D01*
X52610335Y-65119997D01*
X52620858Y-65105809D01*
X52632721Y-65092721D01*
X52645809Y-65080858D01*
X52659997Y-65070335D01*
X52675149Y-65061254D01*
X52691117Y-65053702D01*
X52707749Y-65047751D01*
X52724884Y-65043459D01*
X52742357Y-65040867D01*
X52760000Y-65040000D01*
X53840000Y-65040000D01*
X53857643Y-65040867D01*
X53857643Y-65040867D01*
G37*
D13*
X53300000Y-65400000D03*
D10*
G36*
X53857643Y-63790867D02*
G01*
X53875116Y-63793459D01*
X53892251Y-63797751D01*
X53908883Y-63803702D01*
X53924851Y-63811254D01*
X53940003Y-63820335D01*
X53954191Y-63830858D01*
X53967279Y-63842721D01*
X53979142Y-63855809D01*
X53989665Y-63869997D01*
X53998746Y-63885149D01*
X54006298Y-63901117D01*
X54012249Y-63917749D01*
X54016541Y-63934884D01*
X54019133Y-63952357D01*
X54020000Y-63970000D01*
X54020000Y-64330000D01*
X54019133Y-64347643D01*
X54016541Y-64365116D01*
X54012249Y-64382251D01*
X54006298Y-64398883D01*
X53998746Y-64414851D01*
X53989665Y-64430003D01*
X53979142Y-64444191D01*
X53967279Y-64457279D01*
X53954191Y-64469142D01*
X53940003Y-64479665D01*
X53924851Y-64488746D01*
X53908883Y-64496298D01*
X53892251Y-64502249D01*
X53875116Y-64506541D01*
X53857643Y-64509133D01*
X53840000Y-64510000D01*
X52760000Y-64510000D01*
X52742357Y-64509133D01*
X52724884Y-64506541D01*
X52707749Y-64502249D01*
X52691117Y-64496298D01*
X52675149Y-64488746D01*
X52659997Y-64479665D01*
X52645809Y-64469142D01*
X52632721Y-64457279D01*
X52620858Y-64444191D01*
X52610335Y-64430003D01*
X52601254Y-64414851D01*
X52593702Y-64398883D01*
X52587751Y-64382251D01*
X52583459Y-64365116D01*
X52580867Y-64347643D01*
X52580000Y-64330000D01*
X52580000Y-63970000D01*
X52580867Y-63952357D01*
X52583459Y-63934884D01*
X52587751Y-63917749D01*
X52593702Y-63901117D01*
X52601254Y-63885149D01*
X52610335Y-63869997D01*
X52620858Y-63855809D01*
X52632721Y-63842721D01*
X52645809Y-63830858D01*
X52659997Y-63820335D01*
X52675149Y-63811254D01*
X52691117Y-63803702D01*
X52707749Y-63797751D01*
X52724884Y-63793459D01*
X52742357Y-63790867D01*
X52760000Y-63790000D01*
X53840000Y-63790000D01*
X53857643Y-63790867D01*
X53857643Y-63790867D01*
G37*
D13*
X53300000Y-64150000D03*
D10*
G36*
X51547054Y-68256083D02*
G01*
X51568895Y-68259323D01*
X51590314Y-68264688D01*
X51611104Y-68272127D01*
X51631064Y-68281568D01*
X51650003Y-68292919D01*
X51667738Y-68306073D01*
X51684099Y-68320901D01*
X51698927Y-68337262D01*
X51712081Y-68354997D01*
X51723432Y-68373936D01*
X51732873Y-68393896D01*
X51740312Y-68414686D01*
X51745677Y-68436105D01*
X51748917Y-68457946D01*
X51750000Y-68480000D01*
X51750000Y-69920000D01*
X51748917Y-69942054D01*
X51745677Y-69963895D01*
X51740312Y-69985314D01*
X51732873Y-70006104D01*
X51723432Y-70026064D01*
X51712081Y-70045003D01*
X51698927Y-70062738D01*
X51684099Y-70079099D01*
X51667738Y-70093927D01*
X51650003Y-70107081D01*
X51631064Y-70118432D01*
X51611104Y-70127873D01*
X51590314Y-70135312D01*
X51568895Y-70140677D01*
X51547054Y-70143917D01*
X51525000Y-70145000D01*
X49275000Y-70145000D01*
X49252946Y-70143917D01*
X49231105Y-70140677D01*
X49209686Y-70135312D01*
X49188896Y-70127873D01*
X49168936Y-70118432D01*
X49149997Y-70107081D01*
X49132262Y-70093927D01*
X49115901Y-70079099D01*
X49101073Y-70062738D01*
X49087919Y-70045003D01*
X49076568Y-70026064D01*
X49067127Y-70006104D01*
X49059688Y-69985314D01*
X49054323Y-69963895D01*
X49051083Y-69942054D01*
X49050000Y-69920000D01*
X49050000Y-68480000D01*
X49051083Y-68457946D01*
X49054323Y-68436105D01*
X49059688Y-68414686D01*
X49067127Y-68393896D01*
X49076568Y-68373936D01*
X49087919Y-68354997D01*
X49101073Y-68337262D01*
X49115901Y-68320901D01*
X49132262Y-68306073D01*
X49149997Y-68292919D01*
X49168936Y-68281568D01*
X49188896Y-68272127D01*
X49209686Y-68264688D01*
X49231105Y-68259323D01*
X49252946Y-68256083D01*
X49275000Y-68255000D01*
X51525000Y-68255000D01*
X51547054Y-68256083D01*
X51547054Y-68256083D01*
G37*
D14*
X50400000Y-69200000D03*
D10*
G36*
X51547054Y-60656083D02*
G01*
X51568895Y-60659323D01*
X51590314Y-60664688D01*
X51611104Y-60672127D01*
X51631064Y-60681568D01*
X51650003Y-60692919D01*
X51667738Y-60706073D01*
X51684099Y-60720901D01*
X51698927Y-60737262D01*
X51712081Y-60754997D01*
X51723432Y-60773936D01*
X51732873Y-60793896D01*
X51740312Y-60814686D01*
X51745677Y-60836105D01*
X51748917Y-60857946D01*
X51750000Y-60880000D01*
X51750000Y-62320000D01*
X51748917Y-62342054D01*
X51745677Y-62363895D01*
X51740312Y-62385314D01*
X51732873Y-62406104D01*
X51723432Y-62426064D01*
X51712081Y-62445003D01*
X51698927Y-62462738D01*
X51684099Y-62479099D01*
X51667738Y-62493927D01*
X51650003Y-62507081D01*
X51631064Y-62518432D01*
X51611104Y-62527873D01*
X51590314Y-62535312D01*
X51568895Y-62540677D01*
X51547054Y-62543917D01*
X51525000Y-62545000D01*
X49275000Y-62545000D01*
X49252946Y-62543917D01*
X49231105Y-62540677D01*
X49209686Y-62535312D01*
X49188896Y-62527873D01*
X49168936Y-62518432D01*
X49149997Y-62507081D01*
X49132262Y-62493927D01*
X49115901Y-62479099D01*
X49101073Y-62462738D01*
X49087919Y-62445003D01*
X49076568Y-62426064D01*
X49067127Y-62406104D01*
X49059688Y-62385314D01*
X49054323Y-62363895D01*
X49051083Y-62342054D01*
X49050000Y-62320000D01*
X49050000Y-60880000D01*
X49051083Y-60857946D01*
X49054323Y-60836105D01*
X49059688Y-60814686D01*
X49067127Y-60793896D01*
X49076568Y-60773936D01*
X49087919Y-60754997D01*
X49101073Y-60737262D01*
X49115901Y-60720901D01*
X49132262Y-60706073D01*
X49149997Y-60692919D01*
X49168936Y-60681568D01*
X49188896Y-60672127D01*
X49209686Y-60664688D01*
X49231105Y-60659323D01*
X49252946Y-60656083D01*
X49275000Y-60655000D01*
X51525000Y-60655000D01*
X51547054Y-60656083D01*
X51547054Y-60656083D01*
G37*
D14*
X50400000Y-61600000D03*
D10*
G36*
X68747054Y-68256083D02*
G01*
X68768895Y-68259323D01*
X68790314Y-68264688D01*
X68811104Y-68272127D01*
X68831064Y-68281568D01*
X68850003Y-68292919D01*
X68867738Y-68306073D01*
X68884099Y-68320901D01*
X68898927Y-68337262D01*
X68912081Y-68354997D01*
X68923432Y-68373936D01*
X68932873Y-68393896D01*
X68940312Y-68414686D01*
X68945677Y-68436105D01*
X68948917Y-68457946D01*
X68950000Y-68480000D01*
X68950000Y-69920000D01*
X68948917Y-69942054D01*
X68945677Y-69963895D01*
X68940312Y-69985314D01*
X68932873Y-70006104D01*
X68923432Y-70026064D01*
X68912081Y-70045003D01*
X68898927Y-70062738D01*
X68884099Y-70079099D01*
X68867738Y-70093927D01*
X68850003Y-70107081D01*
X68831064Y-70118432D01*
X68811104Y-70127873D01*
X68790314Y-70135312D01*
X68768895Y-70140677D01*
X68747054Y-70143917D01*
X68725000Y-70145000D01*
X66475000Y-70145000D01*
X66452946Y-70143917D01*
X66431105Y-70140677D01*
X66409686Y-70135312D01*
X66388896Y-70127873D01*
X66368936Y-70118432D01*
X66349997Y-70107081D01*
X66332262Y-70093927D01*
X66315901Y-70079099D01*
X66301073Y-70062738D01*
X66287919Y-70045003D01*
X66276568Y-70026064D01*
X66267127Y-70006104D01*
X66259688Y-69985314D01*
X66254323Y-69963895D01*
X66251083Y-69942054D01*
X66250000Y-69920000D01*
X66250000Y-68480000D01*
X66251083Y-68457946D01*
X66254323Y-68436105D01*
X66259688Y-68414686D01*
X66267127Y-68393896D01*
X66276568Y-68373936D01*
X66287919Y-68354997D01*
X66301073Y-68337262D01*
X66315901Y-68320901D01*
X66332262Y-68306073D01*
X66349997Y-68292919D01*
X66368936Y-68281568D01*
X66388896Y-68272127D01*
X66409686Y-68264688D01*
X66431105Y-68259323D01*
X66452946Y-68256083D01*
X66475000Y-68255000D01*
X68725000Y-68255000D01*
X68747054Y-68256083D01*
X68747054Y-68256083D01*
G37*
D14*
X67600000Y-69200000D03*
D10*
G36*
X68747054Y-60656083D02*
G01*
X68768895Y-60659323D01*
X68790314Y-60664688D01*
X68811104Y-60672127D01*
X68831064Y-60681568D01*
X68850003Y-60692919D01*
X68867738Y-60706073D01*
X68884099Y-60720901D01*
X68898927Y-60737262D01*
X68912081Y-60754997D01*
X68923432Y-60773936D01*
X68932873Y-60793896D01*
X68940312Y-60814686D01*
X68945677Y-60836105D01*
X68948917Y-60857946D01*
X68950000Y-60880000D01*
X68950000Y-62320000D01*
X68948917Y-62342054D01*
X68945677Y-62363895D01*
X68940312Y-62385314D01*
X68932873Y-62406104D01*
X68923432Y-62426064D01*
X68912081Y-62445003D01*
X68898927Y-62462738D01*
X68884099Y-62479099D01*
X68867738Y-62493927D01*
X68850003Y-62507081D01*
X68831064Y-62518432D01*
X68811104Y-62527873D01*
X68790314Y-62535312D01*
X68768895Y-62540677D01*
X68747054Y-62543917D01*
X68725000Y-62545000D01*
X66475000Y-62545000D01*
X66452946Y-62543917D01*
X66431105Y-62540677D01*
X66409686Y-62535312D01*
X66388896Y-62527873D01*
X66368936Y-62518432D01*
X66349997Y-62507081D01*
X66332262Y-62493927D01*
X66315901Y-62479099D01*
X66301073Y-62462738D01*
X66287919Y-62445003D01*
X66276568Y-62426064D01*
X66267127Y-62406104D01*
X66259688Y-62385314D01*
X66254323Y-62363895D01*
X66251083Y-62342054D01*
X66250000Y-62320000D01*
X66250000Y-60880000D01*
X66251083Y-60857946D01*
X66254323Y-60836105D01*
X66259688Y-60814686D01*
X66267127Y-60793896D01*
X66276568Y-60773936D01*
X66287919Y-60754997D01*
X66301073Y-60737262D01*
X66315901Y-60720901D01*
X66332262Y-60706073D01*
X66349997Y-60692919D01*
X66368936Y-60681568D01*
X66388896Y-60672127D01*
X66409686Y-60664688D01*
X66431105Y-60659323D01*
X66452946Y-60656083D01*
X66475000Y-60655000D01*
X68725000Y-60655000D01*
X68747054Y-60656083D01*
X68747054Y-60656083D01*
G37*
D14*
X67600000Y-61600000D03*
D10*
G36*
X65257643Y-66290867D02*
G01*
X65275116Y-66293459D01*
X65292251Y-66297751D01*
X65308883Y-66303702D01*
X65324851Y-66311254D01*
X65340003Y-66320335D01*
X65354191Y-66330858D01*
X65367279Y-66342721D01*
X65379142Y-66355809D01*
X65389665Y-66369997D01*
X65398746Y-66385149D01*
X65406298Y-66401117D01*
X65412249Y-66417749D01*
X65416541Y-66434884D01*
X65419133Y-66452357D01*
X65420000Y-66470000D01*
X65420000Y-66830000D01*
X65419133Y-66847643D01*
X65416541Y-66865116D01*
X65412249Y-66882251D01*
X65406298Y-66898883D01*
X65398746Y-66914851D01*
X65389665Y-66930003D01*
X65379142Y-66944191D01*
X65367279Y-66957279D01*
X65354191Y-66969142D01*
X65340003Y-66979665D01*
X65324851Y-66988746D01*
X65308883Y-66996298D01*
X65292251Y-67002249D01*
X65275116Y-67006541D01*
X65257643Y-67009133D01*
X65240000Y-67010000D01*
X64160000Y-67010000D01*
X64142357Y-67009133D01*
X64124884Y-67006541D01*
X64107749Y-67002249D01*
X64091117Y-66996298D01*
X64075149Y-66988746D01*
X64059997Y-66979665D01*
X64045809Y-66969142D01*
X64032721Y-66957279D01*
X64020858Y-66944191D01*
X64010335Y-66930003D01*
X64001254Y-66914851D01*
X63993702Y-66898883D01*
X63987751Y-66882251D01*
X63983459Y-66865116D01*
X63980867Y-66847643D01*
X63980000Y-66830000D01*
X63980000Y-66470000D01*
X63980867Y-66452357D01*
X63983459Y-66434884D01*
X63987751Y-66417749D01*
X63993702Y-66401117D01*
X64001254Y-66385149D01*
X64010335Y-66369997D01*
X64020858Y-66355809D01*
X64032721Y-66342721D01*
X64045809Y-66330858D01*
X64059997Y-66320335D01*
X64075149Y-66311254D01*
X64091117Y-66303702D01*
X64107749Y-66297751D01*
X64124884Y-66293459D01*
X64142357Y-66290867D01*
X64160000Y-66290000D01*
X65240000Y-66290000D01*
X65257643Y-66290867D01*
X65257643Y-66290867D01*
G37*
D13*
X64700000Y-66650000D03*
D10*
G36*
X65257643Y-65040867D02*
G01*
X65275116Y-65043459D01*
X65292251Y-65047751D01*
X65308883Y-65053702D01*
X65324851Y-65061254D01*
X65340003Y-65070335D01*
X65354191Y-65080858D01*
X65367279Y-65092721D01*
X65379142Y-65105809D01*
X65389665Y-65119997D01*
X65398746Y-65135149D01*
X65406298Y-65151117D01*
X65412249Y-65167749D01*
X65416541Y-65184884D01*
X65419133Y-65202357D01*
X65420000Y-65220000D01*
X65420000Y-65580000D01*
X65419133Y-65597643D01*
X65416541Y-65615116D01*
X65412249Y-65632251D01*
X65406298Y-65648883D01*
X65398746Y-65664851D01*
X65389665Y-65680003D01*
X65379142Y-65694191D01*
X65367279Y-65707279D01*
X65354191Y-65719142D01*
X65340003Y-65729665D01*
X65324851Y-65738746D01*
X65308883Y-65746298D01*
X65292251Y-65752249D01*
X65275116Y-65756541D01*
X65257643Y-65759133D01*
X65240000Y-65760000D01*
X64160000Y-65760000D01*
X64142357Y-65759133D01*
X64124884Y-65756541D01*
X64107749Y-65752249D01*
X64091117Y-65746298D01*
X64075149Y-65738746D01*
X64059997Y-65729665D01*
X64045809Y-65719142D01*
X64032721Y-65707279D01*
X64020858Y-65694191D01*
X64010335Y-65680003D01*
X64001254Y-65664851D01*
X63993702Y-65648883D01*
X63987751Y-65632251D01*
X63983459Y-65615116D01*
X63980867Y-65597643D01*
X63980000Y-65580000D01*
X63980000Y-65220000D01*
X63980867Y-65202357D01*
X63983459Y-65184884D01*
X63987751Y-65167749D01*
X63993702Y-65151117D01*
X64001254Y-65135149D01*
X64010335Y-65119997D01*
X64020858Y-65105809D01*
X64032721Y-65092721D01*
X64045809Y-65080858D01*
X64059997Y-65070335D01*
X64075149Y-65061254D01*
X64091117Y-65053702D01*
X64107749Y-65047751D01*
X64124884Y-65043459D01*
X64142357Y-65040867D01*
X64160000Y-65040000D01*
X65240000Y-65040000D01*
X65257643Y-65040867D01*
X65257643Y-65040867D01*
G37*
D13*
X64700000Y-65400000D03*
D10*
G36*
X65257643Y-63790867D02*
G01*
X65275116Y-63793459D01*
X65292251Y-63797751D01*
X65308883Y-63803702D01*
X65324851Y-63811254D01*
X65340003Y-63820335D01*
X65354191Y-63830858D01*
X65367279Y-63842721D01*
X65379142Y-63855809D01*
X65389665Y-63869997D01*
X65398746Y-63885149D01*
X65406298Y-63901117D01*
X65412249Y-63917749D01*
X65416541Y-63934884D01*
X65419133Y-63952357D01*
X65420000Y-63970000D01*
X65420000Y-64330000D01*
X65419133Y-64347643D01*
X65416541Y-64365116D01*
X65412249Y-64382251D01*
X65406298Y-64398883D01*
X65398746Y-64414851D01*
X65389665Y-64430003D01*
X65379142Y-64444191D01*
X65367279Y-64457279D01*
X65354191Y-64469142D01*
X65340003Y-64479665D01*
X65324851Y-64488746D01*
X65308883Y-64496298D01*
X65292251Y-64502249D01*
X65275116Y-64506541D01*
X65257643Y-64509133D01*
X65240000Y-64510000D01*
X64160000Y-64510000D01*
X64142357Y-64509133D01*
X64124884Y-64506541D01*
X64107749Y-64502249D01*
X64091117Y-64496298D01*
X64075149Y-64488746D01*
X64059997Y-64479665D01*
X64045809Y-64469142D01*
X64032721Y-64457279D01*
X64020858Y-64444191D01*
X64010335Y-64430003D01*
X64001254Y-64414851D01*
X63993702Y-64398883D01*
X63987751Y-64382251D01*
X63983459Y-64365116D01*
X63980867Y-64347643D01*
X63980000Y-64330000D01*
X63980000Y-63970000D01*
X63980867Y-63952357D01*
X63983459Y-63934884D01*
X63987751Y-63917749D01*
X63993702Y-63901117D01*
X64001254Y-63885149D01*
X64010335Y-63869997D01*
X64020858Y-63855809D01*
X64032721Y-63842721D01*
X64045809Y-63830858D01*
X64059997Y-63820335D01*
X64075149Y-63811254D01*
X64091117Y-63803702D01*
X64107749Y-63797751D01*
X64124884Y-63793459D01*
X64142357Y-63790867D01*
X64160000Y-63790000D01*
X65240000Y-63790000D01*
X65257643Y-63790867D01*
X65257643Y-63790867D01*
G37*
D13*
X64700000Y-64150000D03*
M02*
