G04 #@! TF.GenerationSoftware,KiCad,Pcbnew,(5.1.4-0-10_14)*
G04 #@! TF.CreationDate,2020-03-01T16:52:25+01:00*
G04 #@! TF.ProjectId,actuator-board,61637475-6174-46f7-922d-626f6172642e,A.1*
G04 #@! TF.SameCoordinates,Original*
G04 #@! TF.FileFunction,Copper,L4,Bot*
G04 #@! TF.FilePolarity,Positive*
%FSLAX46Y46*%
G04 Gerber Fmt 4.6, Leading zero omitted, Abs format (unit mm)*
G04 Created by KiCad (PCBNEW (5.1.4-0-10_14)) date 2020-03-01 16:52:25*
%MOMM*%
%LPD*%
G04 APERTURE LIST*
%ADD10C,0.100000*%
%ADD11C,0.875000*%
%ADD12R,1.700000X1.700000*%
%ADD13O,1.700000X1.700000*%
%ADD14R,1.100000X1.100000*%
%ADD15C,1.000000*%
%ADD16C,0.800000*%
%ADD17C,2.100000*%
%ADD18R,0.650000X0.700000*%
%ADD19R,0.700000X0.650000*%
%ADD20O,1.300000X0.800000*%
%ADD21C,0.500000*%
%ADD22C,0.600000*%
%ADD23C,0.160000*%
%ADD24C,0.400000*%
%ADD25C,0.500000*%
%ADD26C,0.250000*%
G04 APERTURE END LIST*
D10*
G36*
X55177691Y-97251053D02*
G01*
X55198926Y-97254203D01*
X55219750Y-97259419D01*
X55239962Y-97266651D01*
X55259368Y-97275830D01*
X55277781Y-97286866D01*
X55295024Y-97299654D01*
X55310930Y-97314070D01*
X55325346Y-97329976D01*
X55338134Y-97347219D01*
X55349170Y-97365632D01*
X55358349Y-97385038D01*
X55365581Y-97405250D01*
X55370797Y-97426074D01*
X55373947Y-97447309D01*
X55375000Y-97468750D01*
X55375000Y-97906250D01*
X55373947Y-97927691D01*
X55370797Y-97948926D01*
X55365581Y-97969750D01*
X55358349Y-97989962D01*
X55349170Y-98009368D01*
X55338134Y-98027781D01*
X55325346Y-98045024D01*
X55310930Y-98060930D01*
X55295024Y-98075346D01*
X55277781Y-98088134D01*
X55259368Y-98099170D01*
X55239962Y-98108349D01*
X55219750Y-98115581D01*
X55198926Y-98120797D01*
X55177691Y-98123947D01*
X55156250Y-98125000D01*
X54643750Y-98125000D01*
X54622309Y-98123947D01*
X54601074Y-98120797D01*
X54580250Y-98115581D01*
X54560038Y-98108349D01*
X54540632Y-98099170D01*
X54522219Y-98088134D01*
X54504976Y-98075346D01*
X54489070Y-98060930D01*
X54474654Y-98045024D01*
X54461866Y-98027781D01*
X54450830Y-98009368D01*
X54441651Y-97989962D01*
X54434419Y-97969750D01*
X54429203Y-97948926D01*
X54426053Y-97927691D01*
X54425000Y-97906250D01*
X54425000Y-97468750D01*
X54426053Y-97447309D01*
X54429203Y-97426074D01*
X54434419Y-97405250D01*
X54441651Y-97385038D01*
X54450830Y-97365632D01*
X54461866Y-97347219D01*
X54474654Y-97329976D01*
X54489070Y-97314070D01*
X54504976Y-97299654D01*
X54522219Y-97286866D01*
X54540632Y-97275830D01*
X54560038Y-97266651D01*
X54580250Y-97259419D01*
X54601074Y-97254203D01*
X54622309Y-97251053D01*
X54643750Y-97250000D01*
X55156250Y-97250000D01*
X55177691Y-97251053D01*
X55177691Y-97251053D01*
G37*
D11*
X54900000Y-97687500D03*
D10*
G36*
X55177691Y-95676053D02*
G01*
X55198926Y-95679203D01*
X55219750Y-95684419D01*
X55239962Y-95691651D01*
X55259368Y-95700830D01*
X55277781Y-95711866D01*
X55295024Y-95724654D01*
X55310930Y-95739070D01*
X55325346Y-95754976D01*
X55338134Y-95772219D01*
X55349170Y-95790632D01*
X55358349Y-95810038D01*
X55365581Y-95830250D01*
X55370797Y-95851074D01*
X55373947Y-95872309D01*
X55375000Y-95893750D01*
X55375000Y-96331250D01*
X55373947Y-96352691D01*
X55370797Y-96373926D01*
X55365581Y-96394750D01*
X55358349Y-96414962D01*
X55349170Y-96434368D01*
X55338134Y-96452781D01*
X55325346Y-96470024D01*
X55310930Y-96485930D01*
X55295024Y-96500346D01*
X55277781Y-96513134D01*
X55259368Y-96524170D01*
X55239962Y-96533349D01*
X55219750Y-96540581D01*
X55198926Y-96545797D01*
X55177691Y-96548947D01*
X55156250Y-96550000D01*
X54643750Y-96550000D01*
X54622309Y-96548947D01*
X54601074Y-96545797D01*
X54580250Y-96540581D01*
X54560038Y-96533349D01*
X54540632Y-96524170D01*
X54522219Y-96513134D01*
X54504976Y-96500346D01*
X54489070Y-96485930D01*
X54474654Y-96470024D01*
X54461866Y-96452781D01*
X54450830Y-96434368D01*
X54441651Y-96414962D01*
X54434419Y-96394750D01*
X54429203Y-96373926D01*
X54426053Y-96352691D01*
X54425000Y-96331250D01*
X54425000Y-95893750D01*
X54426053Y-95872309D01*
X54429203Y-95851074D01*
X54434419Y-95830250D01*
X54441651Y-95810038D01*
X54450830Y-95790632D01*
X54461866Y-95772219D01*
X54474654Y-95754976D01*
X54489070Y-95739070D01*
X54504976Y-95724654D01*
X54522219Y-95711866D01*
X54540632Y-95700830D01*
X54560038Y-95691651D01*
X54580250Y-95684419D01*
X54601074Y-95679203D01*
X54622309Y-95676053D01*
X54643750Y-95675000D01*
X55156250Y-95675000D01*
X55177691Y-95676053D01*
X55177691Y-95676053D01*
G37*
D11*
X54900000Y-96112500D03*
D10*
G36*
X63577691Y-95676053D02*
G01*
X63598926Y-95679203D01*
X63619750Y-95684419D01*
X63639962Y-95691651D01*
X63659368Y-95700830D01*
X63677781Y-95711866D01*
X63695024Y-95724654D01*
X63710930Y-95739070D01*
X63725346Y-95754976D01*
X63738134Y-95772219D01*
X63749170Y-95790632D01*
X63758349Y-95810038D01*
X63765581Y-95830250D01*
X63770797Y-95851074D01*
X63773947Y-95872309D01*
X63775000Y-95893750D01*
X63775000Y-96331250D01*
X63773947Y-96352691D01*
X63770797Y-96373926D01*
X63765581Y-96394750D01*
X63758349Y-96414962D01*
X63749170Y-96434368D01*
X63738134Y-96452781D01*
X63725346Y-96470024D01*
X63710930Y-96485930D01*
X63695024Y-96500346D01*
X63677781Y-96513134D01*
X63659368Y-96524170D01*
X63639962Y-96533349D01*
X63619750Y-96540581D01*
X63598926Y-96545797D01*
X63577691Y-96548947D01*
X63556250Y-96550000D01*
X63043750Y-96550000D01*
X63022309Y-96548947D01*
X63001074Y-96545797D01*
X62980250Y-96540581D01*
X62960038Y-96533349D01*
X62940632Y-96524170D01*
X62922219Y-96513134D01*
X62904976Y-96500346D01*
X62889070Y-96485930D01*
X62874654Y-96470024D01*
X62861866Y-96452781D01*
X62850830Y-96434368D01*
X62841651Y-96414962D01*
X62834419Y-96394750D01*
X62829203Y-96373926D01*
X62826053Y-96352691D01*
X62825000Y-96331250D01*
X62825000Y-95893750D01*
X62826053Y-95872309D01*
X62829203Y-95851074D01*
X62834419Y-95830250D01*
X62841651Y-95810038D01*
X62850830Y-95790632D01*
X62861866Y-95772219D01*
X62874654Y-95754976D01*
X62889070Y-95739070D01*
X62904976Y-95724654D01*
X62922219Y-95711866D01*
X62940632Y-95700830D01*
X62960038Y-95691651D01*
X62980250Y-95684419D01*
X63001074Y-95679203D01*
X63022309Y-95676053D01*
X63043750Y-95675000D01*
X63556250Y-95675000D01*
X63577691Y-95676053D01*
X63577691Y-95676053D01*
G37*
D11*
X63300000Y-96112500D03*
D10*
G36*
X63577691Y-97251053D02*
G01*
X63598926Y-97254203D01*
X63619750Y-97259419D01*
X63639962Y-97266651D01*
X63659368Y-97275830D01*
X63677781Y-97286866D01*
X63695024Y-97299654D01*
X63710930Y-97314070D01*
X63725346Y-97329976D01*
X63738134Y-97347219D01*
X63749170Y-97365632D01*
X63758349Y-97385038D01*
X63765581Y-97405250D01*
X63770797Y-97426074D01*
X63773947Y-97447309D01*
X63775000Y-97468750D01*
X63775000Y-97906250D01*
X63773947Y-97927691D01*
X63770797Y-97948926D01*
X63765581Y-97969750D01*
X63758349Y-97989962D01*
X63749170Y-98009368D01*
X63738134Y-98027781D01*
X63725346Y-98045024D01*
X63710930Y-98060930D01*
X63695024Y-98075346D01*
X63677781Y-98088134D01*
X63659368Y-98099170D01*
X63639962Y-98108349D01*
X63619750Y-98115581D01*
X63598926Y-98120797D01*
X63577691Y-98123947D01*
X63556250Y-98125000D01*
X63043750Y-98125000D01*
X63022309Y-98123947D01*
X63001074Y-98120797D01*
X62980250Y-98115581D01*
X62960038Y-98108349D01*
X62940632Y-98099170D01*
X62922219Y-98088134D01*
X62904976Y-98075346D01*
X62889070Y-98060930D01*
X62874654Y-98045024D01*
X62861866Y-98027781D01*
X62850830Y-98009368D01*
X62841651Y-97989962D01*
X62834419Y-97969750D01*
X62829203Y-97948926D01*
X62826053Y-97927691D01*
X62825000Y-97906250D01*
X62825000Y-97468750D01*
X62826053Y-97447309D01*
X62829203Y-97426074D01*
X62834419Y-97405250D01*
X62841651Y-97385038D01*
X62850830Y-97365632D01*
X62861866Y-97347219D01*
X62874654Y-97329976D01*
X62889070Y-97314070D01*
X62904976Y-97299654D01*
X62922219Y-97286866D01*
X62940632Y-97275830D01*
X62960038Y-97266651D01*
X62980250Y-97259419D01*
X63001074Y-97254203D01*
X63022309Y-97251053D01*
X63043750Y-97250000D01*
X63556250Y-97250000D01*
X63577691Y-97251053D01*
X63577691Y-97251053D01*
G37*
D11*
X63300000Y-97687500D03*
D12*
X68200000Y-81800000D03*
D13*
X68200000Y-79260000D03*
D14*
X59800000Y-64800000D03*
X62600000Y-64800000D03*
X62600000Y-62500000D03*
X59800000Y-62500000D03*
X55400000Y-62500000D03*
X58200000Y-62500000D03*
X58200000Y-64800000D03*
X55400000Y-64800000D03*
D15*
X56700000Y-92400000D03*
X58200000Y-92400000D03*
X55200000Y-92400000D03*
X59700000Y-92400000D03*
X61200000Y-92400000D03*
D12*
X64600000Y-81800000D03*
D13*
X64600000Y-79260000D03*
X64600000Y-76720000D03*
D10*
G36*
X53919603Y-79975963D02*
G01*
X53939018Y-79978843D01*
X53958057Y-79983612D01*
X53976537Y-79990224D01*
X53994279Y-79998616D01*
X54011114Y-80008706D01*
X54026879Y-80020398D01*
X54041421Y-80033579D01*
X54054602Y-80048121D01*
X54066294Y-80063886D01*
X54076384Y-80080721D01*
X54084776Y-80098463D01*
X54091388Y-80116943D01*
X54096157Y-80135982D01*
X54099037Y-80155397D01*
X54100000Y-80175000D01*
X54100000Y-80575000D01*
X54099037Y-80594603D01*
X54096157Y-80614018D01*
X54091388Y-80633057D01*
X54084776Y-80651537D01*
X54076384Y-80669279D01*
X54066294Y-80686114D01*
X54054602Y-80701879D01*
X54041421Y-80716421D01*
X54026879Y-80729602D01*
X54011114Y-80741294D01*
X53994279Y-80751384D01*
X53976537Y-80759776D01*
X53958057Y-80766388D01*
X53939018Y-80771157D01*
X53919603Y-80774037D01*
X53900000Y-80775000D01*
X52700000Y-80775000D01*
X52680397Y-80774037D01*
X52660982Y-80771157D01*
X52641943Y-80766388D01*
X52623463Y-80759776D01*
X52605721Y-80751384D01*
X52588886Y-80741294D01*
X52573121Y-80729602D01*
X52558579Y-80716421D01*
X52545398Y-80701879D01*
X52533706Y-80686114D01*
X52523616Y-80669279D01*
X52515224Y-80651537D01*
X52508612Y-80633057D01*
X52503843Y-80614018D01*
X52500963Y-80594603D01*
X52500000Y-80575000D01*
X52500000Y-80175000D01*
X52500963Y-80155397D01*
X52503843Y-80135982D01*
X52508612Y-80116943D01*
X52515224Y-80098463D01*
X52523616Y-80080721D01*
X52533706Y-80063886D01*
X52545398Y-80048121D01*
X52558579Y-80033579D01*
X52573121Y-80020398D01*
X52588886Y-80008706D01*
X52605721Y-79998616D01*
X52623463Y-79990224D01*
X52641943Y-79983612D01*
X52660982Y-79978843D01*
X52680397Y-79975963D01*
X52700000Y-79975000D01*
X53900000Y-79975000D01*
X53919603Y-79975963D01*
X53919603Y-79975963D01*
G37*
D16*
X53300000Y-80375000D03*
D10*
G36*
X53919603Y-78725963D02*
G01*
X53939018Y-78728843D01*
X53958057Y-78733612D01*
X53976537Y-78740224D01*
X53994279Y-78748616D01*
X54011114Y-78758706D01*
X54026879Y-78770398D01*
X54041421Y-78783579D01*
X54054602Y-78798121D01*
X54066294Y-78813886D01*
X54076384Y-78830721D01*
X54084776Y-78848463D01*
X54091388Y-78866943D01*
X54096157Y-78885982D01*
X54099037Y-78905397D01*
X54100000Y-78925000D01*
X54100000Y-79325000D01*
X54099037Y-79344603D01*
X54096157Y-79364018D01*
X54091388Y-79383057D01*
X54084776Y-79401537D01*
X54076384Y-79419279D01*
X54066294Y-79436114D01*
X54054602Y-79451879D01*
X54041421Y-79466421D01*
X54026879Y-79479602D01*
X54011114Y-79491294D01*
X53994279Y-79501384D01*
X53976537Y-79509776D01*
X53958057Y-79516388D01*
X53939018Y-79521157D01*
X53919603Y-79524037D01*
X53900000Y-79525000D01*
X52700000Y-79525000D01*
X52680397Y-79524037D01*
X52660982Y-79521157D01*
X52641943Y-79516388D01*
X52623463Y-79509776D01*
X52605721Y-79501384D01*
X52588886Y-79491294D01*
X52573121Y-79479602D01*
X52558579Y-79466421D01*
X52545398Y-79451879D01*
X52533706Y-79436114D01*
X52523616Y-79419279D01*
X52515224Y-79401537D01*
X52508612Y-79383057D01*
X52503843Y-79364018D01*
X52500963Y-79344603D01*
X52500000Y-79325000D01*
X52500000Y-78925000D01*
X52500963Y-78905397D01*
X52503843Y-78885982D01*
X52508612Y-78866943D01*
X52515224Y-78848463D01*
X52523616Y-78830721D01*
X52533706Y-78813886D01*
X52545398Y-78798121D01*
X52558579Y-78783579D01*
X52573121Y-78770398D01*
X52588886Y-78758706D01*
X52605721Y-78748616D01*
X52623463Y-78740224D01*
X52641943Y-78733612D01*
X52660982Y-78728843D01*
X52680397Y-78725963D01*
X52700000Y-78725000D01*
X53900000Y-78725000D01*
X53919603Y-78725963D01*
X53919603Y-78725963D01*
G37*
D16*
X53300000Y-79125000D03*
D10*
G36*
X53919603Y-77475963D02*
G01*
X53939018Y-77478843D01*
X53958057Y-77483612D01*
X53976537Y-77490224D01*
X53994279Y-77498616D01*
X54011114Y-77508706D01*
X54026879Y-77520398D01*
X54041421Y-77533579D01*
X54054602Y-77548121D01*
X54066294Y-77563886D01*
X54076384Y-77580721D01*
X54084776Y-77598463D01*
X54091388Y-77616943D01*
X54096157Y-77635982D01*
X54099037Y-77655397D01*
X54100000Y-77675000D01*
X54100000Y-78075000D01*
X54099037Y-78094603D01*
X54096157Y-78114018D01*
X54091388Y-78133057D01*
X54084776Y-78151537D01*
X54076384Y-78169279D01*
X54066294Y-78186114D01*
X54054602Y-78201879D01*
X54041421Y-78216421D01*
X54026879Y-78229602D01*
X54011114Y-78241294D01*
X53994279Y-78251384D01*
X53976537Y-78259776D01*
X53958057Y-78266388D01*
X53939018Y-78271157D01*
X53919603Y-78274037D01*
X53900000Y-78275000D01*
X52700000Y-78275000D01*
X52680397Y-78274037D01*
X52660982Y-78271157D01*
X52641943Y-78266388D01*
X52623463Y-78259776D01*
X52605721Y-78251384D01*
X52588886Y-78241294D01*
X52573121Y-78229602D01*
X52558579Y-78216421D01*
X52545398Y-78201879D01*
X52533706Y-78186114D01*
X52523616Y-78169279D01*
X52515224Y-78151537D01*
X52508612Y-78133057D01*
X52503843Y-78114018D01*
X52500963Y-78094603D01*
X52500000Y-78075000D01*
X52500000Y-77675000D01*
X52500963Y-77655397D01*
X52503843Y-77635982D01*
X52508612Y-77616943D01*
X52515224Y-77598463D01*
X52523616Y-77580721D01*
X52533706Y-77563886D01*
X52545398Y-77548121D01*
X52558579Y-77533579D01*
X52573121Y-77520398D01*
X52588886Y-77508706D01*
X52605721Y-77498616D01*
X52623463Y-77490224D01*
X52641943Y-77483612D01*
X52660982Y-77478843D01*
X52680397Y-77475963D01*
X52700000Y-77475000D01*
X53900000Y-77475000D01*
X53919603Y-77475963D01*
X53919603Y-77475963D01*
G37*
D16*
X53300000Y-77875000D03*
D10*
G36*
X53919603Y-76225963D02*
G01*
X53939018Y-76228843D01*
X53958057Y-76233612D01*
X53976537Y-76240224D01*
X53994279Y-76248616D01*
X54011114Y-76258706D01*
X54026879Y-76270398D01*
X54041421Y-76283579D01*
X54054602Y-76298121D01*
X54066294Y-76313886D01*
X54076384Y-76330721D01*
X54084776Y-76348463D01*
X54091388Y-76366943D01*
X54096157Y-76385982D01*
X54099037Y-76405397D01*
X54100000Y-76425000D01*
X54100000Y-76825000D01*
X54099037Y-76844603D01*
X54096157Y-76864018D01*
X54091388Y-76883057D01*
X54084776Y-76901537D01*
X54076384Y-76919279D01*
X54066294Y-76936114D01*
X54054602Y-76951879D01*
X54041421Y-76966421D01*
X54026879Y-76979602D01*
X54011114Y-76991294D01*
X53994279Y-77001384D01*
X53976537Y-77009776D01*
X53958057Y-77016388D01*
X53939018Y-77021157D01*
X53919603Y-77024037D01*
X53900000Y-77025000D01*
X52700000Y-77025000D01*
X52680397Y-77024037D01*
X52660982Y-77021157D01*
X52641943Y-77016388D01*
X52623463Y-77009776D01*
X52605721Y-77001384D01*
X52588886Y-76991294D01*
X52573121Y-76979602D01*
X52558579Y-76966421D01*
X52545398Y-76951879D01*
X52533706Y-76936114D01*
X52523616Y-76919279D01*
X52515224Y-76901537D01*
X52508612Y-76883057D01*
X52503843Y-76864018D01*
X52500963Y-76844603D01*
X52500000Y-76825000D01*
X52500000Y-76425000D01*
X52500963Y-76405397D01*
X52503843Y-76385982D01*
X52508612Y-76366943D01*
X52515224Y-76348463D01*
X52523616Y-76330721D01*
X52533706Y-76313886D01*
X52545398Y-76298121D01*
X52558579Y-76283579D01*
X52573121Y-76270398D01*
X52588886Y-76258706D01*
X52605721Y-76248616D01*
X52623463Y-76240224D01*
X52641943Y-76233612D01*
X52660982Y-76228843D01*
X52680397Y-76225963D01*
X52700000Y-76225000D01*
X53900000Y-76225000D01*
X53919603Y-76225963D01*
X53919603Y-76225963D01*
G37*
D16*
X53300000Y-76625000D03*
D10*
G36*
X51674504Y-81876204D02*
G01*
X51698773Y-81879804D01*
X51722571Y-81885765D01*
X51745671Y-81894030D01*
X51767849Y-81904520D01*
X51788893Y-81917133D01*
X51808598Y-81931747D01*
X51826777Y-81948223D01*
X51843253Y-81966402D01*
X51857867Y-81986107D01*
X51870480Y-82007151D01*
X51880970Y-82029329D01*
X51889235Y-82052429D01*
X51895196Y-82076227D01*
X51898796Y-82100496D01*
X51900000Y-82125000D01*
X51900000Y-83725000D01*
X51898796Y-83749504D01*
X51895196Y-83773773D01*
X51889235Y-83797571D01*
X51880970Y-83820671D01*
X51870480Y-83842849D01*
X51857867Y-83863893D01*
X51843253Y-83883598D01*
X51826777Y-83901777D01*
X51808598Y-83918253D01*
X51788893Y-83932867D01*
X51767849Y-83945480D01*
X51745671Y-83955970D01*
X51722571Y-83964235D01*
X51698773Y-83970196D01*
X51674504Y-83973796D01*
X51650000Y-83975000D01*
X49150000Y-83975000D01*
X49125496Y-83973796D01*
X49101227Y-83970196D01*
X49077429Y-83964235D01*
X49054329Y-83955970D01*
X49032151Y-83945480D01*
X49011107Y-83932867D01*
X48991402Y-83918253D01*
X48973223Y-83901777D01*
X48956747Y-83883598D01*
X48942133Y-83863893D01*
X48929520Y-83842849D01*
X48919030Y-83820671D01*
X48910765Y-83797571D01*
X48904804Y-83773773D01*
X48901204Y-83749504D01*
X48900000Y-83725000D01*
X48900000Y-82125000D01*
X48901204Y-82100496D01*
X48904804Y-82076227D01*
X48910765Y-82052429D01*
X48919030Y-82029329D01*
X48929520Y-82007151D01*
X48942133Y-81986107D01*
X48956747Y-81966402D01*
X48973223Y-81948223D01*
X48991402Y-81931747D01*
X49011107Y-81917133D01*
X49032151Y-81904520D01*
X49054329Y-81894030D01*
X49077429Y-81885765D01*
X49101227Y-81879804D01*
X49125496Y-81876204D01*
X49150000Y-81875000D01*
X51650000Y-81875000D01*
X51674504Y-81876204D01*
X51674504Y-81876204D01*
G37*
D17*
X50400000Y-82925000D03*
D10*
G36*
X51674504Y-73026204D02*
G01*
X51698773Y-73029804D01*
X51722571Y-73035765D01*
X51745671Y-73044030D01*
X51767849Y-73054520D01*
X51788893Y-73067133D01*
X51808598Y-73081747D01*
X51826777Y-73098223D01*
X51843253Y-73116402D01*
X51857867Y-73136107D01*
X51870480Y-73157151D01*
X51880970Y-73179329D01*
X51889235Y-73202429D01*
X51895196Y-73226227D01*
X51898796Y-73250496D01*
X51900000Y-73275000D01*
X51900000Y-74875000D01*
X51898796Y-74899504D01*
X51895196Y-74923773D01*
X51889235Y-74947571D01*
X51880970Y-74970671D01*
X51870480Y-74992849D01*
X51857867Y-75013893D01*
X51843253Y-75033598D01*
X51826777Y-75051777D01*
X51808598Y-75068253D01*
X51788893Y-75082867D01*
X51767849Y-75095480D01*
X51745671Y-75105970D01*
X51722571Y-75114235D01*
X51698773Y-75120196D01*
X51674504Y-75123796D01*
X51650000Y-75125000D01*
X49150000Y-75125000D01*
X49125496Y-75123796D01*
X49101227Y-75120196D01*
X49077429Y-75114235D01*
X49054329Y-75105970D01*
X49032151Y-75095480D01*
X49011107Y-75082867D01*
X48991402Y-75068253D01*
X48973223Y-75051777D01*
X48956747Y-75033598D01*
X48942133Y-75013893D01*
X48929520Y-74992849D01*
X48919030Y-74970671D01*
X48910765Y-74947571D01*
X48904804Y-74923773D01*
X48901204Y-74899504D01*
X48900000Y-74875000D01*
X48900000Y-73275000D01*
X48901204Y-73250496D01*
X48904804Y-73226227D01*
X48910765Y-73202429D01*
X48919030Y-73179329D01*
X48929520Y-73157151D01*
X48942133Y-73136107D01*
X48956747Y-73116402D01*
X48973223Y-73098223D01*
X48991402Y-73081747D01*
X49011107Y-73067133D01*
X49032151Y-73054520D01*
X49054329Y-73044030D01*
X49077429Y-73035765D01*
X49101227Y-73029804D01*
X49125496Y-73026204D01*
X49150000Y-73025000D01*
X51650000Y-73025000D01*
X51674504Y-73026204D01*
X51674504Y-73026204D01*
G37*
D17*
X50400000Y-74075000D03*
D18*
X61100000Y-95630000D03*
X61100000Y-96900000D03*
X61100000Y-98170000D03*
X56900000Y-98170000D03*
X56900000Y-96900000D03*
X56900000Y-95630000D03*
D19*
X60270000Y-99000000D03*
X59000000Y-99000000D03*
X57730000Y-99000000D03*
X57730000Y-94800000D03*
X59000000Y-94800000D03*
X60270000Y-94800000D03*
D10*
G36*
X50869603Y-88000963D02*
G01*
X50889018Y-88003843D01*
X50908057Y-88008612D01*
X50926537Y-88015224D01*
X50944279Y-88023616D01*
X50961114Y-88033706D01*
X50976879Y-88045398D01*
X50991421Y-88058579D01*
X51004602Y-88073121D01*
X51016294Y-88088886D01*
X51026384Y-88105721D01*
X51034776Y-88123463D01*
X51041388Y-88141943D01*
X51046157Y-88160982D01*
X51049037Y-88180397D01*
X51050000Y-88200000D01*
X51050000Y-88600000D01*
X51049037Y-88619603D01*
X51046157Y-88639018D01*
X51041388Y-88658057D01*
X51034776Y-88676537D01*
X51026384Y-88694279D01*
X51016294Y-88711114D01*
X51004602Y-88726879D01*
X50991421Y-88741421D01*
X50976879Y-88754602D01*
X50961114Y-88766294D01*
X50944279Y-88776384D01*
X50926537Y-88784776D01*
X50908057Y-88791388D01*
X50889018Y-88796157D01*
X50869603Y-88799037D01*
X50850000Y-88800000D01*
X49950000Y-88800000D01*
X49930397Y-88799037D01*
X49910982Y-88796157D01*
X49891943Y-88791388D01*
X49873463Y-88784776D01*
X49855721Y-88776384D01*
X49838886Y-88766294D01*
X49823121Y-88754602D01*
X49808579Y-88741421D01*
X49795398Y-88726879D01*
X49783706Y-88711114D01*
X49773616Y-88694279D01*
X49765224Y-88676537D01*
X49758612Y-88658057D01*
X49753843Y-88639018D01*
X49750963Y-88619603D01*
X49750000Y-88600000D01*
X49750000Y-88200000D01*
X49750963Y-88180397D01*
X49753843Y-88160982D01*
X49758612Y-88141943D01*
X49765224Y-88123463D01*
X49773616Y-88105721D01*
X49783706Y-88088886D01*
X49795398Y-88073121D01*
X49808579Y-88058579D01*
X49823121Y-88045398D01*
X49838886Y-88033706D01*
X49855721Y-88023616D01*
X49873463Y-88015224D01*
X49891943Y-88008612D01*
X49910982Y-88003843D01*
X49930397Y-88000963D01*
X49950000Y-88000000D01*
X50850000Y-88000000D01*
X50869603Y-88000963D01*
X50869603Y-88000963D01*
G37*
D16*
X50400000Y-88400000D03*
D20*
X50400000Y-89650000D03*
X50400000Y-90900000D03*
X50400000Y-92150000D03*
X50400000Y-93400000D03*
X50400000Y-94650000D03*
X50400000Y-95900000D03*
D10*
G36*
X53919603Y-66250963D02*
G01*
X53939018Y-66253843D01*
X53958057Y-66258612D01*
X53976537Y-66265224D01*
X53994279Y-66273616D01*
X54011114Y-66283706D01*
X54026879Y-66295398D01*
X54041421Y-66308579D01*
X54054602Y-66323121D01*
X54066294Y-66338886D01*
X54076384Y-66355721D01*
X54084776Y-66373463D01*
X54091388Y-66391943D01*
X54096157Y-66410982D01*
X54099037Y-66430397D01*
X54100000Y-66450000D01*
X54100000Y-66850000D01*
X54099037Y-66869603D01*
X54096157Y-66889018D01*
X54091388Y-66908057D01*
X54084776Y-66926537D01*
X54076384Y-66944279D01*
X54066294Y-66961114D01*
X54054602Y-66976879D01*
X54041421Y-66991421D01*
X54026879Y-67004602D01*
X54011114Y-67016294D01*
X53994279Y-67026384D01*
X53976537Y-67034776D01*
X53958057Y-67041388D01*
X53939018Y-67046157D01*
X53919603Y-67049037D01*
X53900000Y-67050000D01*
X52700000Y-67050000D01*
X52680397Y-67049037D01*
X52660982Y-67046157D01*
X52641943Y-67041388D01*
X52623463Y-67034776D01*
X52605721Y-67026384D01*
X52588886Y-67016294D01*
X52573121Y-67004602D01*
X52558579Y-66991421D01*
X52545398Y-66976879D01*
X52533706Y-66961114D01*
X52523616Y-66944279D01*
X52515224Y-66926537D01*
X52508612Y-66908057D01*
X52503843Y-66889018D01*
X52500963Y-66869603D01*
X52500000Y-66850000D01*
X52500000Y-66450000D01*
X52500963Y-66430397D01*
X52503843Y-66410982D01*
X52508612Y-66391943D01*
X52515224Y-66373463D01*
X52523616Y-66355721D01*
X52533706Y-66338886D01*
X52545398Y-66323121D01*
X52558579Y-66308579D01*
X52573121Y-66295398D01*
X52588886Y-66283706D01*
X52605721Y-66273616D01*
X52623463Y-66265224D01*
X52641943Y-66258612D01*
X52660982Y-66253843D01*
X52680397Y-66250963D01*
X52700000Y-66250000D01*
X53900000Y-66250000D01*
X53919603Y-66250963D01*
X53919603Y-66250963D01*
G37*
D16*
X53300000Y-66650000D03*
D10*
G36*
X53919603Y-65000963D02*
G01*
X53939018Y-65003843D01*
X53958057Y-65008612D01*
X53976537Y-65015224D01*
X53994279Y-65023616D01*
X54011114Y-65033706D01*
X54026879Y-65045398D01*
X54041421Y-65058579D01*
X54054602Y-65073121D01*
X54066294Y-65088886D01*
X54076384Y-65105721D01*
X54084776Y-65123463D01*
X54091388Y-65141943D01*
X54096157Y-65160982D01*
X54099037Y-65180397D01*
X54100000Y-65200000D01*
X54100000Y-65600000D01*
X54099037Y-65619603D01*
X54096157Y-65639018D01*
X54091388Y-65658057D01*
X54084776Y-65676537D01*
X54076384Y-65694279D01*
X54066294Y-65711114D01*
X54054602Y-65726879D01*
X54041421Y-65741421D01*
X54026879Y-65754602D01*
X54011114Y-65766294D01*
X53994279Y-65776384D01*
X53976537Y-65784776D01*
X53958057Y-65791388D01*
X53939018Y-65796157D01*
X53919603Y-65799037D01*
X53900000Y-65800000D01*
X52700000Y-65800000D01*
X52680397Y-65799037D01*
X52660982Y-65796157D01*
X52641943Y-65791388D01*
X52623463Y-65784776D01*
X52605721Y-65776384D01*
X52588886Y-65766294D01*
X52573121Y-65754602D01*
X52558579Y-65741421D01*
X52545398Y-65726879D01*
X52533706Y-65711114D01*
X52523616Y-65694279D01*
X52515224Y-65676537D01*
X52508612Y-65658057D01*
X52503843Y-65639018D01*
X52500963Y-65619603D01*
X52500000Y-65600000D01*
X52500000Y-65200000D01*
X52500963Y-65180397D01*
X52503843Y-65160982D01*
X52508612Y-65141943D01*
X52515224Y-65123463D01*
X52523616Y-65105721D01*
X52533706Y-65088886D01*
X52545398Y-65073121D01*
X52558579Y-65058579D01*
X52573121Y-65045398D01*
X52588886Y-65033706D01*
X52605721Y-65023616D01*
X52623463Y-65015224D01*
X52641943Y-65008612D01*
X52660982Y-65003843D01*
X52680397Y-65000963D01*
X52700000Y-65000000D01*
X53900000Y-65000000D01*
X53919603Y-65000963D01*
X53919603Y-65000963D01*
G37*
D16*
X53300000Y-65400000D03*
D10*
G36*
X53919603Y-63750963D02*
G01*
X53939018Y-63753843D01*
X53958057Y-63758612D01*
X53976537Y-63765224D01*
X53994279Y-63773616D01*
X54011114Y-63783706D01*
X54026879Y-63795398D01*
X54041421Y-63808579D01*
X54054602Y-63823121D01*
X54066294Y-63838886D01*
X54076384Y-63855721D01*
X54084776Y-63873463D01*
X54091388Y-63891943D01*
X54096157Y-63910982D01*
X54099037Y-63930397D01*
X54100000Y-63950000D01*
X54100000Y-64350000D01*
X54099037Y-64369603D01*
X54096157Y-64389018D01*
X54091388Y-64408057D01*
X54084776Y-64426537D01*
X54076384Y-64444279D01*
X54066294Y-64461114D01*
X54054602Y-64476879D01*
X54041421Y-64491421D01*
X54026879Y-64504602D01*
X54011114Y-64516294D01*
X53994279Y-64526384D01*
X53976537Y-64534776D01*
X53958057Y-64541388D01*
X53939018Y-64546157D01*
X53919603Y-64549037D01*
X53900000Y-64550000D01*
X52700000Y-64550000D01*
X52680397Y-64549037D01*
X52660982Y-64546157D01*
X52641943Y-64541388D01*
X52623463Y-64534776D01*
X52605721Y-64526384D01*
X52588886Y-64516294D01*
X52573121Y-64504602D01*
X52558579Y-64491421D01*
X52545398Y-64476879D01*
X52533706Y-64461114D01*
X52523616Y-64444279D01*
X52515224Y-64426537D01*
X52508612Y-64408057D01*
X52503843Y-64389018D01*
X52500963Y-64369603D01*
X52500000Y-64350000D01*
X52500000Y-63950000D01*
X52500963Y-63930397D01*
X52503843Y-63910982D01*
X52508612Y-63891943D01*
X52515224Y-63873463D01*
X52523616Y-63855721D01*
X52533706Y-63838886D01*
X52545398Y-63823121D01*
X52558579Y-63808579D01*
X52573121Y-63795398D01*
X52588886Y-63783706D01*
X52605721Y-63773616D01*
X52623463Y-63765224D01*
X52641943Y-63758612D01*
X52660982Y-63753843D01*
X52680397Y-63750963D01*
X52700000Y-63750000D01*
X53900000Y-63750000D01*
X53919603Y-63750963D01*
X53919603Y-63750963D01*
G37*
D16*
X53300000Y-64150000D03*
D10*
G36*
X51674504Y-68151204D02*
G01*
X51698773Y-68154804D01*
X51722571Y-68160765D01*
X51745671Y-68169030D01*
X51767849Y-68179520D01*
X51788893Y-68192133D01*
X51808598Y-68206747D01*
X51826777Y-68223223D01*
X51843253Y-68241402D01*
X51857867Y-68261107D01*
X51870480Y-68282151D01*
X51880970Y-68304329D01*
X51889235Y-68327429D01*
X51895196Y-68351227D01*
X51898796Y-68375496D01*
X51900000Y-68400000D01*
X51900000Y-70000000D01*
X51898796Y-70024504D01*
X51895196Y-70048773D01*
X51889235Y-70072571D01*
X51880970Y-70095671D01*
X51870480Y-70117849D01*
X51857867Y-70138893D01*
X51843253Y-70158598D01*
X51826777Y-70176777D01*
X51808598Y-70193253D01*
X51788893Y-70207867D01*
X51767849Y-70220480D01*
X51745671Y-70230970D01*
X51722571Y-70239235D01*
X51698773Y-70245196D01*
X51674504Y-70248796D01*
X51650000Y-70250000D01*
X49150000Y-70250000D01*
X49125496Y-70248796D01*
X49101227Y-70245196D01*
X49077429Y-70239235D01*
X49054329Y-70230970D01*
X49032151Y-70220480D01*
X49011107Y-70207867D01*
X48991402Y-70193253D01*
X48973223Y-70176777D01*
X48956747Y-70158598D01*
X48942133Y-70138893D01*
X48929520Y-70117849D01*
X48919030Y-70095671D01*
X48910765Y-70072571D01*
X48904804Y-70048773D01*
X48901204Y-70024504D01*
X48900000Y-70000000D01*
X48900000Y-68400000D01*
X48901204Y-68375496D01*
X48904804Y-68351227D01*
X48910765Y-68327429D01*
X48919030Y-68304329D01*
X48929520Y-68282151D01*
X48942133Y-68261107D01*
X48956747Y-68241402D01*
X48973223Y-68223223D01*
X48991402Y-68206747D01*
X49011107Y-68192133D01*
X49032151Y-68179520D01*
X49054329Y-68169030D01*
X49077429Y-68160765D01*
X49101227Y-68154804D01*
X49125496Y-68151204D01*
X49150000Y-68150000D01*
X51650000Y-68150000D01*
X51674504Y-68151204D01*
X51674504Y-68151204D01*
G37*
D17*
X50400000Y-69200000D03*
D10*
G36*
X51674504Y-60551204D02*
G01*
X51698773Y-60554804D01*
X51722571Y-60560765D01*
X51745671Y-60569030D01*
X51767849Y-60579520D01*
X51788893Y-60592133D01*
X51808598Y-60606747D01*
X51826777Y-60623223D01*
X51843253Y-60641402D01*
X51857867Y-60661107D01*
X51870480Y-60682151D01*
X51880970Y-60704329D01*
X51889235Y-60727429D01*
X51895196Y-60751227D01*
X51898796Y-60775496D01*
X51900000Y-60800000D01*
X51900000Y-62400000D01*
X51898796Y-62424504D01*
X51895196Y-62448773D01*
X51889235Y-62472571D01*
X51880970Y-62495671D01*
X51870480Y-62517849D01*
X51857867Y-62538893D01*
X51843253Y-62558598D01*
X51826777Y-62576777D01*
X51808598Y-62593253D01*
X51788893Y-62607867D01*
X51767849Y-62620480D01*
X51745671Y-62630970D01*
X51722571Y-62639235D01*
X51698773Y-62645196D01*
X51674504Y-62648796D01*
X51650000Y-62650000D01*
X49150000Y-62650000D01*
X49125496Y-62648796D01*
X49101227Y-62645196D01*
X49077429Y-62639235D01*
X49054329Y-62630970D01*
X49032151Y-62620480D01*
X49011107Y-62607867D01*
X48991402Y-62593253D01*
X48973223Y-62576777D01*
X48956747Y-62558598D01*
X48942133Y-62538893D01*
X48929520Y-62517849D01*
X48919030Y-62495671D01*
X48910765Y-62472571D01*
X48904804Y-62448773D01*
X48901204Y-62424504D01*
X48900000Y-62400000D01*
X48900000Y-60800000D01*
X48901204Y-60775496D01*
X48904804Y-60751227D01*
X48910765Y-60727429D01*
X48919030Y-60704329D01*
X48929520Y-60682151D01*
X48942133Y-60661107D01*
X48956747Y-60641402D01*
X48973223Y-60623223D01*
X48991402Y-60606747D01*
X49011107Y-60592133D01*
X49032151Y-60579520D01*
X49054329Y-60569030D01*
X49077429Y-60560765D01*
X49101227Y-60554804D01*
X49125496Y-60551204D01*
X49150000Y-60550000D01*
X51650000Y-60550000D01*
X51674504Y-60551204D01*
X51674504Y-60551204D01*
G37*
D17*
X50400000Y-61600000D03*
D10*
G36*
X68874504Y-68151204D02*
G01*
X68898773Y-68154804D01*
X68922571Y-68160765D01*
X68945671Y-68169030D01*
X68967849Y-68179520D01*
X68988893Y-68192133D01*
X69008598Y-68206747D01*
X69026777Y-68223223D01*
X69043253Y-68241402D01*
X69057867Y-68261107D01*
X69070480Y-68282151D01*
X69080970Y-68304329D01*
X69089235Y-68327429D01*
X69095196Y-68351227D01*
X69098796Y-68375496D01*
X69100000Y-68400000D01*
X69100000Y-70000000D01*
X69098796Y-70024504D01*
X69095196Y-70048773D01*
X69089235Y-70072571D01*
X69080970Y-70095671D01*
X69070480Y-70117849D01*
X69057867Y-70138893D01*
X69043253Y-70158598D01*
X69026777Y-70176777D01*
X69008598Y-70193253D01*
X68988893Y-70207867D01*
X68967849Y-70220480D01*
X68945671Y-70230970D01*
X68922571Y-70239235D01*
X68898773Y-70245196D01*
X68874504Y-70248796D01*
X68850000Y-70250000D01*
X66350000Y-70250000D01*
X66325496Y-70248796D01*
X66301227Y-70245196D01*
X66277429Y-70239235D01*
X66254329Y-70230970D01*
X66232151Y-70220480D01*
X66211107Y-70207867D01*
X66191402Y-70193253D01*
X66173223Y-70176777D01*
X66156747Y-70158598D01*
X66142133Y-70138893D01*
X66129520Y-70117849D01*
X66119030Y-70095671D01*
X66110765Y-70072571D01*
X66104804Y-70048773D01*
X66101204Y-70024504D01*
X66100000Y-70000000D01*
X66100000Y-68400000D01*
X66101204Y-68375496D01*
X66104804Y-68351227D01*
X66110765Y-68327429D01*
X66119030Y-68304329D01*
X66129520Y-68282151D01*
X66142133Y-68261107D01*
X66156747Y-68241402D01*
X66173223Y-68223223D01*
X66191402Y-68206747D01*
X66211107Y-68192133D01*
X66232151Y-68179520D01*
X66254329Y-68169030D01*
X66277429Y-68160765D01*
X66301227Y-68154804D01*
X66325496Y-68151204D01*
X66350000Y-68150000D01*
X68850000Y-68150000D01*
X68874504Y-68151204D01*
X68874504Y-68151204D01*
G37*
D17*
X67600000Y-69200000D03*
D10*
G36*
X68874504Y-60551204D02*
G01*
X68898773Y-60554804D01*
X68922571Y-60560765D01*
X68945671Y-60569030D01*
X68967849Y-60579520D01*
X68988893Y-60592133D01*
X69008598Y-60606747D01*
X69026777Y-60623223D01*
X69043253Y-60641402D01*
X69057867Y-60661107D01*
X69070480Y-60682151D01*
X69080970Y-60704329D01*
X69089235Y-60727429D01*
X69095196Y-60751227D01*
X69098796Y-60775496D01*
X69100000Y-60800000D01*
X69100000Y-62400000D01*
X69098796Y-62424504D01*
X69095196Y-62448773D01*
X69089235Y-62472571D01*
X69080970Y-62495671D01*
X69070480Y-62517849D01*
X69057867Y-62538893D01*
X69043253Y-62558598D01*
X69026777Y-62576777D01*
X69008598Y-62593253D01*
X68988893Y-62607867D01*
X68967849Y-62620480D01*
X68945671Y-62630970D01*
X68922571Y-62639235D01*
X68898773Y-62645196D01*
X68874504Y-62648796D01*
X68850000Y-62650000D01*
X66350000Y-62650000D01*
X66325496Y-62648796D01*
X66301227Y-62645196D01*
X66277429Y-62639235D01*
X66254329Y-62630970D01*
X66232151Y-62620480D01*
X66211107Y-62607867D01*
X66191402Y-62593253D01*
X66173223Y-62576777D01*
X66156747Y-62558598D01*
X66142133Y-62538893D01*
X66129520Y-62517849D01*
X66119030Y-62495671D01*
X66110765Y-62472571D01*
X66104804Y-62448773D01*
X66101204Y-62424504D01*
X66100000Y-62400000D01*
X66100000Y-60800000D01*
X66101204Y-60775496D01*
X66104804Y-60751227D01*
X66110765Y-60727429D01*
X66119030Y-60704329D01*
X66129520Y-60682151D01*
X66142133Y-60661107D01*
X66156747Y-60641402D01*
X66173223Y-60623223D01*
X66191402Y-60606747D01*
X66211107Y-60592133D01*
X66232151Y-60579520D01*
X66254329Y-60569030D01*
X66277429Y-60560765D01*
X66301227Y-60554804D01*
X66325496Y-60551204D01*
X66350000Y-60550000D01*
X68850000Y-60550000D01*
X68874504Y-60551204D01*
X68874504Y-60551204D01*
G37*
D17*
X67600000Y-61600000D03*
D10*
G36*
X65319603Y-66250963D02*
G01*
X65339018Y-66253843D01*
X65358057Y-66258612D01*
X65376537Y-66265224D01*
X65394279Y-66273616D01*
X65411114Y-66283706D01*
X65426879Y-66295398D01*
X65441421Y-66308579D01*
X65454602Y-66323121D01*
X65466294Y-66338886D01*
X65476384Y-66355721D01*
X65484776Y-66373463D01*
X65491388Y-66391943D01*
X65496157Y-66410982D01*
X65499037Y-66430397D01*
X65500000Y-66450000D01*
X65500000Y-66850000D01*
X65499037Y-66869603D01*
X65496157Y-66889018D01*
X65491388Y-66908057D01*
X65484776Y-66926537D01*
X65476384Y-66944279D01*
X65466294Y-66961114D01*
X65454602Y-66976879D01*
X65441421Y-66991421D01*
X65426879Y-67004602D01*
X65411114Y-67016294D01*
X65394279Y-67026384D01*
X65376537Y-67034776D01*
X65358057Y-67041388D01*
X65339018Y-67046157D01*
X65319603Y-67049037D01*
X65300000Y-67050000D01*
X64100000Y-67050000D01*
X64080397Y-67049037D01*
X64060982Y-67046157D01*
X64041943Y-67041388D01*
X64023463Y-67034776D01*
X64005721Y-67026384D01*
X63988886Y-67016294D01*
X63973121Y-67004602D01*
X63958579Y-66991421D01*
X63945398Y-66976879D01*
X63933706Y-66961114D01*
X63923616Y-66944279D01*
X63915224Y-66926537D01*
X63908612Y-66908057D01*
X63903843Y-66889018D01*
X63900963Y-66869603D01*
X63900000Y-66850000D01*
X63900000Y-66450000D01*
X63900963Y-66430397D01*
X63903843Y-66410982D01*
X63908612Y-66391943D01*
X63915224Y-66373463D01*
X63923616Y-66355721D01*
X63933706Y-66338886D01*
X63945398Y-66323121D01*
X63958579Y-66308579D01*
X63973121Y-66295398D01*
X63988886Y-66283706D01*
X64005721Y-66273616D01*
X64023463Y-66265224D01*
X64041943Y-66258612D01*
X64060982Y-66253843D01*
X64080397Y-66250963D01*
X64100000Y-66250000D01*
X65300000Y-66250000D01*
X65319603Y-66250963D01*
X65319603Y-66250963D01*
G37*
D16*
X64700000Y-66650000D03*
D10*
G36*
X65319603Y-65000963D02*
G01*
X65339018Y-65003843D01*
X65358057Y-65008612D01*
X65376537Y-65015224D01*
X65394279Y-65023616D01*
X65411114Y-65033706D01*
X65426879Y-65045398D01*
X65441421Y-65058579D01*
X65454602Y-65073121D01*
X65466294Y-65088886D01*
X65476384Y-65105721D01*
X65484776Y-65123463D01*
X65491388Y-65141943D01*
X65496157Y-65160982D01*
X65499037Y-65180397D01*
X65500000Y-65200000D01*
X65500000Y-65600000D01*
X65499037Y-65619603D01*
X65496157Y-65639018D01*
X65491388Y-65658057D01*
X65484776Y-65676537D01*
X65476384Y-65694279D01*
X65466294Y-65711114D01*
X65454602Y-65726879D01*
X65441421Y-65741421D01*
X65426879Y-65754602D01*
X65411114Y-65766294D01*
X65394279Y-65776384D01*
X65376537Y-65784776D01*
X65358057Y-65791388D01*
X65339018Y-65796157D01*
X65319603Y-65799037D01*
X65300000Y-65800000D01*
X64100000Y-65800000D01*
X64080397Y-65799037D01*
X64060982Y-65796157D01*
X64041943Y-65791388D01*
X64023463Y-65784776D01*
X64005721Y-65776384D01*
X63988886Y-65766294D01*
X63973121Y-65754602D01*
X63958579Y-65741421D01*
X63945398Y-65726879D01*
X63933706Y-65711114D01*
X63923616Y-65694279D01*
X63915224Y-65676537D01*
X63908612Y-65658057D01*
X63903843Y-65639018D01*
X63900963Y-65619603D01*
X63900000Y-65600000D01*
X63900000Y-65200000D01*
X63900963Y-65180397D01*
X63903843Y-65160982D01*
X63908612Y-65141943D01*
X63915224Y-65123463D01*
X63923616Y-65105721D01*
X63933706Y-65088886D01*
X63945398Y-65073121D01*
X63958579Y-65058579D01*
X63973121Y-65045398D01*
X63988886Y-65033706D01*
X64005721Y-65023616D01*
X64023463Y-65015224D01*
X64041943Y-65008612D01*
X64060982Y-65003843D01*
X64080397Y-65000963D01*
X64100000Y-65000000D01*
X65300000Y-65000000D01*
X65319603Y-65000963D01*
X65319603Y-65000963D01*
G37*
D16*
X64700000Y-65400000D03*
D10*
G36*
X65319603Y-63750963D02*
G01*
X65339018Y-63753843D01*
X65358057Y-63758612D01*
X65376537Y-63765224D01*
X65394279Y-63773616D01*
X65411114Y-63783706D01*
X65426879Y-63795398D01*
X65441421Y-63808579D01*
X65454602Y-63823121D01*
X65466294Y-63838886D01*
X65476384Y-63855721D01*
X65484776Y-63873463D01*
X65491388Y-63891943D01*
X65496157Y-63910982D01*
X65499037Y-63930397D01*
X65500000Y-63950000D01*
X65500000Y-64350000D01*
X65499037Y-64369603D01*
X65496157Y-64389018D01*
X65491388Y-64408057D01*
X65484776Y-64426537D01*
X65476384Y-64444279D01*
X65466294Y-64461114D01*
X65454602Y-64476879D01*
X65441421Y-64491421D01*
X65426879Y-64504602D01*
X65411114Y-64516294D01*
X65394279Y-64526384D01*
X65376537Y-64534776D01*
X65358057Y-64541388D01*
X65339018Y-64546157D01*
X65319603Y-64549037D01*
X65300000Y-64550000D01*
X64100000Y-64550000D01*
X64080397Y-64549037D01*
X64060982Y-64546157D01*
X64041943Y-64541388D01*
X64023463Y-64534776D01*
X64005721Y-64526384D01*
X63988886Y-64516294D01*
X63973121Y-64504602D01*
X63958579Y-64491421D01*
X63945398Y-64476879D01*
X63933706Y-64461114D01*
X63923616Y-64444279D01*
X63915224Y-64426537D01*
X63908612Y-64408057D01*
X63903843Y-64389018D01*
X63900963Y-64369603D01*
X63900000Y-64350000D01*
X63900000Y-63950000D01*
X63900963Y-63930397D01*
X63903843Y-63910982D01*
X63908612Y-63891943D01*
X63915224Y-63873463D01*
X63923616Y-63855721D01*
X63933706Y-63838886D01*
X63945398Y-63823121D01*
X63958579Y-63808579D01*
X63973121Y-63795398D01*
X63988886Y-63783706D01*
X64005721Y-63773616D01*
X64023463Y-63765224D01*
X64041943Y-63758612D01*
X64060982Y-63753843D01*
X64080397Y-63750963D01*
X64100000Y-63750000D01*
X65300000Y-63750000D01*
X65319603Y-63750963D01*
X65319603Y-63750963D01*
G37*
D16*
X64700000Y-64150000D03*
D21*
X69100000Y-99100000D03*
X53200000Y-61200000D03*
D22*
X56800000Y-82200000D03*
X67200000Y-83800000D03*
X59700000Y-83500000D03*
X65100000Y-95000000D03*
X61300000Y-80100000D03*
D21*
X54100000Y-96950000D03*
X62600000Y-88500000D03*
X61700000Y-87600000D03*
X63500000Y-89400000D03*
X61700000Y-89400000D03*
X63500000Y-87600000D03*
X57657500Y-67235000D03*
X60342500Y-67235000D03*
X50000000Y-65700000D03*
X67800000Y-65500000D03*
X59000000Y-61600000D03*
X51900000Y-78500000D03*
X68800000Y-96600000D03*
X59600000Y-97500000D03*
X52900000Y-97500000D03*
X65650000Y-96150000D03*
X68000000Y-86700000D03*
X68600000Y-72300000D03*
X57657500Y-65765000D03*
X60342500Y-65765000D03*
X53900000Y-82900000D03*
X54500000Y-88500000D03*
X61811578Y-72588422D03*
X63000000Y-94700000D03*
X65750000Y-88750000D03*
X53900000Y-86500000D03*
X65700000Y-87300000D03*
X56200000Y-86400000D03*
X65700000Y-86647597D03*
X56200000Y-87900000D03*
D22*
X52000000Y-65400000D03*
X66000000Y-65400000D03*
X65200000Y-73200000D03*
X58900000Y-73800000D03*
X59500000Y-73800000D03*
D21*
X58500000Y-89800000D03*
X58500000Y-90600000D03*
X62832400Y-91800000D03*
X62600000Y-92500000D03*
X59100000Y-91700000D03*
D22*
X50725000Y-78700000D03*
X62200000Y-63800000D03*
X63000000Y-63500000D03*
X56300000Y-62400000D03*
X54700000Y-66600000D03*
D21*
X60600000Y-81050000D03*
X60597600Y-82500000D03*
X61310172Y-85238918D03*
X67200000Y-96600000D03*
X59200000Y-94200000D03*
X59687599Y-96557401D03*
X59800000Y-93700000D03*
X58400000Y-95600000D03*
X59511231Y-87267600D03*
X60300000Y-90872789D03*
X60700000Y-70700000D03*
X64500000Y-83800000D03*
X57400000Y-70700000D03*
X63800000Y-83800000D03*
X59000000Y-98272598D03*
X63340944Y-85345035D03*
X62300000Y-83800000D03*
X56700000Y-70700000D03*
D22*
X54600000Y-80475000D03*
X54600000Y-79100000D03*
D23*
X61582500Y-96112500D02*
X61100000Y-95630000D01*
X63300000Y-96112500D02*
X61582500Y-96112500D01*
D24*
X63300000Y-96112500D02*
X63300000Y-96100000D01*
X63987500Y-96112500D02*
X65100000Y-95000000D01*
X63300000Y-96112500D02*
X63987500Y-96112500D01*
D23*
X61100000Y-98170000D02*
X61830000Y-98170000D01*
X61830000Y-98170000D02*
X62312500Y-97687500D01*
X62312500Y-97687500D02*
X62512500Y-97687500D01*
X62512500Y-97687500D02*
X63300000Y-97687500D01*
X62600000Y-88500000D02*
X61700000Y-87600000D01*
X62600000Y-88500000D02*
X61700000Y-89400000D01*
X62600000Y-88500000D02*
X63500000Y-89400000D01*
X62600000Y-88500000D02*
X63500000Y-87600000D01*
X51550000Y-64150000D02*
X50000000Y-65700000D01*
X53300000Y-64150000D02*
X51550000Y-64150000D01*
X66650000Y-66650000D02*
X64700000Y-66650000D01*
X67800000Y-65500000D02*
X66650000Y-66650000D01*
X52525000Y-79125000D02*
X53300000Y-79125000D01*
X51900000Y-78500000D02*
X52525000Y-79125000D01*
X59945000Y-97500000D02*
X59600000Y-97500000D01*
X60615000Y-98170000D02*
X59945000Y-97500000D01*
X61100000Y-98170000D02*
X60615000Y-98170000D01*
X56431553Y-88382401D02*
X55782401Y-88382401D01*
X58028755Y-86785199D02*
X56431553Y-88382401D01*
X55782401Y-88382401D02*
X53900000Y-86500000D01*
X63785199Y-86785199D02*
X58028755Y-86785199D01*
X65750000Y-88750000D02*
X63785199Y-86785199D01*
X53900000Y-87650000D02*
X53900000Y-86853553D01*
X53900000Y-86853553D02*
X53900000Y-86500000D01*
X50650000Y-90900000D02*
X53900000Y-87650000D01*
X50400000Y-90900000D02*
X50650000Y-90900000D01*
X65761551Y-87300000D02*
X65700000Y-87300000D01*
X56514812Y-86085188D02*
X56449999Y-86150001D01*
X65851545Y-86085188D02*
X56514812Y-86085188D01*
X56449999Y-86150001D02*
X56200000Y-86400000D01*
X66182401Y-86416044D02*
X65851545Y-86085188D01*
X66182401Y-87171152D02*
X66182401Y-86416044D01*
X66053553Y-87300000D02*
X66182401Y-87171152D01*
X65700000Y-87300000D02*
X66053553Y-87300000D01*
X65450001Y-86397598D02*
X65700000Y-86647597D01*
X57702403Y-86397598D02*
X65450001Y-86397598D01*
X56200000Y-87900000D02*
X57702403Y-86397598D01*
X56417500Y-97687500D02*
X56900000Y-98170000D01*
X54900000Y-97687500D02*
X56417500Y-97687500D01*
X56417500Y-96112500D02*
X56900000Y-95630000D01*
X54900000Y-96112500D02*
X56417500Y-96112500D01*
D24*
X53300000Y-65400000D02*
X52000000Y-65400000D01*
X64700000Y-65400000D02*
X66000000Y-65400000D01*
D23*
X51210000Y-92150000D02*
X53560000Y-89800000D01*
X53560000Y-89800000D02*
X56100000Y-89800000D01*
X50400000Y-92150000D02*
X51210000Y-92150000D01*
X58500000Y-89800000D02*
X56100000Y-89800000D01*
X54010000Y-90600000D02*
X55600000Y-90600000D01*
X51210000Y-93400000D02*
X54010000Y-90600000D01*
X50400000Y-93400000D02*
X51210000Y-93400000D01*
X58500000Y-90600000D02*
X55600000Y-90600000D01*
X50650000Y-94650000D02*
X50400000Y-94650000D01*
X59469144Y-91355190D02*
X59331553Y-91217599D01*
X62387590Y-91355190D02*
X59469144Y-91355190D01*
X54082401Y-91217599D02*
X50650000Y-94650000D01*
X62832400Y-91800000D02*
X62387590Y-91355190D01*
X55217599Y-91217599D02*
X54482401Y-91217599D01*
X59331553Y-91217599D02*
X55217599Y-91217599D01*
X55217599Y-91217599D02*
X54082401Y-91217599D01*
X61767599Y-91667599D02*
X62600000Y-92500000D01*
X59132401Y-91667599D02*
X59100000Y-91700000D01*
X61767599Y-91667599D02*
X59132401Y-91667599D01*
X50616046Y-95900000D02*
X50400000Y-95900000D01*
X59067599Y-91667599D02*
X59100000Y-91700000D01*
X50650000Y-95900000D02*
X54882401Y-91667599D01*
X54882401Y-91667599D02*
X59067599Y-91667599D01*
X50400000Y-95900000D02*
X50650000Y-95900000D01*
D25*
X53300000Y-80375000D02*
X51600000Y-80375000D01*
X50725000Y-79500000D02*
X50725000Y-78700000D01*
X51600000Y-80375000D02*
X50725000Y-79500000D01*
D24*
X62600000Y-64200000D02*
X62200000Y-63800000D01*
X62600000Y-64800000D02*
X62600000Y-64200000D01*
X62600000Y-63100000D02*
X63000000Y-63500000D01*
X62600000Y-62500000D02*
X62600000Y-63100000D01*
X56200000Y-62500000D02*
X56300000Y-62400000D01*
X55400000Y-62500000D02*
X56200000Y-62500000D01*
X55400000Y-65900000D02*
X54700000Y-66600000D01*
X55400000Y-64800000D02*
X55400000Y-65900000D01*
D23*
X64700000Y-64150000D02*
X63800000Y-64150000D01*
X63500000Y-65418322D02*
X58700723Y-70217599D01*
X56468447Y-70217599D02*
X56217599Y-70468447D01*
X58700723Y-70217599D02*
X56468447Y-70217599D01*
X63800000Y-64150000D02*
X63500000Y-64450000D01*
X63500000Y-64450000D02*
X63500000Y-65418322D01*
X56217599Y-70468447D02*
X56217599Y-72417599D01*
X56217599Y-72417599D02*
X60597600Y-76797600D01*
X60600000Y-79404800D02*
X60597600Y-79402400D01*
X60600000Y-81050000D02*
X60600000Y-79404800D01*
X60597600Y-76797600D02*
X60597600Y-79402400D01*
X60048800Y-81951200D02*
X60597600Y-82500000D01*
X60048800Y-76690614D02*
X60048800Y-81951200D01*
X55879093Y-72520907D02*
X60048800Y-76690614D01*
X55879093Y-69729093D02*
X55879093Y-72520907D01*
X53300000Y-67150000D02*
X55879093Y-69729093D01*
X53300000Y-66650000D02*
X53300000Y-67150000D01*
X61686456Y-84862634D02*
X61310172Y-85238918D01*
X65512620Y-84862634D02*
X61686456Y-84862634D01*
X67200000Y-86550015D02*
X65512620Y-84862634D01*
X67200000Y-96600000D02*
X67200000Y-86550015D01*
X58500000Y-94200000D02*
X56700000Y-92400000D01*
X59200000Y-94200000D02*
X58500000Y-94200000D01*
X59200000Y-94600000D02*
X59000000Y-94800000D01*
X59200000Y-94200000D02*
X59200000Y-94600000D01*
X57730000Y-98515000D02*
X57730000Y-99000000D01*
X59687599Y-96557401D02*
X57730000Y-98515000D01*
X59687599Y-93812401D02*
X59800000Y-93700000D01*
X59687599Y-96557401D02*
X59687599Y-93812401D01*
X59500000Y-93700000D02*
X59800000Y-93700000D01*
X58200000Y-92400000D02*
X59500000Y-93700000D01*
X57600000Y-94800000D02*
X57730000Y-94800000D01*
X55200000Y-92400000D02*
X57600000Y-94800000D01*
X58400000Y-95470000D02*
X57730000Y-94800000D01*
X58400000Y-95600000D02*
X58400000Y-95470000D01*
X59666357Y-87267600D02*
X59511231Y-87267600D01*
X60199999Y-92899999D02*
X59700000Y-92400000D01*
X60282401Y-92982401D02*
X60199999Y-92899999D01*
X60282401Y-94302599D02*
X60282401Y-92982401D01*
X60270000Y-94315000D02*
X60282401Y-94302599D01*
X60270000Y-94800000D02*
X60270000Y-94315000D01*
X64100000Y-92200000D02*
X61500000Y-94800000D01*
X64100000Y-91600000D02*
X64100000Y-92200000D01*
X61500000Y-94800000D02*
X60270000Y-94800000D01*
X59511231Y-87267600D02*
X59511231Y-88711231D01*
X61100000Y-90300000D02*
X62800000Y-90300000D01*
X59511231Y-88711231D02*
X61100000Y-90300000D01*
X62800000Y-90300000D02*
X64100000Y-91600000D01*
X61782401Y-92982401D02*
X61699999Y-92899999D01*
X62831553Y-92982401D02*
X61782401Y-92982401D01*
X63314801Y-92499153D02*
X62831553Y-92982401D01*
X61699999Y-92899999D02*
X61200000Y-92400000D01*
X62619143Y-90872789D02*
X63314801Y-91568447D01*
X63314801Y-91568447D02*
X63314801Y-92499153D01*
X60300000Y-90872789D02*
X62619143Y-90872789D01*
X62901528Y-82201528D02*
X64500000Y-83800000D01*
X62901528Y-75517900D02*
X62901528Y-82201528D01*
X60700000Y-73316372D02*
X62901528Y-75517900D01*
X60700000Y-70700000D02*
X60700000Y-73316372D01*
X62400000Y-75458186D02*
X62400000Y-82400000D01*
X57641814Y-70700000D02*
X62400000Y-75458186D01*
X62400000Y-82400000D02*
X63800000Y-83800000D01*
X57400000Y-70700000D02*
X57641814Y-70700000D01*
X60270000Y-98515000D02*
X60270000Y-99000000D01*
X60027598Y-98272598D02*
X60270000Y-98515000D01*
X59000000Y-98272598D02*
X60027598Y-98272598D01*
X63768687Y-85772778D02*
X63340944Y-85345035D01*
X65980950Y-85772779D02*
X63768687Y-85772778D01*
X66582401Y-86374230D02*
X65980950Y-85772779D01*
X60270000Y-99000000D02*
X63900000Y-99000000D01*
X63900000Y-99000000D02*
X66582401Y-96317599D01*
X66582401Y-96317599D02*
X66582401Y-86374230D01*
X57182401Y-71182401D02*
X57682401Y-71182401D01*
X56700000Y-70700000D02*
X57182401Y-71182401D01*
X62300000Y-83446447D02*
X62300000Y-83800000D01*
X62087590Y-83234037D02*
X62300000Y-83446447D01*
X62087590Y-75587590D02*
X62087590Y-83234037D01*
X57682401Y-71182401D02*
X62087590Y-75587590D01*
D25*
X54200000Y-76625000D02*
X53300000Y-76625000D01*
X55302401Y-77727401D02*
X54200000Y-76625000D01*
X55302401Y-79772599D02*
X55302401Y-77727401D01*
X54600000Y-80475000D02*
X55302401Y-79772599D01*
X54600000Y-78275000D02*
X54200000Y-77875000D01*
X54200000Y-77875000D02*
X53300000Y-77875000D01*
X54600000Y-79100000D02*
X54600000Y-78275000D01*
D26*
G36*
X48628823Y-60451761D02*
G01*
X48570899Y-60560129D01*
X48535230Y-60677715D01*
X48523186Y-60800000D01*
X48523186Y-62400000D01*
X48535230Y-62522285D01*
X48570899Y-62639871D01*
X48628823Y-62748239D01*
X48706776Y-62843224D01*
X48801761Y-62921177D01*
X48910129Y-62979101D01*
X49027715Y-63014770D01*
X49150000Y-63026814D01*
X51650000Y-63026814D01*
X51772285Y-63014770D01*
X51889871Y-62979101D01*
X51998239Y-62921177D01*
X52093224Y-62843224D01*
X52171177Y-62748239D01*
X52229101Y-62639871D01*
X52264770Y-62522285D01*
X52276814Y-62400000D01*
X52276814Y-61950000D01*
X54473186Y-61950000D01*
X54473186Y-63050000D01*
X54480426Y-63123513D01*
X54501869Y-63194200D01*
X54536691Y-63259347D01*
X54583552Y-63316448D01*
X54640653Y-63363309D01*
X54705800Y-63398131D01*
X54776487Y-63419574D01*
X54850000Y-63426814D01*
X55950000Y-63426814D01*
X56023513Y-63419574D01*
X56094200Y-63398131D01*
X56159347Y-63363309D01*
X56216448Y-63316448D01*
X56263309Y-63259347D01*
X56298131Y-63194200D01*
X56319574Y-63123513D01*
X56324352Y-63075000D01*
X56366482Y-63075000D01*
X56492164Y-63050000D01*
X57273186Y-63050000D01*
X57280426Y-63123513D01*
X57301869Y-63194200D01*
X57336691Y-63259347D01*
X57383552Y-63316448D01*
X57440653Y-63363309D01*
X57505800Y-63398131D01*
X57576487Y-63419574D01*
X57650000Y-63426814D01*
X58081250Y-63425000D01*
X58175000Y-63331250D01*
X58175000Y-62525000D01*
X58225000Y-62525000D01*
X58225000Y-63331250D01*
X58318750Y-63425000D01*
X58750000Y-63426814D01*
X58823513Y-63419574D01*
X58894200Y-63398131D01*
X58959347Y-63363309D01*
X59000000Y-63329946D01*
X59040653Y-63363309D01*
X59105800Y-63398131D01*
X59176487Y-63419574D01*
X59250000Y-63426814D01*
X59681250Y-63425000D01*
X59775000Y-63331250D01*
X59775000Y-62525000D01*
X59825000Y-62525000D01*
X59825000Y-63331250D01*
X59918750Y-63425000D01*
X60350000Y-63426814D01*
X60423513Y-63419574D01*
X60494200Y-63398131D01*
X60559347Y-63363309D01*
X60616448Y-63316448D01*
X60663309Y-63259347D01*
X60698131Y-63194200D01*
X60719574Y-63123513D01*
X60726814Y-63050000D01*
X60725000Y-62618750D01*
X60631250Y-62525000D01*
X59825000Y-62525000D01*
X59775000Y-62525000D01*
X58225000Y-62525000D01*
X58175000Y-62525000D01*
X57368750Y-62525000D01*
X57275000Y-62618750D01*
X57273186Y-63050000D01*
X56492164Y-63050000D01*
X56496890Y-63049060D01*
X56619732Y-62998177D01*
X56730287Y-62924307D01*
X56824307Y-62830287D01*
X56898177Y-62719732D01*
X56949060Y-62596890D01*
X56975000Y-62466482D01*
X56975000Y-62333518D01*
X56949060Y-62203110D01*
X56898177Y-62080268D01*
X56824307Y-61969713D01*
X56804594Y-61950000D01*
X57273186Y-61950000D01*
X57275000Y-62381250D01*
X57368750Y-62475000D01*
X58175000Y-62475000D01*
X58175000Y-61668750D01*
X58225000Y-61668750D01*
X58225000Y-62475000D01*
X59775000Y-62475000D01*
X59775000Y-61668750D01*
X59825000Y-61668750D01*
X59825000Y-62475000D01*
X60631250Y-62475000D01*
X60725000Y-62381250D01*
X60726814Y-61950000D01*
X60719574Y-61876487D01*
X60698131Y-61805800D01*
X60663309Y-61740653D01*
X60616448Y-61683552D01*
X60559347Y-61636691D01*
X60494200Y-61601869D01*
X60423513Y-61580426D01*
X60350000Y-61573186D01*
X59918750Y-61575000D01*
X59825000Y-61668750D01*
X59775000Y-61668750D01*
X59681250Y-61575000D01*
X59250000Y-61573186D01*
X59176487Y-61580426D01*
X59105800Y-61601869D01*
X59040653Y-61636691D01*
X59000000Y-61670054D01*
X58959347Y-61636691D01*
X58894200Y-61601869D01*
X58823513Y-61580426D01*
X58750000Y-61573186D01*
X58318750Y-61575000D01*
X58225000Y-61668750D01*
X58175000Y-61668750D01*
X58081250Y-61575000D01*
X57650000Y-61573186D01*
X57576487Y-61580426D01*
X57505800Y-61601869D01*
X57440653Y-61636691D01*
X57383552Y-61683552D01*
X57336691Y-61740653D01*
X57301869Y-61805800D01*
X57280426Y-61876487D01*
X57273186Y-61950000D01*
X56804594Y-61950000D01*
X56730287Y-61875693D01*
X56619732Y-61801823D01*
X56496890Y-61750940D01*
X56366482Y-61725000D01*
X56250463Y-61725000D01*
X56216448Y-61683552D01*
X56159347Y-61636691D01*
X56094200Y-61601869D01*
X56023513Y-61580426D01*
X55950000Y-61573186D01*
X54850000Y-61573186D01*
X54776487Y-61580426D01*
X54705800Y-61601869D01*
X54640653Y-61636691D01*
X54583552Y-61683552D01*
X54536691Y-61740653D01*
X54501869Y-61805800D01*
X54480426Y-61876487D01*
X54473186Y-61950000D01*
X52276814Y-61950000D01*
X52276814Y-61138443D01*
X52575000Y-61138443D01*
X52575000Y-61261557D01*
X52599019Y-61382306D01*
X52646132Y-61496048D01*
X52714531Y-61598414D01*
X52801586Y-61685469D01*
X52903952Y-61753868D01*
X53017694Y-61800981D01*
X53138443Y-61825000D01*
X53261557Y-61825000D01*
X53382306Y-61800981D01*
X53496048Y-61753868D01*
X53598414Y-61685469D01*
X53685469Y-61598414D01*
X53753868Y-61496048D01*
X53800981Y-61382306D01*
X53825000Y-61261557D01*
X53825000Y-61138443D01*
X53800981Y-61017694D01*
X53753868Y-60903952D01*
X53685469Y-60801586D01*
X53598414Y-60714531D01*
X53496048Y-60646132D01*
X53382306Y-60599019D01*
X53261557Y-60575000D01*
X53138443Y-60575000D01*
X53017694Y-60599019D01*
X52903952Y-60646132D01*
X52801586Y-60714531D01*
X52714531Y-60801586D01*
X52646132Y-60903952D01*
X52599019Y-61017694D01*
X52575000Y-61138443D01*
X52276814Y-61138443D01*
X52276814Y-60800000D01*
X52264770Y-60677715D01*
X52229101Y-60560129D01*
X52171177Y-60451761D01*
X52149215Y-60425000D01*
X65850785Y-60425000D01*
X65828823Y-60451761D01*
X65770899Y-60560129D01*
X65735230Y-60677715D01*
X65723186Y-60800000D01*
X65723186Y-62400000D01*
X65735230Y-62522285D01*
X65770899Y-62639871D01*
X65828823Y-62748239D01*
X65906776Y-62843224D01*
X66001761Y-62921177D01*
X66110129Y-62979101D01*
X66227715Y-63014770D01*
X66350000Y-63026814D01*
X68850000Y-63026814D01*
X68972285Y-63014770D01*
X69089871Y-62979101D01*
X69198239Y-62921177D01*
X69293224Y-62843224D01*
X69371177Y-62748239D01*
X69429101Y-62639871D01*
X69464770Y-62522285D01*
X69476814Y-62400000D01*
X69476814Y-60800000D01*
X69464770Y-60677715D01*
X69429101Y-60560129D01*
X69371177Y-60451761D01*
X69349215Y-60425000D01*
X69575001Y-60425000D01*
X69575000Y-98691117D01*
X69498414Y-98614531D01*
X69396048Y-98546132D01*
X69282306Y-98499019D01*
X69161557Y-98475000D01*
X69038443Y-98475000D01*
X68917694Y-98499019D01*
X68803952Y-98546132D01*
X68701586Y-98614531D01*
X68614531Y-98701586D01*
X68546132Y-98803952D01*
X68499019Y-98917694D01*
X68475000Y-99038443D01*
X68475000Y-99161557D01*
X68499019Y-99282306D01*
X68546132Y-99396048D01*
X68614531Y-99498414D01*
X68691117Y-99575000D01*
X60899946Y-99575000D01*
X60933309Y-99534347D01*
X60968131Y-99469200D01*
X60972439Y-99455000D01*
X63877653Y-99455000D01*
X63900000Y-99457201D01*
X63989195Y-99448416D01*
X64074963Y-99422399D01*
X64154007Y-99380149D01*
X64223290Y-99323290D01*
X64237541Y-99305925D01*
X66646647Y-96896819D01*
X66714531Y-96998414D01*
X66801586Y-97085469D01*
X66903952Y-97153868D01*
X67017694Y-97200981D01*
X67138443Y-97225000D01*
X67261557Y-97225000D01*
X67382306Y-97200981D01*
X67496048Y-97153868D01*
X67598414Y-97085469D01*
X67685469Y-96998414D01*
X67753868Y-96896048D01*
X67800981Y-96782306D01*
X67825000Y-96661557D01*
X67825000Y-96538443D01*
X67800981Y-96417694D01*
X67753868Y-96303952D01*
X67685469Y-96201586D01*
X67655000Y-96171117D01*
X67655000Y-86572351D01*
X67657200Y-86550014D01*
X67655000Y-86527677D01*
X67655000Y-86527668D01*
X67648416Y-86460820D01*
X67622399Y-86375052D01*
X67580149Y-86296008D01*
X67539103Y-86245993D01*
X67537535Y-86244082D01*
X67537532Y-86244079D01*
X67523290Y-86226725D01*
X67505936Y-86212483D01*
X65850161Y-84556709D01*
X65835910Y-84539344D01*
X65766627Y-84482485D01*
X65687583Y-84440235D01*
X65601815Y-84414218D01*
X65534967Y-84407634D01*
X65534964Y-84407634D01*
X65512620Y-84405433D01*
X65490273Y-84407634D01*
X64648860Y-84407634D01*
X64682306Y-84400981D01*
X64796048Y-84353868D01*
X64898414Y-84285469D01*
X64985469Y-84198414D01*
X65053868Y-84096048D01*
X65100981Y-83982306D01*
X65125000Y-83861557D01*
X65125000Y-83738443D01*
X65124021Y-83733518D01*
X66525000Y-83733518D01*
X66525000Y-83866482D01*
X66550940Y-83996890D01*
X66601823Y-84119732D01*
X66675693Y-84230287D01*
X66769713Y-84324307D01*
X66880268Y-84398177D01*
X67003110Y-84449060D01*
X67133518Y-84475000D01*
X67266482Y-84475000D01*
X67396890Y-84449060D01*
X67519732Y-84398177D01*
X67630287Y-84324307D01*
X67724307Y-84230287D01*
X67798177Y-84119732D01*
X67849060Y-83996890D01*
X67875000Y-83866482D01*
X67875000Y-83733518D01*
X67849060Y-83603110D01*
X67798177Y-83480268D01*
X67724307Y-83369713D01*
X67630287Y-83275693D01*
X67519732Y-83201823D01*
X67396890Y-83150940D01*
X67266482Y-83125000D01*
X67133518Y-83125000D01*
X67003110Y-83150940D01*
X66880268Y-83201823D01*
X66769713Y-83275693D01*
X66675693Y-83369713D01*
X66601823Y-83480268D01*
X66550940Y-83603110D01*
X66525000Y-83733518D01*
X65124021Y-83733518D01*
X65100981Y-83617694D01*
X65053868Y-83503952D01*
X64985469Y-83401586D01*
X64898414Y-83314531D01*
X64796048Y-83246132D01*
X64682306Y-83199019D01*
X64561557Y-83175000D01*
X64518467Y-83175000D01*
X64370281Y-83026814D01*
X65450000Y-83026814D01*
X65523513Y-83019574D01*
X65594200Y-82998131D01*
X65659347Y-82963309D01*
X65716448Y-82916448D01*
X65763309Y-82859347D01*
X65798131Y-82794200D01*
X65819574Y-82723513D01*
X65826814Y-82650000D01*
X65826814Y-80950000D01*
X66973186Y-80950000D01*
X66973186Y-82650000D01*
X66980426Y-82723513D01*
X67001869Y-82794200D01*
X67036691Y-82859347D01*
X67083552Y-82916448D01*
X67140653Y-82963309D01*
X67205800Y-82998131D01*
X67276487Y-83019574D01*
X67350000Y-83026814D01*
X69050000Y-83026814D01*
X69123513Y-83019574D01*
X69194200Y-82998131D01*
X69259347Y-82963309D01*
X69316448Y-82916448D01*
X69363309Y-82859347D01*
X69398131Y-82794200D01*
X69419574Y-82723513D01*
X69426814Y-82650000D01*
X69426814Y-80950000D01*
X69419574Y-80876487D01*
X69398131Y-80805800D01*
X69363309Y-80740653D01*
X69316448Y-80683552D01*
X69259347Y-80636691D01*
X69194200Y-80601869D01*
X69123513Y-80580426D01*
X69050000Y-80573186D01*
X67350000Y-80573186D01*
X67276487Y-80580426D01*
X67205800Y-80601869D01*
X67140653Y-80636691D01*
X67083552Y-80683552D01*
X67036691Y-80740653D01*
X67001869Y-80805800D01*
X66980426Y-80876487D01*
X66973186Y-80950000D01*
X65826814Y-80950000D01*
X65819574Y-80876487D01*
X65798131Y-80805800D01*
X65763309Y-80740653D01*
X65716448Y-80683552D01*
X65659347Y-80636691D01*
X65594200Y-80601869D01*
X65523513Y-80580426D01*
X65450000Y-80573186D01*
X63750000Y-80573186D01*
X63676487Y-80580426D01*
X63605800Y-80601869D01*
X63540653Y-80636691D01*
X63483552Y-80683552D01*
X63436691Y-80740653D01*
X63401869Y-80805800D01*
X63380426Y-80876487D01*
X63373186Y-80950000D01*
X63373186Y-82029720D01*
X63356528Y-82013062D01*
X63356528Y-79476285D01*
X63394245Y-79476285D01*
X63403259Y-79521602D01*
X63477290Y-79750048D01*
X63594466Y-79959662D01*
X63750284Y-80142388D01*
X63938756Y-80291205D01*
X64152640Y-80400393D01*
X64383715Y-80465756D01*
X64575000Y-80390996D01*
X64575000Y-79285000D01*
X64625000Y-79285000D01*
X64625000Y-80390996D01*
X64816285Y-80465756D01*
X65047360Y-80400393D01*
X65261244Y-80291205D01*
X65449716Y-80142388D01*
X65605534Y-79959662D01*
X65722710Y-79750048D01*
X65796741Y-79521602D01*
X65805755Y-79476285D01*
X66994245Y-79476285D01*
X67003259Y-79521602D01*
X67077290Y-79750048D01*
X67194466Y-79959662D01*
X67350284Y-80142388D01*
X67538756Y-80291205D01*
X67752640Y-80400393D01*
X67983715Y-80465756D01*
X68175000Y-80390996D01*
X68175000Y-79285000D01*
X68225000Y-79285000D01*
X68225000Y-80390996D01*
X68416285Y-80465756D01*
X68647360Y-80400393D01*
X68861244Y-80291205D01*
X69049716Y-80142388D01*
X69205534Y-79959662D01*
X69322710Y-79750048D01*
X69396741Y-79521602D01*
X69405755Y-79476285D01*
X69330974Y-79285000D01*
X68225000Y-79285000D01*
X68175000Y-79285000D01*
X67069026Y-79285000D01*
X66994245Y-79476285D01*
X65805755Y-79476285D01*
X65730974Y-79285000D01*
X64625000Y-79285000D01*
X64575000Y-79285000D01*
X63469026Y-79285000D01*
X63394245Y-79476285D01*
X63356528Y-79476285D01*
X63356528Y-79043715D01*
X63394245Y-79043715D01*
X63469026Y-79235000D01*
X64575000Y-79235000D01*
X64575000Y-78129004D01*
X64625000Y-78129004D01*
X64625000Y-79235000D01*
X65730974Y-79235000D01*
X65805755Y-79043715D01*
X66994245Y-79043715D01*
X67069026Y-79235000D01*
X68175000Y-79235000D01*
X68175000Y-78129004D01*
X68225000Y-78129004D01*
X68225000Y-79235000D01*
X69330974Y-79235000D01*
X69405755Y-79043715D01*
X69396741Y-78998398D01*
X69322710Y-78769952D01*
X69205534Y-78560338D01*
X69049716Y-78377612D01*
X68861244Y-78228795D01*
X68647360Y-78119607D01*
X68416285Y-78054244D01*
X68225000Y-78129004D01*
X68175000Y-78129004D01*
X67983715Y-78054244D01*
X67752640Y-78119607D01*
X67538756Y-78228795D01*
X67350284Y-78377612D01*
X67194466Y-78560338D01*
X67077290Y-78769952D01*
X67003259Y-78998398D01*
X66994245Y-79043715D01*
X65805755Y-79043715D01*
X65796741Y-78998398D01*
X65722710Y-78769952D01*
X65605534Y-78560338D01*
X65449716Y-78377612D01*
X65261244Y-78228795D01*
X65047360Y-78119607D01*
X64816285Y-78054244D01*
X64625000Y-78129004D01*
X64575000Y-78129004D01*
X64383715Y-78054244D01*
X64152640Y-78119607D01*
X63938756Y-78228795D01*
X63750284Y-78377612D01*
X63594466Y-78560338D01*
X63477290Y-78769952D01*
X63403259Y-78998398D01*
X63394245Y-79043715D01*
X63356528Y-79043715D01*
X63356528Y-76720000D01*
X63369073Y-76720000D01*
X63392725Y-76960142D01*
X63462772Y-77191055D01*
X63576522Y-77403866D01*
X63729603Y-77590397D01*
X63916134Y-77743478D01*
X64128945Y-77857228D01*
X64359858Y-77927275D01*
X64539822Y-77945000D01*
X64660178Y-77945000D01*
X64840142Y-77927275D01*
X65071055Y-77857228D01*
X65283866Y-77743478D01*
X65470397Y-77590397D01*
X65623478Y-77403866D01*
X65737228Y-77191055D01*
X65807275Y-76960142D01*
X65830927Y-76720000D01*
X65807275Y-76479858D01*
X65737228Y-76248945D01*
X65623478Y-76036134D01*
X65470397Y-75849603D01*
X65283866Y-75696522D01*
X65071055Y-75582772D01*
X64840142Y-75512725D01*
X64660178Y-75495000D01*
X64539822Y-75495000D01*
X64359858Y-75512725D01*
X64128945Y-75582772D01*
X63916134Y-75696522D01*
X63729603Y-75849603D01*
X63576522Y-76036134D01*
X63462772Y-76248945D01*
X63392725Y-76479858D01*
X63369073Y-76720000D01*
X63356528Y-76720000D01*
X63356528Y-75540247D01*
X63358729Y-75517900D01*
X63349944Y-75428704D01*
X63340077Y-75396177D01*
X63323927Y-75342937D01*
X63281677Y-75263893D01*
X63224818Y-75194610D01*
X63207459Y-75180364D01*
X61160613Y-73133518D01*
X64525000Y-73133518D01*
X64525000Y-73266482D01*
X64550940Y-73396890D01*
X64601823Y-73519732D01*
X64675693Y-73630287D01*
X64769713Y-73724307D01*
X64880268Y-73798177D01*
X65003110Y-73849060D01*
X65133518Y-73875000D01*
X65266482Y-73875000D01*
X65396890Y-73849060D01*
X65519732Y-73798177D01*
X65630287Y-73724307D01*
X65724307Y-73630287D01*
X65798177Y-73519732D01*
X65849060Y-73396890D01*
X65875000Y-73266482D01*
X65875000Y-73133518D01*
X65849060Y-73003110D01*
X65798177Y-72880268D01*
X65724307Y-72769713D01*
X65630287Y-72675693D01*
X65519732Y-72601823D01*
X65396890Y-72550940D01*
X65266482Y-72525000D01*
X65133518Y-72525000D01*
X65003110Y-72550940D01*
X64880268Y-72601823D01*
X64769713Y-72675693D01*
X64675693Y-72769713D01*
X64601823Y-72880268D01*
X64550940Y-73003110D01*
X64525000Y-73133518D01*
X61160613Y-73133518D01*
X61155000Y-73127906D01*
X61155000Y-71128883D01*
X61185469Y-71098414D01*
X61253868Y-70996048D01*
X61300981Y-70882306D01*
X61325000Y-70761557D01*
X61325000Y-70638443D01*
X61300981Y-70517694D01*
X61253868Y-70403952D01*
X61185469Y-70301586D01*
X61098414Y-70214531D01*
X60996048Y-70146132D01*
X60882306Y-70099019D01*
X60761557Y-70075000D01*
X60638443Y-70075000D01*
X60517694Y-70099019D01*
X60403952Y-70146132D01*
X60301586Y-70214531D01*
X60214531Y-70301586D01*
X60146132Y-70403952D01*
X60099019Y-70517694D01*
X60075000Y-70638443D01*
X60075000Y-70761557D01*
X60099019Y-70882306D01*
X60146132Y-70996048D01*
X60214531Y-71098414D01*
X60245000Y-71128883D01*
X60245001Y-72659720D01*
X58257879Y-70672599D01*
X58678376Y-70672599D01*
X58700723Y-70674800D01*
X58789918Y-70666015D01*
X58875686Y-70639998D01*
X58954730Y-70597748D01*
X59024013Y-70540889D01*
X59038264Y-70523524D01*
X61161788Y-68400000D01*
X65723186Y-68400000D01*
X65723186Y-70000000D01*
X65735230Y-70122285D01*
X65770899Y-70239871D01*
X65828823Y-70348239D01*
X65906776Y-70443224D01*
X66001761Y-70521177D01*
X66110129Y-70579101D01*
X66227715Y-70614770D01*
X66350000Y-70626814D01*
X68850000Y-70626814D01*
X68972285Y-70614770D01*
X69089871Y-70579101D01*
X69198239Y-70521177D01*
X69293224Y-70443224D01*
X69371177Y-70348239D01*
X69429101Y-70239871D01*
X69464770Y-70122285D01*
X69476814Y-70000000D01*
X69476814Y-68400000D01*
X69464770Y-68277715D01*
X69429101Y-68160129D01*
X69371177Y-68051761D01*
X69293224Y-67956776D01*
X69198239Y-67878823D01*
X69089871Y-67820899D01*
X68972285Y-67785230D01*
X68850000Y-67773186D01*
X66350000Y-67773186D01*
X66227715Y-67785230D01*
X66110129Y-67820899D01*
X66001761Y-67878823D01*
X65906776Y-67956776D01*
X65828823Y-68051761D01*
X65770899Y-68160129D01*
X65735230Y-68277715D01*
X65723186Y-68400000D01*
X61161788Y-68400000D01*
X62511788Y-67050000D01*
X63523186Y-67050000D01*
X63530426Y-67123513D01*
X63551869Y-67194200D01*
X63586691Y-67259347D01*
X63633552Y-67316448D01*
X63690653Y-67363309D01*
X63755800Y-67398131D01*
X63826487Y-67419574D01*
X63900000Y-67426814D01*
X64581250Y-67425000D01*
X64675000Y-67331250D01*
X64675000Y-66675000D01*
X64725000Y-66675000D01*
X64725000Y-67331250D01*
X64818750Y-67425000D01*
X65500000Y-67426814D01*
X65573513Y-67419574D01*
X65644200Y-67398131D01*
X65709347Y-67363309D01*
X65766448Y-67316448D01*
X65813309Y-67259347D01*
X65848131Y-67194200D01*
X65869574Y-67123513D01*
X65876814Y-67050000D01*
X65875000Y-66768750D01*
X65781250Y-66675000D01*
X64725000Y-66675000D01*
X64675000Y-66675000D01*
X63618750Y-66675000D01*
X63525000Y-66768750D01*
X63523186Y-67050000D01*
X62511788Y-67050000D01*
X63629832Y-65931957D01*
X63656631Y-65964612D01*
X63633552Y-65983552D01*
X63586691Y-66040653D01*
X63551869Y-66105800D01*
X63530426Y-66176487D01*
X63523186Y-66250000D01*
X63525000Y-66531250D01*
X63618750Y-66625000D01*
X64675000Y-66625000D01*
X64675000Y-66605000D01*
X64725000Y-66605000D01*
X64725000Y-66625000D01*
X65781250Y-66625000D01*
X65875000Y-66531250D01*
X65876814Y-66250000D01*
X65869574Y-66176487D01*
X65848131Y-66105800D01*
X65819551Y-66052330D01*
X65933518Y-66075000D01*
X66066482Y-66075000D01*
X66196890Y-66049060D01*
X66319732Y-65998177D01*
X66430287Y-65924307D01*
X66524307Y-65830287D01*
X66598177Y-65719732D01*
X66649060Y-65596890D01*
X66675000Y-65466482D01*
X66675000Y-65333518D01*
X66649060Y-65203110D01*
X66598177Y-65080268D01*
X66524307Y-64969713D01*
X66430287Y-64875693D01*
X66319732Y-64801823D01*
X66196890Y-64750940D01*
X66066482Y-64725000D01*
X65933518Y-64725000D01*
X65803110Y-64750940D01*
X65706459Y-64790974D01*
X65686995Y-64775000D01*
X65707869Y-64757869D01*
X65779603Y-64670461D01*
X65832907Y-64570737D01*
X65865731Y-64462531D01*
X65876814Y-64350000D01*
X65876814Y-63950000D01*
X65865731Y-63837469D01*
X65832907Y-63729263D01*
X65779603Y-63629539D01*
X65707869Y-63542131D01*
X65620461Y-63470397D01*
X65520737Y-63417093D01*
X65412531Y-63384269D01*
X65300000Y-63373186D01*
X64100000Y-63373186D01*
X63987469Y-63384269D01*
X63879263Y-63417093D01*
X63779539Y-63470397D01*
X63692131Y-63542131D01*
X63675000Y-63563005D01*
X63675000Y-63433518D01*
X63649060Y-63303110D01*
X63598177Y-63180268D01*
X63524800Y-63070451D01*
X63526814Y-63050000D01*
X63526814Y-61950000D01*
X63519574Y-61876487D01*
X63498131Y-61805800D01*
X63463309Y-61740653D01*
X63416448Y-61683552D01*
X63359347Y-61636691D01*
X63294200Y-61601869D01*
X63223513Y-61580426D01*
X63150000Y-61573186D01*
X62050000Y-61573186D01*
X61976487Y-61580426D01*
X61905800Y-61601869D01*
X61840653Y-61636691D01*
X61783552Y-61683552D01*
X61736691Y-61740653D01*
X61701869Y-61805800D01*
X61680426Y-61876487D01*
X61673186Y-61950000D01*
X61673186Y-63050000D01*
X61680426Y-63123513D01*
X61701869Y-63194200D01*
X61736691Y-63259347D01*
X61758944Y-63286462D01*
X61675693Y-63369713D01*
X61601823Y-63480268D01*
X61550940Y-63603110D01*
X61525000Y-63733518D01*
X61525000Y-63866482D01*
X61550940Y-63996890D01*
X61601823Y-64119732D01*
X61675200Y-64229549D01*
X61673186Y-64250000D01*
X61673186Y-65350000D01*
X61680426Y-65423513D01*
X61701869Y-65494200D01*
X61736691Y-65559347D01*
X61783552Y-65616448D01*
X61840653Y-65663309D01*
X61905800Y-65698131D01*
X61976487Y-65719574D01*
X62050000Y-65726814D01*
X62548041Y-65726814D01*
X58512257Y-69762599D01*
X56490794Y-69762599D01*
X56468447Y-69760398D01*
X56379251Y-69769183D01*
X56353234Y-69777075D01*
X56334093Y-69782882D01*
X56334093Y-69751429D01*
X56336293Y-69729092D01*
X56334093Y-69706755D01*
X56334093Y-69706746D01*
X56327509Y-69639898D01*
X56301492Y-69554130D01*
X56259242Y-69475086D01*
X56248000Y-69461387D01*
X56216628Y-69423160D01*
X56216625Y-69423157D01*
X56202383Y-69405803D01*
X56185030Y-69391562D01*
X54156994Y-67363527D01*
X54220461Y-67329603D01*
X54307869Y-67257869D01*
X54365148Y-67188074D01*
X54380268Y-67198177D01*
X54503110Y-67249060D01*
X54633518Y-67275000D01*
X54766482Y-67275000D01*
X54896890Y-67249060D01*
X55019732Y-67198177D01*
X55130287Y-67124307D01*
X55224307Y-67030287D01*
X55298177Y-66919732D01*
X55349060Y-66796890D01*
X55357199Y-66755973D01*
X55786606Y-66326566D01*
X55808554Y-66308554D01*
X55880408Y-66220998D01*
X55933801Y-66121108D01*
X55966680Y-66012720D01*
X55975000Y-65928246D01*
X55975000Y-65928244D01*
X55977782Y-65900001D01*
X55975000Y-65871758D01*
X55975000Y-65724352D01*
X56023513Y-65719574D01*
X56094200Y-65698131D01*
X56159347Y-65663309D01*
X56216448Y-65616448D01*
X56263309Y-65559347D01*
X56298131Y-65494200D01*
X56319574Y-65423513D01*
X56326814Y-65350000D01*
X57273186Y-65350000D01*
X57280426Y-65423513D01*
X57301869Y-65494200D01*
X57336691Y-65559347D01*
X57383552Y-65616448D01*
X57440653Y-65663309D01*
X57505800Y-65698131D01*
X57576487Y-65719574D01*
X57650000Y-65726814D01*
X58081250Y-65725000D01*
X58175000Y-65631250D01*
X58175000Y-64825000D01*
X58225000Y-64825000D01*
X58225000Y-65631250D01*
X58318750Y-65725000D01*
X58750000Y-65726814D01*
X58823513Y-65719574D01*
X58894200Y-65698131D01*
X58959347Y-65663309D01*
X59000000Y-65629946D01*
X59040653Y-65663309D01*
X59105800Y-65698131D01*
X59176487Y-65719574D01*
X59250000Y-65726814D01*
X59681250Y-65725000D01*
X59775000Y-65631250D01*
X59775000Y-64825000D01*
X59825000Y-64825000D01*
X59825000Y-65631250D01*
X59918750Y-65725000D01*
X60350000Y-65726814D01*
X60423513Y-65719574D01*
X60494200Y-65698131D01*
X60559347Y-65663309D01*
X60616448Y-65616448D01*
X60663309Y-65559347D01*
X60698131Y-65494200D01*
X60719574Y-65423513D01*
X60726814Y-65350000D01*
X60725000Y-64918750D01*
X60631250Y-64825000D01*
X59825000Y-64825000D01*
X59775000Y-64825000D01*
X58225000Y-64825000D01*
X58175000Y-64825000D01*
X57368750Y-64825000D01*
X57275000Y-64918750D01*
X57273186Y-65350000D01*
X56326814Y-65350000D01*
X56326814Y-64250000D01*
X57273186Y-64250000D01*
X57275000Y-64681250D01*
X57368750Y-64775000D01*
X58175000Y-64775000D01*
X58175000Y-63968750D01*
X58225000Y-63968750D01*
X58225000Y-64775000D01*
X59775000Y-64775000D01*
X59775000Y-63968750D01*
X59825000Y-63968750D01*
X59825000Y-64775000D01*
X60631250Y-64775000D01*
X60725000Y-64681250D01*
X60726814Y-64250000D01*
X60719574Y-64176487D01*
X60698131Y-64105800D01*
X60663309Y-64040653D01*
X60616448Y-63983552D01*
X60559347Y-63936691D01*
X60494200Y-63901869D01*
X60423513Y-63880426D01*
X60350000Y-63873186D01*
X59918750Y-63875000D01*
X59825000Y-63968750D01*
X59775000Y-63968750D01*
X59681250Y-63875000D01*
X59250000Y-63873186D01*
X59176487Y-63880426D01*
X59105800Y-63901869D01*
X59040653Y-63936691D01*
X59000000Y-63970054D01*
X58959347Y-63936691D01*
X58894200Y-63901869D01*
X58823513Y-63880426D01*
X58750000Y-63873186D01*
X58318750Y-63875000D01*
X58225000Y-63968750D01*
X58175000Y-63968750D01*
X58081250Y-63875000D01*
X57650000Y-63873186D01*
X57576487Y-63880426D01*
X57505800Y-63901869D01*
X57440653Y-63936691D01*
X57383552Y-63983552D01*
X57336691Y-64040653D01*
X57301869Y-64105800D01*
X57280426Y-64176487D01*
X57273186Y-64250000D01*
X56326814Y-64250000D01*
X56319574Y-64176487D01*
X56298131Y-64105800D01*
X56263309Y-64040653D01*
X56216448Y-63983552D01*
X56159347Y-63936691D01*
X56094200Y-63901869D01*
X56023513Y-63880426D01*
X55950000Y-63873186D01*
X54850000Y-63873186D01*
X54776487Y-63880426D01*
X54705800Y-63901869D01*
X54640653Y-63936691D01*
X54583552Y-63983552D01*
X54536691Y-64040653D01*
X54501869Y-64105800D01*
X54480426Y-64176487D01*
X54473186Y-64250000D01*
X54473186Y-64266936D01*
X54381250Y-64175000D01*
X53325000Y-64175000D01*
X53325000Y-64195000D01*
X53275000Y-64195000D01*
X53275000Y-64175000D01*
X52218750Y-64175000D01*
X52125000Y-64268750D01*
X52123186Y-64550000D01*
X52130426Y-64623513D01*
X52151869Y-64694200D01*
X52180449Y-64747670D01*
X52066482Y-64725000D01*
X51933518Y-64725000D01*
X51803110Y-64750940D01*
X51680268Y-64801823D01*
X51569713Y-64875693D01*
X51475693Y-64969713D01*
X51401823Y-65080268D01*
X51350940Y-65203110D01*
X51325000Y-65333518D01*
X51325000Y-65466482D01*
X51350940Y-65596890D01*
X51401823Y-65719732D01*
X51475693Y-65830287D01*
X51569713Y-65924307D01*
X51680268Y-65998177D01*
X51803110Y-66049060D01*
X51933518Y-66075000D01*
X52066482Y-66075000D01*
X52196890Y-66049060D01*
X52293541Y-66009026D01*
X52313005Y-66025000D01*
X52292131Y-66042131D01*
X52220397Y-66129539D01*
X52167093Y-66229263D01*
X52134269Y-66337469D01*
X52123186Y-66450000D01*
X52123186Y-66850000D01*
X52134269Y-66962531D01*
X52167093Y-67070737D01*
X52220397Y-67170461D01*
X52292131Y-67257869D01*
X52379539Y-67329603D01*
X52479263Y-67382907D01*
X52587469Y-67415731D01*
X52700000Y-67426814D01*
X52938569Y-67426814D01*
X52976711Y-67473290D01*
X52994071Y-67487537D01*
X55424093Y-69917561D01*
X55424094Y-72498550D01*
X55421892Y-72520907D01*
X55430677Y-72610102D01*
X55450574Y-72675693D01*
X55456695Y-72695870D01*
X55498945Y-72774914D01*
X55555804Y-72844197D01*
X55573164Y-72858444D01*
X59593800Y-76879082D01*
X59593801Y-81928843D01*
X59591599Y-81951200D01*
X59600384Y-82040395D01*
X59622207Y-82112333D01*
X59626402Y-82126163D01*
X59668652Y-82205207D01*
X59725511Y-82274490D01*
X59742870Y-82288736D01*
X59972600Y-82518467D01*
X59972600Y-82561557D01*
X59996619Y-82682306D01*
X60043732Y-82796048D01*
X60112131Y-82898414D01*
X60199186Y-82985469D01*
X60301552Y-83053868D01*
X60415294Y-83100981D01*
X60536043Y-83125000D01*
X60659157Y-83125000D01*
X60779906Y-83100981D01*
X60893648Y-83053868D01*
X60996014Y-82985469D01*
X61083069Y-82898414D01*
X61151468Y-82796048D01*
X61198581Y-82682306D01*
X61222600Y-82561557D01*
X61222600Y-82438443D01*
X61198581Y-82317694D01*
X61151468Y-82203952D01*
X61083069Y-82101586D01*
X60996014Y-82014531D01*
X60893648Y-81946132D01*
X60779906Y-81899019D01*
X60659157Y-81875000D01*
X60616067Y-81875000D01*
X60503800Y-81762733D01*
X60503800Y-81668109D01*
X60538443Y-81675000D01*
X60661557Y-81675000D01*
X60782306Y-81650981D01*
X60896048Y-81603868D01*
X60998414Y-81535469D01*
X61085469Y-81448414D01*
X61153868Y-81346048D01*
X61200981Y-81232306D01*
X61225000Y-81111557D01*
X61225000Y-80988443D01*
X61200981Y-80867694D01*
X61156217Y-80759624D01*
X61233518Y-80775000D01*
X61366482Y-80775000D01*
X61496890Y-80749060D01*
X61619732Y-80698177D01*
X61632591Y-80689585D01*
X61632591Y-83211680D01*
X61630389Y-83234037D01*
X61639174Y-83323232D01*
X61662943Y-83401586D01*
X61665192Y-83409000D01*
X61707442Y-83488044D01*
X61737534Y-83524711D01*
X61699019Y-83617694D01*
X61675000Y-83738443D01*
X61675000Y-83861557D01*
X61699019Y-83982306D01*
X61746132Y-84096048D01*
X61814531Y-84198414D01*
X61901586Y-84285469D01*
X62003952Y-84353868D01*
X62117694Y-84400981D01*
X62151140Y-84407634D01*
X61708803Y-84407634D01*
X61686456Y-84405433D01*
X61597260Y-84414218D01*
X61571243Y-84422110D01*
X61511493Y-84440235D01*
X61432449Y-84482485D01*
X61363166Y-84539344D01*
X61348919Y-84556704D01*
X61291705Y-84613918D01*
X61248615Y-84613918D01*
X61127866Y-84637937D01*
X61014124Y-84685050D01*
X60911758Y-84753449D01*
X60824703Y-84840504D01*
X60756304Y-84942870D01*
X60709191Y-85056612D01*
X60685172Y-85177361D01*
X60685172Y-85300475D01*
X60709191Y-85421224D01*
X60756304Y-85534966D01*
X60819930Y-85630188D01*
X56537148Y-85630188D01*
X56514811Y-85627988D01*
X56492474Y-85630188D01*
X56492465Y-85630188D01*
X56425617Y-85636772D01*
X56339849Y-85662789D01*
X56260805Y-85705039D01*
X56191522Y-85761898D01*
X56180769Y-85775000D01*
X56138443Y-85775000D01*
X56017694Y-85799019D01*
X55903952Y-85846132D01*
X55801586Y-85914531D01*
X55714531Y-86001586D01*
X55646132Y-86103952D01*
X55599019Y-86217694D01*
X55575000Y-86338443D01*
X55575000Y-86461557D01*
X55599019Y-86582306D01*
X55646132Y-86696048D01*
X55714531Y-86798414D01*
X55801586Y-86885469D01*
X55903952Y-86953868D01*
X56017694Y-87000981D01*
X56138443Y-87025000D01*
X56261557Y-87025000D01*
X56382306Y-87000981D01*
X56496048Y-86953868D01*
X56515993Y-86940541D01*
X56181534Y-87275000D01*
X56138443Y-87275000D01*
X56017694Y-87299019D01*
X55903952Y-87346132D01*
X55801586Y-87414531D01*
X55714531Y-87501586D01*
X55646647Y-87603181D01*
X54525000Y-86481534D01*
X54525000Y-86438443D01*
X54500981Y-86317694D01*
X54453868Y-86203952D01*
X54385469Y-86101586D01*
X54298414Y-86014531D01*
X54196048Y-85946132D01*
X54082306Y-85899019D01*
X53961557Y-85875000D01*
X53838443Y-85875000D01*
X53717694Y-85899019D01*
X53603952Y-85946132D01*
X53501586Y-86014531D01*
X53414531Y-86101586D01*
X53346132Y-86203952D01*
X53299019Y-86317694D01*
X53275000Y-86438443D01*
X53275000Y-86561557D01*
X53299019Y-86682306D01*
X53346132Y-86796048D01*
X53414531Y-86898414D01*
X53445001Y-86928884D01*
X53445000Y-87461533D01*
X51409242Y-89497291D01*
X51375574Y-89376519D01*
X51308279Y-89240221D01*
X51215686Y-89119671D01*
X51170146Y-89079772D01*
X51170461Y-89079603D01*
X51257869Y-89007869D01*
X51329603Y-88920461D01*
X51382907Y-88820737D01*
X51415731Y-88712531D01*
X51426814Y-88600000D01*
X51426814Y-88200000D01*
X51415731Y-88087469D01*
X51382907Y-87979263D01*
X51329603Y-87879539D01*
X51257869Y-87792131D01*
X51170461Y-87720397D01*
X51070737Y-87667093D01*
X50962531Y-87634269D01*
X50850000Y-87623186D01*
X49950000Y-87623186D01*
X49837469Y-87634269D01*
X49729263Y-87667093D01*
X49629539Y-87720397D01*
X49542131Y-87792131D01*
X49470397Y-87879539D01*
X49417093Y-87979263D01*
X49384269Y-88087469D01*
X49373186Y-88200000D01*
X49373186Y-88600000D01*
X49384269Y-88712531D01*
X49417093Y-88820737D01*
X49470397Y-88920461D01*
X49542131Y-89007869D01*
X49629539Y-89079603D01*
X49629854Y-89079772D01*
X49584314Y-89119671D01*
X49491721Y-89240221D01*
X49424426Y-89376519D01*
X49388850Y-89504134D01*
X49469209Y-89625000D01*
X50375000Y-89625000D01*
X50375000Y-89605000D01*
X50425000Y-89605000D01*
X50425000Y-89625000D01*
X50445000Y-89625000D01*
X50445000Y-89675000D01*
X50425000Y-89675000D01*
X50425000Y-89695000D01*
X50375000Y-89695000D01*
X50375000Y-89675000D01*
X49469209Y-89675000D01*
X49388850Y-89795866D01*
X49424426Y-89923481D01*
X49491721Y-90059779D01*
X49584314Y-90180329D01*
X49691188Y-90273965D01*
X49599341Y-90349341D01*
X49502494Y-90467350D01*
X49430530Y-90601986D01*
X49386214Y-90748074D01*
X49371251Y-90900000D01*
X49386214Y-91051926D01*
X49430530Y-91198014D01*
X49502494Y-91332650D01*
X49599341Y-91450659D01*
X49689926Y-91525000D01*
X49599341Y-91599341D01*
X49502494Y-91717350D01*
X49430530Y-91851986D01*
X49386214Y-91998074D01*
X49371251Y-92150000D01*
X49386214Y-92301926D01*
X49430530Y-92448014D01*
X49502494Y-92582650D01*
X49599341Y-92700659D01*
X49689926Y-92775000D01*
X49599341Y-92849341D01*
X49502494Y-92967350D01*
X49430530Y-93101986D01*
X49386214Y-93248074D01*
X49371251Y-93400000D01*
X49386214Y-93551926D01*
X49430530Y-93698014D01*
X49502494Y-93832650D01*
X49599341Y-93950659D01*
X49689926Y-94025000D01*
X49599341Y-94099341D01*
X49502494Y-94217350D01*
X49430530Y-94351986D01*
X49386214Y-94498074D01*
X49371251Y-94650000D01*
X49386214Y-94801926D01*
X49430530Y-94948014D01*
X49502494Y-95082650D01*
X49599341Y-95200659D01*
X49689926Y-95275000D01*
X49599341Y-95349341D01*
X49502494Y-95467350D01*
X49430530Y-95601986D01*
X49386214Y-95748074D01*
X49371251Y-95900000D01*
X49386214Y-96051926D01*
X49430530Y-96198014D01*
X49502494Y-96332650D01*
X49599341Y-96450659D01*
X49717350Y-96547506D01*
X49851986Y-96619470D01*
X49998074Y-96663786D01*
X50111935Y-96675000D01*
X50688065Y-96675000D01*
X50801926Y-96663786D01*
X50948014Y-96619470D01*
X51082650Y-96547506D01*
X51200659Y-96450659D01*
X51297506Y-96332650D01*
X51369470Y-96198014D01*
X51413786Y-96051926D01*
X51428749Y-95900000D01*
X51416620Y-95776846D01*
X54411233Y-92782234D01*
X54424585Y-92814468D01*
X54520343Y-92957780D01*
X54642220Y-93079657D01*
X54785532Y-93175415D01*
X54944772Y-93241374D01*
X55113820Y-93275000D01*
X55286180Y-93275000D01*
X55407418Y-93250884D01*
X57003186Y-94846653D01*
X57003186Y-94903186D01*
X56575000Y-94903186D01*
X56501487Y-94910426D01*
X56430800Y-94931869D01*
X56365653Y-94966691D01*
X56308552Y-95013552D01*
X56261691Y-95070653D01*
X56226869Y-95135800D01*
X56205426Y-95206487D01*
X56198186Y-95280000D01*
X56198186Y-95657500D01*
X55702022Y-95657500D01*
X55651443Y-95562872D01*
X55577377Y-95472623D01*
X55487128Y-95398557D01*
X55384162Y-95343521D01*
X55272439Y-95309630D01*
X55156250Y-95298186D01*
X54643750Y-95298186D01*
X54527561Y-95309630D01*
X54415838Y-95343521D01*
X54312872Y-95398557D01*
X54222623Y-95472623D01*
X54148557Y-95562872D01*
X54093521Y-95665838D01*
X54059630Y-95777561D01*
X54048186Y-95893750D01*
X54048186Y-96325000D01*
X54038443Y-96325000D01*
X53917694Y-96349019D01*
X53803952Y-96396132D01*
X53701586Y-96464531D01*
X53614531Y-96551586D01*
X53546132Y-96653952D01*
X53499019Y-96767694D01*
X53475000Y-96888443D01*
X53475000Y-97011557D01*
X53499019Y-97132306D01*
X53546132Y-97246048D01*
X53614531Y-97348414D01*
X53701586Y-97435469D01*
X53803952Y-97503868D01*
X53917694Y-97550981D01*
X54038443Y-97575000D01*
X54048186Y-97575000D01*
X54048186Y-97906250D01*
X54059630Y-98022439D01*
X54093521Y-98134162D01*
X54148557Y-98237128D01*
X54222623Y-98327377D01*
X54312872Y-98401443D01*
X54415838Y-98456479D01*
X54527561Y-98490370D01*
X54643750Y-98501814D01*
X55156250Y-98501814D01*
X55272439Y-98490370D01*
X55384162Y-98456479D01*
X55487128Y-98401443D01*
X55577377Y-98327377D01*
X55651443Y-98237128D01*
X55702022Y-98142500D01*
X56198186Y-98142500D01*
X56198186Y-98520000D01*
X56205426Y-98593513D01*
X56226869Y-98664200D01*
X56261691Y-98729347D01*
X56308552Y-98786448D01*
X56365653Y-98833309D01*
X56430800Y-98868131D01*
X56501487Y-98889574D01*
X56575000Y-98896814D01*
X57003186Y-98896814D01*
X57003186Y-99325000D01*
X57010426Y-99398513D01*
X57031869Y-99469200D01*
X57066691Y-99534347D01*
X57100054Y-99575000D01*
X48425000Y-99575000D01*
X48425000Y-82125000D01*
X48523186Y-82125000D01*
X48523186Y-83725000D01*
X48535230Y-83847285D01*
X48570899Y-83964871D01*
X48628823Y-84073239D01*
X48706776Y-84168224D01*
X48801761Y-84246177D01*
X48910129Y-84304101D01*
X49027715Y-84339770D01*
X49150000Y-84351814D01*
X51650000Y-84351814D01*
X51772285Y-84339770D01*
X51889871Y-84304101D01*
X51998239Y-84246177D01*
X52093224Y-84168224D01*
X52171177Y-84073239D01*
X52229101Y-83964871D01*
X52264770Y-83847285D01*
X52276814Y-83725000D01*
X52276814Y-83433518D01*
X59025000Y-83433518D01*
X59025000Y-83566482D01*
X59050940Y-83696890D01*
X59101823Y-83819732D01*
X59175693Y-83930287D01*
X59269713Y-84024307D01*
X59380268Y-84098177D01*
X59503110Y-84149060D01*
X59633518Y-84175000D01*
X59766482Y-84175000D01*
X59896890Y-84149060D01*
X60019732Y-84098177D01*
X60130287Y-84024307D01*
X60224307Y-83930287D01*
X60298177Y-83819732D01*
X60349060Y-83696890D01*
X60375000Y-83566482D01*
X60375000Y-83433518D01*
X60349060Y-83303110D01*
X60298177Y-83180268D01*
X60224307Y-83069713D01*
X60130287Y-82975693D01*
X60019732Y-82901823D01*
X59896890Y-82850940D01*
X59766482Y-82825000D01*
X59633518Y-82825000D01*
X59503110Y-82850940D01*
X59380268Y-82901823D01*
X59269713Y-82975693D01*
X59175693Y-83069713D01*
X59101823Y-83180268D01*
X59050940Y-83303110D01*
X59025000Y-83433518D01*
X52276814Y-83433518D01*
X52276814Y-82133518D01*
X56125000Y-82133518D01*
X56125000Y-82266482D01*
X56150940Y-82396890D01*
X56201823Y-82519732D01*
X56275693Y-82630287D01*
X56369713Y-82724307D01*
X56480268Y-82798177D01*
X56603110Y-82849060D01*
X56733518Y-82875000D01*
X56866482Y-82875000D01*
X56996890Y-82849060D01*
X57119732Y-82798177D01*
X57230287Y-82724307D01*
X57324307Y-82630287D01*
X57398177Y-82519732D01*
X57449060Y-82396890D01*
X57475000Y-82266482D01*
X57475000Y-82133518D01*
X57449060Y-82003110D01*
X57398177Y-81880268D01*
X57324307Y-81769713D01*
X57230287Y-81675693D01*
X57119732Y-81601823D01*
X56996890Y-81550940D01*
X56866482Y-81525000D01*
X56733518Y-81525000D01*
X56603110Y-81550940D01*
X56480268Y-81601823D01*
X56369713Y-81675693D01*
X56275693Y-81769713D01*
X56201823Y-81880268D01*
X56150940Y-82003110D01*
X56125000Y-82133518D01*
X52276814Y-82133518D01*
X52276814Y-82125000D01*
X52264770Y-82002715D01*
X52229101Y-81885129D01*
X52171177Y-81776761D01*
X52093224Y-81681776D01*
X51998239Y-81603823D01*
X51889871Y-81545899D01*
X51772285Y-81510230D01*
X51650000Y-81498186D01*
X49150000Y-81498186D01*
X49027715Y-81510230D01*
X48910129Y-81545899D01*
X48801761Y-81603823D01*
X48706776Y-81681776D01*
X48628823Y-81776761D01*
X48570899Y-81885129D01*
X48535230Y-82002715D01*
X48523186Y-82125000D01*
X48425000Y-82125000D01*
X48425000Y-78633518D01*
X50050000Y-78633518D01*
X50050000Y-78766482D01*
X50075940Y-78896890D01*
X50100000Y-78954976D01*
X50100000Y-79469306D01*
X50096977Y-79500000D01*
X50100000Y-79530694D01*
X50100000Y-79530703D01*
X50109043Y-79622520D01*
X50144781Y-79740333D01*
X50202817Y-79848910D01*
X50280920Y-79944080D01*
X50304776Y-79963658D01*
X51136346Y-80795229D01*
X51155920Y-80819080D01*
X51251089Y-80897183D01*
X51359666Y-80955219D01*
X51477479Y-80990957D01*
X51569296Y-81000000D01*
X51569298Y-81000000D01*
X51600000Y-81003024D01*
X51630701Y-81000000D01*
X52313005Y-81000000D01*
X52379539Y-81054603D01*
X52479263Y-81107907D01*
X52587469Y-81140731D01*
X52700000Y-81151814D01*
X53900000Y-81151814D01*
X54012531Y-81140731D01*
X54120737Y-81107907D01*
X54220461Y-81054603D01*
X54234826Y-81042814D01*
X54280268Y-81073177D01*
X54403110Y-81124060D01*
X54533518Y-81150000D01*
X54666482Y-81150000D01*
X54796890Y-81124060D01*
X54919732Y-81073177D01*
X55030287Y-80999307D01*
X55124307Y-80905287D01*
X55198177Y-80794732D01*
X55222238Y-80736645D01*
X55722631Y-80236252D01*
X55746481Y-80216679D01*
X55824584Y-80121510D01*
X55882620Y-80012933D01*
X55918358Y-79895120D01*
X55927401Y-79803303D01*
X55927401Y-79803294D01*
X55930424Y-79772600D01*
X55927401Y-79741906D01*
X55927401Y-77758094D01*
X55930424Y-77727400D01*
X55927401Y-77696706D01*
X55927401Y-77696697D01*
X55918358Y-77604880D01*
X55882620Y-77487067D01*
X55824584Y-77378490D01*
X55824583Y-77378488D01*
X55766053Y-77307169D01*
X55766050Y-77307166D01*
X55746481Y-77283321D01*
X55722635Y-77263751D01*
X54663658Y-76204776D01*
X54644080Y-76180920D01*
X54548911Y-76102817D01*
X54440334Y-76044781D01*
X54322521Y-76009043D01*
X54294672Y-76006300D01*
X54220461Y-75945397D01*
X54120737Y-75892093D01*
X54012531Y-75859269D01*
X53900000Y-75848186D01*
X52700000Y-75848186D01*
X52587469Y-75859269D01*
X52479263Y-75892093D01*
X52379539Y-75945397D01*
X52292131Y-76017131D01*
X52220397Y-76104539D01*
X52167093Y-76204263D01*
X52134269Y-76312469D01*
X52123186Y-76425000D01*
X52123186Y-76825000D01*
X52134269Y-76937531D01*
X52167093Y-77045737D01*
X52220397Y-77145461D01*
X52292131Y-77232869D01*
X52313005Y-77250000D01*
X52292131Y-77267131D01*
X52220397Y-77354539D01*
X52167093Y-77454263D01*
X52134269Y-77562469D01*
X52123186Y-77675000D01*
X52123186Y-78075000D01*
X52134269Y-78187531D01*
X52167093Y-78295737D01*
X52220397Y-78395461D01*
X52256631Y-78439612D01*
X52233552Y-78458552D01*
X52186691Y-78515653D01*
X52151869Y-78580800D01*
X52130426Y-78651487D01*
X52123186Y-78725000D01*
X52125000Y-79006250D01*
X52218750Y-79100000D01*
X53275000Y-79100000D01*
X53275000Y-79080000D01*
X53325000Y-79080000D01*
X53325000Y-79100000D01*
X53345000Y-79100000D01*
X53345000Y-79150000D01*
X53325000Y-79150000D01*
X53325000Y-79170000D01*
X53275000Y-79170000D01*
X53275000Y-79150000D01*
X52218750Y-79150000D01*
X52125000Y-79243750D01*
X52123186Y-79525000D01*
X52130426Y-79598513D01*
X52151869Y-79669200D01*
X52186691Y-79734347D01*
X52199537Y-79750000D01*
X51858883Y-79750000D01*
X51350000Y-79241118D01*
X51350000Y-78954976D01*
X51374060Y-78896890D01*
X51400000Y-78766482D01*
X51400000Y-78633518D01*
X51374060Y-78503110D01*
X51323177Y-78380268D01*
X51249307Y-78269713D01*
X51155287Y-78175693D01*
X51044732Y-78101823D01*
X50921890Y-78050940D01*
X50791482Y-78025000D01*
X50658518Y-78025000D01*
X50528110Y-78050940D01*
X50405268Y-78101823D01*
X50294713Y-78175693D01*
X50200693Y-78269713D01*
X50126823Y-78380268D01*
X50075940Y-78503110D01*
X50050000Y-78633518D01*
X48425000Y-78633518D01*
X48425000Y-73275000D01*
X48523186Y-73275000D01*
X48523186Y-74875000D01*
X48535230Y-74997285D01*
X48570899Y-75114871D01*
X48628823Y-75223239D01*
X48706776Y-75318224D01*
X48801761Y-75396177D01*
X48910129Y-75454101D01*
X49027715Y-75489770D01*
X49150000Y-75501814D01*
X51650000Y-75501814D01*
X51772285Y-75489770D01*
X51889871Y-75454101D01*
X51998239Y-75396177D01*
X52093224Y-75318224D01*
X52171177Y-75223239D01*
X52229101Y-75114871D01*
X52264770Y-74997285D01*
X52276814Y-74875000D01*
X52276814Y-73275000D01*
X52264770Y-73152715D01*
X52229101Y-73035129D01*
X52171177Y-72926761D01*
X52093224Y-72831776D01*
X51998239Y-72753823D01*
X51889871Y-72695899D01*
X51772285Y-72660230D01*
X51650000Y-72648186D01*
X49150000Y-72648186D01*
X49027715Y-72660230D01*
X48910129Y-72695899D01*
X48801761Y-72753823D01*
X48706776Y-72831776D01*
X48628823Y-72926761D01*
X48570899Y-73035129D01*
X48535230Y-73152715D01*
X48523186Y-73275000D01*
X48425000Y-73275000D01*
X48425000Y-68400000D01*
X48523186Y-68400000D01*
X48523186Y-70000000D01*
X48535230Y-70122285D01*
X48570899Y-70239871D01*
X48628823Y-70348239D01*
X48706776Y-70443224D01*
X48801761Y-70521177D01*
X48910129Y-70579101D01*
X49027715Y-70614770D01*
X49150000Y-70626814D01*
X51650000Y-70626814D01*
X51772285Y-70614770D01*
X51889871Y-70579101D01*
X51998239Y-70521177D01*
X52093224Y-70443224D01*
X52171177Y-70348239D01*
X52229101Y-70239871D01*
X52264770Y-70122285D01*
X52276814Y-70000000D01*
X52276814Y-68400000D01*
X52264770Y-68277715D01*
X52229101Y-68160129D01*
X52171177Y-68051761D01*
X52093224Y-67956776D01*
X51998239Y-67878823D01*
X51889871Y-67820899D01*
X51772285Y-67785230D01*
X51650000Y-67773186D01*
X49150000Y-67773186D01*
X49027715Y-67785230D01*
X48910129Y-67820899D01*
X48801761Y-67878823D01*
X48706776Y-67956776D01*
X48628823Y-68051761D01*
X48570899Y-68160129D01*
X48535230Y-68277715D01*
X48523186Y-68400000D01*
X48425000Y-68400000D01*
X48425000Y-63750000D01*
X52123186Y-63750000D01*
X52125000Y-64031250D01*
X52218750Y-64125000D01*
X53275000Y-64125000D01*
X53275000Y-63468750D01*
X53325000Y-63468750D01*
X53325000Y-64125000D01*
X54381250Y-64125000D01*
X54475000Y-64031250D01*
X54476814Y-63750000D01*
X54469574Y-63676487D01*
X54448131Y-63605800D01*
X54413309Y-63540653D01*
X54366448Y-63483552D01*
X54309347Y-63436691D01*
X54244200Y-63401869D01*
X54173513Y-63380426D01*
X54100000Y-63373186D01*
X53418750Y-63375000D01*
X53325000Y-63468750D01*
X53275000Y-63468750D01*
X53181250Y-63375000D01*
X52500000Y-63373186D01*
X52426487Y-63380426D01*
X52355800Y-63401869D01*
X52290653Y-63436691D01*
X52233552Y-63483552D01*
X52186691Y-63540653D01*
X52151869Y-63605800D01*
X52130426Y-63676487D01*
X52123186Y-63750000D01*
X48425000Y-63750000D01*
X48425000Y-60425000D01*
X48650785Y-60425000D01*
X48628823Y-60451761D01*
X48628823Y-60451761D01*
G37*
X48628823Y-60451761D02*
X48570899Y-60560129D01*
X48535230Y-60677715D01*
X48523186Y-60800000D01*
X48523186Y-62400000D01*
X48535230Y-62522285D01*
X48570899Y-62639871D01*
X48628823Y-62748239D01*
X48706776Y-62843224D01*
X48801761Y-62921177D01*
X48910129Y-62979101D01*
X49027715Y-63014770D01*
X49150000Y-63026814D01*
X51650000Y-63026814D01*
X51772285Y-63014770D01*
X51889871Y-62979101D01*
X51998239Y-62921177D01*
X52093224Y-62843224D01*
X52171177Y-62748239D01*
X52229101Y-62639871D01*
X52264770Y-62522285D01*
X52276814Y-62400000D01*
X52276814Y-61950000D01*
X54473186Y-61950000D01*
X54473186Y-63050000D01*
X54480426Y-63123513D01*
X54501869Y-63194200D01*
X54536691Y-63259347D01*
X54583552Y-63316448D01*
X54640653Y-63363309D01*
X54705800Y-63398131D01*
X54776487Y-63419574D01*
X54850000Y-63426814D01*
X55950000Y-63426814D01*
X56023513Y-63419574D01*
X56094200Y-63398131D01*
X56159347Y-63363309D01*
X56216448Y-63316448D01*
X56263309Y-63259347D01*
X56298131Y-63194200D01*
X56319574Y-63123513D01*
X56324352Y-63075000D01*
X56366482Y-63075000D01*
X56492164Y-63050000D01*
X57273186Y-63050000D01*
X57280426Y-63123513D01*
X57301869Y-63194200D01*
X57336691Y-63259347D01*
X57383552Y-63316448D01*
X57440653Y-63363309D01*
X57505800Y-63398131D01*
X57576487Y-63419574D01*
X57650000Y-63426814D01*
X58081250Y-63425000D01*
X58175000Y-63331250D01*
X58175000Y-62525000D01*
X58225000Y-62525000D01*
X58225000Y-63331250D01*
X58318750Y-63425000D01*
X58750000Y-63426814D01*
X58823513Y-63419574D01*
X58894200Y-63398131D01*
X58959347Y-63363309D01*
X59000000Y-63329946D01*
X59040653Y-63363309D01*
X59105800Y-63398131D01*
X59176487Y-63419574D01*
X59250000Y-63426814D01*
X59681250Y-63425000D01*
X59775000Y-63331250D01*
X59775000Y-62525000D01*
X59825000Y-62525000D01*
X59825000Y-63331250D01*
X59918750Y-63425000D01*
X60350000Y-63426814D01*
X60423513Y-63419574D01*
X60494200Y-63398131D01*
X60559347Y-63363309D01*
X60616448Y-63316448D01*
X60663309Y-63259347D01*
X60698131Y-63194200D01*
X60719574Y-63123513D01*
X60726814Y-63050000D01*
X60725000Y-62618750D01*
X60631250Y-62525000D01*
X59825000Y-62525000D01*
X59775000Y-62525000D01*
X58225000Y-62525000D01*
X58175000Y-62525000D01*
X57368750Y-62525000D01*
X57275000Y-62618750D01*
X57273186Y-63050000D01*
X56492164Y-63050000D01*
X56496890Y-63049060D01*
X56619732Y-62998177D01*
X56730287Y-62924307D01*
X56824307Y-62830287D01*
X56898177Y-62719732D01*
X56949060Y-62596890D01*
X56975000Y-62466482D01*
X56975000Y-62333518D01*
X56949060Y-62203110D01*
X56898177Y-62080268D01*
X56824307Y-61969713D01*
X56804594Y-61950000D01*
X57273186Y-61950000D01*
X57275000Y-62381250D01*
X57368750Y-62475000D01*
X58175000Y-62475000D01*
X58175000Y-61668750D01*
X58225000Y-61668750D01*
X58225000Y-62475000D01*
X59775000Y-62475000D01*
X59775000Y-61668750D01*
X59825000Y-61668750D01*
X59825000Y-62475000D01*
X60631250Y-62475000D01*
X60725000Y-62381250D01*
X60726814Y-61950000D01*
X60719574Y-61876487D01*
X60698131Y-61805800D01*
X60663309Y-61740653D01*
X60616448Y-61683552D01*
X60559347Y-61636691D01*
X60494200Y-61601869D01*
X60423513Y-61580426D01*
X60350000Y-61573186D01*
X59918750Y-61575000D01*
X59825000Y-61668750D01*
X59775000Y-61668750D01*
X59681250Y-61575000D01*
X59250000Y-61573186D01*
X59176487Y-61580426D01*
X59105800Y-61601869D01*
X59040653Y-61636691D01*
X59000000Y-61670054D01*
X58959347Y-61636691D01*
X58894200Y-61601869D01*
X58823513Y-61580426D01*
X58750000Y-61573186D01*
X58318750Y-61575000D01*
X58225000Y-61668750D01*
X58175000Y-61668750D01*
X58081250Y-61575000D01*
X57650000Y-61573186D01*
X57576487Y-61580426D01*
X57505800Y-61601869D01*
X57440653Y-61636691D01*
X57383552Y-61683552D01*
X57336691Y-61740653D01*
X57301869Y-61805800D01*
X57280426Y-61876487D01*
X57273186Y-61950000D01*
X56804594Y-61950000D01*
X56730287Y-61875693D01*
X56619732Y-61801823D01*
X56496890Y-61750940D01*
X56366482Y-61725000D01*
X56250463Y-61725000D01*
X56216448Y-61683552D01*
X56159347Y-61636691D01*
X56094200Y-61601869D01*
X56023513Y-61580426D01*
X55950000Y-61573186D01*
X54850000Y-61573186D01*
X54776487Y-61580426D01*
X54705800Y-61601869D01*
X54640653Y-61636691D01*
X54583552Y-61683552D01*
X54536691Y-61740653D01*
X54501869Y-61805800D01*
X54480426Y-61876487D01*
X54473186Y-61950000D01*
X52276814Y-61950000D01*
X52276814Y-61138443D01*
X52575000Y-61138443D01*
X52575000Y-61261557D01*
X52599019Y-61382306D01*
X52646132Y-61496048D01*
X52714531Y-61598414D01*
X52801586Y-61685469D01*
X52903952Y-61753868D01*
X53017694Y-61800981D01*
X53138443Y-61825000D01*
X53261557Y-61825000D01*
X53382306Y-61800981D01*
X53496048Y-61753868D01*
X53598414Y-61685469D01*
X53685469Y-61598414D01*
X53753868Y-61496048D01*
X53800981Y-61382306D01*
X53825000Y-61261557D01*
X53825000Y-61138443D01*
X53800981Y-61017694D01*
X53753868Y-60903952D01*
X53685469Y-60801586D01*
X53598414Y-60714531D01*
X53496048Y-60646132D01*
X53382306Y-60599019D01*
X53261557Y-60575000D01*
X53138443Y-60575000D01*
X53017694Y-60599019D01*
X52903952Y-60646132D01*
X52801586Y-60714531D01*
X52714531Y-60801586D01*
X52646132Y-60903952D01*
X52599019Y-61017694D01*
X52575000Y-61138443D01*
X52276814Y-61138443D01*
X52276814Y-60800000D01*
X52264770Y-60677715D01*
X52229101Y-60560129D01*
X52171177Y-60451761D01*
X52149215Y-60425000D01*
X65850785Y-60425000D01*
X65828823Y-60451761D01*
X65770899Y-60560129D01*
X65735230Y-60677715D01*
X65723186Y-60800000D01*
X65723186Y-62400000D01*
X65735230Y-62522285D01*
X65770899Y-62639871D01*
X65828823Y-62748239D01*
X65906776Y-62843224D01*
X66001761Y-62921177D01*
X66110129Y-62979101D01*
X66227715Y-63014770D01*
X66350000Y-63026814D01*
X68850000Y-63026814D01*
X68972285Y-63014770D01*
X69089871Y-62979101D01*
X69198239Y-62921177D01*
X69293224Y-62843224D01*
X69371177Y-62748239D01*
X69429101Y-62639871D01*
X69464770Y-62522285D01*
X69476814Y-62400000D01*
X69476814Y-60800000D01*
X69464770Y-60677715D01*
X69429101Y-60560129D01*
X69371177Y-60451761D01*
X69349215Y-60425000D01*
X69575001Y-60425000D01*
X69575000Y-98691117D01*
X69498414Y-98614531D01*
X69396048Y-98546132D01*
X69282306Y-98499019D01*
X69161557Y-98475000D01*
X69038443Y-98475000D01*
X68917694Y-98499019D01*
X68803952Y-98546132D01*
X68701586Y-98614531D01*
X68614531Y-98701586D01*
X68546132Y-98803952D01*
X68499019Y-98917694D01*
X68475000Y-99038443D01*
X68475000Y-99161557D01*
X68499019Y-99282306D01*
X68546132Y-99396048D01*
X68614531Y-99498414D01*
X68691117Y-99575000D01*
X60899946Y-99575000D01*
X60933309Y-99534347D01*
X60968131Y-99469200D01*
X60972439Y-99455000D01*
X63877653Y-99455000D01*
X63900000Y-99457201D01*
X63989195Y-99448416D01*
X64074963Y-99422399D01*
X64154007Y-99380149D01*
X64223290Y-99323290D01*
X64237541Y-99305925D01*
X66646647Y-96896819D01*
X66714531Y-96998414D01*
X66801586Y-97085469D01*
X66903952Y-97153868D01*
X67017694Y-97200981D01*
X67138443Y-97225000D01*
X67261557Y-97225000D01*
X67382306Y-97200981D01*
X67496048Y-97153868D01*
X67598414Y-97085469D01*
X67685469Y-96998414D01*
X67753868Y-96896048D01*
X67800981Y-96782306D01*
X67825000Y-96661557D01*
X67825000Y-96538443D01*
X67800981Y-96417694D01*
X67753868Y-96303952D01*
X67685469Y-96201586D01*
X67655000Y-96171117D01*
X67655000Y-86572351D01*
X67657200Y-86550014D01*
X67655000Y-86527677D01*
X67655000Y-86527668D01*
X67648416Y-86460820D01*
X67622399Y-86375052D01*
X67580149Y-86296008D01*
X67539103Y-86245993D01*
X67537535Y-86244082D01*
X67537532Y-86244079D01*
X67523290Y-86226725D01*
X67505936Y-86212483D01*
X65850161Y-84556709D01*
X65835910Y-84539344D01*
X65766627Y-84482485D01*
X65687583Y-84440235D01*
X65601815Y-84414218D01*
X65534967Y-84407634D01*
X65534964Y-84407634D01*
X65512620Y-84405433D01*
X65490273Y-84407634D01*
X64648860Y-84407634D01*
X64682306Y-84400981D01*
X64796048Y-84353868D01*
X64898414Y-84285469D01*
X64985469Y-84198414D01*
X65053868Y-84096048D01*
X65100981Y-83982306D01*
X65125000Y-83861557D01*
X65125000Y-83738443D01*
X65124021Y-83733518D01*
X66525000Y-83733518D01*
X66525000Y-83866482D01*
X66550940Y-83996890D01*
X66601823Y-84119732D01*
X66675693Y-84230287D01*
X66769713Y-84324307D01*
X66880268Y-84398177D01*
X67003110Y-84449060D01*
X67133518Y-84475000D01*
X67266482Y-84475000D01*
X67396890Y-84449060D01*
X67519732Y-84398177D01*
X67630287Y-84324307D01*
X67724307Y-84230287D01*
X67798177Y-84119732D01*
X67849060Y-83996890D01*
X67875000Y-83866482D01*
X67875000Y-83733518D01*
X67849060Y-83603110D01*
X67798177Y-83480268D01*
X67724307Y-83369713D01*
X67630287Y-83275693D01*
X67519732Y-83201823D01*
X67396890Y-83150940D01*
X67266482Y-83125000D01*
X67133518Y-83125000D01*
X67003110Y-83150940D01*
X66880268Y-83201823D01*
X66769713Y-83275693D01*
X66675693Y-83369713D01*
X66601823Y-83480268D01*
X66550940Y-83603110D01*
X66525000Y-83733518D01*
X65124021Y-83733518D01*
X65100981Y-83617694D01*
X65053868Y-83503952D01*
X64985469Y-83401586D01*
X64898414Y-83314531D01*
X64796048Y-83246132D01*
X64682306Y-83199019D01*
X64561557Y-83175000D01*
X64518467Y-83175000D01*
X64370281Y-83026814D01*
X65450000Y-83026814D01*
X65523513Y-83019574D01*
X65594200Y-82998131D01*
X65659347Y-82963309D01*
X65716448Y-82916448D01*
X65763309Y-82859347D01*
X65798131Y-82794200D01*
X65819574Y-82723513D01*
X65826814Y-82650000D01*
X65826814Y-80950000D01*
X66973186Y-80950000D01*
X66973186Y-82650000D01*
X66980426Y-82723513D01*
X67001869Y-82794200D01*
X67036691Y-82859347D01*
X67083552Y-82916448D01*
X67140653Y-82963309D01*
X67205800Y-82998131D01*
X67276487Y-83019574D01*
X67350000Y-83026814D01*
X69050000Y-83026814D01*
X69123513Y-83019574D01*
X69194200Y-82998131D01*
X69259347Y-82963309D01*
X69316448Y-82916448D01*
X69363309Y-82859347D01*
X69398131Y-82794200D01*
X69419574Y-82723513D01*
X69426814Y-82650000D01*
X69426814Y-80950000D01*
X69419574Y-80876487D01*
X69398131Y-80805800D01*
X69363309Y-80740653D01*
X69316448Y-80683552D01*
X69259347Y-80636691D01*
X69194200Y-80601869D01*
X69123513Y-80580426D01*
X69050000Y-80573186D01*
X67350000Y-80573186D01*
X67276487Y-80580426D01*
X67205800Y-80601869D01*
X67140653Y-80636691D01*
X67083552Y-80683552D01*
X67036691Y-80740653D01*
X67001869Y-80805800D01*
X66980426Y-80876487D01*
X66973186Y-80950000D01*
X65826814Y-80950000D01*
X65819574Y-80876487D01*
X65798131Y-80805800D01*
X65763309Y-80740653D01*
X65716448Y-80683552D01*
X65659347Y-80636691D01*
X65594200Y-80601869D01*
X65523513Y-80580426D01*
X65450000Y-80573186D01*
X63750000Y-80573186D01*
X63676487Y-80580426D01*
X63605800Y-80601869D01*
X63540653Y-80636691D01*
X63483552Y-80683552D01*
X63436691Y-80740653D01*
X63401869Y-80805800D01*
X63380426Y-80876487D01*
X63373186Y-80950000D01*
X63373186Y-82029720D01*
X63356528Y-82013062D01*
X63356528Y-79476285D01*
X63394245Y-79476285D01*
X63403259Y-79521602D01*
X63477290Y-79750048D01*
X63594466Y-79959662D01*
X63750284Y-80142388D01*
X63938756Y-80291205D01*
X64152640Y-80400393D01*
X64383715Y-80465756D01*
X64575000Y-80390996D01*
X64575000Y-79285000D01*
X64625000Y-79285000D01*
X64625000Y-80390996D01*
X64816285Y-80465756D01*
X65047360Y-80400393D01*
X65261244Y-80291205D01*
X65449716Y-80142388D01*
X65605534Y-79959662D01*
X65722710Y-79750048D01*
X65796741Y-79521602D01*
X65805755Y-79476285D01*
X66994245Y-79476285D01*
X67003259Y-79521602D01*
X67077290Y-79750048D01*
X67194466Y-79959662D01*
X67350284Y-80142388D01*
X67538756Y-80291205D01*
X67752640Y-80400393D01*
X67983715Y-80465756D01*
X68175000Y-80390996D01*
X68175000Y-79285000D01*
X68225000Y-79285000D01*
X68225000Y-80390996D01*
X68416285Y-80465756D01*
X68647360Y-80400393D01*
X68861244Y-80291205D01*
X69049716Y-80142388D01*
X69205534Y-79959662D01*
X69322710Y-79750048D01*
X69396741Y-79521602D01*
X69405755Y-79476285D01*
X69330974Y-79285000D01*
X68225000Y-79285000D01*
X68175000Y-79285000D01*
X67069026Y-79285000D01*
X66994245Y-79476285D01*
X65805755Y-79476285D01*
X65730974Y-79285000D01*
X64625000Y-79285000D01*
X64575000Y-79285000D01*
X63469026Y-79285000D01*
X63394245Y-79476285D01*
X63356528Y-79476285D01*
X63356528Y-79043715D01*
X63394245Y-79043715D01*
X63469026Y-79235000D01*
X64575000Y-79235000D01*
X64575000Y-78129004D01*
X64625000Y-78129004D01*
X64625000Y-79235000D01*
X65730974Y-79235000D01*
X65805755Y-79043715D01*
X66994245Y-79043715D01*
X67069026Y-79235000D01*
X68175000Y-79235000D01*
X68175000Y-78129004D01*
X68225000Y-78129004D01*
X68225000Y-79235000D01*
X69330974Y-79235000D01*
X69405755Y-79043715D01*
X69396741Y-78998398D01*
X69322710Y-78769952D01*
X69205534Y-78560338D01*
X69049716Y-78377612D01*
X68861244Y-78228795D01*
X68647360Y-78119607D01*
X68416285Y-78054244D01*
X68225000Y-78129004D01*
X68175000Y-78129004D01*
X67983715Y-78054244D01*
X67752640Y-78119607D01*
X67538756Y-78228795D01*
X67350284Y-78377612D01*
X67194466Y-78560338D01*
X67077290Y-78769952D01*
X67003259Y-78998398D01*
X66994245Y-79043715D01*
X65805755Y-79043715D01*
X65796741Y-78998398D01*
X65722710Y-78769952D01*
X65605534Y-78560338D01*
X65449716Y-78377612D01*
X65261244Y-78228795D01*
X65047360Y-78119607D01*
X64816285Y-78054244D01*
X64625000Y-78129004D01*
X64575000Y-78129004D01*
X64383715Y-78054244D01*
X64152640Y-78119607D01*
X63938756Y-78228795D01*
X63750284Y-78377612D01*
X63594466Y-78560338D01*
X63477290Y-78769952D01*
X63403259Y-78998398D01*
X63394245Y-79043715D01*
X63356528Y-79043715D01*
X63356528Y-76720000D01*
X63369073Y-76720000D01*
X63392725Y-76960142D01*
X63462772Y-77191055D01*
X63576522Y-77403866D01*
X63729603Y-77590397D01*
X63916134Y-77743478D01*
X64128945Y-77857228D01*
X64359858Y-77927275D01*
X64539822Y-77945000D01*
X64660178Y-77945000D01*
X64840142Y-77927275D01*
X65071055Y-77857228D01*
X65283866Y-77743478D01*
X65470397Y-77590397D01*
X65623478Y-77403866D01*
X65737228Y-77191055D01*
X65807275Y-76960142D01*
X65830927Y-76720000D01*
X65807275Y-76479858D01*
X65737228Y-76248945D01*
X65623478Y-76036134D01*
X65470397Y-75849603D01*
X65283866Y-75696522D01*
X65071055Y-75582772D01*
X64840142Y-75512725D01*
X64660178Y-75495000D01*
X64539822Y-75495000D01*
X64359858Y-75512725D01*
X64128945Y-75582772D01*
X63916134Y-75696522D01*
X63729603Y-75849603D01*
X63576522Y-76036134D01*
X63462772Y-76248945D01*
X63392725Y-76479858D01*
X63369073Y-76720000D01*
X63356528Y-76720000D01*
X63356528Y-75540247D01*
X63358729Y-75517900D01*
X63349944Y-75428704D01*
X63340077Y-75396177D01*
X63323927Y-75342937D01*
X63281677Y-75263893D01*
X63224818Y-75194610D01*
X63207459Y-75180364D01*
X61160613Y-73133518D01*
X64525000Y-73133518D01*
X64525000Y-73266482D01*
X64550940Y-73396890D01*
X64601823Y-73519732D01*
X64675693Y-73630287D01*
X64769713Y-73724307D01*
X64880268Y-73798177D01*
X65003110Y-73849060D01*
X65133518Y-73875000D01*
X65266482Y-73875000D01*
X65396890Y-73849060D01*
X65519732Y-73798177D01*
X65630287Y-73724307D01*
X65724307Y-73630287D01*
X65798177Y-73519732D01*
X65849060Y-73396890D01*
X65875000Y-73266482D01*
X65875000Y-73133518D01*
X65849060Y-73003110D01*
X65798177Y-72880268D01*
X65724307Y-72769713D01*
X65630287Y-72675693D01*
X65519732Y-72601823D01*
X65396890Y-72550940D01*
X65266482Y-72525000D01*
X65133518Y-72525000D01*
X65003110Y-72550940D01*
X64880268Y-72601823D01*
X64769713Y-72675693D01*
X64675693Y-72769713D01*
X64601823Y-72880268D01*
X64550940Y-73003110D01*
X64525000Y-73133518D01*
X61160613Y-73133518D01*
X61155000Y-73127906D01*
X61155000Y-71128883D01*
X61185469Y-71098414D01*
X61253868Y-70996048D01*
X61300981Y-70882306D01*
X61325000Y-70761557D01*
X61325000Y-70638443D01*
X61300981Y-70517694D01*
X61253868Y-70403952D01*
X61185469Y-70301586D01*
X61098414Y-70214531D01*
X60996048Y-70146132D01*
X60882306Y-70099019D01*
X60761557Y-70075000D01*
X60638443Y-70075000D01*
X60517694Y-70099019D01*
X60403952Y-70146132D01*
X60301586Y-70214531D01*
X60214531Y-70301586D01*
X60146132Y-70403952D01*
X60099019Y-70517694D01*
X60075000Y-70638443D01*
X60075000Y-70761557D01*
X60099019Y-70882306D01*
X60146132Y-70996048D01*
X60214531Y-71098414D01*
X60245000Y-71128883D01*
X60245001Y-72659720D01*
X58257879Y-70672599D01*
X58678376Y-70672599D01*
X58700723Y-70674800D01*
X58789918Y-70666015D01*
X58875686Y-70639998D01*
X58954730Y-70597748D01*
X59024013Y-70540889D01*
X59038264Y-70523524D01*
X61161788Y-68400000D01*
X65723186Y-68400000D01*
X65723186Y-70000000D01*
X65735230Y-70122285D01*
X65770899Y-70239871D01*
X65828823Y-70348239D01*
X65906776Y-70443224D01*
X66001761Y-70521177D01*
X66110129Y-70579101D01*
X66227715Y-70614770D01*
X66350000Y-70626814D01*
X68850000Y-70626814D01*
X68972285Y-70614770D01*
X69089871Y-70579101D01*
X69198239Y-70521177D01*
X69293224Y-70443224D01*
X69371177Y-70348239D01*
X69429101Y-70239871D01*
X69464770Y-70122285D01*
X69476814Y-70000000D01*
X69476814Y-68400000D01*
X69464770Y-68277715D01*
X69429101Y-68160129D01*
X69371177Y-68051761D01*
X69293224Y-67956776D01*
X69198239Y-67878823D01*
X69089871Y-67820899D01*
X68972285Y-67785230D01*
X68850000Y-67773186D01*
X66350000Y-67773186D01*
X66227715Y-67785230D01*
X66110129Y-67820899D01*
X66001761Y-67878823D01*
X65906776Y-67956776D01*
X65828823Y-68051761D01*
X65770899Y-68160129D01*
X65735230Y-68277715D01*
X65723186Y-68400000D01*
X61161788Y-68400000D01*
X62511788Y-67050000D01*
X63523186Y-67050000D01*
X63530426Y-67123513D01*
X63551869Y-67194200D01*
X63586691Y-67259347D01*
X63633552Y-67316448D01*
X63690653Y-67363309D01*
X63755800Y-67398131D01*
X63826487Y-67419574D01*
X63900000Y-67426814D01*
X64581250Y-67425000D01*
X64675000Y-67331250D01*
X64675000Y-66675000D01*
X64725000Y-66675000D01*
X64725000Y-67331250D01*
X64818750Y-67425000D01*
X65500000Y-67426814D01*
X65573513Y-67419574D01*
X65644200Y-67398131D01*
X65709347Y-67363309D01*
X65766448Y-67316448D01*
X65813309Y-67259347D01*
X65848131Y-67194200D01*
X65869574Y-67123513D01*
X65876814Y-67050000D01*
X65875000Y-66768750D01*
X65781250Y-66675000D01*
X64725000Y-66675000D01*
X64675000Y-66675000D01*
X63618750Y-66675000D01*
X63525000Y-66768750D01*
X63523186Y-67050000D01*
X62511788Y-67050000D01*
X63629832Y-65931957D01*
X63656631Y-65964612D01*
X63633552Y-65983552D01*
X63586691Y-66040653D01*
X63551869Y-66105800D01*
X63530426Y-66176487D01*
X63523186Y-66250000D01*
X63525000Y-66531250D01*
X63618750Y-66625000D01*
X64675000Y-66625000D01*
X64675000Y-66605000D01*
X64725000Y-66605000D01*
X64725000Y-66625000D01*
X65781250Y-66625000D01*
X65875000Y-66531250D01*
X65876814Y-66250000D01*
X65869574Y-66176487D01*
X65848131Y-66105800D01*
X65819551Y-66052330D01*
X65933518Y-66075000D01*
X66066482Y-66075000D01*
X66196890Y-66049060D01*
X66319732Y-65998177D01*
X66430287Y-65924307D01*
X66524307Y-65830287D01*
X66598177Y-65719732D01*
X66649060Y-65596890D01*
X66675000Y-65466482D01*
X66675000Y-65333518D01*
X66649060Y-65203110D01*
X66598177Y-65080268D01*
X66524307Y-64969713D01*
X66430287Y-64875693D01*
X66319732Y-64801823D01*
X66196890Y-64750940D01*
X66066482Y-64725000D01*
X65933518Y-64725000D01*
X65803110Y-64750940D01*
X65706459Y-64790974D01*
X65686995Y-64775000D01*
X65707869Y-64757869D01*
X65779603Y-64670461D01*
X65832907Y-64570737D01*
X65865731Y-64462531D01*
X65876814Y-64350000D01*
X65876814Y-63950000D01*
X65865731Y-63837469D01*
X65832907Y-63729263D01*
X65779603Y-63629539D01*
X65707869Y-63542131D01*
X65620461Y-63470397D01*
X65520737Y-63417093D01*
X65412531Y-63384269D01*
X65300000Y-63373186D01*
X64100000Y-63373186D01*
X63987469Y-63384269D01*
X63879263Y-63417093D01*
X63779539Y-63470397D01*
X63692131Y-63542131D01*
X63675000Y-63563005D01*
X63675000Y-63433518D01*
X63649060Y-63303110D01*
X63598177Y-63180268D01*
X63524800Y-63070451D01*
X63526814Y-63050000D01*
X63526814Y-61950000D01*
X63519574Y-61876487D01*
X63498131Y-61805800D01*
X63463309Y-61740653D01*
X63416448Y-61683552D01*
X63359347Y-61636691D01*
X63294200Y-61601869D01*
X63223513Y-61580426D01*
X63150000Y-61573186D01*
X62050000Y-61573186D01*
X61976487Y-61580426D01*
X61905800Y-61601869D01*
X61840653Y-61636691D01*
X61783552Y-61683552D01*
X61736691Y-61740653D01*
X61701869Y-61805800D01*
X61680426Y-61876487D01*
X61673186Y-61950000D01*
X61673186Y-63050000D01*
X61680426Y-63123513D01*
X61701869Y-63194200D01*
X61736691Y-63259347D01*
X61758944Y-63286462D01*
X61675693Y-63369713D01*
X61601823Y-63480268D01*
X61550940Y-63603110D01*
X61525000Y-63733518D01*
X61525000Y-63866482D01*
X61550940Y-63996890D01*
X61601823Y-64119732D01*
X61675200Y-64229549D01*
X61673186Y-64250000D01*
X61673186Y-65350000D01*
X61680426Y-65423513D01*
X61701869Y-65494200D01*
X61736691Y-65559347D01*
X61783552Y-65616448D01*
X61840653Y-65663309D01*
X61905800Y-65698131D01*
X61976487Y-65719574D01*
X62050000Y-65726814D01*
X62548041Y-65726814D01*
X58512257Y-69762599D01*
X56490794Y-69762599D01*
X56468447Y-69760398D01*
X56379251Y-69769183D01*
X56353234Y-69777075D01*
X56334093Y-69782882D01*
X56334093Y-69751429D01*
X56336293Y-69729092D01*
X56334093Y-69706755D01*
X56334093Y-69706746D01*
X56327509Y-69639898D01*
X56301492Y-69554130D01*
X56259242Y-69475086D01*
X56248000Y-69461387D01*
X56216628Y-69423160D01*
X56216625Y-69423157D01*
X56202383Y-69405803D01*
X56185030Y-69391562D01*
X54156994Y-67363527D01*
X54220461Y-67329603D01*
X54307869Y-67257869D01*
X54365148Y-67188074D01*
X54380268Y-67198177D01*
X54503110Y-67249060D01*
X54633518Y-67275000D01*
X54766482Y-67275000D01*
X54896890Y-67249060D01*
X55019732Y-67198177D01*
X55130287Y-67124307D01*
X55224307Y-67030287D01*
X55298177Y-66919732D01*
X55349060Y-66796890D01*
X55357199Y-66755973D01*
X55786606Y-66326566D01*
X55808554Y-66308554D01*
X55880408Y-66220998D01*
X55933801Y-66121108D01*
X55966680Y-66012720D01*
X55975000Y-65928246D01*
X55975000Y-65928244D01*
X55977782Y-65900001D01*
X55975000Y-65871758D01*
X55975000Y-65724352D01*
X56023513Y-65719574D01*
X56094200Y-65698131D01*
X56159347Y-65663309D01*
X56216448Y-65616448D01*
X56263309Y-65559347D01*
X56298131Y-65494200D01*
X56319574Y-65423513D01*
X56326814Y-65350000D01*
X57273186Y-65350000D01*
X57280426Y-65423513D01*
X57301869Y-65494200D01*
X57336691Y-65559347D01*
X57383552Y-65616448D01*
X57440653Y-65663309D01*
X57505800Y-65698131D01*
X57576487Y-65719574D01*
X57650000Y-65726814D01*
X58081250Y-65725000D01*
X58175000Y-65631250D01*
X58175000Y-64825000D01*
X58225000Y-64825000D01*
X58225000Y-65631250D01*
X58318750Y-65725000D01*
X58750000Y-65726814D01*
X58823513Y-65719574D01*
X58894200Y-65698131D01*
X58959347Y-65663309D01*
X59000000Y-65629946D01*
X59040653Y-65663309D01*
X59105800Y-65698131D01*
X59176487Y-65719574D01*
X59250000Y-65726814D01*
X59681250Y-65725000D01*
X59775000Y-65631250D01*
X59775000Y-64825000D01*
X59825000Y-64825000D01*
X59825000Y-65631250D01*
X59918750Y-65725000D01*
X60350000Y-65726814D01*
X60423513Y-65719574D01*
X60494200Y-65698131D01*
X60559347Y-65663309D01*
X60616448Y-65616448D01*
X60663309Y-65559347D01*
X60698131Y-65494200D01*
X60719574Y-65423513D01*
X60726814Y-65350000D01*
X60725000Y-64918750D01*
X60631250Y-64825000D01*
X59825000Y-64825000D01*
X59775000Y-64825000D01*
X58225000Y-64825000D01*
X58175000Y-64825000D01*
X57368750Y-64825000D01*
X57275000Y-64918750D01*
X57273186Y-65350000D01*
X56326814Y-65350000D01*
X56326814Y-64250000D01*
X57273186Y-64250000D01*
X57275000Y-64681250D01*
X57368750Y-64775000D01*
X58175000Y-64775000D01*
X58175000Y-63968750D01*
X58225000Y-63968750D01*
X58225000Y-64775000D01*
X59775000Y-64775000D01*
X59775000Y-63968750D01*
X59825000Y-63968750D01*
X59825000Y-64775000D01*
X60631250Y-64775000D01*
X60725000Y-64681250D01*
X60726814Y-64250000D01*
X60719574Y-64176487D01*
X60698131Y-64105800D01*
X60663309Y-64040653D01*
X60616448Y-63983552D01*
X60559347Y-63936691D01*
X60494200Y-63901869D01*
X60423513Y-63880426D01*
X60350000Y-63873186D01*
X59918750Y-63875000D01*
X59825000Y-63968750D01*
X59775000Y-63968750D01*
X59681250Y-63875000D01*
X59250000Y-63873186D01*
X59176487Y-63880426D01*
X59105800Y-63901869D01*
X59040653Y-63936691D01*
X59000000Y-63970054D01*
X58959347Y-63936691D01*
X58894200Y-63901869D01*
X58823513Y-63880426D01*
X58750000Y-63873186D01*
X58318750Y-63875000D01*
X58225000Y-63968750D01*
X58175000Y-63968750D01*
X58081250Y-63875000D01*
X57650000Y-63873186D01*
X57576487Y-63880426D01*
X57505800Y-63901869D01*
X57440653Y-63936691D01*
X57383552Y-63983552D01*
X57336691Y-64040653D01*
X57301869Y-64105800D01*
X57280426Y-64176487D01*
X57273186Y-64250000D01*
X56326814Y-64250000D01*
X56319574Y-64176487D01*
X56298131Y-64105800D01*
X56263309Y-64040653D01*
X56216448Y-63983552D01*
X56159347Y-63936691D01*
X56094200Y-63901869D01*
X56023513Y-63880426D01*
X55950000Y-63873186D01*
X54850000Y-63873186D01*
X54776487Y-63880426D01*
X54705800Y-63901869D01*
X54640653Y-63936691D01*
X54583552Y-63983552D01*
X54536691Y-64040653D01*
X54501869Y-64105800D01*
X54480426Y-64176487D01*
X54473186Y-64250000D01*
X54473186Y-64266936D01*
X54381250Y-64175000D01*
X53325000Y-64175000D01*
X53325000Y-64195000D01*
X53275000Y-64195000D01*
X53275000Y-64175000D01*
X52218750Y-64175000D01*
X52125000Y-64268750D01*
X52123186Y-64550000D01*
X52130426Y-64623513D01*
X52151869Y-64694200D01*
X52180449Y-64747670D01*
X52066482Y-64725000D01*
X51933518Y-64725000D01*
X51803110Y-64750940D01*
X51680268Y-64801823D01*
X51569713Y-64875693D01*
X51475693Y-64969713D01*
X51401823Y-65080268D01*
X51350940Y-65203110D01*
X51325000Y-65333518D01*
X51325000Y-65466482D01*
X51350940Y-65596890D01*
X51401823Y-65719732D01*
X51475693Y-65830287D01*
X51569713Y-65924307D01*
X51680268Y-65998177D01*
X51803110Y-66049060D01*
X51933518Y-66075000D01*
X52066482Y-66075000D01*
X52196890Y-66049060D01*
X52293541Y-66009026D01*
X52313005Y-66025000D01*
X52292131Y-66042131D01*
X52220397Y-66129539D01*
X52167093Y-66229263D01*
X52134269Y-66337469D01*
X52123186Y-66450000D01*
X52123186Y-66850000D01*
X52134269Y-66962531D01*
X52167093Y-67070737D01*
X52220397Y-67170461D01*
X52292131Y-67257869D01*
X52379539Y-67329603D01*
X52479263Y-67382907D01*
X52587469Y-67415731D01*
X52700000Y-67426814D01*
X52938569Y-67426814D01*
X52976711Y-67473290D01*
X52994071Y-67487537D01*
X55424093Y-69917561D01*
X55424094Y-72498550D01*
X55421892Y-72520907D01*
X55430677Y-72610102D01*
X55450574Y-72675693D01*
X55456695Y-72695870D01*
X55498945Y-72774914D01*
X55555804Y-72844197D01*
X55573164Y-72858444D01*
X59593800Y-76879082D01*
X59593801Y-81928843D01*
X59591599Y-81951200D01*
X59600384Y-82040395D01*
X59622207Y-82112333D01*
X59626402Y-82126163D01*
X59668652Y-82205207D01*
X59725511Y-82274490D01*
X59742870Y-82288736D01*
X59972600Y-82518467D01*
X59972600Y-82561557D01*
X59996619Y-82682306D01*
X60043732Y-82796048D01*
X60112131Y-82898414D01*
X60199186Y-82985469D01*
X60301552Y-83053868D01*
X60415294Y-83100981D01*
X60536043Y-83125000D01*
X60659157Y-83125000D01*
X60779906Y-83100981D01*
X60893648Y-83053868D01*
X60996014Y-82985469D01*
X61083069Y-82898414D01*
X61151468Y-82796048D01*
X61198581Y-82682306D01*
X61222600Y-82561557D01*
X61222600Y-82438443D01*
X61198581Y-82317694D01*
X61151468Y-82203952D01*
X61083069Y-82101586D01*
X60996014Y-82014531D01*
X60893648Y-81946132D01*
X60779906Y-81899019D01*
X60659157Y-81875000D01*
X60616067Y-81875000D01*
X60503800Y-81762733D01*
X60503800Y-81668109D01*
X60538443Y-81675000D01*
X60661557Y-81675000D01*
X60782306Y-81650981D01*
X60896048Y-81603868D01*
X60998414Y-81535469D01*
X61085469Y-81448414D01*
X61153868Y-81346048D01*
X61200981Y-81232306D01*
X61225000Y-81111557D01*
X61225000Y-80988443D01*
X61200981Y-80867694D01*
X61156217Y-80759624D01*
X61233518Y-80775000D01*
X61366482Y-80775000D01*
X61496890Y-80749060D01*
X61619732Y-80698177D01*
X61632591Y-80689585D01*
X61632591Y-83211680D01*
X61630389Y-83234037D01*
X61639174Y-83323232D01*
X61662943Y-83401586D01*
X61665192Y-83409000D01*
X61707442Y-83488044D01*
X61737534Y-83524711D01*
X61699019Y-83617694D01*
X61675000Y-83738443D01*
X61675000Y-83861557D01*
X61699019Y-83982306D01*
X61746132Y-84096048D01*
X61814531Y-84198414D01*
X61901586Y-84285469D01*
X62003952Y-84353868D01*
X62117694Y-84400981D01*
X62151140Y-84407634D01*
X61708803Y-84407634D01*
X61686456Y-84405433D01*
X61597260Y-84414218D01*
X61571243Y-84422110D01*
X61511493Y-84440235D01*
X61432449Y-84482485D01*
X61363166Y-84539344D01*
X61348919Y-84556704D01*
X61291705Y-84613918D01*
X61248615Y-84613918D01*
X61127866Y-84637937D01*
X61014124Y-84685050D01*
X60911758Y-84753449D01*
X60824703Y-84840504D01*
X60756304Y-84942870D01*
X60709191Y-85056612D01*
X60685172Y-85177361D01*
X60685172Y-85300475D01*
X60709191Y-85421224D01*
X60756304Y-85534966D01*
X60819930Y-85630188D01*
X56537148Y-85630188D01*
X56514811Y-85627988D01*
X56492474Y-85630188D01*
X56492465Y-85630188D01*
X56425617Y-85636772D01*
X56339849Y-85662789D01*
X56260805Y-85705039D01*
X56191522Y-85761898D01*
X56180769Y-85775000D01*
X56138443Y-85775000D01*
X56017694Y-85799019D01*
X55903952Y-85846132D01*
X55801586Y-85914531D01*
X55714531Y-86001586D01*
X55646132Y-86103952D01*
X55599019Y-86217694D01*
X55575000Y-86338443D01*
X55575000Y-86461557D01*
X55599019Y-86582306D01*
X55646132Y-86696048D01*
X55714531Y-86798414D01*
X55801586Y-86885469D01*
X55903952Y-86953868D01*
X56017694Y-87000981D01*
X56138443Y-87025000D01*
X56261557Y-87025000D01*
X56382306Y-87000981D01*
X56496048Y-86953868D01*
X56515993Y-86940541D01*
X56181534Y-87275000D01*
X56138443Y-87275000D01*
X56017694Y-87299019D01*
X55903952Y-87346132D01*
X55801586Y-87414531D01*
X55714531Y-87501586D01*
X55646647Y-87603181D01*
X54525000Y-86481534D01*
X54525000Y-86438443D01*
X54500981Y-86317694D01*
X54453868Y-86203952D01*
X54385469Y-86101586D01*
X54298414Y-86014531D01*
X54196048Y-85946132D01*
X54082306Y-85899019D01*
X53961557Y-85875000D01*
X53838443Y-85875000D01*
X53717694Y-85899019D01*
X53603952Y-85946132D01*
X53501586Y-86014531D01*
X53414531Y-86101586D01*
X53346132Y-86203952D01*
X53299019Y-86317694D01*
X53275000Y-86438443D01*
X53275000Y-86561557D01*
X53299019Y-86682306D01*
X53346132Y-86796048D01*
X53414531Y-86898414D01*
X53445001Y-86928884D01*
X53445000Y-87461533D01*
X51409242Y-89497291D01*
X51375574Y-89376519D01*
X51308279Y-89240221D01*
X51215686Y-89119671D01*
X51170146Y-89079772D01*
X51170461Y-89079603D01*
X51257869Y-89007869D01*
X51329603Y-88920461D01*
X51382907Y-88820737D01*
X51415731Y-88712531D01*
X51426814Y-88600000D01*
X51426814Y-88200000D01*
X51415731Y-88087469D01*
X51382907Y-87979263D01*
X51329603Y-87879539D01*
X51257869Y-87792131D01*
X51170461Y-87720397D01*
X51070737Y-87667093D01*
X50962531Y-87634269D01*
X50850000Y-87623186D01*
X49950000Y-87623186D01*
X49837469Y-87634269D01*
X49729263Y-87667093D01*
X49629539Y-87720397D01*
X49542131Y-87792131D01*
X49470397Y-87879539D01*
X49417093Y-87979263D01*
X49384269Y-88087469D01*
X49373186Y-88200000D01*
X49373186Y-88600000D01*
X49384269Y-88712531D01*
X49417093Y-88820737D01*
X49470397Y-88920461D01*
X49542131Y-89007869D01*
X49629539Y-89079603D01*
X49629854Y-89079772D01*
X49584314Y-89119671D01*
X49491721Y-89240221D01*
X49424426Y-89376519D01*
X49388850Y-89504134D01*
X49469209Y-89625000D01*
X50375000Y-89625000D01*
X50375000Y-89605000D01*
X50425000Y-89605000D01*
X50425000Y-89625000D01*
X50445000Y-89625000D01*
X50445000Y-89675000D01*
X50425000Y-89675000D01*
X50425000Y-89695000D01*
X50375000Y-89695000D01*
X50375000Y-89675000D01*
X49469209Y-89675000D01*
X49388850Y-89795866D01*
X49424426Y-89923481D01*
X49491721Y-90059779D01*
X49584314Y-90180329D01*
X49691188Y-90273965D01*
X49599341Y-90349341D01*
X49502494Y-90467350D01*
X49430530Y-90601986D01*
X49386214Y-90748074D01*
X49371251Y-90900000D01*
X49386214Y-91051926D01*
X49430530Y-91198014D01*
X49502494Y-91332650D01*
X49599341Y-91450659D01*
X49689926Y-91525000D01*
X49599341Y-91599341D01*
X49502494Y-91717350D01*
X49430530Y-91851986D01*
X49386214Y-91998074D01*
X49371251Y-92150000D01*
X49386214Y-92301926D01*
X49430530Y-92448014D01*
X49502494Y-92582650D01*
X49599341Y-92700659D01*
X49689926Y-92775000D01*
X49599341Y-92849341D01*
X49502494Y-92967350D01*
X49430530Y-93101986D01*
X49386214Y-93248074D01*
X49371251Y-93400000D01*
X49386214Y-93551926D01*
X49430530Y-93698014D01*
X49502494Y-93832650D01*
X49599341Y-93950659D01*
X49689926Y-94025000D01*
X49599341Y-94099341D01*
X49502494Y-94217350D01*
X49430530Y-94351986D01*
X49386214Y-94498074D01*
X49371251Y-94650000D01*
X49386214Y-94801926D01*
X49430530Y-94948014D01*
X49502494Y-95082650D01*
X49599341Y-95200659D01*
X49689926Y-95275000D01*
X49599341Y-95349341D01*
X49502494Y-95467350D01*
X49430530Y-95601986D01*
X49386214Y-95748074D01*
X49371251Y-95900000D01*
X49386214Y-96051926D01*
X49430530Y-96198014D01*
X49502494Y-96332650D01*
X49599341Y-96450659D01*
X49717350Y-96547506D01*
X49851986Y-96619470D01*
X49998074Y-96663786D01*
X50111935Y-96675000D01*
X50688065Y-96675000D01*
X50801926Y-96663786D01*
X50948014Y-96619470D01*
X51082650Y-96547506D01*
X51200659Y-96450659D01*
X51297506Y-96332650D01*
X51369470Y-96198014D01*
X51413786Y-96051926D01*
X51428749Y-95900000D01*
X51416620Y-95776846D01*
X54411233Y-92782234D01*
X54424585Y-92814468D01*
X54520343Y-92957780D01*
X54642220Y-93079657D01*
X54785532Y-93175415D01*
X54944772Y-93241374D01*
X55113820Y-93275000D01*
X55286180Y-93275000D01*
X55407418Y-93250884D01*
X57003186Y-94846653D01*
X57003186Y-94903186D01*
X56575000Y-94903186D01*
X56501487Y-94910426D01*
X56430800Y-94931869D01*
X56365653Y-94966691D01*
X56308552Y-95013552D01*
X56261691Y-95070653D01*
X56226869Y-95135800D01*
X56205426Y-95206487D01*
X56198186Y-95280000D01*
X56198186Y-95657500D01*
X55702022Y-95657500D01*
X55651443Y-95562872D01*
X55577377Y-95472623D01*
X55487128Y-95398557D01*
X55384162Y-95343521D01*
X55272439Y-95309630D01*
X55156250Y-95298186D01*
X54643750Y-95298186D01*
X54527561Y-95309630D01*
X54415838Y-95343521D01*
X54312872Y-95398557D01*
X54222623Y-95472623D01*
X54148557Y-95562872D01*
X54093521Y-95665838D01*
X54059630Y-95777561D01*
X54048186Y-95893750D01*
X54048186Y-96325000D01*
X54038443Y-96325000D01*
X53917694Y-96349019D01*
X53803952Y-96396132D01*
X53701586Y-96464531D01*
X53614531Y-96551586D01*
X53546132Y-96653952D01*
X53499019Y-96767694D01*
X53475000Y-96888443D01*
X53475000Y-97011557D01*
X53499019Y-97132306D01*
X53546132Y-97246048D01*
X53614531Y-97348414D01*
X53701586Y-97435469D01*
X53803952Y-97503868D01*
X53917694Y-97550981D01*
X54038443Y-97575000D01*
X54048186Y-97575000D01*
X54048186Y-97906250D01*
X54059630Y-98022439D01*
X54093521Y-98134162D01*
X54148557Y-98237128D01*
X54222623Y-98327377D01*
X54312872Y-98401443D01*
X54415838Y-98456479D01*
X54527561Y-98490370D01*
X54643750Y-98501814D01*
X55156250Y-98501814D01*
X55272439Y-98490370D01*
X55384162Y-98456479D01*
X55487128Y-98401443D01*
X55577377Y-98327377D01*
X55651443Y-98237128D01*
X55702022Y-98142500D01*
X56198186Y-98142500D01*
X56198186Y-98520000D01*
X56205426Y-98593513D01*
X56226869Y-98664200D01*
X56261691Y-98729347D01*
X56308552Y-98786448D01*
X56365653Y-98833309D01*
X56430800Y-98868131D01*
X56501487Y-98889574D01*
X56575000Y-98896814D01*
X57003186Y-98896814D01*
X57003186Y-99325000D01*
X57010426Y-99398513D01*
X57031869Y-99469200D01*
X57066691Y-99534347D01*
X57100054Y-99575000D01*
X48425000Y-99575000D01*
X48425000Y-82125000D01*
X48523186Y-82125000D01*
X48523186Y-83725000D01*
X48535230Y-83847285D01*
X48570899Y-83964871D01*
X48628823Y-84073239D01*
X48706776Y-84168224D01*
X48801761Y-84246177D01*
X48910129Y-84304101D01*
X49027715Y-84339770D01*
X49150000Y-84351814D01*
X51650000Y-84351814D01*
X51772285Y-84339770D01*
X51889871Y-84304101D01*
X51998239Y-84246177D01*
X52093224Y-84168224D01*
X52171177Y-84073239D01*
X52229101Y-83964871D01*
X52264770Y-83847285D01*
X52276814Y-83725000D01*
X52276814Y-83433518D01*
X59025000Y-83433518D01*
X59025000Y-83566482D01*
X59050940Y-83696890D01*
X59101823Y-83819732D01*
X59175693Y-83930287D01*
X59269713Y-84024307D01*
X59380268Y-84098177D01*
X59503110Y-84149060D01*
X59633518Y-84175000D01*
X59766482Y-84175000D01*
X59896890Y-84149060D01*
X60019732Y-84098177D01*
X60130287Y-84024307D01*
X60224307Y-83930287D01*
X60298177Y-83819732D01*
X60349060Y-83696890D01*
X60375000Y-83566482D01*
X60375000Y-83433518D01*
X60349060Y-83303110D01*
X60298177Y-83180268D01*
X60224307Y-83069713D01*
X60130287Y-82975693D01*
X60019732Y-82901823D01*
X59896890Y-82850940D01*
X59766482Y-82825000D01*
X59633518Y-82825000D01*
X59503110Y-82850940D01*
X59380268Y-82901823D01*
X59269713Y-82975693D01*
X59175693Y-83069713D01*
X59101823Y-83180268D01*
X59050940Y-83303110D01*
X59025000Y-83433518D01*
X52276814Y-83433518D01*
X52276814Y-82133518D01*
X56125000Y-82133518D01*
X56125000Y-82266482D01*
X56150940Y-82396890D01*
X56201823Y-82519732D01*
X56275693Y-82630287D01*
X56369713Y-82724307D01*
X56480268Y-82798177D01*
X56603110Y-82849060D01*
X56733518Y-82875000D01*
X56866482Y-82875000D01*
X56996890Y-82849060D01*
X57119732Y-82798177D01*
X57230287Y-82724307D01*
X57324307Y-82630287D01*
X57398177Y-82519732D01*
X57449060Y-82396890D01*
X57475000Y-82266482D01*
X57475000Y-82133518D01*
X57449060Y-82003110D01*
X57398177Y-81880268D01*
X57324307Y-81769713D01*
X57230287Y-81675693D01*
X57119732Y-81601823D01*
X56996890Y-81550940D01*
X56866482Y-81525000D01*
X56733518Y-81525000D01*
X56603110Y-81550940D01*
X56480268Y-81601823D01*
X56369713Y-81675693D01*
X56275693Y-81769713D01*
X56201823Y-81880268D01*
X56150940Y-82003110D01*
X56125000Y-82133518D01*
X52276814Y-82133518D01*
X52276814Y-82125000D01*
X52264770Y-82002715D01*
X52229101Y-81885129D01*
X52171177Y-81776761D01*
X52093224Y-81681776D01*
X51998239Y-81603823D01*
X51889871Y-81545899D01*
X51772285Y-81510230D01*
X51650000Y-81498186D01*
X49150000Y-81498186D01*
X49027715Y-81510230D01*
X48910129Y-81545899D01*
X48801761Y-81603823D01*
X48706776Y-81681776D01*
X48628823Y-81776761D01*
X48570899Y-81885129D01*
X48535230Y-82002715D01*
X48523186Y-82125000D01*
X48425000Y-82125000D01*
X48425000Y-78633518D01*
X50050000Y-78633518D01*
X50050000Y-78766482D01*
X50075940Y-78896890D01*
X50100000Y-78954976D01*
X50100000Y-79469306D01*
X50096977Y-79500000D01*
X50100000Y-79530694D01*
X50100000Y-79530703D01*
X50109043Y-79622520D01*
X50144781Y-79740333D01*
X50202817Y-79848910D01*
X50280920Y-79944080D01*
X50304776Y-79963658D01*
X51136346Y-80795229D01*
X51155920Y-80819080D01*
X51251089Y-80897183D01*
X51359666Y-80955219D01*
X51477479Y-80990957D01*
X51569296Y-81000000D01*
X51569298Y-81000000D01*
X51600000Y-81003024D01*
X51630701Y-81000000D01*
X52313005Y-81000000D01*
X52379539Y-81054603D01*
X52479263Y-81107907D01*
X52587469Y-81140731D01*
X52700000Y-81151814D01*
X53900000Y-81151814D01*
X54012531Y-81140731D01*
X54120737Y-81107907D01*
X54220461Y-81054603D01*
X54234826Y-81042814D01*
X54280268Y-81073177D01*
X54403110Y-81124060D01*
X54533518Y-81150000D01*
X54666482Y-81150000D01*
X54796890Y-81124060D01*
X54919732Y-81073177D01*
X55030287Y-80999307D01*
X55124307Y-80905287D01*
X55198177Y-80794732D01*
X55222238Y-80736645D01*
X55722631Y-80236252D01*
X55746481Y-80216679D01*
X55824584Y-80121510D01*
X55882620Y-80012933D01*
X55918358Y-79895120D01*
X55927401Y-79803303D01*
X55927401Y-79803294D01*
X55930424Y-79772600D01*
X55927401Y-79741906D01*
X55927401Y-77758094D01*
X55930424Y-77727400D01*
X55927401Y-77696706D01*
X55927401Y-77696697D01*
X55918358Y-77604880D01*
X55882620Y-77487067D01*
X55824584Y-77378490D01*
X55824583Y-77378488D01*
X55766053Y-77307169D01*
X55766050Y-77307166D01*
X55746481Y-77283321D01*
X55722635Y-77263751D01*
X54663658Y-76204776D01*
X54644080Y-76180920D01*
X54548911Y-76102817D01*
X54440334Y-76044781D01*
X54322521Y-76009043D01*
X54294672Y-76006300D01*
X54220461Y-75945397D01*
X54120737Y-75892093D01*
X54012531Y-75859269D01*
X53900000Y-75848186D01*
X52700000Y-75848186D01*
X52587469Y-75859269D01*
X52479263Y-75892093D01*
X52379539Y-75945397D01*
X52292131Y-76017131D01*
X52220397Y-76104539D01*
X52167093Y-76204263D01*
X52134269Y-76312469D01*
X52123186Y-76425000D01*
X52123186Y-76825000D01*
X52134269Y-76937531D01*
X52167093Y-77045737D01*
X52220397Y-77145461D01*
X52292131Y-77232869D01*
X52313005Y-77250000D01*
X52292131Y-77267131D01*
X52220397Y-77354539D01*
X52167093Y-77454263D01*
X52134269Y-77562469D01*
X52123186Y-77675000D01*
X52123186Y-78075000D01*
X52134269Y-78187531D01*
X52167093Y-78295737D01*
X52220397Y-78395461D01*
X52256631Y-78439612D01*
X52233552Y-78458552D01*
X52186691Y-78515653D01*
X52151869Y-78580800D01*
X52130426Y-78651487D01*
X52123186Y-78725000D01*
X52125000Y-79006250D01*
X52218750Y-79100000D01*
X53275000Y-79100000D01*
X53275000Y-79080000D01*
X53325000Y-79080000D01*
X53325000Y-79100000D01*
X53345000Y-79100000D01*
X53345000Y-79150000D01*
X53325000Y-79150000D01*
X53325000Y-79170000D01*
X53275000Y-79170000D01*
X53275000Y-79150000D01*
X52218750Y-79150000D01*
X52125000Y-79243750D01*
X52123186Y-79525000D01*
X52130426Y-79598513D01*
X52151869Y-79669200D01*
X52186691Y-79734347D01*
X52199537Y-79750000D01*
X51858883Y-79750000D01*
X51350000Y-79241118D01*
X51350000Y-78954976D01*
X51374060Y-78896890D01*
X51400000Y-78766482D01*
X51400000Y-78633518D01*
X51374060Y-78503110D01*
X51323177Y-78380268D01*
X51249307Y-78269713D01*
X51155287Y-78175693D01*
X51044732Y-78101823D01*
X50921890Y-78050940D01*
X50791482Y-78025000D01*
X50658518Y-78025000D01*
X50528110Y-78050940D01*
X50405268Y-78101823D01*
X50294713Y-78175693D01*
X50200693Y-78269713D01*
X50126823Y-78380268D01*
X50075940Y-78503110D01*
X50050000Y-78633518D01*
X48425000Y-78633518D01*
X48425000Y-73275000D01*
X48523186Y-73275000D01*
X48523186Y-74875000D01*
X48535230Y-74997285D01*
X48570899Y-75114871D01*
X48628823Y-75223239D01*
X48706776Y-75318224D01*
X48801761Y-75396177D01*
X48910129Y-75454101D01*
X49027715Y-75489770D01*
X49150000Y-75501814D01*
X51650000Y-75501814D01*
X51772285Y-75489770D01*
X51889871Y-75454101D01*
X51998239Y-75396177D01*
X52093224Y-75318224D01*
X52171177Y-75223239D01*
X52229101Y-75114871D01*
X52264770Y-74997285D01*
X52276814Y-74875000D01*
X52276814Y-73275000D01*
X52264770Y-73152715D01*
X52229101Y-73035129D01*
X52171177Y-72926761D01*
X52093224Y-72831776D01*
X51998239Y-72753823D01*
X51889871Y-72695899D01*
X51772285Y-72660230D01*
X51650000Y-72648186D01*
X49150000Y-72648186D01*
X49027715Y-72660230D01*
X48910129Y-72695899D01*
X48801761Y-72753823D01*
X48706776Y-72831776D01*
X48628823Y-72926761D01*
X48570899Y-73035129D01*
X48535230Y-73152715D01*
X48523186Y-73275000D01*
X48425000Y-73275000D01*
X48425000Y-68400000D01*
X48523186Y-68400000D01*
X48523186Y-70000000D01*
X48535230Y-70122285D01*
X48570899Y-70239871D01*
X48628823Y-70348239D01*
X48706776Y-70443224D01*
X48801761Y-70521177D01*
X48910129Y-70579101D01*
X49027715Y-70614770D01*
X49150000Y-70626814D01*
X51650000Y-70626814D01*
X51772285Y-70614770D01*
X51889871Y-70579101D01*
X51998239Y-70521177D01*
X52093224Y-70443224D01*
X52171177Y-70348239D01*
X52229101Y-70239871D01*
X52264770Y-70122285D01*
X52276814Y-70000000D01*
X52276814Y-68400000D01*
X52264770Y-68277715D01*
X52229101Y-68160129D01*
X52171177Y-68051761D01*
X52093224Y-67956776D01*
X51998239Y-67878823D01*
X51889871Y-67820899D01*
X51772285Y-67785230D01*
X51650000Y-67773186D01*
X49150000Y-67773186D01*
X49027715Y-67785230D01*
X48910129Y-67820899D01*
X48801761Y-67878823D01*
X48706776Y-67956776D01*
X48628823Y-68051761D01*
X48570899Y-68160129D01*
X48535230Y-68277715D01*
X48523186Y-68400000D01*
X48425000Y-68400000D01*
X48425000Y-63750000D01*
X52123186Y-63750000D01*
X52125000Y-64031250D01*
X52218750Y-64125000D01*
X53275000Y-64125000D01*
X53275000Y-63468750D01*
X53325000Y-63468750D01*
X53325000Y-64125000D01*
X54381250Y-64125000D01*
X54475000Y-64031250D01*
X54476814Y-63750000D01*
X54469574Y-63676487D01*
X54448131Y-63605800D01*
X54413309Y-63540653D01*
X54366448Y-63483552D01*
X54309347Y-63436691D01*
X54244200Y-63401869D01*
X54173513Y-63380426D01*
X54100000Y-63373186D01*
X53418750Y-63375000D01*
X53325000Y-63468750D01*
X53275000Y-63468750D01*
X53181250Y-63375000D01*
X52500000Y-63373186D01*
X52426487Y-63380426D01*
X52355800Y-63401869D01*
X52290653Y-63436691D01*
X52233552Y-63483552D01*
X52186691Y-63540653D01*
X52151869Y-63605800D01*
X52130426Y-63676487D01*
X52123186Y-63750000D01*
X48425000Y-63750000D01*
X48425000Y-60425000D01*
X48650785Y-60425000D01*
X48628823Y-60451761D01*
G36*
X65125000Y-88768468D02*
G01*
X65125000Y-88811557D01*
X65149019Y-88932306D01*
X65196132Y-89046048D01*
X65264531Y-89148414D01*
X65351586Y-89235469D01*
X65453952Y-89303868D01*
X65567694Y-89350981D01*
X65688443Y-89375000D01*
X65811557Y-89375000D01*
X65932306Y-89350981D01*
X66046048Y-89303868D01*
X66127402Y-89249509D01*
X66127401Y-96129132D01*
X64151699Y-98104835D01*
X64150000Y-97806250D01*
X64056250Y-97712500D01*
X63325000Y-97712500D01*
X63325000Y-98406250D01*
X63418750Y-98500000D01*
X63754823Y-98501711D01*
X63711534Y-98545000D01*
X61799352Y-98545000D01*
X61801814Y-98520000D01*
X61800000Y-98288750D01*
X61706250Y-98195000D01*
X61125000Y-98195000D01*
X61125000Y-98215000D01*
X61075000Y-98215000D01*
X61075000Y-98195000D01*
X61055000Y-98195000D01*
X61055000Y-98145000D01*
X61075000Y-98145000D01*
X61075000Y-98125000D01*
X61125000Y-98125000D01*
X61125000Y-98145000D01*
X61706250Y-98145000D01*
X61726250Y-98125000D01*
X62448186Y-98125000D01*
X62455426Y-98198513D01*
X62476869Y-98269200D01*
X62511691Y-98334347D01*
X62558552Y-98391448D01*
X62615653Y-98438309D01*
X62680800Y-98473131D01*
X62751487Y-98494574D01*
X62825000Y-98501814D01*
X63181250Y-98500000D01*
X63275000Y-98406250D01*
X63275000Y-97712500D01*
X62543750Y-97712500D01*
X62450000Y-97806250D01*
X62448186Y-98125000D01*
X61726250Y-98125000D01*
X61800000Y-98051250D01*
X61801814Y-97820000D01*
X61794574Y-97746487D01*
X61773131Y-97675800D01*
X61738309Y-97610653D01*
X61691448Y-97553552D01*
X61668842Y-97535000D01*
X61691448Y-97516448D01*
X61738309Y-97459347D01*
X61773131Y-97394200D01*
X61794574Y-97323513D01*
X61801814Y-97250000D01*
X61801814Y-96567500D01*
X62497978Y-96567500D01*
X62548557Y-96662128D01*
X62622623Y-96752377D01*
X62712872Y-96826443D01*
X62804162Y-96875238D01*
X62751487Y-96880426D01*
X62680800Y-96901869D01*
X62615653Y-96936691D01*
X62558552Y-96983552D01*
X62511691Y-97040653D01*
X62476869Y-97105800D01*
X62455426Y-97176487D01*
X62448186Y-97250000D01*
X62450000Y-97568750D01*
X62543750Y-97662500D01*
X63275000Y-97662500D01*
X63275000Y-97642500D01*
X63325000Y-97642500D01*
X63325000Y-97662500D01*
X64056250Y-97662500D01*
X64150000Y-97568750D01*
X64151814Y-97250000D01*
X64144574Y-97176487D01*
X64123131Y-97105800D01*
X64088309Y-97040653D01*
X64041448Y-96983552D01*
X63984347Y-96936691D01*
X63919200Y-96901869D01*
X63848513Y-96880426D01*
X63795838Y-96875238D01*
X63887128Y-96826443D01*
X63977377Y-96752377D01*
X64031929Y-96685906D01*
X64100220Y-96679180D01*
X64208608Y-96646301D01*
X64308498Y-96592908D01*
X64396054Y-96521054D01*
X64414065Y-96499107D01*
X65255974Y-95657199D01*
X65296890Y-95649060D01*
X65419732Y-95598177D01*
X65530287Y-95524307D01*
X65624307Y-95430287D01*
X65698177Y-95319732D01*
X65749060Y-95196890D01*
X65775000Y-95066482D01*
X65775000Y-94933518D01*
X65749060Y-94803110D01*
X65698177Y-94680268D01*
X65624307Y-94569713D01*
X65530287Y-94475693D01*
X65419732Y-94401823D01*
X65296890Y-94350940D01*
X65166482Y-94325000D01*
X65033518Y-94325000D01*
X64903110Y-94350940D01*
X64780268Y-94401823D01*
X64669713Y-94475693D01*
X64575693Y-94569713D01*
X64501823Y-94680268D01*
X64450940Y-94803110D01*
X64442801Y-94844026D01*
X63887756Y-95399072D01*
X63887128Y-95398557D01*
X63784162Y-95343521D01*
X63672439Y-95309630D01*
X63556250Y-95298186D01*
X63043750Y-95298186D01*
X62927561Y-95309630D01*
X62815838Y-95343521D01*
X62712872Y-95398557D01*
X62622623Y-95472623D01*
X62548557Y-95562872D01*
X62497978Y-95657500D01*
X61801814Y-95657500D01*
X61801814Y-95280000D01*
X61794574Y-95206487D01*
X61780091Y-95158743D01*
X61823290Y-95123290D01*
X61837541Y-95105925D01*
X64405936Y-92537532D01*
X64423290Y-92523290D01*
X64437532Y-92505936D01*
X64437535Y-92505933D01*
X64480148Y-92454008D01*
X64480149Y-92454007D01*
X64522399Y-92374963D01*
X64548416Y-92289195D01*
X64555000Y-92222347D01*
X64555000Y-92222338D01*
X64557200Y-92200001D01*
X64555000Y-92177664D01*
X64555000Y-91622347D01*
X64557201Y-91600000D01*
X64548416Y-91510804D01*
X64537182Y-91473770D01*
X64522399Y-91425037D01*
X64480149Y-91345993D01*
X64423290Y-91276710D01*
X64405931Y-91262464D01*
X63137541Y-89994075D01*
X63123290Y-89976710D01*
X63054007Y-89919851D01*
X62974963Y-89877601D01*
X62889195Y-89851584D01*
X62822347Y-89845000D01*
X62800000Y-89842799D01*
X62777653Y-89845000D01*
X61288467Y-89845000D01*
X59966231Y-88522765D01*
X59966231Y-87696483D01*
X59996700Y-87666014D01*
X60065099Y-87563648D01*
X60112212Y-87449906D01*
X60136231Y-87329157D01*
X60136231Y-87240199D01*
X63596733Y-87240199D01*
X65125000Y-88768468D01*
X65125000Y-88768468D01*
G37*
X65125000Y-88768468D02*
X65125000Y-88811557D01*
X65149019Y-88932306D01*
X65196132Y-89046048D01*
X65264531Y-89148414D01*
X65351586Y-89235469D01*
X65453952Y-89303868D01*
X65567694Y-89350981D01*
X65688443Y-89375000D01*
X65811557Y-89375000D01*
X65932306Y-89350981D01*
X66046048Y-89303868D01*
X66127402Y-89249509D01*
X66127401Y-96129132D01*
X64151699Y-98104835D01*
X64150000Y-97806250D01*
X64056250Y-97712500D01*
X63325000Y-97712500D01*
X63325000Y-98406250D01*
X63418750Y-98500000D01*
X63754823Y-98501711D01*
X63711534Y-98545000D01*
X61799352Y-98545000D01*
X61801814Y-98520000D01*
X61800000Y-98288750D01*
X61706250Y-98195000D01*
X61125000Y-98195000D01*
X61125000Y-98215000D01*
X61075000Y-98215000D01*
X61075000Y-98195000D01*
X61055000Y-98195000D01*
X61055000Y-98145000D01*
X61075000Y-98145000D01*
X61075000Y-98125000D01*
X61125000Y-98125000D01*
X61125000Y-98145000D01*
X61706250Y-98145000D01*
X61726250Y-98125000D01*
X62448186Y-98125000D01*
X62455426Y-98198513D01*
X62476869Y-98269200D01*
X62511691Y-98334347D01*
X62558552Y-98391448D01*
X62615653Y-98438309D01*
X62680800Y-98473131D01*
X62751487Y-98494574D01*
X62825000Y-98501814D01*
X63181250Y-98500000D01*
X63275000Y-98406250D01*
X63275000Y-97712500D01*
X62543750Y-97712500D01*
X62450000Y-97806250D01*
X62448186Y-98125000D01*
X61726250Y-98125000D01*
X61800000Y-98051250D01*
X61801814Y-97820000D01*
X61794574Y-97746487D01*
X61773131Y-97675800D01*
X61738309Y-97610653D01*
X61691448Y-97553552D01*
X61668842Y-97535000D01*
X61691448Y-97516448D01*
X61738309Y-97459347D01*
X61773131Y-97394200D01*
X61794574Y-97323513D01*
X61801814Y-97250000D01*
X61801814Y-96567500D01*
X62497978Y-96567500D01*
X62548557Y-96662128D01*
X62622623Y-96752377D01*
X62712872Y-96826443D01*
X62804162Y-96875238D01*
X62751487Y-96880426D01*
X62680800Y-96901869D01*
X62615653Y-96936691D01*
X62558552Y-96983552D01*
X62511691Y-97040653D01*
X62476869Y-97105800D01*
X62455426Y-97176487D01*
X62448186Y-97250000D01*
X62450000Y-97568750D01*
X62543750Y-97662500D01*
X63275000Y-97662500D01*
X63275000Y-97642500D01*
X63325000Y-97642500D01*
X63325000Y-97662500D01*
X64056250Y-97662500D01*
X64150000Y-97568750D01*
X64151814Y-97250000D01*
X64144574Y-97176487D01*
X64123131Y-97105800D01*
X64088309Y-97040653D01*
X64041448Y-96983552D01*
X63984347Y-96936691D01*
X63919200Y-96901869D01*
X63848513Y-96880426D01*
X63795838Y-96875238D01*
X63887128Y-96826443D01*
X63977377Y-96752377D01*
X64031929Y-96685906D01*
X64100220Y-96679180D01*
X64208608Y-96646301D01*
X64308498Y-96592908D01*
X64396054Y-96521054D01*
X64414065Y-96499107D01*
X65255974Y-95657199D01*
X65296890Y-95649060D01*
X65419732Y-95598177D01*
X65530287Y-95524307D01*
X65624307Y-95430287D01*
X65698177Y-95319732D01*
X65749060Y-95196890D01*
X65775000Y-95066482D01*
X65775000Y-94933518D01*
X65749060Y-94803110D01*
X65698177Y-94680268D01*
X65624307Y-94569713D01*
X65530287Y-94475693D01*
X65419732Y-94401823D01*
X65296890Y-94350940D01*
X65166482Y-94325000D01*
X65033518Y-94325000D01*
X64903110Y-94350940D01*
X64780268Y-94401823D01*
X64669713Y-94475693D01*
X64575693Y-94569713D01*
X64501823Y-94680268D01*
X64450940Y-94803110D01*
X64442801Y-94844026D01*
X63887756Y-95399072D01*
X63887128Y-95398557D01*
X63784162Y-95343521D01*
X63672439Y-95309630D01*
X63556250Y-95298186D01*
X63043750Y-95298186D01*
X62927561Y-95309630D01*
X62815838Y-95343521D01*
X62712872Y-95398557D01*
X62622623Y-95472623D01*
X62548557Y-95562872D01*
X62497978Y-95657500D01*
X61801814Y-95657500D01*
X61801814Y-95280000D01*
X61794574Y-95206487D01*
X61780091Y-95158743D01*
X61823290Y-95123290D01*
X61837541Y-95105925D01*
X64405936Y-92537532D01*
X64423290Y-92523290D01*
X64437532Y-92505936D01*
X64437535Y-92505933D01*
X64480148Y-92454008D01*
X64480149Y-92454007D01*
X64522399Y-92374963D01*
X64548416Y-92289195D01*
X64555000Y-92222347D01*
X64555000Y-92222338D01*
X64557200Y-92200001D01*
X64555000Y-92177664D01*
X64555000Y-91622347D01*
X64557201Y-91600000D01*
X64548416Y-91510804D01*
X64537182Y-91473770D01*
X64522399Y-91425037D01*
X64480149Y-91345993D01*
X64423290Y-91276710D01*
X64405931Y-91262464D01*
X63137541Y-89994075D01*
X63123290Y-89976710D01*
X63054007Y-89919851D01*
X62974963Y-89877601D01*
X62889195Y-89851584D01*
X62822347Y-89845000D01*
X62800000Y-89842799D01*
X62777653Y-89845000D01*
X61288467Y-89845000D01*
X59966231Y-88522765D01*
X59966231Y-87696483D01*
X59996700Y-87666014D01*
X60065099Y-87563648D01*
X60112212Y-87449906D01*
X60136231Y-87329157D01*
X60136231Y-87240199D01*
X63596733Y-87240199D01*
X65125000Y-88768468D01*
G36*
X60398186Y-95980000D02*
G01*
X60405426Y-96053513D01*
X60426869Y-96124200D01*
X60461691Y-96189347D01*
X60508552Y-96246448D01*
X60531158Y-96265000D01*
X60508552Y-96283552D01*
X60461691Y-96340653D01*
X60426869Y-96405800D01*
X60405426Y-96476487D01*
X60398186Y-96550000D01*
X60398186Y-97250000D01*
X60405426Y-97323513D01*
X60426869Y-97394200D01*
X60461691Y-97459347D01*
X60508552Y-97516448D01*
X60531158Y-97535000D01*
X60508552Y-97553552D01*
X60461691Y-97610653D01*
X60426869Y-97675800D01*
X60405426Y-97746487D01*
X60398186Y-97820000D01*
X60399607Y-98001141D01*
X60365139Y-97966673D01*
X60350888Y-97949308D01*
X60281605Y-97892449D01*
X60202561Y-97850199D01*
X60116793Y-97824182D01*
X60049945Y-97817598D01*
X60027598Y-97815397D01*
X60005251Y-97817598D01*
X59428883Y-97817598D01*
X59398414Y-97787129D01*
X59296048Y-97718730D01*
X59206732Y-97681735D01*
X59706066Y-97182401D01*
X59749156Y-97182401D01*
X59869905Y-97158382D01*
X59983647Y-97111269D01*
X60086013Y-97042870D01*
X60173068Y-96955815D01*
X60241467Y-96853449D01*
X60288580Y-96739707D01*
X60312599Y-96618958D01*
X60312599Y-96495844D01*
X60288580Y-96375095D01*
X60241467Y-96261353D01*
X60173068Y-96158987D01*
X60142599Y-96128518D01*
X60142599Y-95501814D01*
X60398186Y-95501814D01*
X60398186Y-95980000D01*
X60398186Y-95980000D01*
G37*
X60398186Y-95980000D02*
X60405426Y-96053513D01*
X60426869Y-96124200D01*
X60461691Y-96189347D01*
X60508552Y-96246448D01*
X60531158Y-96265000D01*
X60508552Y-96283552D01*
X60461691Y-96340653D01*
X60426869Y-96405800D01*
X60405426Y-96476487D01*
X60398186Y-96550000D01*
X60398186Y-97250000D01*
X60405426Y-97323513D01*
X60426869Y-97394200D01*
X60461691Y-97459347D01*
X60508552Y-97516448D01*
X60531158Y-97535000D01*
X60508552Y-97553552D01*
X60461691Y-97610653D01*
X60426869Y-97675800D01*
X60405426Y-97746487D01*
X60398186Y-97820000D01*
X60399607Y-98001141D01*
X60365139Y-97966673D01*
X60350888Y-97949308D01*
X60281605Y-97892449D01*
X60202561Y-97850199D01*
X60116793Y-97824182D01*
X60049945Y-97817598D01*
X60027598Y-97815397D01*
X60005251Y-97817598D01*
X59428883Y-97817598D01*
X59398414Y-97787129D01*
X59296048Y-97718730D01*
X59206732Y-97681735D01*
X59706066Y-97182401D01*
X59749156Y-97182401D01*
X59869905Y-97158382D01*
X59983647Y-97111269D01*
X60086013Y-97042870D01*
X60173068Y-96955815D01*
X60241467Y-96853449D01*
X60288580Y-96739707D01*
X60312599Y-96618958D01*
X60312599Y-96495844D01*
X60288580Y-96375095D01*
X60241467Y-96261353D01*
X60173068Y-96158987D01*
X60142599Y-96128518D01*
X60142599Y-95501814D01*
X60398186Y-95501814D01*
X60398186Y-95980000D01*
G36*
X58886231Y-87329157D02*
G01*
X58910250Y-87449906D01*
X58957363Y-87563648D01*
X59025762Y-87666014D01*
X59056231Y-87696483D01*
X59056232Y-88688874D01*
X59054030Y-88711231D01*
X59062815Y-88800426D01*
X59085437Y-88875000D01*
X59088833Y-88886194D01*
X59131083Y-88965238D01*
X59187942Y-89034521D01*
X59205302Y-89048768D01*
X60414941Y-90258408D01*
X60361557Y-90247789D01*
X60238443Y-90247789D01*
X60117694Y-90271808D01*
X60003952Y-90318921D01*
X59901586Y-90387320D01*
X59814531Y-90474375D01*
X59746132Y-90576741D01*
X59699019Y-90690483D01*
X59675000Y-90811232D01*
X59675000Y-90900190D01*
X59659669Y-90900190D01*
X59654843Y-90894309D01*
X59585560Y-90837450D01*
X59506516Y-90795200D01*
X59420748Y-90769183D01*
X59353900Y-90762599D01*
X59331553Y-90760398D01*
X59309206Y-90762599D01*
X59104901Y-90762599D01*
X59125000Y-90661557D01*
X59125000Y-90538443D01*
X59100981Y-90417694D01*
X59053868Y-90303952D01*
X58985469Y-90201586D01*
X58983883Y-90200000D01*
X58985469Y-90198414D01*
X59053868Y-90096048D01*
X59100981Y-89982306D01*
X59125000Y-89861557D01*
X59125000Y-89738443D01*
X59100981Y-89617694D01*
X59053868Y-89503952D01*
X58985469Y-89401586D01*
X58898414Y-89314531D01*
X58796048Y-89246132D01*
X58682306Y-89199019D01*
X58561557Y-89175000D01*
X58438443Y-89175000D01*
X58317694Y-89199019D01*
X58203952Y-89246132D01*
X58101586Y-89314531D01*
X58071117Y-89345000D01*
X53582347Y-89345000D01*
X53560000Y-89342799D01*
X53470804Y-89351584D01*
X53444787Y-89359476D01*
X53385037Y-89377601D01*
X53305993Y-89419851D01*
X53236710Y-89476710D01*
X53222463Y-89494070D01*
X51154815Y-91561718D01*
X51110074Y-91525000D01*
X51200659Y-91450659D01*
X51297506Y-91332650D01*
X51369470Y-91198014D01*
X51413786Y-91051926D01*
X51428749Y-90900000D01*
X51416620Y-90776846D01*
X54205931Y-87987536D01*
X54223290Y-87973290D01*
X54280149Y-87904007D01*
X54322399Y-87824963D01*
X54348416Y-87739195D01*
X54355000Y-87672347D01*
X54355000Y-87672345D01*
X54357201Y-87650001D01*
X54355000Y-87627656D01*
X54355000Y-87598466D01*
X55444864Y-88688331D01*
X55459111Y-88705691D01*
X55528394Y-88762550D01*
X55607438Y-88804800D01*
X55693206Y-88830817D01*
X55760054Y-88837401D01*
X55760056Y-88837401D01*
X55782400Y-88839602D01*
X55804745Y-88837401D01*
X56409206Y-88837401D01*
X56431553Y-88839602D01*
X56520748Y-88830817D01*
X56520751Y-88830816D01*
X56606516Y-88804800D01*
X56685560Y-88762550D01*
X56754843Y-88705691D01*
X56769094Y-88688326D01*
X58217222Y-87240199D01*
X58886231Y-87240199D01*
X58886231Y-87329157D01*
X58886231Y-87329157D01*
G37*
X58886231Y-87329157D02*
X58910250Y-87449906D01*
X58957363Y-87563648D01*
X59025762Y-87666014D01*
X59056231Y-87696483D01*
X59056232Y-88688874D01*
X59054030Y-88711231D01*
X59062815Y-88800426D01*
X59085437Y-88875000D01*
X59088833Y-88886194D01*
X59131083Y-88965238D01*
X59187942Y-89034521D01*
X59205302Y-89048768D01*
X60414941Y-90258408D01*
X60361557Y-90247789D01*
X60238443Y-90247789D01*
X60117694Y-90271808D01*
X60003952Y-90318921D01*
X59901586Y-90387320D01*
X59814531Y-90474375D01*
X59746132Y-90576741D01*
X59699019Y-90690483D01*
X59675000Y-90811232D01*
X59675000Y-90900190D01*
X59659669Y-90900190D01*
X59654843Y-90894309D01*
X59585560Y-90837450D01*
X59506516Y-90795200D01*
X59420748Y-90769183D01*
X59353900Y-90762599D01*
X59331553Y-90760398D01*
X59309206Y-90762599D01*
X59104901Y-90762599D01*
X59125000Y-90661557D01*
X59125000Y-90538443D01*
X59100981Y-90417694D01*
X59053868Y-90303952D01*
X58985469Y-90201586D01*
X58983883Y-90200000D01*
X58985469Y-90198414D01*
X59053868Y-90096048D01*
X59100981Y-89982306D01*
X59125000Y-89861557D01*
X59125000Y-89738443D01*
X59100981Y-89617694D01*
X59053868Y-89503952D01*
X58985469Y-89401586D01*
X58898414Y-89314531D01*
X58796048Y-89246132D01*
X58682306Y-89199019D01*
X58561557Y-89175000D01*
X58438443Y-89175000D01*
X58317694Y-89199019D01*
X58203952Y-89246132D01*
X58101586Y-89314531D01*
X58071117Y-89345000D01*
X53582347Y-89345000D01*
X53560000Y-89342799D01*
X53470804Y-89351584D01*
X53444787Y-89359476D01*
X53385037Y-89377601D01*
X53305993Y-89419851D01*
X53236710Y-89476710D01*
X53222463Y-89494070D01*
X51154815Y-91561718D01*
X51110074Y-91525000D01*
X51200659Y-91450659D01*
X51297506Y-91332650D01*
X51369470Y-91198014D01*
X51413786Y-91051926D01*
X51428749Y-90900000D01*
X51416620Y-90776846D01*
X54205931Y-87987536D01*
X54223290Y-87973290D01*
X54280149Y-87904007D01*
X54322399Y-87824963D01*
X54348416Y-87739195D01*
X54355000Y-87672347D01*
X54355000Y-87672345D01*
X54357201Y-87650001D01*
X54355000Y-87627656D01*
X54355000Y-87598466D01*
X55444864Y-88688331D01*
X55459111Y-88705691D01*
X55528394Y-88762550D01*
X55607438Y-88804800D01*
X55693206Y-88830817D01*
X55760054Y-88837401D01*
X55760056Y-88837401D01*
X55782400Y-88839602D01*
X55804745Y-88837401D01*
X56409206Y-88837401D01*
X56431553Y-88839602D01*
X56520748Y-88830817D01*
X56520751Y-88830816D01*
X56606516Y-88804800D01*
X56685560Y-88762550D01*
X56754843Y-88705691D01*
X56769094Y-88688326D01*
X58217222Y-87240199D01*
X58886231Y-87240199D01*
X58886231Y-87329157D01*
M02*
