G04 #@! TF.GenerationSoftware,KiCad,Pcbnew,(5.1.4-0-10_14)*
G04 #@! TF.CreationDate,2020-03-01T16:52:25+01:00*
G04 #@! TF.ProjectId,actuator-board,61637475-6174-46f7-922d-626f6172642e,A.1*
G04 #@! TF.SameCoordinates,Original*
G04 #@! TF.FileFunction,Copper,L3,Inr*
G04 #@! TF.FilePolarity,Positive*
%FSLAX46Y46*%
G04 Gerber Fmt 4.6, Leading zero omitted, Abs format (unit mm)*
G04 Created by KiCad (PCBNEW (5.1.4-0-10_14)) date 2020-03-01 16:52:25*
%MOMM*%
%LPD*%
G04 APERTURE LIST*
%ADD10R,1.700000X1.700000*%
%ADD11O,1.700000X1.700000*%
%ADD12C,0.100000*%
%ADD13C,0.800000*%
%ADD14O,1.300000X0.800000*%
%ADD15C,0.600000*%
%ADD16C,0.500000*%
%ADD17C,1.000000*%
%ADD18C,0.250000*%
G04 APERTURE END LIST*
D10*
X68200000Y-81800000D03*
D11*
X68200000Y-79260000D03*
D10*
X64600000Y-81800000D03*
D11*
X64600000Y-79260000D03*
X64600000Y-76720000D03*
D12*
G36*
X50869603Y-88000963D02*
G01*
X50889018Y-88003843D01*
X50908057Y-88008612D01*
X50926537Y-88015224D01*
X50944279Y-88023616D01*
X50961114Y-88033706D01*
X50976879Y-88045398D01*
X50991421Y-88058579D01*
X51004602Y-88073121D01*
X51016294Y-88088886D01*
X51026384Y-88105721D01*
X51034776Y-88123463D01*
X51041388Y-88141943D01*
X51046157Y-88160982D01*
X51049037Y-88180397D01*
X51050000Y-88200000D01*
X51050000Y-88600000D01*
X51049037Y-88619603D01*
X51046157Y-88639018D01*
X51041388Y-88658057D01*
X51034776Y-88676537D01*
X51026384Y-88694279D01*
X51016294Y-88711114D01*
X51004602Y-88726879D01*
X50991421Y-88741421D01*
X50976879Y-88754602D01*
X50961114Y-88766294D01*
X50944279Y-88776384D01*
X50926537Y-88784776D01*
X50908057Y-88791388D01*
X50889018Y-88796157D01*
X50869603Y-88799037D01*
X50850000Y-88800000D01*
X49950000Y-88800000D01*
X49930397Y-88799037D01*
X49910982Y-88796157D01*
X49891943Y-88791388D01*
X49873463Y-88784776D01*
X49855721Y-88776384D01*
X49838886Y-88766294D01*
X49823121Y-88754602D01*
X49808579Y-88741421D01*
X49795398Y-88726879D01*
X49783706Y-88711114D01*
X49773616Y-88694279D01*
X49765224Y-88676537D01*
X49758612Y-88658057D01*
X49753843Y-88639018D01*
X49750963Y-88619603D01*
X49750000Y-88600000D01*
X49750000Y-88200000D01*
X49750963Y-88180397D01*
X49753843Y-88160982D01*
X49758612Y-88141943D01*
X49765224Y-88123463D01*
X49773616Y-88105721D01*
X49783706Y-88088886D01*
X49795398Y-88073121D01*
X49808579Y-88058579D01*
X49823121Y-88045398D01*
X49838886Y-88033706D01*
X49855721Y-88023616D01*
X49873463Y-88015224D01*
X49891943Y-88008612D01*
X49910982Y-88003843D01*
X49930397Y-88000963D01*
X49950000Y-88000000D01*
X50850000Y-88000000D01*
X50869603Y-88000963D01*
X50869603Y-88000963D01*
G37*
D13*
X50400000Y-88400000D03*
D14*
X50400000Y-89650000D03*
X50400000Y-90900000D03*
X50400000Y-92150000D03*
X50400000Y-93400000D03*
X50400000Y-94650000D03*
X50400000Y-95900000D03*
D15*
X56800000Y-82200000D03*
X67200000Y-83800000D03*
X59700000Y-83500000D03*
X65100000Y-95000000D03*
X61300000Y-80100000D03*
D16*
X54100000Y-96950000D03*
X62600000Y-88500000D03*
X61700000Y-87600000D03*
X63500000Y-89400000D03*
X61700000Y-89400000D03*
X63500000Y-87600000D03*
X57657500Y-67235000D03*
X60342500Y-67235000D03*
X50000000Y-65700000D03*
X67800000Y-65500000D03*
X59000000Y-61600000D03*
X51900000Y-78500000D03*
X68800000Y-96600000D03*
X59600000Y-97500000D03*
X52900000Y-97500000D03*
X65650000Y-96150000D03*
X68000000Y-86700000D03*
X68600000Y-72300000D03*
X57657500Y-65765000D03*
X60342500Y-65765000D03*
X53900000Y-82900000D03*
X54500000Y-88500000D03*
X61811578Y-72588422D03*
X63000000Y-94700000D03*
X65750000Y-88750000D03*
X53900000Y-86500000D03*
X65700000Y-87300000D03*
X56200000Y-86400000D03*
X65700000Y-86647597D03*
X56200000Y-87900000D03*
D15*
X52000000Y-65400000D03*
X66000000Y-65400000D03*
X65200000Y-73200000D03*
X58900000Y-73800000D03*
X59500000Y-73800000D03*
D16*
X58500000Y-89800000D03*
X58500000Y-90600000D03*
X62832400Y-91800000D03*
X62600000Y-92500000D03*
X59100000Y-91700000D03*
D15*
X50725000Y-78700000D03*
X62200000Y-63800000D03*
X63000000Y-63500000D03*
X56300000Y-62400000D03*
X54700000Y-66600000D03*
D16*
X60600000Y-81050000D03*
X60597600Y-82500000D03*
X61310172Y-85238918D03*
X67200000Y-96600000D03*
X59200000Y-94200000D03*
X59687599Y-96557401D03*
X59800000Y-93700000D03*
X58400000Y-95600000D03*
X59511231Y-87267600D03*
X60300000Y-90872789D03*
X60700000Y-70700000D03*
X64500000Y-83800000D03*
X57400000Y-70700000D03*
X63800000Y-83800000D03*
X59000000Y-98272598D03*
X63340944Y-85345035D03*
X62300000Y-83800000D03*
X56700000Y-70700000D03*
D15*
X54600000Y-80475000D03*
X54600000Y-79100000D03*
D17*
X66000000Y-72400000D02*
X65200000Y-73200000D01*
X66000000Y-65400000D02*
X66000000Y-72400000D01*
X52647599Y-64752401D02*
X52000000Y-65400000D01*
X65352401Y-64752401D02*
X52647599Y-64752401D01*
X66000000Y-65400000D02*
X65352401Y-64752401D01*
X64600000Y-81800000D02*
X68200000Y-81800000D01*
X63800000Y-81800000D02*
X64600000Y-81800000D01*
X62604777Y-80604777D02*
X63800000Y-81800000D01*
X60600000Y-73800000D02*
X62604777Y-75804777D01*
X59500000Y-73800000D02*
X60600000Y-73800000D01*
X62604777Y-75804777D02*
X62604777Y-80604777D01*
X59500000Y-73800000D02*
X58900000Y-73800000D01*
D18*
G36*
X69575000Y-99575000D02*
G01*
X48425000Y-99575000D01*
X48425000Y-98211041D01*
X58375000Y-98211041D01*
X58375000Y-98334155D01*
X58399019Y-98454904D01*
X58446132Y-98568646D01*
X58514531Y-98671012D01*
X58601586Y-98758067D01*
X58703952Y-98826466D01*
X58817694Y-98873579D01*
X58938443Y-98897598D01*
X59061557Y-98897598D01*
X59182306Y-98873579D01*
X59296048Y-98826466D01*
X59398414Y-98758067D01*
X59485469Y-98671012D01*
X59553868Y-98568646D01*
X59600981Y-98454904D01*
X59625000Y-98334155D01*
X59625000Y-98211041D01*
X59607885Y-98125000D01*
X59661557Y-98125000D01*
X59782306Y-98100981D01*
X59896048Y-98053868D01*
X59998414Y-97985469D01*
X60085469Y-97898414D01*
X60153868Y-97796048D01*
X60200981Y-97682306D01*
X60225000Y-97561557D01*
X60225000Y-97438443D01*
X60200981Y-97317694D01*
X60153868Y-97203952D01*
X60085469Y-97101586D01*
X60050489Y-97066606D01*
X60086013Y-97042870D01*
X60173068Y-96955815D01*
X60241467Y-96853449D01*
X60288580Y-96739707D01*
X60312599Y-96618958D01*
X60312599Y-96495844D01*
X60288580Y-96375095D01*
X60241467Y-96261353D01*
X60173068Y-96158987D01*
X60102524Y-96088443D01*
X65025000Y-96088443D01*
X65025000Y-96211557D01*
X65049019Y-96332306D01*
X65096132Y-96446048D01*
X65164531Y-96548414D01*
X65251586Y-96635469D01*
X65353952Y-96703868D01*
X65467694Y-96750981D01*
X65588443Y-96775000D01*
X65711557Y-96775000D01*
X65832306Y-96750981D01*
X65946048Y-96703868D01*
X66048414Y-96635469D01*
X66135469Y-96548414D01*
X66142131Y-96538443D01*
X66575000Y-96538443D01*
X66575000Y-96661557D01*
X66599019Y-96782306D01*
X66646132Y-96896048D01*
X66714531Y-96998414D01*
X66801586Y-97085469D01*
X66903952Y-97153868D01*
X67017694Y-97200981D01*
X67138443Y-97225000D01*
X67261557Y-97225000D01*
X67382306Y-97200981D01*
X67496048Y-97153868D01*
X67598414Y-97085469D01*
X67685469Y-96998414D01*
X67753868Y-96896048D01*
X67800981Y-96782306D01*
X67825000Y-96661557D01*
X67825000Y-96538443D01*
X68175000Y-96538443D01*
X68175000Y-96661557D01*
X68199019Y-96782306D01*
X68246132Y-96896048D01*
X68314531Y-96998414D01*
X68401586Y-97085469D01*
X68503952Y-97153868D01*
X68617694Y-97200981D01*
X68738443Y-97225000D01*
X68861557Y-97225000D01*
X68982306Y-97200981D01*
X69096048Y-97153868D01*
X69198414Y-97085469D01*
X69285469Y-96998414D01*
X69353868Y-96896048D01*
X69400981Y-96782306D01*
X69425000Y-96661557D01*
X69425000Y-96538443D01*
X69400981Y-96417694D01*
X69353868Y-96303952D01*
X69285469Y-96201586D01*
X69198414Y-96114531D01*
X69096048Y-96046132D01*
X68982306Y-95999019D01*
X68861557Y-95975000D01*
X68738443Y-95975000D01*
X68617694Y-95999019D01*
X68503952Y-96046132D01*
X68401586Y-96114531D01*
X68314531Y-96201586D01*
X68246132Y-96303952D01*
X68199019Y-96417694D01*
X68175000Y-96538443D01*
X67825000Y-96538443D01*
X67800981Y-96417694D01*
X67753868Y-96303952D01*
X67685469Y-96201586D01*
X67598414Y-96114531D01*
X67496048Y-96046132D01*
X67382306Y-95999019D01*
X67261557Y-95975000D01*
X67138443Y-95975000D01*
X67017694Y-95999019D01*
X66903952Y-96046132D01*
X66801586Y-96114531D01*
X66714531Y-96201586D01*
X66646132Y-96303952D01*
X66599019Y-96417694D01*
X66575000Y-96538443D01*
X66142131Y-96538443D01*
X66203868Y-96446048D01*
X66250981Y-96332306D01*
X66275000Y-96211557D01*
X66275000Y-96088443D01*
X66250981Y-95967694D01*
X66203868Y-95853952D01*
X66135469Y-95751586D01*
X66048414Y-95664531D01*
X65946048Y-95596132D01*
X65832306Y-95549019D01*
X65711557Y-95525000D01*
X65588443Y-95525000D01*
X65467694Y-95549019D01*
X65353952Y-95596132D01*
X65251586Y-95664531D01*
X65164531Y-95751586D01*
X65096132Y-95853952D01*
X65049019Y-95967694D01*
X65025000Y-96088443D01*
X60102524Y-96088443D01*
X60086013Y-96071932D01*
X59983647Y-96003533D01*
X59869905Y-95956420D01*
X59749156Y-95932401D01*
X59626042Y-95932401D01*
X59505293Y-95956420D01*
X59391551Y-96003533D01*
X59289185Y-96071932D01*
X59202130Y-96158987D01*
X59133731Y-96261353D01*
X59086618Y-96375095D01*
X59062599Y-96495844D01*
X59062599Y-96618958D01*
X59086618Y-96739707D01*
X59133731Y-96853449D01*
X59202130Y-96955815D01*
X59237110Y-96990795D01*
X59201586Y-97014531D01*
X59114531Y-97101586D01*
X59046132Y-97203952D01*
X58999019Y-97317694D01*
X58975000Y-97438443D01*
X58975000Y-97561557D01*
X58992115Y-97647598D01*
X58938443Y-97647598D01*
X58817694Y-97671617D01*
X58703952Y-97718730D01*
X58601586Y-97787129D01*
X58514531Y-97874184D01*
X58446132Y-97976550D01*
X58399019Y-98090292D01*
X58375000Y-98211041D01*
X48425000Y-98211041D01*
X48425000Y-97438443D01*
X52275000Y-97438443D01*
X52275000Y-97561557D01*
X52299019Y-97682306D01*
X52346132Y-97796048D01*
X52414531Y-97898414D01*
X52501586Y-97985469D01*
X52603952Y-98053868D01*
X52717694Y-98100981D01*
X52838443Y-98125000D01*
X52961557Y-98125000D01*
X53082306Y-98100981D01*
X53196048Y-98053868D01*
X53298414Y-97985469D01*
X53385469Y-97898414D01*
X53453868Y-97796048D01*
X53500981Y-97682306D01*
X53525000Y-97561557D01*
X53525000Y-97438443D01*
X53500981Y-97317694D01*
X53453868Y-97203952D01*
X53385469Y-97101586D01*
X53298414Y-97014531D01*
X53196048Y-96946132D01*
X53082306Y-96899019D01*
X52961557Y-96875000D01*
X52838443Y-96875000D01*
X52717694Y-96899019D01*
X52603952Y-96946132D01*
X52501586Y-97014531D01*
X52414531Y-97101586D01*
X52346132Y-97203952D01*
X52299019Y-97317694D01*
X52275000Y-97438443D01*
X48425000Y-97438443D01*
X48425000Y-89650000D01*
X49371251Y-89650000D01*
X49386214Y-89801926D01*
X49430530Y-89948014D01*
X49502494Y-90082650D01*
X49599341Y-90200659D01*
X49689926Y-90275000D01*
X49599341Y-90349341D01*
X49502494Y-90467350D01*
X49430530Y-90601986D01*
X49386214Y-90748074D01*
X49371251Y-90900000D01*
X49386214Y-91051926D01*
X49430530Y-91198014D01*
X49502494Y-91332650D01*
X49599341Y-91450659D01*
X49689926Y-91525000D01*
X49599341Y-91599341D01*
X49502494Y-91717350D01*
X49430530Y-91851986D01*
X49386214Y-91998074D01*
X49371251Y-92150000D01*
X49386214Y-92301926D01*
X49430530Y-92448014D01*
X49502494Y-92582650D01*
X49599341Y-92700659D01*
X49689926Y-92775000D01*
X49599341Y-92849341D01*
X49502494Y-92967350D01*
X49430530Y-93101986D01*
X49386214Y-93248074D01*
X49371251Y-93400000D01*
X49386214Y-93551926D01*
X49430530Y-93698014D01*
X49502494Y-93832650D01*
X49599341Y-93950659D01*
X49689926Y-94025000D01*
X49599341Y-94099341D01*
X49502494Y-94217350D01*
X49430530Y-94351986D01*
X49386214Y-94498074D01*
X49371251Y-94650000D01*
X49386214Y-94801926D01*
X49430530Y-94948014D01*
X49502494Y-95082650D01*
X49599341Y-95200659D01*
X49689926Y-95275000D01*
X49599341Y-95349341D01*
X49502494Y-95467350D01*
X49430530Y-95601986D01*
X49386214Y-95748074D01*
X49371251Y-95900000D01*
X49386214Y-96051926D01*
X49430530Y-96198014D01*
X49502494Y-96332650D01*
X49599341Y-96450659D01*
X49717350Y-96547506D01*
X49851986Y-96619470D01*
X49998074Y-96663786D01*
X50111935Y-96675000D01*
X50688065Y-96675000D01*
X50801926Y-96663786D01*
X50948014Y-96619470D01*
X51082650Y-96547506D01*
X51200659Y-96450659D01*
X51297506Y-96332650D01*
X51369470Y-96198014D01*
X51413786Y-96051926D01*
X51428749Y-95900000D01*
X51413786Y-95748074D01*
X51369470Y-95601986D01*
X51335506Y-95538443D01*
X57775000Y-95538443D01*
X57775000Y-95661557D01*
X57799019Y-95782306D01*
X57846132Y-95896048D01*
X57914531Y-95998414D01*
X58001586Y-96085469D01*
X58103952Y-96153868D01*
X58217694Y-96200981D01*
X58338443Y-96225000D01*
X58461557Y-96225000D01*
X58582306Y-96200981D01*
X58696048Y-96153868D01*
X58798414Y-96085469D01*
X58885469Y-95998414D01*
X58953868Y-95896048D01*
X59000981Y-95782306D01*
X59025000Y-95661557D01*
X59025000Y-95538443D01*
X59000981Y-95417694D01*
X58953868Y-95303952D01*
X58885469Y-95201586D01*
X58798414Y-95114531D01*
X58696048Y-95046132D01*
X58582306Y-94999019D01*
X58461557Y-94975000D01*
X58338443Y-94975000D01*
X58217694Y-94999019D01*
X58103952Y-95046132D01*
X58001586Y-95114531D01*
X57914531Y-95201586D01*
X57846132Y-95303952D01*
X57799019Y-95417694D01*
X57775000Y-95538443D01*
X51335506Y-95538443D01*
X51297506Y-95467350D01*
X51200659Y-95349341D01*
X51110074Y-95275000D01*
X51200659Y-95200659D01*
X51297506Y-95082650D01*
X51369470Y-94948014D01*
X51413786Y-94801926D01*
X51428749Y-94650000D01*
X51413786Y-94498074D01*
X51369470Y-94351986D01*
X51297506Y-94217350D01*
X51232750Y-94138443D01*
X58575000Y-94138443D01*
X58575000Y-94261557D01*
X58599019Y-94382306D01*
X58646132Y-94496048D01*
X58714531Y-94598414D01*
X58801586Y-94685469D01*
X58903952Y-94753868D01*
X59017694Y-94800981D01*
X59138443Y-94825000D01*
X59261557Y-94825000D01*
X59382306Y-94800981D01*
X59496048Y-94753868D01*
X59598414Y-94685469D01*
X59645440Y-94638443D01*
X62375000Y-94638443D01*
X62375000Y-94761557D01*
X62399019Y-94882306D01*
X62446132Y-94996048D01*
X62514531Y-95098414D01*
X62601586Y-95185469D01*
X62703952Y-95253868D01*
X62817694Y-95300981D01*
X62938443Y-95325000D01*
X63061557Y-95325000D01*
X63182306Y-95300981D01*
X63296048Y-95253868D01*
X63398414Y-95185469D01*
X63485469Y-95098414D01*
X63553868Y-94996048D01*
X63600981Y-94882306D01*
X63625000Y-94761557D01*
X63625000Y-94638443D01*
X63600981Y-94517694D01*
X63553868Y-94403952D01*
X63485469Y-94301586D01*
X63398414Y-94214531D01*
X63296048Y-94146132D01*
X63182306Y-94099019D01*
X63061557Y-94075000D01*
X62938443Y-94075000D01*
X62817694Y-94099019D01*
X62703952Y-94146132D01*
X62601586Y-94214531D01*
X62514531Y-94301586D01*
X62446132Y-94403952D01*
X62399019Y-94517694D01*
X62375000Y-94638443D01*
X59645440Y-94638443D01*
X59685469Y-94598414D01*
X59753868Y-94496048D01*
X59800981Y-94382306D01*
X59812380Y-94325000D01*
X59861557Y-94325000D01*
X59982306Y-94300981D01*
X60096048Y-94253868D01*
X60198414Y-94185469D01*
X60285469Y-94098414D01*
X60353868Y-93996048D01*
X60400981Y-93882306D01*
X60425000Y-93761557D01*
X60425000Y-93638443D01*
X60400981Y-93517694D01*
X60353868Y-93403952D01*
X60285469Y-93301586D01*
X60198414Y-93214531D01*
X60096048Y-93146132D01*
X59982306Y-93099019D01*
X59861557Y-93075000D01*
X59738443Y-93075000D01*
X59617694Y-93099019D01*
X59503952Y-93146132D01*
X59401586Y-93214531D01*
X59314531Y-93301586D01*
X59246132Y-93403952D01*
X59199019Y-93517694D01*
X59187620Y-93575000D01*
X59138443Y-93575000D01*
X59017694Y-93599019D01*
X58903952Y-93646132D01*
X58801586Y-93714531D01*
X58714531Y-93801586D01*
X58646132Y-93903952D01*
X58599019Y-94017694D01*
X58575000Y-94138443D01*
X51232750Y-94138443D01*
X51200659Y-94099341D01*
X51110074Y-94025000D01*
X51200659Y-93950659D01*
X51297506Y-93832650D01*
X51369470Y-93698014D01*
X51413786Y-93551926D01*
X51428749Y-93400000D01*
X51413786Y-93248074D01*
X51369470Y-93101986D01*
X51297506Y-92967350D01*
X51200659Y-92849341D01*
X51110074Y-92775000D01*
X51200659Y-92700659D01*
X51297506Y-92582650D01*
X51369470Y-92448014D01*
X51372373Y-92438443D01*
X61975000Y-92438443D01*
X61975000Y-92561557D01*
X61999019Y-92682306D01*
X62046132Y-92796048D01*
X62114531Y-92898414D01*
X62201586Y-92985469D01*
X62303952Y-93053868D01*
X62417694Y-93100981D01*
X62538443Y-93125000D01*
X62661557Y-93125000D01*
X62782306Y-93100981D01*
X62896048Y-93053868D01*
X62998414Y-92985469D01*
X63085469Y-92898414D01*
X63153868Y-92796048D01*
X63200981Y-92682306D01*
X63225000Y-92561557D01*
X63225000Y-92438443D01*
X63200981Y-92317694D01*
X63196993Y-92308067D01*
X63230814Y-92285469D01*
X63317869Y-92198414D01*
X63386268Y-92096048D01*
X63433381Y-91982306D01*
X63457400Y-91861557D01*
X63457400Y-91738443D01*
X63433381Y-91617694D01*
X63386268Y-91503952D01*
X63317869Y-91401586D01*
X63230814Y-91314531D01*
X63128448Y-91246132D01*
X63014706Y-91199019D01*
X62893957Y-91175000D01*
X62770843Y-91175000D01*
X62650094Y-91199019D01*
X62536352Y-91246132D01*
X62433986Y-91314531D01*
X62346931Y-91401586D01*
X62278532Y-91503952D01*
X62231419Y-91617694D01*
X62207400Y-91738443D01*
X62207400Y-91861557D01*
X62231419Y-91982306D01*
X62235407Y-91991933D01*
X62201586Y-92014531D01*
X62114531Y-92101586D01*
X62046132Y-92203952D01*
X61999019Y-92317694D01*
X61975000Y-92438443D01*
X51372373Y-92438443D01*
X51413786Y-92301926D01*
X51428749Y-92150000D01*
X51413786Y-91998074D01*
X51369470Y-91851986D01*
X51297506Y-91717350D01*
X51200659Y-91599341D01*
X51110074Y-91525000D01*
X51200659Y-91450659D01*
X51297506Y-91332650D01*
X51369470Y-91198014D01*
X51413786Y-91051926D01*
X51428749Y-90900000D01*
X51413786Y-90748074D01*
X51369470Y-90601986D01*
X51297506Y-90467350D01*
X51200659Y-90349341D01*
X51110074Y-90275000D01*
X51200659Y-90200659D01*
X51297506Y-90082650D01*
X51369470Y-89948014D01*
X51413786Y-89801926D01*
X51420038Y-89738443D01*
X57875000Y-89738443D01*
X57875000Y-89861557D01*
X57899019Y-89982306D01*
X57946132Y-90096048D01*
X58014531Y-90198414D01*
X58016117Y-90200000D01*
X58014531Y-90201586D01*
X57946132Y-90303952D01*
X57899019Y-90417694D01*
X57875000Y-90538443D01*
X57875000Y-90661557D01*
X57899019Y-90782306D01*
X57946132Y-90896048D01*
X58014531Y-90998414D01*
X58101586Y-91085469D01*
X58203952Y-91153868D01*
X58317694Y-91200981D01*
X58438443Y-91225000D01*
X58561557Y-91225000D01*
X58682306Y-91200981D01*
X58786383Y-91157871D01*
X58701586Y-91214531D01*
X58614531Y-91301586D01*
X58546132Y-91403952D01*
X58499019Y-91517694D01*
X58475000Y-91638443D01*
X58475000Y-91761557D01*
X58499019Y-91882306D01*
X58546132Y-91996048D01*
X58614531Y-92098414D01*
X58701586Y-92185469D01*
X58803952Y-92253868D01*
X58917694Y-92300981D01*
X59038443Y-92325000D01*
X59161557Y-92325000D01*
X59282306Y-92300981D01*
X59396048Y-92253868D01*
X59498414Y-92185469D01*
X59585469Y-92098414D01*
X59653868Y-91996048D01*
X59700981Y-91882306D01*
X59725000Y-91761557D01*
X59725000Y-91638443D01*
X59700981Y-91517694D01*
X59653868Y-91403952D01*
X59585469Y-91301586D01*
X59498414Y-91214531D01*
X59396048Y-91146132D01*
X59282306Y-91099019D01*
X59161557Y-91075000D01*
X59038443Y-91075000D01*
X58917694Y-91099019D01*
X58813617Y-91142129D01*
X58898414Y-91085469D01*
X58985469Y-90998414D01*
X59053868Y-90896048D01*
X59088999Y-90811232D01*
X59675000Y-90811232D01*
X59675000Y-90934346D01*
X59699019Y-91055095D01*
X59746132Y-91168837D01*
X59814531Y-91271203D01*
X59901586Y-91358258D01*
X60003952Y-91426657D01*
X60117694Y-91473770D01*
X60238443Y-91497789D01*
X60361557Y-91497789D01*
X60482306Y-91473770D01*
X60596048Y-91426657D01*
X60698414Y-91358258D01*
X60785469Y-91271203D01*
X60853868Y-91168837D01*
X60900981Y-91055095D01*
X60925000Y-90934346D01*
X60925000Y-90811232D01*
X60900981Y-90690483D01*
X60853868Y-90576741D01*
X60785469Y-90474375D01*
X60698414Y-90387320D01*
X60596048Y-90318921D01*
X60482306Y-90271808D01*
X60361557Y-90247789D01*
X60238443Y-90247789D01*
X60117694Y-90271808D01*
X60003952Y-90318921D01*
X59901586Y-90387320D01*
X59814531Y-90474375D01*
X59746132Y-90576741D01*
X59699019Y-90690483D01*
X59675000Y-90811232D01*
X59088999Y-90811232D01*
X59100981Y-90782306D01*
X59125000Y-90661557D01*
X59125000Y-90538443D01*
X59100981Y-90417694D01*
X59053868Y-90303952D01*
X58985469Y-90201586D01*
X58983883Y-90200000D01*
X58985469Y-90198414D01*
X59053868Y-90096048D01*
X59100981Y-89982306D01*
X59125000Y-89861557D01*
X59125000Y-89738443D01*
X59100981Y-89617694D01*
X59053868Y-89503952D01*
X58985469Y-89401586D01*
X58922326Y-89338443D01*
X61075000Y-89338443D01*
X61075000Y-89461557D01*
X61099019Y-89582306D01*
X61146132Y-89696048D01*
X61214531Y-89798414D01*
X61301586Y-89885469D01*
X61403952Y-89953868D01*
X61517694Y-90000981D01*
X61638443Y-90025000D01*
X61761557Y-90025000D01*
X61882306Y-90000981D01*
X61996048Y-89953868D01*
X62098414Y-89885469D01*
X62185469Y-89798414D01*
X62253868Y-89696048D01*
X62300981Y-89582306D01*
X62325000Y-89461557D01*
X62325000Y-89338443D01*
X62875000Y-89338443D01*
X62875000Y-89461557D01*
X62899019Y-89582306D01*
X62946132Y-89696048D01*
X63014531Y-89798414D01*
X63101586Y-89885469D01*
X63203952Y-89953868D01*
X63317694Y-90000981D01*
X63438443Y-90025000D01*
X63561557Y-90025000D01*
X63682306Y-90000981D01*
X63796048Y-89953868D01*
X63898414Y-89885469D01*
X63985469Y-89798414D01*
X64053868Y-89696048D01*
X64100981Y-89582306D01*
X64125000Y-89461557D01*
X64125000Y-89338443D01*
X64100981Y-89217694D01*
X64053868Y-89103952D01*
X63985469Y-89001586D01*
X63898414Y-88914531D01*
X63796048Y-88846132D01*
X63682306Y-88799019D01*
X63561557Y-88775000D01*
X63438443Y-88775000D01*
X63317694Y-88799019D01*
X63203952Y-88846132D01*
X63101586Y-88914531D01*
X63014531Y-89001586D01*
X62946132Y-89103952D01*
X62899019Y-89217694D01*
X62875000Y-89338443D01*
X62325000Y-89338443D01*
X62300981Y-89217694D01*
X62253868Y-89103952D01*
X62185469Y-89001586D01*
X62098414Y-88914531D01*
X61996048Y-88846132D01*
X61882306Y-88799019D01*
X61761557Y-88775000D01*
X61638443Y-88775000D01*
X61517694Y-88799019D01*
X61403952Y-88846132D01*
X61301586Y-88914531D01*
X61214531Y-89001586D01*
X61146132Y-89103952D01*
X61099019Y-89217694D01*
X61075000Y-89338443D01*
X58922326Y-89338443D01*
X58898414Y-89314531D01*
X58796048Y-89246132D01*
X58682306Y-89199019D01*
X58561557Y-89175000D01*
X58438443Y-89175000D01*
X58317694Y-89199019D01*
X58203952Y-89246132D01*
X58101586Y-89314531D01*
X58014531Y-89401586D01*
X57946132Y-89503952D01*
X57899019Y-89617694D01*
X57875000Y-89738443D01*
X51420038Y-89738443D01*
X51428749Y-89650000D01*
X51413786Y-89498074D01*
X51369470Y-89351986D01*
X51297506Y-89217350D01*
X51226521Y-89130855D01*
X51259347Y-89113309D01*
X51316448Y-89066448D01*
X51363309Y-89009347D01*
X51398131Y-88944200D01*
X51419574Y-88873513D01*
X51426814Y-88800000D01*
X51425000Y-88518750D01*
X51344693Y-88438443D01*
X53875000Y-88438443D01*
X53875000Y-88561557D01*
X53899019Y-88682306D01*
X53946132Y-88796048D01*
X54014531Y-88898414D01*
X54101586Y-88985469D01*
X54203952Y-89053868D01*
X54317694Y-89100981D01*
X54438443Y-89125000D01*
X54561557Y-89125000D01*
X54682306Y-89100981D01*
X54796048Y-89053868D01*
X54898414Y-88985469D01*
X54985469Y-88898414D01*
X55053868Y-88796048D01*
X55100981Y-88682306D01*
X55125000Y-88561557D01*
X55125000Y-88438443D01*
X55100981Y-88317694D01*
X55053868Y-88203952D01*
X54985469Y-88101586D01*
X54898414Y-88014531D01*
X54796048Y-87946132D01*
X54682306Y-87899019D01*
X54561557Y-87875000D01*
X54438443Y-87875000D01*
X54317694Y-87899019D01*
X54203952Y-87946132D01*
X54101586Y-88014531D01*
X54014531Y-88101586D01*
X53946132Y-88203952D01*
X53899019Y-88317694D01*
X53875000Y-88438443D01*
X51344693Y-88438443D01*
X51331250Y-88425000D01*
X50425000Y-88425000D01*
X50425000Y-88445000D01*
X50375000Y-88445000D01*
X50375000Y-88425000D01*
X49468750Y-88425000D01*
X49375000Y-88518750D01*
X49373186Y-88800000D01*
X49380426Y-88873513D01*
X49401869Y-88944200D01*
X49436691Y-89009347D01*
X49483552Y-89066448D01*
X49540653Y-89113309D01*
X49573479Y-89130855D01*
X49502494Y-89217350D01*
X49430530Y-89351986D01*
X49386214Y-89498074D01*
X49371251Y-89650000D01*
X48425000Y-89650000D01*
X48425000Y-88000000D01*
X49373186Y-88000000D01*
X49375000Y-88281250D01*
X49468750Y-88375000D01*
X50375000Y-88375000D01*
X50375000Y-87718750D01*
X50425000Y-87718750D01*
X50425000Y-88375000D01*
X51331250Y-88375000D01*
X51425000Y-88281250D01*
X51426814Y-88000000D01*
X51419574Y-87926487D01*
X51398131Y-87855800D01*
X51388854Y-87838443D01*
X55575000Y-87838443D01*
X55575000Y-87961557D01*
X55599019Y-88082306D01*
X55646132Y-88196048D01*
X55714531Y-88298414D01*
X55801586Y-88385469D01*
X55903952Y-88453868D01*
X56017694Y-88500981D01*
X56138443Y-88525000D01*
X56261557Y-88525000D01*
X56382306Y-88500981D01*
X56496048Y-88453868D01*
X56519133Y-88438443D01*
X61975000Y-88438443D01*
X61975000Y-88561557D01*
X61999019Y-88682306D01*
X62046132Y-88796048D01*
X62114531Y-88898414D01*
X62201586Y-88985469D01*
X62303952Y-89053868D01*
X62417694Y-89100981D01*
X62538443Y-89125000D01*
X62661557Y-89125000D01*
X62782306Y-89100981D01*
X62896048Y-89053868D01*
X62998414Y-88985469D01*
X63085469Y-88898414D01*
X63153868Y-88796048D01*
X63198438Y-88688443D01*
X65125000Y-88688443D01*
X65125000Y-88811557D01*
X65149019Y-88932306D01*
X65196132Y-89046048D01*
X65264531Y-89148414D01*
X65351586Y-89235469D01*
X65453952Y-89303868D01*
X65567694Y-89350981D01*
X65688443Y-89375000D01*
X65811557Y-89375000D01*
X65932306Y-89350981D01*
X66046048Y-89303868D01*
X66148414Y-89235469D01*
X66235469Y-89148414D01*
X66303868Y-89046048D01*
X66350981Y-88932306D01*
X66375000Y-88811557D01*
X66375000Y-88688443D01*
X66350981Y-88567694D01*
X66303868Y-88453952D01*
X66235469Y-88351586D01*
X66148414Y-88264531D01*
X66046048Y-88196132D01*
X65932306Y-88149019D01*
X65811557Y-88125000D01*
X65688443Y-88125000D01*
X65567694Y-88149019D01*
X65453952Y-88196132D01*
X65351586Y-88264531D01*
X65264531Y-88351586D01*
X65196132Y-88453952D01*
X65149019Y-88567694D01*
X65125000Y-88688443D01*
X63198438Y-88688443D01*
X63200981Y-88682306D01*
X63225000Y-88561557D01*
X63225000Y-88438443D01*
X63200981Y-88317694D01*
X63153868Y-88203952D01*
X63085469Y-88101586D01*
X62998414Y-88014531D01*
X62896048Y-87946132D01*
X62782306Y-87899019D01*
X62661557Y-87875000D01*
X62538443Y-87875000D01*
X62417694Y-87899019D01*
X62303952Y-87946132D01*
X62201586Y-88014531D01*
X62114531Y-88101586D01*
X62046132Y-88203952D01*
X61999019Y-88317694D01*
X61975000Y-88438443D01*
X56519133Y-88438443D01*
X56598414Y-88385469D01*
X56685469Y-88298414D01*
X56753868Y-88196048D01*
X56800981Y-88082306D01*
X56825000Y-87961557D01*
X56825000Y-87838443D01*
X56800981Y-87717694D01*
X56753868Y-87603952D01*
X56685469Y-87501586D01*
X56598414Y-87414531D01*
X56496048Y-87346132D01*
X56382306Y-87299019D01*
X56261557Y-87275000D01*
X56138443Y-87275000D01*
X56017694Y-87299019D01*
X55903952Y-87346132D01*
X55801586Y-87414531D01*
X55714531Y-87501586D01*
X55646132Y-87603952D01*
X55599019Y-87717694D01*
X55575000Y-87838443D01*
X51388854Y-87838443D01*
X51363309Y-87790653D01*
X51316448Y-87733552D01*
X51259347Y-87686691D01*
X51194200Y-87651869D01*
X51123513Y-87630426D01*
X51050000Y-87623186D01*
X50518750Y-87625000D01*
X50425000Y-87718750D01*
X50375000Y-87718750D01*
X50281250Y-87625000D01*
X49750000Y-87623186D01*
X49676487Y-87630426D01*
X49605800Y-87651869D01*
X49540653Y-87686691D01*
X49483552Y-87733552D01*
X49436691Y-87790653D01*
X49401869Y-87855800D01*
X49380426Y-87926487D01*
X49373186Y-88000000D01*
X48425000Y-88000000D01*
X48425000Y-87206043D01*
X58886231Y-87206043D01*
X58886231Y-87329157D01*
X58910250Y-87449906D01*
X58957363Y-87563648D01*
X59025762Y-87666014D01*
X59112817Y-87753069D01*
X59215183Y-87821468D01*
X59328925Y-87868581D01*
X59449674Y-87892600D01*
X59572788Y-87892600D01*
X59693537Y-87868581D01*
X59807279Y-87821468D01*
X59909645Y-87753069D01*
X59996700Y-87666014D01*
X60065099Y-87563648D01*
X60075539Y-87538443D01*
X61075000Y-87538443D01*
X61075000Y-87661557D01*
X61099019Y-87782306D01*
X61146132Y-87896048D01*
X61214531Y-87998414D01*
X61301586Y-88085469D01*
X61403952Y-88153868D01*
X61517694Y-88200981D01*
X61638443Y-88225000D01*
X61761557Y-88225000D01*
X61882306Y-88200981D01*
X61996048Y-88153868D01*
X62098414Y-88085469D01*
X62185469Y-87998414D01*
X62253868Y-87896048D01*
X62300981Y-87782306D01*
X62325000Y-87661557D01*
X62325000Y-87538443D01*
X62875000Y-87538443D01*
X62875000Y-87661557D01*
X62899019Y-87782306D01*
X62946132Y-87896048D01*
X63014531Y-87998414D01*
X63101586Y-88085469D01*
X63203952Y-88153868D01*
X63317694Y-88200981D01*
X63438443Y-88225000D01*
X63561557Y-88225000D01*
X63682306Y-88200981D01*
X63796048Y-88153868D01*
X63898414Y-88085469D01*
X63985469Y-87998414D01*
X64053868Y-87896048D01*
X64100981Y-87782306D01*
X64125000Y-87661557D01*
X64125000Y-87538443D01*
X64100981Y-87417694D01*
X64053868Y-87303952D01*
X63985469Y-87201586D01*
X63898414Y-87114531D01*
X63796048Y-87046132D01*
X63682306Y-86999019D01*
X63561557Y-86975000D01*
X63438443Y-86975000D01*
X63317694Y-86999019D01*
X63203952Y-87046132D01*
X63101586Y-87114531D01*
X63014531Y-87201586D01*
X62946132Y-87303952D01*
X62899019Y-87417694D01*
X62875000Y-87538443D01*
X62325000Y-87538443D01*
X62300981Y-87417694D01*
X62253868Y-87303952D01*
X62185469Y-87201586D01*
X62098414Y-87114531D01*
X61996048Y-87046132D01*
X61882306Y-86999019D01*
X61761557Y-86975000D01*
X61638443Y-86975000D01*
X61517694Y-86999019D01*
X61403952Y-87046132D01*
X61301586Y-87114531D01*
X61214531Y-87201586D01*
X61146132Y-87303952D01*
X61099019Y-87417694D01*
X61075000Y-87538443D01*
X60075539Y-87538443D01*
X60112212Y-87449906D01*
X60136231Y-87329157D01*
X60136231Y-87206043D01*
X60112212Y-87085294D01*
X60065099Y-86971552D01*
X59996700Y-86869186D01*
X59909645Y-86782131D01*
X59807279Y-86713732D01*
X59693537Y-86666619D01*
X59572788Y-86642600D01*
X59449674Y-86642600D01*
X59328925Y-86666619D01*
X59215183Y-86713732D01*
X59112817Y-86782131D01*
X59025762Y-86869186D01*
X58957363Y-86971552D01*
X58910250Y-87085294D01*
X58886231Y-87206043D01*
X48425000Y-87206043D01*
X48425000Y-86438443D01*
X53275000Y-86438443D01*
X53275000Y-86561557D01*
X53299019Y-86682306D01*
X53346132Y-86796048D01*
X53414531Y-86898414D01*
X53501586Y-86985469D01*
X53603952Y-87053868D01*
X53717694Y-87100981D01*
X53838443Y-87125000D01*
X53961557Y-87125000D01*
X54082306Y-87100981D01*
X54196048Y-87053868D01*
X54298414Y-86985469D01*
X54385469Y-86898414D01*
X54453868Y-86796048D01*
X54500981Y-86682306D01*
X54525000Y-86561557D01*
X54525000Y-86438443D01*
X54505109Y-86338443D01*
X55575000Y-86338443D01*
X55575000Y-86461557D01*
X55599019Y-86582306D01*
X55646132Y-86696048D01*
X55714531Y-86798414D01*
X55801586Y-86885469D01*
X55903952Y-86953868D01*
X56017694Y-87000981D01*
X56138443Y-87025000D01*
X56261557Y-87025000D01*
X56382306Y-87000981D01*
X56496048Y-86953868D01*
X56598414Y-86885469D01*
X56685469Y-86798414D01*
X56753868Y-86696048D01*
X56799434Y-86586040D01*
X65075000Y-86586040D01*
X65075000Y-86709154D01*
X65099019Y-86829903D01*
X65146132Y-86943645D01*
X65166280Y-86973798D01*
X65146132Y-87003952D01*
X65099019Y-87117694D01*
X65075000Y-87238443D01*
X65075000Y-87361557D01*
X65099019Y-87482306D01*
X65146132Y-87596048D01*
X65214531Y-87698414D01*
X65301586Y-87785469D01*
X65403952Y-87853868D01*
X65517694Y-87900981D01*
X65638443Y-87925000D01*
X65761557Y-87925000D01*
X65882306Y-87900981D01*
X65996048Y-87853868D01*
X66098414Y-87785469D01*
X66185469Y-87698414D01*
X66253868Y-87596048D01*
X66300981Y-87482306D01*
X66325000Y-87361557D01*
X66325000Y-87238443D01*
X66300981Y-87117694D01*
X66253868Y-87003952D01*
X66233720Y-86973798D01*
X66253868Y-86943645D01*
X66300981Y-86829903D01*
X66325000Y-86709154D01*
X66325000Y-86638443D01*
X67375000Y-86638443D01*
X67375000Y-86761557D01*
X67399019Y-86882306D01*
X67446132Y-86996048D01*
X67514531Y-87098414D01*
X67601586Y-87185469D01*
X67703952Y-87253868D01*
X67817694Y-87300981D01*
X67938443Y-87325000D01*
X68061557Y-87325000D01*
X68182306Y-87300981D01*
X68296048Y-87253868D01*
X68398414Y-87185469D01*
X68485469Y-87098414D01*
X68553868Y-86996048D01*
X68600981Y-86882306D01*
X68625000Y-86761557D01*
X68625000Y-86638443D01*
X68600981Y-86517694D01*
X68553868Y-86403952D01*
X68485469Y-86301586D01*
X68398414Y-86214531D01*
X68296048Y-86146132D01*
X68182306Y-86099019D01*
X68061557Y-86075000D01*
X67938443Y-86075000D01*
X67817694Y-86099019D01*
X67703952Y-86146132D01*
X67601586Y-86214531D01*
X67514531Y-86301586D01*
X67446132Y-86403952D01*
X67399019Y-86517694D01*
X67375000Y-86638443D01*
X66325000Y-86638443D01*
X66325000Y-86586040D01*
X66300981Y-86465291D01*
X66253868Y-86351549D01*
X66185469Y-86249183D01*
X66098414Y-86162128D01*
X65996048Y-86093729D01*
X65882306Y-86046616D01*
X65761557Y-86022597D01*
X65638443Y-86022597D01*
X65517694Y-86046616D01*
X65403952Y-86093729D01*
X65301586Y-86162128D01*
X65214531Y-86249183D01*
X65146132Y-86351549D01*
X65099019Y-86465291D01*
X65075000Y-86586040D01*
X56799434Y-86586040D01*
X56800981Y-86582306D01*
X56825000Y-86461557D01*
X56825000Y-86338443D01*
X56800981Y-86217694D01*
X56753868Y-86103952D01*
X56685469Y-86001586D01*
X56598414Y-85914531D01*
X56496048Y-85846132D01*
X56382306Y-85799019D01*
X56261557Y-85775000D01*
X56138443Y-85775000D01*
X56017694Y-85799019D01*
X55903952Y-85846132D01*
X55801586Y-85914531D01*
X55714531Y-86001586D01*
X55646132Y-86103952D01*
X55599019Y-86217694D01*
X55575000Y-86338443D01*
X54505109Y-86338443D01*
X54500981Y-86317694D01*
X54453868Y-86203952D01*
X54385469Y-86101586D01*
X54298414Y-86014531D01*
X54196048Y-85946132D01*
X54082306Y-85899019D01*
X53961557Y-85875000D01*
X53838443Y-85875000D01*
X53717694Y-85899019D01*
X53603952Y-85946132D01*
X53501586Y-86014531D01*
X53414531Y-86101586D01*
X53346132Y-86203952D01*
X53299019Y-86317694D01*
X53275000Y-86438443D01*
X48425000Y-86438443D01*
X48425000Y-85177361D01*
X60685172Y-85177361D01*
X60685172Y-85300475D01*
X60709191Y-85421224D01*
X60756304Y-85534966D01*
X60824703Y-85637332D01*
X60911758Y-85724387D01*
X61014124Y-85792786D01*
X61127866Y-85839899D01*
X61248615Y-85863918D01*
X61371729Y-85863918D01*
X61492478Y-85839899D01*
X61606220Y-85792786D01*
X61708586Y-85724387D01*
X61795641Y-85637332D01*
X61864040Y-85534966D01*
X61911153Y-85421224D01*
X61935172Y-85300475D01*
X61935172Y-85283478D01*
X62715944Y-85283478D01*
X62715944Y-85406592D01*
X62739963Y-85527341D01*
X62787076Y-85641083D01*
X62855475Y-85743449D01*
X62942530Y-85830504D01*
X63044896Y-85898903D01*
X63158638Y-85946016D01*
X63279387Y-85970035D01*
X63402501Y-85970035D01*
X63523250Y-85946016D01*
X63636992Y-85898903D01*
X63739358Y-85830504D01*
X63826413Y-85743449D01*
X63894812Y-85641083D01*
X63941925Y-85527341D01*
X63965944Y-85406592D01*
X63965944Y-85283478D01*
X63941925Y-85162729D01*
X63894812Y-85048987D01*
X63826413Y-84946621D01*
X63739358Y-84859566D01*
X63636992Y-84791167D01*
X63523250Y-84744054D01*
X63402501Y-84720035D01*
X63279387Y-84720035D01*
X63158638Y-84744054D01*
X63044896Y-84791167D01*
X62942530Y-84859566D01*
X62855475Y-84946621D01*
X62787076Y-85048987D01*
X62739963Y-85162729D01*
X62715944Y-85283478D01*
X61935172Y-85283478D01*
X61935172Y-85177361D01*
X61911153Y-85056612D01*
X61864040Y-84942870D01*
X61795641Y-84840504D01*
X61708586Y-84753449D01*
X61606220Y-84685050D01*
X61492478Y-84637937D01*
X61371729Y-84613918D01*
X61248615Y-84613918D01*
X61127866Y-84637937D01*
X61014124Y-84685050D01*
X60911758Y-84753449D01*
X60824703Y-84840504D01*
X60756304Y-84942870D01*
X60709191Y-85056612D01*
X60685172Y-85177361D01*
X48425000Y-85177361D01*
X48425000Y-83738443D01*
X61675000Y-83738443D01*
X61675000Y-83861557D01*
X61699019Y-83982306D01*
X61746132Y-84096048D01*
X61814531Y-84198414D01*
X61901586Y-84285469D01*
X62003952Y-84353868D01*
X62117694Y-84400981D01*
X62238443Y-84425000D01*
X62361557Y-84425000D01*
X62482306Y-84400981D01*
X62596048Y-84353868D01*
X62698414Y-84285469D01*
X62785469Y-84198414D01*
X62853868Y-84096048D01*
X62900981Y-83982306D01*
X62925000Y-83861557D01*
X62925000Y-83738443D01*
X63175000Y-83738443D01*
X63175000Y-83861557D01*
X63199019Y-83982306D01*
X63246132Y-84096048D01*
X63314531Y-84198414D01*
X63401586Y-84285469D01*
X63503952Y-84353868D01*
X63617694Y-84400981D01*
X63738443Y-84425000D01*
X63861557Y-84425000D01*
X63982306Y-84400981D01*
X64096048Y-84353868D01*
X64150000Y-84317818D01*
X64203952Y-84353868D01*
X64317694Y-84400981D01*
X64438443Y-84425000D01*
X64561557Y-84425000D01*
X64682306Y-84400981D01*
X64796048Y-84353868D01*
X64898414Y-84285469D01*
X64985469Y-84198414D01*
X65053868Y-84096048D01*
X65100981Y-83982306D01*
X65125000Y-83861557D01*
X65125000Y-83738443D01*
X65100981Y-83617694D01*
X65053868Y-83503952D01*
X64985469Y-83401586D01*
X64898414Y-83314531D01*
X64796048Y-83246132D01*
X64682306Y-83199019D01*
X64561557Y-83175000D01*
X64438443Y-83175000D01*
X64317694Y-83199019D01*
X64203952Y-83246132D01*
X64150000Y-83282182D01*
X64096048Y-83246132D01*
X63982306Y-83199019D01*
X63861557Y-83175000D01*
X63738443Y-83175000D01*
X63617694Y-83199019D01*
X63503952Y-83246132D01*
X63401586Y-83314531D01*
X63314531Y-83401586D01*
X63246132Y-83503952D01*
X63199019Y-83617694D01*
X63175000Y-83738443D01*
X62925000Y-83738443D01*
X62900981Y-83617694D01*
X62853868Y-83503952D01*
X62785469Y-83401586D01*
X62698414Y-83314531D01*
X62596048Y-83246132D01*
X62482306Y-83199019D01*
X62361557Y-83175000D01*
X62238443Y-83175000D01*
X62117694Y-83199019D01*
X62003952Y-83246132D01*
X61901586Y-83314531D01*
X61814531Y-83401586D01*
X61746132Y-83503952D01*
X61699019Y-83617694D01*
X61675000Y-83738443D01*
X48425000Y-83738443D01*
X48425000Y-82838443D01*
X53275000Y-82838443D01*
X53275000Y-82961557D01*
X53299019Y-83082306D01*
X53346132Y-83196048D01*
X53414531Y-83298414D01*
X53501586Y-83385469D01*
X53603952Y-83453868D01*
X53717694Y-83500981D01*
X53838443Y-83525000D01*
X53961557Y-83525000D01*
X54082306Y-83500981D01*
X54196048Y-83453868D01*
X54298414Y-83385469D01*
X54385469Y-83298414D01*
X54453868Y-83196048D01*
X54500981Y-83082306D01*
X54525000Y-82961557D01*
X54525000Y-82838443D01*
X54500981Y-82717694D01*
X54453868Y-82603952D01*
X54385469Y-82501586D01*
X54322326Y-82438443D01*
X59972600Y-82438443D01*
X59972600Y-82561557D01*
X59996619Y-82682306D01*
X60043732Y-82796048D01*
X60112131Y-82898414D01*
X60199186Y-82985469D01*
X60301552Y-83053868D01*
X60415294Y-83100981D01*
X60536043Y-83125000D01*
X60659157Y-83125000D01*
X60779906Y-83100981D01*
X60893648Y-83053868D01*
X60996014Y-82985469D01*
X61083069Y-82898414D01*
X61151468Y-82796048D01*
X61198581Y-82682306D01*
X61222600Y-82561557D01*
X61222600Y-82438443D01*
X61198581Y-82317694D01*
X61151468Y-82203952D01*
X61083069Y-82101586D01*
X60996014Y-82014531D01*
X60893648Y-81946132D01*
X60779906Y-81899019D01*
X60659157Y-81875000D01*
X60536043Y-81875000D01*
X60415294Y-81899019D01*
X60301552Y-81946132D01*
X60199186Y-82014531D01*
X60112131Y-82101586D01*
X60043732Y-82203952D01*
X59996619Y-82317694D01*
X59972600Y-82438443D01*
X54322326Y-82438443D01*
X54298414Y-82414531D01*
X54196048Y-82346132D01*
X54082306Y-82299019D01*
X53961557Y-82275000D01*
X53838443Y-82275000D01*
X53717694Y-82299019D01*
X53603952Y-82346132D01*
X53501586Y-82414531D01*
X53414531Y-82501586D01*
X53346132Y-82603952D01*
X53299019Y-82717694D01*
X53275000Y-82838443D01*
X48425000Y-82838443D01*
X48425000Y-80408518D01*
X53925000Y-80408518D01*
X53925000Y-80541482D01*
X53950940Y-80671890D01*
X54001823Y-80794732D01*
X54075693Y-80905287D01*
X54169713Y-80999307D01*
X54280268Y-81073177D01*
X54403110Y-81124060D01*
X54533518Y-81150000D01*
X54666482Y-81150000D01*
X54796890Y-81124060D01*
X54919732Y-81073177D01*
X55030287Y-80999307D01*
X55041151Y-80988443D01*
X59975000Y-80988443D01*
X59975000Y-81111557D01*
X59999019Y-81232306D01*
X60046132Y-81346048D01*
X60114531Y-81448414D01*
X60201586Y-81535469D01*
X60303952Y-81603868D01*
X60417694Y-81650981D01*
X60538443Y-81675000D01*
X60661557Y-81675000D01*
X60782306Y-81650981D01*
X60896048Y-81603868D01*
X60998414Y-81535469D01*
X61085469Y-81448414D01*
X61153868Y-81346048D01*
X61200981Y-81232306D01*
X61225000Y-81111557D01*
X61225000Y-80988443D01*
X61200981Y-80867694D01*
X61153868Y-80753952D01*
X61085469Y-80651586D01*
X60998414Y-80564531D01*
X60896048Y-80496132D01*
X60782306Y-80449019D01*
X60661557Y-80425000D01*
X60538443Y-80425000D01*
X60417694Y-80449019D01*
X60303952Y-80496132D01*
X60201586Y-80564531D01*
X60114531Y-80651586D01*
X60046132Y-80753952D01*
X59999019Y-80867694D01*
X59975000Y-80988443D01*
X55041151Y-80988443D01*
X55124307Y-80905287D01*
X55198177Y-80794732D01*
X55249060Y-80671890D01*
X55275000Y-80541482D01*
X55275000Y-80408518D01*
X55249060Y-80278110D01*
X55198177Y-80155268D01*
X55124307Y-80044713D01*
X55030287Y-79950693D01*
X54919732Y-79876823D01*
X54796890Y-79825940D01*
X54666482Y-79800000D01*
X54533518Y-79800000D01*
X54403110Y-79825940D01*
X54280268Y-79876823D01*
X54169713Y-79950693D01*
X54075693Y-80044713D01*
X54001823Y-80155268D01*
X53950940Y-80278110D01*
X53925000Y-80408518D01*
X48425000Y-80408518D01*
X48425000Y-78633518D01*
X50050000Y-78633518D01*
X50050000Y-78766482D01*
X50075940Y-78896890D01*
X50126823Y-79019732D01*
X50200693Y-79130287D01*
X50294713Y-79224307D01*
X50405268Y-79298177D01*
X50528110Y-79349060D01*
X50658518Y-79375000D01*
X50791482Y-79375000D01*
X50921890Y-79349060D01*
X51044732Y-79298177D01*
X51155287Y-79224307D01*
X51249307Y-79130287D01*
X51323177Y-79019732D01*
X51374060Y-78896890D01*
X51383111Y-78851390D01*
X51414531Y-78898414D01*
X51501586Y-78985469D01*
X51603952Y-79053868D01*
X51717694Y-79100981D01*
X51838443Y-79125000D01*
X51961557Y-79125000D01*
X52082306Y-79100981D01*
X52196048Y-79053868D01*
X52226503Y-79033518D01*
X53925000Y-79033518D01*
X53925000Y-79166482D01*
X53950940Y-79296890D01*
X54001823Y-79419732D01*
X54075693Y-79530287D01*
X54169713Y-79624307D01*
X54280268Y-79698177D01*
X54403110Y-79749060D01*
X54533518Y-79775000D01*
X54666482Y-79775000D01*
X54796890Y-79749060D01*
X54919732Y-79698177D01*
X55030287Y-79624307D01*
X55124307Y-79530287D01*
X55198177Y-79419732D01*
X55249060Y-79296890D01*
X55275000Y-79166482D01*
X55275000Y-79033518D01*
X55249060Y-78903110D01*
X55198177Y-78780268D01*
X55124307Y-78669713D01*
X55030287Y-78575693D01*
X54919732Y-78501823D01*
X54796890Y-78450940D01*
X54666482Y-78425000D01*
X54533518Y-78425000D01*
X54403110Y-78450940D01*
X54280268Y-78501823D01*
X54169713Y-78575693D01*
X54075693Y-78669713D01*
X54001823Y-78780268D01*
X53950940Y-78903110D01*
X53925000Y-79033518D01*
X52226503Y-79033518D01*
X52298414Y-78985469D01*
X52385469Y-78898414D01*
X52453868Y-78796048D01*
X52500981Y-78682306D01*
X52525000Y-78561557D01*
X52525000Y-78438443D01*
X52500981Y-78317694D01*
X52453868Y-78203952D01*
X52385469Y-78101586D01*
X52298414Y-78014531D01*
X52196048Y-77946132D01*
X52082306Y-77899019D01*
X51961557Y-77875000D01*
X51838443Y-77875000D01*
X51717694Y-77899019D01*
X51603952Y-77946132D01*
X51501586Y-78014531D01*
X51414531Y-78101586D01*
X51346132Y-78203952D01*
X51299019Y-78317694D01*
X51294969Y-78338052D01*
X51249307Y-78269713D01*
X51155287Y-78175693D01*
X51044732Y-78101823D01*
X50921890Y-78050940D01*
X50791482Y-78025000D01*
X50658518Y-78025000D01*
X50528110Y-78050940D01*
X50405268Y-78101823D01*
X50294713Y-78175693D01*
X50200693Y-78269713D01*
X50126823Y-78380268D01*
X50075940Y-78503110D01*
X50050000Y-78633518D01*
X48425000Y-78633518D01*
X48425000Y-73800000D01*
X58020767Y-73800000D01*
X58037661Y-73971530D01*
X58087695Y-74136468D01*
X58168944Y-74288476D01*
X58278288Y-74421712D01*
X58411524Y-74531056D01*
X58563532Y-74612305D01*
X58728470Y-74662339D01*
X58857021Y-74675000D01*
X60237564Y-74675000D01*
X61729777Y-76167214D01*
X61729778Y-80561788D01*
X61725544Y-80604777D01*
X61742438Y-80776306D01*
X61792472Y-80941244D01*
X61823507Y-80999307D01*
X61873722Y-81093253D01*
X61983066Y-81226489D01*
X62016453Y-81253889D01*
X63150888Y-82388325D01*
X63178288Y-82421712D01*
X63275615Y-82501586D01*
X63311524Y-82531056D01*
X63373186Y-82564015D01*
X63373186Y-82650000D01*
X63380426Y-82723513D01*
X63401869Y-82794200D01*
X63436691Y-82859347D01*
X63483552Y-82916448D01*
X63540653Y-82963309D01*
X63605800Y-82998131D01*
X63676487Y-83019574D01*
X63750000Y-83026814D01*
X65450000Y-83026814D01*
X65523513Y-83019574D01*
X65594200Y-82998131D01*
X65659347Y-82963309D01*
X65716448Y-82916448D01*
X65763309Y-82859347D01*
X65798131Y-82794200D01*
X65819574Y-82723513D01*
X65824352Y-82675000D01*
X66975648Y-82675000D01*
X66980426Y-82723513D01*
X67001869Y-82794200D01*
X67036691Y-82859347D01*
X67083552Y-82916448D01*
X67140653Y-82963309D01*
X67205800Y-82998131D01*
X67276487Y-83019574D01*
X67350000Y-83026814D01*
X69050000Y-83026814D01*
X69123513Y-83019574D01*
X69194200Y-82998131D01*
X69259347Y-82963309D01*
X69316448Y-82916448D01*
X69363309Y-82859347D01*
X69398131Y-82794200D01*
X69419574Y-82723513D01*
X69426814Y-82650000D01*
X69426814Y-80950000D01*
X69419574Y-80876487D01*
X69398131Y-80805800D01*
X69363309Y-80740653D01*
X69316448Y-80683552D01*
X69259347Y-80636691D01*
X69194200Y-80601869D01*
X69123513Y-80580426D01*
X69050000Y-80573186D01*
X67350000Y-80573186D01*
X67276487Y-80580426D01*
X67205800Y-80601869D01*
X67140653Y-80636691D01*
X67083552Y-80683552D01*
X67036691Y-80740653D01*
X67001869Y-80805800D01*
X66980426Y-80876487D01*
X66975648Y-80925000D01*
X65824352Y-80925000D01*
X65819574Y-80876487D01*
X65798131Y-80805800D01*
X65763309Y-80740653D01*
X65716448Y-80683552D01*
X65659347Y-80636691D01*
X65594200Y-80601869D01*
X65523513Y-80580426D01*
X65450000Y-80573186D01*
X63810622Y-80573186D01*
X63479777Y-80242341D01*
X63479777Y-79762869D01*
X63576522Y-79943866D01*
X63729603Y-80130397D01*
X63916134Y-80283478D01*
X64128945Y-80397228D01*
X64359858Y-80467275D01*
X64539822Y-80485000D01*
X64660178Y-80485000D01*
X64840142Y-80467275D01*
X65071055Y-80397228D01*
X65283866Y-80283478D01*
X65470397Y-80130397D01*
X65623478Y-79943866D01*
X65737228Y-79731055D01*
X65807275Y-79500142D01*
X65830927Y-79260000D01*
X66969073Y-79260000D01*
X66992725Y-79500142D01*
X67062772Y-79731055D01*
X67176522Y-79943866D01*
X67329603Y-80130397D01*
X67516134Y-80283478D01*
X67728945Y-80397228D01*
X67959858Y-80467275D01*
X68139822Y-80485000D01*
X68260178Y-80485000D01*
X68440142Y-80467275D01*
X68671055Y-80397228D01*
X68883866Y-80283478D01*
X69070397Y-80130397D01*
X69223478Y-79943866D01*
X69337228Y-79731055D01*
X69407275Y-79500142D01*
X69430927Y-79260000D01*
X69407275Y-79019858D01*
X69337228Y-78788945D01*
X69223478Y-78576134D01*
X69070397Y-78389603D01*
X68883866Y-78236522D01*
X68671055Y-78122772D01*
X68440142Y-78052725D01*
X68260178Y-78035000D01*
X68139822Y-78035000D01*
X67959858Y-78052725D01*
X67728945Y-78122772D01*
X67516134Y-78236522D01*
X67329603Y-78389603D01*
X67176522Y-78576134D01*
X67062772Y-78788945D01*
X66992725Y-79019858D01*
X66969073Y-79260000D01*
X65830927Y-79260000D01*
X65807275Y-79019858D01*
X65737228Y-78788945D01*
X65623478Y-78576134D01*
X65470397Y-78389603D01*
X65283866Y-78236522D01*
X65071055Y-78122772D01*
X64840142Y-78052725D01*
X64660178Y-78035000D01*
X64539822Y-78035000D01*
X64359858Y-78052725D01*
X64128945Y-78122772D01*
X63916134Y-78236522D01*
X63729603Y-78389603D01*
X63576522Y-78576134D01*
X63479777Y-78757131D01*
X63479777Y-77222869D01*
X63576522Y-77403866D01*
X63729603Y-77590397D01*
X63916134Y-77743478D01*
X64128945Y-77857228D01*
X64359858Y-77927275D01*
X64539822Y-77945000D01*
X64660178Y-77945000D01*
X64840142Y-77927275D01*
X65071055Y-77857228D01*
X65283866Y-77743478D01*
X65470397Y-77590397D01*
X65623478Y-77403866D01*
X65737228Y-77191055D01*
X65807275Y-76960142D01*
X65830927Y-76720000D01*
X65807275Y-76479858D01*
X65737228Y-76248945D01*
X65623478Y-76036134D01*
X65470397Y-75849603D01*
X65283866Y-75696522D01*
X65071055Y-75582772D01*
X64840142Y-75512725D01*
X64660178Y-75495000D01*
X64539822Y-75495000D01*
X64359858Y-75512725D01*
X64128945Y-75582772D01*
X63916134Y-75696522D01*
X63729603Y-75849603D01*
X63576522Y-76036134D01*
X63479777Y-76217131D01*
X63479777Y-75847756D01*
X63484010Y-75804777D01*
X63467116Y-75633247D01*
X63417082Y-75468309D01*
X63335833Y-75316301D01*
X63226489Y-75183065D01*
X63193103Y-75155666D01*
X61249117Y-73211680D01*
X61221712Y-73178288D01*
X61088476Y-73068944D01*
X60936468Y-72987695D01*
X60771530Y-72937661D01*
X60642979Y-72925000D01*
X60600000Y-72920767D01*
X60557021Y-72925000D01*
X58857021Y-72925000D01*
X58728470Y-72937661D01*
X58563532Y-72987695D01*
X58411524Y-73068944D01*
X58278288Y-73178288D01*
X58168944Y-73311524D01*
X58087695Y-73463532D01*
X58037661Y-73628470D01*
X58020767Y-73800000D01*
X48425000Y-73800000D01*
X48425000Y-72526865D01*
X61186578Y-72526865D01*
X61186578Y-72649979D01*
X61210597Y-72770728D01*
X61257710Y-72884470D01*
X61326109Y-72986836D01*
X61413164Y-73073891D01*
X61515530Y-73142290D01*
X61629272Y-73189403D01*
X61750021Y-73213422D01*
X61873135Y-73213422D01*
X61993884Y-73189403D01*
X62107626Y-73142290D01*
X62209992Y-73073891D01*
X62297047Y-72986836D01*
X62365446Y-72884470D01*
X62412559Y-72770728D01*
X62436578Y-72649979D01*
X62436578Y-72526865D01*
X62412559Y-72406116D01*
X62365446Y-72292374D01*
X62297047Y-72190008D01*
X62209992Y-72102953D01*
X62107626Y-72034554D01*
X61993884Y-71987441D01*
X61873135Y-71963422D01*
X61750021Y-71963422D01*
X61629272Y-71987441D01*
X61515530Y-72034554D01*
X61413164Y-72102953D01*
X61326109Y-72190008D01*
X61257710Y-72292374D01*
X61210597Y-72406116D01*
X61186578Y-72526865D01*
X48425000Y-72526865D01*
X48425000Y-70638443D01*
X56075000Y-70638443D01*
X56075000Y-70761557D01*
X56099019Y-70882306D01*
X56146132Y-70996048D01*
X56214531Y-71098414D01*
X56301586Y-71185469D01*
X56403952Y-71253868D01*
X56517694Y-71300981D01*
X56638443Y-71325000D01*
X56761557Y-71325000D01*
X56882306Y-71300981D01*
X56996048Y-71253868D01*
X57050000Y-71217818D01*
X57103952Y-71253868D01*
X57217694Y-71300981D01*
X57338443Y-71325000D01*
X57461557Y-71325000D01*
X57582306Y-71300981D01*
X57696048Y-71253868D01*
X57798414Y-71185469D01*
X57885469Y-71098414D01*
X57953868Y-70996048D01*
X58000981Y-70882306D01*
X58025000Y-70761557D01*
X58025000Y-70638443D01*
X60075000Y-70638443D01*
X60075000Y-70761557D01*
X60099019Y-70882306D01*
X60146132Y-70996048D01*
X60214531Y-71098414D01*
X60301586Y-71185469D01*
X60403952Y-71253868D01*
X60517694Y-71300981D01*
X60638443Y-71325000D01*
X60761557Y-71325000D01*
X60882306Y-71300981D01*
X60996048Y-71253868D01*
X61098414Y-71185469D01*
X61185469Y-71098414D01*
X61253868Y-70996048D01*
X61300981Y-70882306D01*
X61325000Y-70761557D01*
X61325000Y-70638443D01*
X61300981Y-70517694D01*
X61253868Y-70403952D01*
X61185469Y-70301586D01*
X61098414Y-70214531D01*
X60996048Y-70146132D01*
X60882306Y-70099019D01*
X60761557Y-70075000D01*
X60638443Y-70075000D01*
X60517694Y-70099019D01*
X60403952Y-70146132D01*
X60301586Y-70214531D01*
X60214531Y-70301586D01*
X60146132Y-70403952D01*
X60099019Y-70517694D01*
X60075000Y-70638443D01*
X58025000Y-70638443D01*
X58000981Y-70517694D01*
X57953868Y-70403952D01*
X57885469Y-70301586D01*
X57798414Y-70214531D01*
X57696048Y-70146132D01*
X57582306Y-70099019D01*
X57461557Y-70075000D01*
X57338443Y-70075000D01*
X57217694Y-70099019D01*
X57103952Y-70146132D01*
X57050000Y-70182182D01*
X56996048Y-70146132D01*
X56882306Y-70099019D01*
X56761557Y-70075000D01*
X56638443Y-70075000D01*
X56517694Y-70099019D01*
X56403952Y-70146132D01*
X56301586Y-70214531D01*
X56214531Y-70301586D01*
X56146132Y-70403952D01*
X56099019Y-70517694D01*
X56075000Y-70638443D01*
X48425000Y-70638443D01*
X48425000Y-66533518D01*
X54025000Y-66533518D01*
X54025000Y-66666482D01*
X54050940Y-66796890D01*
X54101823Y-66919732D01*
X54175693Y-67030287D01*
X54269713Y-67124307D01*
X54380268Y-67198177D01*
X54503110Y-67249060D01*
X54633518Y-67275000D01*
X54766482Y-67275000D01*
X54896890Y-67249060D01*
X55019732Y-67198177D01*
X55056749Y-67173443D01*
X57032500Y-67173443D01*
X57032500Y-67296557D01*
X57056519Y-67417306D01*
X57103632Y-67531048D01*
X57172031Y-67633414D01*
X57259086Y-67720469D01*
X57361452Y-67788868D01*
X57475194Y-67835981D01*
X57595943Y-67860000D01*
X57719057Y-67860000D01*
X57839806Y-67835981D01*
X57953548Y-67788868D01*
X58055914Y-67720469D01*
X58142969Y-67633414D01*
X58211368Y-67531048D01*
X58258481Y-67417306D01*
X58282500Y-67296557D01*
X58282500Y-67173443D01*
X59717500Y-67173443D01*
X59717500Y-67296557D01*
X59741519Y-67417306D01*
X59788632Y-67531048D01*
X59857031Y-67633414D01*
X59944086Y-67720469D01*
X60046452Y-67788868D01*
X60160194Y-67835981D01*
X60280943Y-67860000D01*
X60404057Y-67860000D01*
X60524806Y-67835981D01*
X60638548Y-67788868D01*
X60740914Y-67720469D01*
X60827969Y-67633414D01*
X60896368Y-67531048D01*
X60943481Y-67417306D01*
X60967500Y-67296557D01*
X60967500Y-67173443D01*
X60943481Y-67052694D01*
X60896368Y-66938952D01*
X60827969Y-66836586D01*
X60740914Y-66749531D01*
X60638548Y-66681132D01*
X60524806Y-66634019D01*
X60404057Y-66610000D01*
X60280943Y-66610000D01*
X60160194Y-66634019D01*
X60046452Y-66681132D01*
X59944086Y-66749531D01*
X59857031Y-66836586D01*
X59788632Y-66938952D01*
X59741519Y-67052694D01*
X59717500Y-67173443D01*
X58282500Y-67173443D01*
X58258481Y-67052694D01*
X58211368Y-66938952D01*
X58142969Y-66836586D01*
X58055914Y-66749531D01*
X57953548Y-66681132D01*
X57839806Y-66634019D01*
X57719057Y-66610000D01*
X57595943Y-66610000D01*
X57475194Y-66634019D01*
X57361452Y-66681132D01*
X57259086Y-66749531D01*
X57172031Y-66836586D01*
X57103632Y-66938952D01*
X57056519Y-67052694D01*
X57032500Y-67173443D01*
X55056749Y-67173443D01*
X55130287Y-67124307D01*
X55224307Y-67030287D01*
X55298177Y-66919732D01*
X55349060Y-66796890D01*
X55375000Y-66666482D01*
X55375000Y-66533518D01*
X55349060Y-66403110D01*
X55298177Y-66280268D01*
X55224307Y-66169713D01*
X55130287Y-66075693D01*
X55019732Y-66001823D01*
X54896890Y-65950940D01*
X54766482Y-65925000D01*
X54633518Y-65925000D01*
X54503110Y-65950940D01*
X54380268Y-66001823D01*
X54269713Y-66075693D01*
X54175693Y-66169713D01*
X54101823Y-66280268D01*
X54050940Y-66403110D01*
X54025000Y-66533518D01*
X48425000Y-66533518D01*
X48425000Y-65638443D01*
X49375000Y-65638443D01*
X49375000Y-65761557D01*
X49399019Y-65882306D01*
X49446132Y-65996048D01*
X49514531Y-66098414D01*
X49601586Y-66185469D01*
X49703952Y-66253868D01*
X49817694Y-66300981D01*
X49938443Y-66325000D01*
X50061557Y-66325000D01*
X50182306Y-66300981D01*
X50296048Y-66253868D01*
X50398414Y-66185469D01*
X50485469Y-66098414D01*
X50553868Y-65996048D01*
X50600981Y-65882306D01*
X50625000Y-65761557D01*
X50625000Y-65638443D01*
X50600981Y-65517694D01*
X50553868Y-65403952D01*
X50551228Y-65400000D01*
X51120767Y-65400000D01*
X51137661Y-65571529D01*
X51187695Y-65736467D01*
X51268945Y-65888475D01*
X51378289Y-66021711D01*
X51511525Y-66131055D01*
X51663533Y-66212305D01*
X51828471Y-66262339D01*
X52000000Y-66279233D01*
X52171529Y-66262339D01*
X52336467Y-66212305D01*
X52488475Y-66131055D01*
X52588327Y-66049109D01*
X53010035Y-65627401D01*
X57047626Y-65627401D01*
X57032500Y-65703443D01*
X57032500Y-65826557D01*
X57056519Y-65947306D01*
X57103632Y-66061048D01*
X57172031Y-66163414D01*
X57259086Y-66250469D01*
X57361452Y-66318868D01*
X57475194Y-66365981D01*
X57595943Y-66390000D01*
X57719057Y-66390000D01*
X57839806Y-66365981D01*
X57953548Y-66318868D01*
X58055914Y-66250469D01*
X58142969Y-66163414D01*
X58211368Y-66061048D01*
X58258481Y-65947306D01*
X58282500Y-65826557D01*
X58282500Y-65703443D01*
X58267374Y-65627401D01*
X59732626Y-65627401D01*
X59717500Y-65703443D01*
X59717500Y-65826557D01*
X59741519Y-65947306D01*
X59788632Y-66061048D01*
X59857031Y-66163414D01*
X59944086Y-66250469D01*
X60046452Y-66318868D01*
X60160194Y-66365981D01*
X60280943Y-66390000D01*
X60404057Y-66390000D01*
X60524806Y-66365981D01*
X60638548Y-66318868D01*
X60740914Y-66250469D01*
X60827969Y-66163414D01*
X60896368Y-66061048D01*
X60943481Y-65947306D01*
X60967500Y-65826557D01*
X60967500Y-65703443D01*
X60952374Y-65627401D01*
X64989965Y-65627401D01*
X65125000Y-65762436D01*
X65125001Y-72037562D01*
X64550891Y-72611673D01*
X64468945Y-72711525D01*
X64387695Y-72863533D01*
X64337661Y-73028471D01*
X64320767Y-73200000D01*
X64337661Y-73371529D01*
X64387695Y-73536467D01*
X64468945Y-73688475D01*
X64578289Y-73821711D01*
X64711525Y-73931055D01*
X64863533Y-74012305D01*
X65028471Y-74062339D01*
X65200000Y-74079233D01*
X65371529Y-74062339D01*
X65536467Y-74012305D01*
X65688475Y-73931055D01*
X65788327Y-73849109D01*
X66588325Y-73049112D01*
X66621712Y-73021712D01*
X66731056Y-72888476D01*
X66812305Y-72736468D01*
X66862339Y-72571530D01*
X66875000Y-72442979D01*
X66879233Y-72400000D01*
X66875000Y-72357021D01*
X66875000Y-72238443D01*
X67975000Y-72238443D01*
X67975000Y-72361557D01*
X67999019Y-72482306D01*
X68046132Y-72596048D01*
X68114531Y-72698414D01*
X68201586Y-72785469D01*
X68303952Y-72853868D01*
X68417694Y-72900981D01*
X68538443Y-72925000D01*
X68661557Y-72925000D01*
X68782306Y-72900981D01*
X68896048Y-72853868D01*
X68998414Y-72785469D01*
X69085469Y-72698414D01*
X69153868Y-72596048D01*
X69200981Y-72482306D01*
X69225000Y-72361557D01*
X69225000Y-72238443D01*
X69200981Y-72117694D01*
X69153868Y-72003952D01*
X69085469Y-71901586D01*
X68998414Y-71814531D01*
X68896048Y-71746132D01*
X68782306Y-71699019D01*
X68661557Y-71675000D01*
X68538443Y-71675000D01*
X68417694Y-71699019D01*
X68303952Y-71746132D01*
X68201586Y-71814531D01*
X68114531Y-71901586D01*
X68046132Y-72003952D01*
X67999019Y-72117694D01*
X67975000Y-72238443D01*
X66875000Y-72238443D01*
X66875000Y-65442978D01*
X66875446Y-65438443D01*
X67175000Y-65438443D01*
X67175000Y-65561557D01*
X67199019Y-65682306D01*
X67246132Y-65796048D01*
X67314531Y-65898414D01*
X67401586Y-65985469D01*
X67503952Y-66053868D01*
X67617694Y-66100981D01*
X67738443Y-66125000D01*
X67861557Y-66125000D01*
X67982306Y-66100981D01*
X68096048Y-66053868D01*
X68198414Y-65985469D01*
X68285469Y-65898414D01*
X68353868Y-65796048D01*
X68400981Y-65682306D01*
X68425000Y-65561557D01*
X68425000Y-65438443D01*
X68400981Y-65317694D01*
X68353868Y-65203952D01*
X68285469Y-65101586D01*
X68198414Y-65014531D01*
X68096048Y-64946132D01*
X67982306Y-64899019D01*
X67861557Y-64875000D01*
X67738443Y-64875000D01*
X67617694Y-64899019D01*
X67503952Y-64946132D01*
X67401586Y-65014531D01*
X67314531Y-65101586D01*
X67246132Y-65203952D01*
X67199019Y-65317694D01*
X67175000Y-65438443D01*
X66875446Y-65438443D01*
X66879233Y-65399999D01*
X66862339Y-65228469D01*
X66842788Y-65164019D01*
X66812305Y-65063532D01*
X66731056Y-64911524D01*
X66621712Y-64778288D01*
X66588320Y-64750884D01*
X66001518Y-64164082D01*
X65974113Y-64130689D01*
X65840877Y-64021345D01*
X65688869Y-63940096D01*
X65523931Y-63890062D01*
X65395380Y-63877401D01*
X65352401Y-63873168D01*
X65309422Y-63877401D01*
X63559644Y-63877401D01*
X63598177Y-63819732D01*
X63649060Y-63696890D01*
X63675000Y-63566482D01*
X63675000Y-63433518D01*
X63649060Y-63303110D01*
X63598177Y-63180268D01*
X63524307Y-63069713D01*
X63430287Y-62975693D01*
X63319732Y-62901823D01*
X63196890Y-62850940D01*
X63066482Y-62825000D01*
X62933518Y-62825000D01*
X62803110Y-62850940D01*
X62680268Y-62901823D01*
X62569713Y-62975693D01*
X62475693Y-63069713D01*
X62416102Y-63158898D01*
X62396890Y-63150940D01*
X62266482Y-63125000D01*
X62133518Y-63125000D01*
X62003110Y-63150940D01*
X61880268Y-63201823D01*
X61769713Y-63275693D01*
X61675693Y-63369713D01*
X61601823Y-63480268D01*
X61550940Y-63603110D01*
X61525000Y-63733518D01*
X61525000Y-63866482D01*
X61527172Y-63877401D01*
X52690577Y-63877401D01*
X52647598Y-63873168D01*
X52476068Y-63890062D01*
X52437679Y-63901707D01*
X52311131Y-63940096D01*
X52159123Y-64021345D01*
X52025887Y-64130689D01*
X51998482Y-64164082D01*
X51350891Y-64811673D01*
X51268945Y-64911525D01*
X51187695Y-65063533D01*
X51137661Y-65228471D01*
X51120767Y-65400000D01*
X50551228Y-65400000D01*
X50485469Y-65301586D01*
X50398414Y-65214531D01*
X50296048Y-65146132D01*
X50182306Y-65099019D01*
X50061557Y-65075000D01*
X49938443Y-65075000D01*
X49817694Y-65099019D01*
X49703952Y-65146132D01*
X49601586Y-65214531D01*
X49514531Y-65301586D01*
X49446132Y-65403952D01*
X49399019Y-65517694D01*
X49375000Y-65638443D01*
X48425000Y-65638443D01*
X48425000Y-62333518D01*
X55625000Y-62333518D01*
X55625000Y-62466482D01*
X55650940Y-62596890D01*
X55701823Y-62719732D01*
X55775693Y-62830287D01*
X55869713Y-62924307D01*
X55980268Y-62998177D01*
X56103110Y-63049060D01*
X56233518Y-63075000D01*
X56366482Y-63075000D01*
X56496890Y-63049060D01*
X56619732Y-62998177D01*
X56730287Y-62924307D01*
X56824307Y-62830287D01*
X56898177Y-62719732D01*
X56949060Y-62596890D01*
X56975000Y-62466482D01*
X56975000Y-62333518D01*
X56949060Y-62203110D01*
X56898177Y-62080268D01*
X56824307Y-61969713D01*
X56730287Y-61875693D01*
X56619732Y-61801823D01*
X56496890Y-61750940D01*
X56366482Y-61725000D01*
X56233518Y-61725000D01*
X56103110Y-61750940D01*
X55980268Y-61801823D01*
X55869713Y-61875693D01*
X55775693Y-61969713D01*
X55701823Y-62080268D01*
X55650940Y-62203110D01*
X55625000Y-62333518D01*
X48425000Y-62333518D01*
X48425000Y-61538443D01*
X58375000Y-61538443D01*
X58375000Y-61661557D01*
X58399019Y-61782306D01*
X58446132Y-61896048D01*
X58514531Y-61998414D01*
X58601586Y-62085469D01*
X58703952Y-62153868D01*
X58817694Y-62200981D01*
X58938443Y-62225000D01*
X59061557Y-62225000D01*
X59182306Y-62200981D01*
X59296048Y-62153868D01*
X59398414Y-62085469D01*
X59485469Y-61998414D01*
X59553868Y-61896048D01*
X59600981Y-61782306D01*
X59625000Y-61661557D01*
X59625000Y-61538443D01*
X59600981Y-61417694D01*
X59553868Y-61303952D01*
X59485469Y-61201586D01*
X59398414Y-61114531D01*
X59296048Y-61046132D01*
X59182306Y-60999019D01*
X59061557Y-60975000D01*
X58938443Y-60975000D01*
X58817694Y-60999019D01*
X58703952Y-61046132D01*
X58601586Y-61114531D01*
X58514531Y-61201586D01*
X58446132Y-61303952D01*
X58399019Y-61417694D01*
X58375000Y-61538443D01*
X48425000Y-61538443D01*
X48425000Y-60425000D01*
X69575001Y-60425000D01*
X69575000Y-99575000D01*
X69575000Y-99575000D01*
G37*
X69575000Y-99575000D02*
X48425000Y-99575000D01*
X48425000Y-98211041D01*
X58375000Y-98211041D01*
X58375000Y-98334155D01*
X58399019Y-98454904D01*
X58446132Y-98568646D01*
X58514531Y-98671012D01*
X58601586Y-98758067D01*
X58703952Y-98826466D01*
X58817694Y-98873579D01*
X58938443Y-98897598D01*
X59061557Y-98897598D01*
X59182306Y-98873579D01*
X59296048Y-98826466D01*
X59398414Y-98758067D01*
X59485469Y-98671012D01*
X59553868Y-98568646D01*
X59600981Y-98454904D01*
X59625000Y-98334155D01*
X59625000Y-98211041D01*
X59607885Y-98125000D01*
X59661557Y-98125000D01*
X59782306Y-98100981D01*
X59896048Y-98053868D01*
X59998414Y-97985469D01*
X60085469Y-97898414D01*
X60153868Y-97796048D01*
X60200981Y-97682306D01*
X60225000Y-97561557D01*
X60225000Y-97438443D01*
X60200981Y-97317694D01*
X60153868Y-97203952D01*
X60085469Y-97101586D01*
X60050489Y-97066606D01*
X60086013Y-97042870D01*
X60173068Y-96955815D01*
X60241467Y-96853449D01*
X60288580Y-96739707D01*
X60312599Y-96618958D01*
X60312599Y-96495844D01*
X60288580Y-96375095D01*
X60241467Y-96261353D01*
X60173068Y-96158987D01*
X60102524Y-96088443D01*
X65025000Y-96088443D01*
X65025000Y-96211557D01*
X65049019Y-96332306D01*
X65096132Y-96446048D01*
X65164531Y-96548414D01*
X65251586Y-96635469D01*
X65353952Y-96703868D01*
X65467694Y-96750981D01*
X65588443Y-96775000D01*
X65711557Y-96775000D01*
X65832306Y-96750981D01*
X65946048Y-96703868D01*
X66048414Y-96635469D01*
X66135469Y-96548414D01*
X66142131Y-96538443D01*
X66575000Y-96538443D01*
X66575000Y-96661557D01*
X66599019Y-96782306D01*
X66646132Y-96896048D01*
X66714531Y-96998414D01*
X66801586Y-97085469D01*
X66903952Y-97153868D01*
X67017694Y-97200981D01*
X67138443Y-97225000D01*
X67261557Y-97225000D01*
X67382306Y-97200981D01*
X67496048Y-97153868D01*
X67598414Y-97085469D01*
X67685469Y-96998414D01*
X67753868Y-96896048D01*
X67800981Y-96782306D01*
X67825000Y-96661557D01*
X67825000Y-96538443D01*
X68175000Y-96538443D01*
X68175000Y-96661557D01*
X68199019Y-96782306D01*
X68246132Y-96896048D01*
X68314531Y-96998414D01*
X68401586Y-97085469D01*
X68503952Y-97153868D01*
X68617694Y-97200981D01*
X68738443Y-97225000D01*
X68861557Y-97225000D01*
X68982306Y-97200981D01*
X69096048Y-97153868D01*
X69198414Y-97085469D01*
X69285469Y-96998414D01*
X69353868Y-96896048D01*
X69400981Y-96782306D01*
X69425000Y-96661557D01*
X69425000Y-96538443D01*
X69400981Y-96417694D01*
X69353868Y-96303952D01*
X69285469Y-96201586D01*
X69198414Y-96114531D01*
X69096048Y-96046132D01*
X68982306Y-95999019D01*
X68861557Y-95975000D01*
X68738443Y-95975000D01*
X68617694Y-95999019D01*
X68503952Y-96046132D01*
X68401586Y-96114531D01*
X68314531Y-96201586D01*
X68246132Y-96303952D01*
X68199019Y-96417694D01*
X68175000Y-96538443D01*
X67825000Y-96538443D01*
X67800981Y-96417694D01*
X67753868Y-96303952D01*
X67685469Y-96201586D01*
X67598414Y-96114531D01*
X67496048Y-96046132D01*
X67382306Y-95999019D01*
X67261557Y-95975000D01*
X67138443Y-95975000D01*
X67017694Y-95999019D01*
X66903952Y-96046132D01*
X66801586Y-96114531D01*
X66714531Y-96201586D01*
X66646132Y-96303952D01*
X66599019Y-96417694D01*
X66575000Y-96538443D01*
X66142131Y-96538443D01*
X66203868Y-96446048D01*
X66250981Y-96332306D01*
X66275000Y-96211557D01*
X66275000Y-96088443D01*
X66250981Y-95967694D01*
X66203868Y-95853952D01*
X66135469Y-95751586D01*
X66048414Y-95664531D01*
X65946048Y-95596132D01*
X65832306Y-95549019D01*
X65711557Y-95525000D01*
X65588443Y-95525000D01*
X65467694Y-95549019D01*
X65353952Y-95596132D01*
X65251586Y-95664531D01*
X65164531Y-95751586D01*
X65096132Y-95853952D01*
X65049019Y-95967694D01*
X65025000Y-96088443D01*
X60102524Y-96088443D01*
X60086013Y-96071932D01*
X59983647Y-96003533D01*
X59869905Y-95956420D01*
X59749156Y-95932401D01*
X59626042Y-95932401D01*
X59505293Y-95956420D01*
X59391551Y-96003533D01*
X59289185Y-96071932D01*
X59202130Y-96158987D01*
X59133731Y-96261353D01*
X59086618Y-96375095D01*
X59062599Y-96495844D01*
X59062599Y-96618958D01*
X59086618Y-96739707D01*
X59133731Y-96853449D01*
X59202130Y-96955815D01*
X59237110Y-96990795D01*
X59201586Y-97014531D01*
X59114531Y-97101586D01*
X59046132Y-97203952D01*
X58999019Y-97317694D01*
X58975000Y-97438443D01*
X58975000Y-97561557D01*
X58992115Y-97647598D01*
X58938443Y-97647598D01*
X58817694Y-97671617D01*
X58703952Y-97718730D01*
X58601586Y-97787129D01*
X58514531Y-97874184D01*
X58446132Y-97976550D01*
X58399019Y-98090292D01*
X58375000Y-98211041D01*
X48425000Y-98211041D01*
X48425000Y-97438443D01*
X52275000Y-97438443D01*
X52275000Y-97561557D01*
X52299019Y-97682306D01*
X52346132Y-97796048D01*
X52414531Y-97898414D01*
X52501586Y-97985469D01*
X52603952Y-98053868D01*
X52717694Y-98100981D01*
X52838443Y-98125000D01*
X52961557Y-98125000D01*
X53082306Y-98100981D01*
X53196048Y-98053868D01*
X53298414Y-97985469D01*
X53385469Y-97898414D01*
X53453868Y-97796048D01*
X53500981Y-97682306D01*
X53525000Y-97561557D01*
X53525000Y-97438443D01*
X53500981Y-97317694D01*
X53453868Y-97203952D01*
X53385469Y-97101586D01*
X53298414Y-97014531D01*
X53196048Y-96946132D01*
X53082306Y-96899019D01*
X52961557Y-96875000D01*
X52838443Y-96875000D01*
X52717694Y-96899019D01*
X52603952Y-96946132D01*
X52501586Y-97014531D01*
X52414531Y-97101586D01*
X52346132Y-97203952D01*
X52299019Y-97317694D01*
X52275000Y-97438443D01*
X48425000Y-97438443D01*
X48425000Y-89650000D01*
X49371251Y-89650000D01*
X49386214Y-89801926D01*
X49430530Y-89948014D01*
X49502494Y-90082650D01*
X49599341Y-90200659D01*
X49689926Y-90275000D01*
X49599341Y-90349341D01*
X49502494Y-90467350D01*
X49430530Y-90601986D01*
X49386214Y-90748074D01*
X49371251Y-90900000D01*
X49386214Y-91051926D01*
X49430530Y-91198014D01*
X49502494Y-91332650D01*
X49599341Y-91450659D01*
X49689926Y-91525000D01*
X49599341Y-91599341D01*
X49502494Y-91717350D01*
X49430530Y-91851986D01*
X49386214Y-91998074D01*
X49371251Y-92150000D01*
X49386214Y-92301926D01*
X49430530Y-92448014D01*
X49502494Y-92582650D01*
X49599341Y-92700659D01*
X49689926Y-92775000D01*
X49599341Y-92849341D01*
X49502494Y-92967350D01*
X49430530Y-93101986D01*
X49386214Y-93248074D01*
X49371251Y-93400000D01*
X49386214Y-93551926D01*
X49430530Y-93698014D01*
X49502494Y-93832650D01*
X49599341Y-93950659D01*
X49689926Y-94025000D01*
X49599341Y-94099341D01*
X49502494Y-94217350D01*
X49430530Y-94351986D01*
X49386214Y-94498074D01*
X49371251Y-94650000D01*
X49386214Y-94801926D01*
X49430530Y-94948014D01*
X49502494Y-95082650D01*
X49599341Y-95200659D01*
X49689926Y-95275000D01*
X49599341Y-95349341D01*
X49502494Y-95467350D01*
X49430530Y-95601986D01*
X49386214Y-95748074D01*
X49371251Y-95900000D01*
X49386214Y-96051926D01*
X49430530Y-96198014D01*
X49502494Y-96332650D01*
X49599341Y-96450659D01*
X49717350Y-96547506D01*
X49851986Y-96619470D01*
X49998074Y-96663786D01*
X50111935Y-96675000D01*
X50688065Y-96675000D01*
X50801926Y-96663786D01*
X50948014Y-96619470D01*
X51082650Y-96547506D01*
X51200659Y-96450659D01*
X51297506Y-96332650D01*
X51369470Y-96198014D01*
X51413786Y-96051926D01*
X51428749Y-95900000D01*
X51413786Y-95748074D01*
X51369470Y-95601986D01*
X51335506Y-95538443D01*
X57775000Y-95538443D01*
X57775000Y-95661557D01*
X57799019Y-95782306D01*
X57846132Y-95896048D01*
X57914531Y-95998414D01*
X58001586Y-96085469D01*
X58103952Y-96153868D01*
X58217694Y-96200981D01*
X58338443Y-96225000D01*
X58461557Y-96225000D01*
X58582306Y-96200981D01*
X58696048Y-96153868D01*
X58798414Y-96085469D01*
X58885469Y-95998414D01*
X58953868Y-95896048D01*
X59000981Y-95782306D01*
X59025000Y-95661557D01*
X59025000Y-95538443D01*
X59000981Y-95417694D01*
X58953868Y-95303952D01*
X58885469Y-95201586D01*
X58798414Y-95114531D01*
X58696048Y-95046132D01*
X58582306Y-94999019D01*
X58461557Y-94975000D01*
X58338443Y-94975000D01*
X58217694Y-94999019D01*
X58103952Y-95046132D01*
X58001586Y-95114531D01*
X57914531Y-95201586D01*
X57846132Y-95303952D01*
X57799019Y-95417694D01*
X57775000Y-95538443D01*
X51335506Y-95538443D01*
X51297506Y-95467350D01*
X51200659Y-95349341D01*
X51110074Y-95275000D01*
X51200659Y-95200659D01*
X51297506Y-95082650D01*
X51369470Y-94948014D01*
X51413786Y-94801926D01*
X51428749Y-94650000D01*
X51413786Y-94498074D01*
X51369470Y-94351986D01*
X51297506Y-94217350D01*
X51232750Y-94138443D01*
X58575000Y-94138443D01*
X58575000Y-94261557D01*
X58599019Y-94382306D01*
X58646132Y-94496048D01*
X58714531Y-94598414D01*
X58801586Y-94685469D01*
X58903952Y-94753868D01*
X59017694Y-94800981D01*
X59138443Y-94825000D01*
X59261557Y-94825000D01*
X59382306Y-94800981D01*
X59496048Y-94753868D01*
X59598414Y-94685469D01*
X59645440Y-94638443D01*
X62375000Y-94638443D01*
X62375000Y-94761557D01*
X62399019Y-94882306D01*
X62446132Y-94996048D01*
X62514531Y-95098414D01*
X62601586Y-95185469D01*
X62703952Y-95253868D01*
X62817694Y-95300981D01*
X62938443Y-95325000D01*
X63061557Y-95325000D01*
X63182306Y-95300981D01*
X63296048Y-95253868D01*
X63398414Y-95185469D01*
X63485469Y-95098414D01*
X63553868Y-94996048D01*
X63600981Y-94882306D01*
X63625000Y-94761557D01*
X63625000Y-94638443D01*
X63600981Y-94517694D01*
X63553868Y-94403952D01*
X63485469Y-94301586D01*
X63398414Y-94214531D01*
X63296048Y-94146132D01*
X63182306Y-94099019D01*
X63061557Y-94075000D01*
X62938443Y-94075000D01*
X62817694Y-94099019D01*
X62703952Y-94146132D01*
X62601586Y-94214531D01*
X62514531Y-94301586D01*
X62446132Y-94403952D01*
X62399019Y-94517694D01*
X62375000Y-94638443D01*
X59645440Y-94638443D01*
X59685469Y-94598414D01*
X59753868Y-94496048D01*
X59800981Y-94382306D01*
X59812380Y-94325000D01*
X59861557Y-94325000D01*
X59982306Y-94300981D01*
X60096048Y-94253868D01*
X60198414Y-94185469D01*
X60285469Y-94098414D01*
X60353868Y-93996048D01*
X60400981Y-93882306D01*
X60425000Y-93761557D01*
X60425000Y-93638443D01*
X60400981Y-93517694D01*
X60353868Y-93403952D01*
X60285469Y-93301586D01*
X60198414Y-93214531D01*
X60096048Y-93146132D01*
X59982306Y-93099019D01*
X59861557Y-93075000D01*
X59738443Y-93075000D01*
X59617694Y-93099019D01*
X59503952Y-93146132D01*
X59401586Y-93214531D01*
X59314531Y-93301586D01*
X59246132Y-93403952D01*
X59199019Y-93517694D01*
X59187620Y-93575000D01*
X59138443Y-93575000D01*
X59017694Y-93599019D01*
X58903952Y-93646132D01*
X58801586Y-93714531D01*
X58714531Y-93801586D01*
X58646132Y-93903952D01*
X58599019Y-94017694D01*
X58575000Y-94138443D01*
X51232750Y-94138443D01*
X51200659Y-94099341D01*
X51110074Y-94025000D01*
X51200659Y-93950659D01*
X51297506Y-93832650D01*
X51369470Y-93698014D01*
X51413786Y-93551926D01*
X51428749Y-93400000D01*
X51413786Y-93248074D01*
X51369470Y-93101986D01*
X51297506Y-92967350D01*
X51200659Y-92849341D01*
X51110074Y-92775000D01*
X51200659Y-92700659D01*
X51297506Y-92582650D01*
X51369470Y-92448014D01*
X51372373Y-92438443D01*
X61975000Y-92438443D01*
X61975000Y-92561557D01*
X61999019Y-92682306D01*
X62046132Y-92796048D01*
X62114531Y-92898414D01*
X62201586Y-92985469D01*
X62303952Y-93053868D01*
X62417694Y-93100981D01*
X62538443Y-93125000D01*
X62661557Y-93125000D01*
X62782306Y-93100981D01*
X62896048Y-93053868D01*
X62998414Y-92985469D01*
X63085469Y-92898414D01*
X63153868Y-92796048D01*
X63200981Y-92682306D01*
X63225000Y-92561557D01*
X63225000Y-92438443D01*
X63200981Y-92317694D01*
X63196993Y-92308067D01*
X63230814Y-92285469D01*
X63317869Y-92198414D01*
X63386268Y-92096048D01*
X63433381Y-91982306D01*
X63457400Y-91861557D01*
X63457400Y-91738443D01*
X63433381Y-91617694D01*
X63386268Y-91503952D01*
X63317869Y-91401586D01*
X63230814Y-91314531D01*
X63128448Y-91246132D01*
X63014706Y-91199019D01*
X62893957Y-91175000D01*
X62770843Y-91175000D01*
X62650094Y-91199019D01*
X62536352Y-91246132D01*
X62433986Y-91314531D01*
X62346931Y-91401586D01*
X62278532Y-91503952D01*
X62231419Y-91617694D01*
X62207400Y-91738443D01*
X62207400Y-91861557D01*
X62231419Y-91982306D01*
X62235407Y-91991933D01*
X62201586Y-92014531D01*
X62114531Y-92101586D01*
X62046132Y-92203952D01*
X61999019Y-92317694D01*
X61975000Y-92438443D01*
X51372373Y-92438443D01*
X51413786Y-92301926D01*
X51428749Y-92150000D01*
X51413786Y-91998074D01*
X51369470Y-91851986D01*
X51297506Y-91717350D01*
X51200659Y-91599341D01*
X51110074Y-91525000D01*
X51200659Y-91450659D01*
X51297506Y-91332650D01*
X51369470Y-91198014D01*
X51413786Y-91051926D01*
X51428749Y-90900000D01*
X51413786Y-90748074D01*
X51369470Y-90601986D01*
X51297506Y-90467350D01*
X51200659Y-90349341D01*
X51110074Y-90275000D01*
X51200659Y-90200659D01*
X51297506Y-90082650D01*
X51369470Y-89948014D01*
X51413786Y-89801926D01*
X51420038Y-89738443D01*
X57875000Y-89738443D01*
X57875000Y-89861557D01*
X57899019Y-89982306D01*
X57946132Y-90096048D01*
X58014531Y-90198414D01*
X58016117Y-90200000D01*
X58014531Y-90201586D01*
X57946132Y-90303952D01*
X57899019Y-90417694D01*
X57875000Y-90538443D01*
X57875000Y-90661557D01*
X57899019Y-90782306D01*
X57946132Y-90896048D01*
X58014531Y-90998414D01*
X58101586Y-91085469D01*
X58203952Y-91153868D01*
X58317694Y-91200981D01*
X58438443Y-91225000D01*
X58561557Y-91225000D01*
X58682306Y-91200981D01*
X58786383Y-91157871D01*
X58701586Y-91214531D01*
X58614531Y-91301586D01*
X58546132Y-91403952D01*
X58499019Y-91517694D01*
X58475000Y-91638443D01*
X58475000Y-91761557D01*
X58499019Y-91882306D01*
X58546132Y-91996048D01*
X58614531Y-92098414D01*
X58701586Y-92185469D01*
X58803952Y-92253868D01*
X58917694Y-92300981D01*
X59038443Y-92325000D01*
X59161557Y-92325000D01*
X59282306Y-92300981D01*
X59396048Y-92253868D01*
X59498414Y-92185469D01*
X59585469Y-92098414D01*
X59653868Y-91996048D01*
X59700981Y-91882306D01*
X59725000Y-91761557D01*
X59725000Y-91638443D01*
X59700981Y-91517694D01*
X59653868Y-91403952D01*
X59585469Y-91301586D01*
X59498414Y-91214531D01*
X59396048Y-91146132D01*
X59282306Y-91099019D01*
X59161557Y-91075000D01*
X59038443Y-91075000D01*
X58917694Y-91099019D01*
X58813617Y-91142129D01*
X58898414Y-91085469D01*
X58985469Y-90998414D01*
X59053868Y-90896048D01*
X59088999Y-90811232D01*
X59675000Y-90811232D01*
X59675000Y-90934346D01*
X59699019Y-91055095D01*
X59746132Y-91168837D01*
X59814531Y-91271203D01*
X59901586Y-91358258D01*
X60003952Y-91426657D01*
X60117694Y-91473770D01*
X60238443Y-91497789D01*
X60361557Y-91497789D01*
X60482306Y-91473770D01*
X60596048Y-91426657D01*
X60698414Y-91358258D01*
X60785469Y-91271203D01*
X60853868Y-91168837D01*
X60900981Y-91055095D01*
X60925000Y-90934346D01*
X60925000Y-90811232D01*
X60900981Y-90690483D01*
X60853868Y-90576741D01*
X60785469Y-90474375D01*
X60698414Y-90387320D01*
X60596048Y-90318921D01*
X60482306Y-90271808D01*
X60361557Y-90247789D01*
X60238443Y-90247789D01*
X60117694Y-90271808D01*
X60003952Y-90318921D01*
X59901586Y-90387320D01*
X59814531Y-90474375D01*
X59746132Y-90576741D01*
X59699019Y-90690483D01*
X59675000Y-90811232D01*
X59088999Y-90811232D01*
X59100981Y-90782306D01*
X59125000Y-90661557D01*
X59125000Y-90538443D01*
X59100981Y-90417694D01*
X59053868Y-90303952D01*
X58985469Y-90201586D01*
X58983883Y-90200000D01*
X58985469Y-90198414D01*
X59053868Y-90096048D01*
X59100981Y-89982306D01*
X59125000Y-89861557D01*
X59125000Y-89738443D01*
X59100981Y-89617694D01*
X59053868Y-89503952D01*
X58985469Y-89401586D01*
X58922326Y-89338443D01*
X61075000Y-89338443D01*
X61075000Y-89461557D01*
X61099019Y-89582306D01*
X61146132Y-89696048D01*
X61214531Y-89798414D01*
X61301586Y-89885469D01*
X61403952Y-89953868D01*
X61517694Y-90000981D01*
X61638443Y-90025000D01*
X61761557Y-90025000D01*
X61882306Y-90000981D01*
X61996048Y-89953868D01*
X62098414Y-89885469D01*
X62185469Y-89798414D01*
X62253868Y-89696048D01*
X62300981Y-89582306D01*
X62325000Y-89461557D01*
X62325000Y-89338443D01*
X62875000Y-89338443D01*
X62875000Y-89461557D01*
X62899019Y-89582306D01*
X62946132Y-89696048D01*
X63014531Y-89798414D01*
X63101586Y-89885469D01*
X63203952Y-89953868D01*
X63317694Y-90000981D01*
X63438443Y-90025000D01*
X63561557Y-90025000D01*
X63682306Y-90000981D01*
X63796048Y-89953868D01*
X63898414Y-89885469D01*
X63985469Y-89798414D01*
X64053868Y-89696048D01*
X64100981Y-89582306D01*
X64125000Y-89461557D01*
X64125000Y-89338443D01*
X64100981Y-89217694D01*
X64053868Y-89103952D01*
X63985469Y-89001586D01*
X63898414Y-88914531D01*
X63796048Y-88846132D01*
X63682306Y-88799019D01*
X63561557Y-88775000D01*
X63438443Y-88775000D01*
X63317694Y-88799019D01*
X63203952Y-88846132D01*
X63101586Y-88914531D01*
X63014531Y-89001586D01*
X62946132Y-89103952D01*
X62899019Y-89217694D01*
X62875000Y-89338443D01*
X62325000Y-89338443D01*
X62300981Y-89217694D01*
X62253868Y-89103952D01*
X62185469Y-89001586D01*
X62098414Y-88914531D01*
X61996048Y-88846132D01*
X61882306Y-88799019D01*
X61761557Y-88775000D01*
X61638443Y-88775000D01*
X61517694Y-88799019D01*
X61403952Y-88846132D01*
X61301586Y-88914531D01*
X61214531Y-89001586D01*
X61146132Y-89103952D01*
X61099019Y-89217694D01*
X61075000Y-89338443D01*
X58922326Y-89338443D01*
X58898414Y-89314531D01*
X58796048Y-89246132D01*
X58682306Y-89199019D01*
X58561557Y-89175000D01*
X58438443Y-89175000D01*
X58317694Y-89199019D01*
X58203952Y-89246132D01*
X58101586Y-89314531D01*
X58014531Y-89401586D01*
X57946132Y-89503952D01*
X57899019Y-89617694D01*
X57875000Y-89738443D01*
X51420038Y-89738443D01*
X51428749Y-89650000D01*
X51413786Y-89498074D01*
X51369470Y-89351986D01*
X51297506Y-89217350D01*
X51226521Y-89130855D01*
X51259347Y-89113309D01*
X51316448Y-89066448D01*
X51363309Y-89009347D01*
X51398131Y-88944200D01*
X51419574Y-88873513D01*
X51426814Y-88800000D01*
X51425000Y-88518750D01*
X51344693Y-88438443D01*
X53875000Y-88438443D01*
X53875000Y-88561557D01*
X53899019Y-88682306D01*
X53946132Y-88796048D01*
X54014531Y-88898414D01*
X54101586Y-88985469D01*
X54203952Y-89053868D01*
X54317694Y-89100981D01*
X54438443Y-89125000D01*
X54561557Y-89125000D01*
X54682306Y-89100981D01*
X54796048Y-89053868D01*
X54898414Y-88985469D01*
X54985469Y-88898414D01*
X55053868Y-88796048D01*
X55100981Y-88682306D01*
X55125000Y-88561557D01*
X55125000Y-88438443D01*
X55100981Y-88317694D01*
X55053868Y-88203952D01*
X54985469Y-88101586D01*
X54898414Y-88014531D01*
X54796048Y-87946132D01*
X54682306Y-87899019D01*
X54561557Y-87875000D01*
X54438443Y-87875000D01*
X54317694Y-87899019D01*
X54203952Y-87946132D01*
X54101586Y-88014531D01*
X54014531Y-88101586D01*
X53946132Y-88203952D01*
X53899019Y-88317694D01*
X53875000Y-88438443D01*
X51344693Y-88438443D01*
X51331250Y-88425000D01*
X50425000Y-88425000D01*
X50425000Y-88445000D01*
X50375000Y-88445000D01*
X50375000Y-88425000D01*
X49468750Y-88425000D01*
X49375000Y-88518750D01*
X49373186Y-88800000D01*
X49380426Y-88873513D01*
X49401869Y-88944200D01*
X49436691Y-89009347D01*
X49483552Y-89066448D01*
X49540653Y-89113309D01*
X49573479Y-89130855D01*
X49502494Y-89217350D01*
X49430530Y-89351986D01*
X49386214Y-89498074D01*
X49371251Y-89650000D01*
X48425000Y-89650000D01*
X48425000Y-88000000D01*
X49373186Y-88000000D01*
X49375000Y-88281250D01*
X49468750Y-88375000D01*
X50375000Y-88375000D01*
X50375000Y-87718750D01*
X50425000Y-87718750D01*
X50425000Y-88375000D01*
X51331250Y-88375000D01*
X51425000Y-88281250D01*
X51426814Y-88000000D01*
X51419574Y-87926487D01*
X51398131Y-87855800D01*
X51388854Y-87838443D01*
X55575000Y-87838443D01*
X55575000Y-87961557D01*
X55599019Y-88082306D01*
X55646132Y-88196048D01*
X55714531Y-88298414D01*
X55801586Y-88385469D01*
X55903952Y-88453868D01*
X56017694Y-88500981D01*
X56138443Y-88525000D01*
X56261557Y-88525000D01*
X56382306Y-88500981D01*
X56496048Y-88453868D01*
X56519133Y-88438443D01*
X61975000Y-88438443D01*
X61975000Y-88561557D01*
X61999019Y-88682306D01*
X62046132Y-88796048D01*
X62114531Y-88898414D01*
X62201586Y-88985469D01*
X62303952Y-89053868D01*
X62417694Y-89100981D01*
X62538443Y-89125000D01*
X62661557Y-89125000D01*
X62782306Y-89100981D01*
X62896048Y-89053868D01*
X62998414Y-88985469D01*
X63085469Y-88898414D01*
X63153868Y-88796048D01*
X63198438Y-88688443D01*
X65125000Y-88688443D01*
X65125000Y-88811557D01*
X65149019Y-88932306D01*
X65196132Y-89046048D01*
X65264531Y-89148414D01*
X65351586Y-89235469D01*
X65453952Y-89303868D01*
X65567694Y-89350981D01*
X65688443Y-89375000D01*
X65811557Y-89375000D01*
X65932306Y-89350981D01*
X66046048Y-89303868D01*
X66148414Y-89235469D01*
X66235469Y-89148414D01*
X66303868Y-89046048D01*
X66350981Y-88932306D01*
X66375000Y-88811557D01*
X66375000Y-88688443D01*
X66350981Y-88567694D01*
X66303868Y-88453952D01*
X66235469Y-88351586D01*
X66148414Y-88264531D01*
X66046048Y-88196132D01*
X65932306Y-88149019D01*
X65811557Y-88125000D01*
X65688443Y-88125000D01*
X65567694Y-88149019D01*
X65453952Y-88196132D01*
X65351586Y-88264531D01*
X65264531Y-88351586D01*
X65196132Y-88453952D01*
X65149019Y-88567694D01*
X65125000Y-88688443D01*
X63198438Y-88688443D01*
X63200981Y-88682306D01*
X63225000Y-88561557D01*
X63225000Y-88438443D01*
X63200981Y-88317694D01*
X63153868Y-88203952D01*
X63085469Y-88101586D01*
X62998414Y-88014531D01*
X62896048Y-87946132D01*
X62782306Y-87899019D01*
X62661557Y-87875000D01*
X62538443Y-87875000D01*
X62417694Y-87899019D01*
X62303952Y-87946132D01*
X62201586Y-88014531D01*
X62114531Y-88101586D01*
X62046132Y-88203952D01*
X61999019Y-88317694D01*
X61975000Y-88438443D01*
X56519133Y-88438443D01*
X56598414Y-88385469D01*
X56685469Y-88298414D01*
X56753868Y-88196048D01*
X56800981Y-88082306D01*
X56825000Y-87961557D01*
X56825000Y-87838443D01*
X56800981Y-87717694D01*
X56753868Y-87603952D01*
X56685469Y-87501586D01*
X56598414Y-87414531D01*
X56496048Y-87346132D01*
X56382306Y-87299019D01*
X56261557Y-87275000D01*
X56138443Y-87275000D01*
X56017694Y-87299019D01*
X55903952Y-87346132D01*
X55801586Y-87414531D01*
X55714531Y-87501586D01*
X55646132Y-87603952D01*
X55599019Y-87717694D01*
X55575000Y-87838443D01*
X51388854Y-87838443D01*
X51363309Y-87790653D01*
X51316448Y-87733552D01*
X51259347Y-87686691D01*
X51194200Y-87651869D01*
X51123513Y-87630426D01*
X51050000Y-87623186D01*
X50518750Y-87625000D01*
X50425000Y-87718750D01*
X50375000Y-87718750D01*
X50281250Y-87625000D01*
X49750000Y-87623186D01*
X49676487Y-87630426D01*
X49605800Y-87651869D01*
X49540653Y-87686691D01*
X49483552Y-87733552D01*
X49436691Y-87790653D01*
X49401869Y-87855800D01*
X49380426Y-87926487D01*
X49373186Y-88000000D01*
X48425000Y-88000000D01*
X48425000Y-87206043D01*
X58886231Y-87206043D01*
X58886231Y-87329157D01*
X58910250Y-87449906D01*
X58957363Y-87563648D01*
X59025762Y-87666014D01*
X59112817Y-87753069D01*
X59215183Y-87821468D01*
X59328925Y-87868581D01*
X59449674Y-87892600D01*
X59572788Y-87892600D01*
X59693537Y-87868581D01*
X59807279Y-87821468D01*
X59909645Y-87753069D01*
X59996700Y-87666014D01*
X60065099Y-87563648D01*
X60075539Y-87538443D01*
X61075000Y-87538443D01*
X61075000Y-87661557D01*
X61099019Y-87782306D01*
X61146132Y-87896048D01*
X61214531Y-87998414D01*
X61301586Y-88085469D01*
X61403952Y-88153868D01*
X61517694Y-88200981D01*
X61638443Y-88225000D01*
X61761557Y-88225000D01*
X61882306Y-88200981D01*
X61996048Y-88153868D01*
X62098414Y-88085469D01*
X62185469Y-87998414D01*
X62253868Y-87896048D01*
X62300981Y-87782306D01*
X62325000Y-87661557D01*
X62325000Y-87538443D01*
X62875000Y-87538443D01*
X62875000Y-87661557D01*
X62899019Y-87782306D01*
X62946132Y-87896048D01*
X63014531Y-87998414D01*
X63101586Y-88085469D01*
X63203952Y-88153868D01*
X63317694Y-88200981D01*
X63438443Y-88225000D01*
X63561557Y-88225000D01*
X63682306Y-88200981D01*
X63796048Y-88153868D01*
X63898414Y-88085469D01*
X63985469Y-87998414D01*
X64053868Y-87896048D01*
X64100981Y-87782306D01*
X64125000Y-87661557D01*
X64125000Y-87538443D01*
X64100981Y-87417694D01*
X64053868Y-87303952D01*
X63985469Y-87201586D01*
X63898414Y-87114531D01*
X63796048Y-87046132D01*
X63682306Y-86999019D01*
X63561557Y-86975000D01*
X63438443Y-86975000D01*
X63317694Y-86999019D01*
X63203952Y-87046132D01*
X63101586Y-87114531D01*
X63014531Y-87201586D01*
X62946132Y-87303952D01*
X62899019Y-87417694D01*
X62875000Y-87538443D01*
X62325000Y-87538443D01*
X62300981Y-87417694D01*
X62253868Y-87303952D01*
X62185469Y-87201586D01*
X62098414Y-87114531D01*
X61996048Y-87046132D01*
X61882306Y-86999019D01*
X61761557Y-86975000D01*
X61638443Y-86975000D01*
X61517694Y-86999019D01*
X61403952Y-87046132D01*
X61301586Y-87114531D01*
X61214531Y-87201586D01*
X61146132Y-87303952D01*
X61099019Y-87417694D01*
X61075000Y-87538443D01*
X60075539Y-87538443D01*
X60112212Y-87449906D01*
X60136231Y-87329157D01*
X60136231Y-87206043D01*
X60112212Y-87085294D01*
X60065099Y-86971552D01*
X59996700Y-86869186D01*
X59909645Y-86782131D01*
X59807279Y-86713732D01*
X59693537Y-86666619D01*
X59572788Y-86642600D01*
X59449674Y-86642600D01*
X59328925Y-86666619D01*
X59215183Y-86713732D01*
X59112817Y-86782131D01*
X59025762Y-86869186D01*
X58957363Y-86971552D01*
X58910250Y-87085294D01*
X58886231Y-87206043D01*
X48425000Y-87206043D01*
X48425000Y-86438443D01*
X53275000Y-86438443D01*
X53275000Y-86561557D01*
X53299019Y-86682306D01*
X53346132Y-86796048D01*
X53414531Y-86898414D01*
X53501586Y-86985469D01*
X53603952Y-87053868D01*
X53717694Y-87100981D01*
X53838443Y-87125000D01*
X53961557Y-87125000D01*
X54082306Y-87100981D01*
X54196048Y-87053868D01*
X54298414Y-86985469D01*
X54385469Y-86898414D01*
X54453868Y-86796048D01*
X54500981Y-86682306D01*
X54525000Y-86561557D01*
X54525000Y-86438443D01*
X54505109Y-86338443D01*
X55575000Y-86338443D01*
X55575000Y-86461557D01*
X55599019Y-86582306D01*
X55646132Y-86696048D01*
X55714531Y-86798414D01*
X55801586Y-86885469D01*
X55903952Y-86953868D01*
X56017694Y-87000981D01*
X56138443Y-87025000D01*
X56261557Y-87025000D01*
X56382306Y-87000981D01*
X56496048Y-86953868D01*
X56598414Y-86885469D01*
X56685469Y-86798414D01*
X56753868Y-86696048D01*
X56799434Y-86586040D01*
X65075000Y-86586040D01*
X65075000Y-86709154D01*
X65099019Y-86829903D01*
X65146132Y-86943645D01*
X65166280Y-86973798D01*
X65146132Y-87003952D01*
X65099019Y-87117694D01*
X65075000Y-87238443D01*
X65075000Y-87361557D01*
X65099019Y-87482306D01*
X65146132Y-87596048D01*
X65214531Y-87698414D01*
X65301586Y-87785469D01*
X65403952Y-87853868D01*
X65517694Y-87900981D01*
X65638443Y-87925000D01*
X65761557Y-87925000D01*
X65882306Y-87900981D01*
X65996048Y-87853868D01*
X66098414Y-87785469D01*
X66185469Y-87698414D01*
X66253868Y-87596048D01*
X66300981Y-87482306D01*
X66325000Y-87361557D01*
X66325000Y-87238443D01*
X66300981Y-87117694D01*
X66253868Y-87003952D01*
X66233720Y-86973798D01*
X66253868Y-86943645D01*
X66300981Y-86829903D01*
X66325000Y-86709154D01*
X66325000Y-86638443D01*
X67375000Y-86638443D01*
X67375000Y-86761557D01*
X67399019Y-86882306D01*
X67446132Y-86996048D01*
X67514531Y-87098414D01*
X67601586Y-87185469D01*
X67703952Y-87253868D01*
X67817694Y-87300981D01*
X67938443Y-87325000D01*
X68061557Y-87325000D01*
X68182306Y-87300981D01*
X68296048Y-87253868D01*
X68398414Y-87185469D01*
X68485469Y-87098414D01*
X68553868Y-86996048D01*
X68600981Y-86882306D01*
X68625000Y-86761557D01*
X68625000Y-86638443D01*
X68600981Y-86517694D01*
X68553868Y-86403952D01*
X68485469Y-86301586D01*
X68398414Y-86214531D01*
X68296048Y-86146132D01*
X68182306Y-86099019D01*
X68061557Y-86075000D01*
X67938443Y-86075000D01*
X67817694Y-86099019D01*
X67703952Y-86146132D01*
X67601586Y-86214531D01*
X67514531Y-86301586D01*
X67446132Y-86403952D01*
X67399019Y-86517694D01*
X67375000Y-86638443D01*
X66325000Y-86638443D01*
X66325000Y-86586040D01*
X66300981Y-86465291D01*
X66253868Y-86351549D01*
X66185469Y-86249183D01*
X66098414Y-86162128D01*
X65996048Y-86093729D01*
X65882306Y-86046616D01*
X65761557Y-86022597D01*
X65638443Y-86022597D01*
X65517694Y-86046616D01*
X65403952Y-86093729D01*
X65301586Y-86162128D01*
X65214531Y-86249183D01*
X65146132Y-86351549D01*
X65099019Y-86465291D01*
X65075000Y-86586040D01*
X56799434Y-86586040D01*
X56800981Y-86582306D01*
X56825000Y-86461557D01*
X56825000Y-86338443D01*
X56800981Y-86217694D01*
X56753868Y-86103952D01*
X56685469Y-86001586D01*
X56598414Y-85914531D01*
X56496048Y-85846132D01*
X56382306Y-85799019D01*
X56261557Y-85775000D01*
X56138443Y-85775000D01*
X56017694Y-85799019D01*
X55903952Y-85846132D01*
X55801586Y-85914531D01*
X55714531Y-86001586D01*
X55646132Y-86103952D01*
X55599019Y-86217694D01*
X55575000Y-86338443D01*
X54505109Y-86338443D01*
X54500981Y-86317694D01*
X54453868Y-86203952D01*
X54385469Y-86101586D01*
X54298414Y-86014531D01*
X54196048Y-85946132D01*
X54082306Y-85899019D01*
X53961557Y-85875000D01*
X53838443Y-85875000D01*
X53717694Y-85899019D01*
X53603952Y-85946132D01*
X53501586Y-86014531D01*
X53414531Y-86101586D01*
X53346132Y-86203952D01*
X53299019Y-86317694D01*
X53275000Y-86438443D01*
X48425000Y-86438443D01*
X48425000Y-85177361D01*
X60685172Y-85177361D01*
X60685172Y-85300475D01*
X60709191Y-85421224D01*
X60756304Y-85534966D01*
X60824703Y-85637332D01*
X60911758Y-85724387D01*
X61014124Y-85792786D01*
X61127866Y-85839899D01*
X61248615Y-85863918D01*
X61371729Y-85863918D01*
X61492478Y-85839899D01*
X61606220Y-85792786D01*
X61708586Y-85724387D01*
X61795641Y-85637332D01*
X61864040Y-85534966D01*
X61911153Y-85421224D01*
X61935172Y-85300475D01*
X61935172Y-85283478D01*
X62715944Y-85283478D01*
X62715944Y-85406592D01*
X62739963Y-85527341D01*
X62787076Y-85641083D01*
X62855475Y-85743449D01*
X62942530Y-85830504D01*
X63044896Y-85898903D01*
X63158638Y-85946016D01*
X63279387Y-85970035D01*
X63402501Y-85970035D01*
X63523250Y-85946016D01*
X63636992Y-85898903D01*
X63739358Y-85830504D01*
X63826413Y-85743449D01*
X63894812Y-85641083D01*
X63941925Y-85527341D01*
X63965944Y-85406592D01*
X63965944Y-85283478D01*
X63941925Y-85162729D01*
X63894812Y-85048987D01*
X63826413Y-84946621D01*
X63739358Y-84859566D01*
X63636992Y-84791167D01*
X63523250Y-84744054D01*
X63402501Y-84720035D01*
X63279387Y-84720035D01*
X63158638Y-84744054D01*
X63044896Y-84791167D01*
X62942530Y-84859566D01*
X62855475Y-84946621D01*
X62787076Y-85048987D01*
X62739963Y-85162729D01*
X62715944Y-85283478D01*
X61935172Y-85283478D01*
X61935172Y-85177361D01*
X61911153Y-85056612D01*
X61864040Y-84942870D01*
X61795641Y-84840504D01*
X61708586Y-84753449D01*
X61606220Y-84685050D01*
X61492478Y-84637937D01*
X61371729Y-84613918D01*
X61248615Y-84613918D01*
X61127866Y-84637937D01*
X61014124Y-84685050D01*
X60911758Y-84753449D01*
X60824703Y-84840504D01*
X60756304Y-84942870D01*
X60709191Y-85056612D01*
X60685172Y-85177361D01*
X48425000Y-85177361D01*
X48425000Y-83738443D01*
X61675000Y-83738443D01*
X61675000Y-83861557D01*
X61699019Y-83982306D01*
X61746132Y-84096048D01*
X61814531Y-84198414D01*
X61901586Y-84285469D01*
X62003952Y-84353868D01*
X62117694Y-84400981D01*
X62238443Y-84425000D01*
X62361557Y-84425000D01*
X62482306Y-84400981D01*
X62596048Y-84353868D01*
X62698414Y-84285469D01*
X62785469Y-84198414D01*
X62853868Y-84096048D01*
X62900981Y-83982306D01*
X62925000Y-83861557D01*
X62925000Y-83738443D01*
X63175000Y-83738443D01*
X63175000Y-83861557D01*
X63199019Y-83982306D01*
X63246132Y-84096048D01*
X63314531Y-84198414D01*
X63401586Y-84285469D01*
X63503952Y-84353868D01*
X63617694Y-84400981D01*
X63738443Y-84425000D01*
X63861557Y-84425000D01*
X63982306Y-84400981D01*
X64096048Y-84353868D01*
X64150000Y-84317818D01*
X64203952Y-84353868D01*
X64317694Y-84400981D01*
X64438443Y-84425000D01*
X64561557Y-84425000D01*
X64682306Y-84400981D01*
X64796048Y-84353868D01*
X64898414Y-84285469D01*
X64985469Y-84198414D01*
X65053868Y-84096048D01*
X65100981Y-83982306D01*
X65125000Y-83861557D01*
X65125000Y-83738443D01*
X65100981Y-83617694D01*
X65053868Y-83503952D01*
X64985469Y-83401586D01*
X64898414Y-83314531D01*
X64796048Y-83246132D01*
X64682306Y-83199019D01*
X64561557Y-83175000D01*
X64438443Y-83175000D01*
X64317694Y-83199019D01*
X64203952Y-83246132D01*
X64150000Y-83282182D01*
X64096048Y-83246132D01*
X63982306Y-83199019D01*
X63861557Y-83175000D01*
X63738443Y-83175000D01*
X63617694Y-83199019D01*
X63503952Y-83246132D01*
X63401586Y-83314531D01*
X63314531Y-83401586D01*
X63246132Y-83503952D01*
X63199019Y-83617694D01*
X63175000Y-83738443D01*
X62925000Y-83738443D01*
X62900981Y-83617694D01*
X62853868Y-83503952D01*
X62785469Y-83401586D01*
X62698414Y-83314531D01*
X62596048Y-83246132D01*
X62482306Y-83199019D01*
X62361557Y-83175000D01*
X62238443Y-83175000D01*
X62117694Y-83199019D01*
X62003952Y-83246132D01*
X61901586Y-83314531D01*
X61814531Y-83401586D01*
X61746132Y-83503952D01*
X61699019Y-83617694D01*
X61675000Y-83738443D01*
X48425000Y-83738443D01*
X48425000Y-82838443D01*
X53275000Y-82838443D01*
X53275000Y-82961557D01*
X53299019Y-83082306D01*
X53346132Y-83196048D01*
X53414531Y-83298414D01*
X53501586Y-83385469D01*
X53603952Y-83453868D01*
X53717694Y-83500981D01*
X53838443Y-83525000D01*
X53961557Y-83525000D01*
X54082306Y-83500981D01*
X54196048Y-83453868D01*
X54298414Y-83385469D01*
X54385469Y-83298414D01*
X54453868Y-83196048D01*
X54500981Y-83082306D01*
X54525000Y-82961557D01*
X54525000Y-82838443D01*
X54500981Y-82717694D01*
X54453868Y-82603952D01*
X54385469Y-82501586D01*
X54322326Y-82438443D01*
X59972600Y-82438443D01*
X59972600Y-82561557D01*
X59996619Y-82682306D01*
X60043732Y-82796048D01*
X60112131Y-82898414D01*
X60199186Y-82985469D01*
X60301552Y-83053868D01*
X60415294Y-83100981D01*
X60536043Y-83125000D01*
X60659157Y-83125000D01*
X60779906Y-83100981D01*
X60893648Y-83053868D01*
X60996014Y-82985469D01*
X61083069Y-82898414D01*
X61151468Y-82796048D01*
X61198581Y-82682306D01*
X61222600Y-82561557D01*
X61222600Y-82438443D01*
X61198581Y-82317694D01*
X61151468Y-82203952D01*
X61083069Y-82101586D01*
X60996014Y-82014531D01*
X60893648Y-81946132D01*
X60779906Y-81899019D01*
X60659157Y-81875000D01*
X60536043Y-81875000D01*
X60415294Y-81899019D01*
X60301552Y-81946132D01*
X60199186Y-82014531D01*
X60112131Y-82101586D01*
X60043732Y-82203952D01*
X59996619Y-82317694D01*
X59972600Y-82438443D01*
X54322326Y-82438443D01*
X54298414Y-82414531D01*
X54196048Y-82346132D01*
X54082306Y-82299019D01*
X53961557Y-82275000D01*
X53838443Y-82275000D01*
X53717694Y-82299019D01*
X53603952Y-82346132D01*
X53501586Y-82414531D01*
X53414531Y-82501586D01*
X53346132Y-82603952D01*
X53299019Y-82717694D01*
X53275000Y-82838443D01*
X48425000Y-82838443D01*
X48425000Y-80408518D01*
X53925000Y-80408518D01*
X53925000Y-80541482D01*
X53950940Y-80671890D01*
X54001823Y-80794732D01*
X54075693Y-80905287D01*
X54169713Y-80999307D01*
X54280268Y-81073177D01*
X54403110Y-81124060D01*
X54533518Y-81150000D01*
X54666482Y-81150000D01*
X54796890Y-81124060D01*
X54919732Y-81073177D01*
X55030287Y-80999307D01*
X55041151Y-80988443D01*
X59975000Y-80988443D01*
X59975000Y-81111557D01*
X59999019Y-81232306D01*
X60046132Y-81346048D01*
X60114531Y-81448414D01*
X60201586Y-81535469D01*
X60303952Y-81603868D01*
X60417694Y-81650981D01*
X60538443Y-81675000D01*
X60661557Y-81675000D01*
X60782306Y-81650981D01*
X60896048Y-81603868D01*
X60998414Y-81535469D01*
X61085469Y-81448414D01*
X61153868Y-81346048D01*
X61200981Y-81232306D01*
X61225000Y-81111557D01*
X61225000Y-80988443D01*
X61200981Y-80867694D01*
X61153868Y-80753952D01*
X61085469Y-80651586D01*
X60998414Y-80564531D01*
X60896048Y-80496132D01*
X60782306Y-80449019D01*
X60661557Y-80425000D01*
X60538443Y-80425000D01*
X60417694Y-80449019D01*
X60303952Y-80496132D01*
X60201586Y-80564531D01*
X60114531Y-80651586D01*
X60046132Y-80753952D01*
X59999019Y-80867694D01*
X59975000Y-80988443D01*
X55041151Y-80988443D01*
X55124307Y-80905287D01*
X55198177Y-80794732D01*
X55249060Y-80671890D01*
X55275000Y-80541482D01*
X55275000Y-80408518D01*
X55249060Y-80278110D01*
X55198177Y-80155268D01*
X55124307Y-80044713D01*
X55030287Y-79950693D01*
X54919732Y-79876823D01*
X54796890Y-79825940D01*
X54666482Y-79800000D01*
X54533518Y-79800000D01*
X54403110Y-79825940D01*
X54280268Y-79876823D01*
X54169713Y-79950693D01*
X54075693Y-80044713D01*
X54001823Y-80155268D01*
X53950940Y-80278110D01*
X53925000Y-80408518D01*
X48425000Y-80408518D01*
X48425000Y-78633518D01*
X50050000Y-78633518D01*
X50050000Y-78766482D01*
X50075940Y-78896890D01*
X50126823Y-79019732D01*
X50200693Y-79130287D01*
X50294713Y-79224307D01*
X50405268Y-79298177D01*
X50528110Y-79349060D01*
X50658518Y-79375000D01*
X50791482Y-79375000D01*
X50921890Y-79349060D01*
X51044732Y-79298177D01*
X51155287Y-79224307D01*
X51249307Y-79130287D01*
X51323177Y-79019732D01*
X51374060Y-78896890D01*
X51383111Y-78851390D01*
X51414531Y-78898414D01*
X51501586Y-78985469D01*
X51603952Y-79053868D01*
X51717694Y-79100981D01*
X51838443Y-79125000D01*
X51961557Y-79125000D01*
X52082306Y-79100981D01*
X52196048Y-79053868D01*
X52226503Y-79033518D01*
X53925000Y-79033518D01*
X53925000Y-79166482D01*
X53950940Y-79296890D01*
X54001823Y-79419732D01*
X54075693Y-79530287D01*
X54169713Y-79624307D01*
X54280268Y-79698177D01*
X54403110Y-79749060D01*
X54533518Y-79775000D01*
X54666482Y-79775000D01*
X54796890Y-79749060D01*
X54919732Y-79698177D01*
X55030287Y-79624307D01*
X55124307Y-79530287D01*
X55198177Y-79419732D01*
X55249060Y-79296890D01*
X55275000Y-79166482D01*
X55275000Y-79033518D01*
X55249060Y-78903110D01*
X55198177Y-78780268D01*
X55124307Y-78669713D01*
X55030287Y-78575693D01*
X54919732Y-78501823D01*
X54796890Y-78450940D01*
X54666482Y-78425000D01*
X54533518Y-78425000D01*
X54403110Y-78450940D01*
X54280268Y-78501823D01*
X54169713Y-78575693D01*
X54075693Y-78669713D01*
X54001823Y-78780268D01*
X53950940Y-78903110D01*
X53925000Y-79033518D01*
X52226503Y-79033518D01*
X52298414Y-78985469D01*
X52385469Y-78898414D01*
X52453868Y-78796048D01*
X52500981Y-78682306D01*
X52525000Y-78561557D01*
X52525000Y-78438443D01*
X52500981Y-78317694D01*
X52453868Y-78203952D01*
X52385469Y-78101586D01*
X52298414Y-78014531D01*
X52196048Y-77946132D01*
X52082306Y-77899019D01*
X51961557Y-77875000D01*
X51838443Y-77875000D01*
X51717694Y-77899019D01*
X51603952Y-77946132D01*
X51501586Y-78014531D01*
X51414531Y-78101586D01*
X51346132Y-78203952D01*
X51299019Y-78317694D01*
X51294969Y-78338052D01*
X51249307Y-78269713D01*
X51155287Y-78175693D01*
X51044732Y-78101823D01*
X50921890Y-78050940D01*
X50791482Y-78025000D01*
X50658518Y-78025000D01*
X50528110Y-78050940D01*
X50405268Y-78101823D01*
X50294713Y-78175693D01*
X50200693Y-78269713D01*
X50126823Y-78380268D01*
X50075940Y-78503110D01*
X50050000Y-78633518D01*
X48425000Y-78633518D01*
X48425000Y-73800000D01*
X58020767Y-73800000D01*
X58037661Y-73971530D01*
X58087695Y-74136468D01*
X58168944Y-74288476D01*
X58278288Y-74421712D01*
X58411524Y-74531056D01*
X58563532Y-74612305D01*
X58728470Y-74662339D01*
X58857021Y-74675000D01*
X60237564Y-74675000D01*
X61729777Y-76167214D01*
X61729778Y-80561788D01*
X61725544Y-80604777D01*
X61742438Y-80776306D01*
X61792472Y-80941244D01*
X61823507Y-80999307D01*
X61873722Y-81093253D01*
X61983066Y-81226489D01*
X62016453Y-81253889D01*
X63150888Y-82388325D01*
X63178288Y-82421712D01*
X63275615Y-82501586D01*
X63311524Y-82531056D01*
X63373186Y-82564015D01*
X63373186Y-82650000D01*
X63380426Y-82723513D01*
X63401869Y-82794200D01*
X63436691Y-82859347D01*
X63483552Y-82916448D01*
X63540653Y-82963309D01*
X63605800Y-82998131D01*
X63676487Y-83019574D01*
X63750000Y-83026814D01*
X65450000Y-83026814D01*
X65523513Y-83019574D01*
X65594200Y-82998131D01*
X65659347Y-82963309D01*
X65716448Y-82916448D01*
X65763309Y-82859347D01*
X65798131Y-82794200D01*
X65819574Y-82723513D01*
X65824352Y-82675000D01*
X66975648Y-82675000D01*
X66980426Y-82723513D01*
X67001869Y-82794200D01*
X67036691Y-82859347D01*
X67083552Y-82916448D01*
X67140653Y-82963309D01*
X67205800Y-82998131D01*
X67276487Y-83019574D01*
X67350000Y-83026814D01*
X69050000Y-83026814D01*
X69123513Y-83019574D01*
X69194200Y-82998131D01*
X69259347Y-82963309D01*
X69316448Y-82916448D01*
X69363309Y-82859347D01*
X69398131Y-82794200D01*
X69419574Y-82723513D01*
X69426814Y-82650000D01*
X69426814Y-80950000D01*
X69419574Y-80876487D01*
X69398131Y-80805800D01*
X69363309Y-80740653D01*
X69316448Y-80683552D01*
X69259347Y-80636691D01*
X69194200Y-80601869D01*
X69123513Y-80580426D01*
X69050000Y-80573186D01*
X67350000Y-80573186D01*
X67276487Y-80580426D01*
X67205800Y-80601869D01*
X67140653Y-80636691D01*
X67083552Y-80683552D01*
X67036691Y-80740653D01*
X67001869Y-80805800D01*
X66980426Y-80876487D01*
X66975648Y-80925000D01*
X65824352Y-80925000D01*
X65819574Y-80876487D01*
X65798131Y-80805800D01*
X65763309Y-80740653D01*
X65716448Y-80683552D01*
X65659347Y-80636691D01*
X65594200Y-80601869D01*
X65523513Y-80580426D01*
X65450000Y-80573186D01*
X63810622Y-80573186D01*
X63479777Y-80242341D01*
X63479777Y-79762869D01*
X63576522Y-79943866D01*
X63729603Y-80130397D01*
X63916134Y-80283478D01*
X64128945Y-80397228D01*
X64359858Y-80467275D01*
X64539822Y-80485000D01*
X64660178Y-80485000D01*
X64840142Y-80467275D01*
X65071055Y-80397228D01*
X65283866Y-80283478D01*
X65470397Y-80130397D01*
X65623478Y-79943866D01*
X65737228Y-79731055D01*
X65807275Y-79500142D01*
X65830927Y-79260000D01*
X66969073Y-79260000D01*
X66992725Y-79500142D01*
X67062772Y-79731055D01*
X67176522Y-79943866D01*
X67329603Y-80130397D01*
X67516134Y-80283478D01*
X67728945Y-80397228D01*
X67959858Y-80467275D01*
X68139822Y-80485000D01*
X68260178Y-80485000D01*
X68440142Y-80467275D01*
X68671055Y-80397228D01*
X68883866Y-80283478D01*
X69070397Y-80130397D01*
X69223478Y-79943866D01*
X69337228Y-79731055D01*
X69407275Y-79500142D01*
X69430927Y-79260000D01*
X69407275Y-79019858D01*
X69337228Y-78788945D01*
X69223478Y-78576134D01*
X69070397Y-78389603D01*
X68883866Y-78236522D01*
X68671055Y-78122772D01*
X68440142Y-78052725D01*
X68260178Y-78035000D01*
X68139822Y-78035000D01*
X67959858Y-78052725D01*
X67728945Y-78122772D01*
X67516134Y-78236522D01*
X67329603Y-78389603D01*
X67176522Y-78576134D01*
X67062772Y-78788945D01*
X66992725Y-79019858D01*
X66969073Y-79260000D01*
X65830927Y-79260000D01*
X65807275Y-79019858D01*
X65737228Y-78788945D01*
X65623478Y-78576134D01*
X65470397Y-78389603D01*
X65283866Y-78236522D01*
X65071055Y-78122772D01*
X64840142Y-78052725D01*
X64660178Y-78035000D01*
X64539822Y-78035000D01*
X64359858Y-78052725D01*
X64128945Y-78122772D01*
X63916134Y-78236522D01*
X63729603Y-78389603D01*
X63576522Y-78576134D01*
X63479777Y-78757131D01*
X63479777Y-77222869D01*
X63576522Y-77403866D01*
X63729603Y-77590397D01*
X63916134Y-77743478D01*
X64128945Y-77857228D01*
X64359858Y-77927275D01*
X64539822Y-77945000D01*
X64660178Y-77945000D01*
X64840142Y-77927275D01*
X65071055Y-77857228D01*
X65283866Y-77743478D01*
X65470397Y-77590397D01*
X65623478Y-77403866D01*
X65737228Y-77191055D01*
X65807275Y-76960142D01*
X65830927Y-76720000D01*
X65807275Y-76479858D01*
X65737228Y-76248945D01*
X65623478Y-76036134D01*
X65470397Y-75849603D01*
X65283866Y-75696522D01*
X65071055Y-75582772D01*
X64840142Y-75512725D01*
X64660178Y-75495000D01*
X64539822Y-75495000D01*
X64359858Y-75512725D01*
X64128945Y-75582772D01*
X63916134Y-75696522D01*
X63729603Y-75849603D01*
X63576522Y-76036134D01*
X63479777Y-76217131D01*
X63479777Y-75847756D01*
X63484010Y-75804777D01*
X63467116Y-75633247D01*
X63417082Y-75468309D01*
X63335833Y-75316301D01*
X63226489Y-75183065D01*
X63193103Y-75155666D01*
X61249117Y-73211680D01*
X61221712Y-73178288D01*
X61088476Y-73068944D01*
X60936468Y-72987695D01*
X60771530Y-72937661D01*
X60642979Y-72925000D01*
X60600000Y-72920767D01*
X60557021Y-72925000D01*
X58857021Y-72925000D01*
X58728470Y-72937661D01*
X58563532Y-72987695D01*
X58411524Y-73068944D01*
X58278288Y-73178288D01*
X58168944Y-73311524D01*
X58087695Y-73463532D01*
X58037661Y-73628470D01*
X58020767Y-73800000D01*
X48425000Y-73800000D01*
X48425000Y-72526865D01*
X61186578Y-72526865D01*
X61186578Y-72649979D01*
X61210597Y-72770728D01*
X61257710Y-72884470D01*
X61326109Y-72986836D01*
X61413164Y-73073891D01*
X61515530Y-73142290D01*
X61629272Y-73189403D01*
X61750021Y-73213422D01*
X61873135Y-73213422D01*
X61993884Y-73189403D01*
X62107626Y-73142290D01*
X62209992Y-73073891D01*
X62297047Y-72986836D01*
X62365446Y-72884470D01*
X62412559Y-72770728D01*
X62436578Y-72649979D01*
X62436578Y-72526865D01*
X62412559Y-72406116D01*
X62365446Y-72292374D01*
X62297047Y-72190008D01*
X62209992Y-72102953D01*
X62107626Y-72034554D01*
X61993884Y-71987441D01*
X61873135Y-71963422D01*
X61750021Y-71963422D01*
X61629272Y-71987441D01*
X61515530Y-72034554D01*
X61413164Y-72102953D01*
X61326109Y-72190008D01*
X61257710Y-72292374D01*
X61210597Y-72406116D01*
X61186578Y-72526865D01*
X48425000Y-72526865D01*
X48425000Y-70638443D01*
X56075000Y-70638443D01*
X56075000Y-70761557D01*
X56099019Y-70882306D01*
X56146132Y-70996048D01*
X56214531Y-71098414D01*
X56301586Y-71185469D01*
X56403952Y-71253868D01*
X56517694Y-71300981D01*
X56638443Y-71325000D01*
X56761557Y-71325000D01*
X56882306Y-71300981D01*
X56996048Y-71253868D01*
X57050000Y-71217818D01*
X57103952Y-71253868D01*
X57217694Y-71300981D01*
X57338443Y-71325000D01*
X57461557Y-71325000D01*
X57582306Y-71300981D01*
X57696048Y-71253868D01*
X57798414Y-71185469D01*
X57885469Y-71098414D01*
X57953868Y-70996048D01*
X58000981Y-70882306D01*
X58025000Y-70761557D01*
X58025000Y-70638443D01*
X60075000Y-70638443D01*
X60075000Y-70761557D01*
X60099019Y-70882306D01*
X60146132Y-70996048D01*
X60214531Y-71098414D01*
X60301586Y-71185469D01*
X60403952Y-71253868D01*
X60517694Y-71300981D01*
X60638443Y-71325000D01*
X60761557Y-71325000D01*
X60882306Y-71300981D01*
X60996048Y-71253868D01*
X61098414Y-71185469D01*
X61185469Y-71098414D01*
X61253868Y-70996048D01*
X61300981Y-70882306D01*
X61325000Y-70761557D01*
X61325000Y-70638443D01*
X61300981Y-70517694D01*
X61253868Y-70403952D01*
X61185469Y-70301586D01*
X61098414Y-70214531D01*
X60996048Y-70146132D01*
X60882306Y-70099019D01*
X60761557Y-70075000D01*
X60638443Y-70075000D01*
X60517694Y-70099019D01*
X60403952Y-70146132D01*
X60301586Y-70214531D01*
X60214531Y-70301586D01*
X60146132Y-70403952D01*
X60099019Y-70517694D01*
X60075000Y-70638443D01*
X58025000Y-70638443D01*
X58000981Y-70517694D01*
X57953868Y-70403952D01*
X57885469Y-70301586D01*
X57798414Y-70214531D01*
X57696048Y-70146132D01*
X57582306Y-70099019D01*
X57461557Y-70075000D01*
X57338443Y-70075000D01*
X57217694Y-70099019D01*
X57103952Y-70146132D01*
X57050000Y-70182182D01*
X56996048Y-70146132D01*
X56882306Y-70099019D01*
X56761557Y-70075000D01*
X56638443Y-70075000D01*
X56517694Y-70099019D01*
X56403952Y-70146132D01*
X56301586Y-70214531D01*
X56214531Y-70301586D01*
X56146132Y-70403952D01*
X56099019Y-70517694D01*
X56075000Y-70638443D01*
X48425000Y-70638443D01*
X48425000Y-66533518D01*
X54025000Y-66533518D01*
X54025000Y-66666482D01*
X54050940Y-66796890D01*
X54101823Y-66919732D01*
X54175693Y-67030287D01*
X54269713Y-67124307D01*
X54380268Y-67198177D01*
X54503110Y-67249060D01*
X54633518Y-67275000D01*
X54766482Y-67275000D01*
X54896890Y-67249060D01*
X55019732Y-67198177D01*
X55056749Y-67173443D01*
X57032500Y-67173443D01*
X57032500Y-67296557D01*
X57056519Y-67417306D01*
X57103632Y-67531048D01*
X57172031Y-67633414D01*
X57259086Y-67720469D01*
X57361452Y-67788868D01*
X57475194Y-67835981D01*
X57595943Y-67860000D01*
X57719057Y-67860000D01*
X57839806Y-67835981D01*
X57953548Y-67788868D01*
X58055914Y-67720469D01*
X58142969Y-67633414D01*
X58211368Y-67531048D01*
X58258481Y-67417306D01*
X58282500Y-67296557D01*
X58282500Y-67173443D01*
X59717500Y-67173443D01*
X59717500Y-67296557D01*
X59741519Y-67417306D01*
X59788632Y-67531048D01*
X59857031Y-67633414D01*
X59944086Y-67720469D01*
X60046452Y-67788868D01*
X60160194Y-67835981D01*
X60280943Y-67860000D01*
X60404057Y-67860000D01*
X60524806Y-67835981D01*
X60638548Y-67788868D01*
X60740914Y-67720469D01*
X60827969Y-67633414D01*
X60896368Y-67531048D01*
X60943481Y-67417306D01*
X60967500Y-67296557D01*
X60967500Y-67173443D01*
X60943481Y-67052694D01*
X60896368Y-66938952D01*
X60827969Y-66836586D01*
X60740914Y-66749531D01*
X60638548Y-66681132D01*
X60524806Y-66634019D01*
X60404057Y-66610000D01*
X60280943Y-66610000D01*
X60160194Y-66634019D01*
X60046452Y-66681132D01*
X59944086Y-66749531D01*
X59857031Y-66836586D01*
X59788632Y-66938952D01*
X59741519Y-67052694D01*
X59717500Y-67173443D01*
X58282500Y-67173443D01*
X58258481Y-67052694D01*
X58211368Y-66938952D01*
X58142969Y-66836586D01*
X58055914Y-66749531D01*
X57953548Y-66681132D01*
X57839806Y-66634019D01*
X57719057Y-66610000D01*
X57595943Y-66610000D01*
X57475194Y-66634019D01*
X57361452Y-66681132D01*
X57259086Y-66749531D01*
X57172031Y-66836586D01*
X57103632Y-66938952D01*
X57056519Y-67052694D01*
X57032500Y-67173443D01*
X55056749Y-67173443D01*
X55130287Y-67124307D01*
X55224307Y-67030287D01*
X55298177Y-66919732D01*
X55349060Y-66796890D01*
X55375000Y-66666482D01*
X55375000Y-66533518D01*
X55349060Y-66403110D01*
X55298177Y-66280268D01*
X55224307Y-66169713D01*
X55130287Y-66075693D01*
X55019732Y-66001823D01*
X54896890Y-65950940D01*
X54766482Y-65925000D01*
X54633518Y-65925000D01*
X54503110Y-65950940D01*
X54380268Y-66001823D01*
X54269713Y-66075693D01*
X54175693Y-66169713D01*
X54101823Y-66280268D01*
X54050940Y-66403110D01*
X54025000Y-66533518D01*
X48425000Y-66533518D01*
X48425000Y-65638443D01*
X49375000Y-65638443D01*
X49375000Y-65761557D01*
X49399019Y-65882306D01*
X49446132Y-65996048D01*
X49514531Y-66098414D01*
X49601586Y-66185469D01*
X49703952Y-66253868D01*
X49817694Y-66300981D01*
X49938443Y-66325000D01*
X50061557Y-66325000D01*
X50182306Y-66300981D01*
X50296048Y-66253868D01*
X50398414Y-66185469D01*
X50485469Y-66098414D01*
X50553868Y-65996048D01*
X50600981Y-65882306D01*
X50625000Y-65761557D01*
X50625000Y-65638443D01*
X50600981Y-65517694D01*
X50553868Y-65403952D01*
X50551228Y-65400000D01*
X51120767Y-65400000D01*
X51137661Y-65571529D01*
X51187695Y-65736467D01*
X51268945Y-65888475D01*
X51378289Y-66021711D01*
X51511525Y-66131055D01*
X51663533Y-66212305D01*
X51828471Y-66262339D01*
X52000000Y-66279233D01*
X52171529Y-66262339D01*
X52336467Y-66212305D01*
X52488475Y-66131055D01*
X52588327Y-66049109D01*
X53010035Y-65627401D01*
X57047626Y-65627401D01*
X57032500Y-65703443D01*
X57032500Y-65826557D01*
X57056519Y-65947306D01*
X57103632Y-66061048D01*
X57172031Y-66163414D01*
X57259086Y-66250469D01*
X57361452Y-66318868D01*
X57475194Y-66365981D01*
X57595943Y-66390000D01*
X57719057Y-66390000D01*
X57839806Y-66365981D01*
X57953548Y-66318868D01*
X58055914Y-66250469D01*
X58142969Y-66163414D01*
X58211368Y-66061048D01*
X58258481Y-65947306D01*
X58282500Y-65826557D01*
X58282500Y-65703443D01*
X58267374Y-65627401D01*
X59732626Y-65627401D01*
X59717500Y-65703443D01*
X59717500Y-65826557D01*
X59741519Y-65947306D01*
X59788632Y-66061048D01*
X59857031Y-66163414D01*
X59944086Y-66250469D01*
X60046452Y-66318868D01*
X60160194Y-66365981D01*
X60280943Y-66390000D01*
X60404057Y-66390000D01*
X60524806Y-66365981D01*
X60638548Y-66318868D01*
X60740914Y-66250469D01*
X60827969Y-66163414D01*
X60896368Y-66061048D01*
X60943481Y-65947306D01*
X60967500Y-65826557D01*
X60967500Y-65703443D01*
X60952374Y-65627401D01*
X64989965Y-65627401D01*
X65125000Y-65762436D01*
X65125001Y-72037562D01*
X64550891Y-72611673D01*
X64468945Y-72711525D01*
X64387695Y-72863533D01*
X64337661Y-73028471D01*
X64320767Y-73200000D01*
X64337661Y-73371529D01*
X64387695Y-73536467D01*
X64468945Y-73688475D01*
X64578289Y-73821711D01*
X64711525Y-73931055D01*
X64863533Y-74012305D01*
X65028471Y-74062339D01*
X65200000Y-74079233D01*
X65371529Y-74062339D01*
X65536467Y-74012305D01*
X65688475Y-73931055D01*
X65788327Y-73849109D01*
X66588325Y-73049112D01*
X66621712Y-73021712D01*
X66731056Y-72888476D01*
X66812305Y-72736468D01*
X66862339Y-72571530D01*
X66875000Y-72442979D01*
X66879233Y-72400000D01*
X66875000Y-72357021D01*
X66875000Y-72238443D01*
X67975000Y-72238443D01*
X67975000Y-72361557D01*
X67999019Y-72482306D01*
X68046132Y-72596048D01*
X68114531Y-72698414D01*
X68201586Y-72785469D01*
X68303952Y-72853868D01*
X68417694Y-72900981D01*
X68538443Y-72925000D01*
X68661557Y-72925000D01*
X68782306Y-72900981D01*
X68896048Y-72853868D01*
X68998414Y-72785469D01*
X69085469Y-72698414D01*
X69153868Y-72596048D01*
X69200981Y-72482306D01*
X69225000Y-72361557D01*
X69225000Y-72238443D01*
X69200981Y-72117694D01*
X69153868Y-72003952D01*
X69085469Y-71901586D01*
X68998414Y-71814531D01*
X68896048Y-71746132D01*
X68782306Y-71699019D01*
X68661557Y-71675000D01*
X68538443Y-71675000D01*
X68417694Y-71699019D01*
X68303952Y-71746132D01*
X68201586Y-71814531D01*
X68114531Y-71901586D01*
X68046132Y-72003952D01*
X67999019Y-72117694D01*
X67975000Y-72238443D01*
X66875000Y-72238443D01*
X66875000Y-65442978D01*
X66875446Y-65438443D01*
X67175000Y-65438443D01*
X67175000Y-65561557D01*
X67199019Y-65682306D01*
X67246132Y-65796048D01*
X67314531Y-65898414D01*
X67401586Y-65985469D01*
X67503952Y-66053868D01*
X67617694Y-66100981D01*
X67738443Y-66125000D01*
X67861557Y-66125000D01*
X67982306Y-66100981D01*
X68096048Y-66053868D01*
X68198414Y-65985469D01*
X68285469Y-65898414D01*
X68353868Y-65796048D01*
X68400981Y-65682306D01*
X68425000Y-65561557D01*
X68425000Y-65438443D01*
X68400981Y-65317694D01*
X68353868Y-65203952D01*
X68285469Y-65101586D01*
X68198414Y-65014531D01*
X68096048Y-64946132D01*
X67982306Y-64899019D01*
X67861557Y-64875000D01*
X67738443Y-64875000D01*
X67617694Y-64899019D01*
X67503952Y-64946132D01*
X67401586Y-65014531D01*
X67314531Y-65101586D01*
X67246132Y-65203952D01*
X67199019Y-65317694D01*
X67175000Y-65438443D01*
X66875446Y-65438443D01*
X66879233Y-65399999D01*
X66862339Y-65228469D01*
X66842788Y-65164019D01*
X66812305Y-65063532D01*
X66731056Y-64911524D01*
X66621712Y-64778288D01*
X66588320Y-64750884D01*
X66001518Y-64164082D01*
X65974113Y-64130689D01*
X65840877Y-64021345D01*
X65688869Y-63940096D01*
X65523931Y-63890062D01*
X65395380Y-63877401D01*
X65352401Y-63873168D01*
X65309422Y-63877401D01*
X63559644Y-63877401D01*
X63598177Y-63819732D01*
X63649060Y-63696890D01*
X63675000Y-63566482D01*
X63675000Y-63433518D01*
X63649060Y-63303110D01*
X63598177Y-63180268D01*
X63524307Y-63069713D01*
X63430287Y-62975693D01*
X63319732Y-62901823D01*
X63196890Y-62850940D01*
X63066482Y-62825000D01*
X62933518Y-62825000D01*
X62803110Y-62850940D01*
X62680268Y-62901823D01*
X62569713Y-62975693D01*
X62475693Y-63069713D01*
X62416102Y-63158898D01*
X62396890Y-63150940D01*
X62266482Y-63125000D01*
X62133518Y-63125000D01*
X62003110Y-63150940D01*
X61880268Y-63201823D01*
X61769713Y-63275693D01*
X61675693Y-63369713D01*
X61601823Y-63480268D01*
X61550940Y-63603110D01*
X61525000Y-63733518D01*
X61525000Y-63866482D01*
X61527172Y-63877401D01*
X52690577Y-63877401D01*
X52647598Y-63873168D01*
X52476068Y-63890062D01*
X52437679Y-63901707D01*
X52311131Y-63940096D01*
X52159123Y-64021345D01*
X52025887Y-64130689D01*
X51998482Y-64164082D01*
X51350891Y-64811673D01*
X51268945Y-64911525D01*
X51187695Y-65063533D01*
X51137661Y-65228471D01*
X51120767Y-65400000D01*
X50551228Y-65400000D01*
X50485469Y-65301586D01*
X50398414Y-65214531D01*
X50296048Y-65146132D01*
X50182306Y-65099019D01*
X50061557Y-65075000D01*
X49938443Y-65075000D01*
X49817694Y-65099019D01*
X49703952Y-65146132D01*
X49601586Y-65214531D01*
X49514531Y-65301586D01*
X49446132Y-65403952D01*
X49399019Y-65517694D01*
X49375000Y-65638443D01*
X48425000Y-65638443D01*
X48425000Y-62333518D01*
X55625000Y-62333518D01*
X55625000Y-62466482D01*
X55650940Y-62596890D01*
X55701823Y-62719732D01*
X55775693Y-62830287D01*
X55869713Y-62924307D01*
X55980268Y-62998177D01*
X56103110Y-63049060D01*
X56233518Y-63075000D01*
X56366482Y-63075000D01*
X56496890Y-63049060D01*
X56619732Y-62998177D01*
X56730287Y-62924307D01*
X56824307Y-62830287D01*
X56898177Y-62719732D01*
X56949060Y-62596890D01*
X56975000Y-62466482D01*
X56975000Y-62333518D01*
X56949060Y-62203110D01*
X56898177Y-62080268D01*
X56824307Y-61969713D01*
X56730287Y-61875693D01*
X56619732Y-61801823D01*
X56496890Y-61750940D01*
X56366482Y-61725000D01*
X56233518Y-61725000D01*
X56103110Y-61750940D01*
X55980268Y-61801823D01*
X55869713Y-61875693D01*
X55775693Y-61969713D01*
X55701823Y-62080268D01*
X55650940Y-62203110D01*
X55625000Y-62333518D01*
X48425000Y-62333518D01*
X48425000Y-61538443D01*
X58375000Y-61538443D01*
X58375000Y-61661557D01*
X58399019Y-61782306D01*
X58446132Y-61896048D01*
X58514531Y-61998414D01*
X58601586Y-62085469D01*
X58703952Y-62153868D01*
X58817694Y-62200981D01*
X58938443Y-62225000D01*
X59061557Y-62225000D01*
X59182306Y-62200981D01*
X59296048Y-62153868D01*
X59398414Y-62085469D01*
X59485469Y-61998414D01*
X59553868Y-61896048D01*
X59600981Y-61782306D01*
X59625000Y-61661557D01*
X59625000Y-61538443D01*
X59600981Y-61417694D01*
X59553868Y-61303952D01*
X59485469Y-61201586D01*
X59398414Y-61114531D01*
X59296048Y-61046132D01*
X59182306Y-60999019D01*
X59061557Y-60975000D01*
X58938443Y-60975000D01*
X58817694Y-60999019D01*
X58703952Y-61046132D01*
X58601586Y-61114531D01*
X58514531Y-61201586D01*
X58446132Y-61303952D01*
X58399019Y-61417694D01*
X58375000Y-61538443D01*
X48425000Y-61538443D01*
X48425000Y-60425000D01*
X69575001Y-60425000D01*
X69575000Y-99575000D01*
M02*
