M48
; DRILL file {KiCad (5.1.4-0-10_14)} date 2020 March 01, Sunday 16:54:03
; FORMAT={3:3/ absolute / metric / suppress leading zeros}
; #@! TF.CreationDate,2020-03-01T16:54:03+01:00
; #@! TF.GenerationSoftware,Kicad,Pcbnew,(5.1.4-0-10_14)
FMAT,2
METRIC,TZ
T1C0.200
T2C0.300
T3C0.500
T4C1.000
%
G90
G05
T1
X50000Y-65700
X51900Y-78500
X52900Y-97500
X53900Y-82900
X53900Y-86500
X54100Y-96950
X54500Y-88500
X56200Y-86400
X56200Y-87900
X56700Y-70700
X57400Y-70700
X57658Y-65765
X57658Y-67235
X58400Y-95600
X58500Y-89800
X58500Y-90600
X59000Y-61600
X59000Y-98273
X59100Y-91700
X59200Y-94200
X59511Y-87268
X59600Y-97500
X59688Y-96557
X59800Y-93700
X60300Y-90873
X60343Y-65765
X60343Y-67235
X60598Y-82500
X60600Y-81050
X60700Y-70700
X61310Y-85239
X61700Y-87600
X61700Y-89400
X61812Y-72588
X62300Y-83800
X62600Y-88500
X62600Y-92500
X62832Y-91800
X63000Y-94700
X63341Y-85345
X63500Y-87600
X63500Y-89400
X63800Y-83800
X64500Y-83800
X65650Y-96150
X65700Y-86648
X65700Y-87300
X65750Y-88750
X67200Y-96600
X67800Y-65500
X68000Y-86700
X68600Y-72300
X68800Y-96600
T2
X50725Y-78700
X52000Y-65400
X54600Y-79100
X54600Y-80475
X54700Y-66600
X56300Y-62400
X56800Y-82200
X58900Y-73800
X59500Y-73800
X59700Y-83500
X61300Y-80100
X62200Y-63800
X63000Y-63500
X65100Y-95000
X65200Y-73200
X66000Y-65400
X67200Y-83800
T3
X50400Y-88400
X50400Y-89650
X50400Y-90900
X50400Y-92150
X50400Y-93400
X50400Y-94650
X50400Y-95900
T4
X68200Y-79260
X68200Y-81800
X64600Y-76720
X64600Y-79260
X64600Y-81800
T0
M30
