G04 #@! TF.FileFunction,Legend,Bot*
%FSLAX46Y46*%
G04 Gerber Fmt 4.6, Leading zero omitted, Abs format (unit mm)*
G04 Created by KiCad (PCBNEW 4.0.1-stable) date 2016 March 10, Thursday 22:45:26*
%MOMM*%
G01*
G04 APERTURE LIST*
%ADD10C,0.100000*%
%ADD11C,0.200000*%
G04 APERTURE END LIST*
D10*
D11*
X90057143Y-60823809D02*
X90019048Y-60709523D01*
X89980952Y-60671428D01*
X89904762Y-60633333D01*
X89790476Y-60633333D01*
X89714286Y-60671428D01*
X89676190Y-60709523D01*
X89638095Y-60785714D01*
X89638095Y-61090476D01*
X90438095Y-61090476D01*
X90438095Y-60823809D01*
X90400000Y-60747619D01*
X90361905Y-60709523D01*
X90285714Y-60671428D01*
X90209524Y-60671428D01*
X90133333Y-60709523D01*
X90095238Y-60747619D01*
X90057143Y-60823809D01*
X90057143Y-61090476D01*
X90438095Y-59909523D02*
X90438095Y-60290476D01*
X90057143Y-60328571D01*
X90095238Y-60290476D01*
X90133333Y-60214285D01*
X90133333Y-60023809D01*
X90095238Y-59947619D01*
X90057143Y-59909523D01*
X89980952Y-59871428D01*
X89790476Y-59871428D01*
X89714286Y-59909523D01*
X89676190Y-59947619D01*
X89638095Y-60023809D01*
X89638095Y-60214285D01*
X89676190Y-60290476D01*
X89714286Y-60328571D01*
X91604762Y-60657143D02*
X90995238Y-60657143D01*
X91300000Y-60961905D02*
X91300000Y-60352381D01*
X93074286Y-57719047D02*
X93036190Y-57757142D01*
X92998095Y-57871428D01*
X92998095Y-57947618D01*
X93036190Y-58061904D01*
X93112381Y-58138095D01*
X93188571Y-58176190D01*
X93340952Y-58214285D01*
X93455238Y-58214285D01*
X93607619Y-58176190D01*
X93683810Y-58138095D01*
X93760000Y-58061904D01*
X93798095Y-57947618D01*
X93798095Y-57871428D01*
X93760000Y-57757142D01*
X93721905Y-57719047D01*
X93226667Y-57414285D02*
X93226667Y-57033333D01*
X92998095Y-57490476D02*
X93798095Y-57223809D01*
X92998095Y-56957142D01*
X92998095Y-56690476D02*
X93798095Y-56690476D01*
X92998095Y-56233333D01*
X93798095Y-56233333D01*
X93302857Y-55852381D02*
X93302857Y-55242857D01*
X92998095Y-54861905D02*
X93798095Y-54861905D01*
X93798095Y-54328572D02*
X93798095Y-54176191D01*
X93760000Y-54100000D01*
X93683810Y-54023810D01*
X93531429Y-53985715D01*
X93264762Y-53985715D01*
X93112381Y-54023810D01*
X93036190Y-54100000D01*
X92998095Y-54176191D01*
X92998095Y-54328572D01*
X93036190Y-54404762D01*
X93112381Y-54480953D01*
X93264762Y-54519048D01*
X93531429Y-54519048D01*
X93683810Y-54480953D01*
X93760000Y-54404762D01*
X93798095Y-54328572D01*
X91678095Y-56842857D02*
X92059048Y-57109524D01*
X91678095Y-57300000D02*
X92478095Y-57300000D01*
X92478095Y-56995238D01*
X92440000Y-56919047D01*
X92401905Y-56880952D01*
X92325714Y-56842857D01*
X92211429Y-56842857D01*
X92135238Y-56880952D01*
X92097143Y-56919047D01*
X92059048Y-56995238D01*
X92059048Y-57300000D01*
X91716190Y-56195238D02*
X91678095Y-56271428D01*
X91678095Y-56423809D01*
X91716190Y-56500000D01*
X91792381Y-56538095D01*
X92097143Y-56538095D01*
X92173333Y-56500000D01*
X92211429Y-56423809D01*
X92211429Y-56271428D01*
X92173333Y-56195238D01*
X92097143Y-56157143D01*
X92020952Y-56157143D01*
X91944762Y-56538095D01*
X92211429Y-55890476D02*
X91678095Y-55700000D01*
X92211429Y-55509524D01*
X91906667Y-55242857D02*
X91906667Y-54861905D01*
X91678095Y-55319048D02*
X92478095Y-55052381D01*
X91678095Y-54785714D01*
M02*
