G04 #@! TF.GenerationSoftware,KiCad,Pcbnew,(5.0.1-3-g963ef8bb5)*
G04 #@! TF.CreationDate,2018-10-28T18:09:26+01:00*
G04 #@! TF.ProjectId,can-io-board,63616E2D696F2D626F6172642E6B6963,rev?*
G04 #@! TF.SameCoordinates,Original*
G04 #@! TF.FileFunction,Soldermask,Bot*
G04 #@! TF.FilePolarity,Negative*
%FSLAX46Y46*%
G04 Gerber Fmt 4.6, Leading zero omitted, Abs format (unit mm)*
G04 Created by KiCad (PCBNEW (5.0.1-3-g963ef8bb5)) date 2018 October 28, Sunday 18:09:26*
%MOMM*%
%LPD*%
G01*
G04 APERTURE LIST*
%ADD10C,0.100000*%
G04 APERTURE END LIST*
D10*
G36*
X99971564Y-80454253D02*
X100007188Y-80465059D01*
X100040007Y-80482601D01*
X100068783Y-80506217D01*
X100092399Y-80534993D01*
X100109941Y-80567812D01*
X100120747Y-80603436D01*
X100125000Y-80646617D01*
X100125000Y-83553383D01*
X100120747Y-83596564D01*
X100109941Y-83632188D01*
X100092399Y-83665007D01*
X100068783Y-83693783D01*
X100040007Y-83717399D01*
X100007188Y-83734941D01*
X99971564Y-83745747D01*
X99928383Y-83750000D01*
X97921617Y-83750000D01*
X97878436Y-83745747D01*
X97842812Y-83734941D01*
X97809993Y-83717399D01*
X97781217Y-83693783D01*
X97757601Y-83665007D01*
X97740059Y-83632188D01*
X97729253Y-83596564D01*
X97725000Y-83553383D01*
X97725000Y-80646617D01*
X97729253Y-80603436D01*
X97740059Y-80567812D01*
X97757601Y-80534993D01*
X97781217Y-80506217D01*
X97809993Y-80482601D01*
X97842812Y-80465059D01*
X97878436Y-80454253D01*
X97921617Y-80450000D01*
X99928383Y-80450000D01*
X99971564Y-80454253D01*
X99971564Y-80454253D01*
G37*
G36*
X86121564Y-80454253D02*
X86157188Y-80465059D01*
X86190007Y-80482601D01*
X86218783Y-80506217D01*
X86242399Y-80534993D01*
X86259941Y-80567812D01*
X86270747Y-80603436D01*
X86275000Y-80646617D01*
X86275000Y-83553383D01*
X86270747Y-83596564D01*
X86259941Y-83632188D01*
X86242399Y-83665007D01*
X86218783Y-83693783D01*
X86190007Y-83717399D01*
X86157188Y-83734941D01*
X86121564Y-83745747D01*
X86078383Y-83750000D01*
X84071617Y-83750000D01*
X84028436Y-83745747D01*
X83992812Y-83734941D01*
X83959993Y-83717399D01*
X83931217Y-83693783D01*
X83907601Y-83665007D01*
X83890059Y-83632188D01*
X83879253Y-83596564D01*
X83875000Y-83553383D01*
X83875000Y-80646617D01*
X83879253Y-80603436D01*
X83890059Y-80567812D01*
X83907601Y-80534993D01*
X83931217Y-80506217D01*
X83959993Y-80482601D01*
X83992812Y-80465059D01*
X84028436Y-80454253D01*
X84071617Y-80450000D01*
X86078383Y-80450000D01*
X86121564Y-80454253D01*
X86121564Y-80454253D01*
G37*
G36*
X88003840Y-78254676D02*
X88043589Y-78266734D01*
X88080223Y-78286315D01*
X88112333Y-78312667D01*
X88138682Y-78344774D01*
X88139759Y-78346789D01*
X88153373Y-78367163D01*
X88170700Y-78384491D01*
X88191074Y-78398105D01*
X88213713Y-78407482D01*
X88237747Y-78412263D01*
X88262251Y-78412263D01*
X88286284Y-78407483D01*
X88308924Y-78398106D01*
X88329298Y-78384492D01*
X88346626Y-78367165D01*
X88360241Y-78346789D01*
X88361318Y-78344774D01*
X88387667Y-78312667D01*
X88419777Y-78286315D01*
X88456411Y-78266734D01*
X88496160Y-78254676D01*
X88543640Y-78250000D01*
X89206360Y-78250000D01*
X89253840Y-78254676D01*
X89293589Y-78266734D01*
X89330223Y-78286315D01*
X89362333Y-78312667D01*
X89388682Y-78344774D01*
X89389759Y-78346789D01*
X89403373Y-78367163D01*
X89420700Y-78384491D01*
X89441074Y-78398105D01*
X89463713Y-78407482D01*
X89487747Y-78412263D01*
X89512251Y-78412263D01*
X89536284Y-78407483D01*
X89558924Y-78398106D01*
X89579298Y-78384492D01*
X89596626Y-78367165D01*
X89610241Y-78346789D01*
X89611318Y-78344774D01*
X89637667Y-78312667D01*
X89669777Y-78286315D01*
X89706411Y-78266734D01*
X89746160Y-78254676D01*
X89793640Y-78250000D01*
X90456360Y-78250000D01*
X90503840Y-78254676D01*
X90543589Y-78266734D01*
X90580223Y-78286315D01*
X90612333Y-78312667D01*
X90638682Y-78344774D01*
X90639759Y-78346789D01*
X90653373Y-78367163D01*
X90670700Y-78384491D01*
X90691074Y-78398105D01*
X90713713Y-78407482D01*
X90737747Y-78412263D01*
X90762251Y-78412263D01*
X90786284Y-78407483D01*
X90808924Y-78398106D01*
X90829298Y-78384492D01*
X90846626Y-78367165D01*
X90860241Y-78346789D01*
X90861318Y-78344774D01*
X90887667Y-78312667D01*
X90919777Y-78286315D01*
X90956411Y-78266734D01*
X90996160Y-78254676D01*
X91043640Y-78250000D01*
X91706360Y-78250000D01*
X91753840Y-78254676D01*
X91793589Y-78266734D01*
X91830223Y-78286315D01*
X91862333Y-78312667D01*
X91888682Y-78344774D01*
X91889759Y-78346789D01*
X91903373Y-78367163D01*
X91920700Y-78384491D01*
X91941074Y-78398105D01*
X91963713Y-78407482D01*
X91987747Y-78412263D01*
X92012251Y-78412263D01*
X92036284Y-78407483D01*
X92058924Y-78398106D01*
X92079298Y-78384492D01*
X92096626Y-78367165D01*
X92110241Y-78346789D01*
X92111318Y-78344774D01*
X92137667Y-78312667D01*
X92169777Y-78286315D01*
X92206411Y-78266734D01*
X92246160Y-78254676D01*
X92293640Y-78250000D01*
X92956360Y-78250000D01*
X93003840Y-78254676D01*
X93043589Y-78266734D01*
X93080223Y-78286315D01*
X93112333Y-78312667D01*
X93138682Y-78344774D01*
X93139759Y-78346789D01*
X93153373Y-78367163D01*
X93170700Y-78384491D01*
X93191074Y-78398105D01*
X93213713Y-78407482D01*
X93237747Y-78412263D01*
X93262251Y-78412263D01*
X93286284Y-78407483D01*
X93308924Y-78398106D01*
X93329298Y-78384492D01*
X93346626Y-78367165D01*
X93360241Y-78346789D01*
X93361318Y-78344774D01*
X93387667Y-78312667D01*
X93419777Y-78286315D01*
X93456411Y-78266734D01*
X93496160Y-78254676D01*
X93543640Y-78250000D01*
X94206360Y-78250000D01*
X94253840Y-78254676D01*
X94293589Y-78266734D01*
X94330223Y-78286315D01*
X94362333Y-78312667D01*
X94388682Y-78344774D01*
X94389759Y-78346789D01*
X94403373Y-78367163D01*
X94420700Y-78384491D01*
X94441074Y-78398105D01*
X94463713Y-78407482D01*
X94487747Y-78412263D01*
X94512251Y-78412263D01*
X94536284Y-78407483D01*
X94558924Y-78398106D01*
X94579298Y-78384492D01*
X94596626Y-78367165D01*
X94610241Y-78346789D01*
X94611318Y-78344774D01*
X94637667Y-78312667D01*
X94669777Y-78286315D01*
X94706411Y-78266734D01*
X94746160Y-78254676D01*
X94793640Y-78250000D01*
X95456360Y-78250000D01*
X95503840Y-78254676D01*
X95543589Y-78266734D01*
X95580223Y-78286315D01*
X95612333Y-78312667D01*
X95638682Y-78344774D01*
X95639759Y-78346789D01*
X95653373Y-78367163D01*
X95670700Y-78384491D01*
X95691074Y-78398105D01*
X95713713Y-78407482D01*
X95737747Y-78412263D01*
X95762251Y-78412263D01*
X95786284Y-78407483D01*
X95808924Y-78398106D01*
X95829298Y-78384492D01*
X95846626Y-78367165D01*
X95860241Y-78346789D01*
X95861318Y-78344774D01*
X95887667Y-78312667D01*
X95919777Y-78286315D01*
X95956411Y-78266734D01*
X95996160Y-78254676D01*
X96043640Y-78250000D01*
X96706360Y-78250000D01*
X96753840Y-78254676D01*
X96793589Y-78266734D01*
X96830223Y-78286315D01*
X96862333Y-78312667D01*
X96888685Y-78344777D01*
X96908266Y-78381411D01*
X96920324Y-78421160D01*
X96925000Y-78468640D01*
X96925000Y-79931360D01*
X96920324Y-79978840D01*
X96908266Y-80018589D01*
X96888685Y-80055223D01*
X96862333Y-80087333D01*
X96830223Y-80113685D01*
X96793589Y-80133266D01*
X96753840Y-80145324D01*
X96706360Y-80150000D01*
X96043640Y-80150000D01*
X95996160Y-80145324D01*
X95956411Y-80133266D01*
X95919777Y-80113685D01*
X95887667Y-80087333D01*
X95861318Y-80055226D01*
X95860241Y-80053211D01*
X95846627Y-80032837D01*
X95829300Y-80015509D01*
X95808926Y-80001895D01*
X95786287Y-79992518D01*
X95762253Y-79987737D01*
X95737749Y-79987737D01*
X95713716Y-79992517D01*
X95691076Y-80001894D01*
X95670702Y-80015508D01*
X95653374Y-80032835D01*
X95639759Y-80053211D01*
X95638682Y-80055226D01*
X95612333Y-80087333D01*
X95580223Y-80113685D01*
X95543589Y-80133266D01*
X95503840Y-80145324D01*
X95456360Y-80150000D01*
X94793640Y-80150000D01*
X94746160Y-80145324D01*
X94706411Y-80133266D01*
X94669777Y-80113685D01*
X94637667Y-80087333D01*
X94611318Y-80055226D01*
X94610241Y-80053211D01*
X94596627Y-80032837D01*
X94579300Y-80015509D01*
X94558926Y-80001895D01*
X94536287Y-79992518D01*
X94512253Y-79987737D01*
X94487749Y-79987737D01*
X94463716Y-79992517D01*
X94441076Y-80001894D01*
X94420702Y-80015508D01*
X94403374Y-80032835D01*
X94389759Y-80053211D01*
X94388682Y-80055226D01*
X94362333Y-80087333D01*
X94330223Y-80113685D01*
X94293589Y-80133266D01*
X94253840Y-80145324D01*
X94206360Y-80150000D01*
X93543640Y-80150000D01*
X93496160Y-80145324D01*
X93456411Y-80133266D01*
X93419777Y-80113685D01*
X93387667Y-80087333D01*
X93361318Y-80055226D01*
X93360241Y-80053211D01*
X93346627Y-80032837D01*
X93329300Y-80015509D01*
X93308926Y-80001895D01*
X93286287Y-79992518D01*
X93262253Y-79987737D01*
X93237749Y-79987737D01*
X93213716Y-79992517D01*
X93191076Y-80001894D01*
X93170702Y-80015508D01*
X93153374Y-80032835D01*
X93139759Y-80053211D01*
X93138682Y-80055226D01*
X93112333Y-80087333D01*
X93080223Y-80113685D01*
X93043589Y-80133266D01*
X93003840Y-80145324D01*
X92956360Y-80150000D01*
X92293640Y-80150000D01*
X92246160Y-80145324D01*
X92206411Y-80133266D01*
X92169777Y-80113685D01*
X92137667Y-80087333D01*
X92111318Y-80055226D01*
X92110241Y-80053211D01*
X92096627Y-80032837D01*
X92079300Y-80015509D01*
X92058926Y-80001895D01*
X92036287Y-79992518D01*
X92012253Y-79987737D01*
X91987749Y-79987737D01*
X91963716Y-79992517D01*
X91941076Y-80001894D01*
X91920702Y-80015508D01*
X91903374Y-80032835D01*
X91889759Y-80053211D01*
X91888682Y-80055226D01*
X91862333Y-80087333D01*
X91830223Y-80113685D01*
X91793589Y-80133266D01*
X91753840Y-80145324D01*
X91706360Y-80150000D01*
X91043640Y-80150000D01*
X90996160Y-80145324D01*
X90956411Y-80133266D01*
X90919777Y-80113685D01*
X90887667Y-80087333D01*
X90861318Y-80055226D01*
X90860241Y-80053211D01*
X90846627Y-80032837D01*
X90829300Y-80015509D01*
X90808926Y-80001895D01*
X90786287Y-79992518D01*
X90762253Y-79987737D01*
X90737749Y-79987737D01*
X90713716Y-79992517D01*
X90691076Y-80001894D01*
X90670702Y-80015508D01*
X90653374Y-80032835D01*
X90639759Y-80053211D01*
X90638682Y-80055226D01*
X90612333Y-80087333D01*
X90580223Y-80113685D01*
X90543589Y-80133266D01*
X90503840Y-80145324D01*
X90456360Y-80150000D01*
X89793640Y-80150000D01*
X89746160Y-80145324D01*
X89706411Y-80133266D01*
X89669777Y-80113685D01*
X89637667Y-80087333D01*
X89611318Y-80055226D01*
X89610241Y-80053211D01*
X89596627Y-80032837D01*
X89579300Y-80015509D01*
X89558926Y-80001895D01*
X89536287Y-79992518D01*
X89512253Y-79987737D01*
X89487749Y-79987737D01*
X89463716Y-79992517D01*
X89441076Y-80001894D01*
X89420702Y-80015508D01*
X89403374Y-80032835D01*
X89389759Y-80053211D01*
X89388682Y-80055226D01*
X89362333Y-80087333D01*
X89330223Y-80113685D01*
X89293589Y-80133266D01*
X89253840Y-80145324D01*
X89206360Y-80150000D01*
X88543640Y-80150000D01*
X88496160Y-80145324D01*
X88456411Y-80133266D01*
X88419777Y-80113685D01*
X88387667Y-80087333D01*
X88361318Y-80055226D01*
X88360241Y-80053211D01*
X88346627Y-80032837D01*
X88329300Y-80015509D01*
X88308926Y-80001895D01*
X88286287Y-79992518D01*
X88262253Y-79987737D01*
X88237749Y-79987737D01*
X88213716Y-79992517D01*
X88191076Y-80001894D01*
X88170702Y-80015508D01*
X88153374Y-80032835D01*
X88139759Y-80053211D01*
X88138682Y-80055226D01*
X88112333Y-80087333D01*
X88080223Y-80113685D01*
X88043589Y-80133266D01*
X88003840Y-80145324D01*
X87956360Y-80150000D01*
X87293640Y-80150000D01*
X87246160Y-80145324D01*
X87206411Y-80133266D01*
X87169777Y-80113685D01*
X87137667Y-80087333D01*
X87111315Y-80055223D01*
X87091734Y-80018589D01*
X87079676Y-79978840D01*
X87075000Y-79931360D01*
X87075000Y-78468640D01*
X87079676Y-78421160D01*
X87091734Y-78381411D01*
X87111315Y-78344777D01*
X87137667Y-78312667D01*
X87169777Y-78286315D01*
X87206411Y-78266734D01*
X87246160Y-78254676D01*
X87293640Y-78250000D01*
X87956360Y-78250000D01*
X88003840Y-78254676D01*
X88003840Y-78254676D01*
G37*
G36*
X99496564Y-73229253D02*
X99532188Y-73240059D01*
X99565007Y-73257601D01*
X99593783Y-73281217D01*
X99617399Y-73309993D01*
X99634941Y-73342812D01*
X99645747Y-73378436D01*
X99650000Y-73421617D01*
X99650000Y-75428383D01*
X99645747Y-75471564D01*
X99634941Y-75507188D01*
X99617399Y-75540007D01*
X99593783Y-75568783D01*
X99565007Y-75592399D01*
X99532188Y-75609941D01*
X99496564Y-75620747D01*
X99453383Y-75625000D01*
X96546617Y-75625000D01*
X96503436Y-75620747D01*
X96467812Y-75609941D01*
X96434993Y-75592399D01*
X96406217Y-75568783D01*
X96382601Y-75540007D01*
X96365059Y-75507188D01*
X96354253Y-75471564D01*
X96350000Y-75428383D01*
X96350000Y-73421617D01*
X96354253Y-73378436D01*
X96365059Y-73342812D01*
X96382601Y-73309993D01*
X96406217Y-73281217D01*
X96434993Y-73257601D01*
X96467812Y-73240059D01*
X96503436Y-73229253D01*
X96546617Y-73225000D01*
X99453383Y-73225000D01*
X99496564Y-73229253D01*
X99496564Y-73229253D01*
G37*
G36*
X87496564Y-73229253D02*
X87532188Y-73240059D01*
X87565007Y-73257601D01*
X87593783Y-73281217D01*
X87617399Y-73309993D01*
X87634941Y-73342812D01*
X87645747Y-73378436D01*
X87650000Y-73421617D01*
X87650000Y-75428383D01*
X87645747Y-75471564D01*
X87634941Y-75507188D01*
X87617399Y-75540007D01*
X87593783Y-75568783D01*
X87565007Y-75592399D01*
X87532188Y-75609941D01*
X87496564Y-75620747D01*
X87453383Y-75625000D01*
X84546617Y-75625000D01*
X84503436Y-75620747D01*
X84467812Y-75609941D01*
X84434993Y-75592399D01*
X84406217Y-75568783D01*
X84382601Y-75540007D01*
X84365059Y-75507188D01*
X84354253Y-75471564D01*
X84350000Y-75428383D01*
X84350000Y-73421617D01*
X84354253Y-73378436D01*
X84365059Y-73342812D01*
X84382601Y-73309993D01*
X84406217Y-73281217D01*
X84434993Y-73257601D01*
X84467812Y-73240059D01*
X84503436Y-73229253D01*
X84546617Y-73225000D01*
X87453383Y-73225000D01*
X87496564Y-73229253D01*
X87496564Y-73229253D01*
G37*
G36*
X95878840Y-67579676D02*
X95918589Y-67591734D01*
X95955223Y-67611315D01*
X95987333Y-67637667D01*
X96013685Y-67669777D01*
X96033266Y-67706411D01*
X96045324Y-67746160D01*
X96050000Y-67793640D01*
X96050000Y-68456360D01*
X96045324Y-68503840D01*
X96033266Y-68543589D01*
X96013685Y-68580223D01*
X95987333Y-68612333D01*
X95955226Y-68638682D01*
X95953211Y-68639759D01*
X95932837Y-68653373D01*
X95915509Y-68670700D01*
X95901895Y-68691074D01*
X95892518Y-68713713D01*
X95887737Y-68737747D01*
X95887737Y-68762251D01*
X95892517Y-68786284D01*
X95901894Y-68808924D01*
X95915508Y-68829298D01*
X95932835Y-68846626D01*
X95953211Y-68860241D01*
X95955226Y-68861318D01*
X95987333Y-68887667D01*
X96013685Y-68919777D01*
X96033266Y-68956411D01*
X96045324Y-68996160D01*
X96050000Y-69043640D01*
X96050000Y-69706360D01*
X96045324Y-69753840D01*
X96033266Y-69793589D01*
X96013685Y-69830223D01*
X95987333Y-69862333D01*
X95955226Y-69888682D01*
X95953211Y-69889759D01*
X95932837Y-69903373D01*
X95915509Y-69920700D01*
X95901895Y-69941074D01*
X95892518Y-69963713D01*
X95887737Y-69987747D01*
X95887737Y-70012251D01*
X95892517Y-70036284D01*
X95901894Y-70058924D01*
X95915508Y-70079298D01*
X95932835Y-70096626D01*
X95953211Y-70110241D01*
X95955226Y-70111318D01*
X95987333Y-70137667D01*
X96013685Y-70169777D01*
X96033266Y-70206411D01*
X96045324Y-70246160D01*
X96050000Y-70293640D01*
X96050000Y-70956360D01*
X96045324Y-71003840D01*
X96033266Y-71043589D01*
X96013685Y-71080223D01*
X95987333Y-71112333D01*
X95955226Y-71138682D01*
X95953211Y-71139759D01*
X95932837Y-71153373D01*
X95915509Y-71170700D01*
X95901895Y-71191074D01*
X95892518Y-71213713D01*
X95887737Y-71237747D01*
X95887737Y-71262251D01*
X95892517Y-71286284D01*
X95901894Y-71308924D01*
X95915508Y-71329298D01*
X95932835Y-71346626D01*
X95953211Y-71360241D01*
X95955226Y-71361318D01*
X95987333Y-71387667D01*
X96013685Y-71419777D01*
X96033266Y-71456411D01*
X96045324Y-71496160D01*
X96050000Y-71543640D01*
X96050000Y-72206360D01*
X96045324Y-72253840D01*
X96033266Y-72293589D01*
X96013685Y-72330223D01*
X95987333Y-72362333D01*
X95955223Y-72388685D01*
X95918589Y-72408266D01*
X95878840Y-72420324D01*
X95831360Y-72425000D01*
X94368640Y-72425000D01*
X94321160Y-72420324D01*
X94281411Y-72408266D01*
X94244777Y-72388685D01*
X94212667Y-72362333D01*
X94186315Y-72330223D01*
X94166734Y-72293589D01*
X94154676Y-72253840D01*
X94150000Y-72206360D01*
X94150000Y-71543640D01*
X94154676Y-71496160D01*
X94166734Y-71456411D01*
X94186315Y-71419777D01*
X94212667Y-71387667D01*
X94244774Y-71361318D01*
X94246789Y-71360241D01*
X94267163Y-71346627D01*
X94284491Y-71329300D01*
X94298105Y-71308926D01*
X94307482Y-71286287D01*
X94312263Y-71262253D01*
X94312263Y-71237749D01*
X94307483Y-71213716D01*
X94298106Y-71191076D01*
X94284492Y-71170702D01*
X94267165Y-71153374D01*
X94246789Y-71139759D01*
X94244774Y-71138682D01*
X94212667Y-71112333D01*
X94186315Y-71080223D01*
X94166734Y-71043589D01*
X94154676Y-71003840D01*
X94150000Y-70956360D01*
X94150000Y-70293640D01*
X94154676Y-70246160D01*
X94166734Y-70206411D01*
X94186315Y-70169777D01*
X94212667Y-70137667D01*
X94244774Y-70111318D01*
X94246789Y-70110241D01*
X94267163Y-70096627D01*
X94284491Y-70079300D01*
X94298105Y-70058926D01*
X94307482Y-70036287D01*
X94312263Y-70012253D01*
X94312263Y-69987749D01*
X94307483Y-69963716D01*
X94298106Y-69941076D01*
X94284492Y-69920702D01*
X94267165Y-69903374D01*
X94246789Y-69889759D01*
X94244774Y-69888682D01*
X94212667Y-69862333D01*
X94186315Y-69830223D01*
X94166734Y-69793589D01*
X94154676Y-69753840D01*
X94150000Y-69706360D01*
X94150000Y-69043640D01*
X94154676Y-68996160D01*
X94166734Y-68956411D01*
X94186315Y-68919777D01*
X94212667Y-68887667D01*
X94244774Y-68861318D01*
X94246789Y-68860241D01*
X94267163Y-68846627D01*
X94284491Y-68829300D01*
X94298105Y-68808926D01*
X94307482Y-68786287D01*
X94312263Y-68762253D01*
X94312263Y-68737749D01*
X94307483Y-68713716D01*
X94298106Y-68691076D01*
X94284492Y-68670702D01*
X94267165Y-68653374D01*
X94246789Y-68639759D01*
X94244774Y-68638682D01*
X94212667Y-68612333D01*
X94186315Y-68580223D01*
X94166734Y-68543589D01*
X94154676Y-68503840D01*
X94150000Y-68456360D01*
X94150000Y-67793640D01*
X94154676Y-67746160D01*
X94166734Y-67706411D01*
X94186315Y-67669777D01*
X94212667Y-67637667D01*
X94244777Y-67611315D01*
X94281411Y-67591734D01*
X94321160Y-67579676D01*
X94368640Y-67575000D01*
X95831360Y-67575000D01*
X95878840Y-67579676D01*
X95878840Y-67579676D01*
G37*
G36*
X89678840Y-67579676D02*
X89718589Y-67591734D01*
X89755223Y-67611315D01*
X89787333Y-67637667D01*
X89813685Y-67669777D01*
X89833266Y-67706411D01*
X89845324Y-67746160D01*
X89850000Y-67793640D01*
X89850000Y-68456360D01*
X89845324Y-68503840D01*
X89833266Y-68543589D01*
X89813685Y-68580223D01*
X89787333Y-68612333D01*
X89755226Y-68638682D01*
X89753211Y-68639759D01*
X89732837Y-68653373D01*
X89715509Y-68670700D01*
X89701895Y-68691074D01*
X89692518Y-68713713D01*
X89687737Y-68737747D01*
X89687737Y-68762251D01*
X89692517Y-68786284D01*
X89701894Y-68808924D01*
X89715508Y-68829298D01*
X89732835Y-68846626D01*
X89753211Y-68860241D01*
X89755226Y-68861318D01*
X89787333Y-68887667D01*
X89813685Y-68919777D01*
X89833266Y-68956411D01*
X89845324Y-68996160D01*
X89850000Y-69043640D01*
X89850000Y-69706360D01*
X89845324Y-69753840D01*
X89833266Y-69793589D01*
X89813685Y-69830223D01*
X89787333Y-69862333D01*
X89755226Y-69888682D01*
X89753211Y-69889759D01*
X89732837Y-69903373D01*
X89715509Y-69920700D01*
X89701895Y-69941074D01*
X89692518Y-69963713D01*
X89687737Y-69987747D01*
X89687737Y-70012251D01*
X89692517Y-70036284D01*
X89701894Y-70058924D01*
X89715508Y-70079298D01*
X89732835Y-70096626D01*
X89753211Y-70110241D01*
X89755226Y-70111318D01*
X89787333Y-70137667D01*
X89813685Y-70169777D01*
X89833266Y-70206411D01*
X89845324Y-70246160D01*
X89850000Y-70293640D01*
X89850000Y-70956360D01*
X89845324Y-71003840D01*
X89833266Y-71043589D01*
X89813685Y-71080223D01*
X89787333Y-71112333D01*
X89755226Y-71138682D01*
X89753211Y-71139759D01*
X89732837Y-71153373D01*
X89715509Y-71170700D01*
X89701895Y-71191074D01*
X89692518Y-71213713D01*
X89687737Y-71237747D01*
X89687737Y-71262251D01*
X89692517Y-71286284D01*
X89701894Y-71308924D01*
X89715508Y-71329298D01*
X89732835Y-71346626D01*
X89753211Y-71360241D01*
X89755226Y-71361318D01*
X89787333Y-71387667D01*
X89813685Y-71419777D01*
X89833266Y-71456411D01*
X89845324Y-71496160D01*
X89850000Y-71543640D01*
X89850000Y-72206360D01*
X89845324Y-72253840D01*
X89833266Y-72293589D01*
X89813685Y-72330223D01*
X89787333Y-72362333D01*
X89755223Y-72388685D01*
X89718589Y-72408266D01*
X89678840Y-72420324D01*
X89631360Y-72425000D01*
X88168640Y-72425000D01*
X88121160Y-72420324D01*
X88081411Y-72408266D01*
X88044777Y-72388685D01*
X88012667Y-72362333D01*
X87986315Y-72330223D01*
X87966734Y-72293589D01*
X87954676Y-72253840D01*
X87950000Y-72206360D01*
X87950000Y-71543640D01*
X87954676Y-71496160D01*
X87966734Y-71456411D01*
X87986315Y-71419777D01*
X88012667Y-71387667D01*
X88044774Y-71361318D01*
X88046789Y-71360241D01*
X88067163Y-71346627D01*
X88084491Y-71329300D01*
X88098105Y-71308926D01*
X88107482Y-71286287D01*
X88112263Y-71262253D01*
X88112263Y-71237749D01*
X88107483Y-71213716D01*
X88098106Y-71191076D01*
X88084492Y-71170702D01*
X88067165Y-71153374D01*
X88046789Y-71139759D01*
X88044774Y-71138682D01*
X88012667Y-71112333D01*
X87986315Y-71080223D01*
X87966734Y-71043589D01*
X87954676Y-71003840D01*
X87950000Y-70956360D01*
X87950000Y-70293640D01*
X87954676Y-70246160D01*
X87966734Y-70206411D01*
X87986315Y-70169777D01*
X88012667Y-70137667D01*
X88044774Y-70111318D01*
X88046789Y-70110241D01*
X88067163Y-70096627D01*
X88084491Y-70079300D01*
X88098105Y-70058926D01*
X88107482Y-70036287D01*
X88112263Y-70012253D01*
X88112263Y-69987749D01*
X88107483Y-69963716D01*
X88098106Y-69941076D01*
X88084492Y-69920702D01*
X88067165Y-69903374D01*
X88046789Y-69889759D01*
X88044774Y-69888682D01*
X88012667Y-69862333D01*
X87986315Y-69830223D01*
X87966734Y-69793589D01*
X87954676Y-69753840D01*
X87950000Y-69706360D01*
X87950000Y-69043640D01*
X87954676Y-68996160D01*
X87966734Y-68956411D01*
X87986315Y-68919777D01*
X88012667Y-68887667D01*
X88044774Y-68861318D01*
X88046789Y-68860241D01*
X88067163Y-68846627D01*
X88084491Y-68829300D01*
X88098105Y-68808926D01*
X88107482Y-68786287D01*
X88112263Y-68762253D01*
X88112263Y-68737749D01*
X88107483Y-68713716D01*
X88098106Y-68691076D01*
X88084492Y-68670702D01*
X88067165Y-68653374D01*
X88046789Y-68639759D01*
X88044774Y-68638682D01*
X88012667Y-68612333D01*
X87986315Y-68580223D01*
X87966734Y-68543589D01*
X87954676Y-68503840D01*
X87950000Y-68456360D01*
X87950000Y-67793640D01*
X87954676Y-67746160D01*
X87966734Y-67706411D01*
X87986315Y-67669777D01*
X88012667Y-67637667D01*
X88044777Y-67611315D01*
X88081411Y-67591734D01*
X88121160Y-67579676D01*
X88168640Y-67575000D01*
X89631360Y-67575000D01*
X89678840Y-67579676D01*
X89678840Y-67579676D01*
G37*
G36*
X87496564Y-64379253D02*
X87532188Y-64390059D01*
X87565007Y-64407601D01*
X87593783Y-64431217D01*
X87617399Y-64459993D01*
X87634941Y-64492813D01*
X87637856Y-64502422D01*
X87647233Y-64525061D01*
X87660847Y-64545436D01*
X87678174Y-64562763D01*
X87698548Y-64576377D01*
X87721187Y-64585755D01*
X87745220Y-64590536D01*
X87769725Y-64590536D01*
X87793758Y-64585756D01*
X87816397Y-64576379D01*
X87836772Y-64562765D01*
X87854100Y-64545438D01*
X87854102Y-64545436D01*
X87859211Y-64539210D01*
X87893084Y-64511411D01*
X87942962Y-64470476D01*
X88038503Y-64419409D01*
X88077429Y-64407601D01*
X88142182Y-64387958D01*
X88250000Y-64377339D01*
X88250001Y-64377339D01*
X88269434Y-64379253D01*
X88357819Y-64387958D01*
X88422572Y-64407601D01*
X88461498Y-64419409D01*
X88557039Y-64470476D01*
X88606917Y-64511411D01*
X88640790Y-64539210D01*
X88701371Y-64613027D01*
X88709524Y-64622962D01*
X88764760Y-64726302D01*
X88778374Y-64746677D01*
X88795701Y-64764004D01*
X88816075Y-64777618D01*
X88838714Y-64786995D01*
X88862748Y-64791776D01*
X88887252Y-64791776D01*
X88911285Y-64786996D01*
X88933924Y-64777618D01*
X88954299Y-64764004D01*
X88971626Y-64746677D01*
X88985240Y-64726302D01*
X89040478Y-64622958D01*
X89109208Y-64539213D01*
X89109210Y-64539212D01*
X89109211Y-64539210D01*
X89165746Y-64492812D01*
X89192962Y-64470476D01*
X89288503Y-64419409D01*
X89327429Y-64407601D01*
X89392182Y-64387958D01*
X89500000Y-64377339D01*
X89500001Y-64377339D01*
X89519434Y-64379253D01*
X89607819Y-64387958D01*
X89672572Y-64407601D01*
X89711498Y-64419409D01*
X89807039Y-64470476D01*
X89856917Y-64511411D01*
X89890790Y-64539210D01*
X89951371Y-64613027D01*
X89959524Y-64622962D01*
X90014760Y-64726302D01*
X90028374Y-64746677D01*
X90045701Y-64764004D01*
X90066075Y-64777618D01*
X90088714Y-64786995D01*
X90112748Y-64791776D01*
X90137252Y-64791776D01*
X90161285Y-64786996D01*
X90183924Y-64777618D01*
X90204299Y-64764004D01*
X90221626Y-64746677D01*
X90235240Y-64726302D01*
X90290478Y-64622958D01*
X90359208Y-64539213D01*
X90359210Y-64539212D01*
X90359211Y-64539210D01*
X90415746Y-64492812D01*
X90442962Y-64470476D01*
X90538503Y-64419409D01*
X90577429Y-64407601D01*
X90642182Y-64387958D01*
X90750000Y-64377339D01*
X90750001Y-64377339D01*
X90769434Y-64379253D01*
X90857819Y-64387958D01*
X90922572Y-64407601D01*
X90961498Y-64419409D01*
X91057039Y-64470476D01*
X91106917Y-64511411D01*
X91140790Y-64539210D01*
X91201371Y-64613027D01*
X91209524Y-64622962D01*
X91264760Y-64726302D01*
X91278374Y-64746677D01*
X91295701Y-64764004D01*
X91316075Y-64777618D01*
X91338714Y-64786995D01*
X91362748Y-64791776D01*
X91387252Y-64791776D01*
X91411285Y-64786996D01*
X91433924Y-64777618D01*
X91454299Y-64764004D01*
X91471626Y-64746677D01*
X91485240Y-64726302D01*
X91540478Y-64622958D01*
X91609208Y-64539213D01*
X91609210Y-64539212D01*
X91609211Y-64539210D01*
X91665746Y-64492812D01*
X91692962Y-64470476D01*
X91788503Y-64419409D01*
X91827429Y-64407601D01*
X91892182Y-64387958D01*
X92000000Y-64377339D01*
X92000001Y-64377339D01*
X92019434Y-64379253D01*
X92107819Y-64387958D01*
X92172572Y-64407601D01*
X92211498Y-64419409D01*
X92307039Y-64470476D01*
X92356917Y-64511411D01*
X92390790Y-64539210D01*
X92451371Y-64613027D01*
X92459524Y-64622962D01*
X92514760Y-64726302D01*
X92528374Y-64746677D01*
X92545701Y-64764004D01*
X92566075Y-64777618D01*
X92588714Y-64786995D01*
X92612748Y-64791776D01*
X92637252Y-64791776D01*
X92661285Y-64786996D01*
X92683924Y-64777618D01*
X92704299Y-64764004D01*
X92721626Y-64746677D01*
X92735240Y-64726302D01*
X92790478Y-64622958D01*
X92859208Y-64539213D01*
X92859210Y-64539212D01*
X92859211Y-64539210D01*
X92915746Y-64492812D01*
X92942962Y-64470476D01*
X93038503Y-64419409D01*
X93077429Y-64407601D01*
X93142182Y-64387958D01*
X93250000Y-64377339D01*
X93250001Y-64377339D01*
X93269434Y-64379253D01*
X93357819Y-64387958D01*
X93422572Y-64407601D01*
X93461498Y-64419409D01*
X93557039Y-64470476D01*
X93606917Y-64511411D01*
X93640790Y-64539210D01*
X93701371Y-64613027D01*
X93709524Y-64622962D01*
X93764760Y-64726302D01*
X93778374Y-64746677D01*
X93795701Y-64764004D01*
X93816075Y-64777618D01*
X93838714Y-64786995D01*
X93862748Y-64791776D01*
X93887252Y-64791776D01*
X93911285Y-64786996D01*
X93933924Y-64777618D01*
X93954299Y-64764004D01*
X93971626Y-64746677D01*
X93985240Y-64726302D01*
X94040478Y-64622958D01*
X94109208Y-64539213D01*
X94109210Y-64539212D01*
X94109211Y-64539210D01*
X94165746Y-64492812D01*
X94192962Y-64470476D01*
X94288503Y-64419409D01*
X94327429Y-64407601D01*
X94392182Y-64387958D01*
X94500000Y-64377339D01*
X94500001Y-64377339D01*
X94519434Y-64379253D01*
X94607819Y-64387958D01*
X94672572Y-64407601D01*
X94711498Y-64419409D01*
X94807039Y-64470476D01*
X94856917Y-64511411D01*
X94890790Y-64539210D01*
X94951371Y-64613027D01*
X94959523Y-64622961D01*
X94966311Y-64635661D01*
X94979924Y-64656036D01*
X94997251Y-64673364D01*
X95017625Y-64686978D01*
X95040264Y-64696356D01*
X95064297Y-64701137D01*
X95088801Y-64701137D01*
X95112835Y-64696357D01*
X95135474Y-64686980D01*
X95155849Y-64673367D01*
X95173177Y-64656040D01*
X95186791Y-64635666D01*
X95196169Y-64613027D01*
X95200950Y-64588992D01*
X95204676Y-64551160D01*
X95216734Y-64511411D01*
X95236315Y-64474777D01*
X95262667Y-64442667D01*
X95294777Y-64416315D01*
X95331411Y-64396734D01*
X95371160Y-64384676D01*
X95418640Y-64380000D01*
X96081360Y-64380000D01*
X96128840Y-64384676D01*
X96168589Y-64396734D01*
X96205223Y-64416315D01*
X96236009Y-64441580D01*
X96256384Y-64455194D01*
X96279023Y-64464571D01*
X96303057Y-64469351D01*
X96327561Y-64469351D01*
X96351594Y-64464570D01*
X96374233Y-64455192D01*
X96394608Y-64441578D01*
X96399252Y-64436933D01*
X96434993Y-64407601D01*
X96467812Y-64390059D01*
X96503436Y-64379253D01*
X96546617Y-64375000D01*
X99453383Y-64375000D01*
X99496564Y-64379253D01*
X99532188Y-64390059D01*
X99565007Y-64407601D01*
X99593783Y-64431217D01*
X99617399Y-64459993D01*
X99634941Y-64492812D01*
X99645747Y-64528436D01*
X99650000Y-64571617D01*
X99650000Y-66578383D01*
X99645747Y-66621564D01*
X99634941Y-66657188D01*
X99617399Y-66690007D01*
X99593783Y-66718783D01*
X99565007Y-66742399D01*
X99532188Y-66759941D01*
X99496564Y-66770747D01*
X99453383Y-66775000D01*
X96546617Y-66775000D01*
X96503436Y-66770747D01*
X96467812Y-66759941D01*
X96434993Y-66742399D01*
X96406217Y-66718783D01*
X96382601Y-66690007D01*
X96365059Y-66657188D01*
X96354253Y-66621564D01*
X96350000Y-66578383D01*
X96350000Y-66074849D01*
X96347598Y-66050463D01*
X96340485Y-66027014D01*
X96328934Y-66005403D01*
X96313388Y-65986461D01*
X96294446Y-65970915D01*
X96272835Y-65959364D01*
X96249386Y-65952251D01*
X96225000Y-65949849D01*
X96200614Y-65952251D01*
X96177165Y-65959364D01*
X96169498Y-65962990D01*
X96128840Y-65975324D01*
X96081360Y-65980000D01*
X95418640Y-65980000D01*
X95371160Y-65975324D01*
X95331411Y-65963266D01*
X95294777Y-65943685D01*
X95262667Y-65917333D01*
X95236315Y-65885223D01*
X95216734Y-65848589D01*
X95204676Y-65808840D01*
X95200950Y-65771008D01*
X95196169Y-65746975D01*
X95186792Y-65724336D01*
X95173178Y-65703961D01*
X95155850Y-65686634D01*
X95135476Y-65673020D01*
X95112837Y-65663643D01*
X95088803Y-65658863D01*
X95064299Y-65658863D01*
X95040266Y-65663644D01*
X95017627Y-65673021D01*
X94997252Y-65686635D01*
X94979925Y-65703963D01*
X94966311Y-65724339D01*
X94959521Y-65737042D01*
X94890790Y-65820790D01*
X94822179Y-65877098D01*
X94807038Y-65889524D01*
X94711497Y-65940591D01*
X94701297Y-65943685D01*
X94607818Y-65972042D01*
X94500000Y-65982661D01*
X94499999Y-65982661D01*
X94464060Y-65979121D01*
X94392181Y-65972042D01*
X94298702Y-65943685D01*
X94288502Y-65940591D01*
X94192958Y-65889522D01*
X94125410Y-65834085D01*
X94109210Y-65820790D01*
X94040479Y-65737042D01*
X94033689Y-65724339D01*
X93985240Y-65633697D01*
X93971626Y-65613322D01*
X93954299Y-65595995D01*
X93933925Y-65582381D01*
X93911286Y-65573004D01*
X93887252Y-65568223D01*
X93862748Y-65568223D01*
X93838715Y-65573003D01*
X93816076Y-65582381D01*
X93795701Y-65595995D01*
X93778374Y-65613322D01*
X93764760Y-65633697D01*
X93709522Y-65737042D01*
X93691788Y-65758650D01*
X93640790Y-65820790D01*
X93572179Y-65877098D01*
X93557038Y-65889524D01*
X93461497Y-65940591D01*
X93451297Y-65943685D01*
X93357818Y-65972042D01*
X93250000Y-65982661D01*
X93249999Y-65982661D01*
X93214060Y-65979121D01*
X93142181Y-65972042D01*
X93048702Y-65943685D01*
X93038502Y-65940591D01*
X92942958Y-65889522D01*
X92875410Y-65834085D01*
X92859210Y-65820790D01*
X92790479Y-65737042D01*
X92783689Y-65724339D01*
X92735240Y-65633697D01*
X92721626Y-65613322D01*
X92704299Y-65595995D01*
X92683925Y-65582381D01*
X92661286Y-65573004D01*
X92637252Y-65568223D01*
X92612748Y-65568223D01*
X92588715Y-65573003D01*
X92566076Y-65582381D01*
X92545701Y-65595995D01*
X92528374Y-65613322D01*
X92514760Y-65633697D01*
X92459522Y-65737042D01*
X92441788Y-65758650D01*
X92390790Y-65820790D01*
X92322179Y-65877098D01*
X92307038Y-65889524D01*
X92211497Y-65940591D01*
X92201297Y-65943685D01*
X92107818Y-65972042D01*
X92000000Y-65982661D01*
X91999999Y-65982661D01*
X91964060Y-65979121D01*
X91892181Y-65972042D01*
X91798702Y-65943685D01*
X91788502Y-65940591D01*
X91692958Y-65889522D01*
X91625410Y-65834085D01*
X91609210Y-65820790D01*
X91540479Y-65737042D01*
X91533689Y-65724339D01*
X91485240Y-65633697D01*
X91471626Y-65613322D01*
X91454299Y-65595995D01*
X91433925Y-65582381D01*
X91411286Y-65573004D01*
X91387252Y-65568223D01*
X91362748Y-65568223D01*
X91338715Y-65573003D01*
X91316076Y-65582381D01*
X91295701Y-65595995D01*
X91278374Y-65613322D01*
X91264760Y-65633697D01*
X91209522Y-65737042D01*
X91191788Y-65758650D01*
X91140790Y-65820790D01*
X91072179Y-65877098D01*
X91057038Y-65889524D01*
X90961497Y-65940591D01*
X90951297Y-65943685D01*
X90857818Y-65972042D01*
X90750000Y-65982661D01*
X90749999Y-65982661D01*
X90714060Y-65979121D01*
X90642181Y-65972042D01*
X90548702Y-65943685D01*
X90538502Y-65940591D01*
X90442958Y-65889522D01*
X90375410Y-65834085D01*
X90359210Y-65820790D01*
X90290479Y-65737042D01*
X90283689Y-65724339D01*
X90235240Y-65633697D01*
X90221626Y-65613322D01*
X90204299Y-65595995D01*
X90183925Y-65582381D01*
X90161286Y-65573004D01*
X90137252Y-65568223D01*
X90112748Y-65568223D01*
X90088715Y-65573003D01*
X90066076Y-65582381D01*
X90045701Y-65595995D01*
X90028374Y-65613322D01*
X90014760Y-65633697D01*
X89959522Y-65737042D01*
X89941788Y-65758650D01*
X89890790Y-65820790D01*
X89822179Y-65877098D01*
X89807038Y-65889524D01*
X89711497Y-65940591D01*
X89701297Y-65943685D01*
X89607818Y-65972042D01*
X89500000Y-65982661D01*
X89499999Y-65982661D01*
X89464060Y-65979121D01*
X89392181Y-65972042D01*
X89298702Y-65943685D01*
X89288502Y-65940591D01*
X89192958Y-65889522D01*
X89125410Y-65834085D01*
X89109210Y-65820790D01*
X89040479Y-65737042D01*
X89033689Y-65724339D01*
X88985240Y-65633697D01*
X88971626Y-65613322D01*
X88954299Y-65595995D01*
X88933925Y-65582381D01*
X88911286Y-65573004D01*
X88887252Y-65568223D01*
X88862748Y-65568223D01*
X88838715Y-65573003D01*
X88816076Y-65582381D01*
X88795701Y-65595995D01*
X88778374Y-65613322D01*
X88764760Y-65633697D01*
X88709522Y-65737042D01*
X88691788Y-65758650D01*
X88640790Y-65820790D01*
X88572179Y-65877098D01*
X88557038Y-65889524D01*
X88461497Y-65940591D01*
X88451297Y-65943685D01*
X88357818Y-65972042D01*
X88250000Y-65982661D01*
X88249999Y-65982661D01*
X88214060Y-65979121D01*
X88142181Y-65972042D01*
X88048702Y-65943685D01*
X88038502Y-65940591D01*
X87942958Y-65889522D01*
X87875410Y-65834085D01*
X87859210Y-65820790D01*
X87859209Y-65820789D01*
X87854300Y-65816760D01*
X87833926Y-65803146D01*
X87811287Y-65793768D01*
X87787254Y-65788987D01*
X87762749Y-65788987D01*
X87738716Y-65793767D01*
X87716077Y-65803144D01*
X87695702Y-65816758D01*
X87678375Y-65834085D01*
X87664761Y-65854459D01*
X87655383Y-65877098D01*
X87650602Y-65901131D01*
X87650000Y-65913385D01*
X87650000Y-66578383D01*
X87645747Y-66621564D01*
X87634941Y-66657188D01*
X87617399Y-66690007D01*
X87593783Y-66718783D01*
X87565007Y-66742399D01*
X87532188Y-66759941D01*
X87496564Y-66770747D01*
X87453383Y-66775000D01*
X84546617Y-66775000D01*
X84503436Y-66770747D01*
X84467812Y-66759941D01*
X84434993Y-66742399D01*
X84406217Y-66718783D01*
X84382601Y-66690007D01*
X84365059Y-66657188D01*
X84354253Y-66621564D01*
X84350000Y-66578383D01*
X84350000Y-64571617D01*
X84354253Y-64528436D01*
X84365059Y-64492812D01*
X84382601Y-64459993D01*
X84406217Y-64431217D01*
X84434993Y-64407601D01*
X84467812Y-64390059D01*
X84503436Y-64379253D01*
X84546617Y-64375000D01*
X87453383Y-64375000D01*
X87496564Y-64379253D01*
X87496564Y-64379253D01*
G37*
M02*
