G04 #@! TF.FileFunction,Copper,L1,Top,Signal*
%FSLAX46Y46*%
G04 Gerber Fmt 4.6, Leading zero omitted, Abs format (unit mm)*
G04 Created by KiCad (PCBNEW 4.0.1-stable) date 2016 March 10, Thursday 22:45:26*
%MOMM*%
G01*
G04 APERTURE LIST*
%ADD10C,0.100000*%
%ADD11R,0.797560X0.797560*%
%ADD12R,0.800000X0.750000*%
%ADD13R,0.750000X0.800000*%
%ADD14R,0.800000X0.800000*%
%ADD15O,0.800000X0.800000*%
%ADD16R,0.800000X1.600000*%
%ADD17R,2.100000X3.000000*%
%ADD18R,0.500000X0.900000*%
%ADD19R,0.700000X0.250000*%
%ADD20R,0.250000X0.700000*%
%ADD21R,1.725000X1.725000*%
%ADD22C,1.500000*%
%ADD23R,1.500000X1.500000*%
%ADD24C,0.710000*%
%ADD25C,0.610000*%
%ADD26C,0.810000*%
%ADD27C,0.300000*%
%ADD28C,0.200000*%
%ADD29C,0.160000*%
G04 APERTURE END LIST*
D10*
D11*
X98800000Y-47050700D03*
X98800000Y-48549300D03*
D12*
X91250000Y-51250000D03*
X92750000Y-51250000D03*
D13*
X99000000Y-55500000D03*
X99000000Y-54000000D03*
X99000000Y-57050000D03*
X99000000Y-58550000D03*
D14*
X91250000Y-61500000D03*
D15*
X92500000Y-61500000D03*
X93750000Y-61500000D03*
X95000000Y-61500000D03*
X96250000Y-61500000D03*
X97500000Y-61500000D03*
X98750000Y-61500000D03*
D16*
X96875000Y-44999800D03*
X95625000Y-44999800D03*
X94375000Y-44999800D03*
X93125000Y-44999800D03*
D17*
X99425000Y-42099800D03*
X90575000Y-42099800D03*
D18*
X97750000Y-49800000D03*
X96250000Y-49800000D03*
D19*
X96900000Y-57000000D03*
X96900000Y-56500000D03*
X96900000Y-56000000D03*
X96900000Y-55500000D03*
X96900000Y-55000000D03*
X96900000Y-54500000D03*
X96900000Y-54000000D03*
X96900000Y-53500000D03*
D20*
X96250000Y-52850000D03*
X95750000Y-52850000D03*
X95250000Y-52850000D03*
X94750000Y-52850000D03*
X94250000Y-52850000D03*
X93750000Y-52850000D03*
X93250000Y-52850000D03*
X92750000Y-52850000D03*
D19*
X92100000Y-53500000D03*
X92100000Y-54000000D03*
X92100000Y-54500000D03*
X92100000Y-55000000D03*
X92100000Y-55500000D03*
X92100000Y-56000000D03*
X92100000Y-56500000D03*
X92100000Y-57000000D03*
D20*
X92750000Y-57650000D03*
X93250000Y-57650000D03*
X93750000Y-57650000D03*
X94250000Y-57650000D03*
X94750000Y-57650000D03*
X95250000Y-57650000D03*
X95750000Y-57650000D03*
X96250000Y-57650000D03*
D21*
X93637500Y-54387500D03*
X93637500Y-56112500D03*
X95362500Y-54387500D03*
X95362500Y-56112500D03*
D22*
X88750000Y-60500000D03*
X88750000Y-58500000D03*
X88750000Y-56500000D03*
X88750000Y-54500000D03*
X88750000Y-52500000D03*
X88750000Y-50500000D03*
D23*
X88750000Y-46500000D03*
D22*
X88750000Y-48500000D03*
X101250000Y-46500000D03*
X101250000Y-48500000D03*
X101250000Y-50500000D03*
X101250000Y-52500000D03*
X101250000Y-54500000D03*
X101250000Y-56500000D03*
D23*
X101250000Y-60500000D03*
D22*
X101250000Y-58500000D03*
D24*
X91400000Y-52400000D03*
X99200000Y-56300000D03*
X94600000Y-50500000D03*
D25*
X91750000Y-50000000D03*
D24*
X90500000Y-44900000D03*
X99300000Y-45000000D03*
X96100000Y-48900000D03*
D25*
X94400000Y-59000000D03*
D24*
X93600000Y-47000000D03*
X94971045Y-43534852D03*
X90600000Y-48400000D03*
X92600000Y-49600000D03*
D25*
X97183860Y-58202954D03*
X95750000Y-60500000D03*
X98001742Y-55235483D03*
X97909998Y-56000000D03*
X97749348Y-56753057D03*
D26*
X93175859Y-42347713D03*
D25*
X97250000Y-47000000D03*
X91100000Y-57900000D03*
X91900000Y-58300000D03*
X94113360Y-43111454D03*
X95700000Y-46900000D03*
X92970049Y-46475041D03*
X99651616Y-47399363D03*
X99600000Y-50800000D03*
X90163610Y-54206550D03*
X91100000Y-56100000D03*
X93470907Y-49321156D03*
D27*
X99000000Y-57050000D02*
X99000000Y-56500000D01*
X99000000Y-56500000D02*
X99200000Y-56300000D01*
D28*
X96900000Y-57000000D02*
X97125000Y-57000000D01*
X98425000Y-57050000D02*
X99000000Y-57050000D01*
X97125000Y-57000000D02*
X97525000Y-57400000D01*
X97525000Y-57400000D02*
X98075000Y-57400000D01*
X98075000Y-57400000D02*
X98425000Y-57050000D01*
X91400000Y-52400000D02*
X91400000Y-53350000D01*
X91400000Y-53350000D02*
X91550000Y-53500000D01*
X91550000Y-53500000D02*
X92100000Y-53500000D01*
D27*
X91250000Y-51250000D02*
X91250000Y-52250000D01*
X91250000Y-52250000D02*
X91400000Y-52400000D01*
X99000000Y-55500000D02*
X99000000Y-56100000D01*
X99000000Y-56100000D02*
X99200000Y-56300000D01*
X94600000Y-50500000D02*
X94085908Y-49985908D01*
X94085908Y-49985908D02*
X94085908Y-48924211D01*
X94085908Y-48924211D02*
X93811828Y-48650131D01*
X93811828Y-48650131D02*
X92565665Y-48650131D01*
X92565665Y-48650131D02*
X92565665Y-48511575D01*
X92565665Y-48511575D02*
X90554090Y-46500000D01*
X91750000Y-50000000D02*
X91750000Y-49465796D01*
X91750000Y-49465796D02*
X92565665Y-48650131D01*
X91250000Y-51250000D02*
X91250000Y-51350000D01*
X91750000Y-50000000D02*
X91250000Y-50500000D01*
X91250000Y-50500000D02*
X91250000Y-51250000D01*
X90554090Y-46500000D02*
X88750000Y-46500000D01*
D29*
X91275000Y-51250000D02*
X91250000Y-51250000D01*
X97740141Y-54690482D02*
X97430623Y-55000000D01*
X97430623Y-55000000D02*
X96900000Y-55000000D01*
X99000000Y-55500000D02*
X99000000Y-54940000D01*
X99000000Y-54940000D02*
X98750482Y-54690482D01*
X98750482Y-54690482D02*
X97740141Y-54690482D01*
D27*
X101250000Y-58500000D02*
X99050000Y-58500000D01*
X99050000Y-58500000D02*
X99000000Y-58550000D01*
X97183860Y-58202954D02*
X98652954Y-58202954D01*
X98652954Y-58202954D02*
X99000000Y-58550000D01*
X99000000Y-54000000D02*
X99000000Y-54266758D01*
X99000000Y-54266758D02*
X100189999Y-55456757D01*
X100189999Y-55456757D02*
X100189999Y-57439999D01*
X100189999Y-57439999D02*
X100500001Y-57750001D01*
X100500001Y-57750001D02*
X101250000Y-58500000D01*
X96100000Y-48900000D02*
X95390121Y-48190121D01*
X95390121Y-48190121D02*
X93790121Y-48190121D01*
X93790121Y-48190121D02*
X90500000Y-44900000D01*
X96100000Y-48900000D02*
X96602045Y-48900000D01*
X96602045Y-48900000D02*
X97865001Y-47637044D01*
X97865001Y-47637044D02*
X97865001Y-46434999D01*
X97865001Y-46434999D02*
X99300000Y-45000000D01*
X95625000Y-44999800D02*
X95625000Y-45399800D01*
X95625000Y-45399800D02*
X96325000Y-46099800D01*
X96325000Y-46099800D02*
X96325000Y-48172955D01*
X96325000Y-48172955D02*
X96100000Y-48397955D01*
X96100000Y-48397955D02*
X96100000Y-48900000D01*
X96250000Y-49800000D02*
X96250000Y-49050000D01*
X96250000Y-49050000D02*
X96100000Y-48900000D01*
D29*
X94400000Y-59000000D02*
X92500000Y-60900000D01*
X92500000Y-60900000D02*
X92500000Y-61500000D01*
D27*
X95260052Y-43534852D02*
X94971045Y-43534852D01*
X95625000Y-43899800D02*
X95260052Y-43534852D01*
X95625000Y-44999800D02*
X95625000Y-43899800D01*
X88750000Y-48500000D02*
X90500000Y-48500000D01*
X90500000Y-48500000D02*
X90600000Y-48400000D01*
X92750000Y-49750000D02*
X92600000Y-49600000D01*
X92750000Y-51250000D02*
X92750000Y-49750000D01*
X96675000Y-57650000D02*
X97183860Y-58202954D01*
D29*
X96250000Y-57650000D02*
X96630906Y-57650000D01*
X96630906Y-57650000D02*
X97183860Y-58202954D01*
D27*
X96250000Y-57650000D02*
X96500000Y-57650000D01*
X96500000Y-57650000D02*
X96675000Y-57650000D01*
D29*
X95750000Y-57650000D02*
X96500000Y-57650000D01*
X92750000Y-52850000D02*
X92750000Y-51250000D01*
X96900000Y-54500000D02*
X97478061Y-54500000D01*
X97478061Y-54500000D02*
X97607589Y-54370472D01*
X97607589Y-54370472D02*
X98629528Y-54370472D01*
X98629528Y-54370472D02*
X99000000Y-54000000D01*
X93750000Y-61500000D02*
X94750000Y-60500000D01*
X94750000Y-60500000D02*
X95750000Y-60500000D01*
X97648397Y-55454999D02*
X97782226Y-55454999D01*
X97782226Y-55454999D02*
X98001742Y-55235483D01*
X96900000Y-55500000D02*
X97603396Y-55500000D01*
X97603396Y-55500000D02*
X97648397Y-55454999D01*
X96900000Y-56000000D02*
X97909998Y-56000000D01*
X96900000Y-56500000D02*
X97496291Y-56500000D01*
X97496291Y-56500000D02*
X97749348Y-56753057D01*
D27*
X96875000Y-43899800D02*
X95322913Y-42347713D01*
X96875000Y-44999800D02*
X96875000Y-43899800D01*
X95322913Y-42347713D02*
X93748615Y-42347713D01*
X93748615Y-42347713D02*
X93175859Y-42347713D01*
X97250000Y-46474800D02*
X97250000Y-47000000D01*
X96875000Y-44999800D02*
X96875000Y-46099800D01*
X96875000Y-46099800D02*
X97250000Y-46474800D01*
D29*
X92100000Y-56500000D02*
X91590000Y-56500000D01*
X91590000Y-56500000D02*
X91100000Y-56990000D01*
X91100000Y-56990000D02*
X91100000Y-57468665D01*
X91100000Y-57468665D02*
X91100000Y-57900000D01*
X92100000Y-57000000D02*
X92100000Y-58100000D01*
X92100000Y-58100000D02*
X91900000Y-58300000D01*
X94375000Y-44999800D02*
X94375000Y-44039800D01*
X94375000Y-44039800D02*
X94113360Y-43778160D01*
X94113360Y-43778160D02*
X94113360Y-43111454D01*
X92970049Y-46475041D02*
X93275048Y-46170042D01*
X93275048Y-46170042D02*
X94970042Y-46170042D01*
X94970042Y-46170042D02*
X95700000Y-46900000D01*
X93125000Y-44999800D02*
X93125000Y-46320090D01*
X93125000Y-46320090D02*
X92970049Y-46475041D01*
X99358780Y-47050700D02*
X99651616Y-47343536D01*
X98800000Y-47050700D02*
X99358780Y-47050700D01*
X99651616Y-47343536D02*
X99651616Y-47399363D01*
X98400000Y-51800000D02*
X98600000Y-51800000D01*
X98600000Y-51800000D02*
X99600000Y-50800000D01*
X95790000Y-51800000D02*
X98400000Y-51800000D01*
X95250000Y-52340000D02*
X95790000Y-51800000D01*
X95250000Y-52850000D02*
X95250000Y-52340000D01*
X98800000Y-48549300D02*
X98800000Y-49108080D01*
X98800000Y-49108080D02*
X98108080Y-49800000D01*
X98108080Y-49800000D02*
X97750000Y-49800000D01*
X92100000Y-55500000D02*
X91457060Y-55500000D01*
X91457060Y-55500000D02*
X90163610Y-54206550D01*
X91199863Y-56000000D02*
X91199863Y-56000137D01*
X91199863Y-56000137D02*
X91100000Y-56100000D01*
X92100000Y-56000000D02*
X91199863Y-56000000D01*
X93470907Y-49752491D02*
X93470907Y-49321156D01*
X93470907Y-51736095D02*
X93470907Y-49752491D01*
X93250000Y-51957002D02*
X93470907Y-51736095D01*
X93250000Y-52850000D02*
X93250000Y-51957002D01*
X94750000Y-57650000D02*
X94750000Y-58443396D01*
X94750000Y-58443396D02*
X97100001Y-60793397D01*
X97100001Y-60793397D02*
X97100001Y-61100001D01*
X97100001Y-61100001D02*
X97500000Y-61500000D01*
X95250000Y-57650000D02*
X95250000Y-58160000D01*
X95250000Y-58160000D02*
X98590000Y-61500000D01*
X98590000Y-61500000D02*
X98750000Y-61500000D01*
X92510000Y-58900000D02*
X91150000Y-58900000D01*
X91150000Y-58900000D02*
X88750000Y-56500000D01*
X93250000Y-58160000D02*
X92510000Y-58900000D01*
X93250000Y-57650000D02*
X93250000Y-58160000D01*
X93750000Y-57650000D02*
X93750000Y-58160000D01*
X89499999Y-59249999D02*
X88750000Y-58500000D01*
X93750000Y-58160000D02*
X92660001Y-59249999D01*
X92660001Y-59249999D02*
X89499999Y-59249999D01*
X94250000Y-57650000D02*
X94250000Y-58160000D01*
X94250000Y-58160000D02*
X91910000Y-60500000D01*
X89810660Y-60500000D02*
X88750000Y-60500000D01*
X91910000Y-60500000D02*
X89810660Y-60500000D01*
X95750000Y-52850000D02*
X95750000Y-52502563D01*
X96072573Y-52179990D02*
X99570010Y-52179990D01*
X99570010Y-52179990D02*
X100500001Y-51249999D01*
X100500001Y-51249999D02*
X101250000Y-50500000D01*
X95750000Y-52502563D02*
X96072573Y-52179990D01*
X96250000Y-52850000D02*
X96535000Y-52850000D01*
X96535000Y-52850000D02*
X96885000Y-52500000D01*
X96885000Y-52500000D02*
X100189340Y-52500000D01*
X100189340Y-52500000D02*
X101250000Y-52500000D01*
X96900000Y-53500000D02*
X97410000Y-53500000D01*
X97410000Y-53500000D02*
X97870010Y-53039990D01*
X97870010Y-53039990D02*
X99789990Y-53039990D01*
X99789990Y-53039990D02*
X100500001Y-53750001D01*
X100500001Y-53750001D02*
X101250000Y-54500000D01*
X101250000Y-55965202D02*
X101250000Y-56500000D01*
X99567001Y-53359999D02*
X100259999Y-54052997D01*
X98432999Y-53359999D02*
X99567001Y-53359999D01*
X100259999Y-54052997D02*
X100259999Y-54975201D01*
X100259999Y-54975201D02*
X101250000Y-55965202D01*
X96900000Y-54000000D02*
X97792998Y-54000000D01*
X97792998Y-54000000D02*
X98432999Y-53359999D01*
X92100000Y-54500000D02*
X91692998Y-54500000D01*
X91692998Y-54500000D02*
X90442997Y-53249999D01*
X90442997Y-53249999D02*
X89499999Y-53249999D01*
X89499999Y-53249999D02*
X88750000Y-52500000D01*
X88750000Y-54500000D02*
X89588451Y-53661549D01*
X91740436Y-55000000D02*
X92100000Y-55000000D01*
X89588451Y-53661549D02*
X90401985Y-53661549D01*
X90401985Y-53661549D02*
X91740436Y-55000000D01*
X93750000Y-52340000D02*
X93750000Y-52850000D01*
X94930022Y-51159978D02*
X93750000Y-52340000D01*
X97934896Y-51159978D02*
X94930022Y-51159978D01*
X100259523Y-48835351D02*
X97934896Y-51159978D01*
X100259523Y-47490477D02*
X100259523Y-48835351D01*
X101250000Y-46500000D02*
X100259523Y-47490477D01*
X92750000Y-57650000D02*
X92750000Y-57875000D01*
X100500001Y-49249999D02*
X101250000Y-48500000D01*
X98067448Y-51479989D02*
X100297438Y-49249999D01*
X100297438Y-49249999D02*
X100500001Y-49249999D01*
X95110011Y-51479989D02*
X98067448Y-51479989D01*
X94250000Y-52340000D02*
X95110011Y-51479989D01*
X94250000Y-52850000D02*
X94250000Y-52340000D01*
D28*
G36*
X99879999Y-54975196D02*
X99879998Y-54975201D01*
X99899850Y-55074998D01*
X99908925Y-55120621D01*
X99952809Y-55186298D01*
X99991298Y-55243902D01*
X100506235Y-55758838D01*
X100360372Y-55904446D01*
X100200182Y-56290226D01*
X100199818Y-56707942D01*
X100359334Y-57094000D01*
X100564707Y-57299732D01*
X100494140Y-57526351D01*
X101250000Y-58282211D01*
X101264142Y-58268069D01*
X101481931Y-58485858D01*
X101467789Y-58500000D01*
X101481931Y-58514142D01*
X101264142Y-58731931D01*
X101250000Y-58717789D01*
X100523666Y-59444123D01*
X100500000Y-59444123D01*
X100388827Y-59465042D01*
X100286721Y-59530745D01*
X100218222Y-59630997D01*
X100194123Y-59750000D01*
X100194123Y-61250000D01*
X100215042Y-61361173D01*
X100280745Y-61463279D01*
X100380997Y-61531778D01*
X100500000Y-61555877D01*
X101900000Y-61555877D01*
X101900000Y-61900000D01*
X99322149Y-61900000D01*
X99410430Y-61767878D01*
X99463714Y-61500000D01*
X99410430Y-61232122D01*
X99258689Y-61005025D01*
X99031592Y-60853284D01*
X98763714Y-60800000D01*
X98736286Y-60800000D01*
X98478648Y-60851247D01*
X96483402Y-58856000D01*
X98017000Y-58856000D01*
X98017000Y-59070939D01*
X98109563Y-59294405D01*
X98280596Y-59465438D01*
X98504062Y-59558000D01*
X98694000Y-59558000D01*
X98846000Y-59406000D01*
X98846000Y-58704000D01*
X98169000Y-58704000D01*
X98017000Y-58856000D01*
X96483402Y-58856000D01*
X96165265Y-58537863D01*
X96219404Y-58515438D01*
X96312500Y-58422342D01*
X96312500Y-58456000D01*
X96464500Y-58608000D01*
X96495938Y-58608000D01*
X96719404Y-58515438D01*
X96890437Y-58344405D01*
X96983000Y-58120939D01*
X96983000Y-57956000D01*
X96831000Y-57804000D01*
X96125000Y-57804000D01*
X96125000Y-57496000D01*
X96831000Y-57496000D01*
X96896123Y-57430877D01*
X96990191Y-57430877D01*
X97242155Y-57682840D01*
X97242157Y-57682843D01*
X97371927Y-57769552D01*
X97525000Y-57800000D01*
X98075000Y-57800000D01*
X98125129Y-57790029D01*
X98109563Y-57805595D01*
X98017000Y-58029061D01*
X98017000Y-58244000D01*
X98169000Y-58396000D01*
X98846000Y-58396000D01*
X98846000Y-58376000D01*
X99154000Y-58376000D01*
X99154000Y-58396000D01*
X99174000Y-58396000D01*
X99174000Y-58704000D01*
X99154000Y-58704000D01*
X99154000Y-59406000D01*
X99306000Y-59558000D01*
X99495938Y-59558000D01*
X99719404Y-59465438D01*
X99890437Y-59294405D01*
X99983000Y-59070939D01*
X99983000Y-59031484D01*
X100046262Y-59184212D01*
X100276351Y-59255860D01*
X101032211Y-58500000D01*
X100276351Y-57744140D01*
X100046262Y-57815788D01*
X99978817Y-58018961D01*
X99890437Y-57805595D01*
X99719404Y-57634562D01*
X99635679Y-57599882D01*
X99656778Y-57569003D01*
X99680877Y-57450000D01*
X99680877Y-56745464D01*
X99754958Y-56671512D01*
X99854886Y-56430859D01*
X99855113Y-56170284D01*
X99755606Y-55929457D01*
X99680877Y-55854598D01*
X99680877Y-55100000D01*
X99659958Y-54988827D01*
X99635182Y-54950324D01*
X99719404Y-54915438D01*
X99879999Y-54754843D01*
X99879999Y-54975196D01*
X99879999Y-54975196D01*
G37*
X99879999Y-54975196D02*
X99879998Y-54975201D01*
X99899850Y-55074998D01*
X99908925Y-55120621D01*
X99952809Y-55186298D01*
X99991298Y-55243902D01*
X100506235Y-55758838D01*
X100360372Y-55904446D01*
X100200182Y-56290226D01*
X100199818Y-56707942D01*
X100359334Y-57094000D01*
X100564707Y-57299732D01*
X100494140Y-57526351D01*
X101250000Y-58282211D01*
X101264142Y-58268069D01*
X101481931Y-58485858D01*
X101467789Y-58500000D01*
X101481931Y-58514142D01*
X101264142Y-58731931D01*
X101250000Y-58717789D01*
X100523666Y-59444123D01*
X100500000Y-59444123D01*
X100388827Y-59465042D01*
X100286721Y-59530745D01*
X100218222Y-59630997D01*
X100194123Y-59750000D01*
X100194123Y-61250000D01*
X100215042Y-61361173D01*
X100280745Y-61463279D01*
X100380997Y-61531778D01*
X100500000Y-61555877D01*
X101900000Y-61555877D01*
X101900000Y-61900000D01*
X99322149Y-61900000D01*
X99410430Y-61767878D01*
X99463714Y-61500000D01*
X99410430Y-61232122D01*
X99258689Y-61005025D01*
X99031592Y-60853284D01*
X98763714Y-60800000D01*
X98736286Y-60800000D01*
X98478648Y-60851247D01*
X96483402Y-58856000D01*
X98017000Y-58856000D01*
X98017000Y-59070939D01*
X98109563Y-59294405D01*
X98280596Y-59465438D01*
X98504062Y-59558000D01*
X98694000Y-59558000D01*
X98846000Y-59406000D01*
X98846000Y-58704000D01*
X98169000Y-58704000D01*
X98017000Y-58856000D01*
X96483402Y-58856000D01*
X96165265Y-58537863D01*
X96219404Y-58515438D01*
X96312500Y-58422342D01*
X96312500Y-58456000D01*
X96464500Y-58608000D01*
X96495938Y-58608000D01*
X96719404Y-58515438D01*
X96890437Y-58344405D01*
X96983000Y-58120939D01*
X96983000Y-57956000D01*
X96831000Y-57804000D01*
X96125000Y-57804000D01*
X96125000Y-57496000D01*
X96831000Y-57496000D01*
X96896123Y-57430877D01*
X96990191Y-57430877D01*
X97242155Y-57682840D01*
X97242157Y-57682843D01*
X97371927Y-57769552D01*
X97525000Y-57800000D01*
X98075000Y-57800000D01*
X98125129Y-57790029D01*
X98109563Y-57805595D01*
X98017000Y-58029061D01*
X98017000Y-58244000D01*
X98169000Y-58396000D01*
X98846000Y-58396000D01*
X98846000Y-58376000D01*
X99154000Y-58376000D01*
X99154000Y-58396000D01*
X99174000Y-58396000D01*
X99174000Y-58704000D01*
X99154000Y-58704000D01*
X99154000Y-59406000D01*
X99306000Y-59558000D01*
X99495938Y-59558000D01*
X99719404Y-59465438D01*
X99890437Y-59294405D01*
X99983000Y-59070939D01*
X99983000Y-59031484D01*
X100046262Y-59184212D01*
X100276351Y-59255860D01*
X101032211Y-58500000D01*
X100276351Y-57744140D01*
X100046262Y-57815788D01*
X99978817Y-58018961D01*
X99890437Y-57805595D01*
X99719404Y-57634562D01*
X99635679Y-57599882D01*
X99656778Y-57569003D01*
X99680877Y-57450000D01*
X99680877Y-56745464D01*
X99754958Y-56671512D01*
X99854886Y-56430859D01*
X99855113Y-56170284D01*
X99755606Y-55929457D01*
X99680877Y-55854598D01*
X99680877Y-55100000D01*
X99659958Y-54988827D01*
X99635182Y-54950324D01*
X99719404Y-54915438D01*
X99879999Y-54754843D01*
X99879999Y-54975196D01*
G36*
X94398926Y-58588816D02*
X94475889Y-58704000D01*
X94481299Y-58712097D01*
X95664127Y-59894925D01*
X95630186Y-59894895D01*
X95407743Y-59986807D01*
X95274317Y-60120000D01*
X94750005Y-60120000D01*
X94750000Y-60119999D01*
X94604581Y-60148925D01*
X94604579Y-60148926D01*
X94604580Y-60148926D01*
X94481299Y-60231299D01*
X94481297Y-60231302D01*
X93887897Y-60824701D01*
X93763714Y-60800000D01*
X93736286Y-60800000D01*
X93468408Y-60853284D01*
X93325002Y-60949104D01*
X93151812Y-60731079D01*
X92807942Y-60540172D01*
X92654000Y-60655816D01*
X92654000Y-61346000D01*
X92674000Y-61346000D01*
X92674000Y-61654000D01*
X92654000Y-61654000D01*
X92654000Y-61674000D01*
X92346000Y-61674000D01*
X92346000Y-61654000D01*
X92326000Y-61654000D01*
X92326000Y-61346000D01*
X92346000Y-61346000D01*
X92346000Y-60655816D01*
X92314928Y-60632474D01*
X94392233Y-58555168D01*
X94398926Y-58588816D01*
X94398926Y-58588816D01*
G37*
X94398926Y-58588816D02*
X94475889Y-58704000D01*
X94481299Y-58712097D01*
X95664127Y-59894925D01*
X95630186Y-59894895D01*
X95407743Y-59986807D01*
X95274317Y-60120000D01*
X94750005Y-60120000D01*
X94750000Y-60119999D01*
X94604581Y-60148925D01*
X94604579Y-60148926D01*
X94604580Y-60148926D01*
X94481299Y-60231299D01*
X94481297Y-60231302D01*
X93887897Y-60824701D01*
X93763714Y-60800000D01*
X93736286Y-60800000D01*
X93468408Y-60853284D01*
X93325002Y-60949104D01*
X93151812Y-60731079D01*
X92807942Y-60540172D01*
X92654000Y-60655816D01*
X92654000Y-61346000D01*
X92674000Y-61346000D01*
X92674000Y-61654000D01*
X92654000Y-61654000D01*
X92654000Y-61674000D01*
X92346000Y-61674000D01*
X92346000Y-61654000D01*
X92326000Y-61654000D01*
X92326000Y-61346000D01*
X92346000Y-61346000D01*
X92346000Y-60655816D01*
X92314928Y-60632474D01*
X94392233Y-58555168D01*
X94398926Y-58588816D01*
G36*
X97054000Y-54437500D02*
X97074000Y-54437500D01*
X97074000Y-54562500D01*
X97054000Y-54562500D01*
X97054000Y-54569123D01*
X96746000Y-54569123D01*
X96746000Y-54562500D01*
X96726000Y-54562500D01*
X96726000Y-54437500D01*
X96746000Y-54437500D01*
X96746000Y-54430877D01*
X97054000Y-54430877D01*
X97054000Y-54437500D01*
X97054000Y-54437500D01*
G37*
X97054000Y-54437500D02*
X97074000Y-54437500D01*
X97074000Y-54562500D01*
X97054000Y-54562500D01*
X97054000Y-54569123D01*
X96746000Y-54569123D01*
X96746000Y-54562500D01*
X96726000Y-54562500D01*
X96726000Y-54437500D01*
X96746000Y-54437500D01*
X96746000Y-54430877D01*
X97054000Y-54430877D01*
X97054000Y-54437500D01*
G36*
X99154000Y-53846000D02*
X99174000Y-53846000D01*
X99174000Y-54154000D01*
X99154000Y-54154000D01*
X99154000Y-54174000D01*
X98846000Y-54174000D01*
X98846000Y-54154000D01*
X98826000Y-54154000D01*
X98826000Y-53846000D01*
X98846000Y-53846000D01*
X98846000Y-53826000D01*
X99154000Y-53826000D01*
X99154000Y-53846000D01*
X99154000Y-53846000D01*
G37*
X99154000Y-53846000D02*
X99174000Y-53846000D01*
X99174000Y-54154000D01*
X99154000Y-54154000D01*
X99154000Y-54174000D01*
X98846000Y-54174000D01*
X98846000Y-54154000D01*
X98826000Y-54154000D01*
X98826000Y-53846000D01*
X98846000Y-53846000D01*
X98846000Y-53826000D01*
X99154000Y-53826000D01*
X99154000Y-53846000D01*
G36*
X91998547Y-48580853D02*
X91431802Y-49147598D01*
X91334254Y-49293588D01*
X91300000Y-49465796D01*
X91300000Y-49594362D01*
X91237405Y-49656847D01*
X91145105Y-49879130D01*
X91145027Y-49968577D01*
X90931802Y-50181802D01*
X90834254Y-50327792D01*
X90800000Y-50500000D01*
X90800000Y-50578531D01*
X90738827Y-50590042D01*
X90636721Y-50655745D01*
X90568222Y-50755997D01*
X90544123Y-50875000D01*
X90544123Y-51625000D01*
X90565042Y-51736173D01*
X90630745Y-51838279D01*
X90730997Y-51906778D01*
X90800000Y-51920752D01*
X90800000Y-52136961D01*
X90745114Y-52269141D01*
X90744887Y-52529716D01*
X90844394Y-52770543D01*
X91000000Y-52926420D01*
X91000000Y-53269600D01*
X90711698Y-52981298D01*
X90672277Y-52954958D01*
X90588417Y-52898925D01*
X90564289Y-52894126D01*
X90442997Y-52869998D01*
X90442992Y-52869999D01*
X89733287Y-52869999D01*
X89799818Y-52709774D01*
X89800182Y-52292058D01*
X89640666Y-51906000D01*
X89345554Y-51610372D01*
X89079571Y-51499926D01*
X89344000Y-51390666D01*
X89639628Y-51095554D01*
X89799818Y-50709774D01*
X89800182Y-50292058D01*
X89640666Y-49906000D01*
X89435293Y-49700268D01*
X89505860Y-49473649D01*
X88750000Y-48717789D01*
X88735858Y-48731931D01*
X88518069Y-48514142D01*
X88532211Y-48500000D01*
X88967789Y-48500000D01*
X89723649Y-49255860D01*
X89953738Y-49184212D01*
X90123945Y-48671479D01*
X90084982Y-48132640D01*
X89953738Y-47815788D01*
X89723649Y-47744140D01*
X88967789Y-48500000D01*
X88532211Y-48500000D01*
X88518069Y-48485858D01*
X88735858Y-48268069D01*
X88750000Y-48282211D01*
X89476334Y-47555877D01*
X89500000Y-47555877D01*
X89611173Y-47534958D01*
X89713279Y-47469255D01*
X89781778Y-47369003D01*
X89805877Y-47250000D01*
X89805877Y-46950000D01*
X90367694Y-46950000D01*
X91998547Y-48580853D01*
X91998547Y-48580853D01*
G37*
X91998547Y-48580853D02*
X91431802Y-49147598D01*
X91334254Y-49293588D01*
X91300000Y-49465796D01*
X91300000Y-49594362D01*
X91237405Y-49656847D01*
X91145105Y-49879130D01*
X91145027Y-49968577D01*
X90931802Y-50181802D01*
X90834254Y-50327792D01*
X90800000Y-50500000D01*
X90800000Y-50578531D01*
X90738827Y-50590042D01*
X90636721Y-50655745D01*
X90568222Y-50755997D01*
X90544123Y-50875000D01*
X90544123Y-51625000D01*
X90565042Y-51736173D01*
X90630745Y-51838279D01*
X90730997Y-51906778D01*
X90800000Y-51920752D01*
X90800000Y-52136961D01*
X90745114Y-52269141D01*
X90744887Y-52529716D01*
X90844394Y-52770543D01*
X91000000Y-52926420D01*
X91000000Y-53269600D01*
X90711698Y-52981298D01*
X90672277Y-52954958D01*
X90588417Y-52898925D01*
X90564289Y-52894126D01*
X90442997Y-52869998D01*
X90442992Y-52869999D01*
X89733287Y-52869999D01*
X89799818Y-52709774D01*
X89800182Y-52292058D01*
X89640666Y-51906000D01*
X89345554Y-51610372D01*
X89079571Y-51499926D01*
X89344000Y-51390666D01*
X89639628Y-51095554D01*
X89799818Y-50709774D01*
X89800182Y-50292058D01*
X89640666Y-49906000D01*
X89435293Y-49700268D01*
X89505860Y-49473649D01*
X88750000Y-48717789D01*
X88735858Y-48731931D01*
X88518069Y-48514142D01*
X88532211Y-48500000D01*
X88967789Y-48500000D01*
X89723649Y-49255860D01*
X89953738Y-49184212D01*
X90123945Y-48671479D01*
X90084982Y-48132640D01*
X89953738Y-47815788D01*
X89723649Y-47744140D01*
X88967789Y-48500000D01*
X88532211Y-48500000D01*
X88518069Y-48485858D01*
X88735858Y-48268069D01*
X88750000Y-48282211D01*
X89476334Y-47555877D01*
X89500000Y-47555877D01*
X89611173Y-47534958D01*
X89713279Y-47469255D01*
X89781778Y-47369003D01*
X89805877Y-47250000D01*
X89805877Y-46950000D01*
X90367694Y-46950000D01*
X91998547Y-48580853D01*
G36*
X92866012Y-49200286D02*
X92865802Y-49440970D01*
X92957714Y-49663413D01*
X93090907Y-49796839D01*
X93090907Y-50267000D01*
X93056000Y-50267000D01*
X92904000Y-50419000D01*
X92904000Y-51096000D01*
X92924000Y-51096000D01*
X92924000Y-51404000D01*
X92904000Y-51404000D01*
X92904000Y-51803988D01*
X92898926Y-51811582D01*
X92898926Y-51811583D01*
X92869999Y-51957002D01*
X92870000Y-51957007D01*
X92870000Y-51986500D01*
X92812500Y-52044000D01*
X92812500Y-52696000D01*
X92819123Y-52696000D01*
X92819123Y-53004000D01*
X92812500Y-53004000D01*
X92812500Y-53024000D01*
X92687500Y-53024000D01*
X92687500Y-53004000D01*
X92169000Y-53004000D01*
X92103877Y-53069123D01*
X91800000Y-53069123D01*
X91800000Y-52926200D01*
X91954958Y-52771512D01*
X92039914Y-52566914D01*
X92169000Y-52696000D01*
X92687500Y-52696000D01*
X92687500Y-52044000D01*
X92596000Y-51952500D01*
X92596000Y-51404000D01*
X92576000Y-51404000D01*
X92576000Y-51096000D01*
X92596000Y-51096000D01*
X92596000Y-50419000D01*
X92444000Y-50267000D01*
X92294217Y-50267000D01*
X92354895Y-50120870D01*
X92355105Y-49880186D01*
X92263193Y-49657743D01*
X92228851Y-49623341D01*
X92752061Y-49100131D01*
X92907600Y-49100131D01*
X92866012Y-49200286D01*
X92866012Y-49200286D01*
G37*
X92866012Y-49200286D02*
X92865802Y-49440970D01*
X92957714Y-49663413D01*
X93090907Y-49796839D01*
X93090907Y-50267000D01*
X93056000Y-50267000D01*
X92904000Y-50419000D01*
X92904000Y-51096000D01*
X92924000Y-51096000D01*
X92924000Y-51404000D01*
X92904000Y-51404000D01*
X92904000Y-51803988D01*
X92898926Y-51811582D01*
X92898926Y-51811583D01*
X92869999Y-51957002D01*
X92870000Y-51957007D01*
X92870000Y-51986500D01*
X92812500Y-52044000D01*
X92812500Y-52696000D01*
X92819123Y-52696000D01*
X92819123Y-53004000D01*
X92812500Y-53004000D01*
X92812500Y-53024000D01*
X92687500Y-53024000D01*
X92687500Y-53004000D01*
X92169000Y-53004000D01*
X92103877Y-53069123D01*
X91800000Y-53069123D01*
X91800000Y-52926200D01*
X91954958Y-52771512D01*
X92039914Y-52566914D01*
X92169000Y-52696000D01*
X92687500Y-52696000D01*
X92687500Y-52044000D01*
X92596000Y-51952500D01*
X92596000Y-51404000D01*
X92576000Y-51404000D01*
X92576000Y-51096000D01*
X92596000Y-51096000D01*
X92596000Y-50419000D01*
X92444000Y-50267000D01*
X92294217Y-50267000D01*
X92354895Y-50120870D01*
X92355105Y-49880186D01*
X92263193Y-49657743D01*
X92228851Y-49623341D01*
X92752061Y-49100131D01*
X92907600Y-49100131D01*
X92866012Y-49200286D01*
G36*
X89219123Y-43599800D02*
X89240042Y-43710973D01*
X89305745Y-43813079D01*
X89405997Y-43881578D01*
X89525000Y-43905677D01*
X91625000Y-43905677D01*
X91736173Y-43884758D01*
X91838279Y-43819055D01*
X91906778Y-43718803D01*
X91930877Y-43599800D01*
X91930877Y-40600000D01*
X98069123Y-40600000D01*
X98069123Y-43599800D01*
X98090042Y-43710973D01*
X98155745Y-43813079D01*
X98255997Y-43881578D01*
X98375000Y-43905677D01*
X100475000Y-43905677D01*
X100586173Y-43884758D01*
X100688279Y-43819055D01*
X100756778Y-43718803D01*
X100780877Y-43599800D01*
X100780877Y-40600000D01*
X101900000Y-40600000D01*
X101900000Y-45664913D01*
X101845554Y-45610372D01*
X101459774Y-45450182D01*
X101042058Y-45449818D01*
X100656000Y-45609334D01*
X100360372Y-45904446D01*
X100200182Y-46290226D01*
X100199818Y-46707942D01*
X100288947Y-46923651D01*
X100160155Y-47052443D01*
X99994769Y-46886768D01*
X99772486Y-46794468D01*
X99639834Y-46794352D01*
X99627481Y-46781999D01*
X99607579Y-46768701D01*
X99504657Y-46699931D01*
X99504657Y-46651920D01*
X99483738Y-46540747D01*
X99418035Y-46438641D01*
X99317783Y-46370142D01*
X99198780Y-46346043D01*
X98401220Y-46346043D01*
X98290047Y-46366962D01*
X98187941Y-46432665D01*
X98119442Y-46532917D01*
X98095343Y-46651920D01*
X98095343Y-47449480D01*
X98116262Y-47560653D01*
X98181965Y-47662759D01*
X98282217Y-47731258D01*
X98401220Y-47755357D01*
X99152136Y-47755357D01*
X99252031Y-47855427D01*
X99198780Y-47844643D01*
X98401220Y-47844643D01*
X98290047Y-47865562D01*
X98187941Y-47931265D01*
X98119442Y-48031517D01*
X98095343Y-48150520D01*
X98095343Y-48948080D01*
X98116262Y-49059253D01*
X98124411Y-49071917D01*
X98119003Y-49068222D01*
X98000000Y-49044123D01*
X97500000Y-49044123D01*
X97388827Y-49065042D01*
X97286721Y-49130745D01*
X97218222Y-49230997D01*
X97194123Y-49350000D01*
X97194123Y-50250000D01*
X97215042Y-50361173D01*
X97280745Y-50463279D01*
X97380997Y-50531778D01*
X97500000Y-50555877D01*
X98000000Y-50555877D01*
X98001965Y-50555507D01*
X97777494Y-50779978D01*
X96809300Y-50779978D01*
X96844405Y-50765437D01*
X97015438Y-50594404D01*
X97108000Y-50370938D01*
X97108000Y-50106000D01*
X96956000Y-49954000D01*
X96375000Y-49954000D01*
X96375000Y-49974000D01*
X96125000Y-49974000D01*
X96125000Y-49954000D01*
X95544000Y-49954000D01*
X95392000Y-50106000D01*
X95392000Y-50370938D01*
X95484562Y-50594404D01*
X95655595Y-50765437D01*
X95690700Y-50779978D01*
X95192966Y-50779978D01*
X95254886Y-50630859D01*
X95255113Y-50370284D01*
X95155606Y-50129457D01*
X94971512Y-49945042D01*
X94730859Y-49845114D01*
X94581380Y-49844984D01*
X94535908Y-49799512D01*
X94535908Y-49229062D01*
X95392000Y-49229062D01*
X95392000Y-49494000D01*
X95544000Y-49646000D01*
X96125000Y-49646000D01*
X96125000Y-48894000D01*
X96375000Y-48894000D01*
X96375000Y-49646000D01*
X96956000Y-49646000D01*
X97108000Y-49494000D01*
X97108000Y-49229062D01*
X97015438Y-49005596D01*
X96844405Y-48834563D01*
X96620939Y-48742000D01*
X96527000Y-48742000D01*
X96375000Y-48894000D01*
X96125000Y-48894000D01*
X95973000Y-48742000D01*
X95879061Y-48742000D01*
X95655595Y-48834563D01*
X95484562Y-49005596D01*
X95392000Y-49229062D01*
X94535908Y-49229062D01*
X94535908Y-48924211D01*
X94525125Y-48869999D01*
X94501655Y-48752004D01*
X94404106Y-48606013D01*
X94130026Y-48331933D01*
X94055612Y-48282211D01*
X93984036Y-48234385D01*
X93811828Y-48200131D01*
X92888376Y-48200131D01*
X92883863Y-48193377D01*
X91285341Y-46594855D01*
X92364944Y-46594855D01*
X92456856Y-46817298D01*
X92626896Y-46987636D01*
X92849179Y-47079936D01*
X93089863Y-47080146D01*
X93312306Y-46988234D01*
X93482644Y-46818194D01*
X93574944Y-46595911D01*
X93574984Y-46550042D01*
X94812640Y-46550042D01*
X95095058Y-46832460D01*
X95094895Y-47019814D01*
X95186807Y-47242257D01*
X95356847Y-47412595D01*
X95579130Y-47504895D01*
X95819814Y-47505105D01*
X96042257Y-47413193D01*
X96212595Y-47243153D01*
X96304895Y-47020870D01*
X96305105Y-46780186D01*
X96213193Y-46557743D01*
X96063512Y-46407800D01*
X96145939Y-46407800D01*
X96369405Y-46315237D01*
X96451519Y-46233123D01*
X96459254Y-46272008D01*
X96535961Y-46386807D01*
X96556802Y-46417998D01*
X96766553Y-46627749D01*
X96737405Y-46656847D01*
X96645105Y-46879130D01*
X96644895Y-47119814D01*
X96736807Y-47342257D01*
X96906847Y-47512595D01*
X97129130Y-47604895D01*
X97369814Y-47605105D01*
X97592257Y-47513193D01*
X97762595Y-47343153D01*
X97854895Y-47120870D01*
X97855105Y-46880186D01*
X97763193Y-46657743D01*
X97700000Y-46594439D01*
X97700000Y-46474800D01*
X97665746Y-46302592D01*
X97568198Y-46156602D01*
X97453214Y-46041618D01*
X97488279Y-46019055D01*
X97556778Y-45918803D01*
X97580877Y-45799800D01*
X97580877Y-44199800D01*
X97559958Y-44088627D01*
X97494255Y-43986521D01*
X97394003Y-43918022D01*
X97325000Y-43904048D01*
X97325000Y-43899800D01*
X97290746Y-43727592D01*
X97193198Y-43581602D01*
X95641111Y-42029515D01*
X95495121Y-41931967D01*
X95322913Y-41897713D01*
X93722796Y-41897713D01*
X93575731Y-41750391D01*
X93316707Y-41642835D01*
X93036241Y-41642591D01*
X92777030Y-41749694D01*
X92578537Y-41947841D01*
X92470981Y-42206865D01*
X92470737Y-42487331D01*
X92577840Y-42746542D01*
X92775987Y-42945035D01*
X93035011Y-43052591D01*
X93315477Y-43052835D01*
X93517231Y-42969472D01*
X93508465Y-42990584D01*
X93508255Y-43231268D01*
X93600167Y-43453711D01*
X93733360Y-43587137D01*
X93733360Y-43778155D01*
X93733359Y-43778160D01*
X93748723Y-43855396D01*
X93762286Y-43923580D01*
X93788734Y-43963163D01*
X93761721Y-43980545D01*
X93750746Y-43996608D01*
X93744255Y-43986521D01*
X93644003Y-43918022D01*
X93525000Y-43893923D01*
X92725000Y-43893923D01*
X92613827Y-43914842D01*
X92511721Y-43980545D01*
X92443222Y-44080797D01*
X92419123Y-44199800D01*
X92419123Y-45799800D01*
X92440042Y-45910973D01*
X92505745Y-46013079D01*
X92547732Y-46041768D01*
X92457454Y-46131888D01*
X92365154Y-46354171D01*
X92364944Y-46594855D01*
X91285341Y-46594855D01*
X90872288Y-46181802D01*
X90816019Y-46144204D01*
X90726298Y-46084254D01*
X90554090Y-46050000D01*
X89805877Y-46050000D01*
X89805877Y-45750000D01*
X89784958Y-45638827D01*
X89719255Y-45536721D01*
X89619003Y-45468222D01*
X89500000Y-45444123D01*
X88100000Y-45444123D01*
X88100000Y-40600000D01*
X89219123Y-40600000D01*
X89219123Y-43599800D01*
X89219123Y-43599800D01*
G37*
X89219123Y-43599800D02*
X89240042Y-43710973D01*
X89305745Y-43813079D01*
X89405997Y-43881578D01*
X89525000Y-43905677D01*
X91625000Y-43905677D01*
X91736173Y-43884758D01*
X91838279Y-43819055D01*
X91906778Y-43718803D01*
X91930877Y-43599800D01*
X91930877Y-40600000D01*
X98069123Y-40600000D01*
X98069123Y-43599800D01*
X98090042Y-43710973D01*
X98155745Y-43813079D01*
X98255997Y-43881578D01*
X98375000Y-43905677D01*
X100475000Y-43905677D01*
X100586173Y-43884758D01*
X100688279Y-43819055D01*
X100756778Y-43718803D01*
X100780877Y-43599800D01*
X100780877Y-40600000D01*
X101900000Y-40600000D01*
X101900000Y-45664913D01*
X101845554Y-45610372D01*
X101459774Y-45450182D01*
X101042058Y-45449818D01*
X100656000Y-45609334D01*
X100360372Y-45904446D01*
X100200182Y-46290226D01*
X100199818Y-46707942D01*
X100288947Y-46923651D01*
X100160155Y-47052443D01*
X99994769Y-46886768D01*
X99772486Y-46794468D01*
X99639834Y-46794352D01*
X99627481Y-46781999D01*
X99607579Y-46768701D01*
X99504657Y-46699931D01*
X99504657Y-46651920D01*
X99483738Y-46540747D01*
X99418035Y-46438641D01*
X99317783Y-46370142D01*
X99198780Y-46346043D01*
X98401220Y-46346043D01*
X98290047Y-46366962D01*
X98187941Y-46432665D01*
X98119442Y-46532917D01*
X98095343Y-46651920D01*
X98095343Y-47449480D01*
X98116262Y-47560653D01*
X98181965Y-47662759D01*
X98282217Y-47731258D01*
X98401220Y-47755357D01*
X99152136Y-47755357D01*
X99252031Y-47855427D01*
X99198780Y-47844643D01*
X98401220Y-47844643D01*
X98290047Y-47865562D01*
X98187941Y-47931265D01*
X98119442Y-48031517D01*
X98095343Y-48150520D01*
X98095343Y-48948080D01*
X98116262Y-49059253D01*
X98124411Y-49071917D01*
X98119003Y-49068222D01*
X98000000Y-49044123D01*
X97500000Y-49044123D01*
X97388827Y-49065042D01*
X97286721Y-49130745D01*
X97218222Y-49230997D01*
X97194123Y-49350000D01*
X97194123Y-50250000D01*
X97215042Y-50361173D01*
X97280745Y-50463279D01*
X97380997Y-50531778D01*
X97500000Y-50555877D01*
X98000000Y-50555877D01*
X98001965Y-50555507D01*
X97777494Y-50779978D01*
X96809300Y-50779978D01*
X96844405Y-50765437D01*
X97015438Y-50594404D01*
X97108000Y-50370938D01*
X97108000Y-50106000D01*
X96956000Y-49954000D01*
X96375000Y-49954000D01*
X96375000Y-49974000D01*
X96125000Y-49974000D01*
X96125000Y-49954000D01*
X95544000Y-49954000D01*
X95392000Y-50106000D01*
X95392000Y-50370938D01*
X95484562Y-50594404D01*
X95655595Y-50765437D01*
X95690700Y-50779978D01*
X95192966Y-50779978D01*
X95254886Y-50630859D01*
X95255113Y-50370284D01*
X95155606Y-50129457D01*
X94971512Y-49945042D01*
X94730859Y-49845114D01*
X94581380Y-49844984D01*
X94535908Y-49799512D01*
X94535908Y-49229062D01*
X95392000Y-49229062D01*
X95392000Y-49494000D01*
X95544000Y-49646000D01*
X96125000Y-49646000D01*
X96125000Y-48894000D01*
X96375000Y-48894000D01*
X96375000Y-49646000D01*
X96956000Y-49646000D01*
X97108000Y-49494000D01*
X97108000Y-49229062D01*
X97015438Y-49005596D01*
X96844405Y-48834563D01*
X96620939Y-48742000D01*
X96527000Y-48742000D01*
X96375000Y-48894000D01*
X96125000Y-48894000D01*
X95973000Y-48742000D01*
X95879061Y-48742000D01*
X95655595Y-48834563D01*
X95484562Y-49005596D01*
X95392000Y-49229062D01*
X94535908Y-49229062D01*
X94535908Y-48924211D01*
X94525125Y-48869999D01*
X94501655Y-48752004D01*
X94404106Y-48606013D01*
X94130026Y-48331933D01*
X94055612Y-48282211D01*
X93984036Y-48234385D01*
X93811828Y-48200131D01*
X92888376Y-48200131D01*
X92883863Y-48193377D01*
X91285341Y-46594855D01*
X92364944Y-46594855D01*
X92456856Y-46817298D01*
X92626896Y-46987636D01*
X92849179Y-47079936D01*
X93089863Y-47080146D01*
X93312306Y-46988234D01*
X93482644Y-46818194D01*
X93574944Y-46595911D01*
X93574984Y-46550042D01*
X94812640Y-46550042D01*
X95095058Y-46832460D01*
X95094895Y-47019814D01*
X95186807Y-47242257D01*
X95356847Y-47412595D01*
X95579130Y-47504895D01*
X95819814Y-47505105D01*
X96042257Y-47413193D01*
X96212595Y-47243153D01*
X96304895Y-47020870D01*
X96305105Y-46780186D01*
X96213193Y-46557743D01*
X96063512Y-46407800D01*
X96145939Y-46407800D01*
X96369405Y-46315237D01*
X96451519Y-46233123D01*
X96459254Y-46272008D01*
X96535961Y-46386807D01*
X96556802Y-46417998D01*
X96766553Y-46627749D01*
X96737405Y-46656847D01*
X96645105Y-46879130D01*
X96644895Y-47119814D01*
X96736807Y-47342257D01*
X96906847Y-47512595D01*
X97129130Y-47604895D01*
X97369814Y-47605105D01*
X97592257Y-47513193D01*
X97762595Y-47343153D01*
X97854895Y-47120870D01*
X97855105Y-46880186D01*
X97763193Y-46657743D01*
X97700000Y-46594439D01*
X97700000Y-46474800D01*
X97665746Y-46302592D01*
X97568198Y-46156602D01*
X97453214Y-46041618D01*
X97488279Y-46019055D01*
X97556778Y-45918803D01*
X97580877Y-45799800D01*
X97580877Y-44199800D01*
X97559958Y-44088627D01*
X97494255Y-43986521D01*
X97394003Y-43918022D01*
X97325000Y-43904048D01*
X97325000Y-43899800D01*
X97290746Y-43727592D01*
X97193198Y-43581602D01*
X95641111Y-42029515D01*
X95495121Y-41931967D01*
X95322913Y-41897713D01*
X93722796Y-41897713D01*
X93575731Y-41750391D01*
X93316707Y-41642835D01*
X93036241Y-41642591D01*
X92777030Y-41749694D01*
X92578537Y-41947841D01*
X92470981Y-42206865D01*
X92470737Y-42487331D01*
X92577840Y-42746542D01*
X92775987Y-42945035D01*
X93035011Y-43052591D01*
X93315477Y-43052835D01*
X93517231Y-42969472D01*
X93508465Y-42990584D01*
X93508255Y-43231268D01*
X93600167Y-43453711D01*
X93733360Y-43587137D01*
X93733360Y-43778155D01*
X93733359Y-43778160D01*
X93748723Y-43855396D01*
X93762286Y-43923580D01*
X93788734Y-43963163D01*
X93761721Y-43980545D01*
X93750746Y-43996608D01*
X93744255Y-43986521D01*
X93644003Y-43918022D01*
X93525000Y-43893923D01*
X92725000Y-43893923D01*
X92613827Y-43914842D01*
X92511721Y-43980545D01*
X92443222Y-44080797D01*
X92419123Y-44199800D01*
X92419123Y-45799800D01*
X92440042Y-45910973D01*
X92505745Y-46013079D01*
X92547732Y-46041768D01*
X92457454Y-46131888D01*
X92365154Y-46354171D01*
X92364944Y-46594855D01*
X91285341Y-46594855D01*
X90872288Y-46181802D01*
X90816019Y-46144204D01*
X90726298Y-46084254D01*
X90554090Y-46050000D01*
X89805877Y-46050000D01*
X89805877Y-45750000D01*
X89784958Y-45638827D01*
X89719255Y-45536721D01*
X89619003Y-45468222D01*
X89500000Y-45444123D01*
X88100000Y-45444123D01*
X88100000Y-40600000D01*
X89219123Y-40600000D01*
X89219123Y-43599800D01*
G36*
X95930802Y-43591998D02*
X95779000Y-43743800D01*
X95779000Y-44845800D01*
X95799000Y-44845800D01*
X95799000Y-45153800D01*
X95779000Y-45153800D01*
X95779000Y-45173800D01*
X95471000Y-45173800D01*
X95471000Y-45153800D01*
X95451000Y-45153800D01*
X95451000Y-44845800D01*
X95471000Y-44845800D01*
X95471000Y-43743800D01*
X95319000Y-43591800D01*
X95104061Y-43591800D01*
X94880595Y-43684363D01*
X94709562Y-43855396D01*
X94705913Y-43864206D01*
X94643701Y-43771099D01*
X94643698Y-43771097D01*
X94493360Y-43620758D01*
X94493360Y-43586970D01*
X94625955Y-43454607D01*
X94718255Y-43232324D01*
X94718465Y-42991640D01*
X94638336Y-42797713D01*
X95136517Y-42797713D01*
X95930802Y-43591998D01*
X95930802Y-43591998D01*
G37*
X95930802Y-43591998D02*
X95779000Y-43743800D01*
X95779000Y-44845800D01*
X95799000Y-44845800D01*
X95799000Y-45153800D01*
X95779000Y-45153800D01*
X95779000Y-45173800D01*
X95471000Y-45173800D01*
X95471000Y-45153800D01*
X95451000Y-45153800D01*
X95451000Y-44845800D01*
X95471000Y-44845800D01*
X95471000Y-43743800D01*
X95319000Y-43591800D01*
X95104061Y-43591800D01*
X94880595Y-43684363D01*
X94709562Y-43855396D01*
X94705913Y-43864206D01*
X94643701Y-43771099D01*
X94643698Y-43771097D01*
X94493360Y-43620758D01*
X94493360Y-43586970D01*
X94625955Y-43454607D01*
X94718255Y-43232324D01*
X94718465Y-42991640D01*
X94638336Y-42797713D01*
X95136517Y-42797713D01*
X95930802Y-43591998D01*
M02*
