M48
;DRILL file {KiCad (5.0.1-3-g963ef8bb5)} date 2018 October 28, Sunday 18:09:53
;FORMAT={3:3/ absolute / metric / suppress leading zeros}
FMAT,2
METRIC,TZ
T1C0.300
T2C0.500
%
G90
G05
M71
T1
X84974Y-67274
X85400Y-68700
X85580Y-71930
X85690Y-76240
X86910Y-68790
X87570Y-76100
X88860Y-80580
X88900Y-82600
X89857Y-70443
X91200Y-73600
X91365Y-76709
X92134Y-76744
X92400Y-68600
X93747Y-69839
X93900Y-80600
X93900Y-82600
X94435Y-74940
X94500Y-66600
X95152Y-74660
X96698Y-76250
X96700Y-69000
X96943Y-71942
X98200Y-71400
X98300Y-67900
X98500Y-76000
X98500Y-79800
T2
X88250Y-65180
X89500Y-65180
X90750Y-65180
X92000Y-65180
X93250Y-65180
X94500Y-65180
X95750Y-65180
T0
M30
