G04 #@! TF.GenerationSoftware,KiCad,Pcbnew,(5.0.1-3-g963ef8bb5)*
G04 #@! TF.CreationDate,2018-10-28T18:09:26+01:00*
G04 #@! TF.ProjectId,can-io-board,63616E2D696F2D626F6172642E6B6963,rev?*
G04 #@! TF.SameCoordinates,Original*
G04 #@! TF.FileFunction,Copper,L1,Top,Signal*
G04 #@! TF.FilePolarity,Positive*
%FSLAX46Y46*%
G04 Gerber Fmt 4.6, Leading zero omitted, Abs format (unit mm)*
G04 Created by KiCad (PCBNEW (5.0.1-3-g963ef8bb5)) date 2018 October 28, Sunday 18:09:26*
%MOMM*%
%LPD*%
G01*
G04 APERTURE LIST*
G04 #@! TA.AperFunction,Conductor*
%ADD10C,0.100000*%
G04 #@! TD*
G04 #@! TA.AperFunction,SMDPad,CuDef*
%ADD11C,0.800000*%
G04 #@! TD*
G04 #@! TA.AperFunction,SMDPad,CuDef*
%ADD12C,2.100000*%
G04 #@! TD*
G04 #@! TA.AperFunction,SMDPad,CuDef*
%ADD13R,0.700000X0.250000*%
G04 #@! TD*
G04 #@! TA.AperFunction,SMDPad,CuDef*
%ADD14R,0.250000X0.700000*%
G04 #@! TD*
G04 #@! TA.AperFunction,SMDPad,CuDef*
%ADD15R,1.725000X1.725000*%
G04 #@! TD*
G04 #@! TA.AperFunction,SMDPad,CuDef*
%ADD16R,0.800000X1.200000*%
G04 #@! TD*
G04 #@! TA.AperFunction,SMDPad,CuDef*
%ADD17R,1.000000X0.450000*%
G04 #@! TD*
G04 #@! TA.AperFunction,SMDPad,CuDef*
%ADD18C,0.875000*%
G04 #@! TD*
G04 #@! TA.AperFunction,SMDPad,CuDef*
%ADD19C,0.590000*%
G04 #@! TD*
G04 #@! TA.AperFunction,SMDPad,CuDef*
%ADD20R,1.150000X1.400000*%
G04 #@! TD*
G04 #@! TA.AperFunction,ComponentPad*
%ADD21C,0.800000*%
G04 #@! TD*
G04 #@! TA.AperFunction,ComponentPad*
%ADD22O,0.800000X1.300000*%
G04 #@! TD*
G04 #@! TA.AperFunction,SMDPad,CuDef*
%ADD23R,1.000000X1.000000*%
G04 #@! TD*
G04 #@! TA.AperFunction,ViaPad*
%ADD24C,0.610000*%
G04 #@! TD*
G04 #@! TA.AperFunction,Conductor*
%ADD25C,0.300000*%
G04 #@! TD*
G04 #@! TA.AperFunction,Conductor*
%ADD26C,0.200000*%
G04 #@! TD*
G04 #@! TA.AperFunction,Conductor*
%ADD27C,0.160000*%
G04 #@! TD*
G04 #@! TA.AperFunction,Conductor*
%ADD28C,0.170000*%
G04 #@! TD*
G04 APERTURE END LIST*
D10*
G04 #@! TO.N,/IO0_PA0*
G04 #@! TO.C,J2*
G36*
X87844603Y-78400963D02*
X87864018Y-78403843D01*
X87883057Y-78408612D01*
X87901537Y-78415224D01*
X87919279Y-78423616D01*
X87936114Y-78433706D01*
X87951879Y-78445398D01*
X87966421Y-78458579D01*
X87979602Y-78473121D01*
X87991294Y-78488886D01*
X88001384Y-78505721D01*
X88009776Y-78523463D01*
X88016388Y-78541943D01*
X88021157Y-78560982D01*
X88024037Y-78580397D01*
X88025000Y-78600000D01*
X88025000Y-79800000D01*
X88024037Y-79819603D01*
X88021157Y-79839018D01*
X88016388Y-79858057D01*
X88009776Y-79876537D01*
X88001384Y-79894279D01*
X87991294Y-79911114D01*
X87979602Y-79926879D01*
X87966421Y-79941421D01*
X87951879Y-79954602D01*
X87936114Y-79966294D01*
X87919279Y-79976384D01*
X87901537Y-79984776D01*
X87883057Y-79991388D01*
X87864018Y-79996157D01*
X87844603Y-79999037D01*
X87825000Y-80000000D01*
X87425000Y-80000000D01*
X87405397Y-79999037D01*
X87385982Y-79996157D01*
X87366943Y-79991388D01*
X87348463Y-79984776D01*
X87330721Y-79976384D01*
X87313886Y-79966294D01*
X87298121Y-79954602D01*
X87283579Y-79941421D01*
X87270398Y-79926879D01*
X87258706Y-79911114D01*
X87248616Y-79894279D01*
X87240224Y-79876537D01*
X87233612Y-79858057D01*
X87228843Y-79839018D01*
X87225963Y-79819603D01*
X87225000Y-79800000D01*
X87225000Y-78600000D01*
X87225963Y-78580397D01*
X87228843Y-78560982D01*
X87233612Y-78541943D01*
X87240224Y-78523463D01*
X87248616Y-78505721D01*
X87258706Y-78488886D01*
X87270398Y-78473121D01*
X87283579Y-78458579D01*
X87298121Y-78445398D01*
X87313886Y-78433706D01*
X87330721Y-78423616D01*
X87348463Y-78415224D01*
X87366943Y-78408612D01*
X87385982Y-78403843D01*
X87405397Y-78400963D01*
X87425000Y-78400000D01*
X87825000Y-78400000D01*
X87844603Y-78400963D01*
X87844603Y-78400963D01*
G37*
D11*
G04 #@! TD*
G04 #@! TO.P,J2,1*
G04 #@! TO.N,/IO0_PA0*
X87625000Y-79200000D03*
D10*
G04 #@! TO.N,GND*
G04 #@! TO.C,J2*
G36*
X89094603Y-78400963D02*
X89114018Y-78403843D01*
X89133057Y-78408612D01*
X89151537Y-78415224D01*
X89169279Y-78423616D01*
X89186114Y-78433706D01*
X89201879Y-78445398D01*
X89216421Y-78458579D01*
X89229602Y-78473121D01*
X89241294Y-78488886D01*
X89251384Y-78505721D01*
X89259776Y-78523463D01*
X89266388Y-78541943D01*
X89271157Y-78560982D01*
X89274037Y-78580397D01*
X89275000Y-78600000D01*
X89275000Y-79800000D01*
X89274037Y-79819603D01*
X89271157Y-79839018D01*
X89266388Y-79858057D01*
X89259776Y-79876537D01*
X89251384Y-79894279D01*
X89241294Y-79911114D01*
X89229602Y-79926879D01*
X89216421Y-79941421D01*
X89201879Y-79954602D01*
X89186114Y-79966294D01*
X89169279Y-79976384D01*
X89151537Y-79984776D01*
X89133057Y-79991388D01*
X89114018Y-79996157D01*
X89094603Y-79999037D01*
X89075000Y-80000000D01*
X88675000Y-80000000D01*
X88655397Y-79999037D01*
X88635982Y-79996157D01*
X88616943Y-79991388D01*
X88598463Y-79984776D01*
X88580721Y-79976384D01*
X88563886Y-79966294D01*
X88548121Y-79954602D01*
X88533579Y-79941421D01*
X88520398Y-79926879D01*
X88508706Y-79911114D01*
X88498616Y-79894279D01*
X88490224Y-79876537D01*
X88483612Y-79858057D01*
X88478843Y-79839018D01*
X88475963Y-79819603D01*
X88475000Y-79800000D01*
X88475000Y-78600000D01*
X88475963Y-78580397D01*
X88478843Y-78560982D01*
X88483612Y-78541943D01*
X88490224Y-78523463D01*
X88498616Y-78505721D01*
X88508706Y-78488886D01*
X88520398Y-78473121D01*
X88533579Y-78458579D01*
X88548121Y-78445398D01*
X88563886Y-78433706D01*
X88580721Y-78423616D01*
X88598463Y-78415224D01*
X88616943Y-78408612D01*
X88635982Y-78403843D01*
X88655397Y-78400963D01*
X88675000Y-78400000D01*
X89075000Y-78400000D01*
X89094603Y-78400963D01*
X89094603Y-78400963D01*
G37*
D11*
G04 #@! TD*
G04 #@! TO.P,J2,2*
G04 #@! TO.N,GND*
X88875000Y-79200000D03*
D10*
G04 #@! TO.N,/IO1_PA1*
G04 #@! TO.C,J2*
G36*
X90344603Y-78400963D02*
X90364018Y-78403843D01*
X90383057Y-78408612D01*
X90401537Y-78415224D01*
X90419279Y-78423616D01*
X90436114Y-78433706D01*
X90451879Y-78445398D01*
X90466421Y-78458579D01*
X90479602Y-78473121D01*
X90491294Y-78488886D01*
X90501384Y-78505721D01*
X90509776Y-78523463D01*
X90516388Y-78541943D01*
X90521157Y-78560982D01*
X90524037Y-78580397D01*
X90525000Y-78600000D01*
X90525000Y-79800000D01*
X90524037Y-79819603D01*
X90521157Y-79839018D01*
X90516388Y-79858057D01*
X90509776Y-79876537D01*
X90501384Y-79894279D01*
X90491294Y-79911114D01*
X90479602Y-79926879D01*
X90466421Y-79941421D01*
X90451879Y-79954602D01*
X90436114Y-79966294D01*
X90419279Y-79976384D01*
X90401537Y-79984776D01*
X90383057Y-79991388D01*
X90364018Y-79996157D01*
X90344603Y-79999037D01*
X90325000Y-80000000D01*
X89925000Y-80000000D01*
X89905397Y-79999037D01*
X89885982Y-79996157D01*
X89866943Y-79991388D01*
X89848463Y-79984776D01*
X89830721Y-79976384D01*
X89813886Y-79966294D01*
X89798121Y-79954602D01*
X89783579Y-79941421D01*
X89770398Y-79926879D01*
X89758706Y-79911114D01*
X89748616Y-79894279D01*
X89740224Y-79876537D01*
X89733612Y-79858057D01*
X89728843Y-79839018D01*
X89725963Y-79819603D01*
X89725000Y-79800000D01*
X89725000Y-78600000D01*
X89725963Y-78580397D01*
X89728843Y-78560982D01*
X89733612Y-78541943D01*
X89740224Y-78523463D01*
X89748616Y-78505721D01*
X89758706Y-78488886D01*
X89770398Y-78473121D01*
X89783579Y-78458579D01*
X89798121Y-78445398D01*
X89813886Y-78433706D01*
X89830721Y-78423616D01*
X89848463Y-78415224D01*
X89866943Y-78408612D01*
X89885982Y-78403843D01*
X89905397Y-78400963D01*
X89925000Y-78400000D01*
X90325000Y-78400000D01*
X90344603Y-78400963D01*
X90344603Y-78400963D01*
G37*
D11*
G04 #@! TD*
G04 #@! TO.P,J2,3*
G04 #@! TO.N,/IO1_PA1*
X90125000Y-79200000D03*
D10*
G04 #@! TO.N,GND*
G04 #@! TO.C,J2*
G36*
X91594603Y-78400963D02*
X91614018Y-78403843D01*
X91633057Y-78408612D01*
X91651537Y-78415224D01*
X91669279Y-78423616D01*
X91686114Y-78433706D01*
X91701879Y-78445398D01*
X91716421Y-78458579D01*
X91729602Y-78473121D01*
X91741294Y-78488886D01*
X91751384Y-78505721D01*
X91759776Y-78523463D01*
X91766388Y-78541943D01*
X91771157Y-78560982D01*
X91774037Y-78580397D01*
X91775000Y-78600000D01*
X91775000Y-79800000D01*
X91774037Y-79819603D01*
X91771157Y-79839018D01*
X91766388Y-79858057D01*
X91759776Y-79876537D01*
X91751384Y-79894279D01*
X91741294Y-79911114D01*
X91729602Y-79926879D01*
X91716421Y-79941421D01*
X91701879Y-79954602D01*
X91686114Y-79966294D01*
X91669279Y-79976384D01*
X91651537Y-79984776D01*
X91633057Y-79991388D01*
X91614018Y-79996157D01*
X91594603Y-79999037D01*
X91575000Y-80000000D01*
X91175000Y-80000000D01*
X91155397Y-79999037D01*
X91135982Y-79996157D01*
X91116943Y-79991388D01*
X91098463Y-79984776D01*
X91080721Y-79976384D01*
X91063886Y-79966294D01*
X91048121Y-79954602D01*
X91033579Y-79941421D01*
X91020398Y-79926879D01*
X91008706Y-79911114D01*
X90998616Y-79894279D01*
X90990224Y-79876537D01*
X90983612Y-79858057D01*
X90978843Y-79839018D01*
X90975963Y-79819603D01*
X90975000Y-79800000D01*
X90975000Y-78600000D01*
X90975963Y-78580397D01*
X90978843Y-78560982D01*
X90983612Y-78541943D01*
X90990224Y-78523463D01*
X90998616Y-78505721D01*
X91008706Y-78488886D01*
X91020398Y-78473121D01*
X91033579Y-78458579D01*
X91048121Y-78445398D01*
X91063886Y-78433706D01*
X91080721Y-78423616D01*
X91098463Y-78415224D01*
X91116943Y-78408612D01*
X91135982Y-78403843D01*
X91155397Y-78400963D01*
X91175000Y-78400000D01*
X91575000Y-78400000D01*
X91594603Y-78400963D01*
X91594603Y-78400963D01*
G37*
D11*
G04 #@! TD*
G04 #@! TO.P,J2,4*
G04 #@! TO.N,GND*
X91375000Y-79200000D03*
D10*
G04 #@! TO.N,/IO2_PA2*
G04 #@! TO.C,J2*
G36*
X92844603Y-78400963D02*
X92864018Y-78403843D01*
X92883057Y-78408612D01*
X92901537Y-78415224D01*
X92919279Y-78423616D01*
X92936114Y-78433706D01*
X92951879Y-78445398D01*
X92966421Y-78458579D01*
X92979602Y-78473121D01*
X92991294Y-78488886D01*
X93001384Y-78505721D01*
X93009776Y-78523463D01*
X93016388Y-78541943D01*
X93021157Y-78560982D01*
X93024037Y-78580397D01*
X93025000Y-78600000D01*
X93025000Y-79800000D01*
X93024037Y-79819603D01*
X93021157Y-79839018D01*
X93016388Y-79858057D01*
X93009776Y-79876537D01*
X93001384Y-79894279D01*
X92991294Y-79911114D01*
X92979602Y-79926879D01*
X92966421Y-79941421D01*
X92951879Y-79954602D01*
X92936114Y-79966294D01*
X92919279Y-79976384D01*
X92901537Y-79984776D01*
X92883057Y-79991388D01*
X92864018Y-79996157D01*
X92844603Y-79999037D01*
X92825000Y-80000000D01*
X92425000Y-80000000D01*
X92405397Y-79999037D01*
X92385982Y-79996157D01*
X92366943Y-79991388D01*
X92348463Y-79984776D01*
X92330721Y-79976384D01*
X92313886Y-79966294D01*
X92298121Y-79954602D01*
X92283579Y-79941421D01*
X92270398Y-79926879D01*
X92258706Y-79911114D01*
X92248616Y-79894279D01*
X92240224Y-79876537D01*
X92233612Y-79858057D01*
X92228843Y-79839018D01*
X92225963Y-79819603D01*
X92225000Y-79800000D01*
X92225000Y-78600000D01*
X92225963Y-78580397D01*
X92228843Y-78560982D01*
X92233612Y-78541943D01*
X92240224Y-78523463D01*
X92248616Y-78505721D01*
X92258706Y-78488886D01*
X92270398Y-78473121D01*
X92283579Y-78458579D01*
X92298121Y-78445398D01*
X92313886Y-78433706D01*
X92330721Y-78423616D01*
X92348463Y-78415224D01*
X92366943Y-78408612D01*
X92385982Y-78403843D01*
X92405397Y-78400963D01*
X92425000Y-78400000D01*
X92825000Y-78400000D01*
X92844603Y-78400963D01*
X92844603Y-78400963D01*
G37*
D11*
G04 #@! TD*
G04 #@! TO.P,J2,5*
G04 #@! TO.N,/IO2_PA2*
X92625000Y-79200000D03*
D10*
G04 #@! TO.N,GND*
G04 #@! TO.C,J2*
G36*
X94094603Y-78400963D02*
X94114018Y-78403843D01*
X94133057Y-78408612D01*
X94151537Y-78415224D01*
X94169279Y-78423616D01*
X94186114Y-78433706D01*
X94201879Y-78445398D01*
X94216421Y-78458579D01*
X94229602Y-78473121D01*
X94241294Y-78488886D01*
X94251384Y-78505721D01*
X94259776Y-78523463D01*
X94266388Y-78541943D01*
X94271157Y-78560982D01*
X94274037Y-78580397D01*
X94275000Y-78600000D01*
X94275000Y-79800000D01*
X94274037Y-79819603D01*
X94271157Y-79839018D01*
X94266388Y-79858057D01*
X94259776Y-79876537D01*
X94251384Y-79894279D01*
X94241294Y-79911114D01*
X94229602Y-79926879D01*
X94216421Y-79941421D01*
X94201879Y-79954602D01*
X94186114Y-79966294D01*
X94169279Y-79976384D01*
X94151537Y-79984776D01*
X94133057Y-79991388D01*
X94114018Y-79996157D01*
X94094603Y-79999037D01*
X94075000Y-80000000D01*
X93675000Y-80000000D01*
X93655397Y-79999037D01*
X93635982Y-79996157D01*
X93616943Y-79991388D01*
X93598463Y-79984776D01*
X93580721Y-79976384D01*
X93563886Y-79966294D01*
X93548121Y-79954602D01*
X93533579Y-79941421D01*
X93520398Y-79926879D01*
X93508706Y-79911114D01*
X93498616Y-79894279D01*
X93490224Y-79876537D01*
X93483612Y-79858057D01*
X93478843Y-79839018D01*
X93475963Y-79819603D01*
X93475000Y-79800000D01*
X93475000Y-78600000D01*
X93475963Y-78580397D01*
X93478843Y-78560982D01*
X93483612Y-78541943D01*
X93490224Y-78523463D01*
X93498616Y-78505721D01*
X93508706Y-78488886D01*
X93520398Y-78473121D01*
X93533579Y-78458579D01*
X93548121Y-78445398D01*
X93563886Y-78433706D01*
X93580721Y-78423616D01*
X93598463Y-78415224D01*
X93616943Y-78408612D01*
X93635982Y-78403843D01*
X93655397Y-78400963D01*
X93675000Y-78400000D01*
X94075000Y-78400000D01*
X94094603Y-78400963D01*
X94094603Y-78400963D01*
G37*
D11*
G04 #@! TD*
G04 #@! TO.P,J2,6*
G04 #@! TO.N,GND*
X93875000Y-79200000D03*
D10*
G04 #@! TO.N,/IO3_PA3*
G04 #@! TO.C,J2*
G36*
X95344603Y-78400963D02*
X95364018Y-78403843D01*
X95383057Y-78408612D01*
X95401537Y-78415224D01*
X95419279Y-78423616D01*
X95436114Y-78433706D01*
X95451879Y-78445398D01*
X95466421Y-78458579D01*
X95479602Y-78473121D01*
X95491294Y-78488886D01*
X95501384Y-78505721D01*
X95509776Y-78523463D01*
X95516388Y-78541943D01*
X95521157Y-78560982D01*
X95524037Y-78580397D01*
X95525000Y-78600000D01*
X95525000Y-79800000D01*
X95524037Y-79819603D01*
X95521157Y-79839018D01*
X95516388Y-79858057D01*
X95509776Y-79876537D01*
X95501384Y-79894279D01*
X95491294Y-79911114D01*
X95479602Y-79926879D01*
X95466421Y-79941421D01*
X95451879Y-79954602D01*
X95436114Y-79966294D01*
X95419279Y-79976384D01*
X95401537Y-79984776D01*
X95383057Y-79991388D01*
X95364018Y-79996157D01*
X95344603Y-79999037D01*
X95325000Y-80000000D01*
X94925000Y-80000000D01*
X94905397Y-79999037D01*
X94885982Y-79996157D01*
X94866943Y-79991388D01*
X94848463Y-79984776D01*
X94830721Y-79976384D01*
X94813886Y-79966294D01*
X94798121Y-79954602D01*
X94783579Y-79941421D01*
X94770398Y-79926879D01*
X94758706Y-79911114D01*
X94748616Y-79894279D01*
X94740224Y-79876537D01*
X94733612Y-79858057D01*
X94728843Y-79839018D01*
X94725963Y-79819603D01*
X94725000Y-79800000D01*
X94725000Y-78600000D01*
X94725963Y-78580397D01*
X94728843Y-78560982D01*
X94733612Y-78541943D01*
X94740224Y-78523463D01*
X94748616Y-78505721D01*
X94758706Y-78488886D01*
X94770398Y-78473121D01*
X94783579Y-78458579D01*
X94798121Y-78445398D01*
X94813886Y-78433706D01*
X94830721Y-78423616D01*
X94848463Y-78415224D01*
X94866943Y-78408612D01*
X94885982Y-78403843D01*
X94905397Y-78400963D01*
X94925000Y-78400000D01*
X95325000Y-78400000D01*
X95344603Y-78400963D01*
X95344603Y-78400963D01*
G37*
D11*
G04 #@! TD*
G04 #@! TO.P,J2,7*
G04 #@! TO.N,/IO3_PA3*
X95125000Y-79200000D03*
D10*
G04 #@! TO.N,GND*
G04 #@! TO.C,J2*
G36*
X96594603Y-78400963D02*
X96614018Y-78403843D01*
X96633057Y-78408612D01*
X96651537Y-78415224D01*
X96669279Y-78423616D01*
X96686114Y-78433706D01*
X96701879Y-78445398D01*
X96716421Y-78458579D01*
X96729602Y-78473121D01*
X96741294Y-78488886D01*
X96751384Y-78505721D01*
X96759776Y-78523463D01*
X96766388Y-78541943D01*
X96771157Y-78560982D01*
X96774037Y-78580397D01*
X96775000Y-78600000D01*
X96775000Y-79800000D01*
X96774037Y-79819603D01*
X96771157Y-79839018D01*
X96766388Y-79858057D01*
X96759776Y-79876537D01*
X96751384Y-79894279D01*
X96741294Y-79911114D01*
X96729602Y-79926879D01*
X96716421Y-79941421D01*
X96701879Y-79954602D01*
X96686114Y-79966294D01*
X96669279Y-79976384D01*
X96651537Y-79984776D01*
X96633057Y-79991388D01*
X96614018Y-79996157D01*
X96594603Y-79999037D01*
X96575000Y-80000000D01*
X96175000Y-80000000D01*
X96155397Y-79999037D01*
X96135982Y-79996157D01*
X96116943Y-79991388D01*
X96098463Y-79984776D01*
X96080721Y-79976384D01*
X96063886Y-79966294D01*
X96048121Y-79954602D01*
X96033579Y-79941421D01*
X96020398Y-79926879D01*
X96008706Y-79911114D01*
X95998616Y-79894279D01*
X95990224Y-79876537D01*
X95983612Y-79858057D01*
X95978843Y-79839018D01*
X95975963Y-79819603D01*
X95975000Y-79800000D01*
X95975000Y-78600000D01*
X95975963Y-78580397D01*
X95978843Y-78560982D01*
X95983612Y-78541943D01*
X95990224Y-78523463D01*
X95998616Y-78505721D01*
X96008706Y-78488886D01*
X96020398Y-78473121D01*
X96033579Y-78458579D01*
X96048121Y-78445398D01*
X96063886Y-78433706D01*
X96080721Y-78423616D01*
X96098463Y-78415224D01*
X96116943Y-78408612D01*
X96135982Y-78403843D01*
X96155397Y-78400963D01*
X96175000Y-78400000D01*
X96575000Y-78400000D01*
X96594603Y-78400963D01*
X96594603Y-78400963D01*
G37*
D11*
G04 #@! TD*
G04 #@! TO.P,J2,8*
G04 #@! TO.N,GND*
X96375000Y-79200000D03*
D10*
G04 #@! TO.N,N/C*
G04 #@! TO.C,J2*
G36*
X85899504Y-80601204D02*
X85923773Y-80604804D01*
X85947571Y-80610765D01*
X85970671Y-80619030D01*
X85992849Y-80629520D01*
X86013893Y-80642133D01*
X86033598Y-80656747D01*
X86051777Y-80673223D01*
X86068253Y-80691402D01*
X86082867Y-80711107D01*
X86095480Y-80732151D01*
X86105970Y-80754329D01*
X86114235Y-80777429D01*
X86120196Y-80801227D01*
X86123796Y-80825496D01*
X86125000Y-80850000D01*
X86125000Y-83350000D01*
X86123796Y-83374504D01*
X86120196Y-83398773D01*
X86114235Y-83422571D01*
X86105970Y-83445671D01*
X86095480Y-83467849D01*
X86082867Y-83488893D01*
X86068253Y-83508598D01*
X86051777Y-83526777D01*
X86033598Y-83543253D01*
X86013893Y-83557867D01*
X85992849Y-83570480D01*
X85970671Y-83580970D01*
X85947571Y-83589235D01*
X85923773Y-83595196D01*
X85899504Y-83598796D01*
X85875000Y-83600000D01*
X84275000Y-83600000D01*
X84250496Y-83598796D01*
X84226227Y-83595196D01*
X84202429Y-83589235D01*
X84179329Y-83580970D01*
X84157151Y-83570480D01*
X84136107Y-83557867D01*
X84116402Y-83543253D01*
X84098223Y-83526777D01*
X84081747Y-83508598D01*
X84067133Y-83488893D01*
X84054520Y-83467849D01*
X84044030Y-83445671D01*
X84035765Y-83422571D01*
X84029804Y-83398773D01*
X84026204Y-83374504D01*
X84025000Y-83350000D01*
X84025000Y-80850000D01*
X84026204Y-80825496D01*
X84029804Y-80801227D01*
X84035765Y-80777429D01*
X84044030Y-80754329D01*
X84054520Y-80732151D01*
X84067133Y-80711107D01*
X84081747Y-80691402D01*
X84098223Y-80673223D01*
X84116402Y-80656747D01*
X84136107Y-80642133D01*
X84157151Y-80629520D01*
X84179329Y-80619030D01*
X84202429Y-80610765D01*
X84226227Y-80604804D01*
X84250496Y-80601204D01*
X84275000Y-80600000D01*
X85875000Y-80600000D01*
X85899504Y-80601204D01*
X85899504Y-80601204D01*
G37*
D12*
G04 #@! TD*
G04 #@! TO.P,J2,MP*
G04 #@! TO.N,N/C*
X85075000Y-82100000D03*
D10*
G04 #@! TO.N,N/C*
G04 #@! TO.C,J2*
G36*
X99749504Y-80601204D02*
X99773773Y-80604804D01*
X99797571Y-80610765D01*
X99820671Y-80619030D01*
X99842849Y-80629520D01*
X99863893Y-80642133D01*
X99883598Y-80656747D01*
X99901777Y-80673223D01*
X99918253Y-80691402D01*
X99932867Y-80711107D01*
X99945480Y-80732151D01*
X99955970Y-80754329D01*
X99964235Y-80777429D01*
X99970196Y-80801227D01*
X99973796Y-80825496D01*
X99975000Y-80850000D01*
X99975000Y-83350000D01*
X99973796Y-83374504D01*
X99970196Y-83398773D01*
X99964235Y-83422571D01*
X99955970Y-83445671D01*
X99945480Y-83467849D01*
X99932867Y-83488893D01*
X99918253Y-83508598D01*
X99901777Y-83526777D01*
X99883598Y-83543253D01*
X99863893Y-83557867D01*
X99842849Y-83570480D01*
X99820671Y-83580970D01*
X99797571Y-83589235D01*
X99773773Y-83595196D01*
X99749504Y-83598796D01*
X99725000Y-83600000D01*
X98125000Y-83600000D01*
X98100496Y-83598796D01*
X98076227Y-83595196D01*
X98052429Y-83589235D01*
X98029329Y-83580970D01*
X98007151Y-83570480D01*
X97986107Y-83557867D01*
X97966402Y-83543253D01*
X97948223Y-83526777D01*
X97931747Y-83508598D01*
X97917133Y-83488893D01*
X97904520Y-83467849D01*
X97894030Y-83445671D01*
X97885765Y-83422571D01*
X97879804Y-83398773D01*
X97876204Y-83374504D01*
X97875000Y-83350000D01*
X97875000Y-80850000D01*
X97876204Y-80825496D01*
X97879804Y-80801227D01*
X97885765Y-80777429D01*
X97894030Y-80754329D01*
X97904520Y-80732151D01*
X97917133Y-80711107D01*
X97931747Y-80691402D01*
X97948223Y-80673223D01*
X97966402Y-80656747D01*
X97986107Y-80642133D01*
X98007151Y-80629520D01*
X98029329Y-80619030D01*
X98052429Y-80610765D01*
X98076227Y-80604804D01*
X98100496Y-80601204D01*
X98125000Y-80600000D01*
X99725000Y-80600000D01*
X99749504Y-80601204D01*
X99749504Y-80601204D01*
G37*
D12*
G04 #@! TD*
G04 #@! TO.P,J2,MP*
G04 #@! TO.N,N/C*
X98925000Y-82100000D03*
D13*
G04 #@! TO.P,U1,1*
G04 #@! TO.N,VCC*
X88820000Y-71830000D03*
G04 #@! TO.P,U1,2*
G04 #@! TO.N,Net-(C7-Pad1)*
X88820000Y-72330000D03*
G04 #@! TO.P,U1,3*
G04 #@! TO.N,Net-(C6-Pad1)*
X88820000Y-72830000D03*
G04 #@! TO.P,U1,4*
G04 #@! TO.N,/RST*
X88820000Y-73330000D03*
G04 #@! TO.P,U1,5*
G04 #@! TO.N,VCC*
X88820000Y-73830000D03*
G04 #@! TO.P,U1,6*
G04 #@! TO.N,GND*
X88820000Y-74330000D03*
G04 #@! TO.P,U1,7*
G04 #@! TO.N,/IO0_PA0*
X88820000Y-74830000D03*
G04 #@! TO.P,U1,8*
G04 #@! TO.N,/IO1_PA1*
X88820000Y-75330000D03*
D14*
G04 #@! TO.P,U1,9*
G04 #@! TO.N,/IO2_PA2*
X89470000Y-75980000D03*
G04 #@! TO.P,U1,10*
G04 #@! TO.N,/IO3_PA3*
X89970000Y-75980000D03*
G04 #@! TO.P,U1,11*
G04 #@! TO.N,/LED*
X90470000Y-75980000D03*
G04 #@! TO.P,U1,12*
G04 #@! TO.N,N/C*
X90970000Y-75980000D03*
G04 #@! TO.P,U1,13*
G04 #@! TO.N,/PWM0_PA6_TIM16_CH1*
X91470000Y-75980000D03*
G04 #@! TO.P,U1,14*
G04 #@! TO.N,/PWM1_PA7_TIM17_CH1*
X91970000Y-75980000D03*
G04 #@! TO.P,U1,15*
G04 #@! TO.N,N/C*
X92470000Y-75980000D03*
G04 #@! TO.P,U1,16*
G04 #@! TO.N,GND*
X92970000Y-75980000D03*
D13*
G04 #@! TO.P,U1,17*
G04 #@! TO.N,VCC*
X93620000Y-75330000D03*
G04 #@! TO.P,U1,18*
G04 #@! TO.N,N/C*
X93620000Y-74830000D03*
G04 #@! TO.P,U1,19*
G04 #@! TO.N,/PWM2_PA9_TIM1_CH2*
X93620000Y-74330000D03*
G04 #@! TO.P,U1,20*
G04 #@! TO.N,/PWM3_PA10_TIM1_CH3*
X93620000Y-73830000D03*
G04 #@! TO.P,U1,21*
G04 #@! TO.N,/CAN_RX*
X93620000Y-73330000D03*
G04 #@! TO.P,U1,22*
G04 #@! TO.N,/CAN_TX*
X93620000Y-72830000D03*
G04 #@! TO.P,U1,23*
G04 #@! TO.N,/SWIO*
X93620000Y-72330000D03*
G04 #@! TO.P,U1,24*
G04 #@! TO.N,/SWCK*
X93620000Y-71830000D03*
D14*
G04 #@! TO.P,U1,25*
G04 #@! TO.N,N/C*
X92970000Y-71180000D03*
G04 #@! TO.P,U1,26*
X92470000Y-71180000D03*
G04 #@! TO.P,U1,27*
X91970000Y-71180000D03*
G04 #@! TO.P,U1,28*
X91470000Y-71180000D03*
G04 #@! TO.P,U1,29*
G04 #@! TO.N,/IO_PB6_I2C1SCL_UART1TX*
X90970000Y-71180000D03*
G04 #@! TO.P,U1,30*
G04 #@! TO.N,/IO_PB7_I2C1SDA_UART1RX*
X90470000Y-71180000D03*
G04 #@! TO.P,U1,31*
G04 #@! TO.N,GND*
X89970000Y-71180000D03*
G04 #@! TO.P,U1,32*
X89470000Y-71180000D03*
D15*
G04 #@! TO.P,U1,33*
X92082500Y-74442500D03*
X92082500Y-72717500D03*
X90357500Y-74442500D03*
X90357500Y-72717500D03*
G04 #@! TD*
D16*
G04 #@! TO.P,U2,3*
G04 #@! TO.N,Net-(C9-Pad1)*
X98350000Y-66400000D03*
G04 #@! TO.P,U2,2*
G04 #@! TO.N,VCC*
X99300000Y-69000000D03*
G04 #@! TO.P,U2,1*
G04 #@! TO.N,GND*
X97400000Y-69000000D03*
G04 #@! TD*
D17*
G04 #@! TO.P,U3,8*
G04 #@! TO.N,GND*
X98180000Y-71990000D03*
G04 #@! TO.P,U3,7*
G04 #@! TO.N,Net-(CONN2-Pad3)*
X98180000Y-72640000D03*
G04 #@! TO.P,U3,6*
G04 #@! TO.N,Net-(CONN2-Pad4)*
X98180000Y-73290000D03*
G04 #@! TO.P,U3,5*
G04 #@! TO.N,GND*
X98180000Y-73940000D03*
G04 #@! TO.P,U3,4*
G04 #@! TO.N,/CAN_RX*
X95580000Y-73940000D03*
G04 #@! TO.P,U3,3*
G04 #@! TO.N,VCC*
X95580000Y-73290000D03*
G04 #@! TO.P,U3,2*
G04 #@! TO.N,GND*
X95580000Y-72640000D03*
G04 #@! TO.P,U3,1*
G04 #@! TO.N,/CAN_TX*
X95580000Y-71990000D03*
G04 #@! TD*
D10*
G04 #@! TO.N,VCC*
G04 #@! TO.C,C1*
G36*
X88232691Y-67926053D02*
X88253926Y-67929203D01*
X88274750Y-67934419D01*
X88294962Y-67941651D01*
X88314368Y-67950830D01*
X88332781Y-67961866D01*
X88350024Y-67974654D01*
X88365930Y-67989070D01*
X88380346Y-68004976D01*
X88393134Y-68022219D01*
X88404170Y-68040632D01*
X88413349Y-68060038D01*
X88420581Y-68080250D01*
X88425797Y-68101074D01*
X88428947Y-68122309D01*
X88430000Y-68143750D01*
X88430000Y-68656250D01*
X88428947Y-68677691D01*
X88425797Y-68698926D01*
X88420581Y-68719750D01*
X88413349Y-68739962D01*
X88404170Y-68759368D01*
X88393134Y-68777781D01*
X88380346Y-68795024D01*
X88365930Y-68810930D01*
X88350024Y-68825346D01*
X88332781Y-68838134D01*
X88314368Y-68849170D01*
X88294962Y-68858349D01*
X88274750Y-68865581D01*
X88253926Y-68870797D01*
X88232691Y-68873947D01*
X88211250Y-68875000D01*
X87773750Y-68875000D01*
X87752309Y-68873947D01*
X87731074Y-68870797D01*
X87710250Y-68865581D01*
X87690038Y-68858349D01*
X87670632Y-68849170D01*
X87652219Y-68838134D01*
X87634976Y-68825346D01*
X87619070Y-68810930D01*
X87604654Y-68795024D01*
X87591866Y-68777781D01*
X87580830Y-68759368D01*
X87571651Y-68739962D01*
X87564419Y-68719750D01*
X87559203Y-68698926D01*
X87556053Y-68677691D01*
X87555000Y-68656250D01*
X87555000Y-68143750D01*
X87556053Y-68122309D01*
X87559203Y-68101074D01*
X87564419Y-68080250D01*
X87571651Y-68060038D01*
X87580830Y-68040632D01*
X87591866Y-68022219D01*
X87604654Y-68004976D01*
X87619070Y-67989070D01*
X87634976Y-67974654D01*
X87652219Y-67961866D01*
X87670632Y-67950830D01*
X87690038Y-67941651D01*
X87710250Y-67934419D01*
X87731074Y-67929203D01*
X87752309Y-67926053D01*
X87773750Y-67925000D01*
X88211250Y-67925000D01*
X88232691Y-67926053D01*
X88232691Y-67926053D01*
G37*
D18*
G04 #@! TD*
G04 #@! TO.P,C1,1*
G04 #@! TO.N,VCC*
X87992500Y-68400000D03*
D10*
G04 #@! TO.N,GND*
G04 #@! TO.C,C1*
G36*
X89807691Y-67926053D02*
X89828926Y-67929203D01*
X89849750Y-67934419D01*
X89869962Y-67941651D01*
X89889368Y-67950830D01*
X89907781Y-67961866D01*
X89925024Y-67974654D01*
X89940930Y-67989070D01*
X89955346Y-68004976D01*
X89968134Y-68022219D01*
X89979170Y-68040632D01*
X89988349Y-68060038D01*
X89995581Y-68080250D01*
X90000797Y-68101074D01*
X90003947Y-68122309D01*
X90005000Y-68143750D01*
X90005000Y-68656250D01*
X90003947Y-68677691D01*
X90000797Y-68698926D01*
X89995581Y-68719750D01*
X89988349Y-68739962D01*
X89979170Y-68759368D01*
X89968134Y-68777781D01*
X89955346Y-68795024D01*
X89940930Y-68810930D01*
X89925024Y-68825346D01*
X89907781Y-68838134D01*
X89889368Y-68849170D01*
X89869962Y-68858349D01*
X89849750Y-68865581D01*
X89828926Y-68870797D01*
X89807691Y-68873947D01*
X89786250Y-68875000D01*
X89348750Y-68875000D01*
X89327309Y-68873947D01*
X89306074Y-68870797D01*
X89285250Y-68865581D01*
X89265038Y-68858349D01*
X89245632Y-68849170D01*
X89227219Y-68838134D01*
X89209976Y-68825346D01*
X89194070Y-68810930D01*
X89179654Y-68795024D01*
X89166866Y-68777781D01*
X89155830Y-68759368D01*
X89146651Y-68739962D01*
X89139419Y-68719750D01*
X89134203Y-68698926D01*
X89131053Y-68677691D01*
X89130000Y-68656250D01*
X89130000Y-68143750D01*
X89131053Y-68122309D01*
X89134203Y-68101074D01*
X89139419Y-68080250D01*
X89146651Y-68060038D01*
X89155830Y-68040632D01*
X89166866Y-68022219D01*
X89179654Y-68004976D01*
X89194070Y-67989070D01*
X89209976Y-67974654D01*
X89227219Y-67961866D01*
X89245632Y-67950830D01*
X89265038Y-67941651D01*
X89285250Y-67934419D01*
X89306074Y-67929203D01*
X89327309Y-67926053D01*
X89348750Y-67925000D01*
X89786250Y-67925000D01*
X89807691Y-67926053D01*
X89807691Y-67926053D01*
G37*
D18*
G04 #@! TD*
G04 #@! TO.P,C1,2*
G04 #@! TO.N,GND*
X89567500Y-68400000D03*
D10*
G04 #@! TO.N,GND*
G04 #@! TO.C,C2*
G36*
X96156958Y-75420710D02*
X96171276Y-75422834D01*
X96185317Y-75426351D01*
X96198946Y-75431228D01*
X96212031Y-75437417D01*
X96224447Y-75444858D01*
X96236073Y-75453481D01*
X96246798Y-75463202D01*
X96256519Y-75473927D01*
X96265142Y-75485553D01*
X96272583Y-75497969D01*
X96278772Y-75511054D01*
X96283649Y-75524683D01*
X96287166Y-75538724D01*
X96289290Y-75553042D01*
X96290000Y-75567500D01*
X96290000Y-75912500D01*
X96289290Y-75926958D01*
X96287166Y-75941276D01*
X96283649Y-75955317D01*
X96278772Y-75968946D01*
X96272583Y-75982031D01*
X96265142Y-75994447D01*
X96256519Y-76006073D01*
X96246798Y-76016798D01*
X96236073Y-76026519D01*
X96224447Y-76035142D01*
X96212031Y-76042583D01*
X96198946Y-76048772D01*
X96185317Y-76053649D01*
X96171276Y-76057166D01*
X96156958Y-76059290D01*
X96142500Y-76060000D01*
X95847500Y-76060000D01*
X95833042Y-76059290D01*
X95818724Y-76057166D01*
X95804683Y-76053649D01*
X95791054Y-76048772D01*
X95777969Y-76042583D01*
X95765553Y-76035142D01*
X95753927Y-76026519D01*
X95743202Y-76016798D01*
X95733481Y-76006073D01*
X95724858Y-75994447D01*
X95717417Y-75982031D01*
X95711228Y-75968946D01*
X95706351Y-75955317D01*
X95702834Y-75941276D01*
X95700710Y-75926958D01*
X95700000Y-75912500D01*
X95700000Y-75567500D01*
X95700710Y-75553042D01*
X95702834Y-75538724D01*
X95706351Y-75524683D01*
X95711228Y-75511054D01*
X95717417Y-75497969D01*
X95724858Y-75485553D01*
X95733481Y-75473927D01*
X95743202Y-75463202D01*
X95753927Y-75453481D01*
X95765553Y-75444858D01*
X95777969Y-75437417D01*
X95791054Y-75431228D01*
X95804683Y-75426351D01*
X95818724Y-75422834D01*
X95833042Y-75420710D01*
X95847500Y-75420000D01*
X96142500Y-75420000D01*
X96156958Y-75420710D01*
X96156958Y-75420710D01*
G37*
D19*
G04 #@! TD*
G04 #@! TO.P,C2,2*
G04 #@! TO.N,GND*
X95995000Y-75740000D03*
D10*
G04 #@! TO.N,VCC*
G04 #@! TO.C,C2*
G36*
X95186958Y-75420710D02*
X95201276Y-75422834D01*
X95215317Y-75426351D01*
X95228946Y-75431228D01*
X95242031Y-75437417D01*
X95254447Y-75444858D01*
X95266073Y-75453481D01*
X95276798Y-75463202D01*
X95286519Y-75473927D01*
X95295142Y-75485553D01*
X95302583Y-75497969D01*
X95308772Y-75511054D01*
X95313649Y-75524683D01*
X95317166Y-75538724D01*
X95319290Y-75553042D01*
X95320000Y-75567500D01*
X95320000Y-75912500D01*
X95319290Y-75926958D01*
X95317166Y-75941276D01*
X95313649Y-75955317D01*
X95308772Y-75968946D01*
X95302583Y-75982031D01*
X95295142Y-75994447D01*
X95286519Y-76006073D01*
X95276798Y-76016798D01*
X95266073Y-76026519D01*
X95254447Y-76035142D01*
X95242031Y-76042583D01*
X95228946Y-76048772D01*
X95215317Y-76053649D01*
X95201276Y-76057166D01*
X95186958Y-76059290D01*
X95172500Y-76060000D01*
X94877500Y-76060000D01*
X94863042Y-76059290D01*
X94848724Y-76057166D01*
X94834683Y-76053649D01*
X94821054Y-76048772D01*
X94807969Y-76042583D01*
X94795553Y-76035142D01*
X94783927Y-76026519D01*
X94773202Y-76016798D01*
X94763481Y-76006073D01*
X94754858Y-75994447D01*
X94747417Y-75982031D01*
X94741228Y-75968946D01*
X94736351Y-75955317D01*
X94732834Y-75941276D01*
X94730710Y-75926958D01*
X94730000Y-75912500D01*
X94730000Y-75567500D01*
X94730710Y-75553042D01*
X94732834Y-75538724D01*
X94736351Y-75524683D01*
X94741228Y-75511054D01*
X94747417Y-75497969D01*
X94754858Y-75485553D01*
X94763481Y-75473927D01*
X94773202Y-75463202D01*
X94783927Y-75453481D01*
X94795553Y-75444858D01*
X94807969Y-75437417D01*
X94821054Y-75431228D01*
X94834683Y-75426351D01*
X94848724Y-75422834D01*
X94863042Y-75420710D01*
X94877500Y-75420000D01*
X95172500Y-75420000D01*
X95186958Y-75420710D01*
X95186958Y-75420710D01*
G37*
D19*
G04 #@! TD*
G04 #@! TO.P,C2,1*
G04 #@! TO.N,VCC*
X95025000Y-75740000D03*
D10*
G04 #@! TO.N,VCC*
G04 #@! TO.C,C3*
G36*
X86816958Y-75090710D02*
X86831276Y-75092834D01*
X86845317Y-75096351D01*
X86858946Y-75101228D01*
X86872031Y-75107417D01*
X86884447Y-75114858D01*
X86896073Y-75123481D01*
X86906798Y-75133202D01*
X86916519Y-75143927D01*
X86925142Y-75155553D01*
X86932583Y-75167969D01*
X86938772Y-75181054D01*
X86943649Y-75194683D01*
X86947166Y-75208724D01*
X86949290Y-75223042D01*
X86950000Y-75237500D01*
X86950000Y-75582500D01*
X86949290Y-75596958D01*
X86947166Y-75611276D01*
X86943649Y-75625317D01*
X86938772Y-75638946D01*
X86932583Y-75652031D01*
X86925142Y-75664447D01*
X86916519Y-75676073D01*
X86906798Y-75686798D01*
X86896073Y-75696519D01*
X86884447Y-75705142D01*
X86872031Y-75712583D01*
X86858946Y-75718772D01*
X86845317Y-75723649D01*
X86831276Y-75727166D01*
X86816958Y-75729290D01*
X86802500Y-75730000D01*
X86507500Y-75730000D01*
X86493042Y-75729290D01*
X86478724Y-75727166D01*
X86464683Y-75723649D01*
X86451054Y-75718772D01*
X86437969Y-75712583D01*
X86425553Y-75705142D01*
X86413927Y-75696519D01*
X86403202Y-75686798D01*
X86393481Y-75676073D01*
X86384858Y-75664447D01*
X86377417Y-75652031D01*
X86371228Y-75638946D01*
X86366351Y-75625317D01*
X86362834Y-75611276D01*
X86360710Y-75596958D01*
X86360000Y-75582500D01*
X86360000Y-75237500D01*
X86360710Y-75223042D01*
X86362834Y-75208724D01*
X86366351Y-75194683D01*
X86371228Y-75181054D01*
X86377417Y-75167969D01*
X86384858Y-75155553D01*
X86393481Y-75143927D01*
X86403202Y-75133202D01*
X86413927Y-75123481D01*
X86425553Y-75114858D01*
X86437969Y-75107417D01*
X86451054Y-75101228D01*
X86464683Y-75096351D01*
X86478724Y-75092834D01*
X86493042Y-75090710D01*
X86507500Y-75090000D01*
X86802500Y-75090000D01*
X86816958Y-75090710D01*
X86816958Y-75090710D01*
G37*
D19*
G04 #@! TD*
G04 #@! TO.P,C3,1*
G04 #@! TO.N,VCC*
X86655000Y-75410000D03*
D10*
G04 #@! TO.N,GND*
G04 #@! TO.C,C3*
G36*
X87786958Y-75090710D02*
X87801276Y-75092834D01*
X87815317Y-75096351D01*
X87828946Y-75101228D01*
X87842031Y-75107417D01*
X87854447Y-75114858D01*
X87866073Y-75123481D01*
X87876798Y-75133202D01*
X87886519Y-75143927D01*
X87895142Y-75155553D01*
X87902583Y-75167969D01*
X87908772Y-75181054D01*
X87913649Y-75194683D01*
X87917166Y-75208724D01*
X87919290Y-75223042D01*
X87920000Y-75237500D01*
X87920000Y-75582500D01*
X87919290Y-75596958D01*
X87917166Y-75611276D01*
X87913649Y-75625317D01*
X87908772Y-75638946D01*
X87902583Y-75652031D01*
X87895142Y-75664447D01*
X87886519Y-75676073D01*
X87876798Y-75686798D01*
X87866073Y-75696519D01*
X87854447Y-75705142D01*
X87842031Y-75712583D01*
X87828946Y-75718772D01*
X87815317Y-75723649D01*
X87801276Y-75727166D01*
X87786958Y-75729290D01*
X87772500Y-75730000D01*
X87477500Y-75730000D01*
X87463042Y-75729290D01*
X87448724Y-75727166D01*
X87434683Y-75723649D01*
X87421054Y-75718772D01*
X87407969Y-75712583D01*
X87395553Y-75705142D01*
X87383927Y-75696519D01*
X87373202Y-75686798D01*
X87363481Y-75676073D01*
X87354858Y-75664447D01*
X87347417Y-75652031D01*
X87341228Y-75638946D01*
X87336351Y-75625317D01*
X87332834Y-75611276D01*
X87330710Y-75596958D01*
X87330000Y-75582500D01*
X87330000Y-75237500D01*
X87330710Y-75223042D01*
X87332834Y-75208724D01*
X87336351Y-75194683D01*
X87341228Y-75181054D01*
X87347417Y-75167969D01*
X87354858Y-75155553D01*
X87363481Y-75143927D01*
X87373202Y-75133202D01*
X87383927Y-75123481D01*
X87395553Y-75114858D01*
X87407969Y-75107417D01*
X87421054Y-75101228D01*
X87434683Y-75096351D01*
X87448724Y-75092834D01*
X87463042Y-75090710D01*
X87477500Y-75090000D01*
X87772500Y-75090000D01*
X87786958Y-75090710D01*
X87786958Y-75090710D01*
G37*
D19*
G04 #@! TD*
G04 #@! TO.P,C3,2*
G04 #@! TO.N,GND*
X87625000Y-75410000D03*
D10*
G04 #@! TO.N,/RST*
G04 #@! TO.C,C4*
G36*
X86056958Y-67870710D02*
X86071276Y-67872834D01*
X86085317Y-67876351D01*
X86098946Y-67881228D01*
X86112031Y-67887417D01*
X86124447Y-67894858D01*
X86136073Y-67903481D01*
X86146798Y-67913202D01*
X86156519Y-67923927D01*
X86165142Y-67935553D01*
X86172583Y-67947969D01*
X86178772Y-67961054D01*
X86183649Y-67974683D01*
X86187166Y-67988724D01*
X86189290Y-68003042D01*
X86190000Y-68017500D01*
X86190000Y-68362500D01*
X86189290Y-68376958D01*
X86187166Y-68391276D01*
X86183649Y-68405317D01*
X86178772Y-68418946D01*
X86172583Y-68432031D01*
X86165142Y-68444447D01*
X86156519Y-68456073D01*
X86146798Y-68466798D01*
X86136073Y-68476519D01*
X86124447Y-68485142D01*
X86112031Y-68492583D01*
X86098946Y-68498772D01*
X86085317Y-68503649D01*
X86071276Y-68507166D01*
X86056958Y-68509290D01*
X86042500Y-68510000D01*
X85747500Y-68510000D01*
X85733042Y-68509290D01*
X85718724Y-68507166D01*
X85704683Y-68503649D01*
X85691054Y-68498772D01*
X85677969Y-68492583D01*
X85665553Y-68485142D01*
X85653927Y-68476519D01*
X85643202Y-68466798D01*
X85633481Y-68456073D01*
X85624858Y-68444447D01*
X85617417Y-68432031D01*
X85611228Y-68418946D01*
X85606351Y-68405317D01*
X85602834Y-68391276D01*
X85600710Y-68376958D01*
X85600000Y-68362500D01*
X85600000Y-68017500D01*
X85600710Y-68003042D01*
X85602834Y-67988724D01*
X85606351Y-67974683D01*
X85611228Y-67961054D01*
X85617417Y-67947969D01*
X85624858Y-67935553D01*
X85633481Y-67923927D01*
X85643202Y-67913202D01*
X85653927Y-67903481D01*
X85665553Y-67894858D01*
X85677969Y-67887417D01*
X85691054Y-67881228D01*
X85704683Y-67876351D01*
X85718724Y-67872834D01*
X85733042Y-67870710D01*
X85747500Y-67870000D01*
X86042500Y-67870000D01*
X86056958Y-67870710D01*
X86056958Y-67870710D01*
G37*
D19*
G04 #@! TD*
G04 #@! TO.P,C4,1*
G04 #@! TO.N,/RST*
X85895000Y-68190000D03*
D10*
G04 #@! TO.N,GND*
G04 #@! TO.C,C4*
G36*
X87026958Y-67870710D02*
X87041276Y-67872834D01*
X87055317Y-67876351D01*
X87068946Y-67881228D01*
X87082031Y-67887417D01*
X87094447Y-67894858D01*
X87106073Y-67903481D01*
X87116798Y-67913202D01*
X87126519Y-67923927D01*
X87135142Y-67935553D01*
X87142583Y-67947969D01*
X87148772Y-67961054D01*
X87153649Y-67974683D01*
X87157166Y-67988724D01*
X87159290Y-68003042D01*
X87160000Y-68017500D01*
X87160000Y-68362500D01*
X87159290Y-68376958D01*
X87157166Y-68391276D01*
X87153649Y-68405317D01*
X87148772Y-68418946D01*
X87142583Y-68432031D01*
X87135142Y-68444447D01*
X87126519Y-68456073D01*
X87116798Y-68466798D01*
X87106073Y-68476519D01*
X87094447Y-68485142D01*
X87082031Y-68492583D01*
X87068946Y-68498772D01*
X87055317Y-68503649D01*
X87041276Y-68507166D01*
X87026958Y-68509290D01*
X87012500Y-68510000D01*
X86717500Y-68510000D01*
X86703042Y-68509290D01*
X86688724Y-68507166D01*
X86674683Y-68503649D01*
X86661054Y-68498772D01*
X86647969Y-68492583D01*
X86635553Y-68485142D01*
X86623927Y-68476519D01*
X86613202Y-68466798D01*
X86603481Y-68456073D01*
X86594858Y-68444447D01*
X86587417Y-68432031D01*
X86581228Y-68418946D01*
X86576351Y-68405317D01*
X86572834Y-68391276D01*
X86570710Y-68376958D01*
X86570000Y-68362500D01*
X86570000Y-68017500D01*
X86570710Y-68003042D01*
X86572834Y-67988724D01*
X86576351Y-67974683D01*
X86581228Y-67961054D01*
X86587417Y-67947969D01*
X86594858Y-67935553D01*
X86603481Y-67923927D01*
X86613202Y-67913202D01*
X86623927Y-67903481D01*
X86635553Y-67894858D01*
X86647969Y-67887417D01*
X86661054Y-67881228D01*
X86674683Y-67876351D01*
X86688724Y-67872834D01*
X86703042Y-67870710D01*
X86717500Y-67870000D01*
X87012500Y-67870000D01*
X87026958Y-67870710D01*
X87026958Y-67870710D01*
G37*
D19*
G04 #@! TD*
G04 #@! TO.P,C4,2*
G04 #@! TO.N,GND*
X86865000Y-68190000D03*
D10*
G04 #@! TO.N,GND*
G04 #@! TO.C,C5*
G36*
X89656958Y-69640710D02*
X89671276Y-69642834D01*
X89685317Y-69646351D01*
X89698946Y-69651228D01*
X89712031Y-69657417D01*
X89724447Y-69664858D01*
X89736073Y-69673481D01*
X89746798Y-69683202D01*
X89756519Y-69693927D01*
X89765142Y-69705553D01*
X89772583Y-69717969D01*
X89778772Y-69731054D01*
X89783649Y-69744683D01*
X89787166Y-69758724D01*
X89789290Y-69773042D01*
X89790000Y-69787500D01*
X89790000Y-70132500D01*
X89789290Y-70146958D01*
X89787166Y-70161276D01*
X89783649Y-70175317D01*
X89778772Y-70188946D01*
X89772583Y-70202031D01*
X89765142Y-70214447D01*
X89756519Y-70226073D01*
X89746798Y-70236798D01*
X89736073Y-70246519D01*
X89724447Y-70255142D01*
X89712031Y-70262583D01*
X89698946Y-70268772D01*
X89685317Y-70273649D01*
X89671276Y-70277166D01*
X89656958Y-70279290D01*
X89642500Y-70280000D01*
X89347500Y-70280000D01*
X89333042Y-70279290D01*
X89318724Y-70277166D01*
X89304683Y-70273649D01*
X89291054Y-70268772D01*
X89277969Y-70262583D01*
X89265553Y-70255142D01*
X89253927Y-70246519D01*
X89243202Y-70236798D01*
X89233481Y-70226073D01*
X89224858Y-70214447D01*
X89217417Y-70202031D01*
X89211228Y-70188946D01*
X89206351Y-70175317D01*
X89202834Y-70161276D01*
X89200710Y-70146958D01*
X89200000Y-70132500D01*
X89200000Y-69787500D01*
X89200710Y-69773042D01*
X89202834Y-69758724D01*
X89206351Y-69744683D01*
X89211228Y-69731054D01*
X89217417Y-69717969D01*
X89224858Y-69705553D01*
X89233481Y-69693927D01*
X89243202Y-69683202D01*
X89253927Y-69673481D01*
X89265553Y-69664858D01*
X89277969Y-69657417D01*
X89291054Y-69651228D01*
X89304683Y-69646351D01*
X89318724Y-69642834D01*
X89333042Y-69640710D01*
X89347500Y-69640000D01*
X89642500Y-69640000D01*
X89656958Y-69640710D01*
X89656958Y-69640710D01*
G37*
D19*
G04 #@! TD*
G04 #@! TO.P,C5,2*
G04 #@! TO.N,GND*
X89495000Y-69960000D03*
D10*
G04 #@! TO.N,VCC*
G04 #@! TO.C,C5*
G36*
X88686958Y-69640710D02*
X88701276Y-69642834D01*
X88715317Y-69646351D01*
X88728946Y-69651228D01*
X88742031Y-69657417D01*
X88754447Y-69664858D01*
X88766073Y-69673481D01*
X88776798Y-69683202D01*
X88786519Y-69693927D01*
X88795142Y-69705553D01*
X88802583Y-69717969D01*
X88808772Y-69731054D01*
X88813649Y-69744683D01*
X88817166Y-69758724D01*
X88819290Y-69773042D01*
X88820000Y-69787500D01*
X88820000Y-70132500D01*
X88819290Y-70146958D01*
X88817166Y-70161276D01*
X88813649Y-70175317D01*
X88808772Y-70188946D01*
X88802583Y-70202031D01*
X88795142Y-70214447D01*
X88786519Y-70226073D01*
X88776798Y-70236798D01*
X88766073Y-70246519D01*
X88754447Y-70255142D01*
X88742031Y-70262583D01*
X88728946Y-70268772D01*
X88715317Y-70273649D01*
X88701276Y-70277166D01*
X88686958Y-70279290D01*
X88672500Y-70280000D01*
X88377500Y-70280000D01*
X88363042Y-70279290D01*
X88348724Y-70277166D01*
X88334683Y-70273649D01*
X88321054Y-70268772D01*
X88307969Y-70262583D01*
X88295553Y-70255142D01*
X88283927Y-70246519D01*
X88273202Y-70236798D01*
X88263481Y-70226073D01*
X88254858Y-70214447D01*
X88247417Y-70202031D01*
X88241228Y-70188946D01*
X88236351Y-70175317D01*
X88232834Y-70161276D01*
X88230710Y-70146958D01*
X88230000Y-70132500D01*
X88230000Y-69787500D01*
X88230710Y-69773042D01*
X88232834Y-69758724D01*
X88236351Y-69744683D01*
X88241228Y-69731054D01*
X88247417Y-69717969D01*
X88254858Y-69705553D01*
X88263481Y-69693927D01*
X88273202Y-69683202D01*
X88283927Y-69673481D01*
X88295553Y-69664858D01*
X88307969Y-69657417D01*
X88321054Y-69651228D01*
X88334683Y-69646351D01*
X88348724Y-69642834D01*
X88363042Y-69640710D01*
X88377500Y-69640000D01*
X88672500Y-69640000D01*
X88686958Y-69640710D01*
X88686958Y-69640710D01*
G37*
D19*
G04 #@! TD*
G04 #@! TO.P,C5,1*
G04 #@! TO.N,VCC*
X88525000Y-69960000D03*
D10*
G04 #@! TO.N,GND*
G04 #@! TO.C,C6*
G36*
X85946958Y-73760710D02*
X85961276Y-73762834D01*
X85975317Y-73766351D01*
X85988946Y-73771228D01*
X86002031Y-73777417D01*
X86014447Y-73784858D01*
X86026073Y-73793481D01*
X86036798Y-73803202D01*
X86046519Y-73813927D01*
X86055142Y-73825553D01*
X86062583Y-73837969D01*
X86068772Y-73851054D01*
X86073649Y-73864683D01*
X86077166Y-73878724D01*
X86079290Y-73893042D01*
X86080000Y-73907500D01*
X86080000Y-74252500D01*
X86079290Y-74266958D01*
X86077166Y-74281276D01*
X86073649Y-74295317D01*
X86068772Y-74308946D01*
X86062583Y-74322031D01*
X86055142Y-74334447D01*
X86046519Y-74346073D01*
X86036798Y-74356798D01*
X86026073Y-74366519D01*
X86014447Y-74375142D01*
X86002031Y-74382583D01*
X85988946Y-74388772D01*
X85975317Y-74393649D01*
X85961276Y-74397166D01*
X85946958Y-74399290D01*
X85932500Y-74400000D01*
X85637500Y-74400000D01*
X85623042Y-74399290D01*
X85608724Y-74397166D01*
X85594683Y-74393649D01*
X85581054Y-74388772D01*
X85567969Y-74382583D01*
X85555553Y-74375142D01*
X85543927Y-74366519D01*
X85533202Y-74356798D01*
X85523481Y-74346073D01*
X85514858Y-74334447D01*
X85507417Y-74322031D01*
X85501228Y-74308946D01*
X85496351Y-74295317D01*
X85492834Y-74281276D01*
X85490710Y-74266958D01*
X85490000Y-74252500D01*
X85490000Y-73907500D01*
X85490710Y-73893042D01*
X85492834Y-73878724D01*
X85496351Y-73864683D01*
X85501228Y-73851054D01*
X85507417Y-73837969D01*
X85514858Y-73825553D01*
X85523481Y-73813927D01*
X85533202Y-73803202D01*
X85543927Y-73793481D01*
X85555553Y-73784858D01*
X85567969Y-73777417D01*
X85581054Y-73771228D01*
X85594683Y-73766351D01*
X85608724Y-73762834D01*
X85623042Y-73760710D01*
X85637500Y-73760000D01*
X85932500Y-73760000D01*
X85946958Y-73760710D01*
X85946958Y-73760710D01*
G37*
D19*
G04 #@! TD*
G04 #@! TO.P,C6,2*
G04 #@! TO.N,GND*
X85785000Y-74080000D03*
D10*
G04 #@! TO.N,Net-(C6-Pad1)*
G04 #@! TO.C,C6*
G36*
X86916958Y-73760710D02*
X86931276Y-73762834D01*
X86945317Y-73766351D01*
X86958946Y-73771228D01*
X86972031Y-73777417D01*
X86984447Y-73784858D01*
X86996073Y-73793481D01*
X87006798Y-73803202D01*
X87016519Y-73813927D01*
X87025142Y-73825553D01*
X87032583Y-73837969D01*
X87038772Y-73851054D01*
X87043649Y-73864683D01*
X87047166Y-73878724D01*
X87049290Y-73893042D01*
X87050000Y-73907500D01*
X87050000Y-74252500D01*
X87049290Y-74266958D01*
X87047166Y-74281276D01*
X87043649Y-74295317D01*
X87038772Y-74308946D01*
X87032583Y-74322031D01*
X87025142Y-74334447D01*
X87016519Y-74346073D01*
X87006798Y-74356798D01*
X86996073Y-74366519D01*
X86984447Y-74375142D01*
X86972031Y-74382583D01*
X86958946Y-74388772D01*
X86945317Y-74393649D01*
X86931276Y-74397166D01*
X86916958Y-74399290D01*
X86902500Y-74400000D01*
X86607500Y-74400000D01*
X86593042Y-74399290D01*
X86578724Y-74397166D01*
X86564683Y-74393649D01*
X86551054Y-74388772D01*
X86537969Y-74382583D01*
X86525553Y-74375142D01*
X86513927Y-74366519D01*
X86503202Y-74356798D01*
X86493481Y-74346073D01*
X86484858Y-74334447D01*
X86477417Y-74322031D01*
X86471228Y-74308946D01*
X86466351Y-74295317D01*
X86462834Y-74281276D01*
X86460710Y-74266958D01*
X86460000Y-74252500D01*
X86460000Y-73907500D01*
X86460710Y-73893042D01*
X86462834Y-73878724D01*
X86466351Y-73864683D01*
X86471228Y-73851054D01*
X86477417Y-73837969D01*
X86484858Y-73825553D01*
X86493481Y-73813927D01*
X86503202Y-73803202D01*
X86513927Y-73793481D01*
X86525553Y-73784858D01*
X86537969Y-73777417D01*
X86551054Y-73771228D01*
X86564683Y-73766351D01*
X86578724Y-73762834D01*
X86593042Y-73760710D01*
X86607500Y-73760000D01*
X86902500Y-73760000D01*
X86916958Y-73760710D01*
X86916958Y-73760710D01*
G37*
D19*
G04 #@! TD*
G04 #@! TO.P,C6,1*
G04 #@! TO.N,Net-(C6-Pad1)*
X86755000Y-74080000D03*
D10*
G04 #@! TO.N,Net-(C7-Pad1)*
G04 #@! TO.C,C7*
G36*
X86076958Y-69080710D02*
X86091276Y-69082834D01*
X86105317Y-69086351D01*
X86118946Y-69091228D01*
X86132031Y-69097417D01*
X86144447Y-69104858D01*
X86156073Y-69113481D01*
X86166798Y-69123202D01*
X86176519Y-69133927D01*
X86185142Y-69145553D01*
X86192583Y-69157969D01*
X86198772Y-69171054D01*
X86203649Y-69184683D01*
X86207166Y-69198724D01*
X86209290Y-69213042D01*
X86210000Y-69227500D01*
X86210000Y-69572500D01*
X86209290Y-69586958D01*
X86207166Y-69601276D01*
X86203649Y-69615317D01*
X86198772Y-69628946D01*
X86192583Y-69642031D01*
X86185142Y-69654447D01*
X86176519Y-69666073D01*
X86166798Y-69676798D01*
X86156073Y-69686519D01*
X86144447Y-69695142D01*
X86132031Y-69702583D01*
X86118946Y-69708772D01*
X86105317Y-69713649D01*
X86091276Y-69717166D01*
X86076958Y-69719290D01*
X86062500Y-69720000D01*
X85767500Y-69720000D01*
X85753042Y-69719290D01*
X85738724Y-69717166D01*
X85724683Y-69713649D01*
X85711054Y-69708772D01*
X85697969Y-69702583D01*
X85685553Y-69695142D01*
X85673927Y-69686519D01*
X85663202Y-69676798D01*
X85653481Y-69666073D01*
X85644858Y-69654447D01*
X85637417Y-69642031D01*
X85631228Y-69628946D01*
X85626351Y-69615317D01*
X85622834Y-69601276D01*
X85620710Y-69586958D01*
X85620000Y-69572500D01*
X85620000Y-69227500D01*
X85620710Y-69213042D01*
X85622834Y-69198724D01*
X85626351Y-69184683D01*
X85631228Y-69171054D01*
X85637417Y-69157969D01*
X85644858Y-69145553D01*
X85653481Y-69133927D01*
X85663202Y-69123202D01*
X85673927Y-69113481D01*
X85685553Y-69104858D01*
X85697969Y-69097417D01*
X85711054Y-69091228D01*
X85724683Y-69086351D01*
X85738724Y-69082834D01*
X85753042Y-69080710D01*
X85767500Y-69080000D01*
X86062500Y-69080000D01*
X86076958Y-69080710D01*
X86076958Y-69080710D01*
G37*
D19*
G04 #@! TD*
G04 #@! TO.P,C7,1*
G04 #@! TO.N,Net-(C7-Pad1)*
X85915000Y-69400000D03*
D10*
G04 #@! TO.N,GND*
G04 #@! TO.C,C7*
G36*
X87046958Y-69080710D02*
X87061276Y-69082834D01*
X87075317Y-69086351D01*
X87088946Y-69091228D01*
X87102031Y-69097417D01*
X87114447Y-69104858D01*
X87126073Y-69113481D01*
X87136798Y-69123202D01*
X87146519Y-69133927D01*
X87155142Y-69145553D01*
X87162583Y-69157969D01*
X87168772Y-69171054D01*
X87173649Y-69184683D01*
X87177166Y-69198724D01*
X87179290Y-69213042D01*
X87180000Y-69227500D01*
X87180000Y-69572500D01*
X87179290Y-69586958D01*
X87177166Y-69601276D01*
X87173649Y-69615317D01*
X87168772Y-69628946D01*
X87162583Y-69642031D01*
X87155142Y-69654447D01*
X87146519Y-69666073D01*
X87136798Y-69676798D01*
X87126073Y-69686519D01*
X87114447Y-69695142D01*
X87102031Y-69702583D01*
X87088946Y-69708772D01*
X87075317Y-69713649D01*
X87061276Y-69717166D01*
X87046958Y-69719290D01*
X87032500Y-69720000D01*
X86737500Y-69720000D01*
X86723042Y-69719290D01*
X86708724Y-69717166D01*
X86694683Y-69713649D01*
X86681054Y-69708772D01*
X86667969Y-69702583D01*
X86655553Y-69695142D01*
X86643927Y-69686519D01*
X86633202Y-69676798D01*
X86623481Y-69666073D01*
X86614858Y-69654447D01*
X86607417Y-69642031D01*
X86601228Y-69628946D01*
X86596351Y-69615317D01*
X86592834Y-69601276D01*
X86590710Y-69586958D01*
X86590000Y-69572500D01*
X86590000Y-69227500D01*
X86590710Y-69213042D01*
X86592834Y-69198724D01*
X86596351Y-69184683D01*
X86601228Y-69171054D01*
X86607417Y-69157969D01*
X86614858Y-69145553D01*
X86623481Y-69133927D01*
X86633202Y-69123202D01*
X86643927Y-69113481D01*
X86655553Y-69104858D01*
X86667969Y-69097417D01*
X86681054Y-69091228D01*
X86694683Y-69086351D01*
X86708724Y-69082834D01*
X86723042Y-69080710D01*
X86737500Y-69080000D01*
X87032500Y-69080000D01*
X87046958Y-69080710D01*
X87046958Y-69080710D01*
G37*
D19*
G04 #@! TD*
G04 #@! TO.P,C7,2*
G04 #@! TO.N,GND*
X86885000Y-69400000D03*
D10*
G04 #@! TO.N,VCC*
G04 #@! TO.C,C8*
G36*
X97336958Y-74850710D02*
X97351276Y-74852834D01*
X97365317Y-74856351D01*
X97378946Y-74861228D01*
X97392031Y-74867417D01*
X97404447Y-74874858D01*
X97416073Y-74883481D01*
X97426798Y-74893202D01*
X97436519Y-74903927D01*
X97445142Y-74915553D01*
X97452583Y-74927969D01*
X97458772Y-74941054D01*
X97463649Y-74954683D01*
X97467166Y-74968724D01*
X97469290Y-74983042D01*
X97470000Y-74997500D01*
X97470000Y-75342500D01*
X97469290Y-75356958D01*
X97467166Y-75371276D01*
X97463649Y-75385317D01*
X97458772Y-75398946D01*
X97452583Y-75412031D01*
X97445142Y-75424447D01*
X97436519Y-75436073D01*
X97426798Y-75446798D01*
X97416073Y-75456519D01*
X97404447Y-75465142D01*
X97392031Y-75472583D01*
X97378946Y-75478772D01*
X97365317Y-75483649D01*
X97351276Y-75487166D01*
X97336958Y-75489290D01*
X97322500Y-75490000D01*
X97027500Y-75490000D01*
X97013042Y-75489290D01*
X96998724Y-75487166D01*
X96984683Y-75483649D01*
X96971054Y-75478772D01*
X96957969Y-75472583D01*
X96945553Y-75465142D01*
X96933927Y-75456519D01*
X96923202Y-75446798D01*
X96913481Y-75436073D01*
X96904858Y-75424447D01*
X96897417Y-75412031D01*
X96891228Y-75398946D01*
X96886351Y-75385317D01*
X96882834Y-75371276D01*
X96880710Y-75356958D01*
X96880000Y-75342500D01*
X96880000Y-74997500D01*
X96880710Y-74983042D01*
X96882834Y-74968724D01*
X96886351Y-74954683D01*
X96891228Y-74941054D01*
X96897417Y-74927969D01*
X96904858Y-74915553D01*
X96913481Y-74903927D01*
X96923202Y-74893202D01*
X96933927Y-74883481D01*
X96945553Y-74874858D01*
X96957969Y-74867417D01*
X96971054Y-74861228D01*
X96984683Y-74856351D01*
X96998724Y-74852834D01*
X97013042Y-74850710D01*
X97027500Y-74850000D01*
X97322500Y-74850000D01*
X97336958Y-74850710D01*
X97336958Y-74850710D01*
G37*
D19*
G04 #@! TD*
G04 #@! TO.P,C8,1*
G04 #@! TO.N,VCC*
X97175000Y-75170000D03*
D10*
G04 #@! TO.N,GND*
G04 #@! TO.C,C8*
G36*
X98306958Y-74850710D02*
X98321276Y-74852834D01*
X98335317Y-74856351D01*
X98348946Y-74861228D01*
X98362031Y-74867417D01*
X98374447Y-74874858D01*
X98386073Y-74883481D01*
X98396798Y-74893202D01*
X98406519Y-74903927D01*
X98415142Y-74915553D01*
X98422583Y-74927969D01*
X98428772Y-74941054D01*
X98433649Y-74954683D01*
X98437166Y-74968724D01*
X98439290Y-74983042D01*
X98440000Y-74997500D01*
X98440000Y-75342500D01*
X98439290Y-75356958D01*
X98437166Y-75371276D01*
X98433649Y-75385317D01*
X98428772Y-75398946D01*
X98422583Y-75412031D01*
X98415142Y-75424447D01*
X98406519Y-75436073D01*
X98396798Y-75446798D01*
X98386073Y-75456519D01*
X98374447Y-75465142D01*
X98362031Y-75472583D01*
X98348946Y-75478772D01*
X98335317Y-75483649D01*
X98321276Y-75487166D01*
X98306958Y-75489290D01*
X98292500Y-75490000D01*
X97997500Y-75490000D01*
X97983042Y-75489290D01*
X97968724Y-75487166D01*
X97954683Y-75483649D01*
X97941054Y-75478772D01*
X97927969Y-75472583D01*
X97915553Y-75465142D01*
X97903927Y-75456519D01*
X97893202Y-75446798D01*
X97883481Y-75436073D01*
X97874858Y-75424447D01*
X97867417Y-75412031D01*
X97861228Y-75398946D01*
X97856351Y-75385317D01*
X97852834Y-75371276D01*
X97850710Y-75356958D01*
X97850000Y-75342500D01*
X97850000Y-74997500D01*
X97850710Y-74983042D01*
X97852834Y-74968724D01*
X97856351Y-74954683D01*
X97861228Y-74941054D01*
X97867417Y-74927969D01*
X97874858Y-74915553D01*
X97883481Y-74903927D01*
X97893202Y-74893202D01*
X97903927Y-74883481D01*
X97915553Y-74874858D01*
X97927969Y-74867417D01*
X97941054Y-74861228D01*
X97954683Y-74856351D01*
X97968724Y-74852834D01*
X97983042Y-74850710D01*
X97997500Y-74850000D01*
X98292500Y-74850000D01*
X98306958Y-74850710D01*
X98306958Y-74850710D01*
G37*
D19*
G04 #@! TD*
G04 #@! TO.P,C8,2*
G04 #@! TO.N,GND*
X98145000Y-75170000D03*
D10*
G04 #@! TO.N,Net-(C9-Pad1)*
G04 #@! TO.C,C9*
G36*
X95427691Y-67226053D02*
X95448926Y-67229203D01*
X95469750Y-67234419D01*
X95489962Y-67241651D01*
X95509368Y-67250830D01*
X95527781Y-67261866D01*
X95545024Y-67274654D01*
X95560930Y-67289070D01*
X95575346Y-67304976D01*
X95588134Y-67322219D01*
X95599170Y-67340632D01*
X95608349Y-67360038D01*
X95615581Y-67380250D01*
X95620797Y-67401074D01*
X95623947Y-67422309D01*
X95625000Y-67443750D01*
X95625000Y-67956250D01*
X95623947Y-67977691D01*
X95620797Y-67998926D01*
X95615581Y-68019750D01*
X95608349Y-68039962D01*
X95599170Y-68059368D01*
X95588134Y-68077781D01*
X95575346Y-68095024D01*
X95560930Y-68110930D01*
X95545024Y-68125346D01*
X95527781Y-68138134D01*
X95509368Y-68149170D01*
X95489962Y-68158349D01*
X95469750Y-68165581D01*
X95448926Y-68170797D01*
X95427691Y-68173947D01*
X95406250Y-68175000D01*
X94968750Y-68175000D01*
X94947309Y-68173947D01*
X94926074Y-68170797D01*
X94905250Y-68165581D01*
X94885038Y-68158349D01*
X94865632Y-68149170D01*
X94847219Y-68138134D01*
X94829976Y-68125346D01*
X94814070Y-68110930D01*
X94799654Y-68095024D01*
X94786866Y-68077781D01*
X94775830Y-68059368D01*
X94766651Y-68039962D01*
X94759419Y-68019750D01*
X94754203Y-67998926D01*
X94751053Y-67977691D01*
X94750000Y-67956250D01*
X94750000Y-67443750D01*
X94751053Y-67422309D01*
X94754203Y-67401074D01*
X94759419Y-67380250D01*
X94766651Y-67360038D01*
X94775830Y-67340632D01*
X94786866Y-67322219D01*
X94799654Y-67304976D01*
X94814070Y-67289070D01*
X94829976Y-67274654D01*
X94847219Y-67261866D01*
X94865632Y-67250830D01*
X94885038Y-67241651D01*
X94905250Y-67234419D01*
X94926074Y-67229203D01*
X94947309Y-67226053D01*
X94968750Y-67225000D01*
X95406250Y-67225000D01*
X95427691Y-67226053D01*
X95427691Y-67226053D01*
G37*
D18*
G04 #@! TD*
G04 #@! TO.P,C9,1*
G04 #@! TO.N,Net-(C9-Pad1)*
X95187500Y-67700000D03*
D10*
G04 #@! TO.N,GND*
G04 #@! TO.C,C9*
G36*
X93852691Y-67226053D02*
X93873926Y-67229203D01*
X93894750Y-67234419D01*
X93914962Y-67241651D01*
X93934368Y-67250830D01*
X93952781Y-67261866D01*
X93970024Y-67274654D01*
X93985930Y-67289070D01*
X94000346Y-67304976D01*
X94013134Y-67322219D01*
X94024170Y-67340632D01*
X94033349Y-67360038D01*
X94040581Y-67380250D01*
X94045797Y-67401074D01*
X94048947Y-67422309D01*
X94050000Y-67443750D01*
X94050000Y-67956250D01*
X94048947Y-67977691D01*
X94045797Y-67998926D01*
X94040581Y-68019750D01*
X94033349Y-68039962D01*
X94024170Y-68059368D01*
X94013134Y-68077781D01*
X94000346Y-68095024D01*
X93985930Y-68110930D01*
X93970024Y-68125346D01*
X93952781Y-68138134D01*
X93934368Y-68149170D01*
X93914962Y-68158349D01*
X93894750Y-68165581D01*
X93873926Y-68170797D01*
X93852691Y-68173947D01*
X93831250Y-68175000D01*
X93393750Y-68175000D01*
X93372309Y-68173947D01*
X93351074Y-68170797D01*
X93330250Y-68165581D01*
X93310038Y-68158349D01*
X93290632Y-68149170D01*
X93272219Y-68138134D01*
X93254976Y-68125346D01*
X93239070Y-68110930D01*
X93224654Y-68095024D01*
X93211866Y-68077781D01*
X93200830Y-68059368D01*
X93191651Y-68039962D01*
X93184419Y-68019750D01*
X93179203Y-67998926D01*
X93176053Y-67977691D01*
X93175000Y-67956250D01*
X93175000Y-67443750D01*
X93176053Y-67422309D01*
X93179203Y-67401074D01*
X93184419Y-67380250D01*
X93191651Y-67360038D01*
X93200830Y-67340632D01*
X93211866Y-67322219D01*
X93224654Y-67304976D01*
X93239070Y-67289070D01*
X93254976Y-67274654D01*
X93272219Y-67261866D01*
X93290632Y-67250830D01*
X93310038Y-67241651D01*
X93330250Y-67234419D01*
X93351074Y-67229203D01*
X93372309Y-67226053D01*
X93393750Y-67225000D01*
X93831250Y-67225000D01*
X93852691Y-67226053D01*
X93852691Y-67226053D01*
G37*
D18*
G04 #@! TD*
G04 #@! TO.P,C9,2*
G04 #@! TO.N,GND*
X93612500Y-67700000D03*
D10*
G04 #@! TO.N,GND*
G04 #@! TO.C,C10*
G36*
X97952691Y-70026053D02*
X97973926Y-70029203D01*
X97994750Y-70034419D01*
X98014962Y-70041651D01*
X98034368Y-70050830D01*
X98052781Y-70061866D01*
X98070024Y-70074654D01*
X98085930Y-70089070D01*
X98100346Y-70104976D01*
X98113134Y-70122219D01*
X98124170Y-70140632D01*
X98133349Y-70160038D01*
X98140581Y-70180250D01*
X98145797Y-70201074D01*
X98148947Y-70222309D01*
X98150000Y-70243750D01*
X98150000Y-70756250D01*
X98148947Y-70777691D01*
X98145797Y-70798926D01*
X98140581Y-70819750D01*
X98133349Y-70839962D01*
X98124170Y-70859368D01*
X98113134Y-70877781D01*
X98100346Y-70895024D01*
X98085930Y-70910930D01*
X98070024Y-70925346D01*
X98052781Y-70938134D01*
X98034368Y-70949170D01*
X98014962Y-70958349D01*
X97994750Y-70965581D01*
X97973926Y-70970797D01*
X97952691Y-70973947D01*
X97931250Y-70975000D01*
X97493750Y-70975000D01*
X97472309Y-70973947D01*
X97451074Y-70970797D01*
X97430250Y-70965581D01*
X97410038Y-70958349D01*
X97390632Y-70949170D01*
X97372219Y-70938134D01*
X97354976Y-70925346D01*
X97339070Y-70910930D01*
X97324654Y-70895024D01*
X97311866Y-70877781D01*
X97300830Y-70859368D01*
X97291651Y-70839962D01*
X97284419Y-70819750D01*
X97279203Y-70798926D01*
X97276053Y-70777691D01*
X97275000Y-70756250D01*
X97275000Y-70243750D01*
X97276053Y-70222309D01*
X97279203Y-70201074D01*
X97284419Y-70180250D01*
X97291651Y-70160038D01*
X97300830Y-70140632D01*
X97311866Y-70122219D01*
X97324654Y-70104976D01*
X97339070Y-70089070D01*
X97354976Y-70074654D01*
X97372219Y-70061866D01*
X97390632Y-70050830D01*
X97410038Y-70041651D01*
X97430250Y-70034419D01*
X97451074Y-70029203D01*
X97472309Y-70026053D01*
X97493750Y-70025000D01*
X97931250Y-70025000D01*
X97952691Y-70026053D01*
X97952691Y-70026053D01*
G37*
D18*
G04 #@! TD*
G04 #@! TO.P,C10,2*
G04 #@! TO.N,GND*
X97712500Y-70500000D03*
D10*
G04 #@! TO.N,VCC*
G04 #@! TO.C,C10*
G36*
X99527691Y-70026053D02*
X99548926Y-70029203D01*
X99569750Y-70034419D01*
X99589962Y-70041651D01*
X99609368Y-70050830D01*
X99627781Y-70061866D01*
X99645024Y-70074654D01*
X99660930Y-70089070D01*
X99675346Y-70104976D01*
X99688134Y-70122219D01*
X99699170Y-70140632D01*
X99708349Y-70160038D01*
X99715581Y-70180250D01*
X99720797Y-70201074D01*
X99723947Y-70222309D01*
X99725000Y-70243750D01*
X99725000Y-70756250D01*
X99723947Y-70777691D01*
X99720797Y-70798926D01*
X99715581Y-70819750D01*
X99708349Y-70839962D01*
X99699170Y-70859368D01*
X99688134Y-70877781D01*
X99675346Y-70895024D01*
X99660930Y-70910930D01*
X99645024Y-70925346D01*
X99627781Y-70938134D01*
X99609368Y-70949170D01*
X99589962Y-70958349D01*
X99569750Y-70965581D01*
X99548926Y-70970797D01*
X99527691Y-70973947D01*
X99506250Y-70975000D01*
X99068750Y-70975000D01*
X99047309Y-70973947D01*
X99026074Y-70970797D01*
X99005250Y-70965581D01*
X98985038Y-70958349D01*
X98965632Y-70949170D01*
X98947219Y-70938134D01*
X98929976Y-70925346D01*
X98914070Y-70910930D01*
X98899654Y-70895024D01*
X98886866Y-70877781D01*
X98875830Y-70859368D01*
X98866651Y-70839962D01*
X98859419Y-70819750D01*
X98854203Y-70798926D01*
X98851053Y-70777691D01*
X98850000Y-70756250D01*
X98850000Y-70243750D01*
X98851053Y-70222309D01*
X98854203Y-70201074D01*
X98859419Y-70180250D01*
X98866651Y-70160038D01*
X98875830Y-70140632D01*
X98886866Y-70122219D01*
X98899654Y-70104976D01*
X98914070Y-70089070D01*
X98929976Y-70074654D01*
X98947219Y-70061866D01*
X98965632Y-70050830D01*
X98985038Y-70041651D01*
X99005250Y-70034419D01*
X99026074Y-70029203D01*
X99047309Y-70026053D01*
X99068750Y-70025000D01*
X99506250Y-70025000D01*
X99527691Y-70026053D01*
X99527691Y-70026053D01*
G37*
D18*
G04 #@! TD*
G04 #@! TO.P,C10,1*
G04 #@! TO.N,VCC*
X99287500Y-70500000D03*
D10*
G04 #@! TO.N,/LED*
G04 #@! TO.C,R1*
G36*
X93126958Y-76770710D02*
X93141276Y-76772834D01*
X93155317Y-76776351D01*
X93168946Y-76781228D01*
X93182031Y-76787417D01*
X93194447Y-76794858D01*
X93206073Y-76803481D01*
X93216798Y-76813202D01*
X93226519Y-76823927D01*
X93235142Y-76835553D01*
X93242583Y-76847969D01*
X93248772Y-76861054D01*
X93253649Y-76874683D01*
X93257166Y-76888724D01*
X93259290Y-76903042D01*
X93260000Y-76917500D01*
X93260000Y-77262500D01*
X93259290Y-77276958D01*
X93257166Y-77291276D01*
X93253649Y-77305317D01*
X93248772Y-77318946D01*
X93242583Y-77332031D01*
X93235142Y-77344447D01*
X93226519Y-77356073D01*
X93216798Y-77366798D01*
X93206073Y-77376519D01*
X93194447Y-77385142D01*
X93182031Y-77392583D01*
X93168946Y-77398772D01*
X93155317Y-77403649D01*
X93141276Y-77407166D01*
X93126958Y-77409290D01*
X93112500Y-77410000D01*
X92817500Y-77410000D01*
X92803042Y-77409290D01*
X92788724Y-77407166D01*
X92774683Y-77403649D01*
X92761054Y-77398772D01*
X92747969Y-77392583D01*
X92735553Y-77385142D01*
X92723927Y-77376519D01*
X92713202Y-77366798D01*
X92703481Y-77356073D01*
X92694858Y-77344447D01*
X92687417Y-77332031D01*
X92681228Y-77318946D01*
X92676351Y-77305317D01*
X92672834Y-77291276D01*
X92670710Y-77276958D01*
X92670000Y-77262500D01*
X92670000Y-76917500D01*
X92670710Y-76903042D01*
X92672834Y-76888724D01*
X92676351Y-76874683D01*
X92681228Y-76861054D01*
X92687417Y-76847969D01*
X92694858Y-76835553D01*
X92703481Y-76823927D01*
X92713202Y-76813202D01*
X92723927Y-76803481D01*
X92735553Y-76794858D01*
X92747969Y-76787417D01*
X92761054Y-76781228D01*
X92774683Y-76776351D01*
X92788724Y-76772834D01*
X92803042Y-76770710D01*
X92817500Y-76770000D01*
X93112500Y-76770000D01*
X93126958Y-76770710D01*
X93126958Y-76770710D01*
G37*
D19*
G04 #@! TD*
G04 #@! TO.P,R1,1*
G04 #@! TO.N,/LED*
X92965000Y-77090000D03*
D10*
G04 #@! TO.N,Net-(D1-Pad2)*
G04 #@! TO.C,R1*
G36*
X94096958Y-76770710D02*
X94111276Y-76772834D01*
X94125317Y-76776351D01*
X94138946Y-76781228D01*
X94152031Y-76787417D01*
X94164447Y-76794858D01*
X94176073Y-76803481D01*
X94186798Y-76813202D01*
X94196519Y-76823927D01*
X94205142Y-76835553D01*
X94212583Y-76847969D01*
X94218772Y-76861054D01*
X94223649Y-76874683D01*
X94227166Y-76888724D01*
X94229290Y-76903042D01*
X94230000Y-76917500D01*
X94230000Y-77262500D01*
X94229290Y-77276958D01*
X94227166Y-77291276D01*
X94223649Y-77305317D01*
X94218772Y-77318946D01*
X94212583Y-77332031D01*
X94205142Y-77344447D01*
X94196519Y-77356073D01*
X94186798Y-77366798D01*
X94176073Y-77376519D01*
X94164447Y-77385142D01*
X94152031Y-77392583D01*
X94138946Y-77398772D01*
X94125317Y-77403649D01*
X94111276Y-77407166D01*
X94096958Y-77409290D01*
X94082500Y-77410000D01*
X93787500Y-77410000D01*
X93773042Y-77409290D01*
X93758724Y-77407166D01*
X93744683Y-77403649D01*
X93731054Y-77398772D01*
X93717969Y-77392583D01*
X93705553Y-77385142D01*
X93693927Y-77376519D01*
X93683202Y-77366798D01*
X93673481Y-77356073D01*
X93664858Y-77344447D01*
X93657417Y-77332031D01*
X93651228Y-77318946D01*
X93646351Y-77305317D01*
X93642834Y-77291276D01*
X93640710Y-77276958D01*
X93640000Y-77262500D01*
X93640000Y-76917500D01*
X93640710Y-76903042D01*
X93642834Y-76888724D01*
X93646351Y-76874683D01*
X93651228Y-76861054D01*
X93657417Y-76847969D01*
X93664858Y-76835553D01*
X93673481Y-76823927D01*
X93683202Y-76813202D01*
X93693927Y-76803481D01*
X93705553Y-76794858D01*
X93717969Y-76787417D01*
X93731054Y-76781228D01*
X93744683Y-76776351D01*
X93758724Y-76772834D01*
X93773042Y-76770710D01*
X93787500Y-76770000D01*
X94082500Y-76770000D01*
X94096958Y-76770710D01*
X94096958Y-76770710D01*
G37*
D19*
G04 #@! TD*
G04 #@! TO.P,R1,2*
G04 #@! TO.N,Net-(D1-Pad2)*
X93935000Y-77090000D03*
D10*
G04 #@! TO.N,GND*
G04 #@! TO.C,D1*
G36*
X96937691Y-76616053D02*
X96958926Y-76619203D01*
X96979750Y-76624419D01*
X96999962Y-76631651D01*
X97019368Y-76640830D01*
X97037781Y-76651866D01*
X97055024Y-76664654D01*
X97070930Y-76679070D01*
X97085346Y-76694976D01*
X97098134Y-76712219D01*
X97109170Y-76730632D01*
X97118349Y-76750038D01*
X97125581Y-76770250D01*
X97130797Y-76791074D01*
X97133947Y-76812309D01*
X97135000Y-76833750D01*
X97135000Y-77346250D01*
X97133947Y-77367691D01*
X97130797Y-77388926D01*
X97125581Y-77409750D01*
X97118349Y-77429962D01*
X97109170Y-77449368D01*
X97098134Y-77467781D01*
X97085346Y-77485024D01*
X97070930Y-77500930D01*
X97055024Y-77515346D01*
X97037781Y-77528134D01*
X97019368Y-77539170D01*
X96999962Y-77548349D01*
X96979750Y-77555581D01*
X96958926Y-77560797D01*
X96937691Y-77563947D01*
X96916250Y-77565000D01*
X96478750Y-77565000D01*
X96457309Y-77563947D01*
X96436074Y-77560797D01*
X96415250Y-77555581D01*
X96395038Y-77548349D01*
X96375632Y-77539170D01*
X96357219Y-77528134D01*
X96339976Y-77515346D01*
X96324070Y-77500930D01*
X96309654Y-77485024D01*
X96296866Y-77467781D01*
X96285830Y-77449368D01*
X96276651Y-77429962D01*
X96269419Y-77409750D01*
X96264203Y-77388926D01*
X96261053Y-77367691D01*
X96260000Y-77346250D01*
X96260000Y-76833750D01*
X96261053Y-76812309D01*
X96264203Y-76791074D01*
X96269419Y-76770250D01*
X96276651Y-76750038D01*
X96285830Y-76730632D01*
X96296866Y-76712219D01*
X96309654Y-76694976D01*
X96324070Y-76679070D01*
X96339976Y-76664654D01*
X96357219Y-76651866D01*
X96375632Y-76640830D01*
X96395038Y-76631651D01*
X96415250Y-76624419D01*
X96436074Y-76619203D01*
X96457309Y-76616053D01*
X96478750Y-76615000D01*
X96916250Y-76615000D01*
X96937691Y-76616053D01*
X96937691Y-76616053D01*
G37*
D18*
G04 #@! TD*
G04 #@! TO.P,D1,1*
G04 #@! TO.N,GND*
X96697500Y-77090000D03*
D10*
G04 #@! TO.N,Net-(D1-Pad2)*
G04 #@! TO.C,D1*
G36*
X95362691Y-76616053D02*
X95383926Y-76619203D01*
X95404750Y-76624419D01*
X95424962Y-76631651D01*
X95444368Y-76640830D01*
X95462781Y-76651866D01*
X95480024Y-76664654D01*
X95495930Y-76679070D01*
X95510346Y-76694976D01*
X95523134Y-76712219D01*
X95534170Y-76730632D01*
X95543349Y-76750038D01*
X95550581Y-76770250D01*
X95555797Y-76791074D01*
X95558947Y-76812309D01*
X95560000Y-76833750D01*
X95560000Y-77346250D01*
X95558947Y-77367691D01*
X95555797Y-77388926D01*
X95550581Y-77409750D01*
X95543349Y-77429962D01*
X95534170Y-77449368D01*
X95523134Y-77467781D01*
X95510346Y-77485024D01*
X95495930Y-77500930D01*
X95480024Y-77515346D01*
X95462781Y-77528134D01*
X95444368Y-77539170D01*
X95424962Y-77548349D01*
X95404750Y-77555581D01*
X95383926Y-77560797D01*
X95362691Y-77563947D01*
X95341250Y-77565000D01*
X94903750Y-77565000D01*
X94882309Y-77563947D01*
X94861074Y-77560797D01*
X94840250Y-77555581D01*
X94820038Y-77548349D01*
X94800632Y-77539170D01*
X94782219Y-77528134D01*
X94764976Y-77515346D01*
X94749070Y-77500930D01*
X94734654Y-77485024D01*
X94721866Y-77467781D01*
X94710830Y-77449368D01*
X94701651Y-77429962D01*
X94694419Y-77409750D01*
X94689203Y-77388926D01*
X94686053Y-77367691D01*
X94685000Y-77346250D01*
X94685000Y-76833750D01*
X94686053Y-76812309D01*
X94689203Y-76791074D01*
X94694419Y-76770250D01*
X94701651Y-76750038D01*
X94710830Y-76730632D01*
X94721866Y-76712219D01*
X94734654Y-76694976D01*
X94749070Y-76679070D01*
X94764976Y-76664654D01*
X94782219Y-76651866D01*
X94800632Y-76640830D01*
X94820038Y-76631651D01*
X94840250Y-76624419D01*
X94861074Y-76619203D01*
X94882309Y-76616053D01*
X94903750Y-76615000D01*
X95341250Y-76615000D01*
X95362691Y-76616053D01*
X95362691Y-76616053D01*
G37*
D18*
G04 #@! TD*
G04 #@! TO.P,D1,2*
G04 #@! TO.N,Net-(D1-Pad2)*
X95122500Y-77090000D03*
D20*
G04 #@! TO.P,X1,1*
G04 #@! TO.N,Net-(C6-Pad1)*
X87200000Y-72820000D03*
G04 #@! TO.P,X1,2*
G04 #@! TO.N,GND*
X87200000Y-70620000D03*
G04 #@! TO.P,X1,3*
G04 #@! TO.N,Net-(C7-Pad1)*
X85600000Y-70620000D03*
G04 #@! TO.P,X1,4*
G04 #@! TO.N,GND*
X85600000Y-72820000D03*
G04 #@! TD*
D10*
G04 #@! TO.N,VCC*
G04 #@! TO.C,CONN1*
G36*
X95969603Y-64530963D02*
X95989018Y-64533843D01*
X96008057Y-64538612D01*
X96026537Y-64545224D01*
X96044279Y-64553616D01*
X96061114Y-64563706D01*
X96076879Y-64575398D01*
X96091421Y-64588579D01*
X96104602Y-64603121D01*
X96116294Y-64618886D01*
X96126384Y-64635721D01*
X96134776Y-64653463D01*
X96141388Y-64671943D01*
X96146157Y-64690982D01*
X96149037Y-64710397D01*
X96150000Y-64730000D01*
X96150000Y-65630000D01*
X96149037Y-65649603D01*
X96146157Y-65669018D01*
X96141388Y-65688057D01*
X96134776Y-65706537D01*
X96126384Y-65724279D01*
X96116294Y-65741114D01*
X96104602Y-65756879D01*
X96091421Y-65771421D01*
X96076879Y-65784602D01*
X96061114Y-65796294D01*
X96044279Y-65806384D01*
X96026537Y-65814776D01*
X96008057Y-65821388D01*
X95989018Y-65826157D01*
X95969603Y-65829037D01*
X95950000Y-65830000D01*
X95550000Y-65830000D01*
X95530397Y-65829037D01*
X95510982Y-65826157D01*
X95491943Y-65821388D01*
X95473463Y-65814776D01*
X95455721Y-65806384D01*
X95438886Y-65796294D01*
X95423121Y-65784602D01*
X95408579Y-65771421D01*
X95395398Y-65756879D01*
X95383706Y-65741114D01*
X95373616Y-65724279D01*
X95365224Y-65706537D01*
X95358612Y-65688057D01*
X95353843Y-65669018D01*
X95350963Y-65649603D01*
X95350000Y-65630000D01*
X95350000Y-64730000D01*
X95350963Y-64710397D01*
X95353843Y-64690982D01*
X95358612Y-64671943D01*
X95365224Y-64653463D01*
X95373616Y-64635721D01*
X95383706Y-64618886D01*
X95395398Y-64603121D01*
X95408579Y-64588579D01*
X95423121Y-64575398D01*
X95438886Y-64563706D01*
X95455721Y-64553616D01*
X95473463Y-64545224D01*
X95491943Y-64538612D01*
X95510982Y-64533843D01*
X95530397Y-64530963D01*
X95550000Y-64530000D01*
X95950000Y-64530000D01*
X95969603Y-64530963D01*
X95969603Y-64530963D01*
G37*
D21*
G04 #@! TD*
G04 #@! TO.P,CONN1,1*
G04 #@! TO.N,VCC*
X95750000Y-65180000D03*
D22*
G04 #@! TO.P,CONN1,2*
G04 #@! TO.N,GND*
X94500000Y-65180000D03*
G04 #@! TO.P,CONN1,3*
G04 #@! TO.N,/RST*
X93250000Y-65180000D03*
G04 #@! TO.P,CONN1,4*
G04 #@! TO.N,/SWIO*
X92000000Y-65180000D03*
G04 #@! TO.P,CONN1,5*
G04 #@! TO.N,/SWCK*
X90750000Y-65180000D03*
G04 #@! TO.P,CONN1,6*
G04 #@! TO.N,/IO_PB6_I2C1SCL_UART1TX*
X89500000Y-65180000D03*
G04 #@! TO.P,CONN1,7*
G04 #@! TO.N,/IO_PB7_I2C1SDA_UART1RX*
X88250000Y-65180000D03*
G04 #@! TD*
D23*
G04 #@! TO.P,D2,1*
G04 #@! TO.N,Net-(C9-Pad1)*
X94950000Y-69300000D03*
G04 #@! TO.P,D2,2*
G04 #@! TO.N,/5V_CAN*
X92450000Y-69300000D03*
G04 #@! TD*
D24*
G04 #@! TO.N,GND*
X87570000Y-76100000D03*
X85580000Y-71930000D03*
X86910000Y-68790000D03*
X96697500Y-76250000D03*
X88860000Y-80580000D03*
X85690000Y-76240000D03*
X88900000Y-82600000D03*
X98300000Y-67900000D03*
X91200000Y-73600000D03*
X96700000Y-69000000D03*
X98500000Y-76000000D03*
X98500000Y-79800000D03*
X98200000Y-71400000D03*
X94500000Y-66600000D03*
X89856918Y-70443082D03*
X93900000Y-82600000D03*
X93900000Y-80600000D03*
X84974120Y-67274120D03*
G04 #@! TO.N,/RST*
X85400000Y-68700000D03*
G04 #@! TO.N,/5V_CAN*
X92400000Y-68600000D03*
G04 #@! TO.N,Net-(CONN2-Pad3)*
X96942874Y-71942127D03*
G04 #@! TO.N,Net-(CONN2-Pad4)*
X93747343Y-69838727D03*
G04 #@! TO.N,/PWM3_PA10_TIM1_CH3*
X95152292Y-74660001D03*
G04 #@! TO.N,/PWM2_PA9_TIM1_CH2*
X94435002Y-74939996D03*
G04 #@! TO.N,/PWM1_PA7_TIM17_CH1*
X92133774Y-76744259D03*
G04 #@! TO.N,/PWM0_PA6_TIM16_CH1*
X91364587Y-76708879D03*
G04 #@! TD*
D25*
G04 #@! TO.N,VCC*
X97175000Y-74197998D02*
X97175000Y-74750000D01*
X96267002Y-73290000D02*
X97175000Y-74197998D01*
X97175000Y-74750000D02*
X97175000Y-75170000D01*
X95580000Y-73290000D02*
X96267002Y-73290000D01*
X95359168Y-75405832D02*
X95025000Y-75740000D01*
X95655010Y-75109990D02*
X95359168Y-75405832D01*
X96719990Y-75109990D02*
X95655010Y-75109990D01*
X96780000Y-75170000D02*
X96719990Y-75109990D01*
X97175000Y-75170000D02*
X96780000Y-75170000D01*
D26*
X94030000Y-75740000D02*
X93620000Y-75330000D01*
X95025000Y-75740000D02*
X94030000Y-75740000D01*
D27*
X88336978Y-73830000D02*
X88820000Y-73830000D01*
X87091146Y-75075832D02*
X88336978Y-73830000D01*
X86989168Y-75075832D02*
X87091146Y-75075832D01*
X86655000Y-75410000D02*
X86989168Y-75075832D01*
D25*
X97720000Y-75715000D02*
X97175000Y-75170000D01*
X97720000Y-76020000D02*
X97720000Y-75715000D01*
D26*
X88820000Y-70255000D02*
X88525000Y-69960000D01*
X88820000Y-71830000D02*
X88820000Y-70255000D01*
D25*
X84394989Y-74109568D02*
X85695421Y-75410000D01*
X84394989Y-68722993D02*
X84394989Y-74109568D01*
X85557992Y-67559990D02*
X84394989Y-68722993D01*
X87727490Y-67559990D02*
X85557992Y-67559990D01*
X87992500Y-67825000D02*
X87727490Y-67559990D01*
X85695421Y-75410000D02*
X86655000Y-75410000D01*
X87992500Y-68400000D02*
X87992500Y-67825000D01*
X88525000Y-68932500D02*
X87992500Y-68400000D01*
X88525000Y-69960000D02*
X88525000Y-68932500D01*
X97720000Y-76700000D02*
X97720000Y-76020000D01*
X97720000Y-78300000D02*
X97720000Y-76700000D01*
X97720000Y-79580000D02*
X97720000Y-78300000D01*
X88223736Y-81320000D02*
X95980000Y-81320000D01*
X86655000Y-79751264D02*
X88223736Y-81320000D01*
X95980000Y-81320000D02*
X97720000Y-79580000D01*
X86655000Y-75410000D02*
X86655000Y-79751264D01*
X99300000Y-68100000D02*
X99300000Y-69000000D01*
X99300000Y-65791998D02*
X99300000Y-68100000D01*
X98688002Y-65180000D02*
X99300000Y-65791998D01*
X95750000Y-65180000D02*
X98688002Y-65180000D01*
X99300000Y-70487500D02*
X99287500Y-70500000D01*
X99300000Y-69000000D02*
X99300000Y-70487500D01*
X98710202Y-76700000D02*
X97720000Y-76700000D01*
X99670000Y-71457500D02*
X99670000Y-75740202D01*
X99287500Y-71075000D02*
X99670000Y-71457500D01*
X99670000Y-75740202D02*
X98710202Y-76700000D01*
X99287500Y-70500000D02*
X99287500Y-71075000D01*
G04 #@! TO.N,GND*
X97618444Y-73940000D02*
X98180000Y-73940000D01*
X96318444Y-72640000D02*
X97618444Y-73940000D01*
X95580000Y-72640000D02*
X96318444Y-72640000D01*
D26*
X95660832Y-76074168D02*
X95995000Y-75740000D01*
X95414990Y-76320010D02*
X95660832Y-76074168D01*
X94100879Y-76320010D02*
X95414990Y-76320010D01*
X93760869Y-75980000D02*
X94100879Y-76320010D01*
X92970000Y-75980000D02*
X93760869Y-75980000D01*
X92970000Y-75330000D02*
X92082500Y-74442500D01*
X92970000Y-75980000D02*
X92970000Y-75330000D01*
X90245000Y-74330000D02*
X90357500Y-74442500D01*
X88820000Y-74330000D02*
X90245000Y-74330000D01*
D27*
X87625000Y-75015000D02*
X87625000Y-75410000D01*
X88310000Y-74330000D02*
X87625000Y-75015000D01*
X88820000Y-74330000D02*
X88310000Y-74330000D01*
X85785000Y-73005000D02*
X85600000Y-72820000D01*
X85785000Y-74080000D02*
X85785000Y-73005000D01*
X86885000Y-70305000D02*
X87200000Y-70620000D01*
X86885000Y-69400000D02*
X86885000Y-70305000D01*
X87625000Y-76045000D02*
X87570000Y-76100000D01*
X87625000Y-75410000D02*
X87625000Y-76045000D01*
X85600000Y-71950000D02*
X85580000Y-71930000D01*
X85600000Y-72820000D02*
X85600000Y-71950000D01*
X86885000Y-68815000D02*
X86910000Y-68790000D01*
X86885000Y-69400000D02*
X86885000Y-68815000D01*
X96697500Y-75847500D02*
X96590000Y-75740000D01*
X95995000Y-75740000D02*
X96590000Y-75740000D01*
X96697500Y-77090000D02*
X96697500Y-76250000D01*
X96697500Y-76250000D02*
X96697500Y-75847500D01*
X88875000Y-80100000D02*
X88860000Y-80115000D01*
X88875000Y-79200000D02*
X88875000Y-80100000D01*
X88875000Y-80565000D02*
X88860000Y-80580000D01*
X88875000Y-79200000D02*
X88875000Y-80565000D01*
D26*
X89470000Y-71180000D02*
X89970000Y-71180000D01*
X89970000Y-72330000D02*
X90357500Y-72717500D01*
X89970000Y-71180000D02*
X89970000Y-72330000D01*
D27*
X89567500Y-69327500D02*
X89567500Y-68400000D01*
X89495000Y-69400000D02*
X89567500Y-69327500D01*
X89495000Y-69960000D02*
X89495000Y-69400000D01*
D26*
X89470000Y-69985000D02*
X89495000Y-69960000D01*
X89470000Y-71180000D02*
X89470000Y-69985000D01*
D25*
X98500000Y-75525000D02*
X98500000Y-76000000D01*
X98145000Y-75170000D02*
X98500000Y-75525000D01*
D27*
X98145000Y-75170000D02*
X98930000Y-75170000D01*
X98930000Y-75170000D02*
X99100000Y-75000000D01*
D25*
X96375000Y-80100000D02*
X96375000Y-79200000D01*
X96700000Y-69000000D02*
X97400000Y-69000000D01*
D27*
X97768665Y-71400000D02*
X98200000Y-71400000D01*
X97712500Y-71343835D02*
X97768665Y-71400000D01*
X97712500Y-70500000D02*
X97712500Y-71343835D01*
X94500000Y-65180000D02*
X94500000Y-66600000D01*
X93612500Y-67125000D02*
X93612500Y-67700000D01*
X93612500Y-67056165D02*
X93612500Y-67125000D01*
X94068665Y-66600000D02*
X93612500Y-67056165D01*
X94500000Y-66600000D02*
X94068665Y-66600000D01*
D25*
X98980000Y-73940000D02*
X98180000Y-73940000D01*
X99020001Y-73899999D02*
X98980000Y-73940000D01*
X99020001Y-72030001D02*
X99020001Y-73899999D01*
X98980000Y-71990000D02*
X99020001Y-72030001D01*
X98180000Y-71990000D02*
X98980000Y-71990000D01*
X98180000Y-71420000D02*
X98200000Y-71400000D01*
X98180000Y-71990000D02*
X98180000Y-71420000D01*
X89970000Y-70556164D02*
X89856918Y-70443082D01*
X89970000Y-71180000D02*
X89970000Y-70556164D01*
X93880000Y-80580000D02*
X93900000Y-80600000D01*
X95875000Y-80600000D02*
X93900000Y-80600000D01*
X96375000Y-80100000D02*
X95875000Y-80600000D01*
X91375000Y-80555000D02*
X91375000Y-79200000D01*
X91400000Y-80580000D02*
X91375000Y-80555000D01*
X88860000Y-80580000D02*
X91400000Y-80580000D01*
X91400000Y-80580000D02*
X93880000Y-80580000D01*
X85260750Y-66987490D02*
X84974120Y-67274120D01*
X89567500Y-67825000D02*
X88729990Y-66987490D01*
X88729990Y-66987490D02*
X85260750Y-66987490D01*
X89567500Y-68400000D02*
X89567500Y-67825000D01*
D27*
G04 #@! TO.N,/RST*
X84784999Y-73948021D02*
X84784999Y-69315001D01*
X84784999Y-69315001D02*
X85400000Y-68700000D01*
X85476988Y-74640010D02*
X84784999Y-73948021D01*
X88373022Y-73330000D02*
X87063012Y-74640010D01*
X87063012Y-74640010D02*
X85476988Y-74640010D01*
X88820000Y-73330000D02*
X88373022Y-73330000D01*
X85400000Y-68685000D02*
X85895000Y-68190000D01*
X85400000Y-68700000D02*
X85400000Y-68685000D01*
X93300000Y-65230000D02*
X93250000Y-65180000D01*
G04 #@! TO.N,Net-(C6-Pad1)*
X87200000Y-73635000D02*
X86755000Y-74080000D01*
X87200000Y-72820000D02*
X87200000Y-73635000D01*
D26*
X87210000Y-72830000D02*
X87200000Y-72820000D01*
X88820000Y-72830000D02*
X87210000Y-72830000D01*
D27*
G04 #@! TO.N,Net-(C7-Pad1)*
X85600000Y-69715000D02*
X85915000Y-69400000D01*
X85600000Y-70620000D02*
X85600000Y-69715000D01*
D26*
X85600000Y-70745000D02*
X85600000Y-70620000D01*
X85600000Y-70745000D02*
X86555000Y-71700000D01*
X88376998Y-72330000D02*
X88820000Y-72330000D01*
X87746998Y-71700000D02*
X88376998Y-72330000D01*
X86555000Y-71700000D02*
X87746998Y-71700000D01*
D25*
G04 #@! TO.N,/5V_CAN*
X92450000Y-68650000D02*
X92400000Y-68600000D01*
X92450000Y-69300000D02*
X92450000Y-68650000D01*
D27*
G04 #@! TO.N,/SWIO*
X93414120Y-70269990D02*
X91893419Y-70269991D01*
X94210001Y-71065871D02*
X93414120Y-70269990D01*
X94210001Y-72249999D02*
X94210001Y-71065871D01*
X94130000Y-72330000D02*
X94210001Y-72249999D01*
X93620000Y-72330000D02*
X94130000Y-72330000D01*
X91520010Y-69896582D02*
X91893419Y-70269991D01*
X91520010Y-66469990D02*
X91520010Y-69896582D01*
X92000000Y-65990000D02*
X91520010Y-66469990D01*
X92000000Y-65180000D02*
X92000000Y-65990000D01*
G04 #@! TO.N,/SWCK*
X93620000Y-70985000D02*
X93620000Y-71830000D01*
X93225000Y-70590000D02*
X93620000Y-70985000D01*
X91760866Y-70590000D02*
X93225000Y-70590000D01*
X91200000Y-66440000D02*
X91200000Y-70029134D01*
X90750000Y-65990000D02*
X91200000Y-66440000D01*
X91200000Y-70029134D02*
X91760866Y-70590000D01*
X90750000Y-65180000D02*
X90750000Y-65990000D01*
D26*
G04 #@! TO.N,Net-(CONN2-Pad3)*
X97640747Y-72640000D02*
X96942874Y-71942127D01*
X98180000Y-72640000D02*
X97640747Y-72640000D01*
D27*
G04 #@! TO.N,Net-(CONN2-Pad4)*
X97520000Y-73290000D02*
X98180000Y-73290000D01*
X96350001Y-71640001D02*
X96350001Y-72120001D01*
X96200000Y-71490000D02*
X96350001Y-71640001D01*
X96350001Y-72120001D02*
X97520000Y-73290000D01*
X95398616Y-71490000D02*
X96200000Y-71490000D01*
X93747343Y-69838727D02*
X95398616Y-71490000D01*
G04 #@! TO.N,/LED*
X92570000Y-77090000D02*
X92965000Y-77090000D01*
X92370740Y-77289260D02*
X92570000Y-77090000D01*
X91138366Y-77289260D02*
X92370740Y-77289260D01*
X90470000Y-76620894D02*
X91138366Y-77289260D01*
X90470000Y-75980000D02*
X90470000Y-76620894D01*
D26*
G04 #@! TO.N,/CAN_RX*
X94982998Y-73940000D02*
X95580000Y-73940000D01*
X94372998Y-73330000D02*
X94982998Y-73940000D01*
X93620000Y-73330000D02*
X94372998Y-73330000D01*
G04 #@! TO.N,/CAN_TX*
X94950846Y-71990000D02*
X95580000Y-71990000D01*
X94110846Y-72830000D02*
X94950846Y-71990000D01*
X93620000Y-72830000D02*
X94110846Y-72830000D01*
D27*
G04 #@! TO.N,/IO_PB6_I2C1SCL_UART1TX*
X89500000Y-65430000D02*
X89500000Y-65180000D01*
X90790010Y-66720010D02*
X89500000Y-65430000D01*
X90790010Y-70490010D02*
X90790010Y-66720010D01*
X90970000Y-70670000D02*
X90790010Y-70490010D01*
X90970000Y-71180000D02*
X90970000Y-70670000D01*
G04 #@! TO.N,/IO_PB7_I2C1SDA_UART1RX*
X88250000Y-65430000D02*
X88420000Y-65600000D01*
X88250000Y-65180000D02*
X88250000Y-65430000D01*
X88250000Y-65430000D02*
X89120000Y-66300000D01*
X89120000Y-66300000D02*
X89800000Y-66300000D01*
X90470000Y-66970000D02*
X90470000Y-71180000D01*
X89800000Y-66300000D02*
X90470000Y-66970000D01*
G04 #@! TO.N,/PWM3_PA10_TIM1_CH3*
X95038904Y-74660001D02*
X95152292Y-74660001D01*
X94208903Y-73830000D02*
X95038904Y-74660001D01*
X93620000Y-73830000D02*
X94208903Y-73830000D01*
G04 #@! TO.N,/PWM2_PA9_TIM1_CH2*
X94130000Y-74330000D02*
X93620000Y-74330000D01*
X94256341Y-74330000D02*
X94130000Y-74330000D01*
X94435002Y-74508661D02*
X94256341Y-74330000D01*
X94435002Y-74939996D02*
X94435002Y-74508661D01*
G04 #@! TO.N,/PWM1_PA7_TIM17_CH1*
X91970000Y-76580485D02*
X92133774Y-76744259D01*
X91970000Y-75980000D02*
X91970000Y-76580485D01*
G04 #@! TO.N,/PWM0_PA6_TIM16_CH1*
X91470000Y-76603466D02*
X91364587Y-76708879D01*
X91470000Y-75980000D02*
X91470000Y-76603466D01*
G04 #@! TO.N,/IO0_PA0*
X88310000Y-74830000D02*
X88820000Y-74830000D01*
X88190010Y-74949990D02*
X88310000Y-74830000D01*
X88190010Y-77734990D02*
X88190010Y-74949990D01*
X87625000Y-78300000D02*
X88190010Y-77734990D01*
X87625000Y-79200000D02*
X87625000Y-78300000D01*
G04 #@! TO.N,/IO1_PA1*
X88820000Y-75615000D02*
X88820000Y-75330000D01*
X90125000Y-78300000D02*
X88820000Y-76995000D01*
X88820000Y-76995000D02*
X88820000Y-75615000D01*
X90125000Y-79200000D02*
X90125000Y-78300000D01*
G04 #@! TO.N,/IO2_PA2*
X89470000Y-76490000D02*
X89470000Y-75980000D01*
X89470000Y-76526018D02*
X89470000Y-76490000D01*
X90963991Y-78020009D02*
X89470000Y-76526018D01*
X92345010Y-78020010D02*
X90963991Y-78020009D01*
X92625000Y-78300000D02*
X92345010Y-78020010D01*
X92625000Y-79200000D02*
X92625000Y-78300000D01*
G04 #@! TO.N,/IO3_PA3*
X89970000Y-76490000D02*
X89970000Y-75980000D01*
X91096544Y-77700000D02*
X89970000Y-76573456D01*
X94525000Y-77700000D02*
X91096544Y-77700000D01*
X95125000Y-78300000D02*
X94525000Y-77700000D01*
X89970000Y-76573456D02*
X89970000Y-76490000D01*
X95125000Y-79200000D02*
X95125000Y-78300000D01*
G04 #@! TO.N,Net-(D1-Pad2)*
X93935000Y-77090000D02*
X95122500Y-77090000D01*
D25*
G04 #@! TO.N,Net-(C9-Pad1)*
X94950000Y-67937500D02*
X95187500Y-67700000D01*
X94950000Y-69300000D02*
X94950000Y-67937500D01*
X98350000Y-66600000D02*
X98350000Y-66400000D01*
X97250000Y-67700000D02*
X98350000Y-66600000D01*
X95187500Y-67700000D02*
X97250000Y-67700000D01*
G04 #@! TD*
D28*
G04 #@! TO.N,GND*
G36*
X85318701Y-75719174D02*
X85345756Y-75759665D01*
X85386247Y-75786720D01*
X85386248Y-75786721D01*
X85506183Y-75866859D01*
X85695421Y-75904501D01*
X85743185Y-75895000D01*
X86139416Y-75895000D01*
X86161680Y-75928320D01*
X86170000Y-75933879D01*
X86170001Y-79703500D01*
X86160500Y-79751264D01*
X86198142Y-79940501D01*
X86278279Y-80060436D01*
X86278281Y-80060438D01*
X86305336Y-80100929D01*
X86345827Y-80127984D01*
X87847016Y-81629174D01*
X87874071Y-81669665D01*
X87914562Y-81696720D01*
X87914563Y-81696721D01*
X88034498Y-81776859D01*
X88223736Y-81814501D01*
X88271500Y-81805000D01*
X95932241Y-81805000D01*
X95980000Y-81814500D01*
X96027759Y-81805000D01*
X96027764Y-81805000D01*
X96169237Y-81776859D01*
X96329665Y-81669665D01*
X96356722Y-81629171D01*
X98029174Y-79956720D01*
X98069665Y-79929665D01*
X98156304Y-79800000D01*
X98176859Y-79769238D01*
X98214501Y-79580000D01*
X98205000Y-79532236D01*
X98205000Y-77185000D01*
X98662443Y-77185000D01*
X98710202Y-77194500D01*
X98757961Y-77185000D01*
X98757966Y-77185000D01*
X98835221Y-77169633D01*
X98824921Y-77194501D01*
X98785671Y-77289260D01*
X98781611Y-77299061D01*
X98697878Y-77720013D01*
X98697878Y-77879987D01*
X98781611Y-78300939D01*
X98842830Y-78448736D01*
X98842833Y-78448739D01*
X99081278Y-78805597D01*
X99081280Y-78805601D01*
X99137840Y-78862160D01*
X99194399Y-78918720D01*
X99194403Y-78918722D01*
X99551261Y-79157167D01*
X99551264Y-79157170D01*
X99655772Y-79200458D01*
X99699060Y-79218389D01*
X99699061Y-79218389D01*
X99790000Y-79236478D01*
X99790000Y-80271366D01*
X99725000Y-80258437D01*
X98125000Y-80258437D01*
X97898619Y-80303467D01*
X97706702Y-80431702D01*
X97578467Y-80623619D01*
X97533437Y-80850000D01*
X97533437Y-83350000D01*
X97578467Y-83576381D01*
X97706702Y-83768298D01*
X97888842Y-83890000D01*
X86111158Y-83890000D01*
X86293298Y-83768298D01*
X86421533Y-83576381D01*
X86466563Y-83350000D01*
X86466563Y-80850000D01*
X86421533Y-80623619D01*
X86293298Y-80431702D01*
X86101381Y-80303467D01*
X85875000Y-80258437D01*
X84275000Y-80258437D01*
X84210000Y-80271366D01*
X84210000Y-79236478D01*
X84300939Y-79218389D01*
X84300940Y-79218389D01*
X84344228Y-79200458D01*
X84448736Y-79157170D01*
X84448739Y-79157167D01*
X84805597Y-78918722D01*
X84805601Y-78918720D01*
X84862160Y-78862160D01*
X84918720Y-78805601D01*
X84918722Y-78805597D01*
X85157167Y-78448739D01*
X85157170Y-78448736D01*
X85218389Y-78300939D01*
X85302122Y-77879987D01*
X85302122Y-77720013D01*
X85218389Y-77299061D01*
X85214330Y-77289260D01*
X85175079Y-77194501D01*
X85157170Y-77151264D01*
X85157167Y-77151261D01*
X84918722Y-76794403D01*
X84918720Y-76794399D01*
X84862160Y-76737840D01*
X84805601Y-76681280D01*
X84805597Y-76681278D01*
X84448739Y-76442833D01*
X84448736Y-76442830D01*
X84344228Y-76399542D01*
X84300940Y-76381611D01*
X84300939Y-76381611D01*
X84210000Y-76363522D01*
X84210000Y-74610472D01*
X85318701Y-75719174D01*
X85318701Y-75719174D01*
G37*
X85318701Y-75719174D02*
X85345756Y-75759665D01*
X85386247Y-75786720D01*
X85386248Y-75786721D01*
X85506183Y-75866859D01*
X85695421Y-75904501D01*
X85743185Y-75895000D01*
X86139416Y-75895000D01*
X86161680Y-75928320D01*
X86170000Y-75933879D01*
X86170001Y-79703500D01*
X86160500Y-79751264D01*
X86198142Y-79940501D01*
X86278279Y-80060436D01*
X86278281Y-80060438D01*
X86305336Y-80100929D01*
X86345827Y-80127984D01*
X87847016Y-81629174D01*
X87874071Y-81669665D01*
X87914562Y-81696720D01*
X87914563Y-81696721D01*
X88034498Y-81776859D01*
X88223736Y-81814501D01*
X88271500Y-81805000D01*
X95932241Y-81805000D01*
X95980000Y-81814500D01*
X96027759Y-81805000D01*
X96027764Y-81805000D01*
X96169237Y-81776859D01*
X96329665Y-81669665D01*
X96356722Y-81629171D01*
X98029174Y-79956720D01*
X98069665Y-79929665D01*
X98156304Y-79800000D01*
X98176859Y-79769238D01*
X98214501Y-79580000D01*
X98205000Y-79532236D01*
X98205000Y-77185000D01*
X98662443Y-77185000D01*
X98710202Y-77194500D01*
X98757961Y-77185000D01*
X98757966Y-77185000D01*
X98835221Y-77169633D01*
X98824921Y-77194501D01*
X98785671Y-77289260D01*
X98781611Y-77299061D01*
X98697878Y-77720013D01*
X98697878Y-77879987D01*
X98781611Y-78300939D01*
X98842830Y-78448736D01*
X98842833Y-78448739D01*
X99081278Y-78805597D01*
X99081280Y-78805601D01*
X99137840Y-78862160D01*
X99194399Y-78918720D01*
X99194403Y-78918722D01*
X99551261Y-79157167D01*
X99551264Y-79157170D01*
X99655772Y-79200458D01*
X99699060Y-79218389D01*
X99699061Y-79218389D01*
X99790000Y-79236478D01*
X99790000Y-80271366D01*
X99725000Y-80258437D01*
X98125000Y-80258437D01*
X97898619Y-80303467D01*
X97706702Y-80431702D01*
X97578467Y-80623619D01*
X97533437Y-80850000D01*
X97533437Y-83350000D01*
X97578467Y-83576381D01*
X97706702Y-83768298D01*
X97888842Y-83890000D01*
X86111158Y-83890000D01*
X86293298Y-83768298D01*
X86421533Y-83576381D01*
X86466563Y-83350000D01*
X86466563Y-80850000D01*
X86421533Y-80623619D01*
X86293298Y-80431702D01*
X86101381Y-80303467D01*
X85875000Y-80258437D01*
X84275000Y-80258437D01*
X84210000Y-80271366D01*
X84210000Y-79236478D01*
X84300939Y-79218389D01*
X84300940Y-79218389D01*
X84344228Y-79200458D01*
X84448736Y-79157170D01*
X84448739Y-79157167D01*
X84805597Y-78918722D01*
X84805601Y-78918720D01*
X84862160Y-78862160D01*
X84918720Y-78805601D01*
X84918722Y-78805597D01*
X85157167Y-78448739D01*
X85157170Y-78448736D01*
X85218389Y-78300939D01*
X85302122Y-77879987D01*
X85302122Y-77720013D01*
X85218389Y-77299061D01*
X85214330Y-77289260D01*
X85175079Y-77194501D01*
X85157170Y-77151264D01*
X85157167Y-77151261D01*
X84918722Y-76794403D01*
X84918720Y-76794399D01*
X84862160Y-76737840D01*
X84805601Y-76681280D01*
X84805597Y-76681278D01*
X84448739Y-76442833D01*
X84448736Y-76442830D01*
X84344228Y-76399542D01*
X84300940Y-76381611D01*
X84300939Y-76381611D01*
X84210000Y-76363522D01*
X84210000Y-74610472D01*
X85318701Y-75719174D01*
G36*
X89253101Y-78015000D02*
X89036250Y-78015000D01*
X88940000Y-78111250D01*
X88940000Y-79135000D01*
X88960000Y-79135000D01*
X88960000Y-79265000D01*
X88940000Y-79265000D01*
X88940000Y-80288750D01*
X89036250Y-80385000D01*
X89351581Y-80385000D01*
X89493085Y-80326387D01*
X89598689Y-80220783D01*
X89717753Y-80300339D01*
X89925000Y-80341563D01*
X90325000Y-80341563D01*
X90532247Y-80300339D01*
X90651311Y-80220783D01*
X90756915Y-80326387D01*
X90898419Y-80385000D01*
X91213750Y-80385000D01*
X91310000Y-80288750D01*
X91310000Y-79265000D01*
X91290000Y-79265000D01*
X91290000Y-79135000D01*
X91310000Y-79135000D01*
X91310000Y-79115000D01*
X91440000Y-79115000D01*
X91440000Y-79135000D01*
X91460000Y-79135000D01*
X91460000Y-79265000D01*
X91440000Y-79265000D01*
X91440000Y-80288750D01*
X91536250Y-80385000D01*
X91851581Y-80385000D01*
X91993085Y-80326387D01*
X92098689Y-80220783D01*
X92217753Y-80300339D01*
X92425000Y-80341563D01*
X92825000Y-80341563D01*
X93032247Y-80300339D01*
X93151311Y-80220783D01*
X93256915Y-80326387D01*
X93398419Y-80385000D01*
X93713750Y-80385000D01*
X93810000Y-80288750D01*
X93810000Y-79265000D01*
X93790000Y-79265000D01*
X93790000Y-79135000D01*
X93810000Y-79135000D01*
X93810000Y-79115000D01*
X93940000Y-79115000D01*
X93940000Y-79135000D01*
X93960000Y-79135000D01*
X93960000Y-79265000D01*
X93940000Y-79265000D01*
X93940000Y-80288750D01*
X94036250Y-80385000D01*
X94351581Y-80385000D01*
X94493085Y-80326387D01*
X94598689Y-80220783D01*
X94717753Y-80300339D01*
X94925000Y-80341563D01*
X95325000Y-80341563D01*
X95532247Y-80300339D01*
X95651311Y-80220783D01*
X95756915Y-80326387D01*
X95898419Y-80385000D01*
X96213750Y-80385000D01*
X96309998Y-80288752D01*
X96309998Y-80304109D01*
X95779107Y-80835000D01*
X88424630Y-80835000D01*
X87913574Y-80323945D01*
X88032247Y-80300339D01*
X88151311Y-80220783D01*
X88256915Y-80326387D01*
X88398419Y-80385000D01*
X88713750Y-80385000D01*
X88810000Y-80288750D01*
X88810000Y-79265000D01*
X88790000Y-79265000D01*
X88790000Y-79135000D01*
X88810000Y-79135000D01*
X88810000Y-78111250D01*
X88713750Y-78015000D01*
X88502029Y-78015000D01*
X88580931Y-77896915D01*
X88605010Y-77775862D01*
X88605010Y-77775861D01*
X88613140Y-77734990D01*
X88605010Y-77694118D01*
X88605010Y-77366908D01*
X89253101Y-78015000D01*
X89253101Y-78015000D01*
G37*
X89253101Y-78015000D02*
X89036250Y-78015000D01*
X88940000Y-78111250D01*
X88940000Y-79135000D01*
X88960000Y-79135000D01*
X88960000Y-79265000D01*
X88940000Y-79265000D01*
X88940000Y-80288750D01*
X89036250Y-80385000D01*
X89351581Y-80385000D01*
X89493085Y-80326387D01*
X89598689Y-80220783D01*
X89717753Y-80300339D01*
X89925000Y-80341563D01*
X90325000Y-80341563D01*
X90532247Y-80300339D01*
X90651311Y-80220783D01*
X90756915Y-80326387D01*
X90898419Y-80385000D01*
X91213750Y-80385000D01*
X91310000Y-80288750D01*
X91310000Y-79265000D01*
X91290000Y-79265000D01*
X91290000Y-79135000D01*
X91310000Y-79135000D01*
X91310000Y-79115000D01*
X91440000Y-79115000D01*
X91440000Y-79135000D01*
X91460000Y-79135000D01*
X91460000Y-79265000D01*
X91440000Y-79265000D01*
X91440000Y-80288750D01*
X91536250Y-80385000D01*
X91851581Y-80385000D01*
X91993085Y-80326387D01*
X92098689Y-80220783D01*
X92217753Y-80300339D01*
X92425000Y-80341563D01*
X92825000Y-80341563D01*
X93032247Y-80300339D01*
X93151311Y-80220783D01*
X93256915Y-80326387D01*
X93398419Y-80385000D01*
X93713750Y-80385000D01*
X93810000Y-80288750D01*
X93810000Y-79265000D01*
X93790000Y-79265000D01*
X93790000Y-79135000D01*
X93810000Y-79135000D01*
X93810000Y-79115000D01*
X93940000Y-79115000D01*
X93940000Y-79135000D01*
X93960000Y-79135000D01*
X93960000Y-79265000D01*
X93940000Y-79265000D01*
X93940000Y-80288750D01*
X94036250Y-80385000D01*
X94351581Y-80385000D01*
X94493085Y-80326387D01*
X94598689Y-80220783D01*
X94717753Y-80300339D01*
X94925000Y-80341563D01*
X95325000Y-80341563D01*
X95532247Y-80300339D01*
X95651311Y-80220783D01*
X95756915Y-80326387D01*
X95898419Y-80385000D01*
X96213750Y-80385000D01*
X96309998Y-80288752D01*
X96309998Y-80304109D01*
X95779107Y-80835000D01*
X88424630Y-80835000D01*
X87913574Y-80323945D01*
X88032247Y-80300339D01*
X88151311Y-80220783D01*
X88256915Y-80326387D01*
X88398419Y-80385000D01*
X88713750Y-80385000D01*
X88810000Y-80288750D01*
X88810000Y-79265000D01*
X88790000Y-79265000D01*
X88790000Y-79135000D01*
X88810000Y-79135000D01*
X88810000Y-78111250D01*
X88713750Y-78015000D01*
X88502029Y-78015000D01*
X88580931Y-77896915D01*
X88605010Y-77775862D01*
X88605010Y-77775861D01*
X88613140Y-77734990D01*
X88605010Y-77694118D01*
X88605010Y-77366908D01*
X89253101Y-78015000D01*
G36*
X96648255Y-75638295D02*
X96681680Y-75688320D01*
X96840344Y-75794335D01*
X97027500Y-75831563D01*
X97150670Y-75831563D01*
X97235000Y-75915893D01*
X97235000Y-76067763D01*
X97235001Y-76067767D01*
X97235001Y-76239701D01*
X97211581Y-76230000D01*
X96858750Y-76230000D01*
X96762500Y-76326250D01*
X96762500Y-77025000D01*
X96782500Y-77025000D01*
X96782500Y-77155000D01*
X96762500Y-77155000D01*
X96762500Y-77853750D01*
X96858750Y-77950000D01*
X97211581Y-77950000D01*
X97235000Y-77940299D01*
X97235000Y-78347763D01*
X97235001Y-78347768D01*
X97235000Y-79379106D01*
X97160000Y-79454106D01*
X97160000Y-79361250D01*
X97063750Y-79265000D01*
X96440000Y-79265000D01*
X96440000Y-79285000D01*
X96310000Y-79285000D01*
X96310000Y-79265000D01*
X96290000Y-79265000D01*
X96290000Y-79135000D01*
X96310000Y-79135000D01*
X96310000Y-78111250D01*
X96440000Y-78111250D01*
X96440000Y-79135000D01*
X97063750Y-79135000D01*
X97160000Y-79038750D01*
X97160000Y-78323418D01*
X97101387Y-78181915D01*
X96993085Y-78073613D01*
X96851581Y-78015000D01*
X96536250Y-78015000D01*
X96440000Y-78111250D01*
X96310000Y-78111250D01*
X96213750Y-78015000D01*
X95898419Y-78015000D01*
X95756915Y-78073613D01*
X95651311Y-78179217D01*
X95532247Y-78099661D01*
X95483817Y-78090028D01*
X95462709Y-78058437D01*
X95447350Y-78035451D01*
X95447349Y-78035450D01*
X95424198Y-78000802D01*
X95389549Y-77977651D01*
X95318462Y-77906563D01*
X95341250Y-77906563D01*
X95555673Y-77863912D01*
X95737451Y-77742451D01*
X95858912Y-77560673D01*
X95875000Y-77479792D01*
X95875000Y-77641582D01*
X95933613Y-77783085D01*
X96041915Y-77891387D01*
X96183419Y-77950000D01*
X96536250Y-77950000D01*
X96632500Y-77853750D01*
X96632500Y-77155000D01*
X96612500Y-77155000D01*
X96612500Y-77025000D01*
X96632500Y-77025000D01*
X96632500Y-76326250D01*
X96600361Y-76294111D01*
X96616387Y-76278085D01*
X96675000Y-76136582D01*
X96675000Y-75901250D01*
X96578750Y-75805000D01*
X96060000Y-75805000D01*
X96060000Y-75825000D01*
X95930000Y-75825000D01*
X95930000Y-75805000D01*
X95910000Y-75805000D01*
X95910000Y-75675000D01*
X95930000Y-75675000D01*
X95930000Y-75655000D01*
X96060000Y-75655000D01*
X96060000Y-75675000D01*
X96578750Y-75675000D01*
X96620897Y-75632853D01*
X96648255Y-75638295D01*
X96648255Y-75638295D01*
G37*
X96648255Y-75638295D02*
X96681680Y-75688320D01*
X96840344Y-75794335D01*
X97027500Y-75831563D01*
X97150670Y-75831563D01*
X97235000Y-75915893D01*
X97235000Y-76067763D01*
X97235001Y-76067767D01*
X97235001Y-76239701D01*
X97211581Y-76230000D01*
X96858750Y-76230000D01*
X96762500Y-76326250D01*
X96762500Y-77025000D01*
X96782500Y-77025000D01*
X96782500Y-77155000D01*
X96762500Y-77155000D01*
X96762500Y-77853750D01*
X96858750Y-77950000D01*
X97211581Y-77950000D01*
X97235000Y-77940299D01*
X97235000Y-78347763D01*
X97235001Y-78347768D01*
X97235000Y-79379106D01*
X97160000Y-79454106D01*
X97160000Y-79361250D01*
X97063750Y-79265000D01*
X96440000Y-79265000D01*
X96440000Y-79285000D01*
X96310000Y-79285000D01*
X96310000Y-79265000D01*
X96290000Y-79265000D01*
X96290000Y-79135000D01*
X96310000Y-79135000D01*
X96310000Y-78111250D01*
X96440000Y-78111250D01*
X96440000Y-79135000D01*
X97063750Y-79135000D01*
X97160000Y-79038750D01*
X97160000Y-78323418D01*
X97101387Y-78181915D01*
X96993085Y-78073613D01*
X96851581Y-78015000D01*
X96536250Y-78015000D01*
X96440000Y-78111250D01*
X96310000Y-78111250D01*
X96213750Y-78015000D01*
X95898419Y-78015000D01*
X95756915Y-78073613D01*
X95651311Y-78179217D01*
X95532247Y-78099661D01*
X95483817Y-78090028D01*
X95462709Y-78058437D01*
X95447350Y-78035451D01*
X95447349Y-78035450D01*
X95424198Y-78000802D01*
X95389549Y-77977651D01*
X95318462Y-77906563D01*
X95341250Y-77906563D01*
X95555673Y-77863912D01*
X95737451Y-77742451D01*
X95858912Y-77560673D01*
X95875000Y-77479792D01*
X95875000Y-77641582D01*
X95933613Y-77783085D01*
X96041915Y-77891387D01*
X96183419Y-77950000D01*
X96536250Y-77950000D01*
X96632500Y-77853750D01*
X96632500Y-77155000D01*
X96612500Y-77155000D01*
X96612500Y-77025000D01*
X96632500Y-77025000D01*
X96632500Y-76326250D01*
X96600361Y-76294111D01*
X96616387Y-76278085D01*
X96675000Y-76136582D01*
X96675000Y-75901250D01*
X96578750Y-75805000D01*
X96060000Y-75805000D01*
X96060000Y-75825000D01*
X95930000Y-75825000D01*
X95930000Y-75805000D01*
X95910000Y-75805000D01*
X95910000Y-75675000D01*
X95930000Y-75675000D01*
X95930000Y-75655000D01*
X96060000Y-75655000D01*
X96060000Y-75675000D01*
X96578750Y-75675000D01*
X96620897Y-75632853D01*
X96648255Y-75638295D01*
G36*
X87690000Y-75345000D02*
X87710000Y-75345000D01*
X87710000Y-75475000D01*
X87690000Y-75475000D01*
X87690000Y-76018750D01*
X87775011Y-76103761D01*
X87775010Y-77563091D01*
X87360451Y-77977651D01*
X87325803Y-78000802D01*
X87302652Y-78035450D01*
X87302650Y-78035452D01*
X87266184Y-78090027D01*
X87217753Y-78099661D01*
X87140000Y-78151614D01*
X87140000Y-76068020D01*
X87253419Y-76115000D01*
X87463750Y-76115000D01*
X87560000Y-76018750D01*
X87560000Y-75475000D01*
X87540000Y-75475000D01*
X87540000Y-75345000D01*
X87560000Y-75345000D01*
X87560000Y-75325000D01*
X87690000Y-75325000D01*
X87690000Y-75345000D01*
X87690000Y-75345000D01*
G37*
X87690000Y-75345000D02*
X87710000Y-75345000D01*
X87710000Y-75475000D01*
X87690000Y-75475000D01*
X87690000Y-76018750D01*
X87775011Y-76103761D01*
X87775010Y-77563091D01*
X87360451Y-77977651D01*
X87325803Y-78000802D01*
X87302652Y-78035450D01*
X87302650Y-78035452D01*
X87266184Y-78090027D01*
X87217753Y-78099661D01*
X87140000Y-78151614D01*
X87140000Y-76068020D01*
X87253419Y-76115000D01*
X87463750Y-76115000D01*
X87560000Y-76018750D01*
X87560000Y-75475000D01*
X87540000Y-75475000D01*
X87540000Y-75345000D01*
X87560000Y-75345000D01*
X87560000Y-75325000D01*
X87690000Y-75325000D01*
X87690000Y-75345000D01*
G36*
X93692115Y-76017298D02*
X93716383Y-76053617D01*
X93752702Y-76077885D01*
X93752703Y-76077886D01*
X93784421Y-76099079D01*
X93860271Y-76149761D01*
X93987157Y-76175000D01*
X93987161Y-76175000D01*
X94030000Y-76183521D01*
X94072839Y-76175000D01*
X94476008Y-76175000D01*
X94531680Y-76258320D01*
X94653732Y-76339872D01*
X94507549Y-76437549D01*
X94421133Y-76566878D01*
X94269656Y-76465665D01*
X94082500Y-76428437D01*
X93787500Y-76428437D01*
X93600344Y-76465665D01*
X93450000Y-76566121D01*
X93421738Y-76547237D01*
X93480000Y-76406581D01*
X93480000Y-76141250D01*
X93383750Y-76045000D01*
X93032500Y-76045000D01*
X93032500Y-76065000D01*
X92936563Y-76065000D01*
X92936563Y-75895000D01*
X93032500Y-75895000D01*
X93032500Y-75915000D01*
X93383750Y-75915000D01*
X93480000Y-75818750D01*
X93480000Y-75805182D01*
X93692115Y-76017298D01*
X93692115Y-76017298D01*
G37*
X93692115Y-76017298D02*
X93716383Y-76053617D01*
X93752702Y-76077885D01*
X93752703Y-76077886D01*
X93784421Y-76099079D01*
X93860271Y-76149761D01*
X93987157Y-76175000D01*
X93987161Y-76175000D01*
X94030000Y-76183521D01*
X94072839Y-76175000D01*
X94476008Y-76175000D01*
X94531680Y-76258320D01*
X94653732Y-76339872D01*
X94507549Y-76437549D01*
X94421133Y-76566878D01*
X94269656Y-76465665D01*
X94082500Y-76428437D01*
X93787500Y-76428437D01*
X93600344Y-76465665D01*
X93450000Y-76566121D01*
X93421738Y-76547237D01*
X93480000Y-76406581D01*
X93480000Y-76141250D01*
X93383750Y-76045000D01*
X93032500Y-76045000D01*
X93032500Y-76065000D01*
X92936563Y-76065000D01*
X92936563Y-75895000D01*
X93032500Y-75895000D01*
X93032500Y-75915000D01*
X93383750Y-75915000D01*
X93480000Y-75818750D01*
X93480000Y-75805182D01*
X93692115Y-76017298D01*
G36*
X98815001Y-68052232D02*
X98815000Y-68052237D01*
X98815000Y-68075345D01*
X98769289Y-68084437D01*
X98658478Y-68158478D01*
X98584437Y-68269289D01*
X98558437Y-68400000D01*
X98558437Y-69600000D01*
X98584437Y-69730711D01*
X98658478Y-69841522D01*
X98670990Y-69849882D01*
X98551088Y-70029327D01*
X98535000Y-70110208D01*
X98535000Y-69948418D01*
X98476387Y-69806915D01*
X98368085Y-69698613D01*
X98226581Y-69640000D01*
X98185000Y-69640000D01*
X98185000Y-69161250D01*
X98088750Y-69065000D01*
X97465000Y-69065000D01*
X97465000Y-69085000D01*
X97335000Y-69085000D01*
X97335000Y-69065000D01*
X96711250Y-69065000D01*
X96615000Y-69161250D01*
X96615000Y-69676582D01*
X96673613Y-69818085D01*
X96781915Y-69926387D01*
X96890000Y-69971157D01*
X96890000Y-70338750D01*
X96986250Y-70435000D01*
X97647500Y-70435000D01*
X97647500Y-70415000D01*
X97777500Y-70415000D01*
X97777500Y-70435000D01*
X97797500Y-70435000D01*
X97797500Y-70565000D01*
X97777500Y-70565000D01*
X97777500Y-71263750D01*
X97873750Y-71360000D01*
X98226581Y-71360000D01*
X98368085Y-71301387D01*
X98476387Y-71193085D01*
X98535000Y-71051582D01*
X98535000Y-70889792D01*
X98551088Y-70970673D01*
X98672549Y-71152451D01*
X98829231Y-71257143D01*
X98830642Y-71264237D01*
X98910779Y-71384172D01*
X98910781Y-71384174D01*
X98937836Y-71424665D01*
X98978327Y-71451720D01*
X99185000Y-71658394D01*
X99185001Y-75539308D01*
X98509309Y-76215000D01*
X98205000Y-76215000D01*
X98205000Y-75875000D01*
X98210002Y-75875000D01*
X98210002Y-75778752D01*
X98306250Y-75875000D01*
X98516581Y-75875000D01*
X98658085Y-75816387D01*
X98766387Y-75708085D01*
X98825000Y-75566582D01*
X98825000Y-75331250D01*
X98728750Y-75235000D01*
X98210000Y-75235000D01*
X98210000Y-75255000D01*
X98080000Y-75255000D01*
X98080000Y-75235000D01*
X98060000Y-75235000D01*
X98060000Y-75105000D01*
X98080000Y-75105000D01*
X98080000Y-74561250D01*
X98210000Y-74561250D01*
X98210000Y-75105000D01*
X98728750Y-75105000D01*
X98825000Y-75008750D01*
X98825000Y-74773418D01*
X98766387Y-74631915D01*
X98684472Y-74550000D01*
X98756582Y-74550000D01*
X98898085Y-74491387D01*
X99006387Y-74383085D01*
X99065000Y-74241581D01*
X99065000Y-74101250D01*
X98968750Y-74005000D01*
X98245000Y-74005000D01*
X98245000Y-74453750D01*
X98281250Y-74490000D01*
X98210000Y-74561250D01*
X98080000Y-74561250D01*
X98043750Y-74525000D01*
X98115000Y-74453750D01*
X98115000Y-74005000D01*
X98095000Y-74005000D01*
X98095000Y-73875000D01*
X98115000Y-73875000D01*
X98115000Y-73856563D01*
X98245000Y-73856563D01*
X98245000Y-73875000D01*
X98968750Y-73875000D01*
X99065000Y-73778750D01*
X99065000Y-73638419D01*
X99019070Y-73527534D01*
X99021563Y-73515000D01*
X99021563Y-73065000D01*
X99001672Y-72965000D01*
X99021563Y-72865000D01*
X99021563Y-72415000D01*
X99019070Y-72402466D01*
X99065000Y-72291581D01*
X99065000Y-72151250D01*
X98968750Y-72055000D01*
X98245000Y-72055000D01*
X98245000Y-72073437D01*
X98115000Y-72073437D01*
X98115000Y-72055000D01*
X98095000Y-72055000D01*
X98095000Y-71925000D01*
X98115000Y-71925000D01*
X98115000Y-71476250D01*
X98245000Y-71476250D01*
X98245000Y-71925000D01*
X98968750Y-71925000D01*
X99065000Y-71828750D01*
X99065000Y-71688419D01*
X99006387Y-71546915D01*
X98898085Y-71438613D01*
X98756582Y-71380000D01*
X98341250Y-71380000D01*
X98245000Y-71476250D01*
X98115000Y-71476250D01*
X98018750Y-71380000D01*
X97603418Y-71380000D01*
X97461915Y-71438613D01*
X97403186Y-71497342D01*
X97305405Y-71399561D01*
X97209896Y-71360000D01*
X97551250Y-71360000D01*
X97647500Y-71263750D01*
X97647500Y-70565000D01*
X96986250Y-70565000D01*
X96890000Y-70661250D01*
X96890000Y-71051582D01*
X96948613Y-71193085D01*
X97056915Y-71301387D01*
X97058702Y-71302127D01*
X96815570Y-71302127D01*
X96665023Y-71364485D01*
X96649199Y-71340803D01*
X96614546Y-71317649D01*
X96522352Y-71225454D01*
X96499198Y-71190802D01*
X96361925Y-71099079D01*
X96240872Y-71075000D01*
X96240868Y-71075000D01*
X96200000Y-71066871D01*
X96159132Y-71075000D01*
X95570515Y-71075000D01*
X94637077Y-70141563D01*
X95450000Y-70141563D01*
X95580711Y-70115563D01*
X95691522Y-70041522D01*
X95765563Y-69930711D01*
X95791563Y-69800000D01*
X95791563Y-68800000D01*
X95765563Y-68669289D01*
X95691522Y-68558478D01*
X95580711Y-68484437D01*
X95574235Y-68483149D01*
X95620673Y-68473912D01*
X95802451Y-68352451D01*
X95914339Y-68185000D01*
X96672335Y-68185000D01*
X96615000Y-68323418D01*
X96615000Y-68838750D01*
X96711250Y-68935000D01*
X97335000Y-68935000D01*
X97335000Y-68915000D01*
X97465000Y-68915000D01*
X97465000Y-68935000D01*
X98088750Y-68935000D01*
X98185000Y-68838750D01*
X98185000Y-68323418D01*
X98126387Y-68181915D01*
X98018085Y-68073613D01*
X97876581Y-68015000D01*
X97622827Y-68015000D01*
X97626722Y-68009171D01*
X98294331Y-67341563D01*
X98750000Y-67341563D01*
X98815001Y-67328634D01*
X98815001Y-68052232D01*
X98815001Y-68052232D01*
G37*
X98815001Y-68052232D02*
X98815000Y-68052237D01*
X98815000Y-68075345D01*
X98769289Y-68084437D01*
X98658478Y-68158478D01*
X98584437Y-68269289D01*
X98558437Y-68400000D01*
X98558437Y-69600000D01*
X98584437Y-69730711D01*
X98658478Y-69841522D01*
X98670990Y-69849882D01*
X98551088Y-70029327D01*
X98535000Y-70110208D01*
X98535000Y-69948418D01*
X98476387Y-69806915D01*
X98368085Y-69698613D01*
X98226581Y-69640000D01*
X98185000Y-69640000D01*
X98185000Y-69161250D01*
X98088750Y-69065000D01*
X97465000Y-69065000D01*
X97465000Y-69085000D01*
X97335000Y-69085000D01*
X97335000Y-69065000D01*
X96711250Y-69065000D01*
X96615000Y-69161250D01*
X96615000Y-69676582D01*
X96673613Y-69818085D01*
X96781915Y-69926387D01*
X96890000Y-69971157D01*
X96890000Y-70338750D01*
X96986250Y-70435000D01*
X97647500Y-70435000D01*
X97647500Y-70415000D01*
X97777500Y-70415000D01*
X97777500Y-70435000D01*
X97797500Y-70435000D01*
X97797500Y-70565000D01*
X97777500Y-70565000D01*
X97777500Y-71263750D01*
X97873750Y-71360000D01*
X98226581Y-71360000D01*
X98368085Y-71301387D01*
X98476387Y-71193085D01*
X98535000Y-71051582D01*
X98535000Y-70889792D01*
X98551088Y-70970673D01*
X98672549Y-71152451D01*
X98829231Y-71257143D01*
X98830642Y-71264237D01*
X98910779Y-71384172D01*
X98910781Y-71384174D01*
X98937836Y-71424665D01*
X98978327Y-71451720D01*
X99185000Y-71658394D01*
X99185001Y-75539308D01*
X98509309Y-76215000D01*
X98205000Y-76215000D01*
X98205000Y-75875000D01*
X98210002Y-75875000D01*
X98210002Y-75778752D01*
X98306250Y-75875000D01*
X98516581Y-75875000D01*
X98658085Y-75816387D01*
X98766387Y-75708085D01*
X98825000Y-75566582D01*
X98825000Y-75331250D01*
X98728750Y-75235000D01*
X98210000Y-75235000D01*
X98210000Y-75255000D01*
X98080000Y-75255000D01*
X98080000Y-75235000D01*
X98060000Y-75235000D01*
X98060000Y-75105000D01*
X98080000Y-75105000D01*
X98080000Y-74561250D01*
X98210000Y-74561250D01*
X98210000Y-75105000D01*
X98728750Y-75105000D01*
X98825000Y-75008750D01*
X98825000Y-74773418D01*
X98766387Y-74631915D01*
X98684472Y-74550000D01*
X98756582Y-74550000D01*
X98898085Y-74491387D01*
X99006387Y-74383085D01*
X99065000Y-74241581D01*
X99065000Y-74101250D01*
X98968750Y-74005000D01*
X98245000Y-74005000D01*
X98245000Y-74453750D01*
X98281250Y-74490000D01*
X98210000Y-74561250D01*
X98080000Y-74561250D01*
X98043750Y-74525000D01*
X98115000Y-74453750D01*
X98115000Y-74005000D01*
X98095000Y-74005000D01*
X98095000Y-73875000D01*
X98115000Y-73875000D01*
X98115000Y-73856563D01*
X98245000Y-73856563D01*
X98245000Y-73875000D01*
X98968750Y-73875000D01*
X99065000Y-73778750D01*
X99065000Y-73638419D01*
X99019070Y-73527534D01*
X99021563Y-73515000D01*
X99021563Y-73065000D01*
X99001672Y-72965000D01*
X99021563Y-72865000D01*
X99021563Y-72415000D01*
X99019070Y-72402466D01*
X99065000Y-72291581D01*
X99065000Y-72151250D01*
X98968750Y-72055000D01*
X98245000Y-72055000D01*
X98245000Y-72073437D01*
X98115000Y-72073437D01*
X98115000Y-72055000D01*
X98095000Y-72055000D01*
X98095000Y-71925000D01*
X98115000Y-71925000D01*
X98115000Y-71476250D01*
X98245000Y-71476250D01*
X98245000Y-71925000D01*
X98968750Y-71925000D01*
X99065000Y-71828750D01*
X99065000Y-71688419D01*
X99006387Y-71546915D01*
X98898085Y-71438613D01*
X98756582Y-71380000D01*
X98341250Y-71380000D01*
X98245000Y-71476250D01*
X98115000Y-71476250D01*
X98018750Y-71380000D01*
X97603418Y-71380000D01*
X97461915Y-71438613D01*
X97403186Y-71497342D01*
X97305405Y-71399561D01*
X97209896Y-71360000D01*
X97551250Y-71360000D01*
X97647500Y-71263750D01*
X97647500Y-70565000D01*
X96986250Y-70565000D01*
X96890000Y-70661250D01*
X96890000Y-71051582D01*
X96948613Y-71193085D01*
X97056915Y-71301387D01*
X97058702Y-71302127D01*
X96815570Y-71302127D01*
X96665023Y-71364485D01*
X96649199Y-71340803D01*
X96614546Y-71317649D01*
X96522352Y-71225454D01*
X96499198Y-71190802D01*
X96361925Y-71099079D01*
X96240872Y-71075000D01*
X96240868Y-71075000D01*
X96200000Y-71066871D01*
X96159132Y-71075000D01*
X95570515Y-71075000D01*
X94637077Y-70141563D01*
X95450000Y-70141563D01*
X95580711Y-70115563D01*
X95691522Y-70041522D01*
X95765563Y-69930711D01*
X95791563Y-69800000D01*
X95791563Y-68800000D01*
X95765563Y-68669289D01*
X95691522Y-68558478D01*
X95580711Y-68484437D01*
X95574235Y-68483149D01*
X95620673Y-68473912D01*
X95802451Y-68352451D01*
X95914339Y-68185000D01*
X96672335Y-68185000D01*
X96615000Y-68323418D01*
X96615000Y-68838750D01*
X96711250Y-68935000D01*
X97335000Y-68935000D01*
X97335000Y-68915000D01*
X97465000Y-68915000D01*
X97465000Y-68935000D01*
X98088750Y-68935000D01*
X98185000Y-68838750D01*
X98185000Y-68323418D01*
X98126387Y-68181915D01*
X98018085Y-68073613D01*
X97876581Y-68015000D01*
X97622827Y-68015000D01*
X97626722Y-68009171D01*
X98294331Y-67341563D01*
X98750000Y-67341563D01*
X98815001Y-67328634D01*
X98815001Y-68052232D01*
G36*
X90422500Y-72652500D02*
X92017500Y-72652500D01*
X92017500Y-72632500D01*
X92147500Y-72632500D01*
X92147500Y-72652500D01*
X92167500Y-72652500D01*
X92167500Y-72782500D01*
X92147500Y-72782500D01*
X92147500Y-74377500D01*
X92167500Y-74377500D01*
X92167500Y-74507500D01*
X92147500Y-74507500D01*
X92147500Y-74527500D01*
X92017500Y-74527500D01*
X92017500Y-74507500D01*
X90422500Y-74507500D01*
X90422500Y-74527500D01*
X90292500Y-74527500D01*
X90292500Y-74507500D01*
X90272500Y-74507500D01*
X90272500Y-74377500D01*
X90292500Y-74377500D01*
X90292500Y-72782500D01*
X90422500Y-72782500D01*
X90422500Y-74377500D01*
X92017500Y-74377500D01*
X92017500Y-72782500D01*
X90422500Y-72782500D01*
X90292500Y-72782500D01*
X90272500Y-72782500D01*
X90272500Y-72652500D01*
X90292500Y-72652500D01*
X90292500Y-72632500D01*
X90422500Y-72632500D01*
X90422500Y-72652500D01*
X90422500Y-72652500D01*
G37*
X90422500Y-72652500D02*
X92017500Y-72652500D01*
X92017500Y-72632500D01*
X92147500Y-72632500D01*
X92147500Y-72652500D01*
X92167500Y-72652500D01*
X92167500Y-72782500D01*
X92147500Y-72782500D01*
X92147500Y-74377500D01*
X92167500Y-74377500D01*
X92167500Y-74507500D01*
X92147500Y-74507500D01*
X92147500Y-74527500D01*
X92017500Y-74527500D01*
X92017500Y-74507500D01*
X90422500Y-74507500D01*
X90422500Y-74527500D01*
X90292500Y-74527500D01*
X90292500Y-74507500D01*
X90272500Y-74507500D01*
X90272500Y-74377500D01*
X90292500Y-74377500D01*
X90292500Y-72782500D01*
X90422500Y-72782500D01*
X90422500Y-74377500D01*
X92017500Y-74377500D01*
X92017500Y-72782500D01*
X90422500Y-72782500D01*
X90292500Y-72782500D01*
X90272500Y-72782500D01*
X90272500Y-72652500D01*
X90292500Y-72652500D01*
X90292500Y-72632500D01*
X90422500Y-72632500D01*
X90422500Y-72652500D01*
G36*
X88905000Y-74363437D02*
X88735000Y-74363437D01*
X88735000Y-74296563D01*
X88905000Y-74296563D01*
X88905000Y-74363437D01*
X88905000Y-74363437D01*
G37*
X88905000Y-74363437D02*
X88735000Y-74363437D01*
X88735000Y-74296563D01*
X88905000Y-74296563D01*
X88905000Y-74363437D01*
G36*
X85850000Y-74015000D02*
X85870000Y-74015000D01*
X85870000Y-74145000D01*
X85850000Y-74145000D01*
X85850000Y-74165000D01*
X85720000Y-74165000D01*
X85720000Y-74145000D01*
X85700000Y-74145000D01*
X85700000Y-74015000D01*
X85720000Y-74015000D01*
X85720000Y-73995000D01*
X85850000Y-73995000D01*
X85850000Y-74015000D01*
X85850000Y-74015000D01*
G37*
X85850000Y-74015000D02*
X85870000Y-74015000D01*
X85870000Y-74145000D01*
X85850000Y-74145000D01*
X85850000Y-74165000D01*
X85720000Y-74165000D01*
X85720000Y-74145000D01*
X85700000Y-74145000D01*
X85700000Y-74015000D01*
X85720000Y-74015000D01*
X85720000Y-73995000D01*
X85850000Y-73995000D01*
X85850000Y-74015000D01*
G36*
X85974817Y-71735000D02*
X85761250Y-71735000D01*
X85665000Y-71831250D01*
X85665000Y-72755000D01*
X85685000Y-72755000D01*
X85685000Y-72885000D01*
X85665000Y-72885000D01*
X85665000Y-72905000D01*
X85535000Y-72905000D01*
X85535000Y-72885000D01*
X85515000Y-72885000D01*
X85515000Y-72755000D01*
X85535000Y-72755000D01*
X85535000Y-71831250D01*
X85438750Y-71735000D01*
X85199999Y-71735000D01*
X85199999Y-71661563D01*
X85901380Y-71661563D01*
X85974817Y-71735000D01*
X85974817Y-71735000D01*
G37*
X85974817Y-71735000D02*
X85761250Y-71735000D01*
X85665000Y-71831250D01*
X85665000Y-72755000D01*
X85685000Y-72755000D01*
X85685000Y-72885000D01*
X85665000Y-72885000D01*
X85665000Y-72905000D01*
X85535000Y-72905000D01*
X85535000Y-72885000D01*
X85515000Y-72885000D01*
X85515000Y-72755000D01*
X85535000Y-72755000D01*
X85535000Y-71831250D01*
X85438750Y-71735000D01*
X85199999Y-71735000D01*
X85199999Y-71661563D01*
X85901380Y-71661563D01*
X85974817Y-71735000D01*
G36*
X95645000Y-72575000D02*
X95665000Y-72575000D01*
X95665000Y-72705000D01*
X95645000Y-72705000D01*
X95645000Y-72723437D01*
X95515000Y-72723437D01*
X95515000Y-72705000D01*
X95495000Y-72705000D01*
X95495000Y-72575000D01*
X95515000Y-72575000D01*
X95515000Y-72556563D01*
X95645000Y-72556563D01*
X95645000Y-72575000D01*
X95645000Y-72575000D01*
G37*
X95645000Y-72575000D02*
X95665000Y-72575000D01*
X95665000Y-72705000D01*
X95645000Y-72705000D01*
X95645000Y-72723437D01*
X95515000Y-72723437D01*
X95515000Y-72705000D01*
X95495000Y-72705000D01*
X95495000Y-72575000D01*
X95515000Y-72575000D01*
X95515000Y-72556563D01*
X95645000Y-72556563D01*
X95645000Y-72575000D01*
G36*
X88190344Y-70584335D02*
X88377500Y-70621563D01*
X88385001Y-70621563D01*
X88385000Y-71380344D01*
X88339289Y-71389437D01*
X88228478Y-71463478D01*
X88187294Y-71525114D01*
X88130348Y-71468168D01*
X88160000Y-71396581D01*
X88160000Y-70781250D01*
X88063750Y-70685000D01*
X87265000Y-70685000D01*
X87265000Y-70705000D01*
X87135000Y-70705000D01*
X87135000Y-70685000D01*
X87115000Y-70685000D01*
X87115000Y-70555000D01*
X87135000Y-70555000D01*
X87135000Y-70535000D01*
X87265000Y-70535000D01*
X87265000Y-70555000D01*
X88063750Y-70555000D01*
X88096871Y-70521879D01*
X88190344Y-70584335D01*
X88190344Y-70584335D01*
G37*
X88190344Y-70584335D02*
X88377500Y-70621563D01*
X88385001Y-70621563D01*
X88385000Y-71380344D01*
X88339289Y-71389437D01*
X88228478Y-71463478D01*
X88187294Y-71525114D01*
X88130348Y-71468168D01*
X88160000Y-71396581D01*
X88160000Y-70781250D01*
X88063750Y-70685000D01*
X87265000Y-70685000D01*
X87265000Y-70705000D01*
X87135000Y-70705000D01*
X87135000Y-70685000D01*
X87115000Y-70685000D01*
X87115000Y-70555000D01*
X87135000Y-70555000D01*
X87135000Y-70535000D01*
X87265000Y-70535000D01*
X87265000Y-70555000D01*
X88063750Y-70555000D01*
X88096871Y-70521879D01*
X88190344Y-70584335D01*
G36*
X87557646Y-64643217D02*
X87515000Y-64857612D01*
X87515000Y-65502387D01*
X87557646Y-65716782D01*
X87720095Y-65959905D01*
X87963217Y-66122354D01*
X88250000Y-66179399D01*
X88385540Y-66152438D01*
X88797651Y-66564550D01*
X88820802Y-66599198D01*
X88855450Y-66622349D01*
X88855451Y-66622350D01*
X88958075Y-66690921D01*
X89120000Y-66723130D01*
X89160872Y-66715000D01*
X89628102Y-66715000D01*
X90055000Y-67141899D01*
X90055000Y-67540000D01*
X89728750Y-67540000D01*
X89632500Y-67636250D01*
X89632500Y-68335000D01*
X89652500Y-68335000D01*
X89652500Y-68465000D01*
X89632500Y-68465000D01*
X89632500Y-69163750D01*
X89723750Y-69255000D01*
X89656250Y-69255000D01*
X89560000Y-69351250D01*
X89560000Y-69895000D01*
X89580000Y-69895000D01*
X89580000Y-70025000D01*
X89560000Y-70025000D01*
X89560000Y-70513750D01*
X89532500Y-70541250D01*
X89532500Y-70598028D01*
X89518613Y-70611915D01*
X89460000Y-70753419D01*
X89460000Y-71018750D01*
X89532500Y-71091250D01*
X89532500Y-71115000D01*
X89907500Y-71115000D01*
X89907500Y-71095000D01*
X90003437Y-71095000D01*
X90003437Y-71265000D01*
X89907500Y-71265000D01*
X89907500Y-71245000D01*
X89532500Y-71245000D01*
X89532500Y-71265000D01*
X89407500Y-71265000D01*
X89407500Y-71245000D01*
X89385000Y-71245000D01*
X89385000Y-71115000D01*
X89407500Y-71115000D01*
X89407500Y-70591250D01*
X89430000Y-70568750D01*
X89430000Y-70025000D01*
X89410000Y-70025000D01*
X89410000Y-69895000D01*
X89430000Y-69895000D01*
X89430000Y-69351250D01*
X89338750Y-69260000D01*
X89406250Y-69260000D01*
X89502500Y-69163750D01*
X89502500Y-68465000D01*
X89482500Y-68465000D01*
X89482500Y-68335000D01*
X89502500Y-68335000D01*
X89502500Y-67636250D01*
X89406250Y-67540000D01*
X89053419Y-67540000D01*
X88911915Y-67598613D01*
X88803613Y-67706915D01*
X88745000Y-67848418D01*
X88745000Y-68010208D01*
X88728912Y-67929327D01*
X88607451Y-67747549D01*
X88450770Y-67642858D01*
X88449359Y-67635762D01*
X88398729Y-67559990D01*
X88342165Y-67475335D01*
X88301671Y-67448278D01*
X88104212Y-67250819D01*
X88077155Y-67210325D01*
X87916727Y-67103131D01*
X87775254Y-67074990D01*
X87775249Y-67074990D01*
X87727490Y-67065490D01*
X87679731Y-67074990D01*
X85605756Y-67074990D01*
X85557992Y-67065489D01*
X85368754Y-67103131D01*
X85248819Y-67183269D01*
X85208327Y-67210325D01*
X85181272Y-67250816D01*
X84210000Y-68222089D01*
X84210000Y-64610000D01*
X87579841Y-64610000D01*
X87557646Y-64643217D01*
X87557646Y-64643217D01*
G37*
X87557646Y-64643217D02*
X87515000Y-64857612D01*
X87515000Y-65502387D01*
X87557646Y-65716782D01*
X87720095Y-65959905D01*
X87963217Y-66122354D01*
X88250000Y-66179399D01*
X88385540Y-66152438D01*
X88797651Y-66564550D01*
X88820802Y-66599198D01*
X88855450Y-66622349D01*
X88855451Y-66622350D01*
X88958075Y-66690921D01*
X89120000Y-66723130D01*
X89160872Y-66715000D01*
X89628102Y-66715000D01*
X90055000Y-67141899D01*
X90055000Y-67540000D01*
X89728750Y-67540000D01*
X89632500Y-67636250D01*
X89632500Y-68335000D01*
X89652500Y-68335000D01*
X89652500Y-68465000D01*
X89632500Y-68465000D01*
X89632500Y-69163750D01*
X89723750Y-69255000D01*
X89656250Y-69255000D01*
X89560000Y-69351250D01*
X89560000Y-69895000D01*
X89580000Y-69895000D01*
X89580000Y-70025000D01*
X89560000Y-70025000D01*
X89560000Y-70513750D01*
X89532500Y-70541250D01*
X89532500Y-70598028D01*
X89518613Y-70611915D01*
X89460000Y-70753419D01*
X89460000Y-71018750D01*
X89532500Y-71091250D01*
X89532500Y-71115000D01*
X89907500Y-71115000D01*
X89907500Y-71095000D01*
X90003437Y-71095000D01*
X90003437Y-71265000D01*
X89907500Y-71265000D01*
X89907500Y-71245000D01*
X89532500Y-71245000D01*
X89532500Y-71265000D01*
X89407500Y-71265000D01*
X89407500Y-71245000D01*
X89385000Y-71245000D01*
X89385000Y-71115000D01*
X89407500Y-71115000D01*
X89407500Y-70591250D01*
X89430000Y-70568750D01*
X89430000Y-70025000D01*
X89410000Y-70025000D01*
X89410000Y-69895000D01*
X89430000Y-69895000D01*
X89430000Y-69351250D01*
X89338750Y-69260000D01*
X89406250Y-69260000D01*
X89502500Y-69163750D01*
X89502500Y-68465000D01*
X89482500Y-68465000D01*
X89482500Y-68335000D01*
X89502500Y-68335000D01*
X89502500Y-67636250D01*
X89406250Y-67540000D01*
X89053419Y-67540000D01*
X88911915Y-67598613D01*
X88803613Y-67706915D01*
X88745000Y-67848418D01*
X88745000Y-68010208D01*
X88728912Y-67929327D01*
X88607451Y-67747549D01*
X88450770Y-67642858D01*
X88449359Y-67635762D01*
X88398729Y-67559990D01*
X88342165Y-67475335D01*
X88301671Y-67448278D01*
X88104212Y-67250819D01*
X88077155Y-67210325D01*
X87916727Y-67103131D01*
X87775254Y-67074990D01*
X87775249Y-67074990D01*
X87727490Y-67065490D01*
X87679731Y-67074990D01*
X85605756Y-67074990D01*
X85557992Y-67065489D01*
X85368754Y-67103131D01*
X85248819Y-67183269D01*
X85208327Y-67210325D01*
X85181272Y-67250816D01*
X84210000Y-68222089D01*
X84210000Y-64610000D01*
X87579841Y-64610000D01*
X87557646Y-64643217D01*
G36*
X86930000Y-68125000D02*
X86950000Y-68125000D01*
X86950000Y-68255000D01*
X86930000Y-68255000D01*
X86930000Y-68798750D01*
X86950000Y-68818750D01*
X86950000Y-69335000D01*
X87468750Y-69335000D01*
X87565000Y-69238750D01*
X87565000Y-69175040D01*
X87773750Y-69216563D01*
X88040001Y-69216563D01*
X88040001Y-69436120D01*
X88031680Y-69441680D01*
X87943802Y-69573199D01*
X87851582Y-69535000D01*
X87538750Y-69535000D01*
X87468750Y-69465000D01*
X86950000Y-69465000D01*
X86950000Y-69485000D01*
X86820000Y-69485000D01*
X86820000Y-69465000D01*
X86800000Y-69465000D01*
X86800000Y-69335000D01*
X86820000Y-69335000D01*
X86820000Y-68791250D01*
X86800000Y-68771250D01*
X86800000Y-68255000D01*
X86780000Y-68255000D01*
X86780000Y-68125000D01*
X86800000Y-68125000D01*
X86800000Y-68105000D01*
X86930000Y-68105000D01*
X86930000Y-68125000D01*
X86930000Y-68125000D01*
G37*
X86930000Y-68125000D02*
X86950000Y-68125000D01*
X86950000Y-68255000D01*
X86930000Y-68255000D01*
X86930000Y-68798750D01*
X86950000Y-68818750D01*
X86950000Y-69335000D01*
X87468750Y-69335000D01*
X87565000Y-69238750D01*
X87565000Y-69175040D01*
X87773750Y-69216563D01*
X88040001Y-69216563D01*
X88040001Y-69436120D01*
X88031680Y-69441680D01*
X87943802Y-69573199D01*
X87851582Y-69535000D01*
X87538750Y-69535000D01*
X87468750Y-69465000D01*
X86950000Y-69465000D01*
X86950000Y-69485000D01*
X86820000Y-69485000D01*
X86820000Y-69465000D01*
X86800000Y-69465000D01*
X86800000Y-69335000D01*
X86820000Y-69335000D01*
X86820000Y-68791250D01*
X86800000Y-68771250D01*
X86800000Y-68255000D01*
X86780000Y-68255000D01*
X86780000Y-68125000D01*
X86800000Y-68125000D01*
X86800000Y-68105000D01*
X86930000Y-68105000D01*
X86930000Y-68125000D01*
G36*
X94565000Y-65115000D02*
X94585000Y-65115000D01*
X94585000Y-65245000D01*
X94565000Y-65245000D01*
X94565000Y-66115676D01*
X94686579Y-66192504D01*
X94740354Y-66180120D01*
X95009117Y-66031041D01*
X95101500Y-65914830D01*
X95167057Y-66012943D01*
X95342753Y-66130339D01*
X95550000Y-66171563D01*
X95950000Y-66171563D01*
X96157247Y-66130339D01*
X96332943Y-66012943D01*
X96450339Y-65837247D01*
X96484601Y-65665000D01*
X97637303Y-65665000D01*
X97634437Y-65669289D01*
X97608437Y-65800000D01*
X97608437Y-66655669D01*
X97049107Y-67215000D01*
X95914339Y-67215000D01*
X95802451Y-67047549D01*
X95620673Y-66926088D01*
X95406250Y-66883437D01*
X94968750Y-66883437D01*
X94754327Y-66926088D01*
X94572549Y-67047549D01*
X94451088Y-67229327D01*
X94435000Y-67310208D01*
X94435000Y-67148418D01*
X94376387Y-67006915D01*
X94268085Y-66898613D01*
X94126581Y-66840000D01*
X93773750Y-66840000D01*
X93677500Y-66936250D01*
X93677500Y-67635000D01*
X93697500Y-67635000D01*
X93697500Y-67765000D01*
X93677500Y-67765000D01*
X93677500Y-68463750D01*
X93773750Y-68560000D01*
X94126581Y-68560000D01*
X94268085Y-68501387D01*
X94376387Y-68393085D01*
X94435000Y-68251582D01*
X94435000Y-68089792D01*
X94451088Y-68170673D01*
X94465001Y-68191495D01*
X94465001Y-68458437D01*
X94450000Y-68458437D01*
X94319289Y-68484437D01*
X94208478Y-68558478D01*
X94134437Y-68669289D01*
X94108437Y-68800000D01*
X94108437Y-69295566D01*
X93874647Y-69198727D01*
X93620039Y-69198727D01*
X93384812Y-69296161D01*
X93291563Y-69389410D01*
X93291563Y-68800000D01*
X93265563Y-68669289D01*
X93192539Y-68560000D01*
X93451250Y-68560000D01*
X93547500Y-68463750D01*
X93547500Y-67765000D01*
X92886250Y-67765000D01*
X92790000Y-67861250D01*
X92790000Y-68084903D01*
X92762531Y-68057434D01*
X92527304Y-67960000D01*
X92272696Y-67960000D01*
X92037469Y-68057434D01*
X91935010Y-68159893D01*
X91935010Y-67148418D01*
X92790000Y-67148418D01*
X92790000Y-67538750D01*
X92886250Y-67635000D01*
X93547500Y-67635000D01*
X93547500Y-66936250D01*
X93451250Y-66840000D01*
X93098419Y-66840000D01*
X92956915Y-66898613D01*
X92848613Y-67006915D01*
X92790000Y-67148418D01*
X91935010Y-67148418D01*
X91935010Y-66641888D01*
X92264547Y-66312351D01*
X92299198Y-66289198D01*
X92390921Y-66151925D01*
X92413667Y-66037572D01*
X92529905Y-65959905D01*
X92625000Y-65817585D01*
X92720095Y-65959905D01*
X92963217Y-66122354D01*
X93250000Y-66179399D01*
X93536782Y-66122354D01*
X93779905Y-65959905D01*
X93850428Y-65854360D01*
X93990883Y-66031041D01*
X94259646Y-66180120D01*
X94313421Y-66192504D01*
X94435000Y-66115676D01*
X94435000Y-65245000D01*
X94415000Y-65245000D01*
X94415000Y-65115000D01*
X94435000Y-65115000D01*
X94435000Y-65095000D01*
X94565000Y-65095000D01*
X94565000Y-65115000D01*
X94565000Y-65115000D01*
G37*
X94565000Y-65115000D02*
X94585000Y-65115000D01*
X94585000Y-65245000D01*
X94565000Y-65245000D01*
X94565000Y-66115676D01*
X94686579Y-66192504D01*
X94740354Y-66180120D01*
X95009117Y-66031041D01*
X95101500Y-65914830D01*
X95167057Y-66012943D01*
X95342753Y-66130339D01*
X95550000Y-66171563D01*
X95950000Y-66171563D01*
X96157247Y-66130339D01*
X96332943Y-66012943D01*
X96450339Y-65837247D01*
X96484601Y-65665000D01*
X97637303Y-65665000D01*
X97634437Y-65669289D01*
X97608437Y-65800000D01*
X97608437Y-66655669D01*
X97049107Y-67215000D01*
X95914339Y-67215000D01*
X95802451Y-67047549D01*
X95620673Y-66926088D01*
X95406250Y-66883437D01*
X94968750Y-66883437D01*
X94754327Y-66926088D01*
X94572549Y-67047549D01*
X94451088Y-67229327D01*
X94435000Y-67310208D01*
X94435000Y-67148418D01*
X94376387Y-67006915D01*
X94268085Y-66898613D01*
X94126581Y-66840000D01*
X93773750Y-66840000D01*
X93677500Y-66936250D01*
X93677500Y-67635000D01*
X93697500Y-67635000D01*
X93697500Y-67765000D01*
X93677500Y-67765000D01*
X93677500Y-68463750D01*
X93773750Y-68560000D01*
X94126581Y-68560000D01*
X94268085Y-68501387D01*
X94376387Y-68393085D01*
X94435000Y-68251582D01*
X94435000Y-68089792D01*
X94451088Y-68170673D01*
X94465001Y-68191495D01*
X94465001Y-68458437D01*
X94450000Y-68458437D01*
X94319289Y-68484437D01*
X94208478Y-68558478D01*
X94134437Y-68669289D01*
X94108437Y-68800000D01*
X94108437Y-69295566D01*
X93874647Y-69198727D01*
X93620039Y-69198727D01*
X93384812Y-69296161D01*
X93291563Y-69389410D01*
X93291563Y-68800000D01*
X93265563Y-68669289D01*
X93192539Y-68560000D01*
X93451250Y-68560000D01*
X93547500Y-68463750D01*
X93547500Y-67765000D01*
X92886250Y-67765000D01*
X92790000Y-67861250D01*
X92790000Y-68084903D01*
X92762531Y-68057434D01*
X92527304Y-67960000D01*
X92272696Y-67960000D01*
X92037469Y-68057434D01*
X91935010Y-68159893D01*
X91935010Y-67148418D01*
X92790000Y-67148418D01*
X92790000Y-67538750D01*
X92886250Y-67635000D01*
X93547500Y-67635000D01*
X93547500Y-66936250D01*
X93451250Y-66840000D01*
X93098419Y-66840000D01*
X92956915Y-66898613D01*
X92848613Y-67006915D01*
X92790000Y-67148418D01*
X91935010Y-67148418D01*
X91935010Y-66641888D01*
X92264547Y-66312351D01*
X92299198Y-66289198D01*
X92390921Y-66151925D01*
X92413667Y-66037572D01*
X92529905Y-65959905D01*
X92625000Y-65817585D01*
X92720095Y-65959905D01*
X92963217Y-66122354D01*
X93250000Y-66179399D01*
X93536782Y-66122354D01*
X93779905Y-65959905D01*
X93850428Y-65854360D01*
X93990883Y-66031041D01*
X94259646Y-66180120D01*
X94313421Y-66192504D01*
X94435000Y-66115676D01*
X94435000Y-65245000D01*
X94415000Y-65245000D01*
X94415000Y-65115000D01*
X94435000Y-65115000D01*
X94435000Y-65095000D01*
X94565000Y-65095000D01*
X94565000Y-65115000D01*
G04 #@! TD*
M02*
