G04 #@! TF.GenerationSoftware,KiCad,Pcbnew,(5.0.1-3-g963ef8bb5)*
G04 #@! TF.CreationDate,2018-10-28T18:09:26+01:00*
G04 #@! TF.ProjectId,can-io-board,63616E2D696F2D626F6172642E6B6963,rev?*
G04 #@! TF.SameCoordinates,Original*
G04 #@! TF.FileFunction,Paste,Top*
G04 #@! TF.FilePolarity,Positive*
%FSLAX46Y46*%
G04 Gerber Fmt 4.6, Leading zero omitted, Abs format (unit mm)*
G04 Created by KiCad (PCBNEW (5.0.1-3-g963ef8bb5)) date 2018 October 28, Sunday 18:09:26*
%MOMM*%
%LPD*%
G01*
G04 APERTURE LIST*
%ADD10C,0.100000*%
%ADD11C,0.640000*%
%ADD12C,1.680000*%
%ADD13R,0.560000X0.200000*%
%ADD14R,0.200000X0.560000*%
%ADD15R,1.035000X1.035000*%
%ADD16R,0.640000X0.960000*%
%ADD17R,0.800000X0.360000*%
%ADD18C,0.700000*%
%ADD19C,0.472000*%
%ADD20R,0.920000X1.120000*%
%ADD21R,0.800000X0.800000*%
G04 APERTURE END LIST*
D10*
G04 #@! TO.C,J2*
G36*
X87800683Y-78560770D02*
X87816214Y-78563074D01*
X87831446Y-78566890D01*
X87846229Y-78572179D01*
X87860423Y-78578893D01*
X87873891Y-78586965D01*
X87886503Y-78596318D01*
X87898137Y-78606863D01*
X87908682Y-78618497D01*
X87918035Y-78631109D01*
X87926107Y-78644577D01*
X87932821Y-78658771D01*
X87938110Y-78673554D01*
X87941926Y-78688786D01*
X87944230Y-78704317D01*
X87945000Y-78720000D01*
X87945000Y-79680000D01*
X87944230Y-79695683D01*
X87941926Y-79711214D01*
X87938110Y-79726446D01*
X87932821Y-79741229D01*
X87926107Y-79755423D01*
X87918035Y-79768891D01*
X87908682Y-79781503D01*
X87898137Y-79793137D01*
X87886503Y-79803682D01*
X87873891Y-79813035D01*
X87860423Y-79821107D01*
X87846229Y-79827821D01*
X87831446Y-79833110D01*
X87816214Y-79836926D01*
X87800683Y-79839230D01*
X87785000Y-79840000D01*
X87465000Y-79840000D01*
X87449317Y-79839230D01*
X87433786Y-79836926D01*
X87418554Y-79833110D01*
X87403771Y-79827821D01*
X87389577Y-79821107D01*
X87376109Y-79813035D01*
X87363497Y-79803682D01*
X87351863Y-79793137D01*
X87341318Y-79781503D01*
X87331965Y-79768891D01*
X87323893Y-79755423D01*
X87317179Y-79741229D01*
X87311890Y-79726446D01*
X87308074Y-79711214D01*
X87305770Y-79695683D01*
X87305000Y-79680000D01*
X87305000Y-78720000D01*
X87305770Y-78704317D01*
X87308074Y-78688786D01*
X87311890Y-78673554D01*
X87317179Y-78658771D01*
X87323893Y-78644577D01*
X87331965Y-78631109D01*
X87341318Y-78618497D01*
X87351863Y-78606863D01*
X87363497Y-78596318D01*
X87376109Y-78586965D01*
X87389577Y-78578893D01*
X87403771Y-78572179D01*
X87418554Y-78566890D01*
X87433786Y-78563074D01*
X87449317Y-78560770D01*
X87465000Y-78560000D01*
X87785000Y-78560000D01*
X87800683Y-78560770D01*
X87800683Y-78560770D01*
G37*
D11*
X87625000Y-79200000D03*
D10*
G36*
X89050683Y-78560770D02*
X89066214Y-78563074D01*
X89081446Y-78566890D01*
X89096229Y-78572179D01*
X89110423Y-78578893D01*
X89123891Y-78586965D01*
X89136503Y-78596318D01*
X89148137Y-78606863D01*
X89158682Y-78618497D01*
X89168035Y-78631109D01*
X89176107Y-78644577D01*
X89182821Y-78658771D01*
X89188110Y-78673554D01*
X89191926Y-78688786D01*
X89194230Y-78704317D01*
X89195000Y-78720000D01*
X89195000Y-79680000D01*
X89194230Y-79695683D01*
X89191926Y-79711214D01*
X89188110Y-79726446D01*
X89182821Y-79741229D01*
X89176107Y-79755423D01*
X89168035Y-79768891D01*
X89158682Y-79781503D01*
X89148137Y-79793137D01*
X89136503Y-79803682D01*
X89123891Y-79813035D01*
X89110423Y-79821107D01*
X89096229Y-79827821D01*
X89081446Y-79833110D01*
X89066214Y-79836926D01*
X89050683Y-79839230D01*
X89035000Y-79840000D01*
X88715000Y-79840000D01*
X88699317Y-79839230D01*
X88683786Y-79836926D01*
X88668554Y-79833110D01*
X88653771Y-79827821D01*
X88639577Y-79821107D01*
X88626109Y-79813035D01*
X88613497Y-79803682D01*
X88601863Y-79793137D01*
X88591318Y-79781503D01*
X88581965Y-79768891D01*
X88573893Y-79755423D01*
X88567179Y-79741229D01*
X88561890Y-79726446D01*
X88558074Y-79711214D01*
X88555770Y-79695683D01*
X88555000Y-79680000D01*
X88555000Y-78720000D01*
X88555770Y-78704317D01*
X88558074Y-78688786D01*
X88561890Y-78673554D01*
X88567179Y-78658771D01*
X88573893Y-78644577D01*
X88581965Y-78631109D01*
X88591318Y-78618497D01*
X88601863Y-78606863D01*
X88613497Y-78596318D01*
X88626109Y-78586965D01*
X88639577Y-78578893D01*
X88653771Y-78572179D01*
X88668554Y-78566890D01*
X88683786Y-78563074D01*
X88699317Y-78560770D01*
X88715000Y-78560000D01*
X89035000Y-78560000D01*
X89050683Y-78560770D01*
X89050683Y-78560770D01*
G37*
D11*
X88875000Y-79200000D03*
D10*
G36*
X90300683Y-78560770D02*
X90316214Y-78563074D01*
X90331446Y-78566890D01*
X90346229Y-78572179D01*
X90360423Y-78578893D01*
X90373891Y-78586965D01*
X90386503Y-78596318D01*
X90398137Y-78606863D01*
X90408682Y-78618497D01*
X90418035Y-78631109D01*
X90426107Y-78644577D01*
X90432821Y-78658771D01*
X90438110Y-78673554D01*
X90441926Y-78688786D01*
X90444230Y-78704317D01*
X90445000Y-78720000D01*
X90445000Y-79680000D01*
X90444230Y-79695683D01*
X90441926Y-79711214D01*
X90438110Y-79726446D01*
X90432821Y-79741229D01*
X90426107Y-79755423D01*
X90418035Y-79768891D01*
X90408682Y-79781503D01*
X90398137Y-79793137D01*
X90386503Y-79803682D01*
X90373891Y-79813035D01*
X90360423Y-79821107D01*
X90346229Y-79827821D01*
X90331446Y-79833110D01*
X90316214Y-79836926D01*
X90300683Y-79839230D01*
X90285000Y-79840000D01*
X89965000Y-79840000D01*
X89949317Y-79839230D01*
X89933786Y-79836926D01*
X89918554Y-79833110D01*
X89903771Y-79827821D01*
X89889577Y-79821107D01*
X89876109Y-79813035D01*
X89863497Y-79803682D01*
X89851863Y-79793137D01*
X89841318Y-79781503D01*
X89831965Y-79768891D01*
X89823893Y-79755423D01*
X89817179Y-79741229D01*
X89811890Y-79726446D01*
X89808074Y-79711214D01*
X89805770Y-79695683D01*
X89805000Y-79680000D01*
X89805000Y-78720000D01*
X89805770Y-78704317D01*
X89808074Y-78688786D01*
X89811890Y-78673554D01*
X89817179Y-78658771D01*
X89823893Y-78644577D01*
X89831965Y-78631109D01*
X89841318Y-78618497D01*
X89851863Y-78606863D01*
X89863497Y-78596318D01*
X89876109Y-78586965D01*
X89889577Y-78578893D01*
X89903771Y-78572179D01*
X89918554Y-78566890D01*
X89933786Y-78563074D01*
X89949317Y-78560770D01*
X89965000Y-78560000D01*
X90285000Y-78560000D01*
X90300683Y-78560770D01*
X90300683Y-78560770D01*
G37*
D11*
X90125000Y-79200000D03*
D10*
G36*
X91550683Y-78560770D02*
X91566214Y-78563074D01*
X91581446Y-78566890D01*
X91596229Y-78572179D01*
X91610423Y-78578893D01*
X91623891Y-78586965D01*
X91636503Y-78596318D01*
X91648137Y-78606863D01*
X91658682Y-78618497D01*
X91668035Y-78631109D01*
X91676107Y-78644577D01*
X91682821Y-78658771D01*
X91688110Y-78673554D01*
X91691926Y-78688786D01*
X91694230Y-78704317D01*
X91695000Y-78720000D01*
X91695000Y-79680000D01*
X91694230Y-79695683D01*
X91691926Y-79711214D01*
X91688110Y-79726446D01*
X91682821Y-79741229D01*
X91676107Y-79755423D01*
X91668035Y-79768891D01*
X91658682Y-79781503D01*
X91648137Y-79793137D01*
X91636503Y-79803682D01*
X91623891Y-79813035D01*
X91610423Y-79821107D01*
X91596229Y-79827821D01*
X91581446Y-79833110D01*
X91566214Y-79836926D01*
X91550683Y-79839230D01*
X91535000Y-79840000D01*
X91215000Y-79840000D01*
X91199317Y-79839230D01*
X91183786Y-79836926D01*
X91168554Y-79833110D01*
X91153771Y-79827821D01*
X91139577Y-79821107D01*
X91126109Y-79813035D01*
X91113497Y-79803682D01*
X91101863Y-79793137D01*
X91091318Y-79781503D01*
X91081965Y-79768891D01*
X91073893Y-79755423D01*
X91067179Y-79741229D01*
X91061890Y-79726446D01*
X91058074Y-79711214D01*
X91055770Y-79695683D01*
X91055000Y-79680000D01*
X91055000Y-78720000D01*
X91055770Y-78704317D01*
X91058074Y-78688786D01*
X91061890Y-78673554D01*
X91067179Y-78658771D01*
X91073893Y-78644577D01*
X91081965Y-78631109D01*
X91091318Y-78618497D01*
X91101863Y-78606863D01*
X91113497Y-78596318D01*
X91126109Y-78586965D01*
X91139577Y-78578893D01*
X91153771Y-78572179D01*
X91168554Y-78566890D01*
X91183786Y-78563074D01*
X91199317Y-78560770D01*
X91215000Y-78560000D01*
X91535000Y-78560000D01*
X91550683Y-78560770D01*
X91550683Y-78560770D01*
G37*
D11*
X91375000Y-79200000D03*
D10*
G36*
X92800683Y-78560770D02*
X92816214Y-78563074D01*
X92831446Y-78566890D01*
X92846229Y-78572179D01*
X92860423Y-78578893D01*
X92873891Y-78586965D01*
X92886503Y-78596318D01*
X92898137Y-78606863D01*
X92908682Y-78618497D01*
X92918035Y-78631109D01*
X92926107Y-78644577D01*
X92932821Y-78658771D01*
X92938110Y-78673554D01*
X92941926Y-78688786D01*
X92944230Y-78704317D01*
X92945000Y-78720000D01*
X92945000Y-79680000D01*
X92944230Y-79695683D01*
X92941926Y-79711214D01*
X92938110Y-79726446D01*
X92932821Y-79741229D01*
X92926107Y-79755423D01*
X92918035Y-79768891D01*
X92908682Y-79781503D01*
X92898137Y-79793137D01*
X92886503Y-79803682D01*
X92873891Y-79813035D01*
X92860423Y-79821107D01*
X92846229Y-79827821D01*
X92831446Y-79833110D01*
X92816214Y-79836926D01*
X92800683Y-79839230D01*
X92785000Y-79840000D01*
X92465000Y-79840000D01*
X92449317Y-79839230D01*
X92433786Y-79836926D01*
X92418554Y-79833110D01*
X92403771Y-79827821D01*
X92389577Y-79821107D01*
X92376109Y-79813035D01*
X92363497Y-79803682D01*
X92351863Y-79793137D01*
X92341318Y-79781503D01*
X92331965Y-79768891D01*
X92323893Y-79755423D01*
X92317179Y-79741229D01*
X92311890Y-79726446D01*
X92308074Y-79711214D01*
X92305770Y-79695683D01*
X92305000Y-79680000D01*
X92305000Y-78720000D01*
X92305770Y-78704317D01*
X92308074Y-78688786D01*
X92311890Y-78673554D01*
X92317179Y-78658771D01*
X92323893Y-78644577D01*
X92331965Y-78631109D01*
X92341318Y-78618497D01*
X92351863Y-78606863D01*
X92363497Y-78596318D01*
X92376109Y-78586965D01*
X92389577Y-78578893D01*
X92403771Y-78572179D01*
X92418554Y-78566890D01*
X92433786Y-78563074D01*
X92449317Y-78560770D01*
X92465000Y-78560000D01*
X92785000Y-78560000D01*
X92800683Y-78560770D01*
X92800683Y-78560770D01*
G37*
D11*
X92625000Y-79200000D03*
D10*
G36*
X94050683Y-78560770D02*
X94066214Y-78563074D01*
X94081446Y-78566890D01*
X94096229Y-78572179D01*
X94110423Y-78578893D01*
X94123891Y-78586965D01*
X94136503Y-78596318D01*
X94148137Y-78606863D01*
X94158682Y-78618497D01*
X94168035Y-78631109D01*
X94176107Y-78644577D01*
X94182821Y-78658771D01*
X94188110Y-78673554D01*
X94191926Y-78688786D01*
X94194230Y-78704317D01*
X94195000Y-78720000D01*
X94195000Y-79680000D01*
X94194230Y-79695683D01*
X94191926Y-79711214D01*
X94188110Y-79726446D01*
X94182821Y-79741229D01*
X94176107Y-79755423D01*
X94168035Y-79768891D01*
X94158682Y-79781503D01*
X94148137Y-79793137D01*
X94136503Y-79803682D01*
X94123891Y-79813035D01*
X94110423Y-79821107D01*
X94096229Y-79827821D01*
X94081446Y-79833110D01*
X94066214Y-79836926D01*
X94050683Y-79839230D01*
X94035000Y-79840000D01*
X93715000Y-79840000D01*
X93699317Y-79839230D01*
X93683786Y-79836926D01*
X93668554Y-79833110D01*
X93653771Y-79827821D01*
X93639577Y-79821107D01*
X93626109Y-79813035D01*
X93613497Y-79803682D01*
X93601863Y-79793137D01*
X93591318Y-79781503D01*
X93581965Y-79768891D01*
X93573893Y-79755423D01*
X93567179Y-79741229D01*
X93561890Y-79726446D01*
X93558074Y-79711214D01*
X93555770Y-79695683D01*
X93555000Y-79680000D01*
X93555000Y-78720000D01*
X93555770Y-78704317D01*
X93558074Y-78688786D01*
X93561890Y-78673554D01*
X93567179Y-78658771D01*
X93573893Y-78644577D01*
X93581965Y-78631109D01*
X93591318Y-78618497D01*
X93601863Y-78606863D01*
X93613497Y-78596318D01*
X93626109Y-78586965D01*
X93639577Y-78578893D01*
X93653771Y-78572179D01*
X93668554Y-78566890D01*
X93683786Y-78563074D01*
X93699317Y-78560770D01*
X93715000Y-78560000D01*
X94035000Y-78560000D01*
X94050683Y-78560770D01*
X94050683Y-78560770D01*
G37*
D11*
X93875000Y-79200000D03*
D10*
G36*
X95300683Y-78560770D02*
X95316214Y-78563074D01*
X95331446Y-78566890D01*
X95346229Y-78572179D01*
X95360423Y-78578893D01*
X95373891Y-78586965D01*
X95386503Y-78596318D01*
X95398137Y-78606863D01*
X95408682Y-78618497D01*
X95418035Y-78631109D01*
X95426107Y-78644577D01*
X95432821Y-78658771D01*
X95438110Y-78673554D01*
X95441926Y-78688786D01*
X95444230Y-78704317D01*
X95445000Y-78720000D01*
X95445000Y-79680000D01*
X95444230Y-79695683D01*
X95441926Y-79711214D01*
X95438110Y-79726446D01*
X95432821Y-79741229D01*
X95426107Y-79755423D01*
X95418035Y-79768891D01*
X95408682Y-79781503D01*
X95398137Y-79793137D01*
X95386503Y-79803682D01*
X95373891Y-79813035D01*
X95360423Y-79821107D01*
X95346229Y-79827821D01*
X95331446Y-79833110D01*
X95316214Y-79836926D01*
X95300683Y-79839230D01*
X95285000Y-79840000D01*
X94965000Y-79840000D01*
X94949317Y-79839230D01*
X94933786Y-79836926D01*
X94918554Y-79833110D01*
X94903771Y-79827821D01*
X94889577Y-79821107D01*
X94876109Y-79813035D01*
X94863497Y-79803682D01*
X94851863Y-79793137D01*
X94841318Y-79781503D01*
X94831965Y-79768891D01*
X94823893Y-79755423D01*
X94817179Y-79741229D01*
X94811890Y-79726446D01*
X94808074Y-79711214D01*
X94805770Y-79695683D01*
X94805000Y-79680000D01*
X94805000Y-78720000D01*
X94805770Y-78704317D01*
X94808074Y-78688786D01*
X94811890Y-78673554D01*
X94817179Y-78658771D01*
X94823893Y-78644577D01*
X94831965Y-78631109D01*
X94841318Y-78618497D01*
X94851863Y-78606863D01*
X94863497Y-78596318D01*
X94876109Y-78586965D01*
X94889577Y-78578893D01*
X94903771Y-78572179D01*
X94918554Y-78566890D01*
X94933786Y-78563074D01*
X94949317Y-78560770D01*
X94965000Y-78560000D01*
X95285000Y-78560000D01*
X95300683Y-78560770D01*
X95300683Y-78560770D01*
G37*
D11*
X95125000Y-79200000D03*
D10*
G36*
X96550683Y-78560770D02*
X96566214Y-78563074D01*
X96581446Y-78566890D01*
X96596229Y-78572179D01*
X96610423Y-78578893D01*
X96623891Y-78586965D01*
X96636503Y-78596318D01*
X96648137Y-78606863D01*
X96658682Y-78618497D01*
X96668035Y-78631109D01*
X96676107Y-78644577D01*
X96682821Y-78658771D01*
X96688110Y-78673554D01*
X96691926Y-78688786D01*
X96694230Y-78704317D01*
X96695000Y-78720000D01*
X96695000Y-79680000D01*
X96694230Y-79695683D01*
X96691926Y-79711214D01*
X96688110Y-79726446D01*
X96682821Y-79741229D01*
X96676107Y-79755423D01*
X96668035Y-79768891D01*
X96658682Y-79781503D01*
X96648137Y-79793137D01*
X96636503Y-79803682D01*
X96623891Y-79813035D01*
X96610423Y-79821107D01*
X96596229Y-79827821D01*
X96581446Y-79833110D01*
X96566214Y-79836926D01*
X96550683Y-79839230D01*
X96535000Y-79840000D01*
X96215000Y-79840000D01*
X96199317Y-79839230D01*
X96183786Y-79836926D01*
X96168554Y-79833110D01*
X96153771Y-79827821D01*
X96139577Y-79821107D01*
X96126109Y-79813035D01*
X96113497Y-79803682D01*
X96101863Y-79793137D01*
X96091318Y-79781503D01*
X96081965Y-79768891D01*
X96073893Y-79755423D01*
X96067179Y-79741229D01*
X96061890Y-79726446D01*
X96058074Y-79711214D01*
X96055770Y-79695683D01*
X96055000Y-79680000D01*
X96055000Y-78720000D01*
X96055770Y-78704317D01*
X96058074Y-78688786D01*
X96061890Y-78673554D01*
X96067179Y-78658771D01*
X96073893Y-78644577D01*
X96081965Y-78631109D01*
X96091318Y-78618497D01*
X96101863Y-78606863D01*
X96113497Y-78596318D01*
X96126109Y-78586965D01*
X96139577Y-78578893D01*
X96153771Y-78572179D01*
X96168554Y-78566890D01*
X96183786Y-78563074D01*
X96199317Y-78560770D01*
X96215000Y-78560000D01*
X96535000Y-78560000D01*
X96550683Y-78560770D01*
X96550683Y-78560770D01*
G37*
D11*
X96375000Y-79200000D03*
D10*
G36*
X85734603Y-80900963D02*
X85754018Y-80903843D01*
X85773057Y-80908612D01*
X85791537Y-80915224D01*
X85809279Y-80923616D01*
X85826114Y-80933706D01*
X85841879Y-80945398D01*
X85856421Y-80958579D01*
X85869602Y-80973121D01*
X85881294Y-80988886D01*
X85891384Y-81005721D01*
X85899776Y-81023463D01*
X85906388Y-81041943D01*
X85911157Y-81060982D01*
X85914037Y-81080397D01*
X85915000Y-81100000D01*
X85915000Y-83100000D01*
X85914037Y-83119603D01*
X85911157Y-83139018D01*
X85906388Y-83158057D01*
X85899776Y-83176537D01*
X85891384Y-83194279D01*
X85881294Y-83211114D01*
X85869602Y-83226879D01*
X85856421Y-83241421D01*
X85841879Y-83254602D01*
X85826114Y-83266294D01*
X85809279Y-83276384D01*
X85791537Y-83284776D01*
X85773057Y-83291388D01*
X85754018Y-83296157D01*
X85734603Y-83299037D01*
X85715000Y-83300000D01*
X84435000Y-83300000D01*
X84415397Y-83299037D01*
X84395982Y-83296157D01*
X84376943Y-83291388D01*
X84358463Y-83284776D01*
X84340721Y-83276384D01*
X84323886Y-83266294D01*
X84308121Y-83254602D01*
X84293579Y-83241421D01*
X84280398Y-83226879D01*
X84268706Y-83211114D01*
X84258616Y-83194279D01*
X84250224Y-83176537D01*
X84243612Y-83158057D01*
X84238843Y-83139018D01*
X84235963Y-83119603D01*
X84235000Y-83100000D01*
X84235000Y-81100000D01*
X84235963Y-81080397D01*
X84238843Y-81060982D01*
X84243612Y-81041943D01*
X84250224Y-81023463D01*
X84258616Y-81005721D01*
X84268706Y-80988886D01*
X84280398Y-80973121D01*
X84293579Y-80958579D01*
X84308121Y-80945398D01*
X84323886Y-80933706D01*
X84340721Y-80923616D01*
X84358463Y-80915224D01*
X84376943Y-80908612D01*
X84395982Y-80903843D01*
X84415397Y-80900963D01*
X84435000Y-80900000D01*
X85715000Y-80900000D01*
X85734603Y-80900963D01*
X85734603Y-80900963D01*
G37*
D12*
X85075000Y-82100000D03*
D10*
G36*
X99584603Y-80900963D02*
X99604018Y-80903843D01*
X99623057Y-80908612D01*
X99641537Y-80915224D01*
X99659279Y-80923616D01*
X99676114Y-80933706D01*
X99691879Y-80945398D01*
X99706421Y-80958579D01*
X99719602Y-80973121D01*
X99731294Y-80988886D01*
X99741384Y-81005721D01*
X99749776Y-81023463D01*
X99756388Y-81041943D01*
X99761157Y-81060982D01*
X99764037Y-81080397D01*
X99765000Y-81100000D01*
X99765000Y-83100000D01*
X99764037Y-83119603D01*
X99761157Y-83139018D01*
X99756388Y-83158057D01*
X99749776Y-83176537D01*
X99741384Y-83194279D01*
X99731294Y-83211114D01*
X99719602Y-83226879D01*
X99706421Y-83241421D01*
X99691879Y-83254602D01*
X99676114Y-83266294D01*
X99659279Y-83276384D01*
X99641537Y-83284776D01*
X99623057Y-83291388D01*
X99604018Y-83296157D01*
X99584603Y-83299037D01*
X99565000Y-83300000D01*
X98285000Y-83300000D01*
X98265397Y-83299037D01*
X98245982Y-83296157D01*
X98226943Y-83291388D01*
X98208463Y-83284776D01*
X98190721Y-83276384D01*
X98173886Y-83266294D01*
X98158121Y-83254602D01*
X98143579Y-83241421D01*
X98130398Y-83226879D01*
X98118706Y-83211114D01*
X98108616Y-83194279D01*
X98100224Y-83176537D01*
X98093612Y-83158057D01*
X98088843Y-83139018D01*
X98085963Y-83119603D01*
X98085000Y-83100000D01*
X98085000Y-81100000D01*
X98085963Y-81080397D01*
X98088843Y-81060982D01*
X98093612Y-81041943D01*
X98100224Y-81023463D01*
X98108616Y-81005721D01*
X98118706Y-80988886D01*
X98130398Y-80973121D01*
X98143579Y-80958579D01*
X98158121Y-80945398D01*
X98173886Y-80933706D01*
X98190721Y-80923616D01*
X98208463Y-80915224D01*
X98226943Y-80908612D01*
X98245982Y-80903843D01*
X98265397Y-80900963D01*
X98285000Y-80900000D01*
X99565000Y-80900000D01*
X99584603Y-80900963D01*
X99584603Y-80900963D01*
G37*
D12*
X98925000Y-82100000D03*
G04 #@! TD*
D13*
G04 #@! TO.C,U1*
X88820000Y-71830000D03*
X88820000Y-72330000D03*
X88820000Y-72830000D03*
X88820000Y-73330000D03*
X88820000Y-73830000D03*
X88820000Y-74330000D03*
X88820000Y-74830000D03*
X88820000Y-75330000D03*
D14*
X89470000Y-75980000D03*
X89970000Y-75980000D03*
X90470000Y-75980000D03*
X90970000Y-75980000D03*
X91470000Y-75980000D03*
X91970000Y-75980000D03*
X92470000Y-75980000D03*
X92970000Y-75980000D03*
D13*
X93620000Y-75330000D03*
X93620000Y-74830000D03*
X93620000Y-74330000D03*
X93620000Y-73830000D03*
X93620000Y-73330000D03*
X93620000Y-72830000D03*
X93620000Y-72330000D03*
X93620000Y-71830000D03*
D14*
X92970000Y-71180000D03*
X92470000Y-71180000D03*
X91970000Y-71180000D03*
X91470000Y-71180000D03*
X90970000Y-71180000D03*
X90470000Y-71180000D03*
X89970000Y-71180000D03*
X89470000Y-71180000D03*
D15*
X92082500Y-74442500D03*
X92082500Y-72717500D03*
X90357500Y-74442500D03*
X90357500Y-72717500D03*
G04 #@! TD*
D16*
G04 #@! TO.C,U2*
X98350000Y-66400000D03*
X99300000Y-69000000D03*
X97400000Y-69000000D03*
G04 #@! TD*
D17*
G04 #@! TO.C,U3*
X98180000Y-71990000D03*
X98180000Y-72640000D03*
X98180000Y-73290000D03*
X98180000Y-73940000D03*
X95580000Y-73940000D03*
X95580000Y-73290000D03*
X95580000Y-72640000D03*
X95580000Y-71990000D03*
G04 #@! TD*
D10*
G04 #@! TO.C,C1*
G36*
X88184653Y-68020843D02*
X88201641Y-68023363D01*
X88218300Y-68027535D01*
X88234470Y-68033321D01*
X88249994Y-68040664D01*
X88264725Y-68049493D01*
X88278519Y-68059723D01*
X88291244Y-68071256D01*
X88302777Y-68083981D01*
X88313007Y-68097775D01*
X88321836Y-68112506D01*
X88329179Y-68128030D01*
X88334965Y-68144200D01*
X88339137Y-68160859D01*
X88341657Y-68177847D01*
X88342500Y-68195000D01*
X88342500Y-68605000D01*
X88341657Y-68622153D01*
X88339137Y-68639141D01*
X88334965Y-68655800D01*
X88329179Y-68671970D01*
X88321836Y-68687494D01*
X88313007Y-68702225D01*
X88302777Y-68716019D01*
X88291244Y-68728744D01*
X88278519Y-68740277D01*
X88264725Y-68750507D01*
X88249994Y-68759336D01*
X88234470Y-68766679D01*
X88218300Y-68772465D01*
X88201641Y-68776637D01*
X88184653Y-68779157D01*
X88167500Y-68780000D01*
X87817500Y-68780000D01*
X87800347Y-68779157D01*
X87783359Y-68776637D01*
X87766700Y-68772465D01*
X87750530Y-68766679D01*
X87735006Y-68759336D01*
X87720275Y-68750507D01*
X87706481Y-68740277D01*
X87693756Y-68728744D01*
X87682223Y-68716019D01*
X87671993Y-68702225D01*
X87663164Y-68687494D01*
X87655821Y-68671970D01*
X87650035Y-68655800D01*
X87645863Y-68639141D01*
X87643343Y-68622153D01*
X87642500Y-68605000D01*
X87642500Y-68195000D01*
X87643343Y-68177847D01*
X87645863Y-68160859D01*
X87650035Y-68144200D01*
X87655821Y-68128030D01*
X87663164Y-68112506D01*
X87671993Y-68097775D01*
X87682223Y-68083981D01*
X87693756Y-68071256D01*
X87706481Y-68059723D01*
X87720275Y-68049493D01*
X87735006Y-68040664D01*
X87750530Y-68033321D01*
X87766700Y-68027535D01*
X87783359Y-68023363D01*
X87800347Y-68020843D01*
X87817500Y-68020000D01*
X88167500Y-68020000D01*
X88184653Y-68020843D01*
X88184653Y-68020843D01*
G37*
D18*
X87992500Y-68400000D03*
D10*
G36*
X89759653Y-68020843D02*
X89776641Y-68023363D01*
X89793300Y-68027535D01*
X89809470Y-68033321D01*
X89824994Y-68040664D01*
X89839725Y-68049493D01*
X89853519Y-68059723D01*
X89866244Y-68071256D01*
X89877777Y-68083981D01*
X89888007Y-68097775D01*
X89896836Y-68112506D01*
X89904179Y-68128030D01*
X89909965Y-68144200D01*
X89914137Y-68160859D01*
X89916657Y-68177847D01*
X89917500Y-68195000D01*
X89917500Y-68605000D01*
X89916657Y-68622153D01*
X89914137Y-68639141D01*
X89909965Y-68655800D01*
X89904179Y-68671970D01*
X89896836Y-68687494D01*
X89888007Y-68702225D01*
X89877777Y-68716019D01*
X89866244Y-68728744D01*
X89853519Y-68740277D01*
X89839725Y-68750507D01*
X89824994Y-68759336D01*
X89809470Y-68766679D01*
X89793300Y-68772465D01*
X89776641Y-68776637D01*
X89759653Y-68779157D01*
X89742500Y-68780000D01*
X89392500Y-68780000D01*
X89375347Y-68779157D01*
X89358359Y-68776637D01*
X89341700Y-68772465D01*
X89325530Y-68766679D01*
X89310006Y-68759336D01*
X89295275Y-68750507D01*
X89281481Y-68740277D01*
X89268756Y-68728744D01*
X89257223Y-68716019D01*
X89246993Y-68702225D01*
X89238164Y-68687494D01*
X89230821Y-68671970D01*
X89225035Y-68655800D01*
X89220863Y-68639141D01*
X89218343Y-68622153D01*
X89217500Y-68605000D01*
X89217500Y-68195000D01*
X89218343Y-68177847D01*
X89220863Y-68160859D01*
X89225035Y-68144200D01*
X89230821Y-68128030D01*
X89238164Y-68112506D01*
X89246993Y-68097775D01*
X89257223Y-68083981D01*
X89268756Y-68071256D01*
X89281481Y-68059723D01*
X89295275Y-68049493D01*
X89310006Y-68040664D01*
X89325530Y-68033321D01*
X89341700Y-68027535D01*
X89358359Y-68023363D01*
X89375347Y-68020843D01*
X89392500Y-68020000D01*
X89742500Y-68020000D01*
X89759653Y-68020843D01*
X89759653Y-68020843D01*
G37*
D18*
X89567500Y-68400000D03*
G04 #@! TD*
D10*
G04 #@! TO.C,C2*
G36*
X96124566Y-75484568D02*
X96136021Y-75486267D01*
X96147254Y-75489081D01*
X96158157Y-75492982D01*
X96168625Y-75497933D01*
X96178557Y-75503887D01*
X96187858Y-75510785D01*
X96196439Y-75518561D01*
X96204215Y-75527142D01*
X96211113Y-75536443D01*
X96217067Y-75546375D01*
X96222018Y-75556843D01*
X96225919Y-75567746D01*
X96228733Y-75578979D01*
X96230432Y-75590434D01*
X96231000Y-75602000D01*
X96231000Y-75878000D01*
X96230432Y-75889566D01*
X96228733Y-75901021D01*
X96225919Y-75912254D01*
X96222018Y-75923157D01*
X96217067Y-75933625D01*
X96211113Y-75943557D01*
X96204215Y-75952858D01*
X96196439Y-75961439D01*
X96187858Y-75969215D01*
X96178557Y-75976113D01*
X96168625Y-75982067D01*
X96158157Y-75987018D01*
X96147254Y-75990919D01*
X96136021Y-75993733D01*
X96124566Y-75995432D01*
X96113000Y-75996000D01*
X95877000Y-75996000D01*
X95865434Y-75995432D01*
X95853979Y-75993733D01*
X95842746Y-75990919D01*
X95831843Y-75987018D01*
X95821375Y-75982067D01*
X95811443Y-75976113D01*
X95802142Y-75969215D01*
X95793561Y-75961439D01*
X95785785Y-75952858D01*
X95778887Y-75943557D01*
X95772933Y-75933625D01*
X95767982Y-75923157D01*
X95764081Y-75912254D01*
X95761267Y-75901021D01*
X95759568Y-75889566D01*
X95759000Y-75878000D01*
X95759000Y-75602000D01*
X95759568Y-75590434D01*
X95761267Y-75578979D01*
X95764081Y-75567746D01*
X95767982Y-75556843D01*
X95772933Y-75546375D01*
X95778887Y-75536443D01*
X95785785Y-75527142D01*
X95793561Y-75518561D01*
X95802142Y-75510785D01*
X95811443Y-75503887D01*
X95821375Y-75497933D01*
X95831843Y-75492982D01*
X95842746Y-75489081D01*
X95853979Y-75486267D01*
X95865434Y-75484568D01*
X95877000Y-75484000D01*
X96113000Y-75484000D01*
X96124566Y-75484568D01*
X96124566Y-75484568D01*
G37*
D19*
X95995000Y-75740000D03*
D10*
G36*
X95154566Y-75484568D02*
X95166021Y-75486267D01*
X95177254Y-75489081D01*
X95188157Y-75492982D01*
X95198625Y-75497933D01*
X95208557Y-75503887D01*
X95217858Y-75510785D01*
X95226439Y-75518561D01*
X95234215Y-75527142D01*
X95241113Y-75536443D01*
X95247067Y-75546375D01*
X95252018Y-75556843D01*
X95255919Y-75567746D01*
X95258733Y-75578979D01*
X95260432Y-75590434D01*
X95261000Y-75602000D01*
X95261000Y-75878000D01*
X95260432Y-75889566D01*
X95258733Y-75901021D01*
X95255919Y-75912254D01*
X95252018Y-75923157D01*
X95247067Y-75933625D01*
X95241113Y-75943557D01*
X95234215Y-75952858D01*
X95226439Y-75961439D01*
X95217858Y-75969215D01*
X95208557Y-75976113D01*
X95198625Y-75982067D01*
X95188157Y-75987018D01*
X95177254Y-75990919D01*
X95166021Y-75993733D01*
X95154566Y-75995432D01*
X95143000Y-75996000D01*
X94907000Y-75996000D01*
X94895434Y-75995432D01*
X94883979Y-75993733D01*
X94872746Y-75990919D01*
X94861843Y-75987018D01*
X94851375Y-75982067D01*
X94841443Y-75976113D01*
X94832142Y-75969215D01*
X94823561Y-75961439D01*
X94815785Y-75952858D01*
X94808887Y-75943557D01*
X94802933Y-75933625D01*
X94797982Y-75923157D01*
X94794081Y-75912254D01*
X94791267Y-75901021D01*
X94789568Y-75889566D01*
X94789000Y-75878000D01*
X94789000Y-75602000D01*
X94789568Y-75590434D01*
X94791267Y-75578979D01*
X94794081Y-75567746D01*
X94797982Y-75556843D01*
X94802933Y-75546375D01*
X94808887Y-75536443D01*
X94815785Y-75527142D01*
X94823561Y-75518561D01*
X94832142Y-75510785D01*
X94841443Y-75503887D01*
X94851375Y-75497933D01*
X94861843Y-75492982D01*
X94872746Y-75489081D01*
X94883979Y-75486267D01*
X94895434Y-75484568D01*
X94907000Y-75484000D01*
X95143000Y-75484000D01*
X95154566Y-75484568D01*
X95154566Y-75484568D01*
G37*
D19*
X95025000Y-75740000D03*
G04 #@! TD*
D10*
G04 #@! TO.C,C3*
G36*
X86784566Y-75154568D02*
X86796021Y-75156267D01*
X86807254Y-75159081D01*
X86818157Y-75162982D01*
X86828625Y-75167933D01*
X86838557Y-75173887D01*
X86847858Y-75180785D01*
X86856439Y-75188561D01*
X86864215Y-75197142D01*
X86871113Y-75206443D01*
X86877067Y-75216375D01*
X86882018Y-75226843D01*
X86885919Y-75237746D01*
X86888733Y-75248979D01*
X86890432Y-75260434D01*
X86891000Y-75272000D01*
X86891000Y-75548000D01*
X86890432Y-75559566D01*
X86888733Y-75571021D01*
X86885919Y-75582254D01*
X86882018Y-75593157D01*
X86877067Y-75603625D01*
X86871113Y-75613557D01*
X86864215Y-75622858D01*
X86856439Y-75631439D01*
X86847858Y-75639215D01*
X86838557Y-75646113D01*
X86828625Y-75652067D01*
X86818157Y-75657018D01*
X86807254Y-75660919D01*
X86796021Y-75663733D01*
X86784566Y-75665432D01*
X86773000Y-75666000D01*
X86537000Y-75666000D01*
X86525434Y-75665432D01*
X86513979Y-75663733D01*
X86502746Y-75660919D01*
X86491843Y-75657018D01*
X86481375Y-75652067D01*
X86471443Y-75646113D01*
X86462142Y-75639215D01*
X86453561Y-75631439D01*
X86445785Y-75622858D01*
X86438887Y-75613557D01*
X86432933Y-75603625D01*
X86427982Y-75593157D01*
X86424081Y-75582254D01*
X86421267Y-75571021D01*
X86419568Y-75559566D01*
X86419000Y-75548000D01*
X86419000Y-75272000D01*
X86419568Y-75260434D01*
X86421267Y-75248979D01*
X86424081Y-75237746D01*
X86427982Y-75226843D01*
X86432933Y-75216375D01*
X86438887Y-75206443D01*
X86445785Y-75197142D01*
X86453561Y-75188561D01*
X86462142Y-75180785D01*
X86471443Y-75173887D01*
X86481375Y-75167933D01*
X86491843Y-75162982D01*
X86502746Y-75159081D01*
X86513979Y-75156267D01*
X86525434Y-75154568D01*
X86537000Y-75154000D01*
X86773000Y-75154000D01*
X86784566Y-75154568D01*
X86784566Y-75154568D01*
G37*
D19*
X86655000Y-75410000D03*
D10*
G36*
X87754566Y-75154568D02*
X87766021Y-75156267D01*
X87777254Y-75159081D01*
X87788157Y-75162982D01*
X87798625Y-75167933D01*
X87808557Y-75173887D01*
X87817858Y-75180785D01*
X87826439Y-75188561D01*
X87834215Y-75197142D01*
X87841113Y-75206443D01*
X87847067Y-75216375D01*
X87852018Y-75226843D01*
X87855919Y-75237746D01*
X87858733Y-75248979D01*
X87860432Y-75260434D01*
X87861000Y-75272000D01*
X87861000Y-75548000D01*
X87860432Y-75559566D01*
X87858733Y-75571021D01*
X87855919Y-75582254D01*
X87852018Y-75593157D01*
X87847067Y-75603625D01*
X87841113Y-75613557D01*
X87834215Y-75622858D01*
X87826439Y-75631439D01*
X87817858Y-75639215D01*
X87808557Y-75646113D01*
X87798625Y-75652067D01*
X87788157Y-75657018D01*
X87777254Y-75660919D01*
X87766021Y-75663733D01*
X87754566Y-75665432D01*
X87743000Y-75666000D01*
X87507000Y-75666000D01*
X87495434Y-75665432D01*
X87483979Y-75663733D01*
X87472746Y-75660919D01*
X87461843Y-75657018D01*
X87451375Y-75652067D01*
X87441443Y-75646113D01*
X87432142Y-75639215D01*
X87423561Y-75631439D01*
X87415785Y-75622858D01*
X87408887Y-75613557D01*
X87402933Y-75603625D01*
X87397982Y-75593157D01*
X87394081Y-75582254D01*
X87391267Y-75571021D01*
X87389568Y-75559566D01*
X87389000Y-75548000D01*
X87389000Y-75272000D01*
X87389568Y-75260434D01*
X87391267Y-75248979D01*
X87394081Y-75237746D01*
X87397982Y-75226843D01*
X87402933Y-75216375D01*
X87408887Y-75206443D01*
X87415785Y-75197142D01*
X87423561Y-75188561D01*
X87432142Y-75180785D01*
X87441443Y-75173887D01*
X87451375Y-75167933D01*
X87461843Y-75162982D01*
X87472746Y-75159081D01*
X87483979Y-75156267D01*
X87495434Y-75154568D01*
X87507000Y-75154000D01*
X87743000Y-75154000D01*
X87754566Y-75154568D01*
X87754566Y-75154568D01*
G37*
D19*
X87625000Y-75410000D03*
G04 #@! TD*
D10*
G04 #@! TO.C,C4*
G36*
X86024566Y-67934568D02*
X86036021Y-67936267D01*
X86047254Y-67939081D01*
X86058157Y-67942982D01*
X86068625Y-67947933D01*
X86078557Y-67953887D01*
X86087858Y-67960785D01*
X86096439Y-67968561D01*
X86104215Y-67977142D01*
X86111113Y-67986443D01*
X86117067Y-67996375D01*
X86122018Y-68006843D01*
X86125919Y-68017746D01*
X86128733Y-68028979D01*
X86130432Y-68040434D01*
X86131000Y-68052000D01*
X86131000Y-68328000D01*
X86130432Y-68339566D01*
X86128733Y-68351021D01*
X86125919Y-68362254D01*
X86122018Y-68373157D01*
X86117067Y-68383625D01*
X86111113Y-68393557D01*
X86104215Y-68402858D01*
X86096439Y-68411439D01*
X86087858Y-68419215D01*
X86078557Y-68426113D01*
X86068625Y-68432067D01*
X86058157Y-68437018D01*
X86047254Y-68440919D01*
X86036021Y-68443733D01*
X86024566Y-68445432D01*
X86013000Y-68446000D01*
X85777000Y-68446000D01*
X85765434Y-68445432D01*
X85753979Y-68443733D01*
X85742746Y-68440919D01*
X85731843Y-68437018D01*
X85721375Y-68432067D01*
X85711443Y-68426113D01*
X85702142Y-68419215D01*
X85693561Y-68411439D01*
X85685785Y-68402858D01*
X85678887Y-68393557D01*
X85672933Y-68383625D01*
X85667982Y-68373157D01*
X85664081Y-68362254D01*
X85661267Y-68351021D01*
X85659568Y-68339566D01*
X85659000Y-68328000D01*
X85659000Y-68052000D01*
X85659568Y-68040434D01*
X85661267Y-68028979D01*
X85664081Y-68017746D01*
X85667982Y-68006843D01*
X85672933Y-67996375D01*
X85678887Y-67986443D01*
X85685785Y-67977142D01*
X85693561Y-67968561D01*
X85702142Y-67960785D01*
X85711443Y-67953887D01*
X85721375Y-67947933D01*
X85731843Y-67942982D01*
X85742746Y-67939081D01*
X85753979Y-67936267D01*
X85765434Y-67934568D01*
X85777000Y-67934000D01*
X86013000Y-67934000D01*
X86024566Y-67934568D01*
X86024566Y-67934568D01*
G37*
D19*
X85895000Y-68190000D03*
D10*
G36*
X86994566Y-67934568D02*
X87006021Y-67936267D01*
X87017254Y-67939081D01*
X87028157Y-67942982D01*
X87038625Y-67947933D01*
X87048557Y-67953887D01*
X87057858Y-67960785D01*
X87066439Y-67968561D01*
X87074215Y-67977142D01*
X87081113Y-67986443D01*
X87087067Y-67996375D01*
X87092018Y-68006843D01*
X87095919Y-68017746D01*
X87098733Y-68028979D01*
X87100432Y-68040434D01*
X87101000Y-68052000D01*
X87101000Y-68328000D01*
X87100432Y-68339566D01*
X87098733Y-68351021D01*
X87095919Y-68362254D01*
X87092018Y-68373157D01*
X87087067Y-68383625D01*
X87081113Y-68393557D01*
X87074215Y-68402858D01*
X87066439Y-68411439D01*
X87057858Y-68419215D01*
X87048557Y-68426113D01*
X87038625Y-68432067D01*
X87028157Y-68437018D01*
X87017254Y-68440919D01*
X87006021Y-68443733D01*
X86994566Y-68445432D01*
X86983000Y-68446000D01*
X86747000Y-68446000D01*
X86735434Y-68445432D01*
X86723979Y-68443733D01*
X86712746Y-68440919D01*
X86701843Y-68437018D01*
X86691375Y-68432067D01*
X86681443Y-68426113D01*
X86672142Y-68419215D01*
X86663561Y-68411439D01*
X86655785Y-68402858D01*
X86648887Y-68393557D01*
X86642933Y-68383625D01*
X86637982Y-68373157D01*
X86634081Y-68362254D01*
X86631267Y-68351021D01*
X86629568Y-68339566D01*
X86629000Y-68328000D01*
X86629000Y-68052000D01*
X86629568Y-68040434D01*
X86631267Y-68028979D01*
X86634081Y-68017746D01*
X86637982Y-68006843D01*
X86642933Y-67996375D01*
X86648887Y-67986443D01*
X86655785Y-67977142D01*
X86663561Y-67968561D01*
X86672142Y-67960785D01*
X86681443Y-67953887D01*
X86691375Y-67947933D01*
X86701843Y-67942982D01*
X86712746Y-67939081D01*
X86723979Y-67936267D01*
X86735434Y-67934568D01*
X86747000Y-67934000D01*
X86983000Y-67934000D01*
X86994566Y-67934568D01*
X86994566Y-67934568D01*
G37*
D19*
X86865000Y-68190000D03*
G04 #@! TD*
D10*
G04 #@! TO.C,C5*
G36*
X89624566Y-69704568D02*
X89636021Y-69706267D01*
X89647254Y-69709081D01*
X89658157Y-69712982D01*
X89668625Y-69717933D01*
X89678557Y-69723887D01*
X89687858Y-69730785D01*
X89696439Y-69738561D01*
X89704215Y-69747142D01*
X89711113Y-69756443D01*
X89717067Y-69766375D01*
X89722018Y-69776843D01*
X89725919Y-69787746D01*
X89728733Y-69798979D01*
X89730432Y-69810434D01*
X89731000Y-69822000D01*
X89731000Y-70098000D01*
X89730432Y-70109566D01*
X89728733Y-70121021D01*
X89725919Y-70132254D01*
X89722018Y-70143157D01*
X89717067Y-70153625D01*
X89711113Y-70163557D01*
X89704215Y-70172858D01*
X89696439Y-70181439D01*
X89687858Y-70189215D01*
X89678557Y-70196113D01*
X89668625Y-70202067D01*
X89658157Y-70207018D01*
X89647254Y-70210919D01*
X89636021Y-70213733D01*
X89624566Y-70215432D01*
X89613000Y-70216000D01*
X89377000Y-70216000D01*
X89365434Y-70215432D01*
X89353979Y-70213733D01*
X89342746Y-70210919D01*
X89331843Y-70207018D01*
X89321375Y-70202067D01*
X89311443Y-70196113D01*
X89302142Y-70189215D01*
X89293561Y-70181439D01*
X89285785Y-70172858D01*
X89278887Y-70163557D01*
X89272933Y-70153625D01*
X89267982Y-70143157D01*
X89264081Y-70132254D01*
X89261267Y-70121021D01*
X89259568Y-70109566D01*
X89259000Y-70098000D01*
X89259000Y-69822000D01*
X89259568Y-69810434D01*
X89261267Y-69798979D01*
X89264081Y-69787746D01*
X89267982Y-69776843D01*
X89272933Y-69766375D01*
X89278887Y-69756443D01*
X89285785Y-69747142D01*
X89293561Y-69738561D01*
X89302142Y-69730785D01*
X89311443Y-69723887D01*
X89321375Y-69717933D01*
X89331843Y-69712982D01*
X89342746Y-69709081D01*
X89353979Y-69706267D01*
X89365434Y-69704568D01*
X89377000Y-69704000D01*
X89613000Y-69704000D01*
X89624566Y-69704568D01*
X89624566Y-69704568D01*
G37*
D19*
X89495000Y-69960000D03*
D10*
G36*
X88654566Y-69704568D02*
X88666021Y-69706267D01*
X88677254Y-69709081D01*
X88688157Y-69712982D01*
X88698625Y-69717933D01*
X88708557Y-69723887D01*
X88717858Y-69730785D01*
X88726439Y-69738561D01*
X88734215Y-69747142D01*
X88741113Y-69756443D01*
X88747067Y-69766375D01*
X88752018Y-69776843D01*
X88755919Y-69787746D01*
X88758733Y-69798979D01*
X88760432Y-69810434D01*
X88761000Y-69822000D01*
X88761000Y-70098000D01*
X88760432Y-70109566D01*
X88758733Y-70121021D01*
X88755919Y-70132254D01*
X88752018Y-70143157D01*
X88747067Y-70153625D01*
X88741113Y-70163557D01*
X88734215Y-70172858D01*
X88726439Y-70181439D01*
X88717858Y-70189215D01*
X88708557Y-70196113D01*
X88698625Y-70202067D01*
X88688157Y-70207018D01*
X88677254Y-70210919D01*
X88666021Y-70213733D01*
X88654566Y-70215432D01*
X88643000Y-70216000D01*
X88407000Y-70216000D01*
X88395434Y-70215432D01*
X88383979Y-70213733D01*
X88372746Y-70210919D01*
X88361843Y-70207018D01*
X88351375Y-70202067D01*
X88341443Y-70196113D01*
X88332142Y-70189215D01*
X88323561Y-70181439D01*
X88315785Y-70172858D01*
X88308887Y-70163557D01*
X88302933Y-70153625D01*
X88297982Y-70143157D01*
X88294081Y-70132254D01*
X88291267Y-70121021D01*
X88289568Y-70109566D01*
X88289000Y-70098000D01*
X88289000Y-69822000D01*
X88289568Y-69810434D01*
X88291267Y-69798979D01*
X88294081Y-69787746D01*
X88297982Y-69776843D01*
X88302933Y-69766375D01*
X88308887Y-69756443D01*
X88315785Y-69747142D01*
X88323561Y-69738561D01*
X88332142Y-69730785D01*
X88341443Y-69723887D01*
X88351375Y-69717933D01*
X88361843Y-69712982D01*
X88372746Y-69709081D01*
X88383979Y-69706267D01*
X88395434Y-69704568D01*
X88407000Y-69704000D01*
X88643000Y-69704000D01*
X88654566Y-69704568D01*
X88654566Y-69704568D01*
G37*
D19*
X88525000Y-69960000D03*
G04 #@! TD*
D10*
G04 #@! TO.C,C6*
G36*
X85914566Y-73824568D02*
X85926021Y-73826267D01*
X85937254Y-73829081D01*
X85948157Y-73832982D01*
X85958625Y-73837933D01*
X85968557Y-73843887D01*
X85977858Y-73850785D01*
X85986439Y-73858561D01*
X85994215Y-73867142D01*
X86001113Y-73876443D01*
X86007067Y-73886375D01*
X86012018Y-73896843D01*
X86015919Y-73907746D01*
X86018733Y-73918979D01*
X86020432Y-73930434D01*
X86021000Y-73942000D01*
X86021000Y-74218000D01*
X86020432Y-74229566D01*
X86018733Y-74241021D01*
X86015919Y-74252254D01*
X86012018Y-74263157D01*
X86007067Y-74273625D01*
X86001113Y-74283557D01*
X85994215Y-74292858D01*
X85986439Y-74301439D01*
X85977858Y-74309215D01*
X85968557Y-74316113D01*
X85958625Y-74322067D01*
X85948157Y-74327018D01*
X85937254Y-74330919D01*
X85926021Y-74333733D01*
X85914566Y-74335432D01*
X85903000Y-74336000D01*
X85667000Y-74336000D01*
X85655434Y-74335432D01*
X85643979Y-74333733D01*
X85632746Y-74330919D01*
X85621843Y-74327018D01*
X85611375Y-74322067D01*
X85601443Y-74316113D01*
X85592142Y-74309215D01*
X85583561Y-74301439D01*
X85575785Y-74292858D01*
X85568887Y-74283557D01*
X85562933Y-74273625D01*
X85557982Y-74263157D01*
X85554081Y-74252254D01*
X85551267Y-74241021D01*
X85549568Y-74229566D01*
X85549000Y-74218000D01*
X85549000Y-73942000D01*
X85549568Y-73930434D01*
X85551267Y-73918979D01*
X85554081Y-73907746D01*
X85557982Y-73896843D01*
X85562933Y-73886375D01*
X85568887Y-73876443D01*
X85575785Y-73867142D01*
X85583561Y-73858561D01*
X85592142Y-73850785D01*
X85601443Y-73843887D01*
X85611375Y-73837933D01*
X85621843Y-73832982D01*
X85632746Y-73829081D01*
X85643979Y-73826267D01*
X85655434Y-73824568D01*
X85667000Y-73824000D01*
X85903000Y-73824000D01*
X85914566Y-73824568D01*
X85914566Y-73824568D01*
G37*
D19*
X85785000Y-74080000D03*
D10*
G36*
X86884566Y-73824568D02*
X86896021Y-73826267D01*
X86907254Y-73829081D01*
X86918157Y-73832982D01*
X86928625Y-73837933D01*
X86938557Y-73843887D01*
X86947858Y-73850785D01*
X86956439Y-73858561D01*
X86964215Y-73867142D01*
X86971113Y-73876443D01*
X86977067Y-73886375D01*
X86982018Y-73896843D01*
X86985919Y-73907746D01*
X86988733Y-73918979D01*
X86990432Y-73930434D01*
X86991000Y-73942000D01*
X86991000Y-74218000D01*
X86990432Y-74229566D01*
X86988733Y-74241021D01*
X86985919Y-74252254D01*
X86982018Y-74263157D01*
X86977067Y-74273625D01*
X86971113Y-74283557D01*
X86964215Y-74292858D01*
X86956439Y-74301439D01*
X86947858Y-74309215D01*
X86938557Y-74316113D01*
X86928625Y-74322067D01*
X86918157Y-74327018D01*
X86907254Y-74330919D01*
X86896021Y-74333733D01*
X86884566Y-74335432D01*
X86873000Y-74336000D01*
X86637000Y-74336000D01*
X86625434Y-74335432D01*
X86613979Y-74333733D01*
X86602746Y-74330919D01*
X86591843Y-74327018D01*
X86581375Y-74322067D01*
X86571443Y-74316113D01*
X86562142Y-74309215D01*
X86553561Y-74301439D01*
X86545785Y-74292858D01*
X86538887Y-74283557D01*
X86532933Y-74273625D01*
X86527982Y-74263157D01*
X86524081Y-74252254D01*
X86521267Y-74241021D01*
X86519568Y-74229566D01*
X86519000Y-74218000D01*
X86519000Y-73942000D01*
X86519568Y-73930434D01*
X86521267Y-73918979D01*
X86524081Y-73907746D01*
X86527982Y-73896843D01*
X86532933Y-73886375D01*
X86538887Y-73876443D01*
X86545785Y-73867142D01*
X86553561Y-73858561D01*
X86562142Y-73850785D01*
X86571443Y-73843887D01*
X86581375Y-73837933D01*
X86591843Y-73832982D01*
X86602746Y-73829081D01*
X86613979Y-73826267D01*
X86625434Y-73824568D01*
X86637000Y-73824000D01*
X86873000Y-73824000D01*
X86884566Y-73824568D01*
X86884566Y-73824568D01*
G37*
D19*
X86755000Y-74080000D03*
G04 #@! TD*
D10*
G04 #@! TO.C,C7*
G36*
X86044566Y-69144568D02*
X86056021Y-69146267D01*
X86067254Y-69149081D01*
X86078157Y-69152982D01*
X86088625Y-69157933D01*
X86098557Y-69163887D01*
X86107858Y-69170785D01*
X86116439Y-69178561D01*
X86124215Y-69187142D01*
X86131113Y-69196443D01*
X86137067Y-69206375D01*
X86142018Y-69216843D01*
X86145919Y-69227746D01*
X86148733Y-69238979D01*
X86150432Y-69250434D01*
X86151000Y-69262000D01*
X86151000Y-69538000D01*
X86150432Y-69549566D01*
X86148733Y-69561021D01*
X86145919Y-69572254D01*
X86142018Y-69583157D01*
X86137067Y-69593625D01*
X86131113Y-69603557D01*
X86124215Y-69612858D01*
X86116439Y-69621439D01*
X86107858Y-69629215D01*
X86098557Y-69636113D01*
X86088625Y-69642067D01*
X86078157Y-69647018D01*
X86067254Y-69650919D01*
X86056021Y-69653733D01*
X86044566Y-69655432D01*
X86033000Y-69656000D01*
X85797000Y-69656000D01*
X85785434Y-69655432D01*
X85773979Y-69653733D01*
X85762746Y-69650919D01*
X85751843Y-69647018D01*
X85741375Y-69642067D01*
X85731443Y-69636113D01*
X85722142Y-69629215D01*
X85713561Y-69621439D01*
X85705785Y-69612858D01*
X85698887Y-69603557D01*
X85692933Y-69593625D01*
X85687982Y-69583157D01*
X85684081Y-69572254D01*
X85681267Y-69561021D01*
X85679568Y-69549566D01*
X85679000Y-69538000D01*
X85679000Y-69262000D01*
X85679568Y-69250434D01*
X85681267Y-69238979D01*
X85684081Y-69227746D01*
X85687982Y-69216843D01*
X85692933Y-69206375D01*
X85698887Y-69196443D01*
X85705785Y-69187142D01*
X85713561Y-69178561D01*
X85722142Y-69170785D01*
X85731443Y-69163887D01*
X85741375Y-69157933D01*
X85751843Y-69152982D01*
X85762746Y-69149081D01*
X85773979Y-69146267D01*
X85785434Y-69144568D01*
X85797000Y-69144000D01*
X86033000Y-69144000D01*
X86044566Y-69144568D01*
X86044566Y-69144568D01*
G37*
D19*
X85915000Y-69400000D03*
D10*
G36*
X87014566Y-69144568D02*
X87026021Y-69146267D01*
X87037254Y-69149081D01*
X87048157Y-69152982D01*
X87058625Y-69157933D01*
X87068557Y-69163887D01*
X87077858Y-69170785D01*
X87086439Y-69178561D01*
X87094215Y-69187142D01*
X87101113Y-69196443D01*
X87107067Y-69206375D01*
X87112018Y-69216843D01*
X87115919Y-69227746D01*
X87118733Y-69238979D01*
X87120432Y-69250434D01*
X87121000Y-69262000D01*
X87121000Y-69538000D01*
X87120432Y-69549566D01*
X87118733Y-69561021D01*
X87115919Y-69572254D01*
X87112018Y-69583157D01*
X87107067Y-69593625D01*
X87101113Y-69603557D01*
X87094215Y-69612858D01*
X87086439Y-69621439D01*
X87077858Y-69629215D01*
X87068557Y-69636113D01*
X87058625Y-69642067D01*
X87048157Y-69647018D01*
X87037254Y-69650919D01*
X87026021Y-69653733D01*
X87014566Y-69655432D01*
X87003000Y-69656000D01*
X86767000Y-69656000D01*
X86755434Y-69655432D01*
X86743979Y-69653733D01*
X86732746Y-69650919D01*
X86721843Y-69647018D01*
X86711375Y-69642067D01*
X86701443Y-69636113D01*
X86692142Y-69629215D01*
X86683561Y-69621439D01*
X86675785Y-69612858D01*
X86668887Y-69603557D01*
X86662933Y-69593625D01*
X86657982Y-69583157D01*
X86654081Y-69572254D01*
X86651267Y-69561021D01*
X86649568Y-69549566D01*
X86649000Y-69538000D01*
X86649000Y-69262000D01*
X86649568Y-69250434D01*
X86651267Y-69238979D01*
X86654081Y-69227746D01*
X86657982Y-69216843D01*
X86662933Y-69206375D01*
X86668887Y-69196443D01*
X86675785Y-69187142D01*
X86683561Y-69178561D01*
X86692142Y-69170785D01*
X86701443Y-69163887D01*
X86711375Y-69157933D01*
X86721843Y-69152982D01*
X86732746Y-69149081D01*
X86743979Y-69146267D01*
X86755434Y-69144568D01*
X86767000Y-69144000D01*
X87003000Y-69144000D01*
X87014566Y-69144568D01*
X87014566Y-69144568D01*
G37*
D19*
X86885000Y-69400000D03*
G04 #@! TD*
D10*
G04 #@! TO.C,C8*
G36*
X97304566Y-74914568D02*
X97316021Y-74916267D01*
X97327254Y-74919081D01*
X97338157Y-74922982D01*
X97348625Y-74927933D01*
X97358557Y-74933887D01*
X97367858Y-74940785D01*
X97376439Y-74948561D01*
X97384215Y-74957142D01*
X97391113Y-74966443D01*
X97397067Y-74976375D01*
X97402018Y-74986843D01*
X97405919Y-74997746D01*
X97408733Y-75008979D01*
X97410432Y-75020434D01*
X97411000Y-75032000D01*
X97411000Y-75308000D01*
X97410432Y-75319566D01*
X97408733Y-75331021D01*
X97405919Y-75342254D01*
X97402018Y-75353157D01*
X97397067Y-75363625D01*
X97391113Y-75373557D01*
X97384215Y-75382858D01*
X97376439Y-75391439D01*
X97367858Y-75399215D01*
X97358557Y-75406113D01*
X97348625Y-75412067D01*
X97338157Y-75417018D01*
X97327254Y-75420919D01*
X97316021Y-75423733D01*
X97304566Y-75425432D01*
X97293000Y-75426000D01*
X97057000Y-75426000D01*
X97045434Y-75425432D01*
X97033979Y-75423733D01*
X97022746Y-75420919D01*
X97011843Y-75417018D01*
X97001375Y-75412067D01*
X96991443Y-75406113D01*
X96982142Y-75399215D01*
X96973561Y-75391439D01*
X96965785Y-75382858D01*
X96958887Y-75373557D01*
X96952933Y-75363625D01*
X96947982Y-75353157D01*
X96944081Y-75342254D01*
X96941267Y-75331021D01*
X96939568Y-75319566D01*
X96939000Y-75308000D01*
X96939000Y-75032000D01*
X96939568Y-75020434D01*
X96941267Y-75008979D01*
X96944081Y-74997746D01*
X96947982Y-74986843D01*
X96952933Y-74976375D01*
X96958887Y-74966443D01*
X96965785Y-74957142D01*
X96973561Y-74948561D01*
X96982142Y-74940785D01*
X96991443Y-74933887D01*
X97001375Y-74927933D01*
X97011843Y-74922982D01*
X97022746Y-74919081D01*
X97033979Y-74916267D01*
X97045434Y-74914568D01*
X97057000Y-74914000D01*
X97293000Y-74914000D01*
X97304566Y-74914568D01*
X97304566Y-74914568D01*
G37*
D19*
X97175000Y-75170000D03*
D10*
G36*
X98274566Y-74914568D02*
X98286021Y-74916267D01*
X98297254Y-74919081D01*
X98308157Y-74922982D01*
X98318625Y-74927933D01*
X98328557Y-74933887D01*
X98337858Y-74940785D01*
X98346439Y-74948561D01*
X98354215Y-74957142D01*
X98361113Y-74966443D01*
X98367067Y-74976375D01*
X98372018Y-74986843D01*
X98375919Y-74997746D01*
X98378733Y-75008979D01*
X98380432Y-75020434D01*
X98381000Y-75032000D01*
X98381000Y-75308000D01*
X98380432Y-75319566D01*
X98378733Y-75331021D01*
X98375919Y-75342254D01*
X98372018Y-75353157D01*
X98367067Y-75363625D01*
X98361113Y-75373557D01*
X98354215Y-75382858D01*
X98346439Y-75391439D01*
X98337858Y-75399215D01*
X98328557Y-75406113D01*
X98318625Y-75412067D01*
X98308157Y-75417018D01*
X98297254Y-75420919D01*
X98286021Y-75423733D01*
X98274566Y-75425432D01*
X98263000Y-75426000D01*
X98027000Y-75426000D01*
X98015434Y-75425432D01*
X98003979Y-75423733D01*
X97992746Y-75420919D01*
X97981843Y-75417018D01*
X97971375Y-75412067D01*
X97961443Y-75406113D01*
X97952142Y-75399215D01*
X97943561Y-75391439D01*
X97935785Y-75382858D01*
X97928887Y-75373557D01*
X97922933Y-75363625D01*
X97917982Y-75353157D01*
X97914081Y-75342254D01*
X97911267Y-75331021D01*
X97909568Y-75319566D01*
X97909000Y-75308000D01*
X97909000Y-75032000D01*
X97909568Y-75020434D01*
X97911267Y-75008979D01*
X97914081Y-74997746D01*
X97917982Y-74986843D01*
X97922933Y-74976375D01*
X97928887Y-74966443D01*
X97935785Y-74957142D01*
X97943561Y-74948561D01*
X97952142Y-74940785D01*
X97961443Y-74933887D01*
X97971375Y-74927933D01*
X97981843Y-74922982D01*
X97992746Y-74919081D01*
X98003979Y-74916267D01*
X98015434Y-74914568D01*
X98027000Y-74914000D01*
X98263000Y-74914000D01*
X98274566Y-74914568D01*
X98274566Y-74914568D01*
G37*
D19*
X98145000Y-75170000D03*
G04 #@! TD*
D10*
G04 #@! TO.C,C9*
G36*
X95379653Y-67320843D02*
X95396641Y-67323363D01*
X95413300Y-67327535D01*
X95429470Y-67333321D01*
X95444994Y-67340664D01*
X95459725Y-67349493D01*
X95473519Y-67359723D01*
X95486244Y-67371256D01*
X95497777Y-67383981D01*
X95508007Y-67397775D01*
X95516836Y-67412506D01*
X95524179Y-67428030D01*
X95529965Y-67444200D01*
X95534137Y-67460859D01*
X95536657Y-67477847D01*
X95537500Y-67495000D01*
X95537500Y-67905000D01*
X95536657Y-67922153D01*
X95534137Y-67939141D01*
X95529965Y-67955800D01*
X95524179Y-67971970D01*
X95516836Y-67987494D01*
X95508007Y-68002225D01*
X95497777Y-68016019D01*
X95486244Y-68028744D01*
X95473519Y-68040277D01*
X95459725Y-68050507D01*
X95444994Y-68059336D01*
X95429470Y-68066679D01*
X95413300Y-68072465D01*
X95396641Y-68076637D01*
X95379653Y-68079157D01*
X95362500Y-68080000D01*
X95012500Y-68080000D01*
X94995347Y-68079157D01*
X94978359Y-68076637D01*
X94961700Y-68072465D01*
X94945530Y-68066679D01*
X94930006Y-68059336D01*
X94915275Y-68050507D01*
X94901481Y-68040277D01*
X94888756Y-68028744D01*
X94877223Y-68016019D01*
X94866993Y-68002225D01*
X94858164Y-67987494D01*
X94850821Y-67971970D01*
X94845035Y-67955800D01*
X94840863Y-67939141D01*
X94838343Y-67922153D01*
X94837500Y-67905000D01*
X94837500Y-67495000D01*
X94838343Y-67477847D01*
X94840863Y-67460859D01*
X94845035Y-67444200D01*
X94850821Y-67428030D01*
X94858164Y-67412506D01*
X94866993Y-67397775D01*
X94877223Y-67383981D01*
X94888756Y-67371256D01*
X94901481Y-67359723D01*
X94915275Y-67349493D01*
X94930006Y-67340664D01*
X94945530Y-67333321D01*
X94961700Y-67327535D01*
X94978359Y-67323363D01*
X94995347Y-67320843D01*
X95012500Y-67320000D01*
X95362500Y-67320000D01*
X95379653Y-67320843D01*
X95379653Y-67320843D01*
G37*
D18*
X95187500Y-67700000D03*
D10*
G36*
X93804653Y-67320843D02*
X93821641Y-67323363D01*
X93838300Y-67327535D01*
X93854470Y-67333321D01*
X93869994Y-67340664D01*
X93884725Y-67349493D01*
X93898519Y-67359723D01*
X93911244Y-67371256D01*
X93922777Y-67383981D01*
X93933007Y-67397775D01*
X93941836Y-67412506D01*
X93949179Y-67428030D01*
X93954965Y-67444200D01*
X93959137Y-67460859D01*
X93961657Y-67477847D01*
X93962500Y-67495000D01*
X93962500Y-67905000D01*
X93961657Y-67922153D01*
X93959137Y-67939141D01*
X93954965Y-67955800D01*
X93949179Y-67971970D01*
X93941836Y-67987494D01*
X93933007Y-68002225D01*
X93922777Y-68016019D01*
X93911244Y-68028744D01*
X93898519Y-68040277D01*
X93884725Y-68050507D01*
X93869994Y-68059336D01*
X93854470Y-68066679D01*
X93838300Y-68072465D01*
X93821641Y-68076637D01*
X93804653Y-68079157D01*
X93787500Y-68080000D01*
X93437500Y-68080000D01*
X93420347Y-68079157D01*
X93403359Y-68076637D01*
X93386700Y-68072465D01*
X93370530Y-68066679D01*
X93355006Y-68059336D01*
X93340275Y-68050507D01*
X93326481Y-68040277D01*
X93313756Y-68028744D01*
X93302223Y-68016019D01*
X93291993Y-68002225D01*
X93283164Y-67987494D01*
X93275821Y-67971970D01*
X93270035Y-67955800D01*
X93265863Y-67939141D01*
X93263343Y-67922153D01*
X93262500Y-67905000D01*
X93262500Y-67495000D01*
X93263343Y-67477847D01*
X93265863Y-67460859D01*
X93270035Y-67444200D01*
X93275821Y-67428030D01*
X93283164Y-67412506D01*
X93291993Y-67397775D01*
X93302223Y-67383981D01*
X93313756Y-67371256D01*
X93326481Y-67359723D01*
X93340275Y-67349493D01*
X93355006Y-67340664D01*
X93370530Y-67333321D01*
X93386700Y-67327535D01*
X93403359Y-67323363D01*
X93420347Y-67320843D01*
X93437500Y-67320000D01*
X93787500Y-67320000D01*
X93804653Y-67320843D01*
X93804653Y-67320843D01*
G37*
D18*
X93612500Y-67700000D03*
G04 #@! TD*
D10*
G04 #@! TO.C,C10*
G36*
X97904653Y-70120843D02*
X97921641Y-70123363D01*
X97938300Y-70127535D01*
X97954470Y-70133321D01*
X97969994Y-70140664D01*
X97984725Y-70149493D01*
X97998519Y-70159723D01*
X98011244Y-70171256D01*
X98022777Y-70183981D01*
X98033007Y-70197775D01*
X98041836Y-70212506D01*
X98049179Y-70228030D01*
X98054965Y-70244200D01*
X98059137Y-70260859D01*
X98061657Y-70277847D01*
X98062500Y-70295000D01*
X98062500Y-70705000D01*
X98061657Y-70722153D01*
X98059137Y-70739141D01*
X98054965Y-70755800D01*
X98049179Y-70771970D01*
X98041836Y-70787494D01*
X98033007Y-70802225D01*
X98022777Y-70816019D01*
X98011244Y-70828744D01*
X97998519Y-70840277D01*
X97984725Y-70850507D01*
X97969994Y-70859336D01*
X97954470Y-70866679D01*
X97938300Y-70872465D01*
X97921641Y-70876637D01*
X97904653Y-70879157D01*
X97887500Y-70880000D01*
X97537500Y-70880000D01*
X97520347Y-70879157D01*
X97503359Y-70876637D01*
X97486700Y-70872465D01*
X97470530Y-70866679D01*
X97455006Y-70859336D01*
X97440275Y-70850507D01*
X97426481Y-70840277D01*
X97413756Y-70828744D01*
X97402223Y-70816019D01*
X97391993Y-70802225D01*
X97383164Y-70787494D01*
X97375821Y-70771970D01*
X97370035Y-70755800D01*
X97365863Y-70739141D01*
X97363343Y-70722153D01*
X97362500Y-70705000D01*
X97362500Y-70295000D01*
X97363343Y-70277847D01*
X97365863Y-70260859D01*
X97370035Y-70244200D01*
X97375821Y-70228030D01*
X97383164Y-70212506D01*
X97391993Y-70197775D01*
X97402223Y-70183981D01*
X97413756Y-70171256D01*
X97426481Y-70159723D01*
X97440275Y-70149493D01*
X97455006Y-70140664D01*
X97470530Y-70133321D01*
X97486700Y-70127535D01*
X97503359Y-70123363D01*
X97520347Y-70120843D01*
X97537500Y-70120000D01*
X97887500Y-70120000D01*
X97904653Y-70120843D01*
X97904653Y-70120843D01*
G37*
D18*
X97712500Y-70500000D03*
D10*
G36*
X99479653Y-70120843D02*
X99496641Y-70123363D01*
X99513300Y-70127535D01*
X99529470Y-70133321D01*
X99544994Y-70140664D01*
X99559725Y-70149493D01*
X99573519Y-70159723D01*
X99586244Y-70171256D01*
X99597777Y-70183981D01*
X99608007Y-70197775D01*
X99616836Y-70212506D01*
X99624179Y-70228030D01*
X99629965Y-70244200D01*
X99634137Y-70260859D01*
X99636657Y-70277847D01*
X99637500Y-70295000D01*
X99637500Y-70705000D01*
X99636657Y-70722153D01*
X99634137Y-70739141D01*
X99629965Y-70755800D01*
X99624179Y-70771970D01*
X99616836Y-70787494D01*
X99608007Y-70802225D01*
X99597777Y-70816019D01*
X99586244Y-70828744D01*
X99573519Y-70840277D01*
X99559725Y-70850507D01*
X99544994Y-70859336D01*
X99529470Y-70866679D01*
X99513300Y-70872465D01*
X99496641Y-70876637D01*
X99479653Y-70879157D01*
X99462500Y-70880000D01*
X99112500Y-70880000D01*
X99095347Y-70879157D01*
X99078359Y-70876637D01*
X99061700Y-70872465D01*
X99045530Y-70866679D01*
X99030006Y-70859336D01*
X99015275Y-70850507D01*
X99001481Y-70840277D01*
X98988756Y-70828744D01*
X98977223Y-70816019D01*
X98966993Y-70802225D01*
X98958164Y-70787494D01*
X98950821Y-70771970D01*
X98945035Y-70755800D01*
X98940863Y-70739141D01*
X98938343Y-70722153D01*
X98937500Y-70705000D01*
X98937500Y-70295000D01*
X98938343Y-70277847D01*
X98940863Y-70260859D01*
X98945035Y-70244200D01*
X98950821Y-70228030D01*
X98958164Y-70212506D01*
X98966993Y-70197775D01*
X98977223Y-70183981D01*
X98988756Y-70171256D01*
X99001481Y-70159723D01*
X99015275Y-70149493D01*
X99030006Y-70140664D01*
X99045530Y-70133321D01*
X99061700Y-70127535D01*
X99078359Y-70123363D01*
X99095347Y-70120843D01*
X99112500Y-70120000D01*
X99462500Y-70120000D01*
X99479653Y-70120843D01*
X99479653Y-70120843D01*
G37*
D18*
X99287500Y-70500000D03*
G04 #@! TD*
D10*
G04 #@! TO.C,R1*
G36*
X93094566Y-76834568D02*
X93106021Y-76836267D01*
X93117254Y-76839081D01*
X93128157Y-76842982D01*
X93138625Y-76847933D01*
X93148557Y-76853887D01*
X93157858Y-76860785D01*
X93166439Y-76868561D01*
X93174215Y-76877142D01*
X93181113Y-76886443D01*
X93187067Y-76896375D01*
X93192018Y-76906843D01*
X93195919Y-76917746D01*
X93198733Y-76928979D01*
X93200432Y-76940434D01*
X93201000Y-76952000D01*
X93201000Y-77228000D01*
X93200432Y-77239566D01*
X93198733Y-77251021D01*
X93195919Y-77262254D01*
X93192018Y-77273157D01*
X93187067Y-77283625D01*
X93181113Y-77293557D01*
X93174215Y-77302858D01*
X93166439Y-77311439D01*
X93157858Y-77319215D01*
X93148557Y-77326113D01*
X93138625Y-77332067D01*
X93128157Y-77337018D01*
X93117254Y-77340919D01*
X93106021Y-77343733D01*
X93094566Y-77345432D01*
X93083000Y-77346000D01*
X92847000Y-77346000D01*
X92835434Y-77345432D01*
X92823979Y-77343733D01*
X92812746Y-77340919D01*
X92801843Y-77337018D01*
X92791375Y-77332067D01*
X92781443Y-77326113D01*
X92772142Y-77319215D01*
X92763561Y-77311439D01*
X92755785Y-77302858D01*
X92748887Y-77293557D01*
X92742933Y-77283625D01*
X92737982Y-77273157D01*
X92734081Y-77262254D01*
X92731267Y-77251021D01*
X92729568Y-77239566D01*
X92729000Y-77228000D01*
X92729000Y-76952000D01*
X92729568Y-76940434D01*
X92731267Y-76928979D01*
X92734081Y-76917746D01*
X92737982Y-76906843D01*
X92742933Y-76896375D01*
X92748887Y-76886443D01*
X92755785Y-76877142D01*
X92763561Y-76868561D01*
X92772142Y-76860785D01*
X92781443Y-76853887D01*
X92791375Y-76847933D01*
X92801843Y-76842982D01*
X92812746Y-76839081D01*
X92823979Y-76836267D01*
X92835434Y-76834568D01*
X92847000Y-76834000D01*
X93083000Y-76834000D01*
X93094566Y-76834568D01*
X93094566Y-76834568D01*
G37*
D19*
X92965000Y-77090000D03*
D10*
G36*
X94064566Y-76834568D02*
X94076021Y-76836267D01*
X94087254Y-76839081D01*
X94098157Y-76842982D01*
X94108625Y-76847933D01*
X94118557Y-76853887D01*
X94127858Y-76860785D01*
X94136439Y-76868561D01*
X94144215Y-76877142D01*
X94151113Y-76886443D01*
X94157067Y-76896375D01*
X94162018Y-76906843D01*
X94165919Y-76917746D01*
X94168733Y-76928979D01*
X94170432Y-76940434D01*
X94171000Y-76952000D01*
X94171000Y-77228000D01*
X94170432Y-77239566D01*
X94168733Y-77251021D01*
X94165919Y-77262254D01*
X94162018Y-77273157D01*
X94157067Y-77283625D01*
X94151113Y-77293557D01*
X94144215Y-77302858D01*
X94136439Y-77311439D01*
X94127858Y-77319215D01*
X94118557Y-77326113D01*
X94108625Y-77332067D01*
X94098157Y-77337018D01*
X94087254Y-77340919D01*
X94076021Y-77343733D01*
X94064566Y-77345432D01*
X94053000Y-77346000D01*
X93817000Y-77346000D01*
X93805434Y-77345432D01*
X93793979Y-77343733D01*
X93782746Y-77340919D01*
X93771843Y-77337018D01*
X93761375Y-77332067D01*
X93751443Y-77326113D01*
X93742142Y-77319215D01*
X93733561Y-77311439D01*
X93725785Y-77302858D01*
X93718887Y-77293557D01*
X93712933Y-77283625D01*
X93707982Y-77273157D01*
X93704081Y-77262254D01*
X93701267Y-77251021D01*
X93699568Y-77239566D01*
X93699000Y-77228000D01*
X93699000Y-76952000D01*
X93699568Y-76940434D01*
X93701267Y-76928979D01*
X93704081Y-76917746D01*
X93707982Y-76906843D01*
X93712933Y-76896375D01*
X93718887Y-76886443D01*
X93725785Y-76877142D01*
X93733561Y-76868561D01*
X93742142Y-76860785D01*
X93751443Y-76853887D01*
X93761375Y-76847933D01*
X93771843Y-76842982D01*
X93782746Y-76839081D01*
X93793979Y-76836267D01*
X93805434Y-76834568D01*
X93817000Y-76834000D01*
X94053000Y-76834000D01*
X94064566Y-76834568D01*
X94064566Y-76834568D01*
G37*
D19*
X93935000Y-77090000D03*
G04 #@! TD*
D10*
G04 #@! TO.C,D1*
G36*
X96889653Y-76710843D02*
X96906641Y-76713363D01*
X96923300Y-76717535D01*
X96939470Y-76723321D01*
X96954994Y-76730664D01*
X96969725Y-76739493D01*
X96983519Y-76749723D01*
X96996244Y-76761256D01*
X97007777Y-76773981D01*
X97018007Y-76787775D01*
X97026836Y-76802506D01*
X97034179Y-76818030D01*
X97039965Y-76834200D01*
X97044137Y-76850859D01*
X97046657Y-76867847D01*
X97047500Y-76885000D01*
X97047500Y-77295000D01*
X97046657Y-77312153D01*
X97044137Y-77329141D01*
X97039965Y-77345800D01*
X97034179Y-77361970D01*
X97026836Y-77377494D01*
X97018007Y-77392225D01*
X97007777Y-77406019D01*
X96996244Y-77418744D01*
X96983519Y-77430277D01*
X96969725Y-77440507D01*
X96954994Y-77449336D01*
X96939470Y-77456679D01*
X96923300Y-77462465D01*
X96906641Y-77466637D01*
X96889653Y-77469157D01*
X96872500Y-77470000D01*
X96522500Y-77470000D01*
X96505347Y-77469157D01*
X96488359Y-77466637D01*
X96471700Y-77462465D01*
X96455530Y-77456679D01*
X96440006Y-77449336D01*
X96425275Y-77440507D01*
X96411481Y-77430277D01*
X96398756Y-77418744D01*
X96387223Y-77406019D01*
X96376993Y-77392225D01*
X96368164Y-77377494D01*
X96360821Y-77361970D01*
X96355035Y-77345800D01*
X96350863Y-77329141D01*
X96348343Y-77312153D01*
X96347500Y-77295000D01*
X96347500Y-76885000D01*
X96348343Y-76867847D01*
X96350863Y-76850859D01*
X96355035Y-76834200D01*
X96360821Y-76818030D01*
X96368164Y-76802506D01*
X96376993Y-76787775D01*
X96387223Y-76773981D01*
X96398756Y-76761256D01*
X96411481Y-76749723D01*
X96425275Y-76739493D01*
X96440006Y-76730664D01*
X96455530Y-76723321D01*
X96471700Y-76717535D01*
X96488359Y-76713363D01*
X96505347Y-76710843D01*
X96522500Y-76710000D01*
X96872500Y-76710000D01*
X96889653Y-76710843D01*
X96889653Y-76710843D01*
G37*
D18*
X96697500Y-77090000D03*
D10*
G36*
X95314653Y-76710843D02*
X95331641Y-76713363D01*
X95348300Y-76717535D01*
X95364470Y-76723321D01*
X95379994Y-76730664D01*
X95394725Y-76739493D01*
X95408519Y-76749723D01*
X95421244Y-76761256D01*
X95432777Y-76773981D01*
X95443007Y-76787775D01*
X95451836Y-76802506D01*
X95459179Y-76818030D01*
X95464965Y-76834200D01*
X95469137Y-76850859D01*
X95471657Y-76867847D01*
X95472500Y-76885000D01*
X95472500Y-77295000D01*
X95471657Y-77312153D01*
X95469137Y-77329141D01*
X95464965Y-77345800D01*
X95459179Y-77361970D01*
X95451836Y-77377494D01*
X95443007Y-77392225D01*
X95432777Y-77406019D01*
X95421244Y-77418744D01*
X95408519Y-77430277D01*
X95394725Y-77440507D01*
X95379994Y-77449336D01*
X95364470Y-77456679D01*
X95348300Y-77462465D01*
X95331641Y-77466637D01*
X95314653Y-77469157D01*
X95297500Y-77470000D01*
X94947500Y-77470000D01*
X94930347Y-77469157D01*
X94913359Y-77466637D01*
X94896700Y-77462465D01*
X94880530Y-77456679D01*
X94865006Y-77449336D01*
X94850275Y-77440507D01*
X94836481Y-77430277D01*
X94823756Y-77418744D01*
X94812223Y-77406019D01*
X94801993Y-77392225D01*
X94793164Y-77377494D01*
X94785821Y-77361970D01*
X94780035Y-77345800D01*
X94775863Y-77329141D01*
X94773343Y-77312153D01*
X94772500Y-77295000D01*
X94772500Y-76885000D01*
X94773343Y-76867847D01*
X94775863Y-76850859D01*
X94780035Y-76834200D01*
X94785821Y-76818030D01*
X94793164Y-76802506D01*
X94801993Y-76787775D01*
X94812223Y-76773981D01*
X94823756Y-76761256D01*
X94836481Y-76749723D01*
X94850275Y-76739493D01*
X94865006Y-76730664D01*
X94880530Y-76723321D01*
X94896700Y-76717535D01*
X94913359Y-76713363D01*
X94930347Y-76710843D01*
X94947500Y-76710000D01*
X95297500Y-76710000D01*
X95314653Y-76710843D01*
X95314653Y-76710843D01*
G37*
D18*
X95122500Y-77090000D03*
G04 #@! TD*
D20*
G04 #@! TO.C,X1*
X87200000Y-72820000D03*
X87200000Y-70620000D03*
X85600000Y-70620000D03*
X85600000Y-72820000D03*
G04 #@! TD*
D21*
G04 #@! TO.C,D2*
X94950000Y-69300000D03*
X92450000Y-69300000D03*
G04 #@! TD*
M02*
