M48
;DRILL file {KiCad 4.0.1-stable} date 2016 March 10, Thursday 23:14:19
;FORMAT={-:-/ absolute / metric / decimal}
FMAT,2
METRIC,TZ
T1C0.300
T2C0.400
T3C0.500
T4C0.800
%
G90
G05
M71
T1
X90.164Y-54.207
X91.1Y-56.1
X91.1Y-57.9
X91.75Y-50.
X91.9Y-58.3
X92.97Y-46.475
X93.471Y-49.321
X94.113Y-43.111
X94.4Y-59.
X95.585Y-46.796
X95.75Y-60.5
X97.184Y-58.203
X97.25Y-47.
X97.749Y-56.753
X97.91Y-56.
X98.002Y-55.235
X99.6Y-50.8
X99.652Y-47.399
T2
X90.5Y-44.9
X90.6Y-48.4
X91.4Y-52.4
X92.6Y-49.6
X93.6Y-47.
X94.6Y-50.5
X94.971Y-43.535
X96.1Y-48.9
X99.2Y-56.3
X99.3Y-45.
T3
X91.25Y-61.5
X92.5Y-61.5
X93.176Y-42.348
X93.75Y-61.5
X95.Y-61.5
X96.25Y-61.5
X97.5Y-61.5
X98.75Y-61.5
T4
X88.75Y-46.5
X88.75Y-48.5
X88.75Y-50.5
X88.75Y-52.5
X88.75Y-54.5
X88.75Y-56.5
X88.75Y-58.5
X88.75Y-60.5
X101.25Y-46.5
X101.25Y-48.5
X101.25Y-50.5
X101.25Y-52.5
X101.25Y-54.5
X101.25Y-56.5
X101.25Y-58.5
X101.25Y-60.5
T0
M30
