G04 #@! TF.GenerationSoftware,KiCad,Pcbnew,(5.0.1-3-g963ef8bb5)*
G04 #@! TF.CreationDate,2018-10-28T18:09:26+01:00*
G04 #@! TF.ProjectId,can-io-board,63616E2D696F2D626F6172642E6B6963,rev?*
G04 #@! TF.SameCoordinates,Original*
G04 #@! TF.FileFunction,Paste,Bot*
G04 #@! TF.FilePolarity,Positive*
%FSLAX46Y46*%
G04 Gerber Fmt 4.6, Leading zero omitted, Abs format (unit mm)*
G04 Created by KiCad (PCBNEW (5.0.1-3-g963ef8bb5)) date 2018 October 28, Sunday 18:09:26*
%MOMM*%
%LPD*%
G01*
G04 APERTURE LIST*
%ADD10C,0.100000*%
%ADD11C,0.640000*%
%ADD12C,1.680000*%
G04 APERTURE END LIST*
D10*
G04 #@! TO.C,J1*
G36*
X96550683Y-78560770D02*
X96566214Y-78563074D01*
X96581446Y-78566890D01*
X96596229Y-78572179D01*
X96610423Y-78578893D01*
X96623891Y-78586965D01*
X96636503Y-78596318D01*
X96648137Y-78606863D01*
X96658682Y-78618497D01*
X96668035Y-78631109D01*
X96676107Y-78644577D01*
X96682821Y-78658771D01*
X96688110Y-78673554D01*
X96691926Y-78688786D01*
X96694230Y-78704317D01*
X96695000Y-78720000D01*
X96695000Y-79680000D01*
X96694230Y-79695683D01*
X96691926Y-79711214D01*
X96688110Y-79726446D01*
X96682821Y-79741229D01*
X96676107Y-79755423D01*
X96668035Y-79768891D01*
X96658682Y-79781503D01*
X96648137Y-79793137D01*
X96636503Y-79803682D01*
X96623891Y-79813035D01*
X96610423Y-79821107D01*
X96596229Y-79827821D01*
X96581446Y-79833110D01*
X96566214Y-79836926D01*
X96550683Y-79839230D01*
X96535000Y-79840000D01*
X96215000Y-79840000D01*
X96199317Y-79839230D01*
X96183786Y-79836926D01*
X96168554Y-79833110D01*
X96153771Y-79827821D01*
X96139577Y-79821107D01*
X96126109Y-79813035D01*
X96113497Y-79803682D01*
X96101863Y-79793137D01*
X96091318Y-79781503D01*
X96081965Y-79768891D01*
X96073893Y-79755423D01*
X96067179Y-79741229D01*
X96061890Y-79726446D01*
X96058074Y-79711214D01*
X96055770Y-79695683D01*
X96055000Y-79680000D01*
X96055000Y-78720000D01*
X96055770Y-78704317D01*
X96058074Y-78688786D01*
X96061890Y-78673554D01*
X96067179Y-78658771D01*
X96073893Y-78644577D01*
X96081965Y-78631109D01*
X96091318Y-78618497D01*
X96101863Y-78606863D01*
X96113497Y-78596318D01*
X96126109Y-78586965D01*
X96139577Y-78578893D01*
X96153771Y-78572179D01*
X96168554Y-78566890D01*
X96183786Y-78563074D01*
X96199317Y-78560770D01*
X96215000Y-78560000D01*
X96535000Y-78560000D01*
X96550683Y-78560770D01*
X96550683Y-78560770D01*
G37*
D11*
X96375000Y-79200000D03*
D10*
G36*
X95300683Y-78560770D02*
X95316214Y-78563074D01*
X95331446Y-78566890D01*
X95346229Y-78572179D01*
X95360423Y-78578893D01*
X95373891Y-78586965D01*
X95386503Y-78596318D01*
X95398137Y-78606863D01*
X95408682Y-78618497D01*
X95418035Y-78631109D01*
X95426107Y-78644577D01*
X95432821Y-78658771D01*
X95438110Y-78673554D01*
X95441926Y-78688786D01*
X95444230Y-78704317D01*
X95445000Y-78720000D01*
X95445000Y-79680000D01*
X95444230Y-79695683D01*
X95441926Y-79711214D01*
X95438110Y-79726446D01*
X95432821Y-79741229D01*
X95426107Y-79755423D01*
X95418035Y-79768891D01*
X95408682Y-79781503D01*
X95398137Y-79793137D01*
X95386503Y-79803682D01*
X95373891Y-79813035D01*
X95360423Y-79821107D01*
X95346229Y-79827821D01*
X95331446Y-79833110D01*
X95316214Y-79836926D01*
X95300683Y-79839230D01*
X95285000Y-79840000D01*
X94965000Y-79840000D01*
X94949317Y-79839230D01*
X94933786Y-79836926D01*
X94918554Y-79833110D01*
X94903771Y-79827821D01*
X94889577Y-79821107D01*
X94876109Y-79813035D01*
X94863497Y-79803682D01*
X94851863Y-79793137D01*
X94841318Y-79781503D01*
X94831965Y-79768891D01*
X94823893Y-79755423D01*
X94817179Y-79741229D01*
X94811890Y-79726446D01*
X94808074Y-79711214D01*
X94805770Y-79695683D01*
X94805000Y-79680000D01*
X94805000Y-78720000D01*
X94805770Y-78704317D01*
X94808074Y-78688786D01*
X94811890Y-78673554D01*
X94817179Y-78658771D01*
X94823893Y-78644577D01*
X94831965Y-78631109D01*
X94841318Y-78618497D01*
X94851863Y-78606863D01*
X94863497Y-78596318D01*
X94876109Y-78586965D01*
X94889577Y-78578893D01*
X94903771Y-78572179D01*
X94918554Y-78566890D01*
X94933786Y-78563074D01*
X94949317Y-78560770D01*
X94965000Y-78560000D01*
X95285000Y-78560000D01*
X95300683Y-78560770D01*
X95300683Y-78560770D01*
G37*
D11*
X95125000Y-79200000D03*
D10*
G36*
X94050683Y-78560770D02*
X94066214Y-78563074D01*
X94081446Y-78566890D01*
X94096229Y-78572179D01*
X94110423Y-78578893D01*
X94123891Y-78586965D01*
X94136503Y-78596318D01*
X94148137Y-78606863D01*
X94158682Y-78618497D01*
X94168035Y-78631109D01*
X94176107Y-78644577D01*
X94182821Y-78658771D01*
X94188110Y-78673554D01*
X94191926Y-78688786D01*
X94194230Y-78704317D01*
X94195000Y-78720000D01*
X94195000Y-79680000D01*
X94194230Y-79695683D01*
X94191926Y-79711214D01*
X94188110Y-79726446D01*
X94182821Y-79741229D01*
X94176107Y-79755423D01*
X94168035Y-79768891D01*
X94158682Y-79781503D01*
X94148137Y-79793137D01*
X94136503Y-79803682D01*
X94123891Y-79813035D01*
X94110423Y-79821107D01*
X94096229Y-79827821D01*
X94081446Y-79833110D01*
X94066214Y-79836926D01*
X94050683Y-79839230D01*
X94035000Y-79840000D01*
X93715000Y-79840000D01*
X93699317Y-79839230D01*
X93683786Y-79836926D01*
X93668554Y-79833110D01*
X93653771Y-79827821D01*
X93639577Y-79821107D01*
X93626109Y-79813035D01*
X93613497Y-79803682D01*
X93601863Y-79793137D01*
X93591318Y-79781503D01*
X93581965Y-79768891D01*
X93573893Y-79755423D01*
X93567179Y-79741229D01*
X93561890Y-79726446D01*
X93558074Y-79711214D01*
X93555770Y-79695683D01*
X93555000Y-79680000D01*
X93555000Y-78720000D01*
X93555770Y-78704317D01*
X93558074Y-78688786D01*
X93561890Y-78673554D01*
X93567179Y-78658771D01*
X93573893Y-78644577D01*
X93581965Y-78631109D01*
X93591318Y-78618497D01*
X93601863Y-78606863D01*
X93613497Y-78596318D01*
X93626109Y-78586965D01*
X93639577Y-78578893D01*
X93653771Y-78572179D01*
X93668554Y-78566890D01*
X93683786Y-78563074D01*
X93699317Y-78560770D01*
X93715000Y-78560000D01*
X94035000Y-78560000D01*
X94050683Y-78560770D01*
X94050683Y-78560770D01*
G37*
D11*
X93875000Y-79200000D03*
D10*
G36*
X92800683Y-78560770D02*
X92816214Y-78563074D01*
X92831446Y-78566890D01*
X92846229Y-78572179D01*
X92860423Y-78578893D01*
X92873891Y-78586965D01*
X92886503Y-78596318D01*
X92898137Y-78606863D01*
X92908682Y-78618497D01*
X92918035Y-78631109D01*
X92926107Y-78644577D01*
X92932821Y-78658771D01*
X92938110Y-78673554D01*
X92941926Y-78688786D01*
X92944230Y-78704317D01*
X92945000Y-78720000D01*
X92945000Y-79680000D01*
X92944230Y-79695683D01*
X92941926Y-79711214D01*
X92938110Y-79726446D01*
X92932821Y-79741229D01*
X92926107Y-79755423D01*
X92918035Y-79768891D01*
X92908682Y-79781503D01*
X92898137Y-79793137D01*
X92886503Y-79803682D01*
X92873891Y-79813035D01*
X92860423Y-79821107D01*
X92846229Y-79827821D01*
X92831446Y-79833110D01*
X92816214Y-79836926D01*
X92800683Y-79839230D01*
X92785000Y-79840000D01*
X92465000Y-79840000D01*
X92449317Y-79839230D01*
X92433786Y-79836926D01*
X92418554Y-79833110D01*
X92403771Y-79827821D01*
X92389577Y-79821107D01*
X92376109Y-79813035D01*
X92363497Y-79803682D01*
X92351863Y-79793137D01*
X92341318Y-79781503D01*
X92331965Y-79768891D01*
X92323893Y-79755423D01*
X92317179Y-79741229D01*
X92311890Y-79726446D01*
X92308074Y-79711214D01*
X92305770Y-79695683D01*
X92305000Y-79680000D01*
X92305000Y-78720000D01*
X92305770Y-78704317D01*
X92308074Y-78688786D01*
X92311890Y-78673554D01*
X92317179Y-78658771D01*
X92323893Y-78644577D01*
X92331965Y-78631109D01*
X92341318Y-78618497D01*
X92351863Y-78606863D01*
X92363497Y-78596318D01*
X92376109Y-78586965D01*
X92389577Y-78578893D01*
X92403771Y-78572179D01*
X92418554Y-78566890D01*
X92433786Y-78563074D01*
X92449317Y-78560770D01*
X92465000Y-78560000D01*
X92785000Y-78560000D01*
X92800683Y-78560770D01*
X92800683Y-78560770D01*
G37*
D11*
X92625000Y-79200000D03*
D10*
G36*
X91550683Y-78560770D02*
X91566214Y-78563074D01*
X91581446Y-78566890D01*
X91596229Y-78572179D01*
X91610423Y-78578893D01*
X91623891Y-78586965D01*
X91636503Y-78596318D01*
X91648137Y-78606863D01*
X91658682Y-78618497D01*
X91668035Y-78631109D01*
X91676107Y-78644577D01*
X91682821Y-78658771D01*
X91688110Y-78673554D01*
X91691926Y-78688786D01*
X91694230Y-78704317D01*
X91695000Y-78720000D01*
X91695000Y-79680000D01*
X91694230Y-79695683D01*
X91691926Y-79711214D01*
X91688110Y-79726446D01*
X91682821Y-79741229D01*
X91676107Y-79755423D01*
X91668035Y-79768891D01*
X91658682Y-79781503D01*
X91648137Y-79793137D01*
X91636503Y-79803682D01*
X91623891Y-79813035D01*
X91610423Y-79821107D01*
X91596229Y-79827821D01*
X91581446Y-79833110D01*
X91566214Y-79836926D01*
X91550683Y-79839230D01*
X91535000Y-79840000D01*
X91215000Y-79840000D01*
X91199317Y-79839230D01*
X91183786Y-79836926D01*
X91168554Y-79833110D01*
X91153771Y-79827821D01*
X91139577Y-79821107D01*
X91126109Y-79813035D01*
X91113497Y-79803682D01*
X91101863Y-79793137D01*
X91091318Y-79781503D01*
X91081965Y-79768891D01*
X91073893Y-79755423D01*
X91067179Y-79741229D01*
X91061890Y-79726446D01*
X91058074Y-79711214D01*
X91055770Y-79695683D01*
X91055000Y-79680000D01*
X91055000Y-78720000D01*
X91055770Y-78704317D01*
X91058074Y-78688786D01*
X91061890Y-78673554D01*
X91067179Y-78658771D01*
X91073893Y-78644577D01*
X91081965Y-78631109D01*
X91091318Y-78618497D01*
X91101863Y-78606863D01*
X91113497Y-78596318D01*
X91126109Y-78586965D01*
X91139577Y-78578893D01*
X91153771Y-78572179D01*
X91168554Y-78566890D01*
X91183786Y-78563074D01*
X91199317Y-78560770D01*
X91215000Y-78560000D01*
X91535000Y-78560000D01*
X91550683Y-78560770D01*
X91550683Y-78560770D01*
G37*
D11*
X91375000Y-79200000D03*
D10*
G36*
X90300683Y-78560770D02*
X90316214Y-78563074D01*
X90331446Y-78566890D01*
X90346229Y-78572179D01*
X90360423Y-78578893D01*
X90373891Y-78586965D01*
X90386503Y-78596318D01*
X90398137Y-78606863D01*
X90408682Y-78618497D01*
X90418035Y-78631109D01*
X90426107Y-78644577D01*
X90432821Y-78658771D01*
X90438110Y-78673554D01*
X90441926Y-78688786D01*
X90444230Y-78704317D01*
X90445000Y-78720000D01*
X90445000Y-79680000D01*
X90444230Y-79695683D01*
X90441926Y-79711214D01*
X90438110Y-79726446D01*
X90432821Y-79741229D01*
X90426107Y-79755423D01*
X90418035Y-79768891D01*
X90408682Y-79781503D01*
X90398137Y-79793137D01*
X90386503Y-79803682D01*
X90373891Y-79813035D01*
X90360423Y-79821107D01*
X90346229Y-79827821D01*
X90331446Y-79833110D01*
X90316214Y-79836926D01*
X90300683Y-79839230D01*
X90285000Y-79840000D01*
X89965000Y-79840000D01*
X89949317Y-79839230D01*
X89933786Y-79836926D01*
X89918554Y-79833110D01*
X89903771Y-79827821D01*
X89889577Y-79821107D01*
X89876109Y-79813035D01*
X89863497Y-79803682D01*
X89851863Y-79793137D01*
X89841318Y-79781503D01*
X89831965Y-79768891D01*
X89823893Y-79755423D01*
X89817179Y-79741229D01*
X89811890Y-79726446D01*
X89808074Y-79711214D01*
X89805770Y-79695683D01*
X89805000Y-79680000D01*
X89805000Y-78720000D01*
X89805770Y-78704317D01*
X89808074Y-78688786D01*
X89811890Y-78673554D01*
X89817179Y-78658771D01*
X89823893Y-78644577D01*
X89831965Y-78631109D01*
X89841318Y-78618497D01*
X89851863Y-78606863D01*
X89863497Y-78596318D01*
X89876109Y-78586965D01*
X89889577Y-78578893D01*
X89903771Y-78572179D01*
X89918554Y-78566890D01*
X89933786Y-78563074D01*
X89949317Y-78560770D01*
X89965000Y-78560000D01*
X90285000Y-78560000D01*
X90300683Y-78560770D01*
X90300683Y-78560770D01*
G37*
D11*
X90125000Y-79200000D03*
D10*
G36*
X89050683Y-78560770D02*
X89066214Y-78563074D01*
X89081446Y-78566890D01*
X89096229Y-78572179D01*
X89110423Y-78578893D01*
X89123891Y-78586965D01*
X89136503Y-78596318D01*
X89148137Y-78606863D01*
X89158682Y-78618497D01*
X89168035Y-78631109D01*
X89176107Y-78644577D01*
X89182821Y-78658771D01*
X89188110Y-78673554D01*
X89191926Y-78688786D01*
X89194230Y-78704317D01*
X89195000Y-78720000D01*
X89195000Y-79680000D01*
X89194230Y-79695683D01*
X89191926Y-79711214D01*
X89188110Y-79726446D01*
X89182821Y-79741229D01*
X89176107Y-79755423D01*
X89168035Y-79768891D01*
X89158682Y-79781503D01*
X89148137Y-79793137D01*
X89136503Y-79803682D01*
X89123891Y-79813035D01*
X89110423Y-79821107D01*
X89096229Y-79827821D01*
X89081446Y-79833110D01*
X89066214Y-79836926D01*
X89050683Y-79839230D01*
X89035000Y-79840000D01*
X88715000Y-79840000D01*
X88699317Y-79839230D01*
X88683786Y-79836926D01*
X88668554Y-79833110D01*
X88653771Y-79827821D01*
X88639577Y-79821107D01*
X88626109Y-79813035D01*
X88613497Y-79803682D01*
X88601863Y-79793137D01*
X88591318Y-79781503D01*
X88581965Y-79768891D01*
X88573893Y-79755423D01*
X88567179Y-79741229D01*
X88561890Y-79726446D01*
X88558074Y-79711214D01*
X88555770Y-79695683D01*
X88555000Y-79680000D01*
X88555000Y-78720000D01*
X88555770Y-78704317D01*
X88558074Y-78688786D01*
X88561890Y-78673554D01*
X88567179Y-78658771D01*
X88573893Y-78644577D01*
X88581965Y-78631109D01*
X88591318Y-78618497D01*
X88601863Y-78606863D01*
X88613497Y-78596318D01*
X88626109Y-78586965D01*
X88639577Y-78578893D01*
X88653771Y-78572179D01*
X88668554Y-78566890D01*
X88683786Y-78563074D01*
X88699317Y-78560770D01*
X88715000Y-78560000D01*
X89035000Y-78560000D01*
X89050683Y-78560770D01*
X89050683Y-78560770D01*
G37*
D11*
X88875000Y-79200000D03*
D10*
G36*
X87800683Y-78560770D02*
X87816214Y-78563074D01*
X87831446Y-78566890D01*
X87846229Y-78572179D01*
X87860423Y-78578893D01*
X87873891Y-78586965D01*
X87886503Y-78596318D01*
X87898137Y-78606863D01*
X87908682Y-78618497D01*
X87918035Y-78631109D01*
X87926107Y-78644577D01*
X87932821Y-78658771D01*
X87938110Y-78673554D01*
X87941926Y-78688786D01*
X87944230Y-78704317D01*
X87945000Y-78720000D01*
X87945000Y-79680000D01*
X87944230Y-79695683D01*
X87941926Y-79711214D01*
X87938110Y-79726446D01*
X87932821Y-79741229D01*
X87926107Y-79755423D01*
X87918035Y-79768891D01*
X87908682Y-79781503D01*
X87898137Y-79793137D01*
X87886503Y-79803682D01*
X87873891Y-79813035D01*
X87860423Y-79821107D01*
X87846229Y-79827821D01*
X87831446Y-79833110D01*
X87816214Y-79836926D01*
X87800683Y-79839230D01*
X87785000Y-79840000D01*
X87465000Y-79840000D01*
X87449317Y-79839230D01*
X87433786Y-79836926D01*
X87418554Y-79833110D01*
X87403771Y-79827821D01*
X87389577Y-79821107D01*
X87376109Y-79813035D01*
X87363497Y-79803682D01*
X87351863Y-79793137D01*
X87341318Y-79781503D01*
X87331965Y-79768891D01*
X87323893Y-79755423D01*
X87317179Y-79741229D01*
X87311890Y-79726446D01*
X87308074Y-79711214D01*
X87305770Y-79695683D01*
X87305000Y-79680000D01*
X87305000Y-78720000D01*
X87305770Y-78704317D01*
X87308074Y-78688786D01*
X87311890Y-78673554D01*
X87317179Y-78658771D01*
X87323893Y-78644577D01*
X87331965Y-78631109D01*
X87341318Y-78618497D01*
X87351863Y-78606863D01*
X87363497Y-78596318D01*
X87376109Y-78586965D01*
X87389577Y-78578893D01*
X87403771Y-78572179D01*
X87418554Y-78566890D01*
X87433786Y-78563074D01*
X87449317Y-78560770D01*
X87465000Y-78560000D01*
X87785000Y-78560000D01*
X87800683Y-78560770D01*
X87800683Y-78560770D01*
G37*
D11*
X87625000Y-79200000D03*
D10*
G36*
X99584603Y-80900963D02*
X99604018Y-80903843D01*
X99623057Y-80908612D01*
X99641537Y-80915224D01*
X99659279Y-80923616D01*
X99676114Y-80933706D01*
X99691879Y-80945398D01*
X99706421Y-80958579D01*
X99719602Y-80973121D01*
X99731294Y-80988886D01*
X99741384Y-81005721D01*
X99749776Y-81023463D01*
X99756388Y-81041943D01*
X99761157Y-81060982D01*
X99764037Y-81080397D01*
X99765000Y-81100000D01*
X99765000Y-83100000D01*
X99764037Y-83119603D01*
X99761157Y-83139018D01*
X99756388Y-83158057D01*
X99749776Y-83176537D01*
X99741384Y-83194279D01*
X99731294Y-83211114D01*
X99719602Y-83226879D01*
X99706421Y-83241421D01*
X99691879Y-83254602D01*
X99676114Y-83266294D01*
X99659279Y-83276384D01*
X99641537Y-83284776D01*
X99623057Y-83291388D01*
X99604018Y-83296157D01*
X99584603Y-83299037D01*
X99565000Y-83300000D01*
X98285000Y-83300000D01*
X98265397Y-83299037D01*
X98245982Y-83296157D01*
X98226943Y-83291388D01*
X98208463Y-83284776D01*
X98190721Y-83276384D01*
X98173886Y-83266294D01*
X98158121Y-83254602D01*
X98143579Y-83241421D01*
X98130398Y-83226879D01*
X98118706Y-83211114D01*
X98108616Y-83194279D01*
X98100224Y-83176537D01*
X98093612Y-83158057D01*
X98088843Y-83139018D01*
X98085963Y-83119603D01*
X98085000Y-83100000D01*
X98085000Y-81100000D01*
X98085963Y-81080397D01*
X98088843Y-81060982D01*
X98093612Y-81041943D01*
X98100224Y-81023463D01*
X98108616Y-81005721D01*
X98118706Y-80988886D01*
X98130398Y-80973121D01*
X98143579Y-80958579D01*
X98158121Y-80945398D01*
X98173886Y-80933706D01*
X98190721Y-80923616D01*
X98208463Y-80915224D01*
X98226943Y-80908612D01*
X98245982Y-80903843D01*
X98265397Y-80900963D01*
X98285000Y-80900000D01*
X99565000Y-80900000D01*
X99584603Y-80900963D01*
X99584603Y-80900963D01*
G37*
D12*
X98925000Y-82100000D03*
D10*
G36*
X85734603Y-80900963D02*
X85754018Y-80903843D01*
X85773057Y-80908612D01*
X85791537Y-80915224D01*
X85809279Y-80923616D01*
X85826114Y-80933706D01*
X85841879Y-80945398D01*
X85856421Y-80958579D01*
X85869602Y-80973121D01*
X85881294Y-80988886D01*
X85891384Y-81005721D01*
X85899776Y-81023463D01*
X85906388Y-81041943D01*
X85911157Y-81060982D01*
X85914037Y-81080397D01*
X85915000Y-81100000D01*
X85915000Y-83100000D01*
X85914037Y-83119603D01*
X85911157Y-83139018D01*
X85906388Y-83158057D01*
X85899776Y-83176537D01*
X85891384Y-83194279D01*
X85881294Y-83211114D01*
X85869602Y-83226879D01*
X85856421Y-83241421D01*
X85841879Y-83254602D01*
X85826114Y-83266294D01*
X85809279Y-83276384D01*
X85791537Y-83284776D01*
X85773057Y-83291388D01*
X85754018Y-83296157D01*
X85734603Y-83299037D01*
X85715000Y-83300000D01*
X84435000Y-83300000D01*
X84415397Y-83299037D01*
X84395982Y-83296157D01*
X84376943Y-83291388D01*
X84358463Y-83284776D01*
X84340721Y-83276384D01*
X84323886Y-83266294D01*
X84308121Y-83254602D01*
X84293579Y-83241421D01*
X84280398Y-83226879D01*
X84268706Y-83211114D01*
X84258616Y-83194279D01*
X84250224Y-83176537D01*
X84243612Y-83158057D01*
X84238843Y-83139018D01*
X84235963Y-83119603D01*
X84235000Y-83100000D01*
X84235000Y-81100000D01*
X84235963Y-81080397D01*
X84238843Y-81060982D01*
X84243612Y-81041943D01*
X84250224Y-81023463D01*
X84258616Y-81005721D01*
X84268706Y-80988886D01*
X84280398Y-80973121D01*
X84293579Y-80958579D01*
X84308121Y-80945398D01*
X84323886Y-80933706D01*
X84340721Y-80923616D01*
X84358463Y-80915224D01*
X84376943Y-80908612D01*
X84395982Y-80903843D01*
X84415397Y-80900963D01*
X84435000Y-80900000D01*
X85715000Y-80900000D01*
X85734603Y-80900963D01*
X85734603Y-80900963D01*
G37*
D12*
X85075000Y-82100000D03*
G04 #@! TD*
D10*
G04 #@! TO.C,CONN2*
G36*
X95595683Y-67805770D02*
X95611214Y-67808074D01*
X95626446Y-67811890D01*
X95641229Y-67817179D01*
X95655423Y-67823893D01*
X95668891Y-67831965D01*
X95681503Y-67841318D01*
X95693137Y-67851863D01*
X95703682Y-67863497D01*
X95713035Y-67876109D01*
X95721107Y-67889577D01*
X95727821Y-67903771D01*
X95733110Y-67918554D01*
X95736926Y-67933786D01*
X95739230Y-67949317D01*
X95740000Y-67965000D01*
X95740000Y-68285000D01*
X95739230Y-68300683D01*
X95736926Y-68316214D01*
X95733110Y-68331446D01*
X95727821Y-68346229D01*
X95721107Y-68360423D01*
X95713035Y-68373891D01*
X95703682Y-68386503D01*
X95693137Y-68398137D01*
X95681503Y-68408682D01*
X95668891Y-68418035D01*
X95655423Y-68426107D01*
X95641229Y-68432821D01*
X95626446Y-68438110D01*
X95611214Y-68441926D01*
X95595683Y-68444230D01*
X95580000Y-68445000D01*
X94620000Y-68445000D01*
X94604317Y-68444230D01*
X94588786Y-68441926D01*
X94573554Y-68438110D01*
X94558771Y-68432821D01*
X94544577Y-68426107D01*
X94531109Y-68418035D01*
X94518497Y-68408682D01*
X94506863Y-68398137D01*
X94496318Y-68386503D01*
X94486965Y-68373891D01*
X94478893Y-68360423D01*
X94472179Y-68346229D01*
X94466890Y-68331446D01*
X94463074Y-68316214D01*
X94460770Y-68300683D01*
X94460000Y-68285000D01*
X94460000Y-67965000D01*
X94460770Y-67949317D01*
X94463074Y-67933786D01*
X94466890Y-67918554D01*
X94472179Y-67903771D01*
X94478893Y-67889577D01*
X94486965Y-67876109D01*
X94496318Y-67863497D01*
X94506863Y-67851863D01*
X94518497Y-67841318D01*
X94531109Y-67831965D01*
X94544577Y-67823893D01*
X94558771Y-67817179D01*
X94573554Y-67811890D01*
X94588786Y-67808074D01*
X94604317Y-67805770D01*
X94620000Y-67805000D01*
X95580000Y-67805000D01*
X95595683Y-67805770D01*
X95595683Y-67805770D01*
G37*
D11*
X95100000Y-68125000D03*
D10*
G36*
X95595683Y-69055770D02*
X95611214Y-69058074D01*
X95626446Y-69061890D01*
X95641229Y-69067179D01*
X95655423Y-69073893D01*
X95668891Y-69081965D01*
X95681503Y-69091318D01*
X95693137Y-69101863D01*
X95703682Y-69113497D01*
X95713035Y-69126109D01*
X95721107Y-69139577D01*
X95727821Y-69153771D01*
X95733110Y-69168554D01*
X95736926Y-69183786D01*
X95739230Y-69199317D01*
X95740000Y-69215000D01*
X95740000Y-69535000D01*
X95739230Y-69550683D01*
X95736926Y-69566214D01*
X95733110Y-69581446D01*
X95727821Y-69596229D01*
X95721107Y-69610423D01*
X95713035Y-69623891D01*
X95703682Y-69636503D01*
X95693137Y-69648137D01*
X95681503Y-69658682D01*
X95668891Y-69668035D01*
X95655423Y-69676107D01*
X95641229Y-69682821D01*
X95626446Y-69688110D01*
X95611214Y-69691926D01*
X95595683Y-69694230D01*
X95580000Y-69695000D01*
X94620000Y-69695000D01*
X94604317Y-69694230D01*
X94588786Y-69691926D01*
X94573554Y-69688110D01*
X94558771Y-69682821D01*
X94544577Y-69676107D01*
X94531109Y-69668035D01*
X94518497Y-69658682D01*
X94506863Y-69648137D01*
X94496318Y-69636503D01*
X94486965Y-69623891D01*
X94478893Y-69610423D01*
X94472179Y-69596229D01*
X94466890Y-69581446D01*
X94463074Y-69566214D01*
X94460770Y-69550683D01*
X94460000Y-69535000D01*
X94460000Y-69215000D01*
X94460770Y-69199317D01*
X94463074Y-69183786D01*
X94466890Y-69168554D01*
X94472179Y-69153771D01*
X94478893Y-69139577D01*
X94486965Y-69126109D01*
X94496318Y-69113497D01*
X94506863Y-69101863D01*
X94518497Y-69091318D01*
X94531109Y-69081965D01*
X94544577Y-69073893D01*
X94558771Y-69067179D01*
X94573554Y-69061890D01*
X94588786Y-69058074D01*
X94604317Y-69055770D01*
X94620000Y-69055000D01*
X95580000Y-69055000D01*
X95595683Y-69055770D01*
X95595683Y-69055770D01*
G37*
D11*
X95100000Y-69375000D03*
D10*
G36*
X95595683Y-70305770D02*
X95611214Y-70308074D01*
X95626446Y-70311890D01*
X95641229Y-70317179D01*
X95655423Y-70323893D01*
X95668891Y-70331965D01*
X95681503Y-70341318D01*
X95693137Y-70351863D01*
X95703682Y-70363497D01*
X95713035Y-70376109D01*
X95721107Y-70389577D01*
X95727821Y-70403771D01*
X95733110Y-70418554D01*
X95736926Y-70433786D01*
X95739230Y-70449317D01*
X95740000Y-70465000D01*
X95740000Y-70785000D01*
X95739230Y-70800683D01*
X95736926Y-70816214D01*
X95733110Y-70831446D01*
X95727821Y-70846229D01*
X95721107Y-70860423D01*
X95713035Y-70873891D01*
X95703682Y-70886503D01*
X95693137Y-70898137D01*
X95681503Y-70908682D01*
X95668891Y-70918035D01*
X95655423Y-70926107D01*
X95641229Y-70932821D01*
X95626446Y-70938110D01*
X95611214Y-70941926D01*
X95595683Y-70944230D01*
X95580000Y-70945000D01*
X94620000Y-70945000D01*
X94604317Y-70944230D01*
X94588786Y-70941926D01*
X94573554Y-70938110D01*
X94558771Y-70932821D01*
X94544577Y-70926107D01*
X94531109Y-70918035D01*
X94518497Y-70908682D01*
X94506863Y-70898137D01*
X94496318Y-70886503D01*
X94486965Y-70873891D01*
X94478893Y-70860423D01*
X94472179Y-70846229D01*
X94466890Y-70831446D01*
X94463074Y-70816214D01*
X94460770Y-70800683D01*
X94460000Y-70785000D01*
X94460000Y-70465000D01*
X94460770Y-70449317D01*
X94463074Y-70433786D01*
X94466890Y-70418554D01*
X94472179Y-70403771D01*
X94478893Y-70389577D01*
X94486965Y-70376109D01*
X94496318Y-70363497D01*
X94506863Y-70351863D01*
X94518497Y-70341318D01*
X94531109Y-70331965D01*
X94544577Y-70323893D01*
X94558771Y-70317179D01*
X94573554Y-70311890D01*
X94588786Y-70308074D01*
X94604317Y-70305770D01*
X94620000Y-70305000D01*
X95580000Y-70305000D01*
X95595683Y-70305770D01*
X95595683Y-70305770D01*
G37*
D11*
X95100000Y-70625000D03*
D10*
G36*
X95595683Y-71555770D02*
X95611214Y-71558074D01*
X95626446Y-71561890D01*
X95641229Y-71567179D01*
X95655423Y-71573893D01*
X95668891Y-71581965D01*
X95681503Y-71591318D01*
X95693137Y-71601863D01*
X95703682Y-71613497D01*
X95713035Y-71626109D01*
X95721107Y-71639577D01*
X95727821Y-71653771D01*
X95733110Y-71668554D01*
X95736926Y-71683786D01*
X95739230Y-71699317D01*
X95740000Y-71715000D01*
X95740000Y-72035000D01*
X95739230Y-72050683D01*
X95736926Y-72066214D01*
X95733110Y-72081446D01*
X95727821Y-72096229D01*
X95721107Y-72110423D01*
X95713035Y-72123891D01*
X95703682Y-72136503D01*
X95693137Y-72148137D01*
X95681503Y-72158682D01*
X95668891Y-72168035D01*
X95655423Y-72176107D01*
X95641229Y-72182821D01*
X95626446Y-72188110D01*
X95611214Y-72191926D01*
X95595683Y-72194230D01*
X95580000Y-72195000D01*
X94620000Y-72195000D01*
X94604317Y-72194230D01*
X94588786Y-72191926D01*
X94573554Y-72188110D01*
X94558771Y-72182821D01*
X94544577Y-72176107D01*
X94531109Y-72168035D01*
X94518497Y-72158682D01*
X94506863Y-72148137D01*
X94496318Y-72136503D01*
X94486965Y-72123891D01*
X94478893Y-72110423D01*
X94472179Y-72096229D01*
X94466890Y-72081446D01*
X94463074Y-72066214D01*
X94460770Y-72050683D01*
X94460000Y-72035000D01*
X94460000Y-71715000D01*
X94460770Y-71699317D01*
X94463074Y-71683786D01*
X94466890Y-71668554D01*
X94472179Y-71653771D01*
X94478893Y-71639577D01*
X94486965Y-71626109D01*
X94496318Y-71613497D01*
X94506863Y-71601863D01*
X94518497Y-71591318D01*
X94531109Y-71581965D01*
X94544577Y-71573893D01*
X94558771Y-71567179D01*
X94573554Y-71561890D01*
X94588786Y-71558074D01*
X94604317Y-71555770D01*
X94620000Y-71555000D01*
X95580000Y-71555000D01*
X95595683Y-71555770D01*
X95595683Y-71555770D01*
G37*
D11*
X95100000Y-71875000D03*
D10*
G36*
X99019603Y-64735963D02*
X99039018Y-64738843D01*
X99058057Y-64743612D01*
X99076537Y-64750224D01*
X99094279Y-64758616D01*
X99111114Y-64768706D01*
X99126879Y-64780398D01*
X99141421Y-64793579D01*
X99154602Y-64808121D01*
X99166294Y-64823886D01*
X99176384Y-64840721D01*
X99184776Y-64858463D01*
X99191388Y-64876943D01*
X99196157Y-64895982D01*
X99199037Y-64915397D01*
X99200000Y-64935000D01*
X99200000Y-66215000D01*
X99199037Y-66234603D01*
X99196157Y-66254018D01*
X99191388Y-66273057D01*
X99184776Y-66291537D01*
X99176384Y-66309279D01*
X99166294Y-66326114D01*
X99154602Y-66341879D01*
X99141421Y-66356421D01*
X99126879Y-66369602D01*
X99111114Y-66381294D01*
X99094279Y-66391384D01*
X99076537Y-66399776D01*
X99058057Y-66406388D01*
X99039018Y-66411157D01*
X99019603Y-66414037D01*
X99000000Y-66415000D01*
X97000000Y-66415000D01*
X96980397Y-66414037D01*
X96960982Y-66411157D01*
X96941943Y-66406388D01*
X96923463Y-66399776D01*
X96905721Y-66391384D01*
X96888886Y-66381294D01*
X96873121Y-66369602D01*
X96858579Y-66356421D01*
X96845398Y-66341879D01*
X96833706Y-66326114D01*
X96823616Y-66309279D01*
X96815224Y-66291537D01*
X96808612Y-66273057D01*
X96803843Y-66254018D01*
X96800963Y-66234603D01*
X96800000Y-66215000D01*
X96800000Y-64935000D01*
X96800963Y-64915397D01*
X96803843Y-64895982D01*
X96808612Y-64876943D01*
X96815224Y-64858463D01*
X96823616Y-64840721D01*
X96833706Y-64823886D01*
X96845398Y-64808121D01*
X96858579Y-64793579D01*
X96873121Y-64780398D01*
X96888886Y-64768706D01*
X96905721Y-64758616D01*
X96923463Y-64750224D01*
X96941943Y-64743612D01*
X96960982Y-64738843D01*
X96980397Y-64735963D01*
X97000000Y-64735000D01*
X99000000Y-64735000D01*
X99019603Y-64735963D01*
X99019603Y-64735963D01*
G37*
D12*
X98000000Y-65575000D03*
D10*
G36*
X99019603Y-73585963D02*
X99039018Y-73588843D01*
X99058057Y-73593612D01*
X99076537Y-73600224D01*
X99094279Y-73608616D01*
X99111114Y-73618706D01*
X99126879Y-73630398D01*
X99141421Y-73643579D01*
X99154602Y-73658121D01*
X99166294Y-73673886D01*
X99176384Y-73690721D01*
X99184776Y-73708463D01*
X99191388Y-73726943D01*
X99196157Y-73745982D01*
X99199037Y-73765397D01*
X99200000Y-73785000D01*
X99200000Y-75065000D01*
X99199037Y-75084603D01*
X99196157Y-75104018D01*
X99191388Y-75123057D01*
X99184776Y-75141537D01*
X99176384Y-75159279D01*
X99166294Y-75176114D01*
X99154602Y-75191879D01*
X99141421Y-75206421D01*
X99126879Y-75219602D01*
X99111114Y-75231294D01*
X99094279Y-75241384D01*
X99076537Y-75249776D01*
X99058057Y-75256388D01*
X99039018Y-75261157D01*
X99019603Y-75264037D01*
X99000000Y-75265000D01*
X97000000Y-75265000D01*
X96980397Y-75264037D01*
X96960982Y-75261157D01*
X96941943Y-75256388D01*
X96923463Y-75249776D01*
X96905721Y-75241384D01*
X96888886Y-75231294D01*
X96873121Y-75219602D01*
X96858579Y-75206421D01*
X96845398Y-75191879D01*
X96833706Y-75176114D01*
X96823616Y-75159279D01*
X96815224Y-75141537D01*
X96808612Y-75123057D01*
X96803843Y-75104018D01*
X96800963Y-75084603D01*
X96800000Y-75065000D01*
X96800000Y-73785000D01*
X96800963Y-73765397D01*
X96803843Y-73745982D01*
X96808612Y-73726943D01*
X96815224Y-73708463D01*
X96823616Y-73690721D01*
X96833706Y-73673886D01*
X96845398Y-73658121D01*
X96858579Y-73643579D01*
X96873121Y-73630398D01*
X96888886Y-73618706D01*
X96905721Y-73608616D01*
X96923463Y-73600224D01*
X96941943Y-73593612D01*
X96960982Y-73588843D01*
X96980397Y-73585963D01*
X97000000Y-73585000D01*
X99000000Y-73585000D01*
X99019603Y-73585963D01*
X99019603Y-73585963D01*
G37*
D12*
X98000000Y-74425000D03*
G04 #@! TD*
D10*
G04 #@! TO.C,CONN3*
G36*
X87019603Y-64735963D02*
X87039018Y-64738843D01*
X87058057Y-64743612D01*
X87076537Y-64750224D01*
X87094279Y-64758616D01*
X87111114Y-64768706D01*
X87126879Y-64780398D01*
X87141421Y-64793579D01*
X87154602Y-64808121D01*
X87166294Y-64823886D01*
X87176384Y-64840721D01*
X87184776Y-64858463D01*
X87191388Y-64876943D01*
X87196157Y-64895982D01*
X87199037Y-64915397D01*
X87200000Y-64935000D01*
X87200000Y-66215000D01*
X87199037Y-66234603D01*
X87196157Y-66254018D01*
X87191388Y-66273057D01*
X87184776Y-66291537D01*
X87176384Y-66309279D01*
X87166294Y-66326114D01*
X87154602Y-66341879D01*
X87141421Y-66356421D01*
X87126879Y-66369602D01*
X87111114Y-66381294D01*
X87094279Y-66391384D01*
X87076537Y-66399776D01*
X87058057Y-66406388D01*
X87039018Y-66411157D01*
X87019603Y-66414037D01*
X87000000Y-66415000D01*
X85000000Y-66415000D01*
X84980397Y-66414037D01*
X84960982Y-66411157D01*
X84941943Y-66406388D01*
X84923463Y-66399776D01*
X84905721Y-66391384D01*
X84888886Y-66381294D01*
X84873121Y-66369602D01*
X84858579Y-66356421D01*
X84845398Y-66341879D01*
X84833706Y-66326114D01*
X84823616Y-66309279D01*
X84815224Y-66291537D01*
X84808612Y-66273057D01*
X84803843Y-66254018D01*
X84800963Y-66234603D01*
X84800000Y-66215000D01*
X84800000Y-64935000D01*
X84800963Y-64915397D01*
X84803843Y-64895982D01*
X84808612Y-64876943D01*
X84815224Y-64858463D01*
X84823616Y-64840721D01*
X84833706Y-64823886D01*
X84845398Y-64808121D01*
X84858579Y-64793579D01*
X84873121Y-64780398D01*
X84888886Y-64768706D01*
X84905721Y-64758616D01*
X84923463Y-64750224D01*
X84941943Y-64743612D01*
X84960982Y-64738843D01*
X84980397Y-64735963D01*
X85000000Y-64735000D01*
X87000000Y-64735000D01*
X87019603Y-64735963D01*
X87019603Y-64735963D01*
G37*
D12*
X86000000Y-65575000D03*
D10*
G36*
X87019603Y-73585963D02*
X87039018Y-73588843D01*
X87058057Y-73593612D01*
X87076537Y-73600224D01*
X87094279Y-73608616D01*
X87111114Y-73618706D01*
X87126879Y-73630398D01*
X87141421Y-73643579D01*
X87154602Y-73658121D01*
X87166294Y-73673886D01*
X87176384Y-73690721D01*
X87184776Y-73708463D01*
X87191388Y-73726943D01*
X87196157Y-73745982D01*
X87199037Y-73765397D01*
X87200000Y-73785000D01*
X87200000Y-75065000D01*
X87199037Y-75084603D01*
X87196157Y-75104018D01*
X87191388Y-75123057D01*
X87184776Y-75141537D01*
X87176384Y-75159279D01*
X87166294Y-75176114D01*
X87154602Y-75191879D01*
X87141421Y-75206421D01*
X87126879Y-75219602D01*
X87111114Y-75231294D01*
X87094279Y-75241384D01*
X87076537Y-75249776D01*
X87058057Y-75256388D01*
X87039018Y-75261157D01*
X87019603Y-75264037D01*
X87000000Y-75265000D01*
X85000000Y-75265000D01*
X84980397Y-75264037D01*
X84960982Y-75261157D01*
X84941943Y-75256388D01*
X84923463Y-75249776D01*
X84905721Y-75241384D01*
X84888886Y-75231294D01*
X84873121Y-75219602D01*
X84858579Y-75206421D01*
X84845398Y-75191879D01*
X84833706Y-75176114D01*
X84823616Y-75159279D01*
X84815224Y-75141537D01*
X84808612Y-75123057D01*
X84803843Y-75104018D01*
X84800963Y-75084603D01*
X84800000Y-75065000D01*
X84800000Y-73785000D01*
X84800963Y-73765397D01*
X84803843Y-73745982D01*
X84808612Y-73726943D01*
X84815224Y-73708463D01*
X84823616Y-73690721D01*
X84833706Y-73673886D01*
X84845398Y-73658121D01*
X84858579Y-73643579D01*
X84873121Y-73630398D01*
X84888886Y-73618706D01*
X84905721Y-73608616D01*
X84923463Y-73600224D01*
X84941943Y-73593612D01*
X84960982Y-73588843D01*
X84980397Y-73585963D01*
X85000000Y-73585000D01*
X87000000Y-73585000D01*
X87019603Y-73585963D01*
X87019603Y-73585963D01*
G37*
D12*
X86000000Y-74425000D03*
D10*
G36*
X89395683Y-67805770D02*
X89411214Y-67808074D01*
X89426446Y-67811890D01*
X89441229Y-67817179D01*
X89455423Y-67823893D01*
X89468891Y-67831965D01*
X89481503Y-67841318D01*
X89493137Y-67851863D01*
X89503682Y-67863497D01*
X89513035Y-67876109D01*
X89521107Y-67889577D01*
X89527821Y-67903771D01*
X89533110Y-67918554D01*
X89536926Y-67933786D01*
X89539230Y-67949317D01*
X89540000Y-67965000D01*
X89540000Y-68285000D01*
X89539230Y-68300683D01*
X89536926Y-68316214D01*
X89533110Y-68331446D01*
X89527821Y-68346229D01*
X89521107Y-68360423D01*
X89513035Y-68373891D01*
X89503682Y-68386503D01*
X89493137Y-68398137D01*
X89481503Y-68408682D01*
X89468891Y-68418035D01*
X89455423Y-68426107D01*
X89441229Y-68432821D01*
X89426446Y-68438110D01*
X89411214Y-68441926D01*
X89395683Y-68444230D01*
X89380000Y-68445000D01*
X88420000Y-68445000D01*
X88404317Y-68444230D01*
X88388786Y-68441926D01*
X88373554Y-68438110D01*
X88358771Y-68432821D01*
X88344577Y-68426107D01*
X88331109Y-68418035D01*
X88318497Y-68408682D01*
X88306863Y-68398137D01*
X88296318Y-68386503D01*
X88286965Y-68373891D01*
X88278893Y-68360423D01*
X88272179Y-68346229D01*
X88266890Y-68331446D01*
X88263074Y-68316214D01*
X88260770Y-68300683D01*
X88260000Y-68285000D01*
X88260000Y-67965000D01*
X88260770Y-67949317D01*
X88263074Y-67933786D01*
X88266890Y-67918554D01*
X88272179Y-67903771D01*
X88278893Y-67889577D01*
X88286965Y-67876109D01*
X88296318Y-67863497D01*
X88306863Y-67851863D01*
X88318497Y-67841318D01*
X88331109Y-67831965D01*
X88344577Y-67823893D01*
X88358771Y-67817179D01*
X88373554Y-67811890D01*
X88388786Y-67808074D01*
X88404317Y-67805770D01*
X88420000Y-67805000D01*
X89380000Y-67805000D01*
X89395683Y-67805770D01*
X89395683Y-67805770D01*
G37*
D11*
X88900000Y-68125000D03*
D10*
G36*
X89395683Y-69055770D02*
X89411214Y-69058074D01*
X89426446Y-69061890D01*
X89441229Y-69067179D01*
X89455423Y-69073893D01*
X89468891Y-69081965D01*
X89481503Y-69091318D01*
X89493137Y-69101863D01*
X89503682Y-69113497D01*
X89513035Y-69126109D01*
X89521107Y-69139577D01*
X89527821Y-69153771D01*
X89533110Y-69168554D01*
X89536926Y-69183786D01*
X89539230Y-69199317D01*
X89540000Y-69215000D01*
X89540000Y-69535000D01*
X89539230Y-69550683D01*
X89536926Y-69566214D01*
X89533110Y-69581446D01*
X89527821Y-69596229D01*
X89521107Y-69610423D01*
X89513035Y-69623891D01*
X89503682Y-69636503D01*
X89493137Y-69648137D01*
X89481503Y-69658682D01*
X89468891Y-69668035D01*
X89455423Y-69676107D01*
X89441229Y-69682821D01*
X89426446Y-69688110D01*
X89411214Y-69691926D01*
X89395683Y-69694230D01*
X89380000Y-69695000D01*
X88420000Y-69695000D01*
X88404317Y-69694230D01*
X88388786Y-69691926D01*
X88373554Y-69688110D01*
X88358771Y-69682821D01*
X88344577Y-69676107D01*
X88331109Y-69668035D01*
X88318497Y-69658682D01*
X88306863Y-69648137D01*
X88296318Y-69636503D01*
X88286965Y-69623891D01*
X88278893Y-69610423D01*
X88272179Y-69596229D01*
X88266890Y-69581446D01*
X88263074Y-69566214D01*
X88260770Y-69550683D01*
X88260000Y-69535000D01*
X88260000Y-69215000D01*
X88260770Y-69199317D01*
X88263074Y-69183786D01*
X88266890Y-69168554D01*
X88272179Y-69153771D01*
X88278893Y-69139577D01*
X88286965Y-69126109D01*
X88296318Y-69113497D01*
X88306863Y-69101863D01*
X88318497Y-69091318D01*
X88331109Y-69081965D01*
X88344577Y-69073893D01*
X88358771Y-69067179D01*
X88373554Y-69061890D01*
X88388786Y-69058074D01*
X88404317Y-69055770D01*
X88420000Y-69055000D01*
X89380000Y-69055000D01*
X89395683Y-69055770D01*
X89395683Y-69055770D01*
G37*
D11*
X88900000Y-69375000D03*
D10*
G36*
X89395683Y-70305770D02*
X89411214Y-70308074D01*
X89426446Y-70311890D01*
X89441229Y-70317179D01*
X89455423Y-70323893D01*
X89468891Y-70331965D01*
X89481503Y-70341318D01*
X89493137Y-70351863D01*
X89503682Y-70363497D01*
X89513035Y-70376109D01*
X89521107Y-70389577D01*
X89527821Y-70403771D01*
X89533110Y-70418554D01*
X89536926Y-70433786D01*
X89539230Y-70449317D01*
X89540000Y-70465000D01*
X89540000Y-70785000D01*
X89539230Y-70800683D01*
X89536926Y-70816214D01*
X89533110Y-70831446D01*
X89527821Y-70846229D01*
X89521107Y-70860423D01*
X89513035Y-70873891D01*
X89503682Y-70886503D01*
X89493137Y-70898137D01*
X89481503Y-70908682D01*
X89468891Y-70918035D01*
X89455423Y-70926107D01*
X89441229Y-70932821D01*
X89426446Y-70938110D01*
X89411214Y-70941926D01*
X89395683Y-70944230D01*
X89380000Y-70945000D01*
X88420000Y-70945000D01*
X88404317Y-70944230D01*
X88388786Y-70941926D01*
X88373554Y-70938110D01*
X88358771Y-70932821D01*
X88344577Y-70926107D01*
X88331109Y-70918035D01*
X88318497Y-70908682D01*
X88306863Y-70898137D01*
X88296318Y-70886503D01*
X88286965Y-70873891D01*
X88278893Y-70860423D01*
X88272179Y-70846229D01*
X88266890Y-70831446D01*
X88263074Y-70816214D01*
X88260770Y-70800683D01*
X88260000Y-70785000D01*
X88260000Y-70465000D01*
X88260770Y-70449317D01*
X88263074Y-70433786D01*
X88266890Y-70418554D01*
X88272179Y-70403771D01*
X88278893Y-70389577D01*
X88286965Y-70376109D01*
X88296318Y-70363497D01*
X88306863Y-70351863D01*
X88318497Y-70341318D01*
X88331109Y-70331965D01*
X88344577Y-70323893D01*
X88358771Y-70317179D01*
X88373554Y-70311890D01*
X88388786Y-70308074D01*
X88404317Y-70305770D01*
X88420000Y-70305000D01*
X89380000Y-70305000D01*
X89395683Y-70305770D01*
X89395683Y-70305770D01*
G37*
D11*
X88900000Y-70625000D03*
D10*
G36*
X89395683Y-71555770D02*
X89411214Y-71558074D01*
X89426446Y-71561890D01*
X89441229Y-71567179D01*
X89455423Y-71573893D01*
X89468891Y-71581965D01*
X89481503Y-71591318D01*
X89493137Y-71601863D01*
X89503682Y-71613497D01*
X89513035Y-71626109D01*
X89521107Y-71639577D01*
X89527821Y-71653771D01*
X89533110Y-71668554D01*
X89536926Y-71683786D01*
X89539230Y-71699317D01*
X89540000Y-71715000D01*
X89540000Y-72035000D01*
X89539230Y-72050683D01*
X89536926Y-72066214D01*
X89533110Y-72081446D01*
X89527821Y-72096229D01*
X89521107Y-72110423D01*
X89513035Y-72123891D01*
X89503682Y-72136503D01*
X89493137Y-72148137D01*
X89481503Y-72158682D01*
X89468891Y-72168035D01*
X89455423Y-72176107D01*
X89441229Y-72182821D01*
X89426446Y-72188110D01*
X89411214Y-72191926D01*
X89395683Y-72194230D01*
X89380000Y-72195000D01*
X88420000Y-72195000D01*
X88404317Y-72194230D01*
X88388786Y-72191926D01*
X88373554Y-72188110D01*
X88358771Y-72182821D01*
X88344577Y-72176107D01*
X88331109Y-72168035D01*
X88318497Y-72158682D01*
X88306863Y-72148137D01*
X88296318Y-72136503D01*
X88286965Y-72123891D01*
X88278893Y-72110423D01*
X88272179Y-72096229D01*
X88266890Y-72081446D01*
X88263074Y-72066214D01*
X88260770Y-72050683D01*
X88260000Y-72035000D01*
X88260000Y-71715000D01*
X88260770Y-71699317D01*
X88263074Y-71683786D01*
X88266890Y-71668554D01*
X88272179Y-71653771D01*
X88278893Y-71639577D01*
X88286965Y-71626109D01*
X88296318Y-71613497D01*
X88306863Y-71601863D01*
X88318497Y-71591318D01*
X88331109Y-71581965D01*
X88344577Y-71573893D01*
X88358771Y-71567179D01*
X88373554Y-71561890D01*
X88388786Y-71558074D01*
X88404317Y-71555770D01*
X88420000Y-71555000D01*
X89380000Y-71555000D01*
X89395683Y-71555770D01*
X89395683Y-71555770D01*
G37*
D11*
X88900000Y-71875000D03*
G04 #@! TD*
M02*
