G04 #@! TF.FileFunction,Soldermask,Bot*
%FSLAX46Y46*%
G04 Gerber Fmt 4.6, Leading zero omitted, Abs format (unit mm)*
G04 Created by KiCad (PCBNEW 4.0.1-stable) date 2016 March 10, Thursday 22:45:26*
%MOMM*%
G01*
G04 APERTURE LIST*
%ADD10C,0.100000*%
%ADD11R,1.200000X2.000000*%
%ADD12R,2.500000X3.400000*%
%ADD13R,1.150000X1.200000*%
%ADD14R,1.200000X1.150000*%
%ADD15R,1.200000X1.200000*%
%ADD16O,1.200000X1.200000*%
%ADD17R,1.200000X1.600000*%
%ADD18R,0.750000X1.300000*%
%ADD19R,1.550000X1.800000*%
%ADD20C,1.900000*%
%ADD21R,1.900000X1.900000*%
G04 APERTURE END LIST*
D10*
D11*
X93125000Y-44999800D03*
X94375000Y-44999800D03*
X95625000Y-44999800D03*
X96875000Y-44999800D03*
D12*
X90575000Y-42099800D03*
X99425000Y-42099800D03*
D13*
X99500000Y-60250000D03*
X99500000Y-58750000D03*
D14*
X92500000Y-59800000D03*
X91000000Y-59800000D03*
X96250000Y-53250000D03*
X94750000Y-53250000D03*
X95550000Y-58800000D03*
X97050000Y-58800000D03*
X91050000Y-53300000D03*
X92550000Y-53300000D03*
D13*
X95250000Y-48000000D03*
X95250000Y-49500000D03*
D14*
X97500000Y-52000000D03*
X99000000Y-52000000D03*
D15*
X91250000Y-61500000D03*
D16*
X92500000Y-61500000D03*
X93750000Y-61500000D03*
X95000000Y-61500000D03*
X96250000Y-61500000D03*
X97500000Y-61500000D03*
X98750000Y-61500000D03*
D17*
X98200000Y-46900000D03*
X97250000Y-49500000D03*
X99150000Y-49500000D03*
D18*
X93300000Y-48400000D03*
X92650000Y-48400000D03*
X92000000Y-48400000D03*
X91350000Y-48400000D03*
X91350000Y-51000000D03*
X92000000Y-51000000D03*
X92650000Y-51000000D03*
X93300000Y-51000000D03*
D19*
X94700000Y-54900000D03*
X94700000Y-57100000D03*
X96300000Y-57100000D03*
X96300000Y-54900000D03*
D20*
X88750000Y-60500000D03*
X88750000Y-58500000D03*
X88750000Y-56500000D03*
X88750000Y-54500000D03*
X88750000Y-52500000D03*
X88750000Y-50500000D03*
D21*
X88750000Y-46500000D03*
D20*
X88750000Y-48500000D03*
X101250000Y-46500000D03*
X101250000Y-48500000D03*
X101250000Y-50500000D03*
X101250000Y-52500000D03*
X101250000Y-54500000D03*
X101250000Y-56500000D03*
D21*
X101250000Y-60500000D03*
D20*
X101250000Y-58500000D03*
M02*
